<svg width="212" height="42" viewBox="0 0 212 42" fill="none" xmlns="http://www.w3.org/2000/svg">
<path d="M33.5032 27.2201C34.1388 27.2201 34.4569 28.0363 34.4569 29.6684C34.3869 30.8289 34.0152 31.9513 33.3796 32.9239C32.6051 34.2229 31.631 35.3909 30.4927 36.3829C29.3083 37.4309 27.9789 38.3001 26.5461 38.9646C25.2241 39.6093 23.7773 39.9547 22.3082 39.9761C20.4364 39.9761 19.1828 38.3261 18.5472 35.026C17.6316 36.5291 16.3878 37.803 14.9096 38.7514C13.1071 39.8112 11.036 40.3204 8.95012 40.2153C7.8406 40.2636 6.73299 40.0792 5.69812 39.6746C4.66299 39.2696 3.72302 38.6537 2.93758 37.8644C2.20136 37.1247 1.62403 36.2397 1.24143 35.2663C0.858826 34.2929 0.678874 33.2515 0.712786 32.2054C0.712786 26.1732 2.70812 21.4187 6.6988 17.941C8.07415 16.6771 9.68552 15.7001 11.4399 15.0672C12.9408 14.6 14.5038 14.3673 16.0752 14.3747C17.4525 14.3303 18.8191 14.6354 20.0481 15.2617C20.5426 14.2334 21.1073 13.7188 21.7431 13.7188C22.4094 13.741 23.0649 13.8957 23.6709 14.1739C24.2773 14.4529 24.8223 14.8494 25.2746 15.3418C26.202 16.0845 26.7988 17.1657 26.9347 18.3495C26.2988 19.7948 25.5733 21.1989 24.7627 22.554C24.4364 24.8275 24.2948 27.1233 24.3388 29.4201C24.3388 32.3766 24.7096 33.8553 25.4513 33.8553C26.3694 33.8553 28.5945 32.01 32.126 28.32C32.7615 27.5867 33.2207 27.2201 33.5032 27.2201ZM8.49996 30.4484C8.49996 33.1807 9.50638 34.547 11.5192 34.547C13.6735 34.5116 15.4568 33.3585 16.8697 31.0877C17.4128 30.1944 17.823 29.2256 18.088 28.213C18.0298 24.7762 18.3856 21.3452 19.1475 17.994C16.2877 18.5616 13.6762 20.0135 11.6784 22.1455C10.6244 23.2472 9.80038 24.5493 9.2545 25.9748C8.70863 27.4007 8.45211 28.9222 8.49996 30.4484Z" fill="white"/>
<path d="M56.8643 23.6723C56.8643 22.4895 56.1934 21.8986 54.8514 21.8986C53.9331 21.8986 52.9089 22.7853 51.7788 24.5593C50.6545 26.3357 49.8314 28.2871 49.3421 30.3346V30.4408C49.3506 31.7025 49.5379 32.9571 49.8984 34.1668C50.188 35.0277 50.3748 35.9221 50.4543 36.8274C50.4543 38.0101 48.9535 39.1932 45.9517 40.3759C45.5647 40.5378 45.152 40.628 44.7333 40.642C44.3179 40.6532 43.9107 40.5221 43.5787 40.2708C43.2467 40.0195 43.0096 39.6631 42.9057 39.2582C42.5277 38.0447 42.3576 36.7764 42.4027 35.5059C42.4027 33.9267 42.4467 32.448 42.5348 31.0707C42.6231 29.6924 42.7115 28.398 42.7998 27.1854C42.8882 26.0026 42.9765 24.9557 43.0648 24.0446C43.1529 23.1345 43.1972 22.3982 43.1972 21.8363C43.1972 20.6533 42.6499 20.0624 41.5549 20.0624C40.4602 20.0624 39.1887 21.3485 37.7409 23.9208C36.2931 26.4929 35.5689 28.5338 35.5689 30.0413C35.556 31.454 35.7431 32.8603 36.1252 34.22C36.4151 35.0817 36.6018 35.975 36.6814 36.8807C36.6814 38.0634 35.1806 39.2461 32.1788 40.4288C31.7918 40.591 31.3791 40.6812 30.9604 40.6952C30.545 40.7054 30.1389 40.5731 29.8071 40.3218C29.4757 40.0716 29.238 39.7152 29.1327 39.3114C28.737 37.9284 28.5669 36.4905 28.6295 35.0537C28.5447 31.4065 28.7397 27.7596 29.2123 24.1422C29.7565 20.8042 30.9831 17.6141 32.8144 14.7748C33.0066 14.3726 33.2968 14.0247 33.6578 13.7649C34.0188 13.5045 34.4391 13.3388 34.8803 13.2848C36.0576 13.2848 37.1346 14.2434 38.1118 16.1586C38.3675 16.5987 38.5805 17.0621 38.7473 17.5425C39.4253 16.5754 40.3207 15.7825 41.3607 15.228C42.4005 14.6725 43.556 14.3718 44.7333 14.3496C46.2312 14.3419 47.6804 14.8807 48.8124 15.8664C49.3763 16.3232 49.8289 16.9029 50.1349 17.5628C50.4409 18.2226 50.5927 18.9438 50.578 19.6717V20.2569C51.4846 19.0072 52.6718 17.9891 54.043 17.2865C55.4145 16.5839 56.9315 16.2154 58.471 16.2124C59.2575 16.1559 60.0473 16.259 60.7934 16.515C61.5395 16.771 62.227 17.1748 62.815 17.7024C63.2985 18.1809 63.6795 18.7532 63.9346 19.385C64.1898 20.016 64.3134 20.6934 64.2984 21.3746C64.3096 22.6942 64.2029 24.013 63.9803 25.314C63.7684 26.4967 63.5302 27.5958 63.2652 28.6131C63.0002 29.6301 62.7619 30.544 62.55 31.3547C62.3692 31.9604 62.2626 32.5857 62.2322 33.2175C62.2322 33.6606 62.3736 33.8831 62.6558 33.8831C63.4046 33.7788 64.096 33.4224 64.6159 32.8715C65.3931 32.1966 66.1698 31.4606 66.9468 30.6622L69.0923 28.4537C69.7694 27.7615 70.2256 27.4161 70.4605 27.4161C70.955 27.4161 71.2025 28.007 71.2025 29.19C71.2025 31.6737 69.9576 34.0869 67.4678 36.4282C65.3814 38.6077 62.5298 39.8809 59.5217 39.9767C56.9791 39.9767 55.7077 37.653 55.7077 33.0046C55.7597 31.3761 55.9547 29.7549 56.2905 28.1607C56.605 26.6838 56.797 25.1818 56.8643 23.6723Z" fill="white"/>
<path d="M85.9999 35.2932C84.8105 36.8295 83.2891 38.0745 81.5498 38.9319C79.8104 39.7898 77.8993 40.2383 75.9614 40.243C72.0596 40.243 69.1369 39.2408 67.1946 37.2353C66.236 36.2506 65.4875 35.0789 64.9958 33.7938C64.5038 32.5077 64.2787 31.1343 64.334 29.7578C64.2218 25.7441 65.6437 21.8401 68.3069 18.8472C69.616 17.3462 71.2413 16.1569 73.0644 15.3659C74.8883 14.5739 76.8642 14.1997 78.8483 14.2696C80.4709 14.2101 82.0888 14.463 83.6165 15.015C85.7002 15.8663 86.7419 16.665 86.7419 17.4093C86.7419 18.0013 85.2845 18.2974 82.3716 18.2974C81.0107 18.2721 79.66 18.5281 78.4023 19.0502C77.145 19.5723 76.0079 20.3484 75.0605 21.3312C74.0875 22.3306 73.325 23.518 72.8204 24.8209C72.3148 26.1246 72.0774 27.517 72.1209 28.9145C72.0755 30.3831 72.5765 31.8163 73.5244 32.9329C74.0282 33.4868 74.6498 33.9187 75.3417 34.1977C76.0339 34.4778 76.7797 34.5968 77.5246 34.5477C79.0173 34.6026 80.4949 34.2339 81.7891 33.483C80.5756 32.6854 79.5905 31.5837 78.9309 30.2863C78.2712 28.988 77.9598 27.5411 78.0273 26.0857C78.0032 24.3518 78.6601 22.6785 79.855 21.4277C80.4569 20.7429 81.2 20.1984 82.0322 19.831C82.8641 19.4634 83.7669 19.2817 84.676 19.2996C86.6352 19.2996 88.0398 19.8403 88.8868 20.9226C89.7745 22.1482 90.2225 23.6398 90.1585 25.154C90.1232 27.0366 89.7086 28.8923 88.9404 30.6092H89.2579C90.7457 30.5971 92.1744 30.0212 93.2571 28.9946C93.681 28.5694 94.0436 28.1962 94.3433 27.8769C94.4508 27.7419 94.5846 27.6303 94.7366 27.5477C94.8879 27.4656 95.0547 27.4143 95.2264 27.3976C95.7209 27.3976 95.9676 27.9897 95.9676 29.1724C96.0354 30.0761 95.8981 30.9834 95.5688 31.8264C95.2384 32.6695 94.7227 33.4273 94.0614 34.0424C92.9026 35.0547 91.4193 35.6122 89.885 35.6122C88.5824 35.6317 87.2817 35.5247 85.9999 35.2932ZM85.5229 29.084C86.0899 27.9227 86.3913 26.6506 86.406 25.3578C86.406 24.1751 86.0174 23.5841 85.241 23.5841C84.9226 23.5841 84.6585 23.8149 84.446 24.2755C84.2455 24.6906 84.1369 25.1446 84.1287 25.6064C84.1093 26.2568 84.2233 26.9035 84.4635 27.5084C84.703 28.1126 85.0638 28.6604 85.5229 29.1194V29.084Z" fill="white"/>
<path d="M205.993 40.2336C208.919 40.2336 211.291 37.8503 211.291 34.9115C211.291 31.9715 208.919 29.5894 205.993 29.5894C203.067 29.5894 200.696 31.9715 200.696 34.9115C200.696 37.8503 203.067 40.2336 205.993 40.2336Z" fill="white"/>
<path d="M151.352 28.195C151.94 28.195 152.234 29.0112 152.234 30.6433C152.148 31.7956 151.765 32.9056 151.122 33.8633C150.348 35.1635 149.373 36.3303 148.235 37.3232C147.051 38.372 145.722 39.2415 144.288 39.9048C143.018 40.5331 141.626 40.8782 140.209 40.9155C139.134 40.9759 138.066 40.7164 137.137 40.1709C136.38 39.6656 135.77 38.9676 135.371 38.1479C134.783 36.9651 134.288 34.6683 133.888 31.2556C133.668 28.8649 133.28 26.4937 132.722 24.1587C131.842 23.9996 131.014 23.6246 130.312 23.0682C129.985 22.8355 129.718 22.5266 129.536 22.1683C129.353 21.81 129.259 21.4125 129.262 21.0097C129.233 20.6374 129.323 20.2643 129.518 19.9461C129.713 19.6278 130.003 19.3793 130.347 19.2358C131.126 18.8692 131.977 18.6879 132.837 18.7035C133.724 18.6906 134.597 18.9307 135.353 19.396C136.324 18.6144 137.142 17.6577 137.764 16.5743C138.429 15.1644 138.733 13.6094 138.646 12.0505C138.683 11.1981 138.53 10.3476 138.201 9.56021C137.871 8.77392 137.372 8.07048 136.74 7.49983C135.521 6.35908 133.673 5.78762 131.195 5.78762C129.296 5.72424 127.398 5.9215 125.553 6.37281C124.399 6.70505 123.274 7.13222 122.189 7.65074C121.253 8.1122 120.424 8.53744 119.699 8.92839C119.079 9.29053 118.378 9.49135 117.66 9.51385C117.025 9.51385 116.707 9.31001 116.707 8.9015C116.862 8.15883 117.209 7.47021 117.713 6.90532C118.549 5.83507 119.55 4.9064 120.68 4.15522C123.932 1.85205 127.826 0.644085 131.805 0.70554C135.359 0.583454 138.885 1.39965 142.028 3.07401C143.51 3.87429 144.737 5.0765 145.571 6.5451C146.404 8.0137 146.811 9.68779 146.743 11.377C146.875 14.1175 146.03 16.8163 144.359 18.9875C142.786 20.9743 140.696 22.4846 138.32 23.3521C138.865 24.5691 139.3 25.8339 139.618 27.1313C139.953 28.4787 140.28 29.7212 140.598 30.8565C140.853 31.8345 141.218 32.781 141.683 33.6771C141.803 33.9832 142.005 34.2504 142.268 34.4477C142.53 34.645 142.841 34.7651 143.167 34.7948C143.968 34.6963 144.715 34.3314 145.286 33.7572C146.116 33.0658 146.937 32.3111 147.75 31.4949C148.561 30.6787 149.286 29.925 149.921 29.2334C150.592 28.5412 151.069 28.195 151.352 28.195ZM128.308 9.03455C128.768 9.03455 128.997 9.62633 128.997 10.8091C129 11.9473 128.93 13.0854 128.785 14.2151C128.492 16.1537 128.085 18.0725 127.566 19.9636C126.295 24.7889 125.659 27.6095 125.659 28.4257V36.2494C125.735 37.0497 125.568 37.8538 125.18 38.5572C124.793 39.2598 124.202 39.8286 123.487 40.1888L121.554 41.0755C120.895 41.3677 120.181 41.5131 119.461 41.5007C117.978 41.5007 117.236 39.7893 117.236 36.3649C117.41 31.9528 118.213 27.5881 119.621 23.4051C120.764 19.233 122.437 15.2258 124.599 11.4829C125.033 10.8631 125.549 10.3076 126.136 9.83292C126.741 9.31275 127.512 9.02989 128.308 9.03455Z" fill="white"/>
<path d="M196.962 28.1966C197.55 28.1966 197.845 29.0128 197.845 30.645C197.753 31.7992 197.363 32.9084 196.714 33.865C195.94 35.1652 194.966 36.332 193.827 37.3251C192.643 38.3729 191.314 39.242 189.881 39.9057C188.446 40.5776 186.881 40.9227 185.299 40.9172C184.595 40.9554 183.891 40.8344 183.24 40.5617C182.589 40.2909 182.007 39.8749 181.537 39.3474C180.661 38.3756 180.179 37.11 180.186 35.7989C180.213 34.3144 180.427 32.8387 180.823 31.4082C181.27 29.7991 181.74 28.1083 182.235 26.3335C183.577 21.6023 184.265 18.2857 184.301 16.3806C184.333 15.7356 184.225 15.0909 183.983 14.4914C183.871 14.2689 183.695 14.0868 183.477 13.9674C183.26 13.8484 183.011 13.799 182.764 13.8261C181.705 13.8261 180.575 14.4645 179.375 15.7422C178.035 17.2171 176.895 18.8635 175.984 20.6391C173.681 24.7116 172.357 29.2677 172.117 33.9451L172.329 35.4349C172.401 35.9644 172.438 36.4977 172.435 37.0319C172.409 37.6434 172.246 38.2417 171.956 38.7814C171.668 39.3202 171.26 39.7866 170.766 40.1457C169.734 41.0558 168.406 41.5565 167.032 41.5556C166.653 41.5556 166.282 41.4412 165.967 41.2281C165.653 41.0149 165.409 40.7114 165.266 40.3589C164.85 39.4311 164.652 38.4215 164.683 37.4042C164.754 35.7811 165.021 34.1731 165.478 32.6142C166.008 30.592 166.596 28.4452 167.244 26.1744C168.938 20.1776 169.804 15.7068 169.839 12.7614C169.894 11.5534 169.705 10.3465 169.283 9.21291C169.105 8.79974 168.803 8.45379 168.417 8.22388C168.032 7.9948 167.584 7.8933 167.138 7.93637C165.231 7.93637 163.341 9.30236 161.47 12.0346C159.598 14.7669 157.92 19.0067 156.437 24.7552C156.048 26.2452 155.754 27.5407 155.554 28.6405L155.501 29.6513C156.001 31.7506 156.337 33.8864 156.508 36.0379C156.508 38.0966 155.784 39.4804 154.336 40.1894L152.402 41.0772C151.778 41.3619 151.101 41.5073 150.416 41.5027C148.65 41.5027 147.767 39.8088 147.767 36.4195C147.767 33.0313 148.679 26.4164 150.504 16.576C151.175 13.0275 151.51 11.0406 151.51 10.6154C151.51 7.74074 150.787 6.30398 149.338 6.30398C148.855 6.30013 148.383 6.4491 147.988 6.72922C147.582 7.01317 147.175 7.30893 146.769 7.61702C146.363 7.92402 145.942 8.24995 145.507 8.59234C145.075 8.87904 144.568 9.02691 144.05 9.0184C143.503 9.0184 143.229 8.53938 143.229 7.58162C143.231 6.61673 143.481 5.66913 143.954 4.82989C144.427 3.99038 145.108 3.28886 145.93 2.79091C147.766 1.4647 149.983 0.779906 152.243 0.83944C155.421 0.83944 157.293 2.3182 157.858 5.27461C157.999 6.16158 158.106 7.10233 158.177 8.09548C160.79 3.18734 164.091 0.733276 168.082 0.733276C172.455 0.733276 174.937 2.82629 175.525 7.01316C175.743 8.2963 175.832 9.59838 175.79 10.8994V11.3246C178.085 8.1317 180.804 6.53471 183.948 6.53471C188.397 6.53471 190.623 9.23158 190.623 14.6245C190.568 17.3979 190.203 20.1562 189.536 22.8474C188.813 25.9884 188.283 28.2414 187.947 29.6074C187.661 30.6406 187.492 31.7023 187.444 32.7742C187.444 34.1218 187.912 34.7964 188.848 34.7964C189.783 34.7964 192.017 32.9512 195.549 29.2611C196.208 28.5511 196.68 28.1966 196.962 28.1966Z" fill="white"/>
<path d="M121.509 21.1271C122.393 21.1271 122.852 22.014 122.852 23.6901C122.806 25.5883 122.405 27.4599 121.668 29.2075C120.82 31.2874 119.625 33.2073 118.137 34.8852C116.451 36.8043 114.42 38.3871 112.151 39.5514C109.489 40.8952 106.538 41.5588 103.561 41.4853C100.359 41.5234 97.2627 40.3377 94.899 38.1676C92.4212 35.95 91.1818 32.7532 91.1818 28.5784C91.1383 24.7211 91.7347 20.8832 92.9482 17.2241C93.9918 14.0581 95.5493 11.0886 97.5567 8.43257C99.3193 6.09208 101.532 4.13128 104.063 2.66652C106.167 1.38311 108.568 0.673085 111.029 0.608887C114.85 0.608887 116.76 2.31837 116.76 5.73651C116.838 7.37631 116.466 9.00568 115.683 10.4463C114.964 11.6293 114.235 12.2203 113.492 12.2203C113.001 12.2203 112.514 12.1149 112.065 11.9122C111.616 11.7083 111.215 11.4115 110.888 11.0411C110.581 10.682 110.203 10.3887 109.78 10.1783C109.357 9.96811 108.896 9.8452 108.425 9.8164C107.542 9.8164 105.105 9.71872 103.048 13.0455C102.241 14.1476 101.642 15.3898 101.282 16.7095C100.076 19.8176 99.4771 23.1307 99.517 26.467C99.8378 28.8706 101.083 31.052 102.986 32.5428C104.116 33.331 105.483 33.7014 106.853 33.5897C109.287 33.319 111.53 32.1335 113.13 30.2723C114.332 28.9768 115.391 27.7529 116.53 26.4317C117.669 25.1101 118.675 23.8947 119.541 22.777C120.405 21.6593 121.059 21.1271 121.509 21.1271Z" fill="white"/>
</svg>
