<svg width="268" height="150" viewBox="0 0 268 150" fill="none" xmlns="http://www.w3.org/2000/svg">
<ellipse cx="203.222" cy="75.0069" rx="1.86215" ry="1.85289" fill="#DADADA"/>
<path fill-rule="evenodd" clip-rule="evenodd" d="M59.5754 46.4162C62.043 44.9986 65.0779 44.9986 67.5455 46.4162L86.4234 57.2611C88.907 58.6879 90.4383 61.3336 90.4383 64.1979V85.8188C90.4383 88.683 88.907 91.3288 86.4234 92.7556L67.5455 103.6C65.0779 105.018 62.043 105.018 59.5754 103.6L40.6976 92.7556C38.2139 91.3288 36.6826 88.683 36.6826 85.8188V64.1979C36.6826 61.3336 38.2139 58.6879 40.6976 57.2611L59.5754 46.4162ZM79.6992 73.7741C79.6992 74.7974 78.8655 75.627 77.837 75.627C76.8086 75.627 75.9749 74.7974 75.9749 73.7741C75.9749 72.7508 76.8086 71.9212 77.837 71.9212C78.8655 71.9212 79.6992 72.7508 79.6992 73.7741ZM46.1802 74.2743C46.1802 70.8104 46.9562 67.7063 48.5083 64.9621L64.3388 55.8679C64.5232 55.8635 64.7084 55.8613 64.8946 55.8613C67.8824 55.8613 70.5746 56.4038 72.9714 57.4889C75.401 58.5741 77.4366 60.1339 79.0782 62.1685L73.9564 67.0515C71.6253 64.2709 68.736 62.8806 65.2886 62.8806C63.1545 62.8806 61.2502 63.3723 59.5758 64.3557C57.9013 65.3052 56.588 66.6446 55.6359 68.374C54.7166 70.1034 54.2569 72.0702 54.2569 74.2743C54.2569 76.4785 54.7166 78.4452 55.6359 80.1747C56.588 81.9041 57.9013 83.2604 59.5758 84.2438C61.2502 85.1933 63.1545 85.6681 65.2886 85.6681C68.736 85.6681 71.6253 84.2608 73.9564 81.4463L79.0782 86.3293C77.4366 88.3978 75.401 89.9746 72.9714 91.0597C70.5418 92.1448 67.8331 92.6874 64.8454 92.6874C61.3323 92.6874 58.1476 91.9075 55.2912 90.3476C52.4676 88.7539 50.235 86.5667 48.5934 83.7861C46.9846 80.9715 46.1802 77.801 46.1802 74.2743Z" fill="#DADADA"/>
<path d="M106.684 84.2711C104.993 84.2711 103.46 83.8918 102.085 83.1331C100.726 82.3579 99.6514 81.2941 98.8613 79.9417C98.0869 78.5728 97.6997 77.0307 97.6997 75.3155C97.6997 73.6002 98.0869 72.0664 98.8613 70.714C99.6514 69.3451 100.726 68.2813 102.085 67.5226C103.46 66.7474 105.001 66.3599 106.708 66.3599C108.146 66.3599 109.442 66.6237 110.595 67.1515C111.765 67.6793 112.745 68.438 113.535 69.4275L111.069 71.8025C109.947 70.4501 108.557 69.7739 106.897 69.7739C105.87 69.7739 104.953 70.013 104.147 70.4913C103.342 70.9531 102.709 71.6046 102.251 72.4457C101.809 73.2869 101.587 74.2434 101.587 75.3155C101.587 76.3875 101.809 77.3441 102.251 78.1852C102.709 79.0264 103.342 79.6861 104.147 80.1644C104.953 80.6262 105.87 80.8571 106.897 80.8571C108.557 80.8571 109.947 80.1726 111.069 78.8037L113.535 81.1787C112.745 82.1848 111.765 82.9517 110.595 83.4794C109.426 84.0072 108.122 84.2711 106.684 84.2711Z" fill="#DADADA"/>
<path d="M128.886 80.7581V83.9742H116.038V66.6567H128.578V69.8728H119.854V73.6332H126.789L127.558 76.7504H119.854V80.7581H128.886Z" fill="#DADADA"/>
<path d="M166.573 66.6567H170.389V77.9378L178.307 66.6567H181.91V83.9742H178.117V72.7179L170.2 83.9742H166.573V66.6567Z" fill="#DADADA"/>
<path d="M193.888 84.2711C192.197 84.2711 190.664 83.8918 189.289 83.1331C187.93 82.3579 186.856 81.2941 186.065 79.9417C185.291 78.5728 184.904 77.0307 184.904 75.3155C184.904 73.6002 185.291 72.0664 186.065 70.714C186.856 69.3451 187.93 68.2813 189.289 67.5226C190.664 66.7474 192.205 66.3599 193.912 66.3599C195.35 66.3599 196.646 66.6237 197.799 67.1515C198.969 67.6793 199.949 68.438 200.739 69.4275L198.273 71.8025C197.151 70.4501 195.761 69.7739 194.101 69.7739C193.074 69.7739 192.158 70.013 191.352 70.4913C190.546 70.9531 189.913 71.6046 189.455 72.4457C189.013 73.2869 188.791 74.2434 188.791 75.3155C188.791 76.3875 189.013 77.3441 189.455 78.1852C189.913 79.0264 190.546 79.6861 191.352 80.1644C192.158 80.6262 193.074 80.8571 194.101 80.8571C195.761 80.8571 197.151 80.1726 198.273 78.8037L200.739 81.1787C199.949 82.1848 198.969 82.9517 197.799 83.4794C196.63 84.0072 195.326 84.2711 193.888 84.2711Z" fill="#DADADA"/>
<path fill-rule="evenodd" clip-rule="evenodd" d="M142.987 67.4237C141.912 66.9124 140.64 66.6567 139.17 66.6567H131.988V83.9742H135.828V79.1996V75.934V69.9223H138.957C140.111 69.9223 140.988 70.1862 141.588 70.714C142.189 71.2253 142.489 71.9674 142.489 72.9405C142.489 73.8971 142.189 74.6393 141.588 75.167C140.988 75.6783 140.111 75.934 138.957 75.934H138.268L137.499 79.1996H139.17C140.64 79.1996 141.912 78.9522 142.987 78.4574C144.077 77.9461 144.915 77.2204 145.499 76.2803C146.084 75.3237 146.377 74.2105 146.377 72.9405C146.377 71.6541 146.084 70.5408 145.499 69.6007C144.915 68.6606 144.077 67.9349 142.987 67.4237Z" fill="#DADADA"/>
<path fill-rule="evenodd" clip-rule="evenodd" d="M162.73 76.4782C162.193 75.769 161.418 75.2578 160.407 74.9444C161.15 74.5651 161.726 74.0538 162.137 73.4106C162.548 72.7508 162.754 71.9922 162.754 71.1345C162.754 69.6997 162.216 68.5946 161.142 67.8195C160.067 67.0443 158.566 66.6567 156.638 66.6567H148.91V83.9742H152.726V81.0055V76.6267H156.946C158.747 76.6267 159.648 77.3441 159.648 78.779C159.648 80.2633 158.747 81.0055 156.946 81.0055H155.605L154.836 83.9742H157.088C159.158 83.9742 160.747 83.5454 161.853 82.6878C162.975 81.8302 163.536 80.6344 163.536 79.1006C163.536 78.0615 163.267 77.1874 162.73 76.4782ZM156.306 73.8311H152.726V69.6254H156.306C157.128 69.6254 157.752 69.8069 158.179 70.1697C158.621 70.5326 158.842 71.0521 158.842 71.7283C158.842 72.421 158.629 72.9488 158.202 73.3116C157.776 73.658 157.143 73.8311 156.306 73.8311Z" fill="#DADADA"/>
<path d="M211.822 78.3395C211.134 78.3395 210.511 78.188 209.955 77.8849C209.406 77.5819 208.972 77.1635 208.654 76.6299C208.343 76.0897 208.188 75.4869 208.188 74.8215C208.188 74.1561 208.343 73.5566 208.654 73.0229C208.972 72.4827 209.409 72.0611 209.965 71.758C210.521 71.455 211.144 71.3035 211.832 71.3035C212.349 71.3035 212.826 71.3891 213.262 71.5604C213.699 71.7317 214.07 71.982 214.375 72.3114L213.908 72.7759C213.365 72.2291 212.68 71.9557 211.852 71.9557C211.303 71.9557 210.803 72.0809 210.353 72.3312C209.902 72.5815 209.548 72.9241 209.29 73.3589C209.038 73.7937 208.912 74.2813 208.912 74.8215C208.912 75.3617 209.038 75.8492 209.29 76.284C209.548 76.7188 209.902 77.0614 210.353 77.3118C210.803 77.5621 211.303 77.6873 211.852 77.6873C212.686 77.6873 213.372 77.4106 213.908 76.8572L214.375 77.3216C214.07 77.651 213.696 77.9047 213.253 78.0826C212.816 78.2539 212.339 78.3395 211.822 78.3395Z" fill="#DADADA"/>
<path d="M218.835 78.3395C218.146 78.3395 217.521 78.188 216.958 77.8849C216.402 77.5753 215.965 77.1536 215.647 76.62C215.336 76.0864 215.18 75.4869 215.18 74.8215C215.18 74.1561 215.336 73.5566 215.647 73.0229C215.965 72.4893 216.402 72.071 216.958 71.7679C217.521 71.4583 218.146 71.3035 218.835 71.3035C219.524 71.3035 220.143 71.455 220.692 71.758C221.248 72.0611 221.685 72.4827 222.003 73.0229C222.321 73.5566 222.48 74.1561 222.48 74.8215C222.48 75.4869 222.321 76.0897 222.003 76.6299C221.685 77.1635 221.248 77.5819 220.692 77.8849C220.143 78.188 219.524 78.3395 218.835 78.3395ZM218.835 77.6873C219.385 77.6873 219.881 77.5654 220.325 77.3216C220.768 77.0713 221.116 76.7287 221.368 76.2939C221.619 75.8525 221.745 75.3617 221.745 74.8215C221.745 74.2813 221.619 73.7937 221.368 73.3589C221.116 72.9175 220.768 72.575 220.325 72.3312C219.881 72.0809 219.385 71.9557 218.835 71.9557C218.286 71.9557 217.786 72.0809 217.335 72.3312C216.892 72.575 216.541 72.9175 216.283 73.3589C216.031 73.7937 215.905 74.2813 215.905 74.8215C215.905 75.3617 216.031 75.8525 216.283 76.2939C216.541 76.7287 216.892 77.0713 217.335 77.3216C217.786 77.5654 218.286 77.6873 218.835 77.6873Z" fill="#DADADA"/>
<path d="M231.347 71.3628V78.2802H230.642V72.7462L227.911 77.4007H227.564L224.832 72.7759V78.2802H224.127V71.3628H224.733L227.752 76.4916L230.742 71.3628H231.347Z" fill="#DADADA"/>
</svg>
