<svg width="268" height="150" viewBox="0 0 268 150" fill="none" xmlns="http://www.w3.org/2000/svg">
<g clip-path="url(#clip0_1456_1881)">
<path fill-rule="evenodd" clip-rule="evenodd" d="M115.518 85.8711L111.63 79.9252H107.731V85.8711H102.629V65.3374H111.591C116.697 65.3374 120.111 68.1147 120.111 72.5563C120.111 75.2355 118.811 77.4163 116.645 78.6758L121.464 85.87H115.519L115.518 85.8711ZM107.731 75.3347H111.51C113.477 75.3347 115.006 74.2489 115.006 72.5563C115.006 70.8875 113.477 69.8343 111.511 69.8343H107.734V75.3336L107.731 75.3347ZM129.076 69.779V73.517H138.185V77.8662H129.076V81.4272H139.485V85.8722H123.971V65.3385H139.488V69.7813L129.076 69.779ZM162.237 75.549C162.237 81.6448 157.62 85.8711 151.161 85.8711H142.914V65.3374H151.161C157.62 65.3374 162.237 69.5366 162.237 75.549V75.549ZM157.079 75.549C157.079 72.3658 154.516 69.929 151.161 69.929H148.017V81.2761H151.161C154.518 81.2761 157.079 78.8112 157.079 75.5479V75.549ZM165.052 85.8711H170.158V65.3374H165.052V85.8711ZM189.7 69.9008H183.811V85.8711H178.731V69.9008H172.852V65.3374H189.7V69.9008ZM94.3118 78.4887C93.5285 80.3718 91.8751 81.496 89.5875 81.496C86.2274 81.496 83.9117 79.0152 83.9117 75.6042C83.9117 72.1876 86.2286 69.7103 89.5853 69.7103C91.8751 69.7103 93.5297 70.8379 94.3118 72.7322H99.7164C98.6585 68.0324 94.8 64.9427 89.6147 64.9427C83.4268 64.9427 78.7534 69.4148 78.7534 75.6042C78.7534 81.7948 83.4268 86.2635 89.6147 86.2635C94.8023 86.2635 98.6585 83.1739 99.7164 78.4898H94.3118V78.4887ZM98.4958 40.008V60.5417H93.4325V52.8357H85.0622V60.5428H79.9616V40.0092H85.0622V48.2441H93.4313V40.008H98.4958ZM157.172 60.5428H152.066V50.2478L147.517 57.2784V57.3044H144.675V57.2795L140.08 50.1824L140.11 60.5451H135.004V40.0069H138.81L146.096 50.9638L153.366 40.0092H157.172V60.5428ZM166.516 44.435V48.1899H175.629V52.538H166.516V56.1035H176.928V60.5462H161.411V40.0069H176.928V44.435H166.516ZM116.753 39.1014C108.638 39.1014 102.06 45.3709 102.06 53.1063C102.06 55.8407 102.871 58.3891 104.293 60.5428H111.374C109.223 58.9157 107.829 56.329 107.829 53.431C107.829 48.5 111.823 44.4914 116.753 44.4914C121.681 44.4914 125.688 48.5 125.688 53.431C125.688 56.329 124.281 58.9157 122.128 60.5428H129.221C130.646 58.3891 131.457 55.8407 131.457 53.1052C131.457 45.3709 124.877 39.1014 116.753 39.1014Z" fill="#DADADA"/>
<path fill-rule="evenodd" clip-rule="evenodd" d="M111.929 55.4066C112.619 57.4532 114.515 58.9304 116.752 58.9304C118.983 58.9304 120.88 57.4532 121.569 55.4066H111.928H111.929ZM145.607 110.535H150.716V90.0015H145.607V110.535V110.535ZM84.3469 101.759L84.4147 110.293H79.3096V89.7591H88.2721C90.8455 89.7591 92.8494 90.6386 94.4746 91.7211C97.2933 93.6042 97.4527 97.9793 94.3808 99.8906C92.2289 101.229 88.0686 101.759 84.3446 101.759H84.3469ZM84.4147 98.6559H88.193C90.1414 98.6559 91.6853 98.1428 91.6853 96.4604C91.6853 94.7972 90.1414 94.256 88.193 94.256H84.4147V98.6559ZM109.102 96.5303L111.604 102.732H106.581L109.102 96.5303ZM113.313 106.932L114.869 110.778H119.972L111.645 90.2439H106.542L98.2122 110.778H103.318L104.875 106.932H113.313ZM126.826 90.0015L140.314 106.784L136.345 109.98L123.453 93.9955L126.826 90.0015V90.0015Z" fill="#DADADA"/>
<path fill-rule="evenodd" clip-rule="evenodd" d="M122.264 110.535H127.37V90.0014H122.264V110.535ZM136.251 110.535H141.358V90.0014H136.251V110.535ZM165.648 90.1221L148.981 108.423L147.57 102.449L159.245 89.9214L165.648 90.1221ZM84.3457 98.8464L84.4136 90.3138H79.3096V110.847H88.2721C90.8455 110.847 94.2599 110.4 95.6263 109.006C98.0766 106.499 98.4032 103.614 96.2083 101.731C93.9208 99.7654 88.9638 98.8464 84.3457 98.8464V98.8464ZM84.4136 102.123H88.193C90.1414 102.123 91.6853 101.931 91.6853 103.629C91.6853 105.293 90.1414 106.349 88.193 106.349H84.4147V102.123H84.4136Z" fill="#DADADA"/>
<path fill-rule="evenodd" clip-rule="evenodd" d="M165.691 110.577L154.951 96.0984L152.541 102.081L159.245 110.778" fill="#DADADA"/>
</g>
<defs>
<clipPath id="clip0_1456_1881">
<rect width="111.89" height="72.1667" fill="white" transform="translate(78.0552 39)"/>
</clipPath>
</defs>
</svg>
