<svg width="268" height="150" viewBox="0 0 268 150" fill="none" xmlns="http://www.w3.org/2000/svg">
<path d="M173.691 42.9313V41.1869V39.4426H185H196.31V41.1869V42.9313H192.331H188.351V62.1193V81.3073H185H181.649V62.1193V42.9313H177.67H173.691Z" fill="#DADADA"/>
<path fill-rule="evenodd" clip-rule="evenodd" d="M72.3235 60.7015V81.572L78.7113 81.4856C85.8078 81.3897 86.6498 81.2597 89.2719 79.8542C90.0908 79.4153 90.957 78.704 91.1971 78.2738C91.4873 77.7525 91.5912 71.7344 91.5074 60.2301L91.3822 42.9686L90.1226 42.0233C89.3222 41.4224 88.1012 40.8801 86.7717 40.5352C84.8867 40.0461 84.0695 39.9844 78.5019 39.9118L72.3235 39.8311V60.7015ZM84.8897 60.7203C84.8897 45.0965 84.8528 44.2897 84.1235 43.9463C83.6188 43.7084 82.6194 43.5854 81.1914 43.5854H79.0254V60.702V77.8185H81.2995C82.2439 77.8185 82.9415 77.9078 83.4565 77.7812C85.0748 77.3832 84.8897 74.853 84.8897 60.7203Z" fill="#DADADA"/>
<path fill-rule="evenodd" clip-rule="evenodd" d="M131.014 39.7698C128.742 40.1388 126.534 41.2035 125.363 42.4952C124.48 43.4688 124.472 43.6242 124.357 62.3918L124.241 81.3073H127.598H130.953L131.064 74.8204L131.175 68.3336L134.212 68.2695L137.249 68.2054V74.7563V81.3073H140.6H143.951V60.3749V39.4426L138.401 39.4572C134.959 39.4661 132.153 39.5849 131.014 39.7698ZM137.249 64.7358V53.9426V43.1493H134.969C133.972 43.1493 133.251 43.1056 132.731 43.2592C131.276 43.6883 131.385 45.6579 131.385 54.4273V64.7358H134.317H137.249Z" fill="#DADADA"/>
<path fill-rule="evenodd" clip-rule="evenodd" d="M150.653 60.3511V81.3073H154.004H157.355V74.8749C157.355 71.3371 157.465 68.4426 157.599 68.4426C158.24 68.4426 162.735 70.4844 163.158 70.9676C163.473 71.3273 163.638 73.1979 163.638 76.4115V81.3073H166.989H170.34V76.877C170.34 71.3718 169.995 70.6008 166.792 68.9301L164.592 67.7824L166.203 67.3109C167.09 67.0515 168.336 66.4481 168.972 65.97L170.13 65.1006L170.25 54.4502C170.326 47.6821 170.214 43.498 169.942 42.9723C169.358 41.8437 166.963 40.448 164.799 39.9748C163.443 39.6785 161.513 39.5607 156.831 39.4894L150.653 39.395V60.3511ZM163.219 53.9504C163.219 45.045 163.14 43.7936 162.561 43.4919C162.14 43.2732 161.156 43.1493 159.838 43.1493H157.774V53.8336V64.5178H159.686C160.767 64.5178 161.52 64.5895 162.043 64.4351C163.374 64.0423 163.219 62.1846 163.219 53.9504Z" fill="#DADADA"/>
<path fill-rule="evenodd" clip-rule="evenodd" d="M102.092 44.4934L102.621 33.8333H109.147L109.826 44.4934H102.092Z" fill="#DADADA"/>
<path d="M90.0359 93.1591H71.8574V116.333H90.0359H194.912V104.746V91.3052H160.419V104.746H151.097V87.1338H124.062V104.746H113.342L112.012 78.7911L111.599 72.3023L111.155 65.3501L110.712 58.3979L110.683 57.9344L110.21 50.5186H101.794L101.426 57.9344L101.058 65.3501L100.714 72.3023L100.392 78.7911L99.3581 104.746H90.0359V93.1591Z" fill="#DADADA"/>
</svg>
