<svg width="268" height="150" viewBox="0 0 268 150" fill="none" xmlns="http://www.w3.org/2000/svg">
<path fill-rule="evenodd" clip-rule="evenodd" d="M105.251 62.2125V85.9249H106.741H108.232V62.2125V38.5H106.741H105.251V62.2125ZM166.853 62.2125V85.9249H168.344H169.834V62.2125V38.5H168.344H166.853V62.2125ZM100.642 95.8694C97.876 96.2079 95.5713 97.8738 94.3651 100.407C93.4383 102.354 93.4386 105.066 94.3661 107.013C95.1374 108.633 96.7418 110.238 98.2957 110.944C99.9858 111.712 103.939 111.678 105.499 110.882C106.726 110.256 108.48 108.733 108.48 108.293C108.48 108.139 107.807 107.554 106.983 106.991L105.487 105.968L104.619 106.711C103.576 107.603 102.865 107.803 101.332 107.634C100.416 107.534 100.009 107.33 99.375 106.656C97.2006 104.345 98.0727 100.551 100.973 99.7043C101.852 99.4478 102.167 99.463 103.094 99.8081C103.693 100.031 104.435 100.475 104.744 100.795L105.305 101.377L106.893 100.162C107.766 99.4935 108.48 98.8591 108.48 98.7519C108.48 98.4262 106.792 97.0901 105.685 96.5399C104.455 95.9287 102.396 95.655 100.642 95.8694ZM78.7146 98.2046C78.1574 99.5022 76.6904 102.895 75.4546 105.744C74.2188 108.594 73.2076 111.017 73.2076 111.128C73.2076 111.24 74.1987 111.331 75.4099 111.331H77.6122L78.1072 110.061L78.6026 108.79L81.7105 108.723L84.8187 108.655L85.3761 109.993L85.9335 111.331H88.1403C89.4945 111.331 90.347 111.234 90.347 111.081C90.347 110.867 85.0447 98.4528 84.1244 96.5108C83.8177 95.8638 83.7523 95.8454 81.7681 95.8454H79.7275L78.7146 98.2046ZM51.6557 103.64L51.7212 111.21L53.7705 111.28L55.8198 111.351V107.106C55.8198 104.772 55.9038 102.862 56.0063 102.862C56.1092 102.862 57.0215 104.115 58.0338 105.645C59.0462 107.175 59.9405 108.426 60.0207 108.423C60.1009 108.421 61.0051 107.142 62.0297 105.58L63.8927 102.741L64.0169 106.976L64.1411 111.21L66.3146 111.28L68.4881 111.35V103.719V96.0874H66.1221H63.7563L63.0792 97.1871C62.7069 97.7918 61.865 99.1105 61.2083 100.117L60.0145 101.948L58.2153 99.0778L56.4162 96.2084L54.003 96.1392L51.5898 96.0697L51.6557 103.64ZM113.696 103.709V111.331H115.808H117.919V108.428V105.524H120.776H123.632V108.428V111.331H125.744H127.855V103.709V96.0874H125.744H123.632V98.87V101.653H120.776H117.919V98.87V96.0874H115.808H113.696V103.709ZM133.817 103.709V111.331H136.052H138.288V103.709V96.0874H136.052H133.817V103.709ZM144.249 103.709V111.331H146.361H148.472L148.477 107.157C148.483 103.163 148.502 103.006 148.912 103.502C149.148 103.788 150.662 105.666 152.275 107.676L155.209 111.331H157.057H158.905V103.709V96.0874H156.793H154.682L154.675 100.019L154.669 103.951L153.937 103.104C153.535 102.639 152.113 100.874 150.777 99.1831L148.348 96.1084L146.299 96.098L144.249 96.0874V103.709ZM164.866 103.709V111.331H171.2H177.534V109.516V107.702H173.312H169.089V106.492V105.282H172.951H176.812L176.739 103.649L176.665 102.015L172.864 101.949L169.062 101.882L169.138 100.739L169.213 99.5959L173.374 99.5296L177.534 99.4633V97.7753V96.0874H171.2H164.866V103.709ZM182.999 103.691V111.331H185.111H187.222V109.032V106.734H188.214C189.193 106.734 189.229 106.766 190.76 109.027L192.314 111.32L194.736 111.325C196.068 111.328 197.158 111.265 197.158 111.184C197.158 111.103 196.45 110.042 195.586 108.825C194.721 107.608 193.935 106.481 193.838 106.32C193.729 106.137 194.025 105.792 194.622 105.408C196.356 104.29 197.133 102.206 196.644 99.9854C196.32 98.5162 195.504 97.4823 194.084 96.7421C193.142 96.2514 192.654 96.2021 188.029 96.13L182.999 96.0518V103.691ZM200.442 96.6228C200.646 96.9272 201.29 97.9384 201.872 98.87C202.455 99.8015 203.644 101.674 204.516 103.031L206.1 105.498V108.424V111.35L208.274 111.28L210.447 111.21L210.571 108.186C210.695 105.173 210.699 105.155 211.682 103.588C212.224 102.723 213.483 100.709 214.479 99.1119L216.29 96.2084L214.133 96.138C212.947 96.099 211.841 96.1179 211.676 96.1798C211.511 96.2415 210.72 97.4438 209.92 98.8513C209.119 100.259 208.401 101.411 208.323 101.411C208.245 101.411 207.504 100.24 206.677 98.8095L205.173 96.2084L202.621 96.1389L200.07 96.0697L200.442 96.6228ZM191.784 100.218C192.258 100.582 192.438 100.943 192.438 101.532C192.438 102.857 191.558 103.346 189.176 103.346H187.222V101.532V99.7168H189.176C190.776 99.7168 191.248 99.8076 191.784 100.218ZM82.6286 103.097C83.0484 104.157 83.3919 105.082 83.3919 105.153C83.3919 105.224 82.6653 105.282 81.7773 105.282C80.8893 105.282 80.1627 105.177 80.1627 105.049C80.1627 104.921 80.3977 104.24 80.6849 103.537C80.972 102.833 81.3046 102.013 81.4239 101.713C81.5433 101.413 81.6914 101.169 81.7532 101.169C81.8148 101.169 82.2088 102.036 82.6286 103.097Z" fill="#DADADA"/>
<path fill-rule="evenodd" clip-rule="evenodd" d="M68.9422 43.2743C68.5306 44.0467 64.4743 53.3018 54.8623 75.3996C53.1255 79.392 51.6535 82.7422 51.5909 82.8443C51.5281 82.9464 54.1894 83.0009 57.5045 82.9653L63.5321 82.9005L64.8173 79.7726C65.524 78.0525 66.2307 76.4449 66.3875 76.2003C66.6557 75.7819 67.1336 75.7594 74.5404 75.8196L82.4081 75.8835L83.8863 79.4525L85.3645 83.0215H91.4438C97.114 83.0215 97.5151 82.9929 97.4024 82.598C97.336 82.365 95.4343 77.9826 93.1766 72.859C89.6993 64.9681 84.9636 54.1368 81.0635 45.1541L80.1181 42.9765L74.6442 42.9114C69.6206 42.8516 69.1516 42.8814 68.9422 43.2743ZM118.082 62.9385V83.0215H123.671H129.26V72.0794C129.26 61.3134 129.268 61.1448 129.733 61.6144C129.994 61.8767 132.989 65.5759 136.391 69.8344C139.792 74.093 143.566 78.8023 144.777 80.2994L146.979 83.0215H152.03H157.081V62.9385V42.8555H151.37H145.659L145.595 53.4344L145.53 64.0133L137.1 53.4344L128.67 42.8555H123.376H118.082V62.9385ZM179.618 43.0009C179.518 43.0984 179.436 52.1498 179.436 63.1153V83.0524L192.415 82.9665L205.394 82.8804L207.628 82.2089C210.342 81.3933 212.099 80.4445 213.598 78.984C215.635 76.9997 216.603 74.2783 216.378 71.1652C216.096 67.2607 214.25 64.6903 210.49 62.9687L208.481 62.049L210.086 61.0383C212.686 59.4002 213.985 57.4914 214.457 54.6139C215.158 50.3343 213.103 46.4276 209.168 44.563C205.911 43.0195 205.857 43.0142 192.224 42.9145C185.391 42.8647 179.718 42.9036 179.618 43.0009ZM200.663 52.0765C201.203 52.2224 202.013 52.701 202.463 53.1397C203.198 53.8554 203.282 54.0792 203.282 55.3166C203.282 56.554 203.198 56.7778 202.463 57.4936C201.292 58.6344 200.259 58.8222 195.147 58.8236L190.614 58.8251V55.3166V51.8081L195.147 51.8096C197.671 51.8103 200.116 51.9286 200.663 52.0765ZM76.8425 61.7683L79.0324 67.1728L74.5513 67.2389C72.0867 67.2752 70.028 67.2638 69.9763 67.2137C69.9249 67.1634 70.7677 64.956 71.8497 62.3084C74.0905 56.8243 74.404 56.1216 74.5488 56.2624C74.6059 56.3181 75.638 58.7958 76.8425 61.7683ZM202.992 67.4397C204.621 68.2302 205.123 69.081 204.957 70.767C204.858 71.7726 204.685 72.1171 203.959 72.7658C203.476 73.1968 202.651 73.6657 202.126 73.8077C201.588 73.9534 198.867 74.0666 195.893 74.0673L190.614 74.0688V70.4393V66.8099H196.154C201.625 66.8099 201.711 66.8179 202.992 67.4397Z" fill="#DADADA"/>
</svg>
