<svg width="268" height="150" viewBox="0 0 268 150" fill="none" xmlns="http://www.w3.org/2000/svg">
<path d="M168.302 45.06L159.69 80.1044L151.05 45.06H125.712V57.9998C122.67 46.6751 111.935 43.8299 101.99 43.6703C89.8751 43.5106 77.1687 48.7598 76.6992 64.7795H93.4626C93.4626 59.9436 97.1722 57.1734 101.351 57.2392C106.479 57.2016 108.846 59.3895 108.968 62.8076C108.789 65.7655 107.042 67.8314 101.389 67.8314H95.7541V79.4659H100.872C103.774 79.4659 107.822 81.0434 107.982 85.1845C108.179 90.1144 104.742 92.293 100.525 92.3305C92.9837 92.0582 91.7628 86.255 91.7628 81.2782H74.3701C74.4452 84.6305 73.6188 106.491 100.891 106.331C113.954 106.453 123.073 100.96 125.75 93.3916V104.989H142.917V67.1928L152.196 104.998H167.194L176.51 67.2304V105.036H193.63V45.06H168.302ZM125.759 80.0199C123.627 75.5971 120.622 73.6627 118.922 73.0524C122.472 71.4748 124.341 69.3338 125.759 65.0612V80.0199Z" fill="#DADADA"/>
</svg>
