<svg width="268" height="150" viewBox="0 0 268 150" fill="none" xmlns="http://www.w3.org/2000/svg">
<g clip-path="url(#clip0_1456_1903)">
<path fill-rule="evenodd" clip-rule="evenodd" d="M145.913 33.9101C145.913 33.9526 145.844 33.9869 145.759 33.9869C145.673 33.9869 145.603 34.0226 145.603 34.0652C145.603 34.1063 145.534 34.142 145.448 34.142C145.364 34.142 145.294 34.1763 145.294 34.2188C145.294 34.26 145.225 34.2957 145.138 34.2957C145.054 34.2957 144.984 34.33 144.984 34.3725C144.984 34.4151 144.879 34.4494 144.752 34.4494C144.624 34.4494 144.519 34.4851 144.519 34.5276C144.519 34.5688 144.45 34.6044 144.365 34.6044C144.28 34.6044 144.209 34.6387 144.209 34.6813C144.209 34.7225 144.154 34.7581 144.09 34.7581C144.024 34.7581 143.764 34.9667 143.513 35.2206C143.263 35.4758 143.019 35.683 142.974 35.683C142.864 35.683 142.198 36.3485 142.198 36.4569C142.198 36.5036 142.023 36.7108 141.81 36.9166C141.598 37.1225 141.424 37.3393 141.424 37.3969C141.424 37.4518 141.355 37.5492 141.268 37.611C141.184 37.6714 141.114 37.7839 141.114 37.858C141.114 37.9348 141.08 37.9952 141.037 37.9952C140.994 37.9952 140.96 38.0652 140.96 38.1503C140.96 38.2353 140.924 38.304 140.882 38.304C140.84 38.304 140.804 38.3739 140.804 38.459C140.804 38.5441 140.77 38.6127 140.727 38.6127C140.685 38.6127 140.649 38.717 140.649 38.8446C140.649 38.9709 140.615 39.0751 140.572 39.0751C140.531 39.0751 140.495 39.2137 140.495 39.3839C140.495 39.554 140.461 39.6926 140.418 39.6926C140.375 39.6926 140.339 39.7969 140.339 39.9232C140.339 40.0508 140.305 40.1551 140.262 40.1551C140.221 40.1551 140.185 40.2594 140.185 40.3856C140.185 40.5132 140.151 40.6175 140.108 40.6175C140.066 40.6175 140.03 40.7547 140.03 40.9263C140.03 41.0951 139.996 41.2336 139.953 41.2336C139.912 41.2336 139.876 41.3379 139.876 41.4655C139.876 41.5918 139.84 41.6961 139.799 41.6961C139.756 41.6961 139.72 41.8004 139.72 41.928C139.72 42.0556 139.686 42.1585 139.643 42.1585C139.602 42.1585 139.566 42.2985 139.566 42.4673C139.566 42.6374 139.531 42.776 139.489 42.776C139.447 42.776 139.411 42.8803 139.411 43.0066C139.411 43.1342 139.376 43.2385 139.334 43.2385C139.293 43.2385 139.257 43.3427 139.257 43.469C139.257 43.5966 139.221 43.7009 139.18 43.7009C139.137 43.7009 139.101 43.8395 139.101 44.0096C139.101 44.1784 139.067 44.317 139.024 44.317C138.983 44.317 138.947 44.4213 138.947 44.5489C138.947 44.6765 138.911 44.7808 138.87 44.7808C138.828 44.7808 138.792 44.8838 138.792 45.0114C138.792 45.139 138.757 45.2433 138.715 45.2433C138.672 45.2433 138.638 45.3805 138.638 45.5507C138.638 45.7208 138.602 45.8594 138.561 45.8594C138.517 45.8594 138.482 45.928 138.482 46.0131C138.482 46.1668 138.431 46.1682 124.042 46.1682C108.337 46.1682 109.381 46.138 109.381 46.5867C109.381 46.6965 109.346 46.7843 109.304 46.7843C109.261 46.7843 109.227 46.9229 109.227 47.093C109.227 47.2632 109.191 47.4018 109.15 47.4018C109.106 47.4018 109.071 47.539 109.071 47.7092C109.071 47.8793 109.037 48.0179 108.994 48.0179C108.952 48.0179 108.917 48.1222 108.917 48.2498C108.917 48.3761 108.881 48.4803 108.839 48.4803C108.797 48.4803 108.762 48.6189 108.762 48.7891C108.762 48.9593 108.727 49.0978 108.685 49.0978C108.642 49.0978 108.608 49.2351 108.608 49.4052C108.608 49.5754 108.572 49.714 108.529 49.714C108.488 49.714 108.452 49.8183 108.452 49.9459C108.452 50.0721 108.418 50.1764 108.375 50.1764C108.332 50.1764 108.298 50.315 108.298 50.4852C108.298 50.6539 108.262 50.7939 108.22 50.7939C108.178 50.7939 108.143 50.9311 108.143 51.1013C108.143 51.2714 108.108 51.41 108.066 51.41C108.023 51.41 107.989 51.5143 107.989 51.6406C107.989 51.7682 107.953 51.8739 107.91 51.8739C107.869 51.8739 107.833 52.0111 107.833 52.1812C107.833 52.35 107.799 52.4886 107.756 52.4886C107.713 52.4886 107.679 52.6286 107.679 52.7974C107.679 52.9675 107.643 53.1061 107.601 53.1061C107.559 53.1061 107.524 53.2104 107.524 53.3366C107.524 53.4643 107.489 53.5685 107.446 53.5685C107.404 53.5685 107.368 53.7071 107.368 53.8773C107.368 54.0461 107.334 54.186 107.291 54.186C107.25 54.186 107.214 54.3233 107.214 54.4934C107.214 54.6636 107.18 54.8022 107.137 54.8022C107.094 54.8022 107.06 54.9065 107.06 55.0327C107.06 55.1603 107.024 55.2646 106.981 55.2646C106.94 55.2646 106.904 55.4032 106.904 55.5734C106.904 55.7421 106.87 55.8807 106.827 55.8807C106.785 55.8807 106.75 55.9507 106.75 56.0358C106.75 56.1895 106.801 56.1895 141.037 56.1895C175.273 56.1895 175.324 56.1895 175.324 56.0358C175.324 55.9507 175.358 55.8807 175.401 55.8807C175.443 55.8807 175.478 55.7778 175.478 55.6502C175.478 55.5226 175.514 55.4183 175.556 55.4183C175.597 55.4183 175.633 55.3154 175.633 55.1878C175.633 55.0602 175.668 54.9559 175.71 54.9559C175.753 54.9559 175.787 54.8516 175.787 54.7253C175.787 54.5977 175.823 54.4934 175.866 54.4934C175.907 54.4934 175.943 54.3891 175.943 54.2629C175.943 54.1353 175.977 54.031 176.02 54.031C176.062 54.031 176.098 53.9267 176.098 53.8005C176.098 53.6728 176.133 53.5685 176.175 53.5685C176.217 53.5685 176.252 53.43 176.252 53.2598C176.252 53.091 176.287 52.9524 176.329 52.9524C176.372 52.9524 176.408 52.8824 176.408 52.7974C176.408 52.7123 176.442 52.6437 176.485 52.6437C176.526 52.6437 176.562 52.5051 176.562 52.3349C176.562 52.1661 176.596 52.0262 176.639 52.0262C176.682 52.0262 176.717 51.9233 176.717 51.7956C176.717 51.668 176.752 51.5637 176.794 51.5637C176.836 51.5637 176.871 51.4608 176.871 51.3332C176.871 51.2056 176.907 51.1013 176.948 51.1013C176.991 51.1013 177.027 50.997 177.027 50.8708C177.027 50.7431 177.061 50.6389 177.104 50.6389C177.145 50.6389 177.181 50.5346 177.181 50.4083C177.181 50.2807 177.217 50.1764 177.258 50.1764C177.301 50.1764 177.336 50.0721 177.336 49.9459C177.336 49.8183 177.371 49.714 177.413 49.714C177.455 49.714 177.49 49.6097 177.49 49.4834C177.49 49.3558 177.525 49.2515 177.568 49.2515C177.61 49.2515 177.646 49.1472 177.646 49.0196C177.646 48.8934 177.68 48.7891 177.723 48.7891C177.764 48.7891 177.8 48.6848 177.8 48.5572C177.8 48.4309 177.836 48.3267 177.877 48.3267C177.92 48.3267 177.955 48.2224 177.955 48.0948C177.955 47.9685 177.99 47.8642 178.033 47.8642C178.074 47.8642 178.11 47.7599 178.11 47.6323C178.11 47.5047 178.145 47.4018 178.187 47.4018C178.229 47.4018 178.265 47.2632 178.265 47.093C178.265 46.9229 178.299 46.7843 178.342 46.7843C178.385 46.7843 178.419 46.7157 178.419 46.6306C178.419 46.4769 178.368 46.4755 172.15 46.4755C168.022 46.4755 165.882 46.4495 165.882 46.3987C165.882 46.3479 163.172 46.3218 157.909 46.3218C152.646 46.3218 149.937 46.2958 149.937 46.245C149.937 46.1983 149.627 46.1682 149.164 46.1682H148.389V45.9362C148.389 45.81 148.423 45.7057 148.466 45.7057C148.509 45.7057 148.545 45.5314 148.545 45.3201C148.545 45.1074 148.579 44.9345 148.622 44.9345C148.663 44.9345 148.699 44.7959 148.699 44.6258C148.699 44.457 148.734 44.317 148.776 44.317C148.82 44.317 148.854 44.1441 148.854 43.9328C148.854 43.7201 148.888 43.5472 148.931 43.5472C148.974 43.5472 149.008 43.4429 149.008 43.3153C149.008 43.1877 149.044 43.0848 149.085 43.0848C149.128 43.0848 149.164 43.0148 149.164 42.9297C149.164 42.8446 149.198 42.776 149.241 42.776C149.283 42.776 149.318 42.6717 149.318 42.5441V42.3136H184.146V42.621C184.146 42.7911 184.112 42.9297 184.069 42.9297C184.028 42.9297 183.992 43.034 183.992 43.1616C183.992 43.2879 183.958 43.3922 183.915 43.3922C183.873 43.3922 183.837 43.4964 183.837 43.6241C183.837 43.7517 183.802 43.8546 183.76 43.8546C183.719 43.8546 183.683 43.9589 183.683 44.0865C183.683 44.2141 183.647 44.317 183.606 44.317C183.563 44.317 183.527 44.457 183.527 44.6258C183.527 44.7959 183.493 44.9345 183.45 44.9345C183.409 44.9345 183.373 45.0388 183.373 45.1651C183.373 45.2927 183.339 45.397 183.296 45.397C183.254 45.397 183.218 45.5013 183.218 45.6289C183.218 45.7551 183.183 45.8594 183.141 45.8594C183.099 45.8594 183.064 45.9637 183.064 46.0913C183.064 46.2176 183.028 46.3218 182.987 46.3218C182.944 46.3218 182.908 46.4604 182.908 46.6306C182.908 46.7994 182.874 46.9393 182.831 46.9393C182.789 46.9393 182.754 47.0423 182.754 47.1699C182.754 47.2975 182.718 47.4018 182.677 47.4018C182.634 47.4018 182.599 47.5047 182.599 47.6323C182.599 47.7599 182.564 47.8642 182.522 47.8642C182.479 47.8642 182.445 47.9685 182.445 48.0948C182.445 48.2224 182.409 48.3267 182.366 48.3267C182.325 48.3267 182.289 48.4639 182.289 48.6354C182.289 48.8042 182.255 48.9428 182.212 48.9428C182.169 48.9428 182.135 49.0471 182.135 49.1747C182.135 49.3023 182.099 49.4052 182.057 49.4052C182.015 49.4052 181.98 49.5095 181.98 49.6371C181.98 49.7647 181.945 49.8677 181.903 49.8677C181.86 49.8677 181.825 49.972 181.825 50.0996C181.825 50.2272 181.79 50.3315 181.747 50.3315C181.706 50.3315 181.67 50.4687 181.67 50.6389C181.67 50.809 181.636 50.9476 181.593 50.9476C181.55 50.9476 181.516 51.0519 181.516 51.1781C181.516 51.3058 181.48 51.41 181.438 51.41C181.396 51.41 181.36 51.5143 181.36 51.6406C181.36 51.7682 181.326 51.8739 181.283 51.8739C181.241 51.8739 181.206 51.9768 181.206 52.1044C181.206 52.2306 181.171 52.3349 181.128 52.3349C181.087 52.3349 181.051 52.4735 181.051 52.6437C181.051 52.8125 181.017 52.9524 180.974 52.9524C180.931 52.9524 180.897 53.0553 180.897 53.183C180.897 53.3106 180.861 53.4149 180.818 53.4149C180.777 53.4149 180.741 53.5178 180.741 53.6454C180.741 53.773 180.707 53.8773 180.664 53.8773C180.622 53.8773 180.587 53.9816 180.587 54.1078C180.587 54.2354 180.552 54.3397 180.509 54.3397C180.468 54.3397 180.432 54.477 180.432 54.6471C180.432 54.8173 180.397 54.9559 180.355 54.9559C180.312 54.9559 180.278 55.0602 180.278 55.1878C180.278 55.3154 180.242 55.4183 180.199 55.4183C180.158 55.4183 180.122 55.5226 180.122 55.6502C180.122 55.7778 180.088 55.8807 180.045 55.8807C180.003 55.8807 179.967 55.985 179.967 56.1126C179.967 56.2403 179.932 56.3432 179.89 56.3432C179.849 56.3432 179.813 56.4831 179.813 56.6519C179.813 56.8221 179.778 56.9607 179.736 56.9607C179.693 56.9607 179.657 57.065 179.657 57.1926C179.657 57.3188 179.623 57.4231 179.58 57.4231C179.539 57.4231 179.503 57.5274 179.503 57.655C179.503 57.7813 179.469 57.8856 179.426 57.8856C179.384 57.8856 179.348 58.0242 179.348 58.1943C179.348 58.3631 179.313 58.5017 179.271 58.5017C179.229 58.5017 179.194 58.606 179.194 58.735C179.194 58.8612 179.159 58.9655 179.117 58.9655C179.074 58.9655 179.038 59.0684 179.038 59.196C179.038 59.3236 179.004 59.4279 178.961 59.4279C178.92 59.4279 178.884 59.5309 178.884 59.6585C178.884 59.7861 178.848 59.8904 178.807 59.8904C178.764 59.8904 178.729 59.9947 178.729 60.1209C178.729 60.2485 178.694 60.3528 178.652 60.3528C178.61 60.3528 178.575 60.4914 178.575 60.6616C178.575 60.8303 178.54 60.9689 178.498 60.9689C178.455 60.9689 178.419 61.0732 178.419 61.2008C178.419 61.3285 178.385 61.4314 178.342 61.4314C178.301 61.4314 178.265 61.5357 178.265 61.6633C178.265 61.7909 178.229 61.8938 178.188 61.8938C178.145 61.8938 178.11 62.0338 178.11 62.2026C178.11 62.3727 178.075 62.5113 178.033 62.5113C177.991 62.5113 177.955 62.6156 177.955 62.7418C177.955 62.8695 177.92 62.9738 177.878 62.9738C177.836 62.9738 177.8 63.078 177.8 63.2043C177.8 63.3319 177.766 63.4362 177.723 63.4362C177.68 63.4362 177.646 63.5405 177.646 63.6681C177.646 63.7943 177.61 63.8986 177.569 63.8986C177.525 63.8986 177.49 64.0372 177.49 64.2074C177.49 64.3762 177.456 64.5161 177.413 64.5161C177.371 64.5161 177.336 64.6191 177.336 64.7467C177.336 64.8743 177.301 64.9786 177.258 64.9786C177.217 64.9786 177.181 65.0829 177.181 65.2091C177.181 65.3367 177.147 65.441 177.104 65.441C177.061 65.441 177.027 65.5453 177.027 65.6715C177.027 65.7992 176.991 65.9035 176.948 65.9035C176.907 65.9035 176.871 66.0407 176.871 66.2122C176.871 66.381 176.837 66.5196 176.794 66.5196C176.752 66.5196 176.717 66.6239 176.717 66.7515C176.717 66.8777 176.682 66.982 176.639 66.982C176.598 66.982 176.562 67.0863 176.562 67.2139C176.562 67.3415 176.527 67.4445 176.485 67.4445C176.442 67.4445 176.408 67.5487 176.408 67.6764C176.408 67.804 176.372 67.9069 176.329 67.9069C176.288 67.9069 176.252 68.0469 176.252 68.2156C176.252 68.3858 176.218 68.5244 176.175 68.5244C176.133 68.5244 176.098 68.6287 176.098 68.7549C176.098 68.8825 176.062 68.9868 176.02 68.9868C175.979 68.9868 175.943 69.0911 175.943 69.2187C175.943 69.345 175.908 69.4493 175.866 69.4493C175.823 69.4493 175.789 69.5536 175.789 69.6812C175.789 69.8074 175.753 69.9117 175.71 69.9117C175.669 69.9117 175.633 70.0503 175.633 70.2205C175.633 70.3892 175.599 70.5292 175.556 70.5292C175.514 70.5292 175.479 70.6321 175.479 70.7597C175.479 70.8874 175.443 70.9917 175.401 70.9917C175.359 70.9917 175.324 71.0946 175.324 71.2222C175.324 71.3498 175.289 71.4541 175.247 71.4541C175.204 71.4541 175.17 71.5584 175.17 71.6846C175.17 71.8122 175.134 71.9165 175.091 71.9165C175.05 71.9165 175.014 72.0537 175.014 72.2239C175.014 72.3941 174.98 72.5327 174.937 72.5327C174.894 72.5327 174.859 72.6369 174.859 72.7646C174.859 72.8922 174.824 72.9951 174.782 72.9951C174.74 72.9951 174.705 73.0994 174.705 73.227C174.705 73.3546 174.67 73.4575 174.628 73.4575C174.585 73.4575 174.549 73.5618 174.549 73.6894C174.549 73.8171 174.515 73.92 174.472 73.92C174.431 73.92 174.395 74.0599 174.395 74.2287C174.395 74.3989 174.361 74.5375 174.318 74.5375C174.275 74.5375 174.24 74.6418 174.24 74.768C174.24 74.8956 174.205 74.9999 174.163 74.9999C174.121 74.9999 174.085 75.1042 174.085 75.2318C174.085 75.3581 174.051 75.4623 174.008 75.4623C173.966 75.4623 173.93 75.6009 173.93 75.7711C173.93 75.9399 173.896 76.0785 173.853 76.0785C173.812 76.0785 173.776 76.1828 173.776 76.3118C173.776 76.438 173.742 76.5423 173.699 76.5423C173.656 76.5423 173.62 76.6452 173.62 76.7728C173.62 76.9004 173.586 77.0047 173.543 77.0047C173.502 77.0047 173.466 77.109 173.466 77.2353C173.466 77.3629 173.431 77.4672 173.389 77.4672C173.347 77.4672 173.311 77.6044 173.311 77.7759C173.311 77.9447 173.277 78.0833 173.234 78.0833C173.193 78.0833 173.157 78.1876 173.157 78.3152C173.157 78.4414 173.121 78.5457 173.08 78.5457C173.037 78.5457 173.001 78.65 173.001 78.7776C173.001 78.9052 172.967 79.0082 172.924 79.0082C172.882 79.0082 172.847 79.1125 172.847 79.2401C172.847 79.3677 172.812 79.4706 172.77 79.4706C172.726 79.4706 172.692 79.6106 172.692 79.7794C172.692 79.9495 172.657 80.0881 172.615 80.0881C172.572 80.0881 172.538 80.1924 172.538 80.3186C172.538 80.4463 172.502 80.5505 172.459 80.5505C172.418 80.5505 172.382 80.6548 172.382 80.7825C172.382 80.9087 172.348 81.013 172.305 81.013C172.263 81.013 172.228 81.1173 172.228 81.2449C172.228 81.3711 172.192 81.4754 172.15 81.4754C172.109 81.4754 172.073 81.614 172.073 81.7842C172.073 81.953 172.038 82.0916 171.996 82.0916C171.953 82.0916 171.919 82.1958 171.919 82.3248C171.919 82.4511 171.883 82.5554 171.84 82.5554C171.799 82.5554 171.763 82.624 171.763 82.7091C171.763 82.8614 171.712 82.8627 167.43 82.8627C163.147 82.8627 163.096 82.8614 163.096 82.7091C163.096 82.624 163.13 82.5554 163.173 82.5554C163.214 82.5554 163.25 82.4511 163.25 82.3235C163.25 82.1958 163.284 82.0916 163.327 82.0916C163.368 82.0916 163.404 81.9886 163.404 81.861C163.404 81.7334 163.44 81.6291 163.481 81.6291C163.525 81.6291 163.56 81.5262 163.56 81.3986C163.56 81.271 163.594 81.1667 163.637 81.1667C163.679 81.1667 163.714 81.0295 163.714 80.8593C163.714 80.6891 163.749 80.5505 163.791 80.5505C163.833 80.5505 163.869 80.4463 163.869 80.3186C163.869 80.1924 163.903 80.0881 163.946 80.0881C163.989 80.0881 164.023 79.9838 164.023 79.8562C164.023 79.73 164.059 79.6257 164.102 79.6257C164.143 79.6257 164.179 79.5214 164.179 79.3938C164.179 79.2675 164.213 79.1632 164.256 79.1632C164.298 79.1632 164.333 79.0589 164.333 78.9313C164.333 78.8037 164.368 78.7008 164.411 78.7008C164.452 78.7008 164.488 78.5608 164.488 78.392C164.488 78.2219 164.523 78.0833 164.565 78.0833C164.608 78.0833 164.642 77.979 164.642 77.8528C164.642 77.7251 164.678 77.6209 164.721 77.6209C164.762 77.6209 164.798 77.5166 164.798 77.3903C164.798 77.2627 164.832 77.1584 164.875 77.1584C164.917 77.1584 164.952 77.0541 164.952 76.9265C164.952 76.8003 164.988 76.696 165.03 76.696C165.071 76.696 165.107 76.5588 165.107 76.3941C165.107 76.228 165.151 76.0716 165.204 76.0469C165.281 76.0112 165.281 75.992 165.204 75.9577C165.151 75.933 165.107 75.8109 165.107 75.6874C165.107 75.5639 165.073 75.4623 165.03 75.4623C164.988 75.4623 164.952 75.3238 164.952 75.1536C164.952 74.9848 164.917 74.8462 164.875 74.8462C164.833 74.8462 164.798 74.7419 164.798 74.6143C164.798 74.4867 164.763 74.3838 164.721 74.3838C164.678 74.3838 164.642 74.2795 164.642 74.1519C164.642 74.0243 164.608 73.92 164.565 73.92C164.524 73.92 164.488 73.8514 164.488 73.7663C164.488 73.6812 164.454 73.6126 164.411 73.6126C164.368 73.6126 164.333 73.5577 164.333 73.4918C164.333 73.3491 164.514 73.1488 164.644 73.1488C164.692 73.1488 164.867 73.0116 165.029 72.8414C165.194 72.6713 165.366 72.5327 165.413 72.5327C165.542 72.5327 166.345 71.7052 166.345 71.5721C166.345 71.5062 166.38 71.4541 166.422 71.4541C166.465 71.4541 166.501 71.3855 166.501 71.299C166.501 71.2153 166.535 71.1453 166.578 71.1453C166.619 71.1453 166.655 71.0411 166.655 70.9148C166.655 70.7872 166.689 70.6815 166.732 70.6815C166.775 70.6815 166.81 70.5786 166.81 70.451C166.81 70.3247 166.845 70.2205 166.887 70.2205C166.929 70.2205 166.965 70.1162 166.965 69.9886C166.965 69.8623 166.999 69.758 167.042 69.758C167.084 69.758 167.12 69.6537 167.12 69.5261C167.12 69.3999 167.154 69.2956 167.197 69.2956C167.238 69.2956 167.274 69.1913 167.274 69.0637C167.274 68.9361 167.308 68.8331 167.351 68.8331C167.394 68.8331 167.43 68.7645 167.43 68.6781C167.43 68.593 167.464 68.5244 167.507 68.5244C167.548 68.5244 167.584 68.4201 167.584 68.2925C167.584 68.1662 167.619 68.062 167.661 68.062C167.703 68.062 167.739 67.9577 167.739 67.83C167.739 67.7038 167.773 67.5995 167.816 67.5995C167.857 67.5995 167.893 67.4952 167.893 67.3676C167.893 67.2414 167.928 67.1371 167.97 67.1371C168.013 67.1371 168.049 67.0328 168.049 66.9052C168.049 66.7776 168.083 66.6746 168.126 66.6746C168.167 66.6746 168.203 66.5703 168.203 66.4427C168.203 66.3151 168.238 66.2122 168.28 66.2122C168.322 66.2122 168.358 66.1422 168.358 66.0571C168.358 65.9721 168.393 65.9035 168.435 65.9035C168.478 65.9035 168.512 65.7992 168.512 65.6715C168.512 65.5453 168.548 65.441 168.589 65.441C168.632 65.441 168.668 65.3532 168.668 65.2448C168.668 65.1254 168.771 64.947 168.936 64.7823L169.204 64.5161H170.87C172.485 64.5161 172.538 64.5106 172.538 64.3611C172.538 64.276 172.572 64.2074 172.615 64.2074C172.656 64.2074 172.692 64.1388 172.692 64.0523C172.692 63.9686 172.726 63.8986 172.769 63.8986C172.812 63.8986 172.847 63.83 172.847 63.7449C172.847 63.6599 172.882 63.5899 172.924 63.5899C172.966 63.5899 173.001 63.5213 173.001 63.4362C173.001 63.3511 173.037 63.2825 173.078 63.2825C173.121 63.2825 173.157 63.1782 173.157 63.0506C173.157 62.923 173.191 62.8201 173.234 62.8201C173.277 62.8201 173.311 62.7501 173.311 62.665C173.311 62.5799 173.347 62.5113 173.388 62.5113C173.431 62.5113 173.466 62.4427 173.466 62.3563C173.466 62.2726 173.501 62.2026 173.543 62.2026C173.586 62.2026 173.62 62.0983 173.62 61.972C173.62 61.8444 173.656 61.7401 173.699 61.7401C173.74 61.7401 173.776 61.6715 173.776 61.5864C173.776 61.5014 173.81 61.4314 173.853 61.4314C173.896 61.4314 173.93 61.3628 173.93 61.2777C173.93 61.1926 173.966 61.124 174.008 61.124C174.05 61.124 174.085 61.0554 174.085 60.9689C174.085 60.8852 174.12 60.8153 174.163 60.8153C174.205 60.8153 174.24 60.711 174.24 60.5833C174.24 60.4571 174.275 60.3528 174.318 60.3528C174.359 60.3528 174.395 60.2842 174.395 60.1977C174.395 60.114 174.429 60.0441 174.472 60.0441C174.515 60.0441 174.549 59.9755 174.549 59.8904C174.549 59.8053 174.585 59.7353 174.628 59.7353C174.669 59.7353 174.705 59.6667 174.705 59.5816C174.705 59.4965 174.739 59.4279 174.782 59.4279C174.824 59.4279 174.859 59.3593 174.859 59.2729C174.859 59.1878 174.894 59.1192 174.937 59.1192C174.978 59.1192 175.014 59.0149 175.014 58.8873C175.014 58.761 175.048 58.6567 175.091 58.6567C175.134 58.6567 175.168 58.5881 175.168 58.5017C175.168 58.3507 175.117 58.348 169.519 58.348C165.805 58.348 163.869 58.3754 163.869 58.4248C163.869 58.4674 163.8 58.5017 163.714 58.5017C163.628 58.5017 163.56 58.5374 163.56 58.5799C163.56 58.6211 163.455 58.6567 163.327 58.6567C163.199 58.6567 163.095 58.6911 163.095 58.7336C163.095 58.7761 162.99 58.8104 162.862 58.8104C162.735 58.8104 162.631 58.8447 162.631 58.8873C162.631 58.9298 162.561 58.9655 162.475 58.9655C162.39 58.9655 162.321 58.9998 162.321 59.0423C162.321 59.0835 162.251 59.1192 162.166 59.1192C162.081 59.1192 162.012 59.1535 162.012 59.196C162.012 59.2386 161.949 59.2729 161.874 59.2729C161.797 59.2729 161.686 59.3415 161.624 59.4279C161.563 59.5116 161.467 59.5816 161.412 59.5816C161.288 59.5816 160.618 60.2375 160.618 60.3569C160.618 60.4036 160.479 60.5751 160.309 60.7384C160.138 60.9017 159.999 61.0897 159.999 61.1556C159.999 61.2242 159.965 61.2777 159.922 61.2777C159.879 61.2777 159.844 61.4506 159.844 61.6619C159.844 61.8746 159.809 62.0489 159.767 62.0489C159.725 62.0489 159.69 62.1861 159.69 62.3563C159.69 62.5264 159.655 62.665 159.612 62.665C159.57 62.665 159.534 62.8036 159.534 62.9738C159.534 63.1439 159.5 63.2825 159.457 63.2825C159.416 63.2825 159.38 63.4197 159.38 63.5899C159.38 63.76 159.344 63.8986 159.303 63.8986C159.26 63.8986 159.225 64.0729 159.225 64.2842C159.225 64.4969 159.19 64.6685 159.147 64.6685C159.106 64.6685 159.07 64.8084 159.07 64.9786C159.07 65.1474 159.035 65.2859 158.993 65.2859C158.951 65.2859 158.915 65.4259 158.915 65.5947C158.915 65.7649 158.881 65.9035 158.838 65.9035C158.797 65.9035 158.761 66.0763 158.761 66.2877C158.761 66.5004 158.725 66.6746 158.684 66.6746C158.641 66.6746 158.605 66.7364 158.605 66.8119C158.605 66.886 158.537 66.9985 158.451 67.0589C158.366 67.1206 158.296 67.2153 158.296 67.2702C158.296 67.3251 157.931 67.734 157.484 68.1786C156.762 68.8976 156.642 68.9868 156.401 68.9868C156.25 68.9868 156.129 69.0211 156.129 69.0637C156.129 69.1117 155.742 69.1405 155.123 69.1405C154.169 69.1405 154.116 69.1337 154.116 68.9868C154.116 68.9018 154.152 68.8331 154.195 68.8331C154.236 68.8331 154.272 68.7289 154.272 68.6012C154.272 68.4736 154.306 68.3707 154.349 68.3707C154.391 68.3707 154.426 68.2664 154.426 68.1388C154.426 68.0112 154.462 67.9069 154.504 67.9069C154.546 67.9069 154.581 67.804 154.581 67.6764C154.581 67.5487 154.616 67.4445 154.658 67.4445C154.701 67.4445 154.735 67.3415 154.735 67.2139C154.735 67.0863 154.771 66.982 154.814 66.982C154.855 66.982 154.891 66.8448 154.891 66.6746C154.891 66.5045 154.925 66.3659 154.968 66.3659C155.011 66.3659 155.045 66.2616 155.045 66.134C155.045 66.0077 155.081 65.9035 155.123 65.9035C155.165 65.9035 155.2 65.7992 155.2 65.6715C155.2 65.5453 155.235 65.441 155.277 65.441C155.32 65.441 155.355 65.3024 155.355 65.1323C155.355 64.9621 155.39 64.8235 155.433 64.8235C155.474 64.8235 155.51 64.7192 155.51 64.593C155.51 64.4654 155.544 64.3611 155.587 64.3611C155.63 64.3611 155.664 64.2568 155.664 64.1305C155.664 64.0029 155.7 63.8986 155.742 63.8986C155.784 63.8986 155.82 63.7943 155.82 63.6681C155.82 63.5405 155.854 63.4362 155.897 63.4362C155.939 63.4362 155.974 63.2976 155.974 63.1274C155.974 62.9587 156.009 62.8201 156.052 62.8201C156.093 62.8201 156.129 62.7158 156.129 62.5882C156.129 62.4605 156.163 62.3576 156.206 62.3576C156.249 62.3576 156.283 62.2533 156.283 62.1257C156.283 61.9981 156.319 61.8938 156.362 61.8938C156.403 61.8938 156.439 61.7566 156.439 61.5864C156.439 61.4163 156.473 61.2777 156.516 61.2777C156.558 61.2777 156.594 61.1734 156.594 61.0458C156.594 60.9195 156.628 60.8153 156.671 60.8153C156.712 60.8153 156.748 60.711 156.748 60.5833C156.748 60.4571 156.783 60.3528 156.825 60.3528C156.868 60.3528 156.904 60.2485 156.904 60.1209C156.904 59.9947 156.938 59.8904 156.981 59.8904C157.022 59.8904 157.058 59.7518 157.058 59.5816C157.058 59.4115 157.092 59.2729 157.135 59.2729C157.177 59.2729 157.213 59.1686 157.213 59.0423C157.213 58.9147 157.248 58.8104 157.29 58.8104C157.331 58.8104 157.367 58.7061 157.367 58.5799V58.348H152.415C147.513 58.348 147.462 58.3494 147.462 58.5031C147.462 58.5868 147.426 58.6567 147.383 58.6567C147.341 58.6567 147.306 58.761 147.306 58.8873C147.306 59.0149 147.271 59.1192 147.228 59.1192C147.187 59.1192 147.151 59.2235 147.151 59.3511C147.151 59.4773 147.116 59.5816 147.074 59.5816C147.031 59.5816 146.997 59.6859 146.997 59.8135C146.997 59.9398 146.961 60.0441 146.918 60.0441C146.877 60.0441 146.841 60.1827 146.841 60.3528C146.841 60.5216 146.807 60.6616 146.764 60.6616C146.722 60.6616 146.687 60.7645 146.687 60.8921C146.687 61.0197 146.651 61.124 146.609 61.124C146.568 61.124 146.532 61.2269 146.532 61.3545C146.532 61.4822 146.497 61.5864 146.455 61.5864C146.412 61.5864 146.378 61.6907 146.378 61.817C146.378 61.9446 146.342 62.0489 146.299 62.0489C146.258 62.0489 146.222 62.1861 146.222 62.3563C146.222 62.5264 146.188 62.665 146.145 62.665C146.103 62.665 146.068 62.7693 146.068 62.8969C146.068 63.0245 146.032 63.1274 145.99 63.1274C145.948 63.1274 145.913 63.2317 145.913 63.3594C145.913 63.487 145.878 63.5899 145.836 63.5899C145.793 63.5899 145.759 63.6942 145.759 63.8218C145.759 63.9494 145.723 64.0537 145.68 64.0537C145.639 64.0537 145.603 64.1566 145.603 64.2842C145.603 64.4118 145.569 64.5161 145.526 64.5161C145.483 64.5161 145.448 64.6534 145.448 64.8235C145.448 64.9937 145.413 65.1323 145.371 65.1323C145.329 65.1323 145.294 65.2365 145.294 65.3628C145.294 65.4904 145.259 65.5961 145.217 65.5961C145.174 65.5961 145.138 65.699 145.138 65.8266C145.138 65.9529 145.104 66.0571 145.061 66.0571C145.02 66.0571 144.984 66.1957 144.984 66.3659C144.984 66.5347 144.95 66.6746 144.907 66.6746C144.864 66.6746 144.829 66.7776 144.829 66.9052C144.829 67.0328 144.794 67.1371 144.752 67.1371C144.71 67.1371 144.675 67.2414 144.675 67.3676C144.675 67.4952 144.639 67.5995 144.597 67.5995C144.555 67.5995 144.519 67.7038 144.519 67.83C144.519 67.9577 144.485 68.062 144.442 68.062C144.401 68.062 144.365 68.1662 144.365 68.2925C144.365 68.4201 144.329 68.5244 144.288 68.5244C144.245 68.5244 144.209 68.663 144.209 68.8331C144.209 69.0019 144.175 69.1405 144.132 69.1405C144.091 69.1405 144.055 69.2448 144.055 69.3724C144.055 69.5 144.02 69.603 143.978 69.603C143.936 69.603 143.9 69.7073 143.9 69.8349C143.9 69.9625 143.866 70.0654 143.823 70.0654C143.782 70.0654 143.746 70.1697 143.746 70.2973C143.746 70.4249 143.71 70.5292 143.669 70.5292C143.626 70.5292 143.59 70.6664 143.59 70.8366C143.59 71.0067 143.556 71.1453 143.513 71.1453C143.471 71.1453 143.436 71.2496 143.436 71.3772C143.436 71.5035 143.401 71.6078 143.359 71.6078C143.317 71.6078 143.281 71.7121 143.281 71.8397C143.281 71.9659 143.246 72.0702 143.204 72.0702C143.161 72.0702 143.127 72.1745 143.127 72.3021C143.127 72.4284 143.091 72.5327 143.048 72.5327C143.007 72.5327 142.971 72.6713 142.971 72.8414C142.971 73.0116 142.937 73.1502 142.894 73.1502C142.852 73.1502 142.817 73.2531 142.817 73.3807C142.817 73.5083 142.781 73.6126 142.739 73.6126C142.698 73.6126 142.662 73.7169 142.662 73.8431C142.662 73.9707 142.627 74.075 142.585 74.075C142.542 74.075 142.508 74.1793 142.508 74.3056C142.508 74.4332 142.472 74.5375 142.429 74.5375C142.388 74.5375 142.352 74.6761 142.352 74.8462C142.352 75.015 142.318 75.1536 142.275 75.1536C142.233 75.1536 142.198 75.2579 142.198 75.3855C142.198 75.5131 142.162 75.616 142.12 75.616C142.078 75.616 142.043 75.7203 142.043 75.8479C142.043 75.9756 142.008 76.0799 141.966 76.0799C141.923 76.0799 141.889 76.1828 141.889 76.3104C141.889 76.438 141.853 76.5423 141.81 76.5423C141.769 76.5423 141.733 76.6795 141.733 76.8497C141.733 77.0198 141.699 77.1584 141.656 77.1584C141.613 77.1584 141.579 77.2627 141.579 77.3903C141.579 77.5166 141.543 77.6209 141.501 77.6209C141.459 77.6209 141.424 77.7251 141.424 77.8528C141.424 77.979 141.389 78.0833 141.347 78.0833C141.304 78.0833 141.268 78.1876 141.268 78.3152C141.268 78.4414 141.234 78.5457 141.191 78.5457C141.15 78.5457 141.114 78.65 141.114 78.7776C141.114 78.9052 141.08 79.0082 141.037 79.0082C140.994 79.0082 140.96 79.1481 140.96 79.3169C140.96 79.4871 140.924 79.6257 140.882 79.6257C140.84 79.6257 140.804 79.73 140.804 79.8562C140.804 79.9838 140.77 80.0881 140.727 80.0881C140.685 80.0881 140.649 80.1924 140.649 80.3186C140.649 80.4463 140.615 80.5505 140.572 80.5505C140.531 80.5505 140.495 80.6891 140.495 80.8593C140.495 81.0281 140.461 81.1667 140.418 81.1667C140.375 81.1667 140.339 81.271 140.339 81.3986C140.339 81.5262 140.305 81.6305 140.262 81.6305C140.221 81.6305 140.185 81.7334 140.185 81.861C140.185 81.9886 140.151 82.0929 140.108 82.0929C140.066 82.0929 140.03 82.1958 140.03 82.3235C140.03 82.4511 139.996 82.5554 139.953 82.5554C139.912 82.5554 139.876 82.6583 139.876 82.7859C139.876 82.9135 139.84 83.0178 139.799 83.0178C139.756 83.0178 139.72 83.155 139.72 83.3252C139.72 83.4953 139.686 83.6339 139.643 83.6339C139.602 83.6339 139.566 83.7382 139.566 83.8658C139.566 83.9921 139.531 84.0964 139.489 84.0964C139.447 84.0964 139.411 84.2007 139.411 84.3283C139.411 84.4545 139.376 84.5588 139.334 84.5588C139.293 84.5588 139.257 84.6974 139.257 84.8676C139.257 85.0377 139.221 85.1763 139.18 85.1763C139.137 85.1763 139.101 85.2806 139.101 85.4068C139.101 85.5345 139.067 85.6387 139.024 85.6387C138.983 85.6387 138.947 85.743 138.947 85.8693C138.947 85.9969 138.911 86.1012 138.87 86.1012C138.828 86.1012 138.792 86.2055 138.792 86.3317C138.792 86.4593 138.757 86.5636 138.715 86.5636C138.672 86.5636 138.638 86.6679 138.638 86.7955C138.638 86.9218 138.602 87.0261 138.561 87.0261C138.517 87.0261 138.482 87.1647 138.482 87.3348C138.482 87.5036 138.448 87.6436 138.405 87.6436C138.363 87.6436 138.328 87.7465 138.328 87.8741C138.328 88.0017 138.292 88.106 138.25 88.106C138.208 88.106 138.173 88.2089 138.173 88.3365C138.173 88.4642 138.138 88.5684 138.096 88.5684C138.053 88.5684 138.019 88.7057 138.019 88.8758C138.019 89.046 137.983 89.1846 137.94 89.1846C137.899 89.1846 137.863 89.2889 137.863 89.4165C137.863 89.5427 137.829 89.647 137.786 89.647C137.743 89.647 137.709 89.7513 137.709 89.8789V90.1094H142.629C147.968 90.1094 147.77 90.1259 147.77 89.6909C147.77 89.5811 147.806 89.4933 147.847 89.4933C147.89 89.4933 147.925 89.389 147.925 89.2614C147.925 89.1352 147.96 89.0309 148.002 89.0309C148.044 89.0309 148.08 88.9266 148.08 88.799C148.08 88.6727 148.115 88.5684 148.157 88.5684C148.199 88.5684 148.235 88.4642 148.235 88.3365C148.235 88.2089 148.269 88.106 148.312 88.106C148.353 88.106 148.389 87.966 148.389 87.7973C148.389 87.6271 148.423 87.4885 148.466 87.4885C148.509 87.4885 148.545 87.3842 148.545 87.258C148.545 87.1304 148.579 87.0261 148.622 87.0261C148.663 87.0261 148.699 86.9218 148.699 86.7942C148.699 86.6679 148.734 86.5636 148.776 86.5636C148.82 86.5636 148.854 86.4593 148.854 86.3317C148.854 86.2055 148.888 86.1012 148.931 86.1012C148.974 86.1012 149.008 85.9969 149.008 85.8693C149.008 85.743 149.044 85.6387 149.085 85.6387C149.128 85.6387 149.164 85.5345 149.164 85.4068C149.164 85.2806 149.198 85.1763 149.241 85.1763C149.283 85.1763 149.318 85.0377 149.318 84.8676C149.318 84.6974 149.353 84.5588 149.396 84.5588C149.437 84.5588 149.473 84.4545 149.473 84.3283C149.473 84.2007 149.508 84.0964 149.55 84.0964C149.593 84.0964 149.627 83.9921 149.627 83.8658C149.627 83.7382 149.663 83.6339 149.706 83.6339C149.747 83.6339 149.783 83.5296 149.783 83.4034C149.783 83.2758 149.817 83.1715 149.86 83.1715C149.902 83.1715 149.937 83.0672 149.937 82.9396C149.937 82.8133 149.973 82.7091 150.015 82.7091C150.056 82.7091 150.092 82.6048 150.092 82.4771C150.092 82.3509 150.127 82.2466 150.169 82.2466C150.212 82.2466 150.246 82.1423 150.246 82.0147C150.246 81.8885 150.282 81.7842 150.325 81.7842C150.366 81.7842 150.402 81.6456 150.402 81.4754C150.402 81.3066 150.436 81.1667 150.479 81.1667C150.521 81.1667 150.556 81.0638 150.556 80.9361C150.556 80.8085 150.592 80.7042 150.634 80.7042C150.676 80.7042 150.711 80.6013 150.711 80.4737C150.711 80.3461 150.746 80.2418 150.788 80.2418C150.831 80.2418 150.865 80.1375 150.865 80.0113C150.865 79.8836 150.901 79.7794 150.944 79.7794C150.985 79.7794 151.021 79.6751 151.021 79.5488C151.021 79.4212 151.055 79.3169 151.098 79.3169C151.141 79.3169 151.175 79.2126 151.175 79.085C151.175 78.9588 151.211 78.8545 151.253 78.8545C151.295 78.8545 151.33 78.7502 151.33 78.6226C151.33 78.4963 151.365 78.392 151.407 78.392C151.45 78.392 151.485 78.2535 151.485 78.0833C151.485 77.9145 151.52 77.7759 151.563 77.7759C151.604 77.7759 151.64 77.6716 151.64 77.5426C151.64 77.4164 151.674 77.3121 151.717 77.3121C151.76 77.3121 151.795 77.2092 151.795 77.0816C151.795 76.954 151.83 76.8497 151.872 76.8497C151.914 76.8497 151.95 76.7467 151.95 76.6191C151.95 76.4915 151.984 76.3872 152.027 76.3872C152.069 76.3872 152.105 76.2829 152.105 76.1567C152.105 76.0291 152.139 75.9248 152.182 75.9248C152.223 75.9248 152.259 75.8562 152.259 75.7711C152.259 75.6202 152.311 75.616 153.929 75.616C155.272 75.616 155.62 75.638 155.709 75.7258C155.835 75.8521 155.861 76.2335 155.742 76.2335C155.7 76.2335 155.665 76.3721 155.665 76.5423C155.665 76.7111 155.63 76.8497 155.587 76.8497C155.546 76.8497 155.51 76.954 155.51 77.0816C155.51 77.2092 155.476 77.3121 155.433 77.3121C155.39 77.3121 155.355 77.4164 155.355 77.544C155.355 77.6716 155.32 77.7759 155.277 77.7759C155.236 77.7759 155.2 77.9131 155.2 78.0833C155.2 78.2535 155.166 78.392 155.123 78.392C155.081 78.392 155.045 78.4963 155.045 78.6226C155.045 78.7502 155.011 78.8545 154.968 78.8545C154.927 78.8545 154.891 78.9588 154.891 79.0864C154.891 79.2126 154.856 79.3169 154.814 79.3169C154.771 79.3169 154.735 79.4555 154.735 79.6257C154.735 79.7945 154.701 79.933 154.658 79.933C154.617 79.933 154.581 80.073 154.581 80.2418C154.581 80.412 154.546 80.5505 154.504 80.5505C154.462 80.5505 154.426 80.6548 154.426 80.7825C154.426 80.9087 154.391 81.013 154.349 81.013C154.308 81.013 154.272 81.1173 154.272 81.2449C154.272 81.3711 154.236 81.4754 154.195 81.4754C154.152 81.4754 154.116 81.614 154.116 81.7842C154.116 81.953 154.082 82.0916 154.039 82.0916C153.998 82.0916 153.962 82.1958 153.962 82.3248C153.962 82.4511 153.926 82.5554 153.885 82.5554C153.843 82.5554 153.807 82.6583 153.807 82.7859C153.807 82.9135 153.772 83.0178 153.73 83.0178C153.688 83.0178 153.653 83.155 153.653 83.3252C153.653 83.4953 153.617 83.6339 153.576 83.6339C153.533 83.6339 153.497 83.7382 153.497 83.8658C153.497 83.9921 153.463 84.0964 153.42 84.0964C153.378 84.0964 153.343 84.235 153.343 84.4051C153.343 84.5739 153.307 84.7139 153.266 84.7139C153.222 84.7139 153.188 84.7825 153.188 84.8676C153.188 84.9526 153.222 85.0212 153.265 85.0212C153.307 85.0212 153.343 85.1612 153.343 85.33C153.343 85.5002 153.378 85.6387 153.42 85.6387C153.461 85.6387 153.497 85.743 153.497 85.8693C153.497 85.9969 153.533 86.1012 153.574 86.1012C153.617 86.1012 153.653 86.2055 153.653 86.3317C153.653 86.4593 153.687 86.5636 153.73 86.5636C153.772 86.5636 153.807 86.6322 153.807 86.7173C153.807 86.8024 153.843 86.8724 153.884 86.8724C153.926 86.8724 153.962 86.9753 153.962 87.1029C153.962 87.2305 153.997 87.3348 154.039 87.3348C154.082 87.3348 154.116 87.4034 154.116 87.4885C154.116 87.5736 154.152 87.6436 154.195 87.6436C154.236 87.6436 154.272 87.7328 154.272 87.8412C154.272 88.0648 154.431 88.2597 154.614 88.2597C154.682 88.2597 154.735 88.294 154.735 88.3365C154.735 88.3791 154.806 88.4134 154.891 88.4134C154.976 88.4134 155.045 88.4491 155.045 88.4902C155.045 88.5328 155.108 88.5684 155.183 88.5684C155.26 88.5684 155.371 88.6371 155.433 88.7221C155.493 88.8072 155.598 88.8758 155.665 88.8758C155.731 88.8758 155.836 88.9444 155.897 89.0309C155.958 89.1146 156.062 89.1846 156.129 89.1846C156.195 89.1846 156.3 89.2532 156.362 89.3383C156.422 89.4233 156.527 89.4933 156.594 89.4933C156.66 89.4933 156.765 89.5619 156.825 89.647C156.935 89.7993 157.026 89.8007 166.208 89.8007C172.337 89.8007 175.479 89.7746 175.479 89.7239C175.479 89.6827 175.582 89.647 175.71 89.647C175.838 89.647 175.943 89.6127 175.943 89.5702C175.943 89.529 176.047 89.4933 176.175 89.4933C176.303 89.4933 176.408 89.4576 176.408 89.4165C176.408 89.3739 176.477 89.3383 176.562 89.3383C176.647 89.3383 176.717 89.304 176.717 89.2614C176.717 89.2202 176.822 89.1846 176.948 89.1846C177.076 89.1846 177.182 89.1503 177.182 89.1077C177.182 89.0652 177.251 89.0309 177.336 89.0309C177.422 89.0309 177.49 88.9952 177.49 88.954C177.49 88.9115 177.559 88.8758 177.646 88.8758C177.731 88.8758 177.8 88.8415 177.8 88.799C177.8 88.7578 177.855 88.7221 177.922 88.7221C177.99 88.7221 178.178 88.5835 178.342 88.4134C178.506 88.2446 178.68 88.106 178.73 88.106C178.781 88.106 178.92 88.0017 179.038 87.8741C179.158 87.7465 179.294 87.6436 179.342 87.6436C179.473 87.6436 180.122 86.9712 180.122 86.8353C180.122 86.7708 180.157 86.7173 180.199 86.7173C180.242 86.7173 180.276 86.6556 180.276 86.5801C180.276 86.5046 180.347 86.3935 180.432 86.3331C180.517 86.2713 180.586 86.1588 180.586 86.0847C180.586 86.0079 180.622 85.9475 180.664 85.9475C180.706 85.9475 180.741 85.8432 180.741 85.7156C180.741 85.588 180.776 85.4837 180.818 85.4837C180.861 85.4837 180.895 85.3808 180.895 85.2532C180.895 85.1255 180.931 85.0212 180.974 85.0212C181.015 85.0212 181.051 84.9183 181.051 84.7907C181.051 84.6631 181.085 84.5588 181.128 84.5588C181.171 84.5588 181.206 84.4545 181.206 84.3283C181.206 84.2007 181.241 84.0964 181.283 84.0964C181.325 84.0964 181.36 83.9591 181.36 83.789C181.36 83.6188 181.395 83.4802 181.438 83.4802C181.48 83.4802 181.516 83.376 181.516 83.2483C181.516 83.1207 181.55 83.0178 181.593 83.0178C181.634 83.0178 181.67 82.9135 181.67 82.7859C181.67 82.6583 181.704 82.5554 181.747 82.5554C181.79 82.5554 181.825 82.4511 181.825 82.3235C181.825 82.1958 181.86 82.0916 181.903 82.0916C181.944 82.0916 181.98 81.9543 181.98 81.7842C181.98 81.614 182.014 81.4754 182.057 81.4754C182.099 81.4754 182.135 81.3711 182.135 81.2449C182.135 81.1173 182.169 81.013 182.212 81.013C182.253 81.013 182.289 80.9087 182.289 80.7825C182.289 80.6548 182.324 80.5492 182.366 80.5492C182.409 80.5492 182.445 80.412 182.445 80.2418C182.445 80.073 182.479 79.9344 182.522 79.9344C182.563 79.9344 182.599 79.8301 182.599 79.7025C182.599 79.5749 182.634 79.4706 182.676 79.4706C182.718 79.4706 182.754 79.3677 182.754 79.2401C182.754 79.1125 182.789 79.0082 182.831 79.0082C182.872 79.0082 182.908 78.9052 182.908 78.7776C182.908 78.65 182.944 78.5457 182.985 78.5457C183.028 78.5457 183.064 78.4085 183.064 78.2384C183.064 78.0682 183.098 77.9296 183.141 77.9296C183.183 77.9296 183.218 77.8253 183.218 77.6977C183.218 77.5715 183.254 77.4672 183.295 77.4672C183.339 77.4672 183.373 77.3629 183.373 77.2353C183.373 77.1076 183.408 77.0047 183.45 77.0047C183.493 77.0047 183.527 76.9004 183.527 76.7728C183.527 76.6452 183.563 76.5423 183.606 76.5423C183.647 76.5423 183.683 76.4037 183.683 76.2335C183.683 76.0634 183.717 75.9248 183.76 75.9248C183.802 75.9248 183.837 75.8205 183.837 75.6943C183.837 75.5666 183.873 75.4623 183.915 75.4623C183.957 75.4623 183.992 75.3581 183.992 75.2318C183.992 75.1042 184.027 74.9999 184.069 74.9999C184.112 74.9999 184.146 74.8956 184.146 74.768C184.146 74.6418 184.182 74.5375 184.225 74.5375C184.266 74.5375 184.302 74.3989 184.302 74.2287C184.302 74.0599 184.336 73.9213 184.379 73.9213C184.422 73.9213 184.456 73.8171 184.456 73.6881C184.456 73.5618 184.492 73.4575 184.534 73.4575C184.576 73.4575 184.611 73.3546 184.611 73.227C184.611 73.0994 184.646 72.9951 184.688 72.9951C184.731 72.9951 184.765 72.8908 184.765 72.7646C184.765 72.6369 184.801 72.5327 184.844 72.5327C184.885 72.5327 184.921 72.3954 184.921 72.2239C184.921 72.0551 184.955 71.9165 184.998 71.9165C185.041 71.9165 185.075 71.8122 185.075 71.6846C185.075 71.5584 185.111 71.4541 185.153 71.4541C185.195 71.4541 185.23 71.3498 185.23 71.2222C185.23 71.0946 185.265 70.9917 185.308 70.9917C185.35 70.9917 185.385 70.8517 185.385 70.6829C185.385 70.5127 185.42 70.3741 185.463 70.3741C185.504 70.3741 185.54 70.2699 185.54 70.1436C185.54 70.016 185.574 69.9117 185.617 69.9117C185.66 69.9117 185.694 69.8074 185.694 69.6812C185.694 69.5536 185.73 69.4493 185.773 69.4493C185.814 69.4493 185.85 69.345 185.85 69.2187C185.85 69.0911 185.884 68.9868 185.927 68.9868C185.969 68.9868 186.005 68.8482 186.005 68.6781C186.005 68.5093 186.039 68.3707 186.082 68.3707C186.123 68.3707 186.159 68.2664 186.159 68.1388C186.159 68.0112 186.194 67.9069 186.236 67.9069C186.279 67.9069 186.315 67.804 186.315 67.6764C186.315 67.5487 186.349 67.4445 186.392 67.4445C186.433 67.4445 186.469 67.3415 186.469 67.2139C186.469 67.0863 186.503 66.982 186.546 66.982C186.588 66.982 186.624 66.8448 186.624 66.6746C186.624 66.5045 186.659 66.3659 186.701 66.3659C186.742 66.3659 186.778 66.2616 186.778 66.134C186.778 66.0077 186.813 65.9035 186.855 65.9035C186.898 65.9035 186.934 65.7992 186.934 65.6715C186.934 65.5453 186.968 65.441 187.011 65.441C187.052 65.441 187.088 65.3024 187.088 65.1323C187.088 64.9621 187.122 64.8235 187.165 64.8235C187.207 64.8235 187.243 64.7192 187.243 64.593C187.243 64.4654 187.278 64.3611 187.32 64.3611C187.362 64.3611 187.397 64.2568 187.397 64.1305C187.397 64.0029 187.433 63.8986 187.474 63.8986C187.517 63.8986 187.553 63.7943 187.553 63.6681C187.553 63.5405 187.587 63.4362 187.63 63.4362C187.671 63.4362 187.707 63.3319 187.707 63.2043C187.707 63.078 187.743 62.9738 187.784 62.9738C187.827 62.9738 187.862 62.8352 187.862 62.665C187.862 62.4962 187.897 62.3576 187.939 62.3576C187.982 62.3576 188.016 62.2533 188.016 62.1257C188.016 61.9981 188.052 61.8938 188.093 61.8938C188.137 61.8938 188.172 61.7909 188.172 61.6633C188.172 61.5357 188.206 61.4314 188.249 61.4314C188.292 61.4314 188.326 61.2942 188.326 61.124C188.326 60.9538 188.362 60.8153 188.404 60.8153C188.446 60.8153 188.481 60.711 188.481 60.5833C188.481 60.4571 188.516 60.3528 188.558 60.3528C188.601 60.3528 188.635 60.2485 188.635 60.1209C188.635 59.9947 188.671 59.8904 188.714 59.8904C188.755 59.8904 188.791 59.7861 188.791 59.6585C188.791 59.5309 188.825 59.4279 188.868 59.4279C188.911 59.4279 188.945 59.2893 188.945 59.1192C188.945 58.949 188.981 58.8104 189.023 58.8104C189.065 58.8104 189.1 58.7061 189.1 58.5799C189.1 58.4523 189.135 58.348 189.178 58.348C189.22 58.348 189.255 58.2437 189.255 58.1175C189.255 57.9898 189.29 57.8856 189.333 57.8856C189.374 57.8856 189.41 57.747 189.41 57.5768C189.41 57.408 189.444 57.2694 189.487 57.2694C189.53 57.2694 189.564 57.1651 189.564 57.0375C189.564 56.9099 189.6 56.807 189.643 56.807C189.684 56.807 189.72 56.7027 189.72 56.5751C189.72 56.4475 189.754 56.3432 189.797 56.3432C189.839 56.3432 189.874 56.2403 189.874 56.1126C189.874 55.985 189.909 55.8807 189.952 55.8807C189.993 55.8807 190.029 55.7435 190.029 55.5734C190.029 55.4032 190.064 55.2646 190.106 55.2646C190.149 55.2646 190.183 55.1603 190.183 55.0327C190.183 54.9065 190.219 54.8022 190.262 54.8022C190.303 54.8022 190.339 54.6979 190.339 54.5703C190.339 54.444 190.373 54.3397 190.416 54.3397C190.458 54.3397 190.493 54.2354 190.493 54.1078C190.493 53.9816 190.529 53.8773 190.571 53.8773C190.612 53.8773 190.648 53.7387 190.648 53.5685C190.648 53.3984 190.683 53.2598 190.725 53.2598C190.768 53.2598 190.804 53.1569 190.804 53.0293C190.804 52.9016 190.838 52.7974 190.881 52.7974C190.922 52.7974 190.958 52.6931 190.958 52.5668C190.958 52.4392 190.992 52.3349 191.035 52.3349C191.077 52.3349 191.113 52.2306 191.113 52.1044C191.113 51.9768 191.148 51.8725 191.19 51.8725C191.232 51.8725 191.267 51.7339 191.267 51.5637C191.267 51.3949 191.302 51.2564 191.344 51.2564C191.387 51.2564 191.423 51.1521 191.423 51.0244C191.423 50.8968 191.457 50.7939 191.5 50.7939C191.541 50.7939 191.577 50.6896 191.577 50.562C191.577 50.4344 191.611 50.3315 191.654 50.3315C191.697 50.3315 191.732 50.2272 191.732 50.0982C191.732 49.972 191.767 49.8677 191.809 49.8677C191.851 49.8677 191.886 49.7304 191.886 49.5603C191.886 49.3901 191.921 49.2515 191.963 49.2515C192.006 49.2515 192.042 49.1472 192.042 49.0196C192.042 48.8934 192.076 48.7891 192.119 48.7891C192.16 48.7891 192.196 48.6848 192.196 48.5572C192.196 48.4309 192.232 48.3267 192.273 48.3267C192.316 48.3267 192.351 48.2224 192.351 48.0948C192.351 47.9685 192.386 47.8642 192.428 47.8642C192.47 47.8642 192.505 47.7256 192.505 47.5555C192.505 47.3853 192.54 47.2467 192.583 47.2467C192.625 47.2467 192.661 47.1424 192.661 47.0162C192.661 46.8886 192.695 46.7843 192.738 46.7843C192.779 46.7843 192.815 46.68 192.815 46.5537C192.815 46.4261 192.851 46.3218 192.892 46.3218C192.936 46.3218 192.971 46.1832 192.971 46.0131C192.971 45.8443 193.005 45.7057 193.048 45.7057C193.09 45.7057 193.125 45.6014 193.125 45.4738C193.125 45.3462 193.16 45.2433 193.203 45.2433C193.244 45.2433 193.28 45.139 193.28 45.0114C193.28 44.8838 193.314 44.7808 193.357 44.7808C193.4 44.7808 193.434 44.6765 193.434 44.5489C193.434 44.4213 193.47 44.317 193.513 44.317C193.554 44.317 193.59 44.1798 193.59 44.0096C193.59 43.8395 193.624 43.7009 193.667 43.7009C193.709 43.7009 193.744 43.5966 193.744 43.469C193.744 43.3427 193.779 43.2385 193.822 43.2385C193.863 43.2385 193.899 43.1342 193.899 43.0066C193.899 42.8803 193.934 42.776 193.976 42.776C194.019 42.776 194.053 42.6717 194.053 42.5441C194.053 42.4179 194.089 42.3136 194.132 42.3136C194.173 42.3136 194.209 42.175 194.209 42.0048C194.209 41.8347 194.243 41.6961 194.286 41.6961C194.328 41.6961 194.363 41.5918 194.363 41.4655C194.363 41.3379 194.399 41.2336 194.441 41.2336C194.482 41.2336 194.518 41.1294 194.518 41.0031C194.518 40.8755 194.553 40.7712 194.595 40.7712C194.638 40.7712 194.672 40.634 194.672 40.4625C194.672 40.2937 194.708 40.1551 194.751 40.1551C194.792 40.1551 194.828 40.0508 194.828 39.9232C194.828 39.7969 194.862 39.6926 194.905 39.6926C194.947 39.6926 194.982 39.5884 194.982 39.4607C194.982 39.3331 195.018 39.2302 195.06 39.2302C195.102 39.2302 195.137 39.0559 195.137 38.8446C195.137 38.6319 195.103 38.459 195.06 38.459C195.018 38.459 194.983 38.3547 194.983 38.2271C194.983 38.1009 194.947 37.9966 194.905 37.9966C194.864 37.9966 194.828 37.8923 194.828 37.7647C194.828 37.6371 194.793 37.5341 194.751 37.5341C194.708 37.5341 194.674 37.4298 194.674 37.3022C194.674 37.1746 194.638 37.0717 194.595 37.0717C194.554 37.0717 194.518 36.9317 194.518 36.7629C194.518 36.5928 194.484 36.4542 194.441 36.4542C194.399 36.4542 194.363 36.4007 194.363 36.3348C194.363 36.199 194.026 35.8381 193.899 35.8381C193.852 35.8381 193.573 35.5952 193.28 35.2974C192.986 35.001 192.699 34.7581 192.643 34.7581C192.587 34.7581 192.49 34.6895 192.428 34.6044C192.367 34.5194 192.269 34.4494 192.21 34.4494C192.152 34.4494 192.006 34.3465 191.886 34.2188C191.767 34.0912 191.614 33.9869 191.547 33.9869C191.478 33.9869 191.423 33.9526 191.423 33.9101C191.423 33.8607 183.786 33.8333 168.668 33.8333C153.548 33.8333 145.913 33.8593 145.913 33.9101ZM92.5085 59.0423C92.5085 59.0835 92.3695 59.1192 92.199 59.1192C92.0284 59.1192 91.8894 59.1535 91.8894 59.196C91.8894 59.2386 91.7848 59.2729 91.6569 59.2729C91.529 59.2729 91.4244 59.3086 91.4244 59.3497C91.4244 59.3923 91.3212 59.4279 91.1933 59.4279C91.0653 59.4279 90.9594 59.4622 90.9594 59.5048C90.9594 59.5459 90.9071 59.5816 90.8411 59.5816C90.775 59.5816 90.4806 59.8245 90.1862 60.1209C89.8932 60.4187 89.6139 60.6616 89.5671 60.6616C89.4406 60.6616 89.1035 61.0225 89.1035 61.1583C89.1035 61.2242 89.0677 61.2777 89.0251 61.2777C88.9838 61.2777 88.948 61.382 88.948 61.5096C88.948 61.6358 88.9136 61.7401 88.871 61.7401C88.8283 61.7401 88.7939 61.8444 88.7939 61.972C88.7939 62.0983 88.7582 62.2026 88.7155 62.2026C88.6743 62.2026 88.6385 62.3069 88.6385 62.4345C88.6385 62.5607 88.6041 62.665 88.5614 62.665C88.5188 62.665 88.4844 62.7693 88.4844 62.8969C88.4844 63.0245 88.4486 63.1274 88.406 63.1274C88.3647 63.1274 88.3289 63.2317 88.3289 63.3594C88.3289 63.487 88.2945 63.5899 88.2519 63.5899C88.2093 63.5899 88.1749 63.6942 88.1749 63.8218C88.1749 63.9494 88.1391 64.0537 88.0964 64.0537C88.0552 64.0537 88.0194 64.1566 88.0194 64.2842C88.0194 64.4118 87.985 64.5161 87.9424 64.5161C87.8997 64.5161 87.8653 64.6191 87.8653 64.7467C87.8653 64.8743 87.8295 64.9786 87.7869 64.9786C87.7456 64.9786 87.7098 65.0829 87.7098 65.2091C87.7098 65.3367 87.6755 65.441 87.6328 65.441C87.5902 65.441 87.5558 65.5453 87.5558 65.6715C87.5558 65.7992 87.52 65.9035 87.4773 65.9035C87.4361 65.9035 87.4003 66.0077 87.4003 66.134C87.4003 66.2616 87.3659 66.3659 87.3233 66.3659C87.2806 66.3659 87.2462 66.5045 87.2462 66.6746C87.2462 66.8434 87.2105 66.982 87.1678 66.982C87.1265 66.982 87.0908 67.0506 87.0908 67.1371C87.0908 67.2208 87.0564 67.2908 87.0137 67.2908C86.9711 67.2908 86.9367 67.3951 86.9367 67.5227C86.9367 67.6489 86.9009 67.7532 86.8583 67.7532C86.817 67.7532 86.7812 67.8918 86.7812 68.062C86.7812 68.2307 86.7468 68.3707 86.7042 68.3707C86.6615 68.3707 86.6258 68.4393 86.6258 68.5244C86.6258 68.6095 86.5914 68.6781 86.5487 68.6781C86.5074 68.6781 86.4717 68.7824 86.4717 68.91C86.4717 69.0362 86.4373 69.1405 86.3946 69.1405C86.352 69.1405 86.3162 69.2791 86.3162 69.4493C86.3162 69.6194 86.2818 69.758 86.2392 69.758C86.1979 69.758 86.1621 69.8623 86.1621 69.9886C86.1621 70.1162 86.1277 70.2205 86.0851 70.2205C86.0424 70.2205 86.0067 70.3247 86.0067 70.451C86.0067 70.5786 85.9723 70.6829 85.9296 70.6829C85.8883 70.6829 85.8526 70.7872 85.8526 70.9148C85.8526 71.0411 85.8182 71.1453 85.7755 71.1453C85.7329 71.1453 85.6971 71.2496 85.6971 71.3772C85.6971 71.5035 85.6627 71.6078 85.6201 71.6078C85.5788 71.6078 85.543 71.7121 85.543 71.8397C85.543 71.9659 85.5073 72.0702 85.466 72.0702C85.4233 72.0702 85.3876 72.1745 85.3876 72.3021C85.3876 72.4284 85.3532 72.5327 85.3105 72.5327C85.2693 72.5327 85.2335 72.6369 85.2335 72.7646C85.2335 72.8922 85.1977 72.9951 85.1564 72.9951C85.1138 72.9951 85.078 73.0994 85.078 73.227C85.078 73.3546 85.0436 73.4575 85.001 73.4575C84.9597 73.4575 84.9239 73.5618 84.9239 73.6894C84.9239 73.8171 84.8882 73.92 84.8455 73.92C84.8042 73.92 84.7685 74.0243 84.7685 74.1519C84.7685 74.2795 84.7341 74.3838 84.6914 74.3838C84.6488 74.3838 84.6144 74.4867 84.6144 74.6143C84.6144 74.7419 84.5786 74.8462 84.536 74.8462C84.4947 74.8462 84.4589 74.9491 84.4589 75.0768C84.4589 75.2044 84.4245 75.3087 84.3819 75.3087C84.3392 75.3087 84.3048 75.4129 84.3048 75.5392C84.3048 75.6668 84.2691 75.7711 84.2264 75.7711C84.1852 75.7711 84.1494 75.8754 84.1494 76.0016C84.1494 76.1292 84.115 76.2335 84.0723 76.2335C84.0297 76.2335 83.9953 76.3378 83.9953 76.4641C83.9953 76.5917 83.9595 76.696 83.9169 76.696C83.8756 76.696 83.8398 76.8003 83.8398 76.9265C83.8398 77.0541 83.8054 77.1584 83.7628 77.1584C83.7202 77.1584 83.6858 77.2627 83.6858 77.3903C83.6858 77.5166 83.65 77.6209 83.6073 77.6209C83.5661 77.6209 83.5303 77.7251 83.5303 77.8528C83.5303 77.979 83.4959 78.0833 83.4533 78.0833C83.4106 78.0833 83.3762 78.1876 83.3762 78.3152C83.3762 78.4414 83.3404 78.5457 83.2978 78.5457C83.2565 78.5457 83.2208 78.65 83.2208 78.7776C83.2208 78.9052 83.1864 79.0082 83.1437 79.0082C83.1011 79.0082 83.0667 79.1481 83.0667 79.3169C83.0667 79.4871 83.0309 79.6257 82.9882 79.6257C82.947 79.6257 82.9112 79.73 82.9112 79.8562C82.9112 79.9838 82.8768 80.0881 82.8342 80.0881C82.7915 80.0881 82.7571 80.1924 82.7571 80.3186C82.7571 80.4463 82.7214 80.5505 82.6787 80.5505C82.6374 80.5505 82.6017 80.6548 82.6017 80.7825C82.6017 80.9087 82.5673 81.013 82.5246 81.013C82.482 81.013 82.4476 81.1173 82.4476 81.2449C82.4476 81.3711 82.4118 81.4754 82.3692 81.4754C82.3279 81.4754 82.2921 81.5797 82.2921 81.7073C82.2921 81.8336 82.2577 81.9379 82.2151 81.9379C82.1724 81.9379 82.1367 82.0422 82.1367 82.1698C82.1367 82.296 82.1023 82.4003 82.0596 82.4003C82.0183 82.4003 81.9826 82.5046 81.9826 82.6322C81.9826 82.7598 81.9482 82.8627 81.9055 82.8627C81.8629 82.8627 81.8271 82.967 81.8271 83.0946C81.8271 83.2223 81.7927 83.3252 81.7501 83.3252C81.7088 83.3252 81.673 83.4295 81.673 83.5571C81.673 83.6847 81.6386 83.789 81.596 83.789C81.5533 83.789 81.5176 83.8919 81.5176 84.0195C81.5176 84.1471 81.4832 84.2514 81.4405 84.2514C81.3992 84.2514 81.3635 84.3543 81.3635 84.482C81.3635 84.6096 81.3291 84.7139 81.2864 84.7139C81.2438 84.7139 81.208 84.8168 81.208 84.9444C81.208 85.072 81.1736 85.1763 81.131 85.1763C81.0897 85.1763 81.0539 85.2806 81.0539 85.4068C81.0539 85.5345 81.0195 85.6387 80.9769 85.6387C80.9342 85.6387 80.8985 85.743 80.8985 85.8693C80.8985 85.9969 80.8641 86.1012 80.8214 86.1012C80.7802 86.1012 80.7444 86.2055 80.7444 86.3317C80.7444 86.4593 80.71 86.5636 80.6673 86.5636C80.6247 86.5636 80.5889 86.6679 80.5889 86.7955C80.5889 86.9218 80.5545 87.0261 80.5119 87.0261C80.4706 87.0261 80.4348 87.1304 80.4348 87.258C80.4348 87.3842 80.3991 87.4885 80.3578 87.4885C80.3152 87.4885 80.2794 87.5928 80.2794 87.7204C80.2794 87.8467 80.245 87.9509 80.2023 87.9509C80.1611 87.9509 80.1253 88.0552 80.1253 88.1828C80.1253 88.3091 80.0895 88.4134 80.0483 88.4134C80.0056 88.4134 79.9698 88.552 79.9698 88.7221C79.9698 88.8923 79.9354 89.0309 79.8928 89.0309C79.8501 89.0309 79.8157 89.0995 79.8157 89.1846C79.8157 89.2696 79.78 89.3383 79.7373 89.3383C79.6961 89.3383 79.6603 89.4782 79.6603 89.647C79.6603 89.8172 79.6259 89.9558 79.5832 89.9558C79.5406 89.9558 79.5062 90.06 79.5062 90.1863C79.5062 90.3139 79.4704 90.4182 79.4278 90.4182C79.3865 90.4182 79.3507 90.5225 79.3507 90.6501C79.3507 90.7763 79.3163 90.8806 79.2737 90.8806C79.2311 90.8806 79.1967 90.9849 79.1967 91.1125C79.1967 91.2388 79.1609 91.3431 79.1182 91.3431C79.077 91.3431 79.0412 91.4474 79.0412 91.575C79.0412 91.7012 79.0068 91.8055 78.9642 91.8055C78.9215 91.8055 78.8871 91.9098 78.8871 92.0374C78.8871 92.1637 78.8513 92.268 78.8087 92.268C78.7674 92.268 78.7317 92.3722 78.7317 92.4999C78.7317 92.6275 78.6973 92.7304 78.6546 92.7304C78.612 92.7304 78.5776 92.8347 78.5776 92.9623C78.5776 93.0899 78.5418 93.1928 78.4991 93.1928C78.4579 93.1928 78.4221 93.2971 78.4221 93.4247C78.4221 93.5523 78.3877 93.6566 78.3451 93.6566C78.3024 93.6566 78.268 93.7596 78.268 93.8872C78.268 94.0148 78.2323 94.1191 78.1896 94.1191C78.1483 94.1191 78.1126 94.222 78.1126 94.3496C78.1126 94.4772 78.0782 94.5815 78.0355 94.5815C77.9929 94.5815 77.9585 94.6844 77.9585 94.812C77.9585 94.9397 77.9227 95.044 77.8801 95.044C77.8388 95.044 77.803 95.1482 77.803 95.2745C77.803 95.4021 77.7686 95.5064 77.726 95.5064C77.6833 95.5064 77.6489 95.6107 77.6489 95.7369C77.6489 95.8645 77.6132 95.9688 77.5705 95.9688C77.5292 95.9688 77.4935 96.0731 77.4935 96.1994C77.4935 96.327 77.4591 96.4313 77.4164 96.4313C77.3738 96.4313 77.338 96.5356 77.338 96.6618C77.338 96.7894 77.3036 96.8951 77.261 96.8951C77.2197 96.8951 77.1839 96.998 77.1839 97.1256C77.1839 97.2519 77.1495 97.3561 77.1069 97.3561C77.0642 97.3561 77.0285 97.4604 77.0285 97.5881C77.0285 97.7143 76.9941 97.8186 76.9514 97.8186C76.9101 97.8186 76.8744 97.9229 76.8744 98.0505C76.8744 98.1767 76.84 98.281 76.7973 98.281C76.7547 98.281 76.7189 98.3853 76.7189 98.5129C76.7189 98.6405 76.6845 98.7435 76.6419 98.7435C76.6006 98.7435 76.5648 98.8478 76.5648 98.9754C76.5648 99.103 76.5304 99.2059 76.4878 99.2059C76.4451 99.2059 76.4094 99.3102 76.4094 99.4378C76.4094 99.5654 76.375 99.6697 76.3323 99.6697C76.2911 99.6697 76.2553 99.8069 76.2553 99.9771C76.2553 100.147 76.2209 100.286 76.1782 100.286C76.1356 100.286 76.0998 100.39 76.0998 100.518C76.0998 100.644 76.0654 100.748 76.0228 100.748C75.9815 100.748 75.9457 100.853 75.9457 100.98C75.9457 101.106 75.9113 101.211 75.8687 101.211C75.8261 101.211 75.7903 101.315 75.7903 101.443C75.7903 101.569 75.7559 101.673 75.7132 101.673C75.672 101.673 75.6362 101.777 75.6362 101.905C75.6362 102.031 75.6004 102.136 75.5592 102.136C75.5165 102.136 75.4807 102.24 75.4807 102.368C75.4807 102.494 75.4463 102.598 75.4037 102.598C75.3624 102.598 75.3266 102.702 75.3266 102.83C75.3266 102.958 75.2909 103.06 75.2496 103.06C75.207 103.06 75.1712 103.165 75.1712 103.292C75.1712 103.42 75.1368 103.523 75.0941 103.523C75.0515 103.523 75.0171 103.627 75.0171 103.756C75.0171 103.882 74.9813 103.987 74.9387 103.987C74.8974 103.987 74.8616 104.09 74.8616 104.217C74.8616 104.345 74.8272 104.449 74.7846 104.449C74.742 104.449 74.7076 104.552 74.7076 104.68C74.7076 104.807 74.6718 104.912 74.6291 104.912C74.5879 104.912 74.5521 105.016 74.5521 105.142C74.5521 105.27 74.5177 105.374 74.4751 105.374C74.4324 105.374 74.398 105.478 74.398 105.605C74.398 105.732 74.3622 105.836 74.3196 105.836C74.2783 105.836 74.2426 105.941 74.2426 106.067C74.2426 106.195 74.2082 106.299 74.1655 106.299C74.1229 106.299 74.0885 106.403 74.0885 106.531C74.0885 106.657 74.0527 106.761 74.01 106.761C73.9688 106.761 73.933 106.866 73.933 106.993C73.933 107.12 73.8986 107.224 73.856 107.224C73.8133 107.224 73.7789 107.328 73.7789 107.456C73.7789 107.582 73.7432 107.686 73.7005 107.686C73.6592 107.686 73.6235 107.791 73.6235 107.918C73.6235 108.046 73.5891 108.149 73.5464 108.149C73.5038 108.149 73.4694 108.253 73.4694 108.381C73.4694 108.508 73.4336 108.611 73.391 108.611C73.3497 108.611 73.3139 108.715 73.3139 108.843C73.3139 108.971 73.2795 109.075 73.2369 109.075C73.1942 109.075 73.1598 109.212 73.1598 109.382C73.1598 109.552 73.1241 109.691 73.0814 109.691C73.0401 109.691 73.0044 109.83 73.0044 110C73.0044 110.169 72.97 110.307 72.9273 110.307C72.8833 110.307 72.8503 110.539 72.8503 110.848C72.8503 111.155 72.8159 111.387 72.7719 111.387C72.7237 111.387 72.6948 111.823 72.6948 112.544C72.6948 113.263 72.7237 113.699 72.7719 113.699C72.8145 113.699 72.8503 113.761 72.8503 113.837C72.8503 113.912 72.9191 114.025 73.0044 114.085C73.0897 114.147 73.1598 114.25 73.1598 114.317C73.1598 114.383 73.2286 114.487 73.3139 114.547C73.3992 114.609 73.4694 114.72 73.4694 114.796C73.4694 114.871 73.5038 114.933 73.5464 114.933C73.5877 114.933 73.6235 114.988 73.6235 115.052C73.6235 115.206 73.9674 115.55 74.1229 115.55C74.1889 115.55 74.2426 115.585 74.2426 115.627C74.2426 115.668 74.3471 115.704 74.4751 115.704C74.603 115.704 74.7076 115.738 74.7076 115.781C74.7076 115.824 74.7763 115.858 74.8616 115.858C74.9469 115.858 75.0171 115.893 75.0171 115.935C75.0171 115.977 75.0859 116.013 75.1712 116.013C75.2565 116.013 75.3266 116.047 75.3266 116.09C75.3266 116.14 83.0405 116.167 98.3128 116.167C113.586 116.167 121.3 116.14 121.3 116.09C121.3 116.046 121.533 116.013 121.842 116.013C122.152 116.013 122.384 115.98 122.384 115.936C122.384 115.891 122.642 115.858 123.004 115.858C123.364 115.858 123.623 115.826 123.623 115.781C123.623 115.74 123.691 115.704 123.777 115.704C123.862 115.704 123.932 115.67 123.932 115.627C123.932 115.585 123.994 115.55 124.07 115.55C124.145 115.55 124.257 115.48 124.319 115.395C124.381 115.31 124.492 115.242 124.568 115.242C124.643 115.242 124.705 115.207 124.705 115.165C124.705 115.122 124.774 115.088 124.861 115.088C124.946 115.088 125.015 115.052 125.015 115.01C125.015 114.969 125.077 114.933 125.152 114.933C125.228 114.933 125.341 114.864 125.403 114.779C125.463 114.694 125.562 114.624 125.62 114.624C125.679 114.624 125.825 114.521 125.944 114.394C126.063 114.266 126.201 114.162 126.249 114.162C126.297 114.162 126.457 114.042 126.604 113.896C126.81 113.69 126.872 113.563 126.872 113.355C126.872 113.205 126.908 113.083 126.951 113.083C126.992 113.083 127.028 113.015 127.028 112.928C127.028 112.844 127.062 112.774 127.105 112.774C127.147 112.774 127.183 112.636 127.183 112.466C127.183 112.297 127.218 112.158 127.26 112.158C127.301 112.158 127.337 112.054 127.337 111.926C127.337 111.799 127.372 111.696 127.414 111.696C127.457 111.696 127.493 111.592 127.493 111.464C127.493 111.336 127.527 111.232 127.57 111.232C127.611 111.232 127.647 111.129 127.647 111.002C127.647 110.874 127.681 110.77 127.724 110.77C127.766 110.77 127.802 110.667 127.802 110.539C127.802 110.411 127.837 110.307 127.879 110.307C127.921 110.307 127.956 110.204 127.956 110.077C127.956 109.949 127.992 109.845 128.033 109.845C128.076 109.845 128.112 109.74 128.112 109.614C128.112 109.487 128.146 109.382 128.189 109.382C128.23 109.382 128.266 109.278 128.266 109.152C128.266 109.024 128.302 108.92 128.343 108.92C128.386 108.92 128.421 108.816 128.421 108.689C128.421 108.562 128.456 108.457 128.498 108.457C128.54 108.457 128.575 108.353 128.575 108.227C128.575 108.099 128.611 107.994 128.652 107.994C128.695 107.994 128.731 107.891 128.731 107.763C128.731 107.637 128.765 107.533 128.808 107.533C128.849 107.533 128.885 107.428 128.885 107.301C128.885 107.174 128.921 107.07 128.962 107.07C129.005 107.07 129.04 106.966 129.04 106.838C129.04 106.712 129.075 106.608 129.117 106.608C129.159 106.608 129.194 106.503 129.194 106.376C129.194 106.248 129.23 106.145 129.272 106.145C129.316 106.145 129.35 106.005 129.35 105.836C129.35 105.666 129.384 105.528 129.427 105.528C129.47 105.528 129.504 105.423 129.504 105.297C129.504 105.17 129.54 105.065 129.582 105.065C129.624 105.065 129.659 104.961 129.659 104.835C129.659 104.707 129.694 104.603 129.737 104.603C129.779 104.603 129.814 104.499 129.814 104.371C129.814 104.245 129.849 104.14 129.892 104.14C129.933 104.14 129.969 104.036 129.969 103.909C129.969 103.782 130.003 103.678 130.046 103.678C130.089 103.678 130.123 103.574 130.123 103.446C130.123 103.32 130.159 103.216 130.202 103.216C130.243 103.216 130.279 103.147 130.279 103.06C130.279 102.908 130.329 102.907 145.448 102.907C160.567 102.907 160.618 102.907 160.618 102.753C160.618 102.668 160.653 102.598 160.695 102.598C160.738 102.598 160.772 102.494 160.772 102.368C160.772 102.24 160.808 102.136 160.851 102.136C160.892 102.136 160.928 102.067 160.928 101.982C160.928 101.897 160.962 101.828 161.005 101.828C161.047 101.828 161.082 101.724 161.082 101.596C161.082 101.469 161.118 101.366 161.16 101.366C161.201 101.366 161.237 101.261 161.237 101.132C161.237 101.006 161.272 100.902 161.314 100.902C161.357 100.902 161.391 100.799 161.391 100.671C161.391 100.544 161.427 100.44 161.47 100.44C161.511 100.44 161.547 100.337 161.547 100.209C161.547 100.081 161.581 99.9771 161.624 99.9771C161.666 99.9771 161.702 99.8728 161.702 99.7466C161.702 99.6189 161.737 99.5147 161.779 99.5147C161.821 99.5147 161.856 99.4104 161.856 99.2841C161.856 99.1565 161.891 99.0522 161.933 99.0522C161.976 99.0522 162.012 98.9479 162.012 98.8217C162.012 98.6941 162.046 98.5898 162.089 98.5898C162.13 98.5898 162.166 98.5212 162.166 98.4361C162.166 98.351 162.2 98.281 162.243 98.281C162.286 98.281 162.321 98.1767 162.321 98.0505C162.321 97.9229 162.356 97.8186 162.398 97.8186C162.44 97.8186 162.475 97.7143 162.475 97.5881C162.475 97.4604 162.51 97.3561 162.552 97.3561C162.595 97.3561 162.631 97.2519 162.631 97.1256C162.631 96.998 162.665 96.8937 162.708 96.8937C162.749 96.8937 162.785 96.7894 162.785 96.6618C162.785 96.5356 162.821 96.4313 162.862 96.4313C162.905 96.4313 162.94 96.327 162.94 96.1994C162.94 96.0731 162.975 95.9688 163.017 95.9688C163.059 95.9688 163.095 95.8645 163.095 95.7369C163.095 95.6107 163.129 95.5064 163.172 95.5064C163.214 95.5064 163.25 95.4021 163.25 95.2745C163.25 95.1482 163.284 95.044 163.327 95.044C163.368 95.044 163.404 94.9753 163.404 94.8889C163.404 94.8052 163.44 94.7352 163.481 94.7352C163.525 94.7352 163.56 94.6309 163.56 94.5047C163.56 94.3771 163.594 94.2714 163.637 94.2714C163.679 94.2714 163.714 94.1685 163.714 94.0409V93.8103H93.4371V94.0409C93.4371 94.1685 93.4027 94.2728 93.3601 94.2728C93.3174 94.2728 93.283 94.3771 93.283 94.5047C93.283 94.6309 93.2473 94.7352 93.2046 94.7352C93.1634 94.7352 93.1276 94.8738 93.1276 95.044C93.1276 95.2127 93.0932 95.3513 93.0505 95.3513C93.0079 95.3513 92.9735 95.4556 92.9735 95.5832C92.9735 95.7109 92.9377 95.8151 92.8951 95.8151C92.8538 95.8151 92.818 95.9524 92.818 96.1225C92.818 96.2927 92.7836 96.4313 92.741 96.4313C92.6984 96.4313 92.664 96.5356 92.664 96.6618C92.664 96.7894 92.6282 96.8951 92.5855 96.8951C92.5443 96.8951 92.5085 97.0323 92.5085 97.2025C92.5085 97.3712 92.4741 97.5098 92.4315 97.5098C92.3888 97.5098 92.3544 97.6141 92.3544 97.7417C92.3544 97.8694 92.3186 97.9737 92.276 97.9737C92.2347 97.9737 92.199 98.1109 92.199 98.281C92.199 98.4512 92.1646 98.5898 92.1219 98.5898C92.0793 98.5898 92.0449 98.6941 92.0449 98.8217C92.0449 98.9479 92.0091 99.0522 91.9664 99.0522C91.9252 99.0522 91.8894 99.1908 91.8894 99.361C91.8894 99.5297 91.855 99.6683 91.8124 99.6683C91.7697 99.6683 91.7339 99.7726 91.7339 99.9016C91.7339 100.028 91.6995 100.132 91.6569 100.132C91.6156 100.132 91.5799 100.235 91.5799 100.363C91.5799 100.49 91.5455 100.595 91.5028 100.595C91.4602 100.595 91.4244 100.732 91.4244 100.902C91.4244 101.072 91.39 101.211 91.3474 101.211C91.3061 101.211 91.2703 101.315 91.2703 101.443C91.2703 101.569 91.2359 101.673 91.1933 101.673C91.1506 101.673 91.1149 101.812 91.1149 101.982C91.1149 102.151 91.0805 102.291 91.0378 102.291C90.9965 102.291 90.9608 102.395 90.9608 102.521C90.9608 102.649 90.9264 102.753 90.8837 102.753C90.8411 102.753 90.8053 102.89 90.8053 103.06C90.8053 103.231 90.7709 103.369 90.7283 103.369C90.7078 103.369 90.6882 103.377 90.6738 103.392C90.6593 103.406 90.6512 103.426 90.6512 103.446C90.6512 103.498 95.7856 103.523 105.899 103.523C116.011 103.523 121.145 103.55 121.145 103.601C121.145 103.642 121.111 103.678 121.068 103.678C121.027 103.678 120.991 103.747 120.991 103.832C120.991 103.917 120.956 103.987 120.914 103.987C120.871 103.987 120.835 104.055 120.835 104.14C120.835 104.225 120.801 104.294 120.758 104.294C120.717 104.294 120.681 104.363 120.681 104.449C120.681 104.534 120.647 104.603 120.604 104.603C120.562 104.603 120.526 104.671 120.526 104.757C120.526 104.842 120.491 104.912 120.449 104.912C120.408 104.912 120.372 104.98 120.372 105.065C120.372 105.15 120.337 105.22 120.295 105.22C120.252 105.22 120.216 105.323 120.216 105.451C120.216 105.579 120.182 105.683 120.139 105.683C120.098 105.683 120.062 105.751 120.062 105.836C120.062 105.922 120.026 105.99 119.985 105.99C119.942 105.99 119.907 106.059 119.907 106.145C119.907 106.229 119.872 106.299 119.83 106.299C119.788 106.299 119.753 106.368 119.753 106.453C119.753 106.538 119.717 106.608 119.676 106.608C119.633 106.608 119.597 106.712 119.597 106.838C119.597 106.966 119.563 107.07 119.52 107.07C119.479 107.07 119.443 107.139 119.443 107.224C119.443 107.309 119.409 107.379 119.366 107.379C119.323 107.379 119.288 107.482 119.288 107.609C119.288 107.737 119.253 107.841 119.211 107.841C119.169 107.841 119.134 107.91 119.134 107.995C119.134 108.114 119.081 108.149 118.901 108.149C118.773 108.149 118.669 108.184 118.669 108.227C118.669 108.268 118.564 108.304 118.436 108.304C118.309 108.304 118.205 108.338 118.205 108.381C118.205 108.422 118.1 108.457 117.971 108.457C117.844 108.457 117.74 108.492 117.74 108.534C117.74 108.584 116.837 108.611 115.186 108.611C113.536 108.611 112.632 108.584 112.632 108.534C112.632 108.483 109.536 108.457 103.499 108.457C97.4626 108.457 94.3658 108.431 94.3658 108.381C94.3658 108.33 92.5979 108.304 89.2149 108.304H84.0655L83.8756 108.114C83.683 107.922 83.5991 107.379 83.7628 107.379C83.8041 107.379 83.8398 107.239 83.8398 107.07C83.8398 106.9 83.8742 106.761 83.9169 106.761C83.9595 106.761 83.9953 106.657 83.9953 106.529C83.9953 106.403 84.0297 106.299 84.0723 106.299C84.1136 106.299 84.1494 106.195 84.1494 106.067C84.1494 105.941 84.1838 105.836 84.2264 105.836C84.2691 105.836 84.3048 105.732 84.3048 105.605C84.3048 105.478 84.3392 105.374 84.3819 105.374C84.4232 105.374 84.4589 105.27 84.4589 105.142C84.4589 105.016 84.4947 104.912 84.536 104.912C84.5786 104.912 84.6144 104.773 84.6144 104.603C84.6144 104.433 84.6488 104.294 84.6914 104.294C84.7327 104.294 84.7685 104.191 84.7685 104.064C84.7685 103.936 84.8042 103.832 84.8455 103.832C84.8882 103.832 84.9239 103.727 84.9239 103.601C84.9239 103.474 84.9583 103.369 85.001 103.369C85.0423 103.369 85.078 103.265 85.078 103.139C85.078 103.011 85.1138 102.907 85.1564 102.907C85.1977 102.907 85.2335 102.802 85.2335 102.675C85.2335 102.549 85.2679 102.444 85.3105 102.444C85.3532 102.444 85.3876 102.34 85.3876 102.212C85.3876 102.086 85.4233 101.982 85.466 101.982C85.5073 101.982 85.543 101.878 85.543 101.75C85.543 101.624 85.5774 101.519 85.6201 101.519C85.6627 101.519 85.6971 101.415 85.6971 101.288C85.6971 101.161 85.7329 101.057 85.7755 101.057C85.8168 101.057 85.8526 100.953 85.8526 100.825C85.8526 100.698 85.887 100.595 85.9296 100.595C85.9723 100.595 86.0067 100.49 86.0067 100.363C86.0067 100.235 86.0424 100.132 86.0851 100.132C86.1264 100.132 86.1621 100.028 86.1621 99.9002C86.1621 99.7726 86.1965 99.6683 86.2392 99.6683C86.2818 99.6683 86.3162 99.5654 86.3162 99.4378C86.3162 99.3102 86.352 99.2059 86.3946 99.2059C86.4359 99.2059 86.4717 99.103 86.4717 98.9754C86.4717 98.8478 86.5061 98.7435 86.5487 98.7435C86.5914 98.7435 86.6258 98.6405 86.6258 98.5129C86.6258 98.3853 86.6615 98.281 86.7042 98.281C86.7454 98.281 86.7812 98.1767 86.7812 98.0505C86.7812 97.9229 86.8156 97.8186 86.8583 97.8186C86.9009 97.8186 86.9353 97.6814 86.9353 97.5112C86.9353 97.3411 86.9711 97.2025 87.0137 97.2025C87.055 97.2025 87.0908 97.0982 87.0908 96.9706C87.0908 96.8429 87.1252 96.74 87.1678 96.74C87.2105 96.74 87.2448 96.6357 87.2448 96.5081C87.2448 96.3805 87.2806 96.2776 87.3233 96.2776C87.3645 96.2776 87.4003 96.1733 87.4003 96.0457C87.4003 95.9181 87.4347 95.8138 87.4773 95.8138C87.52 95.8138 87.5558 95.7109 87.5558 95.5832C87.5558 95.4556 87.5902 95.3513 87.6328 95.3513C87.6741 95.3513 87.7098 95.2484 87.7098 95.1208C87.7098 94.9932 87.7442 94.8889 87.7869 94.8889C87.8295 94.8889 87.8639 94.786 87.8639 94.6584C87.8639 94.5307 87.8997 94.4265 87.9424 94.4265C87.9836 94.4265 88.0194 94.3235 88.0194 94.1959C88.0194 94.0683 88.0538 93.964 88.0964 93.964C88.1391 93.964 88.1749 93.8597 88.1749 93.7335C88.1749 93.6059 88.2093 93.5016 88.2519 93.5016C88.2932 93.5016 88.3289 93.3973 88.3289 93.271C88.3289 93.1434 88.3633 93.0391 88.406 93.0391C88.4486 93.0391 88.4844 92.9349 88.4844 92.8072C88.4844 92.681 88.5188 92.5767 88.5614 92.5767C88.6027 92.5767 88.6385 92.4724 88.6385 92.3448C88.6385 92.2185 88.6729 92.1143 88.7155 92.1143C88.7582 92.1143 88.7939 92.01 88.7939 91.8824C88.7939 91.7561 88.8283 91.6518 88.871 91.6518C88.9123 91.6518 88.948 91.5475 88.948 91.4199C88.948 91.2937 88.9824 91.1894 89.0251 91.1894C89.0677 91.1894 89.1035 91.0851 89.1035 90.9575C89.1035 90.8299 89.1379 90.7269 89.1805 90.7269C89.2218 90.7269 89.2576 90.6227 89.2576 90.495C89.2576 90.3674 89.2933 90.2645 89.3346 90.2645C89.3773 90.2645 89.413 90.1602 89.413 90.0326C89.413 89.905 89.4474 89.8007 89.4901 89.8007C89.5314 89.8007 89.5671 89.6635 89.5671 89.4933C89.5671 89.3232 89.6029 89.1846 89.6442 89.1846C89.6868 89.1846 89.7226 89.0803 89.7226 88.9527C89.7226 88.8264 89.757 88.7221 89.7996 88.7221C89.8409 88.7221 89.8767 88.6178 89.8767 88.4902C89.8767 88.364 89.9124 88.2597 89.9537 88.2597C89.9964 88.2597 90.0321 88.1554 90.0321 88.0278C90.0321 87.9015 90.0665 87.7973 90.1092 87.7973C90.1518 87.7973 90.1862 87.693 90.1862 87.5653C90.1862 87.4391 90.222 87.3348 90.2633 87.3348C90.3073 87.3348 90.3417 87.2305 90.3417 87.1029C90.3417 86.9753 90.3761 86.8724 90.4187 86.8724C90.4614 86.8724 90.4958 86.7681 90.4958 86.6405C90.4958 86.5129 90.5315 86.4099 90.5742 86.4099C90.6155 86.4099 90.6512 86.3056 90.6512 86.178C90.6512 86.0504 90.6856 85.9461 90.7283 85.9461C90.7709 85.9461 90.8053 85.8432 90.8053 85.7156C90.8053 85.588 90.8411 85.4837 90.8837 85.4837C90.925 85.4837 90.9608 85.3808 90.9608 85.2532C90.9608 85.1255 90.9952 85.0212 91.0378 85.0212C91.0805 85.0212 91.1149 84.9183 91.1149 84.7907C91.1149 84.6631 91.1506 84.5588 91.1933 84.5588C91.2345 84.5588 91.2703 84.4545 91.2703 84.3283C91.2703 84.2007 91.3047 84.0964 91.3474 84.0964C91.39 84.0964 91.4244 83.9921 91.4244 83.8658C91.4244 83.7382 91.4602 83.6339 91.5028 83.6339C91.5441 83.6339 91.5799 83.5296 91.5799 83.4034C91.5799 83.2758 91.6143 83.1715 91.6569 83.1715C91.6995 83.1715 91.7339 83.0672 91.7339 82.9396C91.7339 82.8133 91.7697 82.7091 91.8124 82.7091C91.8536 82.7091 91.8894 82.5705 91.8894 82.4003C91.8894 82.2315 91.9238 82.0929 91.9664 82.0929C92.0091 82.0929 92.0449 81.9886 92.0449 81.861C92.0449 81.7334 92.0793 81.6291 92.1219 81.6291C92.1632 81.6291 92.199 81.5262 92.199 81.3986C92.199 81.271 92.2333 81.1667 92.276 81.1667C92.3186 81.1667 92.353 81.0638 92.353 80.9361C92.353 80.8085 92.3888 80.7042 92.4315 80.7042C92.4727 80.7042 92.5085 80.6013 92.5085 80.4737C92.5085 80.3461 92.5429 80.2418 92.5855 80.2418C92.6282 80.2418 92.6626 80.1375 92.6626 80.0113C92.6626 79.8836 92.6984 79.7794 92.741 79.7794C92.7823 79.7794 92.818 79.6751 92.818 79.5488C92.818 79.4212 92.8524 79.3169 92.8951 79.3169C92.9377 79.3169 92.9735 79.2126 92.9735 79.085C92.9735 78.9588 93.0079 78.8545 93.0505 78.8545C93.0918 78.8545 93.1276 78.7502 93.1276 78.6226C93.1276 78.4963 93.162 78.392 93.2046 78.392C93.2473 78.392 93.283 78.2878 93.283 78.1601C93.283 78.0339 93.3174 77.9296 93.3601 77.9296C93.4014 77.9296 93.4371 77.8253 93.4371 77.6977C93.4371 77.5715 93.4715 77.4672 93.5142 77.4672C93.5568 77.4672 93.5926 77.3629 93.5926 77.2353C93.5926 77.1076 93.627 77.0047 93.6696 77.0047C93.7109 77.0047 93.7467 76.9004 93.7467 76.7728C93.7467 76.6452 93.7824 76.5423 93.8237 76.5423C93.8664 76.5423 93.9021 76.438 93.9021 76.3104C93.9021 76.1828 93.9365 76.0799 93.9792 76.0799C94.0205 76.0799 94.0562 75.9399 94.0562 75.7711C94.0562 75.6009 94.092 75.4623 94.1333 75.4623C94.1759 75.4623 94.2117 75.3581 94.2117 75.2318C94.2117 75.1042 94.2461 74.9999 94.2887 74.9999C94.33 74.9999 94.3658 74.8956 94.3658 74.768C94.3658 74.6418 94.4002 74.5375 94.4428 74.5375C94.4855 74.5375 94.5212 74.4332 94.5212 74.3056C94.5212 74.1793 94.5556 74.075 94.5983 74.075C94.6395 74.075 94.6753 73.9707 94.6753 73.8431C94.6753 73.7169 94.7111 73.6126 94.7524 73.6126C94.795 73.6126 94.8308 73.5083 94.8308 73.3807C94.8308 73.2531 94.8652 73.1502 94.9078 73.1502C94.9505 73.1502 94.9849 73.0459 94.9849 72.9182C94.9849 72.7906 95.0206 72.6877 95.0619 72.6877C95.1059 72.6877 95.1403 72.5834 95.1403 72.4558C95.1403 72.3282 95.1747 72.2239 95.2174 72.2239C95.26 72.2239 95.2944 72.121 95.2944 71.9934C95.2944 71.8658 95.3302 71.7615 95.3728 71.7615C95.4141 71.7615 95.4499 71.6585 95.4499 71.5309C95.4499 71.4033 95.4843 71.299 95.5269 71.299C95.5696 71.299 95.604 71.1947 95.604 71.0685C95.604 70.9409 95.6397 70.8366 95.6824 70.8366C95.7236 70.8366 95.7594 70.7323 95.7594 70.6061C95.7594 70.4784 95.7938 70.3741 95.8365 70.3741C95.8791 70.3741 95.9135 70.2699 95.9135 70.1436C95.9135 70.016 95.9493 69.9117 95.9919 69.9117C96.0332 69.9117 96.069 69.8074 96.069 69.6812C96.069 69.5536 96.1034 69.4493 96.146 69.4493C96.1886 69.4493 96.223 69.3107 96.223 69.1405C96.223 68.9717 96.2588 68.8331 96.3015 68.8331C96.3427 68.8331 96.3785 68.7289 96.3785 68.6012C96.3785 68.4736 96.4129 68.3707 96.4555 68.3707C96.4982 68.3707 96.5326 68.2664 96.5326 68.1388C96.5326 68.0112 96.5684 67.9069 96.611 67.9069C96.6523 67.9069 96.6881 67.804 96.6881 67.6764C96.6881 67.5487 96.7224 67.4445 96.7651 67.4445C96.8077 67.4445 96.8421 67.3758 96.8421 67.2908C96.8421 67.2057 96.8779 67.1371 96.9206 67.1371C96.9618 67.1371 96.9976 67.0685 96.9976 66.982C96.9976 66.8983 97.032 66.8283 97.0746 66.8283C97.1173 66.8283 97.1517 66.7666 97.1517 66.6911C97.1517 66.6156 97.2218 66.5045 97.3071 66.4427C97.3924 66.3824 97.4626 66.2863 97.4626 66.23C97.4626 66.1738 97.5479 66.042 97.6525 65.9378C97.7983 65.7923 97.9235 65.7484 98.1931 65.7484C98.3871 65.7484 98.5453 65.7141 98.5453 65.6715C98.5453 65.6221 99.3089 65.5947 100.679 65.5947C102.426 65.5947 102.834 65.6153 102.924 65.7045C103.051 65.8307 103.072 66.0571 102.957 66.0571C102.915 66.0571 102.88 66.1614 102.88 66.289C102.88 66.4153 102.845 66.5196 102.802 66.5196C102.761 66.5196 102.725 66.6582 102.725 66.8283C102.725 66.9971 102.69 67.1371 102.648 67.1371C102.605 67.1371 102.571 67.2414 102.571 67.3676C102.571 67.4952 102.535 67.5995 102.492 67.5995C102.451 67.5995 102.415 67.7367 102.415 67.9069C102.415 68.077 102.381 68.2156 102.338 68.2156C102.296 68.2156 102.261 68.3542 102.261 68.5244C102.261 68.6932 102.225 68.8331 102.183 68.8331C102.142 68.8331 102.106 68.9361 102.106 69.0637C102.106 69.1913 102.071 69.2956 102.029 69.2956C101.986 69.2956 101.952 69.4328 101.952 69.603C101.952 69.7731 101.916 69.9117 101.873 69.9117C101.832 69.9117 101.796 70.016 101.796 70.1436C101.796 70.2699 101.762 70.3741 101.719 70.3741C101.677 70.3741 101.642 70.5127 101.642 70.6829C101.642 70.8517 101.606 70.9917 101.564 70.9917C101.522 70.9917 101.487 71.0946 101.487 71.2222C101.487 71.3498 101.452 71.4541 101.41 71.4541C101.362 71.4541 101.331 71.9165 101.331 72.6877C101.331 73.4575 101.36 73.92 101.41 73.92C101.451 73.92 101.487 74.0599 101.487 74.2287C101.487 74.3989 101.521 74.5375 101.564 74.5375C101.606 74.5375 101.641 74.6253 101.641 74.7337C101.641 74.8737 101.778 75.0658 102.106 75.3855C102.362 75.6352 102.569 75.8768 102.569 75.922C102.569 75.9673 102.831 76.2651 103.15 76.5807L103.728 77.1584H109.031C114.283 77.1584 114.335 77.1598 114.335 77.3121C114.335 77.3972 114.299 77.4672 114.258 77.4672C114.215 77.4672 114.179 77.5715 114.179 77.6977C114.179 77.8253 114.145 77.9296 114.102 77.9296C114.06 77.9296 114.025 78.0682 114.025 78.2384C114.025 78.4071 113.99 78.5457 113.947 78.5457C113.906 78.5457 113.87 78.65 113.87 78.7776C113.87 78.9052 113.836 79.0082 113.793 79.0082C113.75 79.0082 113.716 79.1481 113.716 79.3169C113.716 79.4871 113.68 79.6257 113.637 79.6257C113.596 79.6257 113.56 79.7629 113.56 79.933C113.56 80.1032 113.526 80.2418 113.483 80.2418C113.441 80.2418 113.406 80.3461 113.406 80.4737C113.406 80.6013 113.37 80.7042 113.328 80.7042C113.287 80.7042 113.251 80.8428 113.251 81.013C113.251 81.1831 113.216 81.3217 113.174 81.3217C113.131 81.3217 113.097 81.426 113.097 81.5523C113.097 81.6799 113.061 81.7842 113.018 81.7842C112.977 81.7842 112.941 81.9214 112.941 82.0916C112.941 82.2617 112.907 82.4003 112.864 82.4003C112.822 82.4003 112.787 82.4881 112.787 82.5952C112.787 82.8655 111.86 83.789 111.589 83.789C111.482 83.789 111.394 83.8233 111.394 83.8658C111.394 83.907 111.187 83.9427 110.929 83.9427C110.671 83.9427 110.465 83.977 110.465 84.0195C110.465 84.0689 109.883 84.0964 108.873 84.0964C107.214 84.0964 107.059 84.0676 107.059 83.7547C107.059 83.6888 107.024 83.6339 106.981 83.6339C106.94 83.6339 106.904 83.5653 106.904 83.4802C106.904 83.3952 106.939 83.3252 106.981 83.3252C107.024 83.3252 107.059 83.2223 107.059 83.0946C107.059 82.967 107.094 82.8627 107.137 82.8627C107.178 82.8627 107.214 82.7255 107.214 82.5554C107.214 82.3852 107.248 82.2466 107.291 82.2466C107.334 82.2466 107.368 82.108 107.368 81.9379C107.368 81.7691 107.404 81.6305 107.446 81.6305C107.488 81.6305 107.524 81.5262 107.524 81.3972C107.524 81.271 107.558 81.1667 107.601 81.1667C107.643 81.1667 107.679 81.0295 107.679 80.8593C107.679 80.6891 107.713 80.5505 107.756 80.5505C107.797 80.5505 107.833 80.4463 107.833 80.3186C107.833 80.1924 107.867 80.0881 107.91 80.0881C107.953 80.0881 107.989 79.9495 107.989 79.7794C107.989 79.6106 108.023 79.4706 108.066 79.4706C108.107 79.4706 108.143 79.402 108.143 79.3169C108.143 79.1646 108.092 79.1632 103.532 79.1632C98.5288 79.1632 98.7008 79.1481 98.7008 79.5818C98.7008 79.6915 98.665 79.7794 98.6224 79.7794C98.5811 79.7794 98.5453 79.918 98.5453 80.0881C98.5453 80.2569 98.5109 80.3969 98.4683 80.3969C98.4256 80.3969 98.3912 80.5341 98.3912 80.7042C98.3912 80.8744 98.3555 81.013 98.3128 81.013C98.2715 81.013 98.2358 81.1173 98.2358 81.2449C98.2358 81.3711 98.2014 81.4754 98.1587 81.4754C98.1161 81.4754 98.0817 81.614 98.0817 81.7842C98.0817 81.953 98.0459 82.0916 98.0033 82.0916C97.962 82.0916 97.9262 82.1958 97.9262 82.3248C97.9262 82.4511 97.8918 82.5554 97.8492 82.5554C97.8065 82.5554 97.7721 82.6926 97.7721 82.8627C97.7721 83.0329 97.7364 83.1715 97.6937 83.1715C97.6525 83.1715 97.6167 83.2758 97.6167 83.4034C97.6167 83.5296 97.5823 83.6339 97.5396 83.6339C97.497 83.6339 97.4626 83.7725 97.4626 83.9427C97.4626 84.1115 97.4268 84.2514 97.3842 84.2514C97.3429 84.2514 97.3071 84.3543 97.3071 84.482C97.3071 84.6096 97.2727 84.7139 97.2301 84.7139C97.1874 84.7139 97.1531 84.8511 97.1531 85.0212C97.1531 85.1914 97.1173 85.33 97.0746 85.33C97.032 85.33 96.9976 85.5358 96.9976 85.7924C96.9976 86.049 97.032 86.2549 97.0746 86.2549C97.1173 86.2549 97.1517 86.3935 97.1517 86.5636C97.1517 86.7338 97.1874 86.8724 97.2301 86.8724C97.2714 86.8724 97.3071 86.9753 97.3071 87.1029C97.3071 87.2305 97.3415 87.3348 97.3842 87.3348C97.4268 87.3348 97.4612 87.4034 97.4612 87.4885C97.4612 87.5736 97.497 87.6436 97.5396 87.6436C97.5809 87.6436 97.6167 87.7122 97.6167 87.7973C97.6167 87.8823 97.6511 87.9509 97.6937 87.9509C97.7364 87.9509 97.7721 88.0195 97.7721 88.106C97.7721 88.1897 97.8065 88.2597 97.8492 88.2597C97.8905 88.2597 97.9262 88.3132 97.9262 88.3777C97.9262 88.5314 98.427 89.0309 98.5811 89.0309C98.6471 89.0309 98.7008 89.0652 98.7008 89.1077C98.7008 89.1489 98.7696 89.1846 98.8549 89.1846C98.9402 89.1846 99.0103 89.2189 99.0103 89.2614C99.0103 89.304 99.0791 89.3383 99.1644 89.3383C99.2497 89.3383 99.3199 89.3739 99.3199 89.4165C99.3199 89.4576 99.3887 89.4933 99.474 89.4933C99.5593 89.4933 99.6294 89.5276 99.6294 89.5702C99.6294 89.6113 99.6982 89.647 99.7835 89.647C99.8688 89.647 99.939 89.6813 99.939 89.7239C99.939 89.7664 100.044 89.8007 100.171 89.8007C100.298 89.8007 100.403 89.8364 100.403 89.8789C100.403 89.9201 100.543 89.9558 100.712 89.9558C100.883 89.9558 101.022 89.9901 101.022 90.0326C101.022 90.0751 101.126 90.1094 101.256 90.1094C101.382 90.1094 101.487 90.1438 101.487 90.1863C101.487 90.2288 101.626 90.2645 101.796 90.2645C101.967 90.2645 102.106 90.2988 102.106 90.3414C102.106 90.3921 104.453 90.4182 108.994 90.4182C113.534 90.4182 115.883 90.3908 115.883 90.3414C115.883 90.2974 116.089 90.2645 116.348 90.2645C116.605 90.2645 116.811 90.2302 116.811 90.1863C116.811 90.1451 116.986 90.1094 117.198 90.1094C117.411 90.1094 117.586 90.0751 117.586 90.0326C117.586 89.9914 117.759 89.9558 117.971 89.9558C118.186 89.9558 118.359 89.9214 118.359 89.8789C118.359 89.8364 118.464 89.8007 118.592 89.8007C118.719 89.8007 118.824 89.7664 118.824 89.7239C118.824 89.6827 118.886 89.647 118.962 89.647C119.037 89.647 119.149 89.5784 119.211 89.4933C119.273 89.4082 119.384 89.3383 119.46 89.3383C119.535 89.3383 119.597 89.304 119.597 89.2614C119.597 89.2202 119.659 89.1846 119.735 89.1846C119.81 89.1846 119.923 89.116 119.985 89.0309C120.046 88.9458 120.158 88.8758 120.233 88.8758C120.31 88.8758 120.37 88.8415 120.37 88.799C120.37 88.7578 120.441 88.7221 120.526 88.7221C120.611 88.7221 120.681 88.6878 120.681 88.6453C120.681 88.6027 120.736 88.5684 120.802 88.5684C120.985 88.5684 121.146 88.3722 121.146 88.1499C121.146 88.0401 121.181 87.9509 121.223 87.9509C121.265 87.9509 121.3 87.8137 121.3 87.6436C121.3 87.4734 121.335 87.3348 121.377 87.3348C121.42 87.3348 121.454 87.2305 121.454 87.1029C121.454 86.9753 121.49 86.8724 121.533 86.8724C121.574 86.8724 121.61 86.7681 121.61 86.6405C121.61 86.5129 121.644 86.4099 121.687 86.4099C121.73 86.4099 121.764 86.3056 121.764 86.178C121.764 86.0504 121.8 85.9461 121.842 85.9461C121.884 85.9461 121.919 85.8432 121.919 85.7156C121.919 85.588 121.954 85.4837 121.997 85.4837C122.039 85.4837 122.074 85.3465 122.074 85.1763C122.074 85.0062 122.109 84.8676 122.152 84.8676C122.193 84.8676 122.229 84.7633 122.229 84.6357C122.229 84.5094 122.263 84.4051 122.306 84.4051C122.349 84.4051 122.384 84.3008 122.384 84.1732C122.384 84.047 122.419 83.9427 122.462 83.9427C122.503 83.9427 122.539 83.8384 122.539 83.7108C122.539 83.5845 122.573 83.4802 122.616 83.4802C122.658 83.4802 122.694 83.3416 122.694 83.1715C122.694 83.0027 122.728 82.8627 122.771 82.8627C122.812 82.8627 122.848 82.7598 122.848 82.6322C122.848 82.5046 122.882 82.4003 122.925 82.4003C122.968 82.4003 123.004 82.296 123.004 82.1698C123.004 82.0422 123.038 81.9379 123.081 81.9379C123.122 81.9379 123.158 81.8336 123.158 81.7073C123.158 81.5797 123.193 81.4754 123.235 81.4754C123.277 81.4754 123.313 81.3368 123.313 81.1667C123.313 80.9979 123.347 80.8593 123.39 80.8593C123.431 80.8593 123.467 80.755 123.467 80.6274C123.467 80.4998 123.503 80.3969 123.544 80.3969C123.587 80.3969 123.623 80.2926 123.623 80.165C123.623 80.0373 123.657 79.933 123.7 79.933C123.741 79.933 123.777 79.7958 123.777 79.6257C123.777 79.4555 123.813 79.3169 123.854 79.3169C123.896 79.3169 123.932 79.2126 123.932 79.085C123.932 78.9588 123.967 78.8545 124.009 78.8545C124.051 78.8545 124.086 78.7502 124.086 78.6226C124.086 78.4963 124.122 78.392 124.163 78.392C124.206 78.392 124.242 78.2878 124.242 78.1601C124.242 78.0339 124.276 77.9296 124.319 77.9296C124.361 77.9296 124.396 77.791 124.396 77.6209C124.396 77.4521 124.432 77.3121 124.473 77.3121C124.516 77.3121 124.551 77.2092 124.551 77.0816C124.551 76.954 124.586 76.8497 124.628 76.8497C124.671 76.8497 124.705 76.7467 124.705 76.6191C124.705 76.4915 124.741 76.3872 124.784 76.3872C124.825 76.3872 124.861 76.25 124.861 76.0799C124.861 75.9097 124.895 75.7711 124.938 75.7711C124.981 75.7711 125.015 75.6668 125.015 75.5392C125.015 75.4129 125.051 75.3087 125.093 75.3087C125.135 75.3087 125.17 75.2044 125.17 75.0768C125.17 74.9491 125.205 74.8462 125.247 74.8462C125.29 74.8462 125.324 74.7419 125.324 74.6143C125.324 74.4867 125.36 74.3838 125.403 74.3838C125.444 74.3838 125.48 74.2438 125.48 74.075C125.48 73.9049 125.514 73.7663 125.557 73.7663C125.6 73.7663 125.634 73.662 125.634 73.5358C125.634 73.4081 125.67 73.3038 125.712 73.3038C125.754 73.3038 125.789 73.1996 125.789 73.0733C125.789 72.9457 125.824 72.8414 125.867 72.8414C125.909 72.8414 125.944 72.7371 125.944 72.6095C125.944 72.4833 125.979 72.379 126.022 72.379C126.063 72.379 126.099 72.2404 126.099 72.0702C126.099 71.9014 126.133 71.7615 126.176 71.7615C126.219 71.7615 126.253 71.6585 126.253 71.5309C126.253 71.4033 126.289 71.299 126.332 71.299C126.373 71.299 126.409 71.1947 126.409 71.0685C126.409 70.9409 126.443 70.8366 126.486 70.8366C126.528 70.8366 126.564 70.7323 126.564 70.6061C126.564 70.4784 126.598 70.3741 126.641 70.3741C126.682 70.3741 126.718 70.2369 126.718 70.0654C126.718 69.8966 126.752 69.758 126.795 69.758C126.838 69.758 126.872 69.6537 126.872 69.5261C126.872 69.3999 126.908 69.2956 126.951 69.2956C126.992 69.2956 127.028 69.1913 127.028 69.0637C127.028 68.9361 127.062 68.8331 127.105 68.8331C127.147 68.8331 127.183 68.6932 127.183 68.5244C127.183 68.3542 127.218 68.2156 127.26 68.2156C127.301 68.2156 127.337 68.1114 127.337 67.9851C127.337 67.8575 127.372 67.7532 127.414 67.7532C127.457 67.7532 127.493 67.6489 127.493 67.5227C127.493 67.3951 127.527 67.2908 127.57 67.2908C127.611 67.2908 127.647 67.1865 127.647 67.0589C127.647 66.9326 127.681 66.8283 127.724 66.8283C127.766 66.8283 127.802 66.6897 127.802 66.5196C127.802 66.3508 127.837 66.2122 127.879 66.2122C127.921 66.2122 127.956 66.1079 127.956 65.9803C127.956 65.8527 127.992 65.7484 128.033 65.7484C128.076 65.7484 128.112 65.6455 128.112 65.5179C128.112 65.3902 128.146 65.2859 128.189 65.2859C128.23 65.2859 128.266 65.183 128.266 65.0554C128.266 64.9278 128.302 64.8235 128.343 64.8235C128.386 64.8235 128.421 64.6863 128.421 64.5161C128.421 64.346 128.456 64.2074 128.498 64.2074C128.54 64.2074 128.575 64.1031 128.575 63.9755C128.575 63.8492 128.611 63.7449 128.652 63.7449C128.695 63.7449 128.731 63.6407 128.731 63.513C128.731 63.3854 128.765 63.2825 128.808 63.2825C128.849 63.2825 128.885 63.1439 128.885 62.9738C128.885 62.8036 128.921 62.665 128.962 62.665C129.005 62.665 129.04 62.5607 129.04 62.4345C129.04 62.3069 129.075 62.2026 129.117 62.2026C129.159 62.2026 129.194 62.0983 129.194 61.972C129.194 61.8444 129.23 61.7401 129.272 61.7401C129.316 61.7401 129.35 61.6358 129.35 61.5096C129.35 61.382 129.384 61.2777 129.427 61.2777C129.47 61.2777 129.504 61.1391 129.504 60.9689C129.504 60.8002 129.54 60.6616 129.582 60.6616C129.624 60.6616 129.659 60.5573 129.659 60.4297C129.659 60.302 129.694 60.1977 129.737 60.1977C129.779 60.1977 129.814 60.0948 129.814 59.9672C129.814 59.8396 129.849 59.7353 129.892 59.7353C129.933 59.7353 129.969 59.6324 129.969 59.5048C129.969 59.3772 130.003 59.2729 130.046 59.2729C130.089 59.2729 130.123 59.2043 130.123 59.1192C130.123 58.9669 130.072 58.9655 125.357 58.9655C120.187 58.9655 120.372 58.949 120.372 59.384C120.372 59.4924 120.337 59.5816 120.295 59.5816C120.252 59.5816 120.216 59.6859 120.216 59.8135C120.216 59.9398 120.182 60.0441 120.139 60.0441C120.098 60.0441 120.062 60.1484 120.062 60.276C120.062 60.4022 120.026 60.5065 119.985 60.5065C119.942 60.5065 119.907 60.6108 119.907 60.7384C119.907 60.8647 119.872 60.9689 119.83 60.9689C119.788 60.9689 119.753 61.0732 119.753 61.2008C119.753 61.3285 119.717 61.4314 119.676 61.4314C119.633 61.4314 119.597 61.5357 119.597 61.6633C119.597 61.7909 119.563 61.8938 119.52 61.8938C119.479 61.8938 119.443 61.9981 119.443 62.1257C119.443 62.2533 119.409 62.3576 119.366 62.3576C119.323 62.3576 119.288 62.4605 119.288 62.5882C119.288 62.7158 119.253 62.8201 119.211 62.8201C119.169 62.8201 119.134 62.923 119.134 63.0506C119.134 63.1782 119.098 63.2825 119.057 63.2825C119.012 63.2825 118.978 63.3868 118.978 63.513C118.978 63.6407 118.944 63.7449 118.901 63.7449C118.858 63.7449 118.824 63.8492 118.824 63.9755C118.824 64.1031 118.788 64.2074 118.746 64.2074C118.704 64.2074 118.669 64.3117 118.669 64.4379C118.669 64.5655 118.634 64.6698 118.592 64.6698C118.549 64.6698 118.514 64.7741 118.514 64.9004C118.514 65.028 118.479 65.1323 118.436 65.1323C118.395 65.1323 118.359 65.2365 118.359 65.3628C118.359 65.4904 118.325 65.5961 118.282 65.5961C118.239 65.5961 118.205 65.699 118.205 65.8266C118.205 65.9529 118.169 66.0571 118.126 66.0571C118.085 66.0571 118.049 66.1614 118.049 66.289C118.049 66.4153 118.015 66.5196 117.972 66.5196C117.93 66.5196 117.895 66.6239 117.895 66.7515C117.895 66.8777 117.86 66.982 117.817 66.982C117.776 66.982 117.74 67.0863 117.74 67.2139C117.74 67.3415 117.706 67.4445 117.663 67.4445C117.62 67.4445 117.586 67.5487 117.586 67.6764C117.586 67.804 117.55 67.9069 117.507 67.9069C117.466 67.9069 117.43 68.0469 117.43 68.2156C117.43 68.3858 117.396 68.5244 117.353 68.5244C117.311 68.5244 117.276 68.6287 117.276 68.7549C117.276 68.8825 117.241 68.9868 117.198 68.9868C117.157 68.9868 117.121 69.0911 117.121 69.2187C117.121 69.345 117.086 69.4493 117.044 69.4493C117.001 69.4493 116.967 69.5536 116.967 69.6812C116.967 69.8074 116.931 69.9117 116.888 69.9117C116.847 69.9117 116.811 70.016 116.811 70.1436C116.811 70.2699 116.777 70.3741 116.734 70.3741C116.692 70.3741 116.656 70.4633 116.656 70.5731C116.656 70.9917 116.659 70.9917 113.76 70.9917H111.084V70.6829C111.084 70.5127 111.118 70.3741 111.161 70.3741C111.204 70.3741 111.238 70.2699 111.238 70.1436C111.238 70.016 111.274 69.9117 111.316 69.9117C111.358 69.9117 111.394 69.7731 111.394 69.603C111.394 69.4342 111.428 69.2956 111.471 69.2956C111.513 69.2956 111.548 69.1913 111.548 69.0637C111.548 68.9361 111.583 68.8331 111.626 68.8331C111.667 68.8331 111.703 68.7289 111.703 68.6012C111.703 68.4736 111.737 68.3707 111.78 68.3707C111.823 68.3707 111.857 68.2307 111.857 68.062C111.857 67.8918 111.893 67.7532 111.936 67.7532C111.977 67.7532 112.013 67.6489 112.013 67.5227C112.013 67.3951 112.047 67.2908 112.09 67.2908C112.132 67.2908 112.167 67.1865 112.167 67.0589C112.167 66.9326 112.202 66.8283 112.245 66.8283C112.286 66.8283 112.322 66.6897 112.322 66.5196C112.322 66.3508 112.357 66.2122 112.399 66.2122C112.442 66.2122 112.478 66.1079 112.478 65.9803C112.478 65.8527 112.512 65.7484 112.555 65.7484C112.596 65.7484 112.632 65.6112 112.632 65.441C112.632 65.2709 112.666 65.1323 112.709 65.1323C112.751 65.1323 112.787 65.0307 112.787 64.9072C112.787 64.7837 112.83 64.663 112.883 64.6369C112.961 64.6012 112.961 64.5834 112.883 64.5477C112.811 64.5134 112.787 64.1209 112.787 62.9669C112.787 61.9954 112.758 61.4314 112.709 61.4314C112.667 61.4314 112.632 61.3765 112.632 61.3106C112.632 61.242 112.493 61.0554 112.322 60.8921C112.152 60.7288 112.013 60.5573 112.013 60.5106C112.013 60.3816 111.494 59.8904 111.358 59.8904C111.292 59.8904 111.238 59.8547 111.238 59.8135C111.238 59.771 111.135 59.7353 111.007 59.7353C110.879 59.7353 110.773 59.701 110.773 59.6585C110.773 59.6173 110.704 59.5816 110.619 59.5816C110.535 59.5816 110.465 59.5473 110.465 59.5048C110.465 59.4622 110.396 59.4279 110.309 59.4279C110.224 59.4279 110.155 59.3923 110.155 59.3511C110.155 59.3086 110.087 59.2729 110 59.2729C109.915 59.2729 109.846 59.2386 109.846 59.196C109.846 59.1549 109.777 59.1192 109.69 59.1192C109.605 59.1192 109.536 59.0849 109.536 59.0423C109.536 58.9916 106.647 58.9655 101.022 58.9655C95.3976 58.9655 92.5085 58.9916 92.5085 59.0423V59.0423ZM133.22 69.9886C133.22 70.0311 133.115 70.0654 132.986 70.0654C132.859 70.0654 132.755 70.1011 132.755 70.1436C132.755 70.1848 132.65 70.2205 132.522 70.2205C132.394 70.2205 132.291 70.2548 132.291 70.2973C132.291 70.3385 132.221 70.3741 132.136 70.3741C132.051 70.3741 131.982 70.4085 131.982 70.451C131.982 70.4935 131.918 70.5292 131.844 70.5292C131.767 70.5292 131.656 70.5978 131.594 70.6829C131.533 70.768 131.437 70.8366 131.382 70.8366C131.327 70.8366 131.021 71.0973 130.702 71.4129C130.385 71.7313 130.124 72.0359 130.124 72.0908C130.124 72.1457 130.054 72.2417 129.969 72.3021C129.884 72.3625 129.814 72.475 129.814 72.5491C129.814 72.626 129.779 72.6863 129.737 72.6863C129.695 72.6863 129.659 72.7906 129.659 72.9196C129.659 73.0459 129.624 73.1502 129.582 73.1502C129.54 73.1502 129.504 73.2531 129.504 73.3807C129.504 73.5083 129.47 73.6126 129.427 73.6126C129.384 73.6126 129.35 73.8184 129.35 74.075C129.35 74.3316 129.316 74.5375 129.273 74.5375C129.23 74.5375 129.194 74.6418 129.194 74.768C129.194 74.8956 129.23 74.9999 129.272 74.9999C129.316 74.9999 129.35 75.2057 129.35 75.4623C129.35 75.719 129.384 75.9248 129.427 75.9248C129.47 75.9248 129.504 76.0291 129.504 76.1567C129.504 76.2829 129.54 76.3872 129.582 76.3872C129.624 76.3872 129.659 76.4558 129.659 76.5423C129.659 76.626 129.694 76.696 129.737 76.696C129.779 76.696 129.814 76.7646 129.814 76.8497C129.814 76.9347 129.849 77.0047 129.892 77.0047C129.933 77.0047 129.969 77.0665 129.969 77.142C129.969 77.2174 130.038 77.3286 130.123 77.3889C130.208 77.4507 130.279 77.5454 130.279 77.6016C130.279 77.6565 130.47 77.8912 130.702 78.1231C130.936 78.3564 131.171 78.5457 131.226 78.5457C131.281 78.5457 131.378 78.6143 131.44 78.7008C131.5 78.7845 131.613 78.8545 131.689 78.8545C131.764 78.8545 131.826 78.8888 131.826 78.9313C131.826 78.9739 131.895 79.0082 131.982 79.0082C132.066 79.0082 132.136 79.0438 132.136 79.085C132.136 79.1276 132.205 79.1632 132.291 79.1632C132.375 79.1632 132.445 79.1975 132.445 79.2401C132.445 79.2812 132.55 79.3169 132.678 79.3169C132.806 79.3169 132.91 79.3512 132.91 79.3938C132.91 79.4363 133.048 79.4706 133.22 79.4706C133.389 79.4706 133.529 79.5063 133.529 79.5488C133.529 79.5955 133.916 79.6257 134.535 79.6257C135.154 79.6257 135.541 79.5955 135.541 79.5488C135.541 79.5063 135.681 79.4706 135.85 79.4706C136.021 79.4706 136.161 79.4363 136.161 79.3938C136.161 79.3526 136.264 79.3169 136.392 79.3169C136.52 79.3169 136.625 79.2826 136.625 79.2401C136.625 79.1975 136.721 79.1632 136.84 79.1632C136.902 79.163 136.964 79.1489 137.021 79.1221C137.077 79.0953 137.127 79.0564 137.167 79.0082C137.228 78.9245 137.34 78.8545 137.416 78.8545C137.492 78.8545 137.554 78.8202 137.554 78.7776C137.554 78.7351 137.606 78.7008 137.671 78.7008C137.823 78.7008 139.101 77.4274 139.101 77.2751C139.101 77.2106 139.137 77.1584 139.178 77.1584C139.221 77.1584 139.257 77.0898 139.257 77.0047C139.257 76.9196 139.291 76.8497 139.334 76.8497C139.376 76.8497 139.411 76.7811 139.411 76.696C139.411 76.6109 139.447 76.5423 139.489 76.5423C139.531 76.5423 139.566 76.4723 139.566 76.3872C139.566 76.3021 139.601 76.2335 139.643 76.2335C139.686 76.2335 139.72 76.0949 139.72 75.9248C139.72 75.756 139.756 75.616 139.799 75.616C139.846 75.616 139.876 75.2826 139.876 74.768C139.876 74.2548 139.846 73.9213 139.799 73.9213C139.756 73.9213 139.72 73.7814 139.72 73.6126C139.72 73.4424 139.686 73.3038 139.643 73.3038C139.602 73.3038 139.566 73.1996 139.566 73.0733C139.566 72.9457 139.531 72.8414 139.489 72.8414C139.447 72.8414 139.411 72.7797 139.411 72.7042C139.411 72.6287 139.342 72.5176 139.257 72.4572C139.171 72.3954 139.101 72.2911 139.101 72.2239C139.101 72.158 139.033 72.0551 138.947 71.9934C138.862 71.9316 138.792 71.8369 138.792 71.7807C138.792 71.6572 138.29 71.1453 138.169 71.1453C138.12 71.1453 137.983 71.0411 137.863 70.9148C137.743 70.7872 137.591 70.6815 137.523 70.6815C137.455 70.6815 137.399 70.6486 137.399 70.6061C137.399 70.5635 137.329 70.5292 137.244 70.5292C137.159 70.5292 137.09 70.4935 137.09 70.451C137.09 70.4098 137.02 70.3741 136.934 70.3741C136.849 70.3741 136.779 70.3398 136.779 70.2973C136.779 70.2561 136.71 70.2205 136.625 70.2205C136.54 70.2205 136.469 70.1862 136.469 70.1436C136.469 70.1011 136.332 70.0668 136.161 70.0668C135.991 70.0668 135.85 70.0311 135.85 69.9886C135.85 69.9405 135.361 69.9117 134.535 69.9117C133.71 69.9117 133.22 69.9405 133.22 69.9886V69.9886Z" fill="#DADADA"/>
</g>
<defs>
<clipPath id="clip0_1456_1903">
<rect width="122.442" height="82.3333" fill="white" transform="translate(72.6948 33.8333)"/>
</clipPath>
</defs>
</svg>
