<svg width="268" height="150" viewBox="0 0 268 150" fill="none" xmlns="http://www.w3.org/2000/svg">
<path d="M56.4823 87.111H52.9417L51.4434 91.746H48.7424L50.6204 85.9426H56.8615L56.4823 87.111ZM58.9363 91.746H56.2359L58.1133 85.9426H62.2468C63.3783 85.9426 64.2719 86.0583 64.9316 86.2893C65.6774 86.5578 66.0506 86.9582 66.0506 87.49C66.0506 87.6242 66.0291 87.7615 65.9848 87.9011C65.7767 88.5463 65.1888 89.0296 64.2229 89.3519C63.3454 89.6478 62.2139 89.7952 60.8311 89.7952H59.5619L58.9363 91.746V91.746ZM60.4352 87.1033L59.9411 88.6345H61.1432C62.6588 88.6345 63.416 88.326 63.416 87.7078C63.416 87.3049 62.8233 87.1033 61.6373 87.1033H60.4352V87.1033ZM77.0345 85.9426L70.2665 91.746H67.483L69.0817 90.3514L66.4627 85.9426H69.3281L70.9753 88.8768L74.1865 85.9426H77.0345V85.9426ZM85.4341 91.746H82.7338L84.232 87.1194H80.3623L78.8635 91.746H76.1631L78.0405 85.9426H87.3115L85.4341 91.746V91.746ZM96.8302 91.746H94.1298L95.628 87.1194H91.7583L90.2595 91.746H87.5592L89.4366 85.9426H98.7076L96.8302 91.746V91.746ZM109.531 91.746H106.583L106.171 90.6981H101.923L100.787 91.746H97.887L104.492 85.9426H106.699L109.531 91.746ZM105.776 89.618L105.1 87.5383L103.042 89.618H105.776V89.618ZM125.519 91.746H122.323L119.655 89.1185L118.799 91.746H116.099L117.975 85.9426H120.677L119.804 88.6268L124.35 85.9426H127.247L122.175 88.8279L125.519 91.746V91.746ZM131.397 91.8588C129.871 91.8588 128.603 91.6213 127.592 91.1457C126.583 90.6701 126.079 90.0614 126.079 89.3196C126.079 88.3851 126.811 87.5693 128.277 86.8735C129.742 86.1777 131.43 85.8298 133.34 85.8298C134.866 85.8298 136.128 86.0583 137.128 86.5149C138.138 86.9875 138.644 87.595 138.644 88.3368C138.644 89.282 137.918 90.1055 136.47 90.8068C135.02 91.5085 133.329 91.8588 131.397 91.8588V91.8588ZM132.962 87.0227C131.863 87.0227 130.9 87.2387 130.071 87.6714C129.242 88.1041 128.827 88.5916 128.827 89.1346C128.827 89.5643 129.1 89.9271 129.643 90.2226C130.187 90.5179 130.898 90.6659 131.776 90.6659C132.896 90.6659 133.862 90.4457 134.674 90.0047C135.487 89.5643 135.893 89.0672 135.893 88.514C135.893 88.0784 135.624 87.7215 135.086 87.4416C134.548 87.1623 133.84 87.0227 132.962 87.0227V87.0227ZM151.672 91.746H149.152L150.238 88.4657C150.35 88.2126 150.497 87.8343 150.683 87.3289C150.673 87.3289 149.235 88.8011 146.369 91.746H144.558L143.142 87.3049L143.124 87.3127C143.058 87.5652 142.955 87.9441 142.812 88.4495L141.775 91.746H139.238L141.116 85.9426H144.723L146.057 89.9647L149.975 85.9426H153.549L151.672 91.746V91.746ZM163.081 91.746H160.38L161.879 87.1194H158.009L156.51 91.746H153.81L155.687 85.9426H164.958L163.081 91.746V91.746ZM175.781 91.746H172.833L172.421 90.6981H168.173L167.037 91.746H164.138L170.742 85.9426H172.949L175.781 91.746V91.746ZM172.026 89.618L171.35 87.5383L169.292 89.618H172.026V89.618ZM186.335 91.746H183.634L184.407 89.368H180.291L179.517 91.746H176.833L178.71 85.9426H181.394L180.669 88.1912H184.787L185.511 85.9426H188.211L186.335 91.746ZM198.372 91.746H195.738L196.89 88.1589L190.732 91.746H188.475L190.352 85.9426H193.053L191.901 89.4974L198.043 85.9426H200.25L198.372 91.746V91.746ZM210.398 84.3224C210.276 84.693 209.911 85.0116 209.302 85.2778C208.694 85.5433 208.003 85.6764 207.235 85.6764C206.577 85.6764 206.033 85.5678 205.605 85.35C205.177 85.1328 204.963 84.8624 204.963 84.5402C204.963 84.465 204.973 84.3922 204.996 84.3224H206.658C206.647 84.3707 206.643 84.4167 206.643 84.4596C206.643 84.7765 206.928 84.9352 207.499 84.9352C208.191 84.9352 208.602 84.7306 208.734 84.3224H210.398V84.3224ZM210.15 91.746H207.515L208.685 88.1589L202.509 91.746H200.253L202.13 85.9426H204.831L203.679 89.4974L209.821 85.9426H212.028L210.15 91.746V91.746Z" fill="#DADADA"/>
<path fill-rule="evenodd" clip-rule="evenodd" d="M207.293 58.7493C211.641 58.7493 214.872 59.6348 216.985 61.4051C219.375 63.4001 219.88 66.2356 218.5 69.9112C217.338 73.0047 215.226 75.6159 212.163 77.7451C208.254 80.4797 203.419 81.847 197.656 81.847C193.334 81.847 190.077 80.9954 187.887 79.2916C185.377 77.3417 184.805 74.5511 186.168 70.9201C186.947 68.8455 188.071 67.0232 189.539 65.4531L190.429 65.4871C191.275 65.5196 192.128 65.521 192.975 65.521H193.167L194.818 61.5902C196.578 60.7115 198.543 60.0223 200.712 59.5225C202.989 59.0072 205.183 58.7493 207.293 58.7493ZM204.673 64.801C202.872 64.801 201.178 65.3727 199.592 66.5158C198.005 67.6588 196.908 69.0375 196.303 70.6513C195.747 72.1305 195.833 73.3578 196.56 74.3325C197.287 75.3078 198.5 75.7952 200.198 75.7952C201.973 75.7952 203.646 75.2125 205.215 74.0467C206.785 72.8814 207.864 71.5141 208.454 69.9453C208.992 68.5108 208.915 67.2947 208.221 66.2972C207.528 65.2998 206.346 64.801 204.673 64.801Z" fill="#DADADA"/>
<path fill-rule="evenodd" clip-rule="evenodd" d="M195.517 59.1864L192.975 65.2381C191.869 65.2381 191.024 65.2269 190.44 65.2045C187.55 65.0927 185.796 65.0363 185.178 65.0363C183.987 67.5243 182.8 70.119 181.619 72.8198C180.438 75.5208 179.279 78.3842 178.143 81.4099H168.033C169.419 78.6754 170.737 75.9019 171.987 73.0887C173.236 70.2759 174.34 67.5916 175.299 65.0363C173.546 65.0363 172.189 65.048 171.228 65.071C171.275 64.9593 171.321 64.846 171.364 64.7311C171.953 63.1624 172.193 61.3264 170.776 60.1159C170.462 59.8479 170.095 59.6374 169.698 59.4723L169.816 59.1864H195.517Z" fill="#DADADA"/>
<path fill-rule="evenodd" clip-rule="evenodd" d="M149.02 59.1864H166.077C168.187 59.1864 169.69 59.5675 170.587 60.3295C171.657 61.2487 171.826 62.6828 171.094 64.6332C170.572 66.0228 169.697 67.2052 168.469 68.1803C167.241 69.1551 165.835 69.7657 164.25 70.0122C165.709 70.0346 166.722 70.539 167.291 71.5256C167.859 72.5116 167.879 73.7106 167.348 75.123C166.532 77.2971 165.065 78.9109 162.945 79.9644C161.014 80.9282 158.659 81.4099 155.881 81.4099H139.557C139.991 80.5662 140.526 79.4543 141.159 78.0746C142.251 77.3922 143.317 76.6717 144.352 75.9083L144.478 75.8147L144.466 75.6595C144.356 74.3213 144.201 72.985 143.994 71.6569C145.813 67.4213 147.488 63.2644 149.02 59.1864V59.1864ZM152.706 72.8031L151.289 76.0645H155.147C156.022 76.0645 156.69 75.8962 157.151 75.5601C157.611 75.2235 157.947 74.7754 158.157 74.215C158.393 73.5874 158.253 73.1726 157.737 72.9711C157.445 72.8592 156.86 72.8031 155.986 72.8031H152.706ZM156.197 64.5322L154.932 67.4911H158.328C158.971 67.4911 159.534 67.3787 160.017 67.1545C160.5 66.9306 160.851 66.5272 161.07 65.9441C161.255 65.4511 161.197 65.0927 160.895 64.8683C160.593 64.6441 160.146 64.5322 159.554 64.5322H156.197V64.5322Z" fill="#DADADA"/>
<path fill-rule="evenodd" clip-rule="evenodd" d="M102.681 81.4099L101.661 75.3918L95.1949 81.4099H89.1851L91.9135 75.3615C94.3272 73.3771 96.6747 71.4034 98.9552 69.441C98.6111 68.0287 98.1098 66.3138 97.4521 64.2971L97.1305 63.3347L98.9555 59.1864H107.051L107.844 64.0615L112.685 59.1864H123.22L110.344 70.0459C110.714 71.3909 111.092 72.6629 111.477 73.8623C111.628 74.3289 111.783 74.8049 111.944 75.2903C111.714 75.4629 111.484 75.6356 111.255 75.8086L111.076 75.943L111.166 76.1456C111.833 77.6606 112.679 79.083 113.727 80.3674L114.104 81.4099H102.681V81.4099Z" fill="#DADADA"/>
<path fill-rule="evenodd" clip-rule="evenodd" d="M91.6307 75.2908L88.8703 81.4099H66.2173C67.3175 79.3703 68.9375 75.9298 71.0768 71.0885C71.9717 69.0631 72.781 67.1909 73.5048 65.4714L73.9152 65.4872C74.7613 65.5197 75.6144 65.521 76.4611 65.521H76.6534L79.315 59.1864H98.6421L96.0091 65.1708C95.1859 65.1708 93.8242 65.1486 91.9242 65.1036C90.0248 65.059 89.0103 65.0363 88.8814 65.0363H83.5944L82.5182 67.3901H86.4546C87.1751 67.3901 88.3927 67.3677 90.107 67.3228C91.822 67.2777 92.7436 67.2555 92.8724 67.2555L90.2139 73.2066H79.8326L78.756 75.5601C81.123 75.5601 83.6224 75.515 86.2545 75.4254C88.8869 75.3358 90.679 75.2908 91.6307 75.2908V75.2908Z" fill="#DADADA"/>
<path fill-rule="evenodd" clip-rule="evenodd" d="M79.0039 59.1864L76.4612 65.2382C75.355 65.2382 74.5101 65.2268 73.9266 65.2045C71.0362 65.0926 69.2817 65.0362 68.6641 65.0362C67.4731 67.5243 66.2866 70.1189 65.1055 72.8198C63.924 75.5207 62.7656 78.3842 61.6292 81.4098H51.5188C52.9055 78.6753 54.223 75.9019 55.4727 73.0886C56.722 70.2759 57.8258 67.5916 58.785 65.0362C56.3412 65.0362 54.667 65.059 53.7624 65.1036C52.8578 65.1486 51.87 65.1936 50.7983 65.2382L53.3023 59.1864H79.0039V59.1864Z" fill="#DADADA"/>
<path fill-rule="evenodd" clip-rule="evenodd" d="M144.179 75.6821C142.449 76.9588 140.572 78.1609 138.547 79.2887C135.972 80.7357 133.152 82.0761 130.087 83.3102C130.437 81.0548 130.521 78.9056 130.339 76.8631C130.236 75.48 130.014 74.1819 129.672 72.9691C126.99 74.7989 124.561 76.6502 122.385 78.5227C120.603 80.0546 118.917 81.6506 117.329 83.3102C116.227 82.5229 115.272 81.6825 114.464 80.7888C113.229 79.4057 112.217 77.8204 111.429 76.0332C116.708 72.0541 121.734 68.5114 126.505 65.4048C130.588 62.7451 134.674 60.2768 138.761 58C139.553 59.1916 140.249 60.415 140.848 61.6704C141.635 63.3302 142.295 65.2239 142.827 67.3516C143.483 69.905 143.933 72.6819 144.179 75.6821ZM128.606 81.1398C127.734 81.3739 126.725 81.6027 125.581 81.8261C124.437 82.0495 123.436 82.1612 122.58 82.1612C122.824 81.5868 123.008 81.0228 123.133 80.4696C123.257 79.9164 123.384 79.1291 123.514 78.1078C124.793 77.9588 125.951 77.7673 126.989 77.5332C127.715 77.3843 128.445 77.1929 129.18 76.9588C129.239 77.4694 129.239 78.0385 129.18 78.6663C129.121 79.294 128.929 80.1185 128.606 81.1398Z" fill="#DADADA"/>
</svg>
