<svg width="268" height="150" viewBox="0 0 268 150" fill="none" xmlns="http://www.w3.org/2000/svg">
<path d="M243.087 74.9854L237.19 59.5001H101.21H30.0913L26.5194 63.2638L22.9474 67.0275V78.7491V90.4707H97.6376H237.19L243.087 74.9854Z" fill="#DADADA"/>
<path fill-rule="evenodd" clip-rule="evenodd" d="M86.6307 74.8872V84.198H94.198H101.765V82.1398V80.0817H97.1463H92.5273V78.6115V77.1414H96.2683H100.009L99.9537 74.9721L99.8981 72.8028L96.2618 72.7669L92.6256 72.731L92.569 70.9179L92.5126 69.1047H96.9423H101.372V67.3406V65.5764H94.0015H86.6307V74.8872ZM30.22 74.9852V84.198H33.1683H36.1166V74.9852V65.7724H33.1683H30.22V74.9852ZM41.9495 65.9012C41.785 66.0655 41.7793 83.4808 41.9436 83.9079C42.035 84.1457 42.571 84.198 44.9115 84.198H47.7678L47.6719 79.3956C47.6192 76.7543 47.5864 74.5932 47.5994 74.5932C47.6122 74.5932 49.1687 76.7517 51.0585 79.3899L54.4943 84.1866L57.0986 84.1923L59.7029 84.198V74.9852V65.7724H56.9797H54.2563L54.1311 67.0955C53.9624 68.8762 53.9872 72.2245 54.1816 73.9071C54.2686 74.6618 54.3199 75.3045 54.2956 75.3353C54.271 75.3661 52.6654 73.2491 50.7273 70.6309L47.2035 65.8704L44.6466 65.8159C43.2402 65.7862 42.0265 65.8244 41.9495 65.9012ZM64.8133 67.9231V70.0738L67.5159 70.1283L70.2185 70.1828L70.2702 77.1957L70.3217 84.2084L73.2185 84.1543L76.1151 84.1L76.1668 77.0924L76.2183 70.0848H78.8694H81.5203V67.9286V65.7724H73.1668H64.8133V67.9231ZM107.072 74.9852V84.198H114.246H121.421V82.1398V80.0817H117.293H113.165V72.927V65.7724H110.119H107.072V74.9852ZM126.486 74.9852L126.433 84.1982L133.558 84.198H140.683V82.1398V80.0817H136.576C133.013 80.0817 132.454 80.0407 132.35 79.7716C132.285 79.601 132.231 76.3814 132.231 72.6169V65.7724H129.385H126.539L126.486 74.9852Z" fill="#B1B1B1"/>
<path fill-rule="evenodd" clip-rule="evenodd" d="M146.776 90.6667V75.1813V59.5H195.914H245.052V71.4176V83.1392L241.48 86.9029L237.909 90.6667H192.342H146.776ZM164.76 66.3592C168.389 66.9512 170.362 69.2648 170.362 72.9277C170.362 74.7038 169.938 75.9437 169.003 76.9051C167.618 78.3286 165.657 78.9764 162.058 79.2009L159.759 79.344L159.705 82.0768L159.65 84.8097L156.751 84.8036C155.157 84.8005 153.763 84.7952 153.655 84.7918C153.527 84.7881 153.459 81.548 153.459 75.4754V66.1646L158.52 66.1657C161.304 66.1663 164.112 66.2534 164.76 66.3592ZM159.952 74.6958C159.835 74.6235 159.748 73.7859 159.748 72.7196V70.869H161.491C162.956 70.869 163.316 70.9337 163.751 71.2753C164.506 71.8675 164.491 73.2257 163.722 73.9933C163.255 74.459 162.952 74.5602 161.665 74.6803C160.835 74.7579 160.064 74.7648 159.952 74.6958ZM191.743 84.5411C191.696 84.4065 190.214 80.2166 188.45 75.2303L185.242 66.1646H182.318H179.394L179.192 66.7036C179.081 67.0002 177.486 71.1454 175.647 75.9152C173.808 80.6853 172.349 84.6621 172.405 84.7528C172.462 84.8436 172.71 84.8955 172.958 84.8683C173.206 84.841 174.518 84.8114 175.875 84.8024L178.34 84.7862L178.626 83.6591L178.912 82.532L181.98 82.4781L185.048 82.4244L185.562 83.6052L186.075 84.7862H188.952C191.168 84.7862 191.809 84.7299 191.743 84.5411ZM181.044 75.4679L180.253 78.3176H181.994C182.186 78.3176 182.36 78.321 182.515 78.324C183.057 78.3345 183.38 78.3408 183.516 78.185C183.715 77.9557 183.509 77.3755 183 75.9417C182.901 75.6625 182.79 75.351 182.669 75.0034L181.836 72.6182L181.044 75.4679ZM207.013 66.073C207.649 66.2383 208.605 66.6099 209.137 66.8987C211.018 67.9195 212.708 70.3789 212.955 72.4526L213.07 73.4284L210.248 73.3737L207.426 73.3192L206.83 72.2599C206.032 70.8427 205.405 70.4015 204.188 70.4015C202.891 70.4015 201.821 71.1071 201.197 72.3752C200.795 73.1931 200.732 73.6071 200.731 75.4754C200.73 77.9636 201.081 79.1764 202.037 79.9783C202.554 80.4122 202.811 80.4738 204.106 80.4738C205.518 80.4738 205.614 80.4444 206.235 79.825C206.593 79.468 206.986 78.8065 207.108 78.3549L207.329 77.5335H210.279H213.229L213.106 78.2686C212.626 81.1555 210.502 83.753 207.775 84.7883C206.379 85.3185 203.601 85.513 201.916 85.1988C196.848 84.253 193.773 79.5629 194.506 73.8968C195.014 69.9771 197.653 66.9324 201.311 66.046C202.725 65.7033 205.643 65.7173 207.013 66.073ZM224.516 71.5268C224.258 71.6252 224.218 71.2687 224.218 68.9027V66.1646H221.073H217.928V75.4754V84.7862H221.073H224.218L224.219 81.8949C224.219 79.3585 224.267 78.9255 224.609 78.3666C224.823 78.0163 225.126 77.7296 225.281 77.7296C225.437 77.7296 226.514 79.3028 227.691 81.2508L229.82 84.7719L233.505 84.7791C235.532 84.783 237.19 84.7405 237.19 84.6844C237.19 84.5817 234.886 81.0172 231.681 76.1614C230.72 74.706 229.932 73.427 229.931 73.3192C229.929 73.2114 231.381 71.5795 233.157 69.6929L236.387 66.2626L233.201 66.2065C231.45 66.1757 229.824 66.1977 229.59 66.2553C229.356 66.3128 228.185 67.4967 226.989 68.8863C225.793 70.2758 224.68 71.4641 224.516 71.5268Z" fill="#B1B1B1"/>
</svg>
