<svg width="268" height="150" viewBox="0 0 268 150" fill="none" xmlns="http://www.w3.org/2000/svg">
<g clip-path="url(#clip0_1456_1887)">
<path d="M78.7825 88.5486C78.5602 88.0869 78.5022 87.7118 79.2174 87.4906C79.9132 88.0677 80.5511 87.4906 81.2373 86.8943C83.0165 88.6007 85.3214 89.6612 87.7803 89.9047C82.6677 84.7398 85.0645 80.027 81.6142 73.0154C81.1205 72.3955 80.5947 71.8016 80.0389 71.2361C80.9906 71.2274 81.9363 71.387 82.832 71.7074C82.1566 70.8817 81.3204 70.2004 80.3737 69.7046C79.427 69.2087 78.3894 68.9085 77.3231 68.822C78.4001 68.3942 79.5574 68.2039 80.7154 68.2641C79.6807 67.5715 78.4966 67.1313 77.2591 66.9793C76.0215 66.8272 74.7654 66.9675 73.5925 67.3889H73.4669C74.418 66.4801 75.58 65.8194 76.8495 65.4653C75.4954 65.1201 74.0737 65.1367 72.728 65.5133C71.3824 65.8899 70.1604 66.6132 69.1854 67.6101H69.0211C69.4744 66.2912 70.2676 65.1139 71.3213 64.1957C69.9196 64.4589 68.6147 65.0924 67.5435 66.0298C66.4723 66.9673 65.6741 68.1742 65.2326 69.5241L65.0876 69.6299C65.0689 68.1654 65.4569 66.7243 66.2087 65.4653C64.9277 66.1644 63.8649 67.2011 63.1369 68.4617C62.409 69.7223 62.0439 71.158 62.0819 72.6115V72.6115C58.216 79.9308 60.7578 84.5475 55.5486 89.8374C57.0609 89.6646 58.5235 89.1937 59.851 88.4523C61.1785 87.7108 62.3443 86.7136 63.2803 85.5189C65.5612 82.7008 67.7067 76.4876 71.8046 76.4876C75.5448 76.4876 77.5067 81.7486 79.5363 84.7976C79.2034 84.9714 78.8268 85.0449 78.4526 85.0091C78.0784 84.9732 77.7228 84.8295 77.4294 84.5956C76.8012 84.0666 76.9075 83.6338 76.7432 82.797C76.7432 82.7297 76.7432 82.6623 76.7432 82.5854C76.6775 82.186 76.5259 81.8054 76.2986 81.4697C76.2553 81.3747 76.1928 81.2896 76.115 81.2196C75.8253 80.889 75.4623 80.63 75.0547 80.4631C74.6471 80.2962 74.2061 80.2259 73.7665 80.2578C74.1503 80.4698 74.4808 80.7658 74.733 81.1235C74.2934 80.7905 73.7659 80.5922 73.2149 80.5529C72.6639 80.5136 72.1133 80.635 71.6306 80.9022C72.213 80.9158 72.7769 81.1079 73.2457 81.4521C73.7144 81.7963 74.065 82.2761 74.2497 82.8259C74.6765 85.324 75.8212 87.6457 77.5454 89.5104C78.5602 90.5299 77.816 90.9146 76.8592 91.107C78.2606 92.4535 80.9184 91.7706 79.6233 89.9144C79.2974 89.4885 79.0157 89.0309 78.7825 88.5486V88.5486Z" fill="#DADADA"/>
<path d="M102.103 77.9687C101.321 79.2057 100.21 80.204 98.8947 80.8541C99.809 79.7321 100.397 78.3822 100.594 76.9511C100.792 75.52 100.592 74.0624 100.016 72.7365C99.8407 74.1046 99.3112 75.4038 98.4792 76.5068C98.7656 75.2505 98.7392 73.9436 98.4023 72.6998C98.0654 71.456 97.4283 70.313 96.5462 69.3702C96.7934 70.495 96.7934 71.6597 96.5462 72.7846C96.2986 71.7538 95.8449 70.7831 95.2123 69.9305C94.5796 69.0778 93.781 68.3606 92.864 67.8217C93.3942 68.7745 93.723 69.8251 93.8304 70.9091C93.5985 70.7456 93.3569 70.5917 93.1249 70.4378C79.1498 60.7716 84.6007 52.9618 84.3977 53.0195C82.5551 53.4364 80.9222 54.4934 79.7921 56.0005C78.662 57.5077 78.1088 59.3664 78.2317 61.2429C78.8779 59.9704 79.8559 58.8941 81.0634 58.1267C80.31 59.2224 79.846 60.4893 79.7143 61.8106C79.5825 63.1318 79.7873 64.4647 80.3096 65.6865C80.4555 64.5859 80.8308 63.5278 81.4113 62.5798C81.4693 62.8427 81.5338 63.1088 81.6046 63.3781C83.3443 69.9473 92.574 78.9305 89.3364 81.1523C86.9589 82.7874 85.0646 77.5455 81.6046 73.0347C85.0646 80.0366 82.6678 84.7591 87.7707 89.924H87.8287C87.935 91.1166 87.8867 92.2419 86.7849 92.7517C86.0407 93.0979 85.6638 92.8094 84.852 92.6266L84.6587 92.5593C84.2687 92.4516 83.86 92.4286 83.4603 92.492C83.3536 92.493 83.2483 92.5159 83.151 92.5593C82.7166 92.6711 82.315 92.8836 81.9791 93.1795C81.6431 93.4754 81.3823 93.8462 81.2181 94.2617C81.5755 93.9871 81.9925 93.7993 82.4358 93.7135C81.9498 93.9711 81.5495 94.3637 81.2836 94.8435C81.0176 95.3233 80.8975 95.8696 80.9378 96.4161C81.1973 95.8879 81.6164 95.4536 82.1363 95.1742C82.6562 94.8948 83.251 94.7842 83.8372 94.858C86.3129 95.5095 88.9257 95.4293 91.3563 94.6272C92.7093 94.1367 92.7577 94.9734 92.5257 95.916C94.3427 95.2139 94.8259 92.5208 92.603 92.9152C92.0701 93.0373 91.5261 93.105 90.9794 93.1172C90.4671 93.1172 90.0999 93.021 90.1965 92.29C91.163 91.838 90.6314 90.8184 90.3995 89.8374C91.64 89.6317 92.8245 89.1733 93.8788 88.4909C95.5599 88.5415 97.2139 88.0604 98.6031 87.1169C99.9923 86.1733 101.045 84.8158 101.611 83.2394C100.389 84.2517 98.8913 84.878 97.3097 85.038C98.7042 84.439 99.8969 83.4547 100.747 82.2018C101.596 80.9488 102.067 79.4798 102.103 77.9687V77.9687Z" fill="#DADADA"/>
<path d="M64.6334 62.022C64.8078 60.8663 64.7224 59.6864 64.3831 58.5676C64.0438 57.4487 63.4592 56.4187 62.6715 55.552C61.8837 54.6852 60.9125 54.0033 59.8278 53.5554C58.7431 53.1074 57.572 52.9047 56.3991 52.9618C56.3991 52.9618 60.2649 56.0877 57.1336 57.3861C54.6787 58.3479 50.2813 55.7703 49.0442 57.1745C48.8774 57.3335 48.7645 57.5403 48.7212 57.7661C48.6779 57.9919 48.7063 58.2255 48.8026 58.4345C48.8026 58.4345 44.9368 57.0014 43.2454 57.9536C40.8969 59.2809 42.0277 62.6568 42.163 62.4356C42.3613 62.0769 42.6694 61.7905 43.0425 61.6181C43.1195 61.6088 43.1974 61.6088 43.2744 61.6181L44.0959 61.772C46.7151 62.4068 48.6673 62.8973 51.8277 62.099C53.4707 61.6854 54.0699 63.8687 51.1608 63.3974C49.7208 63.1666 46.1642 63.0223 44.9947 63.8687C44.2796 64.3881 44.0283 63.9553 43.719 63.7629L42.8782 62.7049C42.5985 63.148 42.4275 63.6503 42.3788 64.1713C42.3302 64.6923 42.4053 65.2174 42.5981 65.7041C42.791 66.1909 43.0961 66.6257 43.4889 66.9735C43.8817 67.3213 44.3512 67.5723 44.8594 67.7063C45.3396 67.821 45.8385 67.8348 46.3244 67.7471C46.8103 67.6593 47.2725 67.4718 47.6815 67.1965C45.8646 67.2927 45.8066 65.5999 47.3046 65.2248C49.1119 64.7728 52.0789 65.9943 50.5326 68.62C50.0204 69.4856 41.8344 73.8234 45.0237 83.4703C44.8961 83.5476 44.7534 83.5971 44.6051 83.6153C44.4568 83.6335 44.3063 83.6202 44.1636 83.5761L43.8833 83.4992C42.5446 83.0733 41.3768 82.2345 40.549 81.1043C40.3309 80.8513 40.1853 80.5445 40.1275 80.2162C40.0697 79.8878 40.1018 79.5501 40.2204 79.2384C40.491 78.3439 40.8776 78.19 41.5348 77.5648C41.6927 77.4305 41.8383 77.2824 41.9697 77.1224C42.5321 76.4302 42.8159 75.5547 42.7659 74.666C42.7159 73.7772 42.3357 72.9387 41.6991 72.3134C41.842 72.8202 41.8717 73.352 41.7861 73.8715V73.8042C41.6922 73.1502 41.4188 72.5348 40.9958 72.0256C40.5729 71.5165 40.017 71.1335 39.3892 70.9187C39.8696 71.4836 40.1632 72.1822 40.2301 72.9193C39.9488 72.287 39.4899 71.7491 38.9087 71.3703C38.3274 70.9915 37.6485 70.7879 36.9537 70.7841C37.6108 71.1917 38.119 71.7986 38.4034 72.5153C37.8873 72.0301 37.2386 71.7073 36.5388 71.5875C35.8391 71.4677 35.1193 71.5563 34.4699 71.8421C35.1009 71.9074 35.7027 72.14 36.2127 72.5155C36.7227 72.8911 37.1221 73.3959 37.3693 73.9773C38.0362 76.1798 36.4608 80.3444 36.0259 81.614C35.3397 83.6242 34.3249 81.7487 34.3249 81.7487C34.1397 82.1241 34.0756 82.5474 34.1413 82.9605C34.2087 83.252 34.3644 83.5159 34.5872 83.7166C34.8101 83.9173 35.0894 84.0451 35.3875 84.0829C35.6857 84.1206 35.9883 84.0664 36.2545 83.9277C36.5208 83.7889 36.7378 83.5722 36.8764 83.3068C37.0311 82.9793 37.1541 82.638 37.2437 82.2873C37.2701 82.2245 37.3096 82.1681 37.3596 82.1217C37.4096 82.0752 37.4689 82.0399 37.5336 82.018C38.8963 81.7198 41.2449 87.3368 42.1437 89.2988C42.6849 90.4626 43.2938 90.9916 44.7628 90.2606C44.4887 90.1468 44.2526 89.9582 44.0816 89.7165C43.9106 89.4749 43.8117 89.19 43.7963 88.8949C43.7383 87.8273 44.6758 87.3945 45.594 87.2213C46.0869 87.1348 46.8117 87.1252 47.5269 87.0674C48.9457 88.4778 50.7629 89.424 52.7361 89.7797C52.8521 91.0205 52.8521 92.2131 51.7117 92.7421C50.9675 93.0884 50.5906 92.7998 49.7788 92.6171L49.5855 92.5497C49.1955 92.442 48.7867 92.4191 48.387 92.4824C48.2804 92.4834 48.1751 92.5063 48.0778 92.5497C47.6434 92.6615 47.2418 92.874 46.9059 93.1699C46.5699 93.4658 46.3091 93.8367 46.1448 94.2521C46.5023 93.9775 46.9193 93.7898 47.3626 93.7039C46.8766 93.9615 46.4763 94.3541 46.2104 94.8339C45.9444 95.3137 45.8243 95.8601 45.8646 96.4066C46.1241 95.8783 46.5432 95.444 47.0631 95.1646C47.583 94.8852 48.1777 94.7747 48.764 94.8485C51.2406 95.4968 53.8534 95.4133 56.2831 94.608C57.6361 94.1175 57.6845 94.9543 57.4525 95.8968C59.2695 95.1947 59.7527 92.5016 57.5298 92.896C56.9969 93.0182 56.4529 93.0858 55.9062 93.098C55.3939 93.098 55.0267 93.0018 55.1233 92.2708C56.0318 91.838 55.5776 90.857 55.3456 89.8952H55.5099C60.7288 84.5956 58.158 79.9886 62.0432 72.6692C58.1774 77.3051 56.0318 82.9605 53.5383 81.0465C51.2478 79.2864 56.1091 72.2653 59.2598 66.0135C59.3459 66.896 59.2838 67.7866 59.0762 68.6489C59.8215 67.8871 60.4043 66.9831 60.7897 65.9914C61.175 64.9997 61.3548 63.9407 61.3184 62.878C61.8774 63.8948 62.2072 65.0206 62.2848 66.177C62.8786 65.0354 63.1836 63.7668 63.1735 62.4814C63.1634 61.1959 62.8384 59.9323 62.2269 58.8C63.2923 59.6519 64.1208 60.7611 64.6334 62.022V62.022ZM44.0959 59.9926C43.8157 59.9926 43.5837 59.6752 43.5837 59.6752C43.5837 59.6752 43.8157 59.3578 44.0959 59.3578C44.3762 59.3578 44.6082 59.6752 44.6082 59.6752C44.6082 59.6752 44.3762 59.9926 44.0959 59.9926ZM51.2961 59.9926C50.7628 59.9617 50.254 59.7592 49.8464 59.4155C50.254 59.0719 50.7628 58.8694 51.2961 58.8385C51.8293 58.8701 52.3378 59.0725 52.7458 59.4155C52.3352 59.7605 51.823 59.9631 51.2864 59.9926H51.2961Z" fill="#DADADA"/>
<path d="M41.2642 63.4358C41.2642 63.4358 40.1914 64.3977 36.3449 62.551C33.8997 61.3776 31.4255 63.5416 31.4255 63.5416C32.6809 63.4238 33.9455 63.6292 35.0981 64.138C40.0851 67.0234 41.2642 63.4358 41.2642 63.4358Z" fill="#DADADA"/>
<path fill-rule="evenodd" clip-rule="evenodd" d="M232.538 73.9965V56.8763H231.04V73.9965H232.538ZM231.02 85.4612H225.686V81.4312H226.981V56.8667H225.686V52.9618H234.297L236.626 55.3663V75.67L234.538 77.6802L234.326 77.9014H231.02V85.4612Z" fill="#DADADA"/>
<path fill-rule="evenodd" clip-rule="evenodd" d="M179.025 73.9677V63.282H177.527V73.9677H179.025ZM177.575 85.5093H172.182V81.4313H173.458V63.2916H172.172V59.2424H180.793L183.132 61.7239V75.6412L181.045 77.661L180.822 77.8726H177.575V85.5093Z" fill="#DADADA"/>
<path fill-rule="evenodd" clip-rule="evenodd" d="M224.014 59.2424V85.4612H214.397V59.2424H224.014ZM218.447 81.4313H219.974V63.282H218.447V81.4313Z" fill="#DADADA"/>
<path fill-rule="evenodd" clip-rule="evenodd" d="M212.735 59.2328C212.735 59.781 212.735 68.6681 212.735 69.2548H208.56V63.282H207.052C207.052 69.335 207.052 75.3879 207.052 81.4409H208.221V85.4708H201.736V81.4313H202.896V63.282H201.35V69.2548H197.165V59.2328H212.735Z" fill="#DADADA"/>
<path fill-rule="evenodd" clip-rule="evenodd" d="M159.579 85.4709V81.4313H160.865V63.282H159.579V59.2424H170.597V63.282H165.02V68.7932H169.36V72.7173H164.982V81.4313H170.548V85.4709H159.579Z" fill="#DADADA"/>
<path fill-rule="evenodd" clip-rule="evenodd" d="M188.689 63.282V73.9292H190.313V63.282H188.689ZM194.401 63.282V81.4313H195.706V85.4708H190.313V77.8822H188.689V85.4708H183.277V81.4313H184.572V61.7527L186.998 59.2328H195.696V63.2724L194.401 63.282Z" fill="#DADADA"/>
<path fill-rule="evenodd" clip-rule="evenodd" d="M157.917 81.4504V85.4804H152.543V63.2915H150.929V63.6282C150.929 70.9122 150.929 78.1995 150.929 85.49H145.546V81.4504H146.87V63.2915H145.585V59.252H157.965V63.2915H156.68V81.4504H157.917Z" fill="#DADADA"/>
<path fill-rule="evenodd" clip-rule="evenodd" d="M127.473 81.4313V63.282H126.168V59.2328H131.629V60.6082L131.822 60.8294L135.099 64.0707L138.481 60.8294L138.675 60.6082V59.2328H144.135V63.282H142.83L142.821 81.4313H144.135V85.4708H138.665V66.3405L138.23 66.7926L137.215 67.7736V85.4708H133.079V67.764L132.093 66.7541L131.629 66.2828V85.4708H126.168V81.4313H127.473Z" fill="#DADADA"/>
<path fill-rule="evenodd" clip-rule="evenodd" d="M117.973 52.9618V64.7054L119.471 63.5417C119.471 60.6562 119.471 55.8472 119.471 52.9618H124.844V56.9918H123.665V81.412H124.96V85.4708H119.48V68.8123L117.973 70.0819V85.4708H112.561V81.412H113.846V57.011H112.58V52.9618H117.973Z" fill="#DADADA"/>
<path d="M168.461 96.2431V92.0785H167.234V91.5206H170.326V92.0785H169.109V96.2431H168.461Z" fill="#DADADA"/>
<path d="M174.366 93.8481C174.366 95.7717 173.719 96.32 172.685 96.32C171.65 96.32 171.003 95.7621 171.003 93.8385C171.003 92.2804 171.525 91.3955 172.685 91.3955C173.844 91.3955 174.366 92.2804 174.366 93.8481ZM171.699 93.9058C171.699 95.0119 171.911 95.7525 172.665 95.7525C173.419 95.7525 173.632 95.0119 173.632 93.9058C173.632 92.492 173.351 91.9822 172.665 91.9822C171.979 91.9822 171.699 92.492 171.699 93.9154V93.9058Z" fill="#DADADA"/>
<path d="M176.183 92.0496C176.27 91.8644 176.405 91.7065 176.576 91.5928C176.746 91.4792 176.945 91.4143 177.15 91.4052C178.338 91.4052 178.686 92.4824 178.686 93.7904C178.686 95.0985 178.367 96.3296 177.188 96.3296C176.988 96.3221 176.793 96.2621 176.623 96.1557C176.454 96.0493 176.315 95.9003 176.222 95.7237V97.83H175.555V91.5206H176.222L176.183 92.0496ZM176.183 93.8578C176.183 94.7522 176.231 95.7814 177.082 95.7814C177.778 95.7814 178 95.06 178 93.8C178 93.1845 177.932 91.9822 177.034 91.9822C176.135 91.9822 176.183 93.0402 176.183 93.8481V93.8578Z" fill="#DADADA"/>
<path d="M182.31 91.5206V92.0785H180.494V96.2431H179.827V91.5206H182.31Z" fill="#DADADA"/>
<path d="M186.321 93.8481C186.321 95.7717 185.674 96.32 184.64 96.32C183.606 96.32 182.958 95.7621 182.958 93.8385C182.958 92.2804 183.48 91.3955 184.64 91.3955C185.799 91.3955 186.321 92.2804 186.321 93.8481ZM183.654 93.9058C183.654 95.0119 183.866 95.7525 184.62 95.7525C185.374 95.7525 185.587 95.0119 185.587 93.9058C185.587 92.492 185.307 91.9822 184.62 91.9822C183.934 91.9822 183.664 92.492 183.664 93.9154L183.654 93.9058Z" fill="#DADADA"/>
<path d="M187.471 91.5206H188.998C189.157 91.5047 189.316 91.5214 189.467 91.5699C189.619 91.6184 189.758 91.6976 189.877 91.8024C189.996 91.9073 190.092 92.0355 190.159 92.179C190.225 92.3225 190.261 92.4782 190.265 92.6363C190.289 92.8779 190.23 93.1207 190.096 93.3239C189.962 93.527 189.763 93.6782 189.53 93.752V93.752C189.789 93.8096 190.018 93.9599 190.173 94.1745C190.328 94.3891 190.399 94.6529 190.371 94.9158C190.384 95.0762 190.364 95.2376 190.312 95.3899C190.26 95.5423 190.177 95.6823 190.068 95.8014C189.959 95.9205 189.827 96.016 189.68 96.0821C189.532 96.1481 189.373 96.1833 189.211 96.1854H187.471V91.5206ZM188.138 93.4442H188.844C189.356 93.4442 189.588 93.2423 189.588 92.7325C189.588 92.2227 189.356 92.0689 188.873 92.0689H188.138V93.4442ZM188.138 95.6275H188.921C189.54 95.6275 189.694 95.3678 189.694 94.81C189.712 94.7025 189.704 94.5925 189.671 94.4886C189.638 94.3848 189.581 94.2899 189.506 94.2116C189.43 94.1332 189.336 94.0735 189.233 94.0371C189.13 94.0008 189.02 93.9888 188.911 94.0021H188.138V95.6275Z" fill="#DADADA"/>
<path d="M192.188 93.4539H193.154C193.335 93.4546 193.514 93.4926 193.68 93.5654C193.846 93.6382 193.994 93.7444 194.117 93.8771C194.239 94.0099 194.333 94.1664 194.392 94.3369C194.451 94.5073 194.474 94.6881 194.459 94.8677C194.478 95.0488 194.456 95.2317 194.397 95.4038C194.337 95.5758 194.24 95.7328 194.113 95.8638C193.986 95.9948 193.832 96.0966 193.661 96.1621C193.491 96.2276 193.308 96.2553 193.125 96.2431H191.511V91.5206H192.178L192.188 93.4539ZM192.188 95.6372H192.893C193.531 95.6372 193.734 95.3679 193.734 94.8389C193.734 94.3099 193.512 94.0117 192.932 94.0117H192.188V95.6372ZM195.87 96.195H195.203V91.5206H195.87V96.195Z" fill="#DADADA"/>
<path d="M197.851 91.5205V95.0792C197.846 95.2668 197.823 95.4536 197.784 95.6371V95.6371C197.818 95.4479 197.867 95.2615 197.929 95.0792L199.485 91.5205H200.287V96.243H199.62V92.6555C199.63 92.4619 199.653 92.2692 199.687 92.0784V92.0784C199.656 92.2737 199.611 92.4666 199.552 92.6555L197.996 96.243H197.184V91.5205H197.851ZM198.035 90.0105C198.057 90.1841 198.146 90.3424 198.283 90.4519C198.42 90.5615 198.594 90.6136 198.769 90.5972C198.855 90.6079 198.943 90.6009 199.026 90.5769C199.109 90.5528 199.187 90.512 199.254 90.4571C199.321 90.4022 199.376 90.3342 199.415 90.2575C199.455 90.1807 199.479 90.0966 199.485 90.0105H199.832C199.846 90.1553 199.826 90.3011 199.774 90.4371C199.723 90.5731 199.641 90.6957 199.535 90.7957C199.429 90.8957 199.301 90.9704 199.162 91.0143C199.023 91.0583 198.875 91.0702 198.731 91.0492C198.591 91.0594 198.452 91.0395 198.321 90.9908C198.19 90.942 198.071 90.8657 197.973 90.767C197.875 90.6682 197.799 90.5495 197.752 90.4189C197.704 90.2883 197.685 90.149 197.697 90.0105H198.035Z" fill="#DADADA"/>
<path d="M204.491 93.7039L206.086 91.5206H206.878L205.457 93.3577L206.955 96.2431H206.172L205.003 93.9155L204.491 94.5792V96.2431H203.824V91.5206H204.491V93.7039Z" fill="#DADADA"/>
<path d="M210.831 93.8481C210.831 95.7717 210.183 96.32 209.149 96.32C208.115 96.32 207.468 95.7621 207.468 93.8385C207.468 92.2804 207.989 91.3955 209.149 91.3955C210.309 91.3955 210.831 92.2804 210.831 93.8481ZM208.163 93.9058C208.163 95.0119 208.376 95.7525 209.13 95.7525C209.884 95.7525 210.096 95.0119 210.096 93.9058C210.096 92.492 209.816 91.9822 209.13 91.9822C208.444 91.9822 208.163 92.492 208.163 93.9154V93.9058Z" fill="#DADADA"/>
<path d="M213.015 91.5206L213.866 94.5984C213.924 94.8196 213.982 95.2332 214.03 95.5602C214.078 95.2428 214.117 94.8677 214.185 94.5984L215.035 91.5206H216.069V96.2431H215.431V92.0785L214.252 96.2431H213.817L212.638 92.1266V96.2431H212V91.5206H213.015Z" fill="#DADADA"/>
<path d="M220.418 91.5206V96.2431H219.752V92.0785H218.089V96.2431H217.422V91.5206H220.418Z" fill="#DADADA"/>
<path d="M224.767 91.5206V96.2431H224.1V92.0785H222.641V93.9348C222.641 95.2813 222.467 96.2335 221.617 96.2335C221.479 96.2434 221.34 96.2237 221.211 96.1758V95.6468C221.307 95.6564 221.404 95.6564 221.501 95.6468C221.858 95.6468 221.994 95.3582 221.994 93.8482V91.5206H224.767Z" fill="#DADADA"/>
<path d="M228.884 94.6368C228.884 95.5986 228.45 96.32 227.464 96.32C226.478 96.32 225.908 95.7333 225.908 93.8481C225.908 92.6747 226.169 91.3955 227.415 91.3955C228.662 91.3955 228.884 92.7805 228.884 94.0116H226.604C226.604 95.0792 226.662 95.7525 227.444 95.7525C228.227 95.7525 228.208 95.1658 228.208 94.6368H228.884ZM228.189 93.4538C228.189 92.742 228.092 91.9534 227.425 91.9534C226.758 91.9534 226.604 92.8286 226.604 93.4538H228.189Z" fill="#DADADA"/>
<path d="M230.702 93.7039L232.325 91.5206H233.147L231.668 93.3577L233.147 96.2431H232.364L231.214 93.8674L230.702 94.5311V96.2431H230.035V91.5206H230.702V93.7039Z" fill="#DADADA"/>
<path d="M234.384 93.9251C234.384 94.6849 234.384 95.7621 235.283 95.7621C236.181 95.7621 236.075 95.137 236.114 94.5695H236.752C236.752 95.4544 236.384 96.32 235.331 96.32C233.9 96.32 233.698 95.1273 233.698 93.9251C233.698 92.7228 233.978 91.4052 235.321 91.4052C235.523 91.4052 235.722 91.4477 235.906 91.5298C236.09 91.6119 236.255 91.7319 236.389 91.8817C236.523 92.0316 236.624 92.208 236.685 92.3994C236.746 92.5907 236.765 92.7927 236.742 92.9921H236.104C236.104 92.4824 235.94 91.963 235.302 91.963C234.5 91.963 234.384 92.944 234.384 93.9251Z" fill="#DADADA"/>
<path d="M165.185 93.5885V94.1848H160.961V93.5885H165.185Z" fill="#DADADA"/>
<path d="M113.305 93.8963C113.305 94.6561 113.305 95.7333 114.204 95.7333C115.102 95.7333 114.996 95.1081 115.035 94.5407H115.663C115.663 95.4255 115.296 96.2912 114.242 96.2912C112.812 96.2912 112.609 95.0985 112.609 93.8963C112.609 92.694 112.889 91.3763 114.233 91.3763C114.434 91.3764 114.634 91.4188 114.818 91.501C115.002 91.5831 115.166 91.703 115.3 91.8529C115.435 92.0028 115.535 92.1792 115.596 92.3706C115.657 92.5619 115.676 92.7639 115.653 92.9633H115.025C115.025 92.4536 114.861 91.9342 114.223 91.9342C113.401 91.9342 113.305 92.9249 113.305 93.8963Z" fill="#DADADA"/>
<path d="M116.581 92.7614C116.551 92.576 116.565 92.3862 116.621 92.207C116.678 92.0279 116.776 91.8645 116.907 91.7299C117.039 91.5952 117.2 91.4931 117.379 91.4317C117.557 91.3703 117.747 91.3514 117.934 91.3763C118.103 91.3519 118.274 91.365 118.437 91.4146C118.6 91.4642 118.749 91.5491 118.875 91.6632C119.001 91.7772 119.099 91.9177 119.164 92.0743C119.229 92.2309 119.258 92.3999 119.249 92.569V95.2813C119.249 95.5025 119.326 95.6564 119.5 95.6564H119.645V96.1469C119.559 96.182 119.467 96.1984 119.374 96.195C118.968 96.195 118.756 96.1469 118.649 95.5121C118.568 95.723 118.427 95.9059 118.244 96.039C118.06 96.1721 117.842 96.2496 117.615 96.2623C116.794 96.2623 116.407 95.8199 116.407 94.9735C116.407 94.1271 116.755 93.8482 117.577 93.5308C117.886 93.4154 118.34 93.2134 118.408 93.1845C118.475 93.1557 118.582 92.8671 118.582 92.6363C118.582 92.0977 118.408 91.915 117.867 91.915C117.325 91.915 117.18 92.1939 117.18 92.7421L116.581 92.7614ZM117.093 94.9831C117.093 95.3967 117.267 95.7045 117.722 95.7045C118.417 95.7045 118.582 95.2428 118.582 94.7427V93.627C117.886 94.0309 117.093 94.079 117.093 94.9831V94.9831Z" fill="#DADADA"/>
<path d="M120.785 91.5013L121.897 95.2332L122.969 91.5013H123.665L122.177 96.243C121.916 97.0991 121.674 97.8108 120.737 97.8108C120.576 97.8108 120.416 97.7848 120.263 97.7338V97.1471C120.418 97.2165 120.586 97.2526 120.756 97.2529C121.23 97.2529 121.423 96.8297 121.587 96.2911L120.07 91.5013H120.785Z" fill="#DADADA"/>
<path d="M124.641 93.0402V91.5013H127.212V95.6179H127.657V97.4453H127.038V96.1757H124.303V97.4453H123.685V95.6179H124.09C124.506 94.8243 124.696 93.9333 124.641 93.0402ZM126.574 92.0784H125.289V93.3576C125.312 94.1266 125.136 94.8885 124.777 95.5698H126.545L126.574 92.0784Z" fill="#DADADA"/>
<path d="M128.469 92.7614C128.438 92.576 128.452 92.3862 128.509 92.207C128.565 92.0279 128.663 91.8645 128.795 91.7299C128.926 91.5952 129.088 91.4931 129.266 91.4317C129.444 91.3703 129.635 91.3514 129.822 91.3763C129.99 91.3519 130.162 91.365 130.324 91.4146C130.487 91.4642 130.637 91.5491 130.762 91.6632C130.888 91.7772 130.987 91.9177 131.052 92.0743C131.116 92.2309 131.145 92.3999 131.136 92.569V95.2813C131.136 95.5025 131.213 95.6564 131.387 95.6564H131.532V96.1469C131.447 96.182 131.354 96.1984 131.262 96.195C130.856 96.195 130.643 96.1469 130.537 95.5121C130.455 95.723 130.314 95.9059 130.131 96.039C129.948 96.1721 129.729 96.2496 129.503 96.2623C128.681 96.2623 128.295 95.8199 128.295 94.9735C128.295 94.1271 128.643 93.8482 129.464 93.5308C129.773 93.4154 130.228 93.2134 130.295 93.1845C130.363 93.1557 130.469 92.8671 130.469 92.6363C130.469 92.0977 130.295 91.915 129.754 91.915C129.213 91.915 129.068 92.1939 129.068 92.7421L128.469 92.7614ZM128.981 94.9831C128.981 95.3967 129.155 95.7045 129.609 95.7045C130.305 95.7045 130.469 95.2428 130.469 94.7427V93.627C129.735 94.0309 128.971 94.079 128.971 94.9831H128.981Z" fill="#DADADA"/>
<path d="M135.321 93.675L136.945 91.4917H137.737L136.287 93.3576L137.785 96.243H137.003L135.833 93.9154L135.321 94.5791V96.243H134.654V91.5013H135.321V93.675Z" fill="#DADADA"/>
<path d="M141.274 94.6176C141.274 95.5794 140.839 96.3008 139.854 96.3008C138.868 96.3008 138.298 95.7141 138.298 93.8289C138.298 92.6555 138.559 91.3763 139.805 91.3763C141.052 91.3763 141.274 92.7613 141.274 93.9925H138.993C138.993 95.0601 139.051 95.7333 139.834 95.7333C140.617 95.7333 140.598 95.1466 140.598 94.6176H141.274ZM140.578 93.4346C140.578 92.7229 140.482 91.9342 139.815 91.9342C139.148 91.9342 138.993 92.8094 138.993 93.4346H140.578Z" fill="#DADADA"/>
<path d="M143.091 95.6179H144.618V91.5013H145.285V95.6179H146.812V91.5013H147.479V96.1757H142.415V91.5013H143.082L143.091 95.6179Z" fill="#DADADA"/>
<path d="M151.606 94.6176C151.606 95.5794 151.171 96.3008 150.185 96.3008C149.199 96.3008 148.629 95.7141 148.629 93.8289C148.629 92.6555 148.89 91.3763 150.137 91.3763C151.384 91.3763 151.606 92.7613 151.606 93.9925H149.325C149.325 95.0601 149.383 95.7333 150.166 95.7333C150.949 95.7333 150.929 95.1466 150.929 94.6176H151.606ZM150.91 93.4346C150.91 92.7229 150.813 91.9342 150.147 91.9342C149.48 91.9342 149.325 92.8094 149.325 93.4346H150.91Z" fill="#DADADA"/>
<path d="M153.423 93.4346H155.085V91.511H155.752V96.1853H155.085V93.9924H153.423V96.1757H152.756V91.5013H153.423V93.4346Z" fill="#DADADA"/>
<path d="M157.066 90.7126V89.8759H157.762V90.7126H157.066ZM157.733 96.1757H157.066V91.5013H157.762L157.733 96.1757Z" fill="#DADADA"/>
</g>
<defs>
<clipPath id="clip0_1456_1887">
<rect width="205.858" height="46.1667" fill="white" transform="translate(31.155 52)"/>
</clipPath>
</defs>
</svg>
