<svg width="268" height="150" viewBox="0 0 268 150" fill="none" xmlns="http://www.w3.org/2000/svg">
<path fill-rule="evenodd" clip-rule="evenodd" d="M121.809 28.4768C120.278 30.2858 120.174 32.6223 121.545 34.3569C122.942 36.1231 125.119 36.3986 128.185 35.1959L130.713 34.2047L129.979 35.6182C129.211 37.0941 128.991 41.2204 129.626 42.2148C129.872 42.5988 130.646 41.9523 131.952 40.2744C134.061 37.5626 137.829 34.822 141.601 33.2563L143.959 32.2777L135.446 32.3986C127.654 32.5095 126.847 32.4423 125.918 31.6053C124.64 30.4557 124.619 29.1714 125.864 28.3041C127.074 27.4603 126.636 27 124.623 27C123.467 27 122.731 27.3864 121.809 28.4768ZM110.436 37.4392L110.445 42.5988L111.876 40.199C112.662 38.8791 113.31 37.0975 113.315 36.2393C113.322 34.7956 113.442 34.6794 114.918 34.6794C115.862 34.6794 117.18 34.1894 118.147 33.4795L119.782 32.2796H115.105H110.428L110.436 37.4392ZM144.125 34.0795C141.893 36.0819 139.87 39.9057 139.863 42.1376C139.86 42.9396 140.292 44.4428 140.823 45.4786C141.988 47.7527 141.981 47.6389 140.943 47.6356C139.164 47.6303 136.311 46.5532 135.232 45.48C133.946 44.2009 133.876 44.3027 133.317 48.2422C133.074 49.9523 132.634 50.8259 131.564 51.722C129.733 53.2535 129.071 53.2291 128.261 51.5981L127.606 50.2782L127.34 52.1818C127.132 53.6601 126.707 54.3306 125.433 55.1815C123.091 56.7477 122.292 56.583 121.267 54.3214C120.405 52.4213 120.406 52.3171 121.271 50.7188C122.351 48.7246 122.034 48.2441 120.359 49.3356C119.114 50.1472 119.11 50.1453 118.799 48.6003C118.522 47.2199 118.432 47.1484 117.975 47.9447C117.693 48.4361 117.454 50.4582 117.443 52.4381C117.42 56.7121 118.394 58.7587 121.113 60.1472C123.023 61.1235 124.419 62.3349 124.419 63.0165C124.419 63.2531 124.094 63.3227 123.696 63.171C122.745 62.8077 122.766 63.6692 123.727 64.4636C124.691 65.2589 125.867 67.5085 125.867 68.5562C125.867 69.219 125.526 69.3179 123.96 69.1087C122.911 68.9685 121.412 68.4002 120.628 67.8454C118.946 66.6536 118.424 66.5711 118.805 67.5569C119.153 68.4597 117.982 68.5154 117.244 67.6313C116.948 67.2761 116.569 66.3042 116.401 65.4715C116.102 63.9836 115.306 63.3793 115.197 64.5572C114.953 67.1979 116.242 69.4485 118.992 71.184C121.641 72.8552 122.406 72.9037 126.108 71.6366C128.96 70.6604 131.926 70.4041 132.941 71.0463C133.612 71.471 132.505 74.5164 131.679 74.5164C131.401 74.5164 131.174 74.7468 131.174 75.0285C131.174 75.8949 133.259 75.0117 134.619 73.5694C135.487 72.6493 136.001 71.4355 136.232 69.7672C136.615 67.0007 137.106 66.7803 139.827 68.1578C140.938 68.7204 141.674 69.5502 142.06 70.6767L142.636 72.3566L142.998 70.9949C143.547 68.9311 142.048 67.2901 138.427 65.9908C136.761 65.3933 134.735 64.3484 133.923 63.6692C132.868 62.7861 132.05 62.4919 131.054 62.6373C129.766 62.825 129.684 62.7467 129.967 61.5991C130.962 57.5698 135.386 55.2051 140.363 56.0416C142.619 56.4208 145.873 58.7198 147.451 61.0486C149.091 63.47 148.763 63.9246 147.061 61.5876C145.093 58.8845 142.014 57.5002 138.81 57.878C137.526 58.0292 136.117 58.3522 135.68 58.596C134.394 59.3116 136.717 60.5082 140.109 60.8768C143.56 61.2516 146.784 62.9483 148.088 65.075C150.681 69.3069 147.554 76.4223 141.609 79.8142C138.528 81.5728 138.031 81.6016 139.588 79.9309C140.697 78.741 142.506 74.5913 142.095 74.1819C142 74.0878 141.359 74.7444 140.672 75.6414C139.154 77.6213 135.091 80.3484 132.139 81.3693C130.08 82.0811 130.761 82.1219 145.285 82.1579L160.603 82.1958L160.6 61.1974C160.599 48.3555 160.406 39.5117 160.104 38.4299C159.832 37.457 158.948 36.1073 158.14 35.4301C154.612 32.4769 148.144 35.0173 148.076 39.3831C148.049 41.1671 149.346 43.1364 150.998 43.817L152.535 44.45L151.45 45.3245C150.761 45.8798 149.575 46.1985 148.199 46.1985C146.379 46.1985 145.771 45.9379 144.393 44.5667C142.997 43.1786 142.752 42.6012 142.752 40.703C142.752 37.1786 144.576 34.5484 148.063 33.0442L149.748 32.317L147.94 32.2983C146.515 32.2834 145.708 32.6602 144.125 34.0795ZM110.428 77.5642V82.1958L115.615 82.1901L120.801 82.1843L118.701 80.9901C117.546 80.3336 115.864 79.796 114.962 79.796C113.461 79.796 113.323 79.6741 113.323 78.3518C113.323 77.509 112.72 76.0801 111.876 74.9201L110.428 72.9325V77.5642ZM182.734 89.2753C182.122 90.0523 182.144 90.0624 183.037 89.4111C183.568 89.0238 184.093 88.6461 184.203 88.5712C184.314 88.4963 184.177 88.4353 183.9 88.4353C183.623 88.4353 183.098 88.8131 182.734 89.2753ZM186.173 88.9801C186.571 89.3406 187.209 89.9592 187.59 90.3552C188.128 90.9134 188.119 90.8112 187.549 89.9016C187.145 89.2561 186.507 88.6374 186.131 88.5265C185.582 88.3643 185.59 88.4526 186.173 88.9801ZM184.337 91.3151C184.328 92.2391 184.432 92.7161 184.569 92.3749C184.734 91.9674 185.01 91.9117 185.375 92.2127C185.772 92.5386 185.947 92.2688 185.983 91.2724C186.011 90.504 185.836 89.8752 185.593 89.8752C185.35 89.8752 185.276 90.0763 185.428 90.3221C185.581 90.5678 185.502 90.8942 185.252 91.0478C185.003 91.2014 184.699 90.946 184.577 90.4809C184.455 90.0159 184.347 90.3912 184.337 91.3151ZM181.838 91.115C181.842 91.6209 182.066 92.359 182.335 92.755C182.693 93.2806 182.738 93.0867 182.501 92.0351C182.104 90.2702 181.828 89.8872 181.838 91.115ZM187.207 92.635C186.681 93.8589 186.693 93.8873 187.371 93.0233C187.774 92.5107 188.103 91.917 188.103 91.7034C188.103 90.9739 187.776 91.3146 187.207 92.635ZM100.538 92.7041C93.7394 94.5242 90.4134 98.4181 90.4505 104.514C90.477 108.877 91.7565 111.456 94.8654 113.418C96.9925 114.76 97.3785 114.833 102.321 114.833C107.155 114.833 107.534 114.766 107.534 113.904C107.534 113.127 107.275 113.012 105.966 113.207C103.859 113.519 101.304 112.144 100.074 110.034C99.3073 108.717 99.0994 107.523 99.1134 104.514C99.1505 96.613 102.39 93.4591 108.682 95.1976C110.222 95.6228 110.688 95.582 111.305 94.9676C111.985 94.2919 111.876 94.145 110.157 93.4226C108.005 92.5184 102.709 92.1229 100.538 92.7041ZM118.708 95.7294C117.964 97.3934 116.186 101.545 114.756 104.954C112.722 109.804 111.864 111.319 110.813 111.914C109.97 112.39 109.468 113.076 109.466 113.753C109.463 114.794 109.623 114.833 113.805 114.833C118.115 114.833 118.147 114.824 118.147 113.633C118.147 112.681 117.904 112.434 116.97 112.434C116.322 112.434 115.668 112.233 115.516 111.989C115.139 111.383 120.163 98.8818 120.597 99.3449C120.869 99.6358 125.072 108.982 126.213 111.834C126.367 112.221 126.007 112.434 125.195 112.434C124.175 112.434 123.937 112.661 123.937 113.633V114.833H129.407C134.646 114.833 134.9 114.786 135.383 113.731C135.819 112.781 135.713 112.528 134.616 111.899C133.655 111.348 132.318 108.95 129.145 102.083L124.945 92.995L122.503 92.8496L120.06 92.7041L118.708 95.7294ZM141.667 103.448C139.08 109.35 136.963 114.326 136.963 114.506C136.963 114.686 138.591 114.833 140.581 114.833C144.119 114.833 144.2 114.806 144.2 113.633C144.2 112.681 143.957 112.434 143.022 112.434C141.463 112.434 141.219 111.922 141.909 110.104L142.481 108.594H146.953H151.423L152.154 110.332C153.078 112.533 153.1 112.434 151.678 112.434C150.713 112.434 150.472 112.674 150.472 113.633V114.833H156.502C162.435 114.833 162.533 114.816 162.532 113.753C162.531 113.086 162.042 112.399 161.249 111.954C160.273 111.405 158.953 109.057 155.715 102.114L151.462 92.995L148.916 92.8568L146.371 92.7185L141.667 103.448ZM156.436 94.3149C158.414 98.9197 159.242 99.6132 160.096 97.3799C160.586 96.096 161.496 95.6348 163.537 95.6348H164.945V105.234V114.833H170.011H175.077V113.633C175.077 112.674 174.835 112.434 173.87 112.434H172.664V103.756V95.0785L174.232 95.4102C176.003 95.7845 177.489 96.9062 177.489 97.869C177.489 98.2866 178.085 98.5146 179.177 98.5146H180.866V95.6348V92.755H168.316H155.766L156.436 94.3149ZM183.69 93.8364C183.933 94.0783 184.645 94.1959 185.273 94.0975C186.239 93.9463 186.171 93.8791 184.831 93.6578C183.872 93.4999 183.422 93.57 183.69 93.8364ZM148.794 102.724C149.528 104.38 150.015 105.848 149.874 105.989C149.733 106.128 148.31 106.178 146.711 106.098L143.803 105.954L145.284 102.454C146.098 100.529 146.92 99.1251 147.111 99.3339C147.301 99.5431 148.059 101.069 148.794 102.724Z" fill="#DADADA"/>
</svg>
