<svg width="268" height="150" viewBox="0 0 268 150" fill="none" xmlns="http://www.w3.org/2000/svg">
<g clip-path="url(#clip0_1456_1943)">
<path d="M102.343 84.5012V68.0459H106.052V70.8419H106.245C106.588 69.8992 107.156 69.1635 107.949 68.635C108.743 68.0994 109.689 67.8315 110.79 67.8315C111.905 67.8315 112.845 68.1029 113.609 68.6457C114.381 69.1814 114.925 69.9135 115.239 70.8419H115.41C115.775 69.9277 116.389 69.1992 117.254 68.6564C118.126 68.1065 119.159 67.8315 120.352 67.8315C121.867 67.8315 123.104 68.31 124.062 69.267C125.019 70.2242 125.498 71.6204 125.498 73.456V84.5012H121.607V74.0559C121.607 73.0345 121.335 72.2882 120.792 71.8169C120.249 71.3384 119.584 71.099 118.798 71.099C117.862 71.099 117.129 71.3919 116.6 71.9775C116.079 72.556 115.818 73.3095 115.818 74.238V84.5012H112.012V73.8952C112.012 73.0454 111.755 72.3667 111.24 71.8597C110.733 71.3525 110.068 71.099 109.246 71.099C108.689 71.099 108.182 71.2419 107.724 71.5275C107.267 71.8062 106.902 72.2025 106.631 72.7167C106.359 73.2239 106.223 73.8167 106.223 74.4952V84.5012H102.343Z" fill="#DADADA"/>
<path d="M134.173 84.8334C133.13 84.8334 132.19 84.6477 131.354 84.2762C130.525 83.8977 129.867 83.3407 129.381 82.605C128.902 81.8694 128.663 80.9624 128.663 79.8839C128.663 78.9554 128.835 78.1875 129.178 77.5805C129.521 76.9735 129.989 76.4879 130.582 76.1235C131.175 75.7594 131.843 75.4844 132.587 75.2987C133.337 75.1059 134.112 74.9665 134.913 74.8809C135.878 74.7809 136.66 74.6915 137.261 74.613C137.861 74.5272 138.297 74.3987 138.568 74.2274C138.847 74.0487 138.986 73.7737 138.986 73.4024V73.338C138.986 72.531 138.747 71.906 138.268 71.4634C137.789 71.0205 137.1 70.799 136.199 70.799C135.249 70.799 134.495 71.0062 133.937 71.4205C133.387 71.8347 133.015 72.3239 132.822 72.8882L129.199 72.3739C129.485 71.374 129.957 70.5384 130.614 69.867C131.272 69.1885 132.076 68.6814 133.026 68.3457C133.977 68.0029 135.027 67.8315 136.178 67.8315C136.971 67.8315 137.761 67.9244 138.547 68.11C139.333 68.2957 140.051 68.6029 140.702 69.0314C141.352 69.4529 141.874 70.0277 142.267 70.7562C142.667 71.4847 142.867 72.3954 142.867 73.488V84.5012H139.137V82.2407H139.008C138.772 82.6979 138.44 83.1264 138.011 83.5264C137.589 83.9192 137.057 84.237 136.414 84.4799C135.778 84.7155 135.031 84.8334 134.173 84.8334ZM135.181 81.9837C135.96 81.9837 136.635 81.83 137.207 81.523C137.779 81.2087 138.218 80.7945 138.525 80.2802C138.84 79.766 138.997 79.2054 138.997 78.5984V76.6592C138.876 76.7592 138.668 76.852 138.375 76.9377C138.089 77.0234 137.768 77.0984 137.411 77.1627C137.053 77.227 136.7 77.2842 136.349 77.3342C135.999 77.3842 135.695 77.427 135.438 77.4627C134.859 77.5412 134.341 77.6699 133.884 77.8484C133.426 78.0269 133.065 78.2769 132.801 78.5984C132.537 78.9125 132.404 79.3197 132.404 79.8195C132.404 80.5339 132.665 81.073 133.187 81.4374C133.709 81.8015 134.373 81.9837 135.181 81.9837Z" fill="#DADADA"/>
<path d="M149.942 68.0457L153.266 74.12L156.642 68.0457H160.748L155.785 76.2733L160.834 84.501H156.75L153.266 78.5767L149.814 84.501H145.697L150.714 76.2733L145.826 68.0457H149.942Z" fill="#DADADA"/>
<path d="M163.749 84.5012V68.0458H167.63V84.5012H163.749ZM165.7 65.7103C165.086 65.7103 164.557 65.5067 164.114 65.0996C163.671 64.6854 163.449 64.189 163.449 63.6105C163.449 63.0249 163.671 62.5285 164.114 62.1214C164.557 61.7071 165.086 61.5 165.7 61.5C166.322 61.5 166.851 61.7071 167.287 62.1214C167.73 62.5285 167.952 63.0249 167.952 63.6105C167.952 64.189 167.73 64.6854 167.287 65.0996C166.851 65.5067 166.322 65.7103 165.7 65.7103Z" fill="#DADADA"/>
<path d="M171.621 84.5012V68.0459H175.33V70.8419H175.523C175.866 69.8992 176.434 69.1635 177.227 68.635C178.02 68.0994 178.967 67.8315 180.068 67.8315C181.183 67.8315 182.123 68.1029 182.887 68.6457C183.659 69.1814 184.202 69.9135 184.517 70.8419H184.688C185.053 69.9277 185.667 69.1992 186.532 68.6564C187.404 68.1065 188.437 67.8315 189.63 67.8315C191.145 67.8315 192.382 68.31 193.339 69.267C194.297 70.2242 194.776 71.6204 194.776 73.456V84.5012H190.884V74.0559C190.884 73.0345 190.613 72.2882 190.07 71.8169C189.527 71.3384 188.862 71.099 188.076 71.099C187.14 71.099 186.407 71.3919 185.878 71.9775C185.356 72.556 185.096 73.3095 185.096 74.238V84.5012H181.29V73.8952C181.29 73.0454 181.033 72.3667 180.518 71.8597C180.011 71.3525 179.346 71.099 178.524 71.099C177.967 71.099 177.459 71.2419 177.002 71.5275C176.545 71.8062 176.18 72.2025 175.909 72.7167C175.637 73.2239 175.501 73.8167 175.501 74.4952V84.5012H171.621Z" fill="#DADADA"/>
<path d="M203.451 84.8334C202.408 84.8334 201.468 84.6477 200.632 84.2762C199.803 83.8977 199.145 83.3407 198.659 82.605C198.18 81.8694 197.941 80.9624 197.941 79.8839C197.941 78.9554 198.112 78.1875 198.455 77.5805C198.799 76.9735 199.267 76.4879 199.86 76.1235C200.453 75.7594 201.121 75.4844 201.864 75.2987C202.615 75.1059 203.39 74.9665 204.191 74.8809C205.155 74.7809 205.938 74.6915 206.538 74.613C207.139 74.5272 207.575 74.3987 207.846 74.2274C208.125 74.0487 208.264 73.7737 208.264 73.4024V73.338C208.264 72.531 208.025 71.906 207.546 71.4634C207.067 71.0205 206.378 70.799 205.477 70.799C204.527 70.799 203.773 71.0062 203.215 71.4205C202.665 71.8347 202.293 72.3239 202.1 72.8882L198.477 72.3739C198.763 71.374 199.235 70.5384 199.892 69.867C200.549 69.1885 201.353 68.6814 202.304 68.3457C203.255 68.0029 204.305 67.8315 205.456 67.8315C206.249 67.8315 207.039 67.9244 207.825 68.11C208.611 68.2957 209.329 68.6029 209.979 69.0314C210.63 69.4529 211.151 70.0277 211.545 70.7562C211.945 71.4847 212.146 72.3954 212.146 73.488V84.5012H208.414V82.2407H208.286C208.05 82.6979 207.718 83.1264 207.289 83.5264C206.867 83.9192 206.335 84.237 205.691 84.4799C205.055 84.7155 204.309 84.8334 203.451 84.8334ZM204.459 81.9837C205.238 81.9837 205.913 81.83 206.485 81.523C207.056 81.2087 207.496 80.7945 207.803 80.2802C208.118 79.766 208.275 79.2054 208.275 78.5984V76.6592C208.154 76.7592 207.946 76.852 207.653 76.9377C207.367 77.0234 207.046 77.0984 206.688 77.1627C206.331 77.227 205.977 77.2842 205.627 77.3342C205.277 77.3842 204.973 77.427 204.716 77.4627C204.137 77.5412 203.619 77.6699 203.162 77.8484C202.704 78.0269 202.343 78.2769 202.079 78.5984C201.814 78.9125 201.682 79.3197 201.682 79.8195C201.682 80.5339 201.943 81.073 202.465 81.4374C202.987 81.8015 203.651 81.9837 204.459 81.9837Z" fill="#DADADA"/>
<path d="M219.928 62.5605V84.5011H216.047V62.5605H219.928Z" fill="#DADADA"/>
<path fill-rule="evenodd" clip-rule="evenodd" d="M90.2409 78.1076L82.0518 80.7206L79.6467 81.4881V78.9749V61.7216L75.737 63.5513V73.7279V74.9156L74.6478 75.4011L67.0532 78.7863L64.4574 79.9433V77.1131V70.1311L59.8728 72.4771V86.0838V87.1709L58.9141 87.6924L53.3799 90.7026C55.5795 92.8239 58.2256 94.4893 61.1645 95.5456C66.8991 90.1909 73.3584 87.2799 88.5196 84.0339C89.361 82.1821 89.9494 80.1921 90.2409 78.1076ZM86.9274 86.9286C78.5274 90.1973 73.8451 93.2869 69.9578 96.7914C77.07 96.3551 83.262 92.5348 86.9274 86.9286ZM50.9068 87.8691C48.2816 84.2803 46.7329 79.8618 46.7329 75.0833C46.7329 63.0711 56.5194 53.3333 68.5917 53.3333C73.1475 53.3333 77.3779 54.7201 80.8795 57.0926L80.7049 57.1743L73.1103 60.7287L72.052 61.224V62.3877V72.5403L68.1424 74.2829V67.1269V64.1226L65.4574 65.4965L57.1877 69.7279L56.1878 70.2396V71.3583V84.9966L50.9068 87.8691ZM83.3317 59.0222C87.5017 62.8135 90.1903 68.1913 90.4325 74.1958L83.3317 76.4616V59.0222Z" fill="#DADADA"/>
<path fill-rule="evenodd" clip-rule="evenodd" d="M68.5077 51.9999C55.7417 51.9999 45.3927 62.2974 45.3927 74.9999C45.3927 87.7024 55.7417 97.9999 68.5077 97.9999C81.2737 97.9999 91.6227 87.7024 91.6227 74.9999C91.6227 62.2974 81.2737 51.9999 68.5077 51.9999ZM44.2202 74.9999C44.2202 61.653 55.0941 50.8333 68.5077 50.8333C81.9213 50.8333 92.7952 61.653 92.7952 74.9999C92.7952 88.3468 81.9213 99.1666 68.5077 99.1666C55.0941 99.1666 44.2202 88.3468 44.2202 74.9999Z" fill="#DADADA"/>
</g>
<defs>
<clipPath id="clip0_1456_1943">
<rect width="175.708" height="48.3333" fill="white" transform="translate(44.2202 50.8333)"/>
</clipPath>
</defs>
</svg>
