<svg width="268" height="150" viewBox="0 0 268 150" fill="none" xmlns="http://www.w3.org/2000/svg">
<g clip-path="url(#clip0_1456_1919)">
<path fill-rule="evenodd" clip-rule="evenodd" d="M202.731 41.5H206.001V55.4804H210.171V53.6633L210.877 52.4952L213.924 55.4804H218.159L213.339 49.5563L217.008 44.2163H212.809L210.171 47.6002V41.5H230.949V58.0854H202.731V41.5ZM217.732 55.4804V52.2263L221.735 47.7578H218.085V44.1514H227.392V47.2757L223.259 51.8555H227.689V55.4804H217.732V55.4804Z" fill="#DADADA"/>
<path d="M183.765 108.5L170.129 95.1501L166.99 100.388V108.5H148.283V41.5H166.99V58.0762L157.636 75.8946H162.002L154.358 90.6537L174.606 73.3359H166.99V73.2525L178.786 58.0762H197.576L181.145 81.9763L202.731 108.5H183.765ZM60.7682 41.5V57.9927H54.4707V75.0881H60.7682V90.1809C60.7682 90.1809 60.4152 108.76 79.4656 108.5C93.8069 108.324 98.0888 100.036 98.0888 100.036L90.8346 86.3428C90.8346 86.3428 88.5589 92.1 83.7476 92.1C78.9455 92.1 79.6421 89.3095 79.6421 86.1667C79.6421 83.0239 79.6421 75.0881 79.6421 75.0881H93.0173V57.9927H79.9022V41.5H60.7682V41.5ZM121.096 90.7001C125.211 90.7001 128.527 87.3904 128.527 83.2927C128.527 79.1858 125.211 75.8761 121.096 75.8761C117.074 75.8761 113.758 79.1858 113.758 83.2927C113.758 87.3904 117.074 90.7001 121.096 90.7001ZM95.841 83.2C95.841 69.2475 107.201 57.9927 121.189 57.9927C135.168 57.9927 146.537 69.2475 146.537 83.2C146.537 97.1618 135.168 108.5 121.189 108.5C107.201 108.5 95.841 97.1618 95.841 83.2V83.2Z" fill="#DADADA"/>
</g>
<defs>
<clipPath id="clip0_1456_1919">
<rect width="177.215" height="67" fill="white" transform="translate(54.1025 41.5)"/>
</clipPath>
</defs>
</svg>
