<svg width="268" height="150" viewBox="0 0 268 150" fill="none" xmlns="http://www.w3.org/2000/svg">
<g clip-path="url(#clip0_1456_1873)">
<path fill-rule="evenodd" clip-rule="evenodd" d="M132.849 107.408L132.865 63.8256H109.661C109.991 87.2575 120.181 106.308 132.849 107.408V107.408ZM132.865 61.5222V17.94C120.181 19.0234 109.991 38.0882 109.661 61.5222H132.865V61.5222ZM135.151 17.94L135.135 61.5222H158.339C158.009 38.0882 147.819 19.0393 135.151 17.94V17.94ZM135.135 63.8256V107.408C147.819 106.322 158.009 87.2575 158.339 63.8256H135.135V63.8256ZM144.055 18.9937C164.061 23.4202 179.166 40.7541 179.718 61.5222H160.683C160.415 42.3207 153.603 25.892 144.055 18.9937V18.9937ZM107.315 61.5222H88.2804C88.8341 40.7541 103.941 23.4202 123.945 18.9937C114.397 25.89 107.585 42.3207 107.315 61.5222V61.5222ZM179.718 63.8256C179.166 84.5917 164.061 101.926 144.055 106.354C153.603 99.4558 160.415 83.027 160.685 63.8256H179.72H179.718ZM123.945 106.354C103.939 101.926 88.8341 84.5917 88.2824 63.8256H107.317C107.585 83.027 114.397 99.4558 123.945 106.354ZM154.798 20.1543C180.72 25.9514 199.65 42.2454 200.382 61.5222H182.094C181.645 43.3308 170.605 27.621 154.798 20.1543ZM85.9065 61.5222H67.6178C68.3522 42.2454 87.28 25.9514 113.202 20.1543C97.3949 27.621 86.355 43.3308 85.9065 61.5222V61.5222ZM200.382 63.8256C199.648 83.0865 180.72 99.3963 154.798 105.193C170.605 97.7248 181.645 82.017 182.094 63.8256H200.382ZM113.202 105.193C87.28 99.3963 68.3502 83.0865 67.6178 63.8256H85.9065C86.355 82.017 97.3949 97.7248 113.202 105.193ZM134 15.5C177.731 15.5 213.395 36.688 213.395 62.6808C213.395 88.6578 177.731 109.848 134 109.848C90.2692 109.848 54.605 88.6578 54.605 62.6808C54.605 36.688 90.2692 15.5 134 15.5ZM57.0106 61.5222H65.2876C65.8255 46.4165 76.7919 33.0279 93.4053 24.6403C72.0997 32.3664 57.6974 45.9808 57.0106 61.5222ZM202.712 61.5222H210.989C210.303 45.9808 195.9 32.3823 174.595 24.6403C191.208 33.0299 202.174 46.4165 202.712 61.5222ZM210.989 63.8256H202.712C202.174 78.9293 191.208 92.3178 174.595 100.692C195.9 92.9655 210.303 79.367 210.989 63.8256V63.8256ZM65.2876 63.8256H57.0106C57.6974 79.367 72.0997 92.9655 93.4053 100.692C76.7919 92.3178 65.8255 78.9293 65.2876 63.8256V63.8256Z" fill="#DADADA"/>
<path fill-rule="evenodd" clip-rule="evenodd" d="M81.9763 38.722C83.59 38.722 85.3089 38.827 85.7277 39.0528C86.1604 39.2786 86.4284 39.2944 87.131 40.5283L87.4883 41.6275C90.2394 53.3128 93.4211 67.5748 96.1702 79.262C96.7974 81.203 97.0832 81.4605 97.5735 82.0942C98.5897 82.8766 99.8898 82.8766 100.817 82.8766H166.691C167.602 82.8171 169.321 82.3477 170.097 81.8071C170.694 81.2644 171.308 80.4662 171.591 79.262C174.325 67.5768 177.852 53.3148 180.585 41.6434C180.654 41.2903 180.764 40.9466 180.914 40.6194C181.139 40.152 181.75 39.2192 182.528 38.932C183.288 38.7537 185.724 38.7537 186.023 38.722C186.023 55.0913 185.978 70.3773 185.978 86.7466C185.769 88.1924 184.664 89.7728 183.767 90.2106C182.05 91.0523 180.436 91.5197 178.165 91.7613C148.821 91.7752 119.479 91.8069 90.1183 91.8366C87.4903 91.6564 85.2037 91.0246 83.7091 90.2997C82.8735 89.8778 82.0517 88.2815 81.9763 86.806V38.722V38.722Z" fill="#FEFEFE"/>
<path fill-rule="evenodd" clip-rule="evenodd" d="M90.418 35.0026H177.387C174.311 47.7712 171.486 62.5006 168.408 75.2554C168.128 76.0207 167.746 76.7449 167.272 77.4083C166.75 78.0718 165.809 78.6144 164.91 78.6144H102.282C101.295 78.4639 101.13 78.5847 100.19 77.8163C99.2923 76.927 99.0383 76.3546 98.7703 75.2257L90.418 35.0006V35.0026Z" fill="#FEFEFE"/>
<path fill-rule="evenodd" clip-rule="evenodd" d="M81.9763 38.722C83.59 38.722 85.3089 38.827 85.7277 39.0528C86.1604 39.2786 86.4284 39.2944 87.131 40.5283L87.4883 41.6275C90.2394 53.3128 93.4211 67.5748 96.1702 79.262C96.7974 81.203 97.0832 81.4605 97.5735 82.0942C98.5897 82.8766 99.8898 82.8766 100.817 82.8766H166.691C167.602 82.8171 169.321 82.3477 170.097 81.8071C170.694 81.2644 171.308 80.4662 171.591 79.262C174.325 67.5768 177.852 53.3148 180.585 41.6434C180.654 41.2903 180.764 40.9466 180.914 40.6194C181.139 40.152 181.75 39.2192 182.528 38.932C183.288 38.7537 185.724 38.7537 186.023 38.722C186.023 55.0913 185.978 70.3773 185.978 86.7466C185.769 88.1924 184.664 89.7728 183.767 90.2106C182.05 91.0523 180.436 91.5197 178.165 91.7613C148.821 91.7752 119.479 91.8069 90.1183 91.8366C87.4903 91.6564 85.2037 91.0246 83.7091 90.2997C82.8735 89.8778 82.0517 88.2815 81.9763 86.806V38.722V38.722Z" fill="#DADADA"/>
<path fill-rule="evenodd" clip-rule="evenodd" d="M90.4182 35.0026H177.387C174.311 47.7712 171.486 62.5006 168.408 75.2554C168.128 76.0207 167.746 76.7449 167.273 77.4083C166.751 78.0718 165.81 78.6144 164.911 78.6144H102.282C101.295 78.4639 101.131 78.5847 100.19 77.8163C99.2926 76.927 99.0385 76.3546 98.7705 75.2257L90.4182 35.0006V35.0026ZM206.045 134.318L207.375 131.216C204.537 131.157 201.428 130.735 198.947 129.394C196.811 128.233 195.436 126.518 195.436 124.094C195.436 122.813 195.944 121.743 197.079 121.052C198.38 120.267 200.337 120.117 201.831 120.117H207L205.64 117.015H200.023C197.169 117.015 193.719 117.437 191.476 119.305C189.968 120.569 189.356 122.197 189.356 124.094C189.356 127.302 190.775 129.725 193.525 131.533C196.855 133.702 201.099 134.318 205.043 134.318H206.045V134.318ZM186.218 134.318V117.015H179.644V123.761L170.44 117.015H163.882V134.318H170.456L170.546 122.197L179.644 129.184V134.318H186.218V134.318ZM159.996 134.318V117.015H153.422V134.318H159.996V134.318ZM150.554 117.015H133.567L132.251 120.117H141.263L131.191 134.318H149.075L150.405 131.216H140.485L150.554 117.015V117.015ZM129.189 117.015H112.202L110.872 120.117H119.896L109.826 134.318H127.71L129.04 131.216H119.119L129.189 117.015ZM107.016 134.318V120.103L100.426 120.222V125.011H91.5833L91.8215 124.621C92.5083 123.535 93.4213 122.406 94.5705 121.729C96.873 120.388 100.174 120.117 102.788 120.117L107.002 120.071L106.956 117.015H103.296C100.682 117.015 97.8734 117.075 95.2891 117.467C92.9429 117.827 90.5512 118.521 88.5345 119.77C86.9804 120.751 85.7855 122.044 85.0828 123.686C84.4556 125.132 84.2611 126.758 84.2611 128.295C84.2611 129.891 84.6799 131.396 85.3965 132.812L86.3095 134.333H93.3757C92.7688 133.688 92.2514 132.964 91.8374 132.181C91.3059 131.204 91.0237 130.113 91.0156 129.002H100.428V134.318H107.018H107.016ZM80.9444 117.015H73.6996L67.2448 124.755L74.6106 134.318H82.3953L74.432 124.573L80.9464 117.015H80.9444ZM67.2011 134.318V117.015H60.6272V134.318H67.2011V134.318Z" fill="#DADADA"/>
<path fill-rule="evenodd" clip-rule="evenodd" d="M100.444 119.875H107.018V120.463H100.444V119.877V119.875Z" fill="#DADADA"/>
</g>
<defs>
<clipPath id="clip0_1456_1873">
<rect width="158.79" height="118.833" fill="white" transform="translate(54.605 15.5)"/>
</clipPath>
</defs>
</svg>
