<svg width="268" height="150" viewBox="0 0 268 150" fill="none" xmlns="http://www.w3.org/2000/svg">
<path fill-rule="evenodd" clip-rule="evenodd" d="M132.107 40.6892C131.895 40.7067 130.889 40.7634 129.873 40.8151C122.363 41.1977 115.348 42.5768 109.287 44.8625C100.838 48.0485 95.1013 52.6321 93.0192 57.8607C92.4712 59.2371 92.2301 60.5395 92.2292 62.1284C92.2281 63.9253 92.6164 65.5929 93.4293 67.2836C95.6298 71.86 101.069 76.1225 108.405 79.0194C113.497 81.0304 119.766 82.5004 125.791 83.0967C129.337 83.4476 130.314 83.4875 134.943 83.4703C140.645 83.4491 145.433 82.9314 150.754 81.7606C163.779 78.8951 173.066 72.854 175.46 65.6908C176.226 63.397 176.222 60.7709 175.449 58.4588C172.977 51.07 162.842 44.7812 149.082 42.0984C146.976 41.6879 143.969 41.2455 142.333 41.1057C142.073 41.0835 141.706 41.046 141.517 41.0223C139.966 40.8283 133.29 40.592 132.107 40.6892ZM139.111 44.1916C142.426 44.4019 144.105 44.588 147.296 45.099C149.245 45.4112 152.285 46.0987 154.444 46.7155C156.689 47.3571 156.853 47.8093 155.292 49.0557C153.675 50.3466 150.962 52.0096 148.363 53.3033C144.128 55.4114 137.61 57.8676 133.611 58.8624C131.664 59.3468 131.125 59.4226 129.615 59.4248C128.344 59.4265 128.132 59.4053 127.56 59.2189C126.451 58.8577 125.675 58.1531 125.341 57.2039C125.111 56.552 125.138 54.7823 125.392 53.8385C125.913 51.8985 127.305 48.7035 128.251 47.2745C128.5 46.8979 129.021 46.276 129.409 45.8926C130.357 44.9543 131.228 44.4747 132.494 44.1929C133.207 44.0343 136.619 44.0336 139.111 44.1916ZM120.316 45.5674C120.547 45.7285 120.566 46.0796 120.361 46.3781C120.281 46.4945 119.901 46.9749 119.516 47.4457C114.763 53.2625 109.9 61.7081 105.552 71.6998C105.299 72.2812 104.987 72.8686 104.859 73.0052C104.351 73.547 103.624 73.2707 101.602 71.768C97.6461 68.8288 95.5864 65.5272 95.5864 62.1258C95.5864 57.4795 99.2988 53.1092 106.113 49.7337C109.267 48.1713 112.493 47.0421 116.675 46.0365C119.387 45.3842 119.949 45.3118 120.316 45.5674ZM164.614 51.0959C165.983 51.7898 168.398 53.7148 169.643 55.1034C170.836 56.4346 171.637 57.7326 172.138 59.1486C174.945 67.075 166.234 74.8813 150.671 78.3868C149.135 78.7326 148.237 78.8161 147.913 78.6433C147.799 78.5826 147.747 78.4638 147.747 78.266C147.747 78.023 147.941 77.7358 148.974 76.45C152.419 72.1598 155.566 67.1196 158.932 60.4995C160.158 58.0881 161.555 55.1324 162.372 53.2236C162.922 51.9361 163.294 51.2239 163.498 51.0641C163.755 50.8632 164.179 50.8753 164.614 51.0959ZM140.423 64.8646C140.814 64.958 141.293 65.1153 141.488 65.2144C142.063 65.5067 142.63 66.0973 142.899 66.6853C143.113 67.152 143.148 67.3432 143.177 68.2102C143.229 69.7837 142.885 71.0884 141.686 73.86C140.471 76.6668 139.406 78.1823 137.994 79.114C136.732 79.9465 135.949 80.1018 133.026 80.1002C126.823 80.0968 119.816 79.1423 114.171 77.5324C112.43 77.0357 112.085 76.8413 112.085 76.3544C112.085 76.0846 112.157 75.9738 112.622 75.5255C113.801 74.39 116.526 72.656 119.647 71.056C124.272 68.6851 132.034 65.8283 136.103 64.9997C137.861 64.6416 139.301 64.5967 140.423 64.8646ZM74.7639 92.2264C74.7315 92.2586 74.7051 96.1112 74.7051 100.788V109.29H76.7674H78.8298V105.867V102.443H82.5678H86.3058V105.867V109.29H88.3257H90.3455L90.3236 100.752L90.3016 92.2136L88.3048 92.1907L86.3079 92.1677L86.2854 95.4434L86.2629 98.7191L82.5474 98.7414L78.8319 98.7637L78.8093 95.4887L78.7868 92.2136L76.8048 92.1907C75.7147 92.1781 74.7963 92.1941 74.7639 92.2264ZM92.0632 92.2414C92.0632 92.2801 92.5587 93.0986 93.1643 94.0603C93.7698 95.0219 95.3359 97.5084 96.6445 99.5857L99.0237 103.363V106.312C99.0237 107.935 99.0398 109.278 99.0594 109.298C99.0789 109.317 99.9974 109.322 101.1 109.309L103.105 109.285L103.082 106.369L103.058 103.454L104.708 100.83C105.616 99.3864 107.202 96.8681 108.234 95.2335C109.265 93.599 110.109 92.2406 110.109 92.2149C110.109 92.1891 109.038 92.1784 107.728 92.1909L105.347 92.2136L103.238 95.57C102.078 97.4161 101.095 98.9166 101.053 98.9045C101.011 98.8924 100.798 98.5923 100.58 98.2377C100.362 97.8831 99.415 96.3729 98.4755 94.8819L96.7672 92.1708H94.4152C93.1217 92.1708 92.0632 92.2026 92.0632 92.2414ZM111.827 100.733V109.295L118.38 109.271L124.932 109.248L125.417 109.052C126.001 108.817 126.616 108.298 126.917 107.785C127.384 106.992 127.379 107.086 127.38 99.3382L127.381 92.1677L125.383 92.1907L123.385 92.2136L123.342 98.7052L123.299 105.197L123.058 105.403L122.817 105.61H119.342H115.866V98.8903V92.1708H113.847H111.827V100.733ZM131.248 100.752L131.248 109.333L133.267 109.309L135.286 109.285L135.308 102.589L135.33 95.8944H138.787H142.244L142.482 96.1316L142.72 96.369L142.763 102.851L142.806 109.333H144.806H146.806L146.782 102.015L146.759 94.696L146.559 94.2041C146.316 93.6033 145.668 92.8775 145.141 92.6155C144.282 92.1883 144.031 92.1739 137.414 92.1723L131.248 92.1708L131.248 100.752ZM150.622 92.2783C150.598 92.3409 150.589 96.1952 150.602 100.843L150.626 109.295L156.969 109.292C160.874 109.29 163.461 109.255 163.697 109.203C164.643 108.991 165.47 108.354 165.838 107.555C166.206 106.752 166.232 106.24 166.205 100.34L166.179 94.7816L165.979 94.2867C165.594 93.3366 164.909 92.686 163.958 92.3658C163.556 92.2305 162.927 92.2144 157.09 92.1907C151.809 92.1693 150.658 92.1849 150.622 92.2783ZM172.443 92.2979C171.023 92.6064 170.137 93.5681 169.917 95.0384C169.859 95.426 169.836 98.0498 169.851 102.467L169.874 109.297L171.871 109.315L173.868 109.333L173.89 106.68L173.913 104.026L177.63 104.004L181.346 103.982V106.636V109.29H183.409H185.472L185.45 100.752L185.428 92.2136L179.198 92.1987C174.283 92.187 172.857 92.208 172.443 92.2979ZM189.481 92.2279C189.449 92.2593 189.424 96.1098 189.424 100.785V109.285L191.443 109.309L193.463 109.333L193.463 100.752L193.462 92.1708H191.5C190.421 92.1708 189.512 92.1965 189.481 92.2279ZM181.346 98.0809V100.303H177.608H173.87V98.5024C173.87 97.1162 173.899 96.6332 173.996 96.4024C174.221 95.8658 174.291 95.8562 178.016 95.8577L181.346 95.8591V98.0809ZM161.817 96.068C161.92 96.1401 162.045 96.3423 162.094 96.5174C162.149 96.7154 162.183 98.3354 162.183 100.798C162.183 105.05 162.172 105.171 161.744 105.47C161.567 105.594 161.147 105.61 158.125 105.61H154.707V100.773V95.9372H158.168C161.136 95.9372 161.656 95.9558 161.817 96.068Z" fill="#DADADA"/>
</svg>
