<svg width="268" height="150" viewBox="0 0 268 150" fill="none" xmlns="http://www.w3.org/2000/svg">
<path fill-rule="evenodd" clip-rule="evenodd" d="M95.2062 76.6548C91.585 78.4487 90.5995 83.3277 93.22 86.4882C96.0647 89.9187 102.513 89.6845 104.354 86.0841C105.399 84.0409 105.381 84.0142 102.94 84.0142C101.284 84.0142 100.731 84.112 100.731 84.4046C100.731 85.0865 99.6979 85.7558 98.6458 85.7558C97.4839 85.7558 96.4539 84.9602 96.1724 83.8452C95.8775 82.6774 96.2195 80.285 96.7676 79.6832C97.8655 78.4771 100.046 78.7172 100.687 80.1152C100.981 80.7578 101.181 80.8211 102.915 80.8211C104.64 80.8211 104.819 80.7651 104.819 80.226C104.819 78.7236 103.106 76.9003 101.052 76.2167C99.2835 75.628 96.9214 75.8051 95.2062 76.6548ZM48.7532 82.4072V88.6586H50.6513H52.5493L52.5791 85.2478L52.6089 81.8371L53.2901 84.0142C53.6648 85.2116 54.1165 86.7463 54.2938 87.4249L54.6159 88.6586H56.1693H57.7231L58.7133 85.2478L59.7035 81.8371L59.7859 85.2478L59.8679 88.6586H61.7569H63.6456V82.4176V76.1767H60.8923H58.1389L57.6802 77.7732C57.4279 78.6513 57.0039 80.121 56.7382 81.0388C56.4684 81.9709 56.1863 82.5158 56.0998 82.2725C56.0143 82.033 55.597 80.5961 55.1718 79.0794L54.3992 76.3218L51.5761 76.2388L48.7532 76.1558V82.4072ZM75.6448 76.8298C75.507 77.1889 74.3933 79.9242 73.1701 82.9079C71.9469 85.8917 70.9458 88.4061 70.9458 88.4958C70.9458 88.5852 71.8528 88.6586 72.9613 88.6586C74.9382 88.6586 74.9826 88.6421 75.2822 87.7878L75.5876 86.9169H77.954H80.3205L80.6259 87.7878C80.9276 88.6482 80.9568 88.6586 83.0645 88.6586H85.1976L82.6884 82.4176L80.1794 76.1767H78.0376C76.0852 76.1767 75.8732 76.2344 75.6448 76.8298ZM112.995 82.4176V88.6586H115.039H117.083V86.1913V83.7239H119.127H121.171V86.1913V88.6586H123.361H125.551V82.4176V76.1767H123.361H121.171V78.3538V80.5308H119.127H117.083V78.3538V76.1767H115.039H112.995V82.4176ZM134.02 82.4176V88.6586H136.053H138.086L138.17 82.4173L138.254 76.1761L136.137 76.1764L134.02 76.1767V82.4176ZM146.868 82.4054V88.6586H149.058H151.248V85.4211V82.184L152.794 84.6229C155.628 89.0946 155.113 88.6586 157.56 88.6586H159.716V82.4176V76.1767H157.536H155.356L155.273 79.2545L155.19 82.3326L153.26 79.3271L151.329 76.3218L149.098 76.2371L146.868 76.1523V82.4054ZM168.185 82.4176V88.6586H174.171H180.157V87.0621V85.4656H176.215H172.273V84.6043V83.743L175.53 83.6609L178.788 83.5788V82.2725V80.9663L175.53 80.8841C172.284 80.8022 172.273 80.7996 172.273 80.0858V79.3697H176.069H179.865V77.7732V76.1767H174.025H168.185V82.4176ZM188.041 82.4304V88.6842L190.158 88.5988L192.275 88.5135L192.361 86.409L192.447 84.3044H193.748C195.237 84.3044 196.217 85.0388 196.217 86.155C196.217 86.5341 196.299 87.2525 196.4 87.7515L196.582 88.6586H198.729H200.875L200.59 87.914C200.434 87.5045 200.306 86.5799 200.306 85.8598C200.306 84.7976 200.143 84.3889 199.447 83.6969L198.589 82.8435L199.272 82.3988C200.192 81.7991 200.709 80.4545 200.503 79.1938C200.288 77.878 199.863 77.3761 198.407 76.7175C197.439 76.2794 196.455 76.1883 192.64 76.1831L188.041 76.1767V82.4304ZM207.314 76.3192C207.314 76.3976 208.365 78.1384 209.65 80.1877L211.986 83.914V86.2862V88.6586H214.03H216.074V86.4841V84.3097L218.69 80.2432L221.306 76.1767H219.007H216.708L215.4 78.5546L214.093 80.9323L212.89 78.5546L211.687 76.1767H209.501C208.298 76.1767 207.314 76.2408 207.314 76.3192ZM196.236 79.6803C196.617 80.2792 196.577 80.4632 195.925 81.1114C195.497 81.5372 194.952 81.6919 193.881 81.6919H192.421V80.3509V79.0098L194.196 79.1372C195.301 79.2168 196.072 79.422 196.236 79.6803ZM78.7842 82.5628L79.3758 84.3044H78.0492C76.8094 84.3044 76.7337 84.2606 76.892 83.6345C77.1131 82.7587 77.9292 80.8211 78.0773 80.8211C78.1406 80.8211 78.4586 81.6049 78.7842 82.5628ZM64.6531 99.2268C63.4535 99.7461 62.2513 101.223 62.0168 102.465C61.6892 104.202 62.0192 106.876 62.6695 107.748C63.5464 108.925 65.0671 109.849 66.1277 109.849C67.1941 109.849 68.7099 108.924 69.6 107.73C70.0511 107.125 70.2339 106.367 70.3154 104.765C70.4602 101.912 69.7326 100.291 67.916 99.4163C66.4819 98.7263 65.8886 98.6918 64.6531 99.2268ZM182.055 99.0311C181.734 99.1109 181.125 99.4207 180.701 99.7194C178.369 101.364 178.455 107.566 180.832 109.114C182.745 110.36 185.134 109.798 186.241 107.84C187.012 106.477 187.035 106.075 186.343 106.075C186.028 106.075 185.621 106.475 185.34 107.063C184.343 109.14 181.491 108.977 180.572 106.791C180.001 105.432 180.048 102.956 180.669 101.721C181.682 99.7051 184.087 99.4787 185.167 101.298C185.531 101.91 185.898 102.21 186.162 102.109C186.697 101.905 186.689 101.61 186.124 100.523C185.454 99.2355 183.748 98.6099 182.055 99.0311ZM218.508 99.2732C218.412 99.5237 218.501 100.042 218.707 100.424C219.013 100.992 219.012 101.204 218.704 101.573C218.497 101.822 218.422 102.12 218.538 102.236C218.942 102.637 219.578 101.313 219.578 100.069C219.578 99.1394 219.463 98.8183 219.131 98.8183C218.885 98.8183 218.605 99.023 218.508 99.2732ZM220.454 99.668C220.454 100.159 220.582 100.56 220.739 100.56C220.922 100.56 220.919 100.834 220.731 101.326C220.336 102.357 220.587 102.522 221.181 101.622C221.801 100.681 221.669 99.0047 220.965 98.872C220.568 98.7971 220.454 98.9751 220.454 99.668ZM47.1621 99.3748C47.0712 99.5211 46.9141 100.24 46.8131 100.971C46.642 102.213 46.6735 102.302 47.2908 102.302C47.9014 102.302 47.9373 102.211 47.7598 101.108C47.6398 100.361 47.6938 99.7638 47.9043 99.5115C48.1669 99.1971 48.1406 99.1086 47.784 99.1086C47.5332 99.1086 47.2532 99.2285 47.1621 99.3748ZM49.0554 99.67C48.8893 99.9789 48.7532 100.697 48.7532 101.267C48.7532 102.108 48.8624 102.302 49.3372 102.302C49.7601 102.302 49.9212 102.108 49.9212 101.6C49.9212 101.214 49.7571 100.84 49.5562 100.767C49.2642 100.662 49.2642 100.513 49.5562 100.021C49.9951 99.2825 50.0109 99.1086 49.6395 99.1086C49.4847 99.1086 49.2219 99.3612 49.0554 99.67ZM51.3813 104.303C51.3813 108.491 51.4607 109.527 51.7907 109.653C52.0158 109.739 52.2786 109.731 52.3747 109.635C52.4708 109.54 52.5493 107.72 52.5493 105.591C52.5493 103.463 52.6579 101.721 52.7908 101.721C52.9234 101.721 53.5386 103.48 54.1577 105.629C54.7826 107.799 55.4615 109.605 55.6843 109.69C56.181 109.879 56.5501 109.013 57.8437 104.624L58.8275 101.286L58.9093 105.338C58.9869 109.204 59.1951 110.106 59.9085 109.667C60.0367 109.589 60.1415 107.181 60.1415 104.316V99.1086L59.3385 99.1098C58.5702 99.1106 58.4984 99.2398 57.6834 102.085C57.215 103.721 56.6161 105.698 56.3527 106.478L55.8741 107.897L54.5954 103.503L53.3167 99.1086H52.349H51.3813V104.303ZM72.1802 104.406C72.2476 108.886 72.3273 109.704 72.6979 109.704C73.0451 109.704 73.1534 109.207 73.2206 107.309L73.3056 104.914H74.4502C75.8084 104.914 76.3427 105.4 77.6361 107.813C78.5235 109.467 79.2719 110.106 79.7572 109.624C80.0331 109.35 78.6014 106.562 77.6793 105.579C76.9784 104.832 76.9317 104.624 77.4652 104.624C77.6781 104.624 78.1707 104.287 78.5603 103.875C79.6156 102.758 79.561 100.76 78.4487 99.8091C77.7076 99.1754 77.3662 99.1086 74.8652 99.1086H72.1007L72.1802 104.406ZM81.1661 104.303C81.1661 108.771 81.2307 109.521 81.6281 109.673C82.2285 109.902 87.112 109.902 87.7124 109.673C87.9664 109.576 88.1743 109.254 88.1743 108.957C88.1743 108.476 87.8774 108.41 85.3632 108.335L82.552 108.252V106.511L82.5517 104.769L85.0712 104.685C87.3503 104.609 87.5903 104.547 87.5903 104.032C87.5903 103.51 87.3789 103.463 85.0353 103.463H82.4802L82.5176 101.939L82.5546 100.415L85.2186 100.331C87.6423 100.256 87.8823 100.197 87.8823 99.6781C87.8823 99.1452 87.6662 99.1086 84.5242 99.1086H81.1661V104.303ZM92.3168 99.6166C92.3918 100.009 92.7615 100.145 93.9441 100.212L95.4745 100.3V104.881C95.4745 107.4 95.5531 109.54 95.6492 109.635C95.7452 109.731 96.0081 109.739 96.2332 109.653C96.5605 109.528 96.6426 108.573 96.6426 104.883V100.27H98.1026C99.3679 100.27 99.5627 100.192 99.5627 99.6892C99.5627 99.1394 99.3679 99.1086 95.8912 99.1086C92.5521 99.1086 92.2283 99.1545 92.3168 99.6166ZM101.023 104.285C101.023 107.132 101.101 109.54 101.197 109.635C101.293 109.731 101.556 109.739 101.781 109.653C102.088 109.536 102.191 108.883 102.191 107.06V104.624H104.515H106.84L106.924 107.164C106.992 109.191 107.097 109.704 107.447 109.704C107.817 109.704 107.897 108.886 107.965 104.406C108.042 99.2564 108.028 99.1086 107.454 99.1086C106.913 99.1086 106.863 99.2941 106.863 101.286V103.463H104.527H102.191V101.286C102.191 99.3022 102.139 99.1086 101.607 99.1086C101.045 99.1086 101.023 99.3022 101.023 104.285ZM110.856 104.172C109.923 106.97 109.238 109.387 109.334 109.542C109.708 110.144 110.377 109.431 110.856 107.921L111.357 106.342L113.269 106.426L115.18 106.511L115.723 108.015C116.262 109.508 116.972 110.183 117.25 109.465C117.329 109.259 116.619 106.878 115.671 104.173C114.13 99.7751 113.874 99.2448 113.25 99.1687C112.592 99.0883 112.458 99.3681 110.856 104.172ZM118.543 104.334C118.543 109.341 118.567 109.559 119.119 109.559C119.661 109.559 119.7 109.319 119.776 105.498L119.857 101.438L122.019 105.232C124.396 109.403 124.779 109.903 125.414 109.66C125.77 109.525 125.843 108.606 125.843 104.303C125.843 99.3022 125.822 99.1086 125.259 99.1086C124.704 99.1086 124.675 99.3022 124.675 103.044C124.675 105.209 124.562 106.911 124.423 106.825C124.284 106.74 123.2 104.972 122.014 102.896C120.258 99.8227 119.735 99.1199 119.2 99.115L118.543 99.1086V104.334ZM130.516 99.6892C130.516 100.192 130.71 100.27 131.968 100.27H133.421L133.501 104.987C133.569 108.951 133.651 109.704 134.02 109.704C134.388 109.704 134.471 108.951 134.538 104.987L134.618 100.27H136.071C137.329 100.27 137.524 100.192 137.524 99.6892C137.524 99.1408 137.329 99.1086 134.02 99.1086C130.71 99.1086 130.516 99.1408 130.516 99.6892ZM138.984 104.285C138.984 107.132 139.062 109.54 139.158 109.635C139.254 109.731 139.517 109.739 139.742 109.653C140.049 109.536 140.152 108.883 140.152 107.06V104.624H142.488H144.824V107.06C144.824 108.883 144.927 109.536 145.233 109.653C145.459 109.739 145.721 109.731 145.817 109.635C145.913 109.54 145.992 107.132 145.992 104.285C145.992 99.3022 145.97 99.1086 145.408 99.1086C144.876 99.1086 144.824 99.3022 144.824 101.286V103.463H142.488H140.152V101.286C140.152 99.3022 140.1 99.1086 139.568 99.1086C139.006 99.1086 138.984 99.3022 138.984 104.285ZM148.036 104.328C148.036 110.425 147.678 109.929 151.978 109.789C154.451 109.709 154.612 109.665 154.7 109.051C154.791 108.412 154.73 108.397 151.985 108.397H149.176L149.263 106.583L149.35 104.769L151.924 104.685C154.17 104.611 154.487 104.537 154.403 104.104C154.323 103.689 153.891 103.594 151.756 103.524L149.204 103.44V101.855V100.27H151.978C154.557 100.27 154.752 100.229 154.752 99.6892C154.752 99.1423 154.557 99.1086 151.394 99.1086H148.036V104.328ZM160.008 104.303C160.008 108.491 160.088 109.527 160.418 109.653C160.643 109.739 160.906 109.731 161.002 109.635C161.098 109.54 161.176 107.786 161.176 105.737C161.176 103.688 161.282 102.011 161.41 102.011C161.623 102.011 161.917 102.897 163.363 107.89C163.724 109.139 163.98 109.559 164.381 109.559C164.79 109.559 165.06 109.081 165.528 107.527C165.865 106.409 166.436 104.548 166.798 103.39L167.455 101.286L167.536 105.338C167.614 109.204 167.822 110.106 168.536 109.667C168.664 109.589 168.769 107.181 168.769 104.316V99.1086H167.937C167.117 99.1086 167.09 99.1652 165.838 103.464C165.141 105.86 164.484 107.68 164.377 107.508C164.27 107.337 163.672 105.377 163.048 103.152L161.913 99.1086H160.961H160.008V104.303ZM171.451 104.314C170.195 108.053 169.805 109.558 170.065 109.657C170.667 109.886 170.994 109.488 171.527 107.877L172.036 106.34L173.955 106.425L175.875 106.511L176.337 107.877C176.889 109.51 177.39 110.103 177.841 109.655C178.063 109.434 177.627 107.859 176.341 104.226C174.711 99.6212 174.463 99.1086 173.864 99.1086C173.262 99.1086 173.035 99.5992 171.451 104.314ZM188.333 104.303C188.333 108.491 188.413 109.527 188.743 109.653C189.408 109.907 189.501 109.586 189.501 107.043V104.624H191.983H194.465V107.043C194.465 109.586 194.559 109.907 195.224 109.653C195.554 109.527 195.633 108.491 195.633 104.303C195.633 99.3022 195.612 99.1086 195.049 99.1086C194.517 99.1086 194.465 99.3022 194.465 101.297V103.486L192.056 103.402L189.647 103.318V101.213C189.647 99.223 189.611 99.1077 188.99 99.108C188.334 99.1086 188.333 99.1098 188.333 104.303ZM197.969 104.285C197.969 107.132 198.048 109.54 198.144 109.635C198.24 109.731 198.503 109.739 198.728 109.653C199.058 109.527 199.138 108.491 199.138 104.303C199.138 99.3022 199.116 99.1086 198.553 99.1086C197.991 99.1086 197.969 99.3022 197.969 104.285ZM201.182 104.265C201.182 107.123 201.26 109.54 201.356 109.635C201.452 109.731 201.715 109.739 201.94 109.653C202.265 109.529 202.35 108.643 202.353 105.391L202.356 101.286L204.663 105.316C206.896 109.218 207.465 109.97 207.957 109.667C208.085 109.589 208.19 107.181 208.19 104.316C208.19 99.8807 208.125 99.1086 207.752 99.1086C207.384 99.1086 207.314 99.7376 207.314 103.027C207.314 105.183 207.215 106.942 207.095 106.937C206.974 106.931 205.89 105.2 204.686 103.09C203.009 100.153 202.341 99.232 201.839 99.1609L201.182 99.0683V104.265ZM210.592 104.406L210.672 109.704L213.3 109.789C216.494 109.893 217.242 109.738 217.242 108.973C217.242 108.44 217.039 108.397 214.468 108.397H211.694V106.511V104.624H214.176C216.463 104.624 216.658 104.578 216.658 104.043C216.658 103.508 216.463 103.463 214.176 103.463H211.694V101.866V100.27H214.322C216.755 100.27 216.95 100.227 216.95 99.6892C216.95 99.1437 216.755 99.1086 213.731 99.1086H210.513L210.592 104.406ZM67.4514 100.42C68.6527 101.038 69.1938 102.253 69.1938 104.334C69.1938 106.415 68.6527 107.63 67.4514 108.247C66.3829 108.797 65.8792 108.8 64.8385 108.265C63.7613 107.711 63.0616 106.192 63.0616 104.406C63.0616 102.415 63.5618 101.183 64.6329 100.534C65.735 99.8657 66.3269 99.8416 67.4514 100.42ZM77.8148 100.965C78.3634 101.797 78.1328 103.057 77.3557 103.47C77.0634 103.626 76.0274 103.753 75.0532 103.753H73.2819V102.011V100.27H75.3193C77.1461 100.27 77.4039 100.341 77.8148 100.965ZM114.065 102.958C114.436 104.114 114.741 105.092 114.743 105.132C114.745 105.172 114.075 105.204 113.253 105.204C111.969 105.204 111.779 105.133 111.905 104.696C111.985 104.417 112.285 103.372 112.571 102.374C112.857 101.375 113.158 100.626 113.241 100.707C113.323 100.789 113.694 101.802 114.065 102.958ZM174.734 102.99L175.421 105.204H173.86H172.299L172.718 104.023C172.948 103.373 173.28 102.315 173.454 101.671C173.629 101.028 173.833 100.563 173.909 100.638C173.985 100.714 174.356 101.772 174.734 102.99Z" fill="#DADADA"/>
<path d="M46.5633 46.4231L46.4804 43.2991L46.3975 40.1752L57.4307 40.2512L68.4639 40.3273L68.5469 43.4478L68.6298 46.5682L67.6709 46.5674C66.8243 46.5668 66.6263 46.4048 65.9819 45.1886L65.2519 43.8106L62.6968 43.7267L60.1417 43.6428V55.5393V67.4354L61.0177 67.9498C61.4996 68.2328 61.8938 68.6973 61.8938 68.9823C61.8938 69.4564 61.5226 69.5002 57.5136 69.5002C53.5155 69.5002 53.1335 69.4552 53.1335 68.9855C53.1335 68.695 53.5797 68.2323 54.1588 67.9222L55.184 67.3733L55.1078 55.5921L55.0316 43.8106L52.487 43.727L49.9427 43.6431L49.1882 45.123C48.4929 46.4873 48.3606 46.5958 47.4986 46.5131L46.5633 46.4231Z" fill="#DADADA"/>
<path d="M73.2605 41.6335C72.9895 41.6335 72.7162 40.5511 72.9328 40.3357C73.0269 40.2422 74.7538 40.2019 76.7701 40.2466C80.1966 40.322 80.4418 40.3656 80.521 40.9148C80.5715 41.2646 80.0538 42.2039 79.2411 43.237C77.4409 45.5261 75.7607 49.0127 75.1559 51.714C74.4303 54.9573 74.6811 59.0525 75.7373 61.1985C77.0998 63.9669 79.2738 65.1983 83.5278 65.6105L85.4512 65.7971L85.6448 59.6191C85.7514 56.2214 85.8384 51.0847 85.8384 48.2042V42.9673L84.9239 42.0295C84.3466 41.4373 84.075 40.9203 84.188 40.6283C84.3413 40.2306 84.9148 40.1766 88.2417 40.2463C91.8979 40.3226 92.1216 40.3609 92.2025 40.9238C92.2498 41.2521 92.0197 41.7621 91.6915 42.0573C91.108 42.5821 91.0946 42.8742 91.0946 54.9863C91.0946 67.0096 91.1118 67.3939 91.6786 67.9037C91.9998 68.1925 92.2626 68.67 92.2626 68.9646C92.2626 69.4688 91.8897 69.5002 85.8998 69.5002C78.707 69.5002 76.9614 69.2166 74.668 67.6755C72.9877 66.5463 71.6906 64.8186 70.8546 62.5954C70.3284 61.1968 70.2321 60.3228 70.2394 57.0182C70.247 53.5895 70.3474 52.7776 71.0441 50.5239C71.4819 49.1076 72.4399 46.6983 73.1729 45.17C74.4233 42.5627 74.4732 42.3682 73.9838 42.0126C73.697 41.8042 73.3714 41.6335 73.2605 41.6335Z" fill="#DADADA"/>
<path d="M121.755 42.0228C121.184 41.6872 120.879 41.275 120.879 40.8376V40.1667L125.183 40.2469C129.003 40.3183 129.497 40.3839 129.584 40.8326C129.648 41.1618 129.318 41.5517 128.639 41.9499L127.596 42.5618V47.3227C127.596 49.941 127.643 52.0835 127.7 52.0835C127.758 52.0835 129.357 50.3529 131.255 48.2373C133.152 46.1218 135.095 43.9735 135.573 43.4631L136.441 42.5351L135.364 42.0245C134.57 41.6483 134.309 41.3583 134.372 40.9206C134.454 40.3522 134.648 40.3273 138.98 40.3273C143.046 40.3273 143.512 40.3784 143.6 40.8326C143.663 41.1592 143.343 41.5461 142.697 41.9253C141.245 42.7769 134.512 50.2658 134.718 50.7996C134.81 51.0368 137.077 54.8963 139.757 59.377C143.846 66.2157 144.785 67.5974 145.602 67.9849C146.178 68.2578 146.576 68.6622 146.576 68.9733C146.576 69.4616 146.213 69.5002 141.612 69.5002C137.011 69.5002 136.648 69.4616 136.648 68.9733C136.648 68.6549 137.061 68.2508 137.692 67.9516C138.267 67.6793 138.694 67.3507 138.641 67.2215C138.589 67.0923 136.849 64.1408 134.774 60.6627L131.002 54.3387L129.312 56.1866L127.621 58.0342L127.608 62.7225L127.596 67.4108L128.618 68.0102C129.18 68.3399 129.64 68.8102 129.64 69.0549C129.64 69.4352 129.001 69.5002 125.26 69.5002C121.093 69.5002 120.879 69.4723 120.879 68.9272C120.879 68.5838 121.231 68.1733 121.755 67.9037L122.632 67.4534V54.9953V42.5372L121.755 42.0228Z" fill="#DADADA"/>
<path d="M150.371 41.7171C149.81 41.5714 149.58 40.776 149.983 40.3757C150.09 40.2692 151.798 40.1821 153.779 40.1821H157.38V40.907C157.38 41.3125 156.788 42.4315 156.035 43.4469C153.063 47.4553 151.784 51.0748 151.753 55.5669C151.708 62.1445 154.449 65.3022 160.383 65.5083L162.491 65.5814L162.567 54.0783L162.643 42.5755L161.91 42.0977C161.453 41.8004 161.177 41.3488 161.177 40.9012V40.1821H165.119H169.061V41.008C169.061 41.4652 168.8 42.0684 168.477 42.3592C167.911 42.8687 167.893 43.2533 167.893 54.9808V67.0767L168.59 67.728C169.044 68.1518 169.234 68.5829 169.134 68.962C168.985 69.5286 168.785 69.542 161.932 69.45L154.884 69.355L152.935 68.4009C149.509 66.7231 147.815 64.1123 147.115 59.4296C146.538 55.5732 147.667 50.2728 150.148 45.1952C151.352 42.7314 151.4 41.9848 150.371 41.7171Z" fill="#DADADA"/>
<path d="M202.319 43.8832C202.324 42.0071 202.334 40.4051 202.339 40.3232C202.345 40.2411 206.39 40.2083 211.329 40.2506L220.308 40.3273L220.387 42.5044L220.467 44.6814L214.149 54.9863C210.674 60.654 207.767 65.4546 207.687 65.654C207.576 65.9344 208.516 66.0169 211.818 66.0169C217.393 66.0169 218.447 65.5962 219.272 63.0415C219.572 62.1117 219.748 61.953 220.477 61.953H221.33V65.7266V69.5002H211.256H201.182V67.5777V65.6552L207.587 55.1683C211.11 49.4005 214.087 44.4367 214.202 44.1377C214.402 43.6199 214.233 43.5999 210.644 43.7192C205.828 43.8791 204.839 44.3041 204.408 46.3979C204.247 47.1799 204.102 47.2939 203.266 47.2939H202.308L202.319 43.8832Z" fill="#DADADA"/>
<path fill-rule="evenodd" clip-rule="evenodd" d="M95.3775 40.3757C94.9506 40.7998 95.2318 41.3261 96.2047 41.9238L97.2268 42.5517V54.9814V67.4108L96.2047 68.0102C95.6426 68.3399 95.1827 68.8102 95.1827 69.0549C95.1827 69.4352 95.8213 69.5002 99.5628 69.5002C103.572 69.5002 103.943 69.4564 103.943 68.9823C103.943 68.6973 103.549 68.2328 103.067 67.9498L102.191 67.4354V62.2267V57.0182H104.056H105.921L109.385 63.2557L112.849 69.4929L115.988 69.4967C118.868 69.4999 119.127 69.4552 119.127 68.9542C119.127 68.6537 118.7 68.0819 118.178 67.683C117.566 67.2151 116.157 65.0871 114.206 61.6801C112.542 58.777 111.228 56.3613 111.286 56.3117C111.342 56.2621 111.849 55.9933 112.411 55.7146C115.596 54.1358 116.784 52.1564 116.788 48.4191C116.794 43.5807 115.312 41.7345 110.539 40.6341C109.076 40.2968 106.928 40.1821 102.076 40.1821C98.4985 40.1821 95.4844 40.2692 95.3775 40.3757ZM110.458 45.1131C109.924 44.6382 108.932 44.1749 108.046 43.9862C107.219 43.8097 105.629 43.6655 104.513 43.6655H102.483V48.3479V53.0304L105.476 52.8954C110.298 52.6783 111.649 51.5543 111.466 47.9131C111.376 46.1084 111.28 45.8434 110.458 45.1131Z" fill="#DADADA"/>
<path fill-rule="evenodd" clip-rule="evenodd" d="M182.167 40.9691C181.991 41.4144 180.096 46.9383 177.957 53.2446C175.817 59.5509 173.846 65.3347 173.577 66.0976C173.246 67.0375 172.828 67.6183 172.28 67.9002C171.835 68.1286 171.401 68.5823 171.315 68.908C171.164 69.4816 171.279 69.5002 174.928 69.5002C178.486 69.5002 178.697 69.468 178.697 68.9272C178.697 68.5818 178.343 68.1719 177.806 67.8961C177.188 67.5783 176.964 67.2871 177.073 66.9452C177.16 66.674 177.802 64.7541 178.501 62.6787L179.771 58.905H184.376H188.982L190.41 62.9425C191.195 65.1631 191.837 67.0769 191.837 67.1954C191.837 67.3141 191.378 67.6807 190.815 68.0102C190.253 68.3399 189.793 68.8102 189.793 69.0549C189.793 69.4372 190.476 69.5002 194.612 69.5002C198.682 69.5002 199.43 69.4331 199.43 69.0685C199.43 68.8308 198.929 68.3222 198.316 67.9376C197.206 67.2415 197.185 67.1907 192.359 53.7831L187.515 40.3273L185.001 40.2434C182.49 40.1595 182.487 40.1604 182.167 40.9691ZM187.39 54.6235C187.319 54.424 186.621 52.4647 185.841 50.2693C185.06 48.0742 184.345 46.278 184.252 46.278C184.096 46.278 181.325 54.3239 181.325 54.779C181.325 54.8931 182.719 54.9863 184.423 54.9863C186.775 54.9863 187.489 54.8989 187.39 54.6235Z" fill="#DADADA"/>
</svg>
