<svg width="268" height="150" viewBox="0 0 268 150" fill="none" xmlns="http://www.w3.org/2000/svg">
<g clip-path="url(#clip0_1456_1885)">
<g clip-path="url(#clip1_1456_1885)">
<path d="M80.7111 63.5198H75.4961V60.7236H89.4537V63.5198H84.2165V76.7615H80.7111V63.5198Z" fill="#DADADA"/>
<path d="M98.1056 63.5103C96.8729 63.5103 95.948 63.8159 95.3223 64.4306C94.6967 65.0419 94.348 65.9816 94.2843 67.2454L103.679 67.2568V70.0416H94.262C94.2693 71.4394 94.5692 72.446 95.1569 73.0608C95.7453 73.6721 96.7269 73.9777 98.1056 73.9777H103.679V76.7739H97.9402C96.6746 76.7739 95.6817 76.6657 94.9587 76.4533C94.2356 76.2368 93.5542 75.8756 92.9171 75.3647C92.0932 74.7087 91.4752 73.8552 91.0593 72.8037C90.647 71.7486 90.4409 70.4926 90.4409 69.0271C90.4409 66.1867 91.0594 64.0915 92.2958 62.7423C93.5278 61.3887 95.4418 60.714 98.0382 60.714H103.679V63.5103H98.1056Z" fill="#DADADA"/>
<path d="M114.553 63.5772H110.391V67.6258H114.553C115.68 67.6258 116.463 67.4727 116.901 67.1671C117.339 66.8614 117.561 66.3357 117.561 65.5905C117.561 64.8517 117.347 64.3337 116.92 64.0317C116.489 63.7296 115.702 63.5772 114.553 63.5772ZM106.997 60.714H115.354C117.302 60.714 118.73 61.1051 119.635 61.8845C120.545 62.6639 121 63.8863 121 65.5455C121 66.7795 120.719 67.7862 120.16 68.5648C119.599 69.3442 118.793 69.8472 117.737 70.0751L121.763 76.7739H117.947L114.388 70.4663H110.391V76.7739H106.997V60.714Z" fill="#DADADA"/>
<path d="M131.763 63.5772H127.601V67.6258H131.763C132.891 67.6258 133.673 67.4727 134.112 67.1671C134.55 66.8614 134.771 66.3357 134.771 65.5905C134.771 64.8517 134.557 64.3337 134.131 64.0317C133.7 63.7296 132.913 63.5772 131.763 63.5772ZM124.207 60.714H132.565C134.513 60.714 135.939 61.1051 136.846 61.8845C137.756 62.6639 138.21 63.8863 138.21 65.5455C138.21 66.7795 137.928 67.7862 137.371 68.5648C136.808 69.3442 136.003 69.8472 134.948 70.0751L138.974 76.7739H135.157L131.599 70.4663H127.601V76.7739H124.207V60.714Z" fill="#DADADA"/>
<path d="M147.711 63.9049L145.351 70.0858H150.158L147.711 63.9049ZM146.045 60.714H149.641L156.523 76.7739H152.747L151.266 72.949H144.254L142.816 76.7739H139.216L146.045 60.714Z" fill="#DADADA"/>
<path d="M171.36 63.5772H162.98C162.082 63.5772 161.422 63.7446 160.998 64.0802C160.58 64.4156 160.37 64.945 160.37 65.6759C160.37 66.2573 160.549 66.6976 160.905 66.9882C161.265 67.2788 161.801 67.4242 162.509 67.4242H166.996C168.854 67.4242 170.18 67.7747 170.967 68.4715C171.754 69.1725 172.147 70.3359 172.147 71.9687C172.147 73.6201 171.693 74.8355 170.783 75.6106C169.877 76.3864 168.449 76.7739 166.501 76.7739H157.47V73.9108H165.963C166.929 73.9108 167.606 73.769 168.004 73.4897C168.397 73.2097 168.596 72.7481 168.596 72.0991C168.596 71.428 168.416 70.9506 168.053 70.6679C167.689 70.3843 167.072 70.2426 166.194 70.2426H162.19C160.329 70.2426 158.968 69.8735 158.111 69.1319C157.249 68.3938 156.819 67.2269 156.819 65.6311C156.819 63.9277 157.272 62.6823 158.174 61.8959C159.081 61.1094 160.515 60.714 162.486 60.714H171.36V63.5772Z" fill="#DADADA"/>
<path d="M175.036 60.714H182.405C183.648 60.714 184.641 60.7774 185.379 60.9042C186.12 61.031 186.709 61.2362 187.147 61.5119C187.877 61.9778 188.432 62.5891 188.81 63.3421C189.188 64.0952 189.375 64.9636 189.375 65.9481C189.375 66.9099 189.223 67.7334 188.915 68.423C188.608 69.109 188.139 69.6797 187.51 70.1307C186.982 70.5033 186.376 70.7683 185.694 70.925C185.008 71.081 183.959 71.1594 182.547 71.1594H178.43V76.7739H175.036V60.714ZM182.359 63.5772H178.43V68.319H182.569C183.596 68.319 184.356 68.1253 184.855 67.7335C185.353 67.3459 185.599 66.7496 185.599 65.9481C185.599 65.0868 185.356 64.4791 184.87 64.1179C184.382 63.756 183.547 63.5772 182.359 63.5772Z" fill="#DADADA"/>
<path d="M191.037 68.5718C191.037 65.8133 191.701 63.7594 193.031 62.4137C194.356 61.068 196.376 60.3926 199.092 60.3926C201.826 60.3926 203.849 61.0751 205.159 62.4358C206.474 63.7965 207.131 65.8953 207.131 68.7363C207.131 71.5768 206.474 73.6791 205.159 75.0476C203.849 76.4155 201.826 77.1015 199.092 77.1015C196.327 77.1015 194.293 76.4119 192.99 75.0362C191.69 73.6605 191.037 71.5055 191.037 68.5718ZM199.092 63.1439C197.634 63.1439 196.548 63.5949 195.825 64.4975C195.106 65.3994 194.747 66.768 194.747 68.5946C194.747 70.5737 195.095 72.0242 195.795 72.9446C196.491 73.8657 197.59 74.3281 199.092 74.3281C200.567 74.3281 201.662 73.8694 202.377 72.956C203.088 72.0427 203.444 70.6371 203.444 68.7363C203.444 66.8271 203.088 65.4179 202.377 64.5082C201.662 63.5992 200.567 63.1439 199.092 63.1439Z" fill="#DADADA"/>
<path d="M217.355 63.5772H213.193V67.6258H217.355C218.483 67.6258 219.265 67.4727 219.704 67.1671C220.142 66.8614 220.364 66.3357 220.364 65.5905C220.364 64.8517 220.15 64.3337 219.723 64.0317C219.292 63.7296 218.506 63.5772 217.355 63.5772ZM209.801 60.714H218.157C220.105 60.714 221.532 61.1051 222.438 61.8845C223.349 62.6639 223.802 63.8863 223.802 65.5455C223.802 66.7795 223.521 67.7862 222.963 68.5648C222.402 69.3442 221.596 69.8472 220.539 70.0751L224.566 76.7739H220.749L217.191 70.4663H213.193V76.7739H209.801V60.714Z" fill="#DADADA"/>
<path d="M230.539 63.5198H225.325V60.7236H239.282V63.5198H234.046V76.7615H230.539V63.5198Z" fill="#DADADA"/>
<path fill-rule="evenodd" clip-rule="evenodd" d="M32.4748 73.465C27.9312 73.0115 23.9421 70.8193 20.4351 67.1158C21.4318 62.8043 23.3177 59.4623 26.0026 56.9919C26.6297 58.6177 27.6868 60.5206 27.6967 62.2761C27.6986 62.6879 26.8066 63.6689 26.3165 65.2098C25.9272 66.4335 25.5386 69.8086 26.6786 70.6665C26.9847 70.5522 26.8706 70.5997 26.7754 69.6813C26.6866 68.821 26.448 64.5012 28.257 64.8207C28.6941 64.8981 29.497 65.6027 29.8737 66.096C31.2692 67.923 31.8727 70.8952 32.4748 73.465ZM40.7264 72.5269C39.0612 73.035 37.4571 73.3506 35.9123 73.4823C36.2997 72.6027 37.1143 67.9584 36.7443 67.203C36.6772 67.0655 36.5157 66.9268 36.2914 66.7884C36.1943 66.7884 36.0975 66.7876 36.0008 66.7864C35.4171 66.779 33.7294 66.753 33.263 66.4202C32.9743 66.2142 32.8235 65.7195 32.7319 65.3858C32.2943 65.2223 31.9512 65.0742 31.7976 64.9469C29.7169 62.8884 29.076 60.6739 27.5837 58.1803C27.0826 57.774 26.5697 57.346 26.108 56.8952L26.3232 56.7042C28.1997 58.5717 30.7346 59.7538 32.2951 61.9589C32.6316 62.5366 32.8136 65.749 33.43 66.1887C33.9967 66.5931 37.6368 66.5416 38.4842 66.3997C39.0161 66.3105 39.3549 65.8704 38.5691 65.8338C37.4049 65.7792 36.2338 65.6621 35.0696 65.5843C34.4746 65.5446 34.2996 65.187 34.3115 64.7362C34.3185 64.4635 34.2732 63.6005 34.3525 63.3855L41.7364 65.5768C41.7958 67.807 41.4503 70.1257 40.7264 72.5269ZM26.7778 56.3207C29.0997 54.43 31.9532 53.1182 35.2892 52.3334C38.9217 55.699 41.3732 59.8556 41.7026 64.8545L39.9141 64.0343C37.7848 63.088 34.9472 62.1539 33.4766 60.589C33.1327 60.2231 32.6773 59.4909 32.675 59.1333C32.673 58.8559 32.9238 58.6315 33.2113 58.4821C34.3276 57.9017 35.645 58.3076 36.7684 58.6185C37.4911 58.8189 37.4373 58.9026 37.5704 58.6755C37.2359 58.0337 35.3607 57.6124 34.5231 57.5873C33.2839 57.5507 30.757 58.3509 30.7132 58.3434C29.3129 58.0978 27.9849 57.0332 26.7778 56.3207ZM30.3452 55.6184C31.3185 55.1271 32.2051 57.2391 31.2344 57.7665C30.2492 58.3014 29.2952 56.1485 30.3452 55.6184ZM24.4341 61.2633C23.6301 62.3425 26.0334 63.8571 26.8812 62.7885C27.7417 61.7043 25.3017 60.0989 24.4341 61.2633ZM35.228 73.5291C34.7557 73.553 34.2893 73.5593 33.8281 73.5483L33.1185 67.7398C33.3981 67.6884 34.4457 67.9226 34.7817 67.9705C35.3362 68.0499 35.7381 68.3364 35.6631 69.067C35.5569 70.4943 35.3662 72.1539 35.228 73.5291Z" fill="#DADADA"/>
<path fill-rule="evenodd" clip-rule="evenodd" d="M43.7391 64.315C44.1948 59.7932 46.3975 55.8231 50.119 52.3334C54.4512 53.3253 57.8094 55.2018 60.2916 57.8738C58.658 58.4982 56.746 59.5499 54.9823 59.5597C54.5681 59.5617 53.5829 58.6739 52.0341 58.1862C50.8044 57.7991 47.4132 57.4124 46.5511 58.547C46.666 58.8512 46.6182 58.738 47.5411 58.6433C48.4055 58.5544 52.7461 58.3171 52.4251 60.1174C52.3473 60.5528 51.6392 61.3514 51.1437 61.7267C49.3078 63.1155 46.3213 63.7156 43.7391 64.315ZM44.6817 72.5269C44.1715 70.8697 43.8541 69.2737 43.7218 67.736C44.6055 68.1218 49.2723 68.9322 50.0313 68.564C50.1695 68.4972 50.3089 68.3368 50.4478 68.1132C50.4478 68.0165 50.4486 67.9203 50.4498 67.824C50.4573 67.2431 50.4834 65.5639 50.8179 65.0997C51.0248 64.8125 51.522 64.662 51.8572 64.5707C52.0214 64.1353 52.1704 63.7938 52.2983 63.641C54.3668 61.5703 56.5919 60.9324 59.0978 59.4473C59.5058 58.9486 59.9358 58.4381 60.3887 57.9787L60.581 58.1929C58.7042 60.0604 57.5163 62.583 55.3006 64.1361C54.7201 64.4714 51.4923 64.6525 51.0505 65.2656C50.6441 65.8299 50.6959 69.4521 50.8384 70.2955C50.928 70.8252 51.3703 71.1621 51.4071 70.38C51.4619 69.2214 51.5796 68.0559 51.6578 66.8973C51.698 66.305 52.057 66.131 52.5099 66.1427C52.784 66.1498 53.6512 66.105 53.8672 66.1836L51.6653 73.5321C49.4243 73.5916 47.0945 73.2472 44.6817 72.5269ZM60.9661 58.6452C62.8663 60.956 64.184 63.7958 64.973 67.1158C61.5908 70.7309 57.4141 73.1706 52.3915 73.4984L53.2152 71.7185C54.1665 69.5995 55.1048 66.7759 56.6772 65.3119C57.0448 64.9696 57.7805 64.5165 58.1399 64.5141C58.4187 64.5122 58.6442 64.7618 58.7942 65.0479C59.3775 66.1593 58.9695 67.4699 58.6572 68.5879C58.4558 69.3071 58.3717 69.2536 58.5999 69.3861C59.2448 69.0532 59.6681 67.1869 59.6934 66.3534C59.7301 65.1201 58.9261 62.6058 58.9336 62.5618C59.1804 61.1686 60.2502 59.8466 60.9661 58.6452ZM61.6717 62.1959C62.1654 63.1646 60.0432 64.0465 59.5134 63.0805C58.9758 62.1 61.1395 61.1506 61.6717 62.1959ZM55.9996 56.3132C54.9152 55.5127 53.3937 57.9044 54.4671 58.7482C55.5566 59.6045 57.1696 57.1762 55.9996 56.3132ZM43.6747 67.0549C43.6507 66.5853 43.6443 66.1207 43.6554 65.6617L49.4918 64.9555C49.5436 65.2342 49.3082 66.2767 49.26 66.6108C49.1803 67.1629 48.8924 67.5626 48.1582 67.4879C46.724 67.3823 45.0565 67.1925 43.6747 67.0549Z" fill="#DADADA"/>
<path fill-rule="evenodd" clip-rule="evenodd" d="M43.7391 84.6993C44.1948 89.221 46.3975 93.191 50.119 96.6812C54.4512 95.6893 57.8094 93.8124 60.2916 91.1404C58.658 90.5163 56.746 89.4643 54.9823 89.4544C54.5681 89.4525 53.5829 90.3402 52.0341 90.8279C50.8044 91.2154 47.4132 91.6018 46.5511 90.4675C46.666 90.163 46.6182 90.2766 47.5411 90.3713C48.4055 90.4598 52.7461 90.6971 52.4251 88.8967C52.3473 88.4613 51.6392 87.6628 51.1437 87.2879C49.3078 85.899 46.3213 85.2986 43.7391 84.6993ZM44.6817 76.4872C44.1715 78.1446 43.8541 79.7409 43.7218 81.2783C44.6055 80.8927 49.2723 80.082 50.0313 80.4502C50.1695 80.517 50.3089 80.6773 50.4478 80.9009C50.4478 80.9976 50.4486 81.0939 50.4498 81.1902C50.4573 81.771 50.4834 83.4507 50.8179 83.9148C51.0248 84.2021 51.522 84.3523 51.8572 84.4434C52.0214 84.8788 52.1704 85.2203 52.2983 85.3732C54.3668 87.4439 56.5919 88.0817 59.0978 89.5668C59.5058 90.0656 59.9358 90.576 60.3887 91.0354L60.581 90.8212C58.7042 88.9537 57.5163 86.4311 55.3006 84.878C54.7201 84.5428 51.4923 84.3616 51.0505 83.7486C50.6441 83.1842 50.6959 79.562 50.8384 78.7186C50.928 78.1889 51.3703 77.8522 51.4071 78.6342C51.4619 79.7927 51.5796 80.9584 51.6578 82.1168C51.698 82.7091 52.057 82.8833 52.5099 82.8714C52.784 82.8644 53.6512 82.9096 53.8672 82.8306L51.6653 75.482C49.4243 75.4227 47.0945 75.7669 44.6817 76.4872ZM60.9661 90.3689C62.8663 88.0582 64.184 85.2183 64.973 81.8984C61.5908 78.2832 57.4141 75.8435 52.3915 75.5158L53.2152 77.2956C54.1665 79.4147 55.1048 82.2388 56.6772 83.7022C57.0448 84.0445 57.7805 84.4976 58.1399 84.5C58.4187 84.502 58.6442 84.2523 58.7942 83.9662C59.3775 82.8553 58.9695 81.5443 58.6572 80.4262C58.4558 79.7071 58.3717 79.7605 58.5999 79.628C59.2448 79.961 59.6681 81.8272 59.6934 82.6607C59.7301 83.894 58.9261 86.4087 58.9336 86.4524C59.1804 87.8459 60.2502 89.1676 60.9661 90.3689ZM61.6717 86.8186C62.1654 85.8496 60.0432 84.9676 59.5134 85.9336C58.9758 86.9142 61.1395 87.8636 61.6717 86.8186ZM55.9996 92.7014C54.9152 93.5015 53.3937 91.1097 54.4671 90.2659C55.5566 89.4096 57.1696 91.838 55.9996 92.7014ZM43.6747 81.9593C43.6507 82.4293 43.6443 82.8934 43.6554 83.3525L49.4918 84.0587C49.5436 83.7804 49.3082 82.7374 49.26 82.4033C49.1803 81.8516 48.8924 81.4515 48.1582 81.5262C46.724 81.6319 45.0565 81.8217 43.6747 81.9593Z" fill="#DADADA"/>
<path fill-rule="evenodd" clip-rule="evenodd" d="M32.4748 75.5487C27.9312 76.0025 23.9421 78.1943 20.4351 81.8978C21.4318 86.2093 23.3177 89.5514 26.0026 92.0218C26.6297 90.396 27.6868 88.4931 27.6962 86.738C27.6986 86.3257 26.8066 85.3452 26.3165 83.8038C25.9272 82.5801 25.5386 79.205 26.6786 78.3472C26.9847 78.4616 26.8706 78.414 26.7754 79.3328C26.6866 80.1926 26.448 84.5124 28.257 84.1929C28.6941 84.1155 29.497 83.4109 29.8737 82.9177C31.2692 81.0906 31.8727 78.1184 32.4748 75.5487ZM40.7264 76.4867C39.0612 75.979 37.4571 75.663 35.9123 75.5314C36.2997 76.4109 37.1139 81.0552 36.7443 81.811C36.6772 81.9481 36.5157 82.0869 36.2914 82.2252C36.1943 82.2256 36.0975 82.2264 36.0008 82.2276C35.4171 82.2347 33.7294 82.2606 33.263 82.5934C32.9743 82.7994 32.8235 83.2941 32.7319 83.6282C32.2943 83.7913 31.9512 83.9394 31.7976 84.0668C29.7169 86.1253 29.076 88.3402 27.5837 90.8337C27.0826 91.2397 26.5697 91.6677 26.108 92.1184L26.3232 92.3098C28.1997 90.4423 30.7346 89.2598 32.2951 87.0551C32.6316 86.4774 32.8136 83.265 33.43 82.8249C33.9967 82.4206 37.6368 82.472 38.4842 82.6139C39.0161 82.7031 39.3549 83.1432 38.5691 83.1798C37.4049 83.2344 36.2338 83.3516 35.0696 83.4293C34.4746 83.4694 34.2996 83.8267 34.3115 84.2775C34.3185 84.5501 34.2732 85.4132 34.3525 85.6281L41.7364 83.4368C41.7958 81.207 41.4503 78.8879 40.7264 76.4867ZM26.7774 92.693C29.0997 94.5841 31.9532 95.8955 35.2892 96.6807C38.9217 93.3147 41.3732 89.158 41.7026 84.1595L39.9141 84.9793C37.7845 85.926 34.9472 86.8602 33.4766 88.4247C33.1327 88.7906 32.6773 89.5227 32.675 89.8804C32.673 90.1578 32.9238 90.3822 33.2113 90.5315C34.3276 91.1119 35.645 90.706 36.7684 90.3952C37.4911 90.1951 37.4373 90.1111 37.5704 90.3381C37.2359 90.9799 35.3607 91.4012 34.5231 91.4263C33.2839 91.4633 30.757 90.6628 30.7132 90.6702C29.3129 90.9158 27.9849 91.9805 26.7774 92.693ZM30.3452 93.3953C31.3185 93.8865 32.2051 91.7745 31.2344 91.2476C30.2492 90.7123 29.2952 92.8655 30.3452 93.3953ZM24.4341 87.7503C23.6301 86.6712 26.0334 85.1569 26.8812 86.2251C27.7417 87.3094 25.3017 88.9148 24.4341 87.7503ZM35.228 75.4846C34.7557 75.4606 34.2893 75.4543 33.8281 75.4653L33.1185 81.2738C33.3981 81.3253 34.4457 81.091 34.7817 81.0431C35.3362 80.9637 35.7381 80.6772 35.6631 79.9466C35.5569 78.5197 35.3662 76.8596 35.228 75.4846Z" fill="#DADADA"/>
<path d="M85.8502 87.7885C85.8502 88.9326 85.471 89.2188 83.7487 89.2188C82.0854 89.2188 81.6474 88.8398 81.6474 86.8457C81.6474 84.8508 82.0948 84.4335 83.7487 84.4335C85.4415 84.4335 85.6163 84.7509 85.7522 85.7632H86.5408C86.4436 84.4569 86.0832 83.8696 83.7487 83.8696C81.5408 83.8696 80.8408 84.4031 80.8408 86.8457C80.8408 89.3038 81.5501 89.7827 83.7487 89.7827C86.0349 89.7827 86.6378 89.2881 86.6378 87.7885H85.8502ZM91.2248 86.49V84.4951H95.1053V83.9312H90.4177V89.7211H95.0866V89.1565H91.2248V87.0539H94.9312V86.49H91.2248ZM101.697 84.4951H104.051V83.9312H98.5363V84.4951H100.889V89.7211H101.697V84.4951ZM108.58 83.9312H107.772V89.7211H111.03C112.567 89.7211 113.171 89.2414 113.171 88.0669C113.171 86.8682 112.596 86.49 111.012 86.49H108.58V83.9312ZM108.58 87.0539H110.866C112.022 87.0539 112.363 87.1779 112.363 88.0669C112.363 88.8397 112.129 89.1565 110.973 89.1565H108.58V87.0539ZM122.698 83.9312V84.6191H121.795C120.131 84.6191 119.314 85.1681 119.314 86.745C119.314 88.3142 120.131 88.8631 121.795 88.8631H122.698V89.7211H123.506V88.8631H124.44C126.084 88.8631 126.891 88.3142 126.891 86.745C126.891 85.1838 126.075 84.6191 124.431 84.6191H123.506V83.9312H122.698ZM123.506 85.1681H124.343C125.607 85.1681 126.084 85.6549 126.084 86.745C126.084 87.8346 125.617 88.3142 124.352 88.3142H123.506V85.1681ZM122.698 88.3142H121.852C120.539 88.3142 120.121 87.8346 120.121 86.745C120.121 85.6549 120.539 85.1681 121.852 85.1681H122.698V88.3142ZM131.702 83.9312H130.895V89.7211H132.178L136.332 84.4258V89.7211H137.139V83.9312H135.846L131.702 89.2805V83.9312ZM143.983 84.4951H146.337V83.9312H140.822V84.4951H143.175V89.7211H143.983V84.4951ZM150.865 86.49V83.9312H150.058V89.7211H150.865V87.0539H155.126V89.7211H155.933V83.9312H155.126V86.49H150.865ZM160.958 86.49V84.4951H164.839V83.9312H160.151V89.7211H164.82V89.1565H160.958V87.0539H164.664V86.49H160.958ZM173.619 87.7885C173.619 88.9326 173.24 89.2188 171.518 89.2188C169.854 89.2188 169.417 88.8398 169.417 86.8457C169.417 84.8508 169.864 84.4335 171.518 84.4335C173.21 84.4335 173.386 84.7509 173.522 85.7632H174.309C174.212 84.4569 173.852 83.8696 171.518 83.8696C169.31 83.8696 168.61 84.4031 168.61 86.8457C168.61 89.3038 169.32 89.7827 171.518 89.7827C173.804 89.7827 174.407 89.2881 174.407 87.7885H173.619ZM181.31 83.9312H180.502V89.7211H181.31V87.0539H182.03L185.366 89.7211H186.485L182.749 86.7295L186.095 83.9312H185.015L182.03 86.49H181.31V83.9312ZM190.691 83.9312V88.0974C190.691 89.0098 190.429 89.1565 189.807 89.1565H189.612V89.7211H190.128C191.159 89.7211 191.498 89.1259 191.498 88.028V84.4951H195.021V89.7211H195.828V83.9312H190.691ZM199.558 83.9312L202.243 88.6159C202.068 89.0331 201.882 89.1565 201.377 89.1565H200.901V89.7211H201.659C202.263 89.7211 202.71 89.427 203.021 88.8164L205.57 83.9312H204.733L202.68 87.9429L200.434 83.9312H199.558ZM209.35 83.9312V89.7211H212.608C214.145 89.7211 214.749 89.2414 214.749 88.0669C214.749 86.8682 214.174 86.49 212.588 86.49H210.157V84.4951H214.164V83.9312H209.35ZM210.157 87.0539H212.443C213.601 87.0539 213.941 87.1779 213.941 88.0669C213.941 88.8397 213.707 89.1565 212.55 89.1565H210.157V87.0539ZM218.626 86.83C218.626 89.2881 219.238 89.7827 221.68 89.7827C224.14 89.7827 224.734 89.2881 224.734 86.83C224.734 84.3641 224.14 83.8696 221.699 83.8696C219.238 83.8696 218.626 84.3641 218.626 86.83ZM219.432 86.83C219.432 84.7735 219.675 84.4335 221.688 84.4335C223.683 84.4335 223.926 84.7735 223.926 86.83C223.926 88.8709 223.674 89.2188 221.688 89.2188C219.705 89.2188 219.432 88.8709 219.432 86.83ZM229.574 87.0539H232.161C233.222 87.0539 233.523 87.1466 233.523 88.0903C233.523 89.041 233.066 89.1565 231.821 89.1565H229.574V87.0539ZM229.574 84.4951H232.19C233.066 84.4951 233.309 84.7119 233.309 85.4154C233.309 86.2428 232.969 86.49 231.889 86.49H229.574V84.4951ZM228.766 89.7211H232.482C233.884 89.7211 234.331 89.0792 234.331 88.0435C234.331 87.2785 234.175 86.8917 233.212 86.6835C234.038 86.4511 234.116 86.0027 234.116 85.3537C234.116 84.3103 233.523 83.9312 232.278 83.9312H228.766V89.7211Z" fill="#DADADA"/>
</g>
</g>
<defs>
<clipPath id="clip0_1456_1885">
<rect width="268" height="150" fill="white"/>
</clipPath>
<clipPath id="clip1_1456_1885">
<rect width="247.565" height="45.3333" fill="white" transform="translate(20.4351 52.3334)"/>
</clipPath>
</defs>
</svg>
