<svg width="268" height="150" viewBox="0 0 268 150" fill="none" xmlns="http://www.w3.org/2000/svg">
<g clip-path="url(#clip0_1456_1893)">
<path d="M128.092 120.09H101.786L99.4475 100.749L83.3716 89.2614C82.6409 85.9169 82.3486 82.4268 82.3486 78.9368C82.3486 50.4351 105.586 27.4592 134.084 27.4592C162.728 27.4592 185.819 50.5805 185.819 78.9368C185.819 82.4268 185.526 85.9169 184.796 89.2614L168.866 100.749L166.381 120.09H140.076L138.614 121.253C137.299 122.271 135.691 122.707 134.084 122.707C132.476 122.707 130.868 122.126 129.553 121.253L128.092 120.09V120.09Z" stroke="#DADADA" stroke-width="3.08753" stroke-miterlimit="40"/>
<path d="M128.092 120.09H101.786L99.4475 100.749L83.3716 89.2614C82.6409 85.9169 82.3486 82.4268 82.3486 78.9368C82.3486 50.4351 105.586 27.4592 134.084 27.4592C162.728 27.4592 185.819 50.5805 185.819 78.9368C185.819 82.4268 185.526 85.9169 184.796 89.2614L168.866 100.749L166.381 120.09H140.076L138.614 121.253C137.299 122.271 135.691 122.707 134.084 122.707C132.476 122.707 130.868 122.126 129.553 121.253L128.092 120.09V120.09Z" fill="#B1B1B1"/>
<path fill-rule="evenodd" clip-rule="evenodd" d="M128.092 120.09H101.786L99.4475 100.749L83.3716 89.2614C82.6409 85.9169 82.3486 82.4268 82.3486 78.9368C82.3486 50.4351 105.586 27.4592 134.084 27.4592C162.582 27.4592 185.819 50.5805 185.819 78.9368C185.819 82.4268 185.526 85.9169 184.796 89.2614L168.866 100.749L166.381 120.09H140.076L138.614 121.253C137.299 122.271 135.691 122.707 134.084 122.707C132.476 122.707 130.868 122.126 129.553 121.253L128.092 120.09V120.09ZM128.969 111.074H109.824L107.924 95.6598L92.1403 84.3173C91.7019 82.5723 91.4096 80.6818 91.4096 78.7914C91.4096 75.7377 91.9941 72.6839 93.3094 69.921L121.223 97.9865L94.1863 64.686C95.2093 60.3235 97.5476 56.5426 100.909 53.4889L125.169 95.2235L103.686 49.708C106.462 46.0726 110.408 43.3097 114.793 42.0009L129.699 93.7694L118.885 39.8197C122.246 37.9292 125.9 37.0567 129.699 37.0567C130.43 37.0567 131.307 37.0567 132.038 37.2022L134.23 93.1877L136.422 37.2022C137.153 37.0567 138.03 37.0567 138.76 37.0567C142.56 37.0567 146.214 38.0747 149.575 39.8197L138.76 93.7694L153.667 41.8555C158.051 43.1643 161.997 45.9272 164.774 49.5626L143.145 95.2235L167.404 53.4889C170.766 56.3972 173.104 60.3235 174.127 64.686L147.09 97.9865L175.004 69.921C176.319 72.6839 176.904 75.7377 176.904 78.7914C176.904 80.6818 176.612 82.4268 176.173 84.3173L160.39 95.6598L158.49 111.074H139.491L136.568 113.11C135.837 113.691 134.96 113.837 134.084 113.837C133.207 113.837 132.33 113.546 131.599 113.11L128.969 111.074Z" fill="#DADADA"/>
</g>
<defs>
<clipPath id="clip0_1456_1893">
<rect width="106.027" height="105.5" fill="white" transform="translate(81.0698 22.3334)"/>
</clipPath>
</defs>
</svg>
