<svg width="268" height="150" viewBox="0 0 268 150" fill="none" xmlns="http://www.w3.org/2000/svg">
<g clip-path="url(#clip0_1456_1883)">
<path d="M209.731 70.5807V70.5906C209.731 70.8052 209.558 70.9805 209.342 70.9805H209.325H206.227H206.225C206.011 70.9805 205.835 70.8052 205.835 70.5906V60.4308C205.835 59.7515 205.759 59.3014 205.622 59.0786C205.515 58.904 205.303 58.7984 204.967 58.7612C204.698 58.7311 204.403 58.7775 204.147 58.6724C203.966 58.5988 203.839 58.4266 203.828 58.2201C203.818 58.0286 203.936 57.8289 204.114 57.7344C204.195 57.692 204.294 57.6771 204.393 57.6688C205.172 57.5593 207.848 57.0795 209.132 56.8097C209.405 56.7517 209.685 56.7772 209.712 57.0806C209.749 58.1103 210.228 58.3825 211.552 57.5198C212.086 57.1816 212.588 56.9849 213.014 56.8387C213.441 56.6909 213.897 56.6184 214.388 56.6184C215.708 56.6184 216.725 57.0024 217.438 57.7769C218.151 58.5507 218.509 59.5723 218.509 60.8428V67.8292C218.509 68.7656 218.603 69.8847 219.722 69.9432H219.743C219.768 69.9432 219.794 69.9432 219.821 69.9478L219.842 69.9501L219.839 69.9519C220.081 69.9954 220.262 70.1915 220.262 70.4589C220.262 70.7299 220.029 70.9949 219.743 70.9805L219.7 70.9759H216.636C216.602 70.9805 216.569 70.9805 216.532 70.9805C215.475 70.9805 214.611 70.1183 214.611 69.0573V61.6375C214.611 60.7487 214.415 60.0903 214.02 59.6668C213.626 59.2445 213.1 59.0322 212.439 59.0322C211.889 59.0322 211.329 59.1894 210.754 59.5114C210.05 59.8924 209.744 60.5777 209.731 61.1728V70.5807L209.731 70.5807ZM202.382 60.3514V67.4538C202.382 68.0886 202.463 68.5497 202.624 68.8352C202.756 69.08 202.928 69.218 203.13 69.2563C203.458 69.3086 203.709 69.5928 203.709 69.9333C203.709 70.1881 203.57 70.4107 203.363 70.5262V70.5286C202.78 70.8651 202.084 71.118 201.361 71.1238C200.704 71.1238 200.15 70.9689 199.709 70.676C199.205 70.3434 198.956 69.767 198.256 69.767C197.648 69.767 197.24 70.2739 196.783 70.5918C196.303 70.9236 195.824 71.1238 195.055 71.1238C193.887 71.1238 192.931 70.7178 192.175 69.9021C191.423 69.0858 191.045 68.1901 191.045 67.216C191.045 65.6281 191.866 64.5052 193.505 63.8472C194.42 63.4894 195.339 63.1239 196.253 62.7358C196.932 62.4457 197.485 62.1962 197.912 61.9816L197.916 61.9793C198.328 61.7919 198.615 61.3776 198.615 60.8984V60.852V60.4484C198.615 59.0015 198.179 57.7774 196.914 57.7288C194.664 57.6422 194.476 59.5753 194.196 61.014C194.091 61.5484 193.634 61.8465 193.154 61.8465C192.791 61.8465 192.408 61.7101 192.006 61.4345C191.512 61.0958 191.512 60.7343 191.512 60.3515C191.512 58.0987 193.982 56.3405 196.921 56.3805C200.292 56.4252 202.382 57.2182 202.382 60.3515V60.3514ZM198.615 66.3859L198.611 63.9732L198.614 63.958V63.9436C198.614 63.6053 198.339 63.3333 198.001 63.3333C197.88 63.3333 197.768 63.3675 197.675 63.426L196.472 64.1031C195.334 64.747 194.738 65.7773 194.759 66.8482C194.782 67.9064 195.625 68.7684 196.68 68.7684C197.508 68.7684 198.217 68.2486 198.491 67.5183C198.633 67.1424 198.615 66.7787 198.615 66.386V66.3859ZM180.83 59.5665C180.836 59.5966 180.838 59.4736 180.838 59.6611C180.838 59.8468 180.77 60.1809 180.397 60.2394C180.022 60.2991 179.781 60.0758 179.695 59.8385C179.251 58.6435 178.323 57.7136 176.881 57.7136C176.372 57.7136 175.578 57.8951 175.216 58.2547C174.855 58.6146 174.675 59.0385 174.675 59.5248C174.675 59.9709 174.882 60.3891 175.296 60.7824C176.668 62.0761 179.081 62.0651 180.589 63.466C181.418 64.2302 181.834 65.2141 181.834 66.4213C181.834 67.9243 181.195 69.113 179.917 69.9797C178.788 70.7432 177.457 71.1238 175.924 71.1238C175.051 71.1238 174.238 70.998 173.482 70.7433C172.8 70.5135 172.281 70.2425 171.918 69.9269V69.9253C171.844 69.862 171.786 69.778 171.756 69.6811C171.665 69.3805 171.568 68.8444 171.471 68.0742C171.416 67.6593 171.376 67.2817 171.347 66.9411C171.342 66.8645 171.336 66.7908 171.344 66.7137C171.386 66.4213 171.642 66.1945 171.944 66.1945C172.202 66.1945 172.426 66.354 172.515 66.5785C173.276 68.5771 174.295 69.7165 176.341 69.7902C176.937 69.8115 177.421 69.6057 177.793 69.2332C178.166 68.863 178.353 68.3815 178.353 67.7887C178.353 67.2585 178.16 66.781 177.778 66.358C177.395 65.9334 176.775 65.5529 175.924 65.2141C173.988 64.4715 171.52 62.9446 171.502 60.5718C171.488 58.2566 173.325 57.0308 175.373 56.5823C176.939 56.24 178.53 56.4821 180.02 57.0813C180.049 57.0939 180.08 57.1061 180.107 57.1212C180.173 57.155 180.229 57.2112 180.265 57.2768C180.295 57.3271 180.316 57.3946 180.333 57.4467C180.418 57.6996 180.521 58.0674 180.635 58.549C180.758 59.0594 180.743 59.0704 180.832 59.5665H180.83H180.83ZM188.501 52.6526C188.501 53.9328 187.459 54.9707 186.172 54.9707C184.885 54.9707 183.842 53.9328 183.842 52.6526C183.842 51.3722 184.885 50.3337 186.172 50.3337C187.459 50.3337 188.501 51.3722 188.501 52.6526V52.6526ZM189.639 70.981C189.99 70.981 190.202 70.7299 190.202 70.4607C190.202 70.192 189.993 69.9832 189.662 69.9409C188.549 69.8011 188.451 68.7656 188.451 67.8316C188.451 67.8316 188.449 59.7823 188.449 57.0151C188.449 56.7152 188.14 56.689 187.868 56.7459C187.039 56.9495 186.158 57.101 185.323 57.2802C184.737 57.406 184.116 57.5029 183.463 57.6015C183.324 57.6231 183.129 57.6334 182.996 57.6944C182.808 57.7826 182.677 57.9786 182.677 58.1776C182.674 58.3882 182.797 58.5733 182.978 58.6602C183.155 58.7421 183.518 58.7711 183.723 58.8238C184.676 59.0634 184.556 59.9539 184.556 60.809V68.9274C184.556 70.0361 185.415 70.9805 186.473 70.9805C186.506 70.9805 188.873 70.981 189.639 70.981L189.639 70.981ZM123.218 50.3337C124.522 50.3337 124.992 50.3493 125.344 50.4637C125.607 50.549 125.825 50.7503 125.853 51.067C125.931 51.9471 126.064 53.9364 126.064 53.9364C126.147 54.7543 125.704 54.824 125.427 54.824C125.169 54.824 124.891 54.6366 124.781 54.2444C124.559 53.4595 124.157 52.9009 123.839 52.5778C123.371 52.0997 122.22 51.5469 120.391 51.5469H118.683C118.112 51.5469 117.842 51.9673 117.842 52.6577V57.7849C117.842 58.0338 117.844 58.4312 117.916 58.6708C118.033 59.0536 118.345 59.3588 118.742 59.4638C118.952 59.5189 119.18 59.5021 119.395 59.5021H120.239C121.6 59.5021 122.158 59.3797 122.446 59.1384C122.676 58.9417 122.868 58.4081 123.022 57.5355C123.039 57.4387 123.052 57.3249 123.087 57.2321C123.175 57.0012 123.399 56.8341 123.661 56.8341C123.934 56.8341 124.247 57.0035 124.247 57.3521L124.244 63.1512C124.244 63.4459 123.988 63.6715 123.667 63.6715C123.426 63.6715 123.217 63.5336 123.116 63.335C123.061 63.2242 123.05 63.0954 123.031 62.9736C122.885 62.1366 122.691 61.6103 122.446 61.401C122.137 61.1357 121.581 61.0028 120.239 61.0028H119.324C118.386 61.0028 117.847 61.6277 117.842 62.8379C117.839 63.6467 117.846 65.4763 117.842 66.3557C117.836 67.5636 117.873 68.0944 117.97 68.5075C118.065 68.9194 118.28 69.2229 118.624 69.3801C118.876 69.4955 119.196 69.5563 119.567 69.5882C119.937 69.6196 120.531 69.6532 121.338 69.6346C123.854 69.5731 125.102 68.9947 126.111 66.4057C126.222 66.1638 126.33 65.7275 126.857 65.7287C127.227 65.7287 127.537 65.9984 127.387 66.7926C127.306 67.226 126.751 70.0199 126.611 70.4904C126.53 70.7658 126.284 70.9811 125.889 70.9811C124.436 70.9794 113.525 70.9811 111.813 70.9811C111.486 70.9811 111.195 70.8112 111.195 70.4631C111.195 70.1567 111.377 69.941 111.813 69.941C112.467 69.941 112.943 69.3881 113.187 69.0643C113.496 68.6525 113.685 67.5735 113.685 65.8377V55.3252C113.696 53.6086 113.577 52.54 113.302 52.1172C113.087 51.7877 112.774 51.3571 111.804 51.3571C111.455 51.3571 111.195 51.1308 111.195 50.8449C111.195 50.4405 111.556 50.3338 111.792 50.3338H123.218L123.218 50.3337ZM148.237 70.981C147.179 70.981 146.32 70.0859 146.32 68.9279V60.8097C146.32 59.9539 146.439 59.0646 145.487 58.8239C145.282 58.7717 144.916 58.7427 144.741 58.6603C144.559 58.5739 144.438 58.3917 144.438 58.1788C144.441 57.9786 144.572 57.7831 144.76 57.6973C144.893 57.6365 145.086 57.6231 145.228 57.6027C145.881 57.5029 148.802 56.95 149.632 56.7482C149.905 56.6879 150.184 56.7168 150.211 57.0186C150.217 57.3307 150.226 57.8023 150.23 58.0146C150.242 58.4463 150.631 58.5698 150.987 58.2426C151.135 58.1005 151.371 57.8818 151.467 57.7941C151.916 57.4084 152.359 57.123 152.876 56.8625C153.18 56.7064 153.511 56.6136 153.886 56.6136C154.506 56.6136 155.015 56.805 155.421 57.1857C155.824 57.5685 156.027 58.0227 156.027 58.5531C156.027 59.0618 155.878 59.5271 155.579 59.9493C155.282 60.3746 154.93 60.6606 154.525 60.8097C154.355 60.8729 154.217 60.9043 154.111 60.9043C153.92 60.9043 153.729 60.8311 153.535 60.6838C152.981 60.2383 152.451 60.015 151.939 60.015C151.577 60.015 151.263 60.1153 150.997 60.3161C150.279 60.8602 150.216 61.6577 150.216 62.4607V67.8316C150.216 68.7684 150.299 69.8027 151.427 69.9444C151.831 69.9949 151.965 70.192 151.965 70.4612C151.965 70.7299 151.735 70.981 151.445 70.981H148.237H148.237ZM138.41 57.7095C138.41 57.6057 138.4 57.4549 138.445 57.3556C138.481 57.2743 138.551 57.2066 138.639 57.1694C138.742 57.123 138.909 57.1241 139.02 57.112C139.145 57.0969 139.272 57.0829 139.402 57.0655C140.207 56.967 140.867 56.8823 141.377 56.8137C141.531 56.7946 141.765 56.7441 141.927 56.7441C142.086 56.7441 142.224 56.841 142.283 56.9819C142.323 57.0765 142.318 57.1834 142.318 57.2866V68.1244C142.347 68.9848 142.526 69.8886 143.53 69.9409H143.55C143.576 69.9409 143.604 69.9409 143.63 69.9462H143.651L143.649 69.9501C143.89 69.9955 144.072 70.1897 144.072 70.4589C144.072 70.7276 143.841 70.9787 143.55 70.9787L140.444 70.9759C140.411 70.9759 140.377 70.9787 140.341 70.9787C139.844 70.9787 139.391 70.7891 139.049 70.4758C138.731 70.2252 138.58 69.8149 138.34 69.7263C138.05 69.6196 137.594 69.7628 136.91 70.206C136.377 70.5454 135.562 70.8819 135.137 71.0269C134.714 71.1761 134.253 71.2497 133.764 71.2497C132.445 71.2497 131.429 70.8651 130.716 70.09C130.001 69.3185 129.637 68.2945 129.637 67.0246V59.7997C129.637 59.2276 129.568 58.8517 129.453 58.6724C129.336 58.492 129.064 58.3713 128.636 58.307C128.472 58.2815 128.245 58.2705 128.087 58.1969C127.912 58.1133 127.793 57.9364 127.793 57.7275C127.795 57.5348 127.924 57.3434 128.106 57.2593C128.237 57.1984 128.412 57.2105 128.554 57.2048C129.164 57.1752 129.856 57.1311 130.617 57.0366C131.42 56.9373 132.082 56.8509 132.591 56.7818C132.745 56.7632 132.98 56.7123 133.14 56.7123C133.301 56.7123 133.438 56.8098 133.497 56.9477C133.54 57.0446 133.534 57.1543 133.534 57.2553V66.2292C133.534 67.1192 133.738 67.777 134.134 68.1999C134.527 68.6222 135.053 68.8352 135.713 68.8352C136.262 68.8352 136.824 68.6757 137.399 68.3583C138.103 67.9755 138.41 67.2874 138.422 66.6916C138.41 63.6999 138.402 60.7024 138.41 57.7095H138.41ZM168.32 60.3514V67.4539C168.32 68.0886 168.399 68.5497 168.56 68.8352C168.694 69.0801 168.865 69.218 169.069 69.2564C169.395 69.3086 169.647 69.5929 169.647 69.9334C169.647 70.1881 169.507 70.4107 169.301 70.5262V70.5286C168.717 70.8651 168.022 71.1181 167.299 71.1238C166.64 71.1238 166.088 70.9689 165.645 70.676C165.143 70.3435 164.893 69.767 164.194 69.767C163.585 69.767 163.177 70.274 162.721 70.5918C162.241 70.9237 161.761 71.1238 160.991 71.1238C159.826 71.1238 158.867 70.7178 158.111 69.9021C157.361 69.0858 156.982 68.1901 156.982 67.2161C156.982 65.6282 157.803 64.5052 159.443 63.8472C160.358 63.4894 161.277 63.1239 162.191 62.7358C162.869 62.4457 163.423 62.1962 163.85 61.9816L163.854 61.9793C164.267 61.7919 164.554 61.3776 164.554 60.8985V60.8521V60.4484C164.554 59.0016 164.116 57.7775 162.852 57.7288C160.601 57.6423 160.413 59.5753 160.134 61.0141C160.028 61.5484 159.572 61.8465 159.092 61.8465C158.728 61.8465 158.346 61.7102 157.942 61.4345C157.45 61.0958 157.45 60.7344 157.45 60.3515C157.45 58.0988 159.918 56.3406 162.858 56.3805C166.229 56.4253 168.32 57.2182 168.32 60.3515L168.32 60.3514ZM164.554 66.386L164.549 63.9732L164.551 63.958V63.9436C164.551 63.6053 164.277 63.3333 163.938 63.3333C163.818 63.3333 163.706 63.3675 163.614 63.4261L162.41 64.1031C161.271 64.7471 160.674 65.7774 160.696 66.8482C160.719 67.9065 161.563 68.7685 162.617 68.7685C163.446 68.7685 164.154 68.2486 164.429 67.5183C164.57 67.1424 164.554 66.7787 164.554 66.386L164.554 66.386ZM161.012 82.9323C161.012 82.0841 161.13 81.2034 160.187 80.9657C159.985 80.9122 159.624 80.8849 159.448 80.8032C159.268 80.7174 159.149 80.5335 159.151 80.3258C159.151 80.1285 159.282 79.9341 159.467 79.8483C159.598 79.788 159.791 79.7768 159.929 79.756C160.578 79.6575 163.508 79.1081 164.328 78.9084C164.599 78.8494 164.876 78.8772 164.903 79.1753C164.973 83.0803 164.927 87.2304 164.906 91.1463C164.914 91.5964 165.083 91.7485 165.259 91.8111C165.486 91.8888 165.759 91.7671 166.062 91.3528C166.994 90.1241 167.924 88.8965 168.856 87.6673C169.167 87.2815 169.471 86.6086 168.691 86.4525C168.075 86.3289 168.091 85.3677 168.807 85.3677H172.563C173.102 85.3677 173.28 85.6194 173.28 85.9181C173.28 86.6956 172.412 86.2129 171.011 87.7671L168.858 89.9872C168.215 90.6231 167.96 91.0465 168.588 91.792C169.56 93.1297 171.365 95.5367 171.773 96.0321C172.688 97.1425 173.675 98.4628 174.702 98.4965H174.721C174.746 98.4965 174.772 98.4982 174.797 98.5011L174.818 98.5034V98.5052C175.05 98.5505 175.228 98.743 175.228 99.0099C175.228 99.2768 175.009 99.5204 174.725 99.5204H171.013C170.104 99.5204 169.639 99.0099 169.181 98.3618L165.732 93.4918C165.45 93.0248 164.895 93.1448 164.89 93.7562C164.882 95.5484 164.874 97.338 164.874 99.1265V99.1381C164.874 99.3487 164.703 99.5233 164.487 99.5233L164.474 99.521V99.5233H161.404H161.398C161.188 99.5233 161.015 99.351 161.015 99.1381L161.017 99.1265H161.015C161.015 93.8079 161.013 88.2533 161.013 82.9323L161.012 82.9323ZM148.618 99.1231V99.133C148.618 99.3476 148.445 99.5227 148.229 99.5227H148.212H145.114H145.112C144.899 99.5227 144.72 99.3475 144.72 99.133V88.9737C144.72 88.2939 144.647 87.8442 144.511 87.621C144.402 87.4468 144.191 87.3419 143.854 87.3036C143.586 87.274 143.29 87.321 143.035 87.2159C142.853 87.1422 142.726 86.9694 142.715 86.7633C142.705 86.5719 142.823 86.3724 143.001 86.2779C143.083 86.2354 143.183 86.2203 143.282 86.2123C144.06 86.1026 146.736 85.6229 148.02 85.3519C148.294 85.294 148.572 85.3195 148.6 85.6234C148.638 86.6538 149.115 86.9247 150.441 86.0631C150.972 85.7239 151.477 85.5283 151.901 85.3815C152.328 85.2342 152.784 85.1605 153.275 85.1605C154.596 85.1605 155.612 85.5451 156.324 86.319C157.039 87.0929 157.394 88.1151 157.394 89.3863C157.394 90.923 157.398 96.372 157.398 96.372C157.398 97.3084 157.491 98.4268 158.609 98.486H158.63C158.655 98.486 158.681 98.486 158.708 98.4901L158.729 98.4924L158.728 98.4942C158.968 98.5388 159.15 98.7343 159.15 99.0012C159.15 99.272 158.915 99.5378 158.63 99.5226L158.588 99.5187H155.523C155.49 99.5226 155.456 99.5226 155.42 99.5226C154.364 99.5226 153.5 98.6606 153.5 97.6007V90.181C153.5 89.291 153.302 88.633 152.907 88.2103C152.514 87.7873 151.988 87.5743 151.326 87.5743C150.777 87.5743 150.216 87.7327 149.641 88.0542C148.938 88.4347 148.632 89.1204 148.618 89.7162V99.123L148.618 99.1231ZM119.821 87.814C120.579 87.6701 121.218 87.4022 121.695 87.01C122.443 86.395 122.814 85.3074 122.814 83.9893C122.814 82.6277 122.431 81.6299 121.663 80.993C121.21 80.613 120.594 80.2939 119.87 80.1546C119.444 80.0768 119.01 80.0768 118.578 80.1099C117.848 80.168 117.87 80.5056 117.87 81.2081V86.2605C117.87 86.5082 117.844 86.7884 117.918 87.0291C118.035 87.4133 118.348 87.719 118.746 87.825C119.077 87.9109 119.483 87.8744 119.821 87.814L119.821 87.814ZM120.031 98.1745C121.004 98.1287 121.845 97.8096 122.495 97.2231C123.344 96.4574 123.773 95.3111 123.773 93.7801C123.773 92.2069 123.291 91.1516 122.319 90.3915C121.738 89.9373 120.994 89.6124 120.169 89.4285C119.734 89.3317 119.098 89.2743 118.678 89.4163C118.31 89.5405 118.022 89.8404 117.914 90.2157C117.855 90.4206 117.87 90.6346 117.87 90.8446L117.827 94.6694C117.813 95.8789 117.877 96.6998 117.972 97.1111C118.066 97.5249 118.28 97.8306 118.626 97.9894C119.064 98.1921 119.557 98.1966 120.031 98.1746V98.1745ZM120.083 78.8777C122.382 78.8777 124.086 79.1951 125.24 79.9081C125.874 80.3008 126.354 80.7754 126.663 81.3602C126.971 81.9443 127.125 82.6725 127.125 83.5444C127.125 84.8188 126.616 85.8846 125.593 86.7321C125.028 87.1973 124.407 87.6453 123.711 87.915C123.598 87.9602 123.513 88.0205 123.513 88.1459C123.513 88.3315 123.686 88.3733 123.831 88.4075C124.974 88.6877 125.933 89.138 126.679 89.7627C127.788 90.691 128.339 91.9295 128.339 93.4622C128.339 94.5662 128.095 95.5136 127.605 96.2991C127.114 97.0863 126.423 97.7441 125.527 98.276C124.763 98.7211 123.857 99.0465 122.814 99.2489C122.044 99.3969 121.08 99.5233 119.008 99.5233C116.858 99.5227 111.995 99.5227 111.81 99.5216C111.613 99.5211 111.198 99.4456 111.195 99.0313C111.194 98.6774 111.469 98.5151 111.736 98.4901C113.35 98.3387 113.688 96.7173 113.688 94.7715V83.8883C113.688 82.1664 113.577 81.088 113.303 80.6639C113.087 80.3345 112.824 80.0201 112.078 79.912C111.786 79.8698 111.198 79.8292 111.198 79.3518C111.198 78.8703 111.689 78.8777 111.808 78.8777C113.229 78.8777 116.563 78.8738 118.732 78.8777H120.083ZM141.211 88.8502V95.9526C141.211 96.5873 141.291 97.0484 141.452 97.3339C141.585 97.5788 141.756 97.7168 141.96 97.7551C142.287 97.8074 142.538 98.0915 142.538 98.4321C142.538 98.6869 142.398 98.9095 142.192 99.0249V99.0274C141.609 99.3639 140.913 99.6168 140.19 99.6225C139.532 99.6225 138.979 99.4676 138.537 99.1747C138.035 98.8422 137.785 98.2657 137.085 98.2657C136.477 98.2657 136.068 98.7727 135.612 99.0906C135.132 99.4224 134.652 99.6225 133.883 99.6225C132.717 99.6225 131.758 99.2165 131.002 98.4009C130.253 97.5845 129.874 96.6888 129.874 95.7148C129.874 94.1269 130.694 93.0039 132.334 92.3459C133.249 91.9881 134.169 91.6226 135.083 91.2345C135.76 90.9444 136.314 90.6949 136.741 90.4803L136.745 90.4781C137.158 90.2906 137.445 89.8764 137.445 89.3972V89.3508V88.9471C137.445 87.5003 137.007 86.2762 135.744 86.2275C133.492 86.141 133.305 88.074 133.025 89.5128C132.92 90.0471 132.463 90.3452 131.984 90.3452C131.62 90.3452 131.237 90.2089 130.833 89.9332C130.341 89.5945 130.341 89.2331 130.341 88.8503C130.341 86.5975 132.81 84.8393 135.75 84.8792C139.121 84.9239 141.211 85.7169 141.211 88.8503L141.211 88.8502ZM137.445 94.8846L137.441 92.4719L137.443 92.4568V92.4423C137.443 92.104 137.169 91.832 136.83 91.832C136.71 91.832 136.597 91.8662 136.505 91.9248L135.301 92.6019C134.162 93.2458 133.566 94.2761 133.587 95.3469C133.611 96.4051 134.454 97.2671 135.509 97.2671C136.337 97.2671 137.046 96.7474 137.32 96.017C137.462 95.6411 137.445 95.2774 137.445 94.8847L137.445 94.8846ZM141.159 88.8502V95.9526C141.159 96.5873 141.239 97.0484 141.4 97.3339C141.534 97.5788 141.705 97.7168 141.909 97.7551C142.235 97.8074 142.487 98.0915 142.487 98.4321C142.487 98.6869 142.347 98.9095 142.141 99.0249V99.0274C141.557 99.3639 140.862 99.6168 140.139 99.6225C139.48 99.6225 138.928 99.4676 138.485 99.1747C137.983 98.8422 137.733 98.2657 137.034 98.2657C136.425 98.2657 136.017 98.7727 135.561 99.0906C135.081 99.4224 134.601 99.6225 133.831 99.6225C132.665 99.6225 131.707 99.2165 130.951 98.4009C130.201 97.5845 129.822 96.6888 129.822 95.7148C129.822 94.1269 130.642 93.0039 132.282 92.3459C133.198 91.9881 134.117 91.6226 135.031 91.2345C135.709 90.9444 136.262 90.6949 136.69 90.4803L136.694 90.4781C137.106 90.2906 137.393 89.8764 137.393 89.3972V89.3508V88.9471C137.393 87.5003 136.956 86.2762 135.692 86.2275C133.441 86.141 133.253 88.074 132.974 89.5128C132.868 90.0471 132.412 90.3452 131.932 90.3452C131.568 90.3452 131.186 90.2089 130.782 89.9332C130.29 89.5945 130.29 89.2331 130.29 88.8503C130.29 86.5975 132.758 84.8393 135.698 84.8792C139.069 84.9239 141.159 85.7169 141.159 88.8503L141.159 88.8502ZM137.393 94.8846L137.389 92.4719L137.391 92.4568V92.4423C137.391 92.104 137.117 91.832 136.778 91.832C136.658 91.832 136.546 91.8662 136.454 91.9248L135.25 92.6019C134.111 93.2458 133.514 94.2761 133.536 95.3469C133.559 96.4051 134.403 97.2671 135.457 97.2671C136.286 97.2671 136.994 96.7474 137.269 96.017C137.41 95.6411 137.393 95.2774 137.393 94.8847L137.393 94.8846Z" fill="#DADADA"/>
<path fill-rule="evenodd" clip-rule="evenodd" d="M47.7378 62.0028C47.7586 54.7502 53.9751 50.3403 72.4826 50.3334V50.3334H72.5688C91.1072 50.3403 97.3142 54.7649 97.3142 62.0391C97.3142 82.2235 79.1578 99.6667 72.5257 99.6667C65.8977 99.6667 47.7591 82.2437 47.7378 62.0745V62.0028ZM56.1669 66.9981C55.0086 68.3928 56.076 70.0328 57.3039 71.3648L72.4321 87.8132C72.4321 87.8132 82.048 77.3881 87.416 71.5719C87.5196 71.4595 87.6212 71.3504 87.7201 71.2441C89.2063 69.647 90.0993 68.6873 88.6333 66.9245L85.3802 63.0133L77.4057 60.9758H67.4611L59.4836 63.0133C58.8533 63.7703 58.3164 64.4154 57.7768 65.0639C57.2693 65.6737 56.7594 66.2865 56.1669 66.9981ZM82.6672 71.6399C83.7436 71.407 85.8449 70.9642 85.8695 70.959C81.2135 72.677 78.3143 77.0338 75.5777 81.1463C74.9886 82.0316 74.4069 82.9057 73.817 83.7396C73.817 83.7396 77.2251 77.4488 78.1952 75.5807C78.6528 74.6985 78.8313 73.57 76.6071 73.8108C76.0137 73.8746 73.7475 74.1571 73.7475 74.1571C73.7475 74.1571 76.7575 73.1698 77.9026 72.7167C79.4458 72.1044 79.389 71.4797 79.3411 70.9522C79.3386 70.9244 79.3361 70.8968 79.3338 70.8695C79.2725 70.1346 78.9805 67.9404 78.9805 67.9404C78.9805 67.9404 80.0479 70.083 80.3931 70.8029C80.7511 71.5523 81.422 71.9109 82.6672 71.6399ZM85.8695 70.959C85.8696 70.959 85.8697 70.959 85.8697 70.959V70.959C85.8696 70.959 85.8695 70.959 85.8695 70.959ZM66.8563 75.5807C67.8263 77.4488 71.2344 83.7397 71.2344 83.7397L71.2343 83.7397C70.6444 82.9059 70.0629 82.032 69.4738 81.1468C66.737 77.0341 63.8375 72.677 59.1818 70.959C59.1818 70.959 61.3008 71.4057 62.3841 71.64C63.6288 71.911 64.3004 71.5523 64.6584 70.803C65.0029 70.083 66.0709 67.9404 66.0709 67.9404C66.0709 67.9404 65.7783 70.1346 65.7176 70.8695C65.7154 70.8969 65.7129 70.9245 65.7103 70.9524C65.6622 71.4799 65.6052 72.1045 67.1483 72.7167C68.2938 73.1698 71.3031 74.1571 71.3031 74.1571C71.3031 74.1571 69.0383 73.8746 68.4442 73.8108C66.2195 73.57 66.398 74.6985 66.8563 75.5807ZM70.7044 67.2253L67.3401 66.4177H77.7113L74.3476 67.2253C73.7104 67.3779 73.2316 67.9 73.1354 68.545L72.5263 71.5424L71.9154 68.545C71.8197 67.9 71.3411 67.3779 70.7044 67.2253ZM79.1544 66.0052L79.1542 66.0052L79.1542 66.0053L79.1544 66.0052ZM82.4207 65.4592L79.1544 66.0052L85.1822 63.6586L84.9101 63.959C84.4262 64.4922 84.3579 65.2777 84.7438 65.884C85.2756 66.7188 85.9885 67.8518 86.3063 68.426L83.8344 65.9159C83.4659 65.5428 82.9389 65.3723 82.4207 65.4592ZM65.8965 66.0052L65.8966 66.0052V66.0053L65.8965 66.0052ZM65.8965 66.0052L59.8686 63.6586L60.1408 63.959C60.6247 64.4922 60.694 65.2777 60.3075 65.884C59.7753 66.7188 59.0624 67.8518 58.7452 68.426L61.2169 65.9159C61.5854 65.5428 62.1125 65.3723 62.6302 65.4592L65.8965 66.0052Z" fill="#DADADA"/>
</g>
<defs>
<clipPath id="clip0_1456_1883">
<rect width="172.525" height="49.3333" fill="white" transform="translate(47.7373 50.3334)"/>
</clipPath>
</defs>
</svg>
