<svg width="217" height="42" viewBox="0 0 217 42" fill="none" xmlns="http://www.w3.org/2000/svg">
<path fill-rule="evenodd" clip-rule="evenodd" d="M18.6196 0.0819622C17.6917 0.188591 16.9301 0.31431 16.6728 0.403296L16.4565 0.478013V11.259C16.4565 18.3422 16.4895 22.0604 16.5526 22.0995C16.6055 22.1323 16.6488 22.2483 16.6488 22.3573C16.6488 22.5386 17.0433 23.3688 17.2737 23.6723C17.5332 24.0142 18.3615 24.7654 18.5956 24.8712C18.7409 24.937 18.8599 25.0184 18.8599 25.0524C18.8599 25.0862 18.9572 25.1363 19.0763 25.1636C19.1953 25.1909 19.4223 25.2588 19.581 25.3143C20.3237 25.5743 20.9449 25.6448 21.4677 25.5285C22.2984 25.3438 23.0883 25.094 23.0891 25.0159C23.0896 24.9761 23.1351 24.9436 23.1902 24.9436C23.2845 24.9436 23.3932 24.8682 23.7113 24.5821C23.7851 24.5158 23.8731 24.4616 23.9072 24.4616C24.0654 24.4616 24.8212 23.4166 25.0576 22.8708C25.1495 22.6587 25.2713 22.3867 25.3282 22.2663C25.4612 21.9856 25.4564 19.9865 25.3221 19.7082C25.266 19.5917 25.1434 19.312 25.0498 19.0867C24.9562 18.8614 24.8447 18.677 24.802 18.677C24.7592 18.677 24.7243 18.6318 24.7243 18.5765C24.7243 18.4555 24.6224 18.3293 24.028 17.7136C23.5578 17.2266 22.6005 16.6951 22.0175 16.5972C21.1757 16.4559 21.2634 16.6913 21.2634 14.5719V12.6877L21.72 12.748C22.3769 12.8346 23.1114 12.9957 23.305 13.0955C23.3968 13.1429 23.5308 13.1816 23.6027 13.1816C23.6746 13.1816 23.859 13.2413 24.0125 13.3142C24.1661 13.3872 24.4324 13.5062 24.6042 13.5788C24.7761 13.6513 24.9166 13.7435 24.9166 13.7836C24.9166 13.8237 24.958 13.8565 25.0085 13.8565C25.3116 13.8565 27.2239 15.4312 27.2239 15.6808C27.2239 15.7379 27.2563 15.7848 27.296 15.7849C27.3357 15.785 27.4979 15.9792 27.6566 16.2166C27.8152 16.454 27.9678 16.6491 27.9959 16.6503C28.0239 16.6514 28.1308 16.8693 28.2334 17.1344C28.336 17.3995 28.4536 17.6165 28.4949 17.6165C28.5361 17.6165 28.5699 17.6946 28.5699 17.79C28.5699 17.8855 28.6086 18.0048 28.6559 18.0551C28.742 18.1468 28.8742 18.6478 29.0745 19.6411C29.2481 20.5021 29.1694 22.6914 28.955 22.9672C28.9137 23.0202 28.8497 23.2478 28.8127 23.4729C28.7757 23.6979 28.7059 23.9065 28.6576 23.9365C28.6094 23.9664 28.5699 24.0751 28.5699 24.178C28.5699 24.281 28.5266 24.3651 28.4737 24.3651C28.4208 24.3651 28.3776 24.4268 28.3776 24.502C28.3776 24.6629 28.0735 25.2666 27.969 25.3131C27.9293 25.3309 27.8969 25.3882 27.8969 25.4406C27.8969 25.4929 27.8429 25.5963 27.7767 25.6702C27.5161 25.9617 27.4162 26.0948 27.4162 26.151C27.4162 26.3679 25.3687 28.1251 25.116 28.1251C25.0548 28.1251 24.9162 28.2077 24.8082 28.3088C24.7 28.4098 24.4639 28.5202 24.2834 28.5542C24.1029 28.5881 23.9552 28.6573 23.9552 28.7079C23.9552 28.7585 23.8557 28.8 23.7341 28.8C23.6125 28.8 23.472 28.8364 23.4217 28.8809C23.0348 29.2235 20.2217 29.3611 19.0763 29.0935C18.7458 29.0162 18.4754 28.9186 18.4754 28.8765C18.4754 28.8344 18.3955 28.8 18.2979 28.8C18.2002 28.8 17.9948 28.7403 17.8413 28.6674C17.6877 28.5944 17.4214 28.4754 17.2496 28.4028C17.0778 28.3303 16.9372 28.2427 16.9372 28.2084C16.9372 28.1741 16.829 28.1188 16.6968 28.0855C16.5647 28.0522 16.4565 27.9824 16.4565 27.9305C16.4565 27.8784 16.4113 27.8359 16.356 27.8359C16.3008 27.8359 16.1473 27.7274 16.0151 27.5949C15.8829 27.4623 15.7383 27.3538 15.6937 27.3538C15.5903 27.3538 14.8339 26.6041 14.5818 26.2516C14.4761 26.1037 14.3355 25.9255 14.2694 25.8557C14.2033 25.7858 14.1492 25.6822 14.1492 25.6253C14.1492 25.5685 14.1103 25.5221 14.0626 25.5221C14.015 25.5221 13.896 25.327 13.7982 25.0886C13.7004 24.8502 13.5879 24.655 13.5483 24.6548C13.5087 24.6546 13.4762 24.5676 13.4762 24.4616C13.4762 24.3555 13.4415 24.2687 13.3991 24.2687C13.2933 24.2687 12.9945 23.4095 12.9951 23.107C12.9953 22.9717 12.9415 22.807 12.8754 22.7406C12.7813 22.6464 12.7447 20.3532 12.7071 12.1886C12.6593 1.8236 12.6578 1.75727 12.4668 1.79005C12.361 1.80818 12.0257 1.93833 11.7216 2.07928L11.1686 2.33554L11.2031 12.0729C11.2378 21.8529 11.2534 22.308 11.5982 23.5457C11.6868 23.8638 11.7828 24.2435 11.8115 24.3893C11.8402 24.535 11.9021 24.6544 11.9489 24.6544C11.9958 24.6544 12.0342 24.6923 12.0342 24.7385C12.0342 24.8672 12.3928 25.6203 12.6598 26.0523C12.7909 26.2644 12.928 26.501 12.9646 26.5779C13.0011 26.655 13.1521 26.8451 13.3003 27.0005C13.4483 27.1559 13.7107 27.4712 13.8834 27.7011C14.056 27.9311 14.2405 28.1219 14.2934 28.1254C14.3463 28.1288 14.6026 28.3248 14.8629 28.561C15.1232 28.7972 15.4152 29.0156 15.5118 29.0463C15.6084 29.0771 15.6874 29.1426 15.6874 29.1921C15.6874 29.2415 15.7265 29.282 15.7743 29.282C15.8221 29.282 16.1217 29.4297 16.4402 29.6103C16.7588 29.7908 17.1518 29.9677 17.3137 30.0033C17.4755 30.039 17.6326 30.1082 17.6628 30.1572C17.6929 30.2061 17.8207 30.2461 17.9466 30.2461C18.0726 30.2461 18.2024 30.2895 18.235 30.3425C18.2677 30.3956 18.413 30.439 18.558 30.439C18.7029 30.439 18.8641 30.4817 18.9162 30.5339C19.0624 30.6806 21.41 30.7571 22.2248 30.6418C23.4184 30.4729 23.6662 30.4216 23.7214 30.3319C23.7506 30.2847 23.8516 30.2461 23.9461 30.2461C24.103 30.2461 24.515 30.0836 24.9393 29.8543C25.0311 29.8047 25.1718 29.7641 25.2518 29.7641C25.3318 29.7641 25.3973 29.7207 25.3973 29.6677C25.3973 29.6147 25.4591 29.5713 25.5347 29.5713C25.6102 29.5713 25.7292 29.5171 25.7991 29.4508C25.8689 29.3845 26.0342 29.2743 26.1664 29.206C26.2986 29.1376 26.5532 28.9533 26.7323 28.7962C26.9113 28.6392 27.0849 28.5108 27.1183 28.5108C27.2113 28.5108 28.3776 27.3776 28.3776 27.287C28.3776 27.2432 28.4857 27.0903 28.6179 26.9473C28.7501 26.8044 28.8583 26.6457 28.8583 26.5948C28.8583 26.5439 28.8907 26.4878 28.9304 26.4701C29.0295 26.4259 29.4496 25.7485 29.6679 25.281C29.767 25.0689 29.8848 24.8201 29.9299 24.728C29.975 24.636 30.0119 24.4949 30.0119 24.4147C30.0119 24.3344 30.048 24.2687 30.092 24.2687C30.136 24.2687 30.2245 24.0193 30.2885 23.7144C30.3526 23.4094 30.4525 22.9431 30.5107 22.678C30.6451 22.0642 30.6476 20.0309 30.5146 19.4C30.4588 19.1349 30.3562 18.6469 30.2867 18.3154C30.2171 17.9841 30.1268 17.7129 30.0861 17.7129C30.0453 17.7129 30.0119 17.6482 30.0119 17.5691C30.0119 17.3833 29.066 15.5538 28.9481 15.5116C28.8987 15.4938 28.8583 15.4399 28.8583 15.3917C28.8583 15.3008 28.6763 15.0719 28.0677 14.3976C27.8708 14.1796 27.7086 13.9685 27.7072 13.9288C27.7058 13.8891 27.6616 13.8565 27.6093 13.8565C27.5568 13.8565 27.4161 13.7723 27.2968 13.6694C27.1774 13.5665 26.9499 13.371 26.7913 13.2349C26.6327 13.0989 26.4271 12.9633 26.3347 12.9336C26.2422 12.9038 26.1664 12.839 26.1664 12.7895C26.1664 12.7401 26.1223 12.6996 26.0684 12.6996C26.0144 12.6996 25.799 12.5911 25.5896 12.4586C25.3802 12.326 25.1431 12.2175 25.0628 12.2175C24.9824 12.2175 24.9162 12.1849 24.9158 12.1452C24.9154 12.1055 24.6449 11.9904 24.3149 11.8894C23.985 11.7886 23.6716 11.6744 23.6188 11.6358C23.5049 11.5526 22.9029 11.4464 21.672 11.2927L21.2634 11.2416V9.35705V7.47254L21.4797 7.52556C21.5987 7.55477 22.0758 7.60886 22.5398 7.64588C23.004 7.6829 23.4067 7.75058 23.4348 7.79618C23.4629 7.84178 23.6251 7.87909 23.7954 7.87909C24.0751 7.87909 25.3501 8.23996 25.8299 8.45495C27.0769 9.01364 28.0157 9.509 28.0731 9.63857C28.0908 9.67829 28.1665 9.71088 28.2414 9.71088C28.3163 9.71088 28.3776 9.75137 28.3776 9.80083C28.3776 9.85029 28.4565 9.91584 28.5529 9.9465C28.6494 9.97716 28.8116 10.0791 28.9135 10.1729C29.0153 10.2667 29.2714 10.4722 29.4825 10.6297C30.034 11.0409 31.3579 12.4076 31.3579 12.5658C31.3579 12.6393 31.4005 12.6996 31.4527 12.6996C31.505 12.6996 31.6629 12.8839 31.8037 13.1093C31.9444 13.3347 32.0964 13.5335 32.1413 13.5512C32.1863 13.5689 32.2231 13.6448 32.2231 13.7199C32.2231 13.7951 32.2635 13.8565 32.3128 13.8565C32.3621 13.8565 32.4328 13.9541 32.4699 14.0734C32.5071 14.1927 32.5645 14.312 32.5976 14.3385C32.6968 14.4181 33.1845 15.4407 33.1845 15.5691C33.1845 15.6347 33.2277 15.6883 33.2806 15.6883C33.3335 15.6883 33.3768 15.7484 33.3768 15.8219C33.3768 15.8954 33.4414 16.0797 33.5204 16.2316C33.5993 16.3835 33.6642 16.6028 33.6646 16.719C33.6649 16.8352 33.7084 16.957 33.7613 16.9898C33.8142 17.0226 33.8574 17.1559 33.8574 17.2861C33.8574 17.4162 33.898 17.5981 33.9475 17.6901C34.1516 18.0695 34.3381 19.6761 34.3378 21.0528C34.3375 22.6489 34.198 23.5438 33.6635 25.3775C33.6017 25.5896 33.5119 25.8043 33.464 25.8547C33.416 25.905 33.3768 26.0244 33.3768 26.1198C33.3768 26.2153 33.3335 26.2933 33.2806 26.2933C33.2277 26.2933 33.1845 26.3587 33.1845 26.4386C33.1845 26.6051 32.6923 27.5786 32.5836 27.627C32.5439 27.6447 32.5115 27.7175 32.5115 27.7888C32.5115 27.8602 32.4575 27.9759 32.3913 28.046C32.3253 28.116 32.2063 28.3005 32.127 28.4558C32.0476 28.6112 31.8422 28.8884 31.6703 29.0719C31.4984 29.2553 31.3579 29.4403 31.3579 29.483C31.3579 29.594 29.4549 31.4995 29.3441 31.4995C29.2932 31.4995 29.1498 31.5971 29.0253 31.7164C28.7513 31.9789 28.4832 32.1605 28.2574 32.2366C28.1649 32.2678 28.0892 32.3263 28.0892 32.3666C28.0892 32.4069 27.8405 32.5645 27.5364 32.7168C27.2323 32.8692 26.962 33.0177 26.9355 33.047C26.8424 33.1502 26.1835 33.4277 26.0317 33.4277C25.9471 33.4277 25.878 33.471 25.878 33.5241C25.878 33.5771 25.7771 33.6205 25.6537 33.6205C25.5303 33.6205 25.399 33.6508 25.362 33.6881C25.2511 33.7993 24.2151 34.0995 23.9369 34.1011C23.7946 34.1018 23.6547 34.1406 23.626 34.1873C23.5678 34.2817 22.8483 34.3685 21.4076 34.455C20.4392 34.5131 18.6739 34.3607 18.3566 34.1915C18.2648 34.1425 18.0732 34.1025 17.9312 34.1025C17.7098 34.1025 16.6497 33.7867 16.0239 33.5343C15.5116 33.3277 13.7647 32.4066 13.7647 32.343C13.7646 32.3032 13.6997 32.2707 13.6204 32.2707C13.5411 32.2707 13.4762 32.2302 13.4762 32.1808C13.4762 32.1313 13.3973 32.0658 13.3009 32.0351C13.2044 32.0045 13.0418 31.9039 12.9394 31.8117C12.837 31.7195 12.5545 31.4837 12.3116 31.2877C11.7008 30.7946 11.0749 30.1729 10.7346 29.7209C10.5769 29.5116 10.3505 29.2341 10.2316 29.1043C10.1126 28.9745 10.0153 28.8095 10.0153 28.7377C10.0153 28.6659 9.97882 28.6072 9.93422 28.6072C9.88971 28.6072 9.77174 28.4553 9.67205 28.2697C9.57235 28.0842 9.45747 27.9323 9.41661 27.9323C9.37575 27.9323 9.3423 27.8672 9.3423 27.7877C9.3423 27.7082 9.29903 27.6431 9.24616 27.6431C9.19328 27.6431 9.15002 27.5992 9.15002 27.5455C9.15002 27.4918 9.00562 27.1339 8.82902 26.7501C8.29334 25.5854 8.18864 25.3288 8.18864 25.1801C8.18864 25.1016 8.15048 24.962 8.10385 24.8699C7.98916 24.6435 7.80438 23.8727 7.68238 23.1118C7.61989 22.7216 7.56913 19.1667 7.54779 13.6878C7.52904 8.84926 7.4778 4.89039 7.43406 4.89039C7.33638 4.89039 5.3122 6.87778 5.09983 7.18215C5.01581 7.30256 4.7895 7.57184 4.59703 7.78056C4.40446 7.98919 4.24699 8.20515 4.24699 8.26049C4.24699 8.31583 4.21305 8.36114 4.17162 8.36114C4.13009 8.36114 4.01328 8.50219 3.91205 8.67447C3.81072 8.84676 3.66084 9.06079 3.57883 9.15006C3.49692 9.23924 3.34368 9.47786 3.23851 9.68032C3.13323 9.88268 3.02469 10.07 2.9972 10.0965C2.9697 10.123 2.86213 10.3075 2.7581 10.5063C2.65408 10.7052 2.53555 10.8678 2.49469 10.8678C2.45383 10.8678 2.42037 10.9213 2.42037 10.9868C2.42037 11.1381 1.91555 12.1586 1.81951 12.2014C1.77981 12.2192 1.74741 12.3133 1.74741 12.4105C1.74741 12.5079 1.67521 12.7321 1.58695 12.9087C1.2945 13.4939 1.26672 13.5635 1.26672 13.7105C1.26672 13.7908 1.22346 13.8565 1.17058 13.8565C1.1177 13.8565 1.07444 13.9382 1.07444 14.0382C1.07444 14.2464 0.811217 15.172 0.681047 15.4218C0.632978 15.5139 0.593754 15.7113 0.593754 15.8605C0.593754 16.0097 0.554529 16.173 0.506653 16.2234C0.41984 16.3147 0.286112 17.0689 0.0970093 18.5324C-0.0302772 19.5177 -0.0328729 22.4594 0.092587 23.4011C0.302167 24.9729 0.424936 25.6707 0.507422 25.7583C0.554914 25.8086 0.593754 25.9719 0.593754 26.1212C0.593754 26.2703 0.632978 26.4677 0.681047 26.5598C0.811217 26.8096 1.07444 27.7352 1.07444 27.9434C1.07444 28.0434 1.1177 28.1251 1.17058 28.1251C1.22346 28.1251 1.26672 28.1908 1.26672 28.2711C1.26672 28.4181 1.2945 28.4877 1.58695 29.0729C1.67521 29.2496 1.74741 29.4737 1.74741 29.5711C1.74741 29.6684 1.77981 29.7625 1.81951 29.7802C1.91555 29.823 2.42037 30.8435 2.42037 30.9949C2.42037 31.0603 2.45383 31.1138 2.49469 31.1138C2.53555 31.1138 2.6538 31.2766 2.75753 31.4754C3.01989 31.978 3.58422 32.8717 3.73611 33.0248C3.80562 33.0949 3.86254 33.1816 3.86254 33.2176C3.86263 33.2536 3.95992 33.3998 4.07885 33.5426C4.19777 33.6854 4.48974 34.0493 4.72768 34.3514C5.24923 35.0135 6.96269 36.7483 7.4802 37.1382C7.68478 37.2923 7.87379 37.4427 7.90023 37.4723C7.92667 37.5019 8.12135 37.6538 8.33285 37.8098C8.54435 37.9658 8.73903 38.1173 8.76547 38.1466C8.83027 38.2184 9.16415 38.427 9.3423 38.5068C9.42161 38.5424 9.50813 38.6001 9.53457 38.635C9.73675 38.9022 12.5321 40.3692 12.839 40.3692C12.9163 40.3692 12.9939 40.4016 13.0116 40.4415C13.0499 40.5281 14.1842 40.9514 14.5578 41.0185C14.7031 41.0446 14.8222 41.0998 14.8222 41.1412C14.8222 41.1827 14.9844 41.2399 15.1827 41.2684C15.381 41.2969 15.8244 41.3925 16.1681 41.4809C18.8651 42.1747 22.9078 42.1728 25.7338 41.4765C26.1039 41.3853 26.5473 41.2894 26.7192 41.2633C26.8911 41.2371 27.0317 41.1771 27.0317 41.1299C27.0317 41.0827 27.1065 41.044 27.1979 41.044C27.3909 41.044 28.4872 40.6473 29.2214 40.3118C29.5005 40.1842 29.7889 40.0799 29.8623 40.0799C29.9358 40.0799 30.0103 40.0473 30.028 40.0076C30.0694 39.9141 31.0859 39.4051 31.2311 39.4051C31.292 39.4051 31.3562 39.3682 31.3739 39.3233C31.3915 39.2784 31.7088 39.052 32.0789 38.8203C32.449 38.5887 32.7663 38.3651 32.7839 38.3236C32.8016 38.2821 32.8607 38.2481 32.9154 38.2481C32.9701 38.2481 33.1539 38.1289 33.3238 37.983C33.648 37.7048 33.9583 37.4613 34.3989 37.1394C34.7528 36.8809 36.6084 35.0193 37.03 34.4999C37.2151 34.2719 37.4206 34.0272 37.4866 33.9562C37.5528 33.8852 37.6068 33.8003 37.6068 33.7676C37.6068 33.7349 37.715 33.5997 37.8472 33.4671C37.9794 33.3345 38.0875 33.1789 38.0875 33.1213C38.0875 33.0636 38.1633 32.9456 38.2558 32.8591C38.4468 32.6806 38.5858 32.4667 38.8262 31.9815C38.9182 31.7959 39.0493 31.5867 39.1173 31.5167C39.1854 31.4466 39.2412 31.3309 39.2412 31.2596C39.2412 31.1883 39.2754 31.1155 39.3171 31.0977C39.4036 31.0612 39.9141 30.0009 39.9141 29.8579C39.9141 29.8063 39.9574 29.7641 40.0103 29.7641C40.0631 29.7641 40.1064 29.7057 40.1064 29.6343C40.1064 29.5133 40.2884 29.0693 40.4971 28.6808C40.5466 28.5888 40.5871 28.426 40.5871 28.3193C40.5871 28.2125 40.6304 28.1251 40.6832 28.1251C40.7361 28.1251 40.7794 28.0239 40.7794 27.9002C40.7794 27.7764 40.8118 27.6427 40.8514 27.603C40.9167 27.5375 41.0945 26.9128 41.2241 26.2933C41.2519 26.1608 41.3092 25.9655 41.3516 25.8595C41.4544 25.6022 41.6422 24.5915 41.7636 23.6421C42.0276 21.578 41.7886 17.2158 41.3516 16.1221C41.3092 16.0161 41.2519 15.8208 41.2241 15.6883C41.0945 15.0688 40.9167 14.4441 40.8514 14.3786C40.8118 14.3389 40.7794 14.2052 40.7794 14.0814C40.7794 13.9577 40.7361 13.8565 40.6832 13.8565C40.6304 13.8565 40.5871 13.7764 40.5871 13.6785C40.5871 13.5163 40.4273 13.1065 40.1964 12.6768C40.1469 12.5848 40.1064 12.4437 40.1064 12.3635C40.1064 12.2832 40.0631 12.2175 40.0103 12.2175C39.9574 12.2175 39.9141 12.1676 39.9141 12.1067C39.9141 11.9546 39.4106 10.9237 39.3168 10.8839C39.2752 10.8662 39.2412 10.7934 39.2412 10.722C39.2412 10.6507 39.1854 10.535 39.1173 10.4649C39.0493 10.3949 38.9182 10.1857 38.8262 10.0001C38.5858 9.51488 38.4468 9.30104 38.2558 9.12249C38.1633 9.03601 38.0875 8.918 38.0875 8.86035C38.0875 8.8027 37.9794 8.64709 37.8472 8.51453C37.715 8.38197 37.6068 8.24796 37.6068 8.21682C37.6068 8.18568 37.5632 8.10778 37.5099 8.04376C36.8448 7.24491 36.5394 6.9124 35.613 5.97905C35.0187 5.38025 34.5085 4.89039 34.4793 4.89039C34.45 4.89039 34.3739 4.84624 34.3101 4.79215C33.9324 4.47284 33.7212 4.30943 33.4235 4.1061C33.2399 3.98067 33.0894 3.84551 33.089 3.80579C33.0886 3.76606 33.0271 3.73348 32.9521 3.73348C32.8772 3.73348 32.8016 3.69954 32.7839 3.65799C32.7663 3.61653 32.449 3.39296 32.0789 3.16129C31.7088 2.92961 31.3915 2.70325 31.3739 2.65832C31.3562 2.61339 31.292 2.57656 31.2311 2.57656C31.0859 2.57656 30.0694 2.06752 30.028 1.974C30.0103 1.93428 29.9358 1.90169 29.8623 1.90169C29.7889 1.90169 29.5005 1.79738 29.2214 1.66983C28.4872 1.33432 27.3909 0.937598 27.1979 0.937598C27.1065 0.937598 27.0317 0.904143 27.0317 0.863266C27.0317 0.822388 26.7613 0.732534 26.4308 0.663698C26.1004 0.594861 25.6569 0.495174 25.4454 0.442149C24.8345 0.288954 24.0677 0.16391 23.1861 0.0738638C22.1879 -0.028234 19.5376 -0.02351 18.6196 0.0819622Z" fill="white"/>
<path fill-rule="evenodd" clip-rule="evenodd" d="M70.9452 10.9542C70.5369 11.0012 70.1179 11.0851 70.0142 11.1408C69.9104 11.1965 69.7171 11.242 69.5846 11.242C69.452 11.242 69.3169 11.2854 69.2842 11.3384C69.2515 11.3914 69.1423 11.4348 69.0414 11.4348C68.835 11.4348 68.1477 11.7335 68.0985 11.8446C68.0808 11.8843 68.0042 11.9169 67.9282 11.9169C67.782 11.9169 66.9994 12.3964 66.9449 12.5194C66.9272 12.5593 66.8619 12.5917 66.7996 12.5917C66.7374 12.5917 66.5698 12.7002 66.4273 12.8328C66.2848 12.9653 66.1425 13.0738 66.1112 13.0738C65.8987 13.0738 64.1408 15.2228 64.1408 15.4826C64.1408 15.5364 64.1071 15.5804 64.0658 15.5804C64.0246 15.5804 63.9069 15.7974 63.8043 16.0625C63.7017 16.3276 63.5841 16.5445 63.5428 16.5445C63.5016 16.5445 63.4678 16.6504 63.4678 16.7799C63.4678 16.9094 63.4324 17.0372 63.389 17.064C63.3457 17.0909 63.2334 17.4514 63.1394 17.8651C63.0455 18.2789 62.927 18.7692 62.8761 18.9548C62.7623 19.3694 62.8256 22.8862 62.9576 23.486C63.1667 24.4363 63.2921 24.7962 63.8308 25.9927C64.1536 26.71 64.8364 27.6559 65.5676 28.3992C65.9869 28.8254 66.3598 29.1742 66.396 29.1742C66.4323 29.1742 66.5221 29.2285 66.5959 29.2947C66.8798 29.5501 67.0002 29.622 67.746 29.9821C68.169 30.1863 68.58 30.3848 68.6593 30.4232C68.7386 30.4615 69.0631 30.568 69.3803 30.6598C69.6976 30.7515 70.1302 30.8778 70.3417 30.9404C70.8386 31.0875 74.3638 31.0916 74.764 30.9455C74.9227 30.8877 75.312 30.7615 75.6293 30.6651C75.9465 30.5688 76.2473 30.4541 76.2974 30.4105C76.3477 30.3668 76.4666 30.3311 76.5618 30.3311C76.657 30.3311 76.7349 30.2877 76.7349 30.2347C76.7349 30.1817 76.7898 30.1383 76.8568 30.1383C76.9238 30.1383 77.1401 30.0283 77.3375 29.8938L77.6962 29.6493V27.0015C77.6962 25.5453 77.6612 24.3537 77.6183 24.3537C77.5753 24.3537 77.4564 24.4315 77.3539 24.5267C77.0306 24.8266 76.0741 25.5106 75.9779 25.5106C75.9271 25.5106 75.8713 25.5431 75.8536 25.5829C75.8037 25.6956 75.1157 25.9927 74.905 25.9927C74.8011 25.9927 74.716 26.0319 74.716 26.0797C74.716 26.259 72.9969 26.363 72.1202 26.2368C71.6278 26.1659 71.5115 26.1249 70.7613 25.7563C69.9059 25.336 68.7554 24.0572 68.7554 23.5264C68.7554 23.4512 68.7193 23.3896 68.6751 23.3896C68.6308 23.3896 68.5227 23.0906 68.4347 22.7251C68.1493 21.5392 68.2575 19.7149 68.6699 18.762C68.8661 18.3085 69.2726 17.5569 69.3812 17.4469C69.4408 17.3865 69.5955 17.2129 69.7248 17.0613C70.4609 16.1982 71.737 15.6698 73.0953 15.6655C73.7722 15.6634 74.7882 15.8362 74.9515 15.9813C75.0018 16.026 75.1207 16.0625 75.2159 16.0625C75.3111 16.0625 75.3889 16.0963 75.3889 16.1378C75.3889 16.1791 75.5079 16.2629 75.6533 16.3239C76.113 16.5165 76.4603 16.7694 77.0488 17.3399C77.3632 17.6449 77.6376 17.8943 77.6584 17.8943C77.6792 17.8943 77.6962 16.6757 77.6962 15.1861C77.6962 12.4956 77.6948 12.4768 77.4799 12.2971C77.361 12.1975 77.2132 12.1147 77.1514 12.1129C77.0898 12.1111 77.0249 12.0754 77.0072 12.0335C76.9647 11.9324 75.9019 11.4348 75.7285 11.4348C75.6537 11.4348 75.5688 11.3963 75.5397 11.349C75.5106 11.3019 75.3459 11.2409 75.1735 11.2135C75.0012 11.186 74.6871 11.1176 74.4756 11.0616C73.9304 10.9171 71.8248 10.8531 70.9452 10.9542ZM210.249 10.9539C209.841 11.0011 209.422 11.0851 209.318 11.1408C209.214 11.1965 209.039 11.242 208.929 11.242C208.82 11.242 208.654 11.2801 208.563 11.3267C208.167 11.5272 207.658 11.7241 207.535 11.7241C207.462 11.7241 207.388 11.7566 207.37 11.7964C207.353 11.8361 207.089 11.9973 206.785 12.1545C206.481 12.3118 206.233 12.4744 206.233 12.5161C206.233 12.5577 206.187 12.5917 206.132 12.5917C206.077 12.5917 205.98 12.6359 205.916 12.69C205.852 12.744 205.692 12.8775 205.56 12.9867C205.095 13.3705 204.548 13.9123 204.358 14.1772C204.252 14.3244 204.112 14.5021 204.045 14.5719C203.979 14.6418 203.925 14.7419 203.925 14.7942C203.925 14.8467 203.893 14.9039 203.853 14.9217C203.654 15.0102 202.772 16.6684 202.772 16.9531C202.772 17.0253 202.734 17.1257 202.689 17.176C202.601 17.2729 202.423 17.9131 202.262 18.7138C202.209 18.9789 202.165 19.9984 202.165 20.9794C202.165 21.9604 202.209 22.9799 202.262 23.245C202.423 24.0457 202.601 24.6859 202.689 24.7827C202.734 24.8331 202.772 24.9741 202.772 25.0961C202.772 25.218 202.815 25.3178 202.868 25.3178C202.921 25.3178 202.964 25.3963 202.964 25.4922C202.964 25.5882 203.027 25.7508 203.105 25.8538C203.183 25.9566 203.248 26.1169 203.249 26.2096C203.251 26.3024 203.296 26.3783 203.348 26.3783C203.401 26.3783 203.445 26.4397 203.445 26.5149C203.445 26.59 203.477 26.6659 203.517 26.6837C203.556 26.7013 203.744 26.9544 203.934 27.246C204.124 27.5377 204.475 27.9772 204.713 28.2226C205.266 28.7938 206.332 29.6563 206.484 29.6563C206.548 29.6563 206.615 29.6887 206.633 29.7286C206.684 29.8425 207.255 30.1383 207.425 30.1383C207.509 30.1383 207.578 30.1817 207.578 30.2347C207.578 30.2877 207.658 30.3311 207.755 30.3311C207.852 30.3311 207.963 30.3629 208.001 30.4018C208.185 30.5855 209.337 30.8684 210.511 31.0176C211.336 31.1226 213.797 31.0516 214.145 30.9129C214.261 30.8667 214.648 30.7499 215.005 30.6535C215.362 30.557 215.654 30.4451 215.654 30.4046C215.654 30.3642 215.72 30.3311 215.8 30.3311C215.881 30.3311 216.108 30.2304 216.305 30.1072C216.502 29.984 216.739 29.8552 216.832 29.8209C216.987 29.7638 217 29.542 217 27.0562C217 25.4826 216.963 24.3537 216.912 24.3537C216.863 24.3537 216.809 24.3871 216.792 24.4279C216.647 24.7618 214.693 25.9927 214.307 25.9927C214.223 25.9927 214.113 26.0318 214.063 26.0797C213.777 26.3522 211.254 26.3616 210.895 26.0915C210.842 26.0518 210.673 25.9891 210.52 25.9522C210.366 25.9154 210.042 25.7483 209.799 25.581C208.334 24.5726 207.583 23.0556 207.58 21.0957C207.579 20.3311 207.801 19.105 207.976 18.9114C208.022 18.861 208.059 18.7236 208.059 18.6061C208.059 18.4885 208.092 18.378 208.131 18.3602C208.171 18.3426 208.29 18.1573 208.396 17.9486C208.744 17.2612 210.083 16.0625 210.503 16.0625C210.58 16.0625 210.667 16.025 210.695 15.9791C210.775 15.8498 211.888 15.6561 212.53 15.6601C213.103 15.6636 213.892 15.7982 214.26 15.9551C214.825 16.1959 215.558 16.595 215.558 16.6613C215.558 16.7031 215.612 16.7379 215.678 16.7387C215.744 16.7394 216.052 16.9997 216.363 17.3172C216.674 17.6345 216.944 17.8943 216.964 17.8943C216.984 17.8943 217 16.6447 217 15.1174V12.3405L216.521 12.1046C216.257 11.9748 216.041 11.8361 216.04 11.7964C216.039 11.7566 215.96 11.7241 215.865 11.7241C215.769 11.7241 215.607 11.6603 215.504 11.5825C215.402 11.5046 215.241 11.4396 215.148 11.4379C215.055 11.4362 214.903 11.3935 214.811 11.3429C214.179 10.9946 211.717 10.7847 210.249 10.9539ZM51.5468 13.6014V15.7682L52.9648 15.7948L54.3828 15.8215L54.4309 23.1486L54.479 30.4757L56.9064 30.5015L59.3339 30.5272V20.981V11.4348H55.4403H51.5468V13.6014ZM92.6937 20.981V30.5272L97.8131 30.4903C102.686 30.4552 103.548 30.4206 103.99 30.2427C104.096 30.2002 104.431 30.0871 104.735 29.9916C105.039 29.8959 105.288 29.7814 105.288 29.737C105.288 29.6926 105.349 29.6563 105.424 29.6563C105.596 29.6563 106.152 29.3435 106.152 29.2465C106.153 29.2067 106.198 29.1742 106.254 29.1742C106.385 29.1742 107.307 28.2499 107.307 28.1183C107.307 28.0627 107.339 28.017 107.379 28.0167C107.476 28.0158 107.787 27.4584 107.787 27.2864C107.787 27.2112 107.831 27.1496 107.884 27.1496C107.936 27.1496 107.98 27.0615 107.98 26.9537C107.98 26.8459 108.047 26.5965 108.13 26.3993C108.344 25.8868 108.348 23.634 108.136 22.9076C107.892 22.0747 107.496 21.387 106.92 20.7987C106.344 20.2098 106.248 20.1401 105.528 19.7878C104.12 19.0984 103.247 18.9485 100.313 18.8917L98.0775 18.8484V17.4555V16.0625H102.393C106.24 16.0625 106.716 16.0459 106.768 15.91C106.8 15.8261 106.826 14.7849 106.826 13.5961V11.4348H99.7599H92.6937V20.981ZM111.152 20.9794V30.5239H113.79C116.342 30.5239 116.429 30.5178 116.488 30.3311C116.521 30.2251 116.589 30.1383 116.639 30.1383C116.688 30.1383 116.728 30.0769 116.728 30.0017C116.728 29.9266 116.761 29.8507 116.8 29.833C116.882 29.7965 117.401 29.0155 117.401 28.9288C117.401 28.8976 117.509 28.73 117.642 28.5561C117.774 28.3823 117.882 28.19 117.882 28.1287C117.882 28.0674 117.915 28.0173 117.956 28.0173C117.997 28.0173 118.112 27.8654 118.212 27.6799C118.311 27.4943 118.429 27.3424 118.474 27.3424C118.518 27.3424 118.555 27.2966 118.555 27.2407C118.555 27.1181 119.528 25.5724 119.634 25.5267C119.675 25.509 119.708 25.4331 119.708 25.358C119.708 25.2828 119.745 25.2214 119.789 25.2214C119.834 25.2214 119.92 25.1238 119.981 25.0045C120.278 24.4243 121.348 22.7754 121.457 22.7309C121.5 22.7131 121.535 22.6565 121.535 22.6049C121.535 22.488 122.513 20.9429 122.614 20.8991C122.655 20.8813 122.689 20.8243 122.689 20.7721C122.689 20.7199 122.797 20.5351 122.929 20.3613C123.061 20.1875 123.169 19.9951 123.169 19.9339C123.169 19.8726 123.213 19.8225 123.266 19.8225C123.318 19.8225 123.362 19.776 123.362 19.7192C123.362 19.6112 123.597 19.3404 123.691 19.3404C123.72 19.3404 123.756 21.8459 123.77 24.9081L123.794 30.4757L126.366 30.5014L128.938 30.5271V20.9809V11.4348H126.315C123.807 11.4348 123.686 11.4432 123.527 11.6287C123.436 11.7354 123.362 11.8448 123.362 11.8719C123.362 11.9531 122.839 12.7339 122.761 12.7685C122.721 12.7862 122.689 12.8621 122.689 12.9372C122.689 13.0124 122.648 13.0738 122.599 13.0738C122.55 13.0738 122.479 13.1714 122.442 13.2907C122.405 13.4101 122.344 13.5293 122.307 13.5558C122.195 13.6357 121.535 14.7093 121.535 14.811C121.535 14.8631 121.503 14.9063 121.463 14.907C121.423 14.9078 121.239 15.1674 121.054 15.484C120.869 15.8006 120.685 16.0603 120.646 16.061C120.606 16.0618 120.574 16.1066 120.574 16.1603C120.574 16.2764 119.885 17.3497 119.781 17.3961C119.741 17.4139 119.708 17.4862 119.708 17.5568C119.708 17.6275 119.676 17.6998 119.636 17.7176C119.551 17.7556 119.155 18.3744 118.891 18.8825C118.788 19.0814 118.67 19.244 118.629 19.244C118.588 19.244 118.555 19.3091 118.555 19.3886C118.555 19.4682 118.521 19.5332 118.481 19.5332C118.44 19.5332 118.325 19.6851 118.225 19.8707C118.125 20.0563 118.007 20.2081 117.963 20.2081C117.918 20.2081 117.882 20.2539 117.882 20.3098C117.882 20.4325 116.909 21.9781 116.803 22.0238C116.762 22.0415 116.727 22.1066 116.725 22.1684C116.721 22.2914 116.395 22.7148 116.304 22.7148C116.273 22.7148 116.248 20.1768 116.248 17.0748V11.4348H113.7H111.152V20.9794ZM131.149 13.7487V16.0625H133.216H135.283V23.2932V30.5239H137.975H140.667V23.2932V16.0625H142.723C144.51 16.0625 144.788 16.0424 144.838 15.91C144.87 15.8261 144.897 14.7849 144.897 13.5961V11.4348H138.023H131.149V13.7487ZM147.012 20.9794V30.5239H149.702H152.393L152.418 27.4147L152.443 24.3055L154.326 24.2466C156.624 24.1746 157.008 24.126 158.019 23.779C158.376 23.6567 159.364 23.1545 159.492 23.0306C159.562 22.9629 159.651 22.9076 159.689 22.9076C159.813 22.9076 160.519 22.1801 160.868 21.693C161.252 21.1566 161.721 20.191 161.721 19.9356C161.721 19.8416 161.758 19.7234 161.804 19.673C161.849 19.6227 161.942 19.1778 162.011 18.6845C162.11 17.9647 162.111 17.6218 162.016 16.9491C161.951 16.4879 161.858 16.0354 161.809 15.9433C161.761 15.8513 161.721 15.7117 161.721 15.6332C161.721 15.4947 161.434 14.8098 161.335 14.7128C161.308 14.6862 161.2 14.4955 161.095 14.289C160.749 13.6105 159.588 12.5299 158.9 12.2462C158.654 12.1446 158.453 12.0289 158.452 11.9892C158.452 11.9495 158.365 11.9169 158.258 11.9169C158.152 11.9169 157.99 11.8768 157.898 11.8277C157.806 11.7786 157.428 11.6701 157.058 11.5864C156.495 11.4592 155.619 11.4343 151.698 11.4345L147.012 11.4348V20.9794ZM164.22 20.9794V30.5239L166.888 30.5199L169.556 30.5157L169.772 30.1757C169.891 29.9887 169.989 29.7954 169.989 29.746C169.989 29.6967 170.025 29.6563 170.07 29.6563C170.114 29.6563 170.232 29.5044 170.332 29.3188C170.431 29.1332 170.546 28.9814 170.587 28.9814C170.628 28.9814 170.662 28.9163 170.662 28.8368C170.662 28.7572 170.7 28.6922 170.747 28.6922C170.794 28.6922 170.858 28.5937 170.888 28.4733C170.918 28.353 171.02 28.1686 171.114 28.0636C171.209 27.9586 171.372 27.71 171.476 27.5111C171.581 27.3123 171.7 27.1496 171.741 27.1496C171.782 27.1496 171.815 27.0882 171.815 27.013C171.815 26.9379 171.848 26.862 171.889 26.8443C171.93 26.8266 172.113 26.5753 172.298 26.2858C172.782 25.5239 172.863 25.3853 172.93 25.1973C172.964 25.1046 173.023 25.0286 173.061 25.0286C173.099 25.0286 173.212 24.8767 173.312 24.6912C173.412 24.5056 173.527 24.3537 173.567 24.3537C173.608 24.3537 173.642 24.3112 173.642 24.2591C173.642 24.1574 174.302 23.0838 174.414 23.004C174.451 22.9775 174.511 22.8582 174.549 22.7389C174.586 22.6195 174.656 22.5219 174.706 22.5219C174.755 22.5219 174.795 22.4605 174.795 22.3853C174.795 22.3102 174.828 22.2344 174.868 22.2166C174.971 22.1704 175.468 21.3877 175.468 21.2706C175.468 21.2166 175.507 21.1722 175.553 21.1722C175.6 21.1722 175.664 21.0962 175.695 21.0035C175.762 20.8014 175.937 20.529 176.164 20.2687C176.256 20.1637 176.357 19.9986 176.387 19.9019C176.418 19.8052 176.483 19.7261 176.532 19.7261C176.582 19.7261 176.622 19.6663 176.622 19.5932C176.622 19.5202 176.687 19.4067 176.766 19.3411C176.892 19.2355 176.912 19.8733 176.934 24.8487L176.959 30.4757L179.53 30.5014L182.102 30.5271V20.9795V11.4317L179.444 11.4574C176.901 11.482 176.783 11.4912 176.681 11.6759C176.622 11.7819 176.549 11.8904 176.519 11.9169C176.488 11.9434 176.382 12.1061 176.282 12.2784C176.182 12.4508 176.071 12.5917 176.035 12.5917C175.999 12.5917 175.943 12.7002 175.91 12.8328C175.876 12.9653 175.807 13.0738 175.755 13.0738C175.703 13.0738 175.661 13.1163 175.661 13.1684C175.661 13.2595 175.015 14.3253 174.9 14.4235C174.829 14.4839 174.624 14.8102 174.535 15.002C174.499 15.0815 174.433 15.19 174.39 15.243C174.194 15.4848 173.834 16.0801 173.834 16.1631C173.834 16.2139 173.791 16.2553 173.738 16.2553C173.685 16.2553 173.642 16.3167 173.642 16.3919C173.642 16.467 173.608 16.5429 173.567 16.5606C173.527 16.5783 173.152 17.135 172.735 17.7979C172.319 18.4607 171.941 19.0174 171.896 19.0351C171.852 19.0528 171.815 19.1099 171.815 19.1621C171.815 19.2142 171.707 19.399 171.575 19.5729C171.443 19.7467 171.334 19.9241 171.334 19.9671C171.334 20.0101 171.226 20.1875 171.094 20.3613C170.962 20.5351 170.854 20.7199 170.854 20.7721C170.854 20.8243 170.816 20.8813 170.77 20.8991C170.724 20.9167 170.432 21.3429 170.121 21.8461L169.556 22.7611L169.531 17.0979L169.506 11.4348H166.863H164.22V20.9794ZM185.274 20.9794V30.5239H187.918H190.562V26.5229C190.562 23.0308 190.58 22.5219 190.706 22.5219C190.786 22.5219 190.85 22.5652 190.85 22.6182C190.85 22.671 191.002 22.9257 191.187 23.184C191.372 23.4424 191.523 23.7028 191.523 23.7626C191.523 23.8226 191.56 23.8717 191.604 23.8717C191.649 23.8717 191.767 24.0235 191.867 24.2091C191.966 24.3947 192.081 24.5465 192.122 24.5465C192.163 24.5465 192.196 24.6116 192.196 24.6912C192.196 24.7707 192.23 24.8358 192.271 24.8358C192.312 24.8358 192.426 24.9876 192.526 25.1732C192.626 25.3588 192.741 25.5106 192.781 25.5106C192.822 25.5106 192.869 25.5649 192.886 25.6312C192.928 25.7922 194.819 28.6351 194.912 28.6761C194.952 28.6938 194.984 28.7697 194.984 28.8448C194.984 28.92 195.018 28.9814 195.059 28.9814C195.1 28.9814 195.214 29.1332 195.314 29.3188C195.414 29.5044 195.532 29.6563 195.576 29.6563C195.621 29.6563 195.657 29.6967 195.657 29.746C195.657 29.7954 195.755 29.9887 195.874 30.1757L196.09 30.5157L199.431 30.5199C201.268 30.5221 202.772 30.5003 202.772 30.4715C202.772 30.4427 202.663 30.3021 202.531 30.1592C202.399 30.0163 202.291 29.8659 202.291 29.8251C202.291 29.7843 202.161 29.6147 202.002 29.4483C201.844 29.2818 201.714 29.115 201.714 29.0776C201.714 29.0402 201.617 28.9004 201.498 28.7669C201.242 28.4796 201.09 28.2895 200.709 27.7743C200.552 27.5633 200.39 27.3762 200.348 27.3585C200.306 27.3408 200.272 27.2753 200.272 27.2129C200.272 27.1505 200.164 26.9824 200.032 26.8395C199.899 26.6966 199.791 26.5529 199.791 26.5202C199.791 26.4877 199.737 26.4038 199.671 26.3339C199.605 26.2641 199.467 26.091 199.365 25.9495C199.263 25.8079 199.079 25.5753 198.957 25.4326C198.834 25.29 198.734 25.1438 198.734 25.1077C198.734 25.0718 198.678 24.985 198.61 24.9149C198.542 24.8449 198.142 24.3329 197.721 23.7772C197.3 23.2215 196.88 22.6819 196.787 22.578C196.694 22.4741 196.619 22.3559 196.619 22.3153C196.619 22.2747 196.511 22.133 196.378 22.0005C196.246 21.8679 196.138 21.7326 196.138 21.7C196.138 21.6673 196.084 21.58 196.018 21.5061C195.733 21.1871 195.657 21.078 195.657 20.9834C195.657 20.9282 195.614 20.883 195.561 20.883C195.361 20.883 195.478 20.5291 195.8 20.1588C195.984 19.9473 196.135 19.7359 196.136 19.689C196.137 19.6422 196.238 19.512 196.359 19.3998C196.481 19.2876 196.706 19.0223 196.86 18.8102C197.014 18.5981 197.185 18.3775 197.24 18.3199C197.295 18.2624 197.426 18.0949 197.532 17.9477C197.638 17.8006 197.778 17.6229 197.845 17.5531C197.911 17.4832 197.965 17.3831 197.965 17.3308C197.965 17.2783 197.998 17.221 198.039 17.2033C198.079 17.1857 198.306 16.9326 198.543 16.6409C198.78 16.3493 199.007 16.0962 199.046 16.0786C199.086 16.0609 199.118 16.007 199.118 15.9588C199.118 15.8787 199.37 15.5497 199.671 15.237C199.737 15.1684 199.791 15.0657 199.791 15.0088C199.791 14.952 199.824 14.9053 199.863 14.9049C199.903 14.9045 200.044 14.7439 200.176 14.5479C200.308 14.3518 200.535 14.0686 200.681 13.9185C200.826 13.7684 200.945 13.6127 200.945 13.5726C200.945 13.5324 201.096 13.3386 201.281 13.1419C201.466 12.9451 201.618 12.7445 201.618 12.696C201.618 12.6475 201.653 12.5934 201.696 12.5756C201.739 12.558 201.957 12.294 202.18 11.9892L202.585 11.4348H199.467H196.349L195.409 12.7605C194.892 13.4896 194.325 14.2641 194.15 14.4817C193.974 14.6993 193.831 14.927 193.831 14.9878C193.831 15.0486 193.797 15.0984 193.755 15.0984C193.714 15.0984 193.598 15.2393 193.498 15.4117C193.398 15.5841 193.291 15.7468 193.261 15.7733C193.113 15.901 192.677 16.5438 192.677 16.6345C192.677 16.6911 192.645 16.7382 192.605 16.7392C192.565 16.7403 192.144 17.3028 191.668 17.9893C191.192 18.676 190.748 19.2391 190.682 19.2408C190.588 19.2433 190.562 18.4005 190.562 15.3394V11.4348H187.918H185.274V20.9794ZM154.867 15.7165C155.642 15.9235 155.894 16.0642 156.16 16.4392C156.558 17.0009 156.673 17.8244 156.459 18.5885C156.347 18.9903 155.966 19.5198 155.784 19.5279C155.718 19.5308 155.664 19.5766 155.664 19.6296C155.664 19.6827 155.586 19.7261 155.491 19.7261C155.396 19.7261 155.266 19.7784 155.202 19.8424C155.123 19.9216 154.663 19.9601 153.765 19.9629L152.443 19.9671L152.416 17.9907C152.401 16.9037 152.413 15.9167 152.442 15.7974C152.493 15.5909 152.54 15.5805 153.431 15.5816C153.945 15.5822 154.592 15.6429 154.867 15.7165ZM84.474 18.0097C83.5237 18.3221 82.5031 19.0591 82.5031 19.4328C82.5031 19.488 82.4599 19.5332 82.407 19.5332C82.3541 19.5332 82.3109 19.6113 82.3109 19.7068C82.3109 19.8022 82.262 19.9293 82.2024 19.9891C82.1427 20.0489 82.0718 20.4075 82.0448 20.7858C81.9753 21.7596 82.2102 22.4924 82.7987 23.1379C83.4812 23.8864 83.9158 24.0861 84.9783 24.1393C85.7935 24.1802 85.9105 24.1627 86.387 23.9288C87.2703 23.4955 87.8279 22.8634 88.1118 21.9736C88.2868 21.4253 88.3281 20.4009 88.1753 20.4009C88.1224 20.4009 88.0791 20.3124 88.0791 20.2043C88.0791 19.7103 87.2799 18.6588 86.6662 18.3453C86.2662 18.141 85.3484 17.8928 85.036 17.9045C84.8855 17.9102 84.6326 17.9574 84.474 18.0097ZM101.698 22.877C101.98 22.9662 102.211 23.0747 102.211 23.118C102.211 23.1613 102.258 23.1968 102.314 23.1968C102.636 23.1968 102.98 23.9861 102.98 24.7236C102.98 25.4189 102.899 25.6618 102.534 26.0491C102.037 26.5776 101.634 26.6676 99.7579 26.6676H98.0775V24.6912V22.7148H99.6312C100.82 22.7148 101.306 22.7528 101.698 22.877Z" fill="white"/>
</svg>
