<svg width="196" height="37" viewBox="0 0 196 37" fill="none" xmlns="http://www.w3.org/2000/svg">
<path d="M31.7329 0.338745H6.57528C5.0768 0.338742 3.63954 0.935442 2.57896 1.99788C1.51837 3.06031 0.921117 4.50167 0.918289 6.00559V31.3189C0.918289 32.8247 1.51429 34.2688 2.57518 35.3336C3.63608 36.3983 5.07495 36.9965 6.57528 36.9965H31.7329C33.2332 36.9965 34.6721 36.3983 35.733 35.3336C36.7939 34.2688 37.3899 32.8247 37.3899 31.3189V6.00559C37.3871 4.50167 36.7898 3.06031 35.7292 1.99788C34.6687 0.935442 33.2314 0.338742 31.7329 0.338745ZM18.8712 20.9922C18.576 21.7103 18.1364 22.3593 17.5797 22.899C17.0255 23.4522 16.3643 23.8859 15.6371 24.1738C14.8738 24.4826 14.0586 24.6426 13.2356 24.6451C12.8357 24.6395 12.4379 24.5856 12.0508 24.4844V20.4994C12.4478 20.663 12.8708 20.7536 13.2996 20.7673C13.8818 20.7921 14.4499 20.5841 14.8793 20.1888C15.0753 19.9932 15.2287 19.7589 15.3297 19.5007C15.4307 19.2426 15.4773 18.9662 15.4664 18.689C15.4678 18.3166 15.3799 17.9491 15.2102 17.6178C15.0412 17.3094 14.7947 17.0509 14.4951 16.8679C14.1686 16.6859 13.8012 16.5905 13.4277 16.5905C13.0543 16.5905 12.6869 16.6859 12.3604 16.8679C12.0578 17.0411 11.807 17.2927 11.6346 17.5964C11.518 17.8099 11.4386 18.0417 11.3997 18.282C11.3501 18.5901 11.3286 18.902 11.3357 19.214V28.7801H7.47186V19.139C7.46425 18.5534 7.51431 17.9685 7.62129 17.3929C7.69608 16.9303 7.8325 16.4799 8.02689 16.0538C8.21469 15.6366 8.45892 15.2472 8.75269 14.8969C9.02797 14.5369 9.3471 14.213 9.70264 13.9328C10.0602 13.6701 10.4386 13.4372 10.834 13.2364C11.2285 13.0451 11.6441 12.9014 12.0722 12.808C12.5176 12.7121 12.9722 12.6654 13.4277 12.6687C14.4752 12.66 15.5064 12.9299 16.4163 13.4507C17.3071 13.9589 18.0447 14.6991 18.551 15.5932C19.0671 16.511 19.3322 17.5495 19.3195 18.6034C19.3283 19.4215 19.176 20.2333 18.8712 20.9922ZM29.0325 23.8203C28.1352 24.3553 27.1089 24.6331 26.0652 24.6237C25.0178 24.6319 23.9868 24.3621 23.0766 23.8417C22.1819 23.3245 21.4386 22.58 20.9214 21.6829C20.4043 20.786 20.1316 19.7682 20.1307 18.7319V8.53371H23.9839V18.1749C23.9569 18.721 24.0517 19.2663 24.2614 19.771C24.4307 20.0836 24.6864 20.3403 24.9979 20.5102C25.3243 20.6915 25.6922 20.7839 26.0652 20.778C26.5095 20.7501 26.934 20.5836 27.2792 20.3017C27.6246 20.0199 27.8734 19.6367 27.9911 19.2058C28.1087 18.7749 28.0892 18.3179 27.9352 17.8987C27.7813 17.4795 27.5007 17.1192 27.1326 16.8679C26.8042 16.6907 26.4382 16.5951 26.0652 16.5894C25.6289 16.6075 25.1991 16.7017 24.7951 16.8679V12.9044C25.2009 12.8082 25.6162 12.7579 26.0332 12.7544C27.0965 12.7441 28.1443 13.0098 29.0752 13.5257C29.9641 14.0363 30.7011 14.776 31.2099 15.6682C31.976 17.0441 32.1771 18.6656 31.7705 20.1879C31.3639 21.7104 30.3816 23.0135 29.0325 23.8203Z" fill="white"/>
<path d="M61.555 11.8446C61.555 18.422 58.5806 21.7143 52.6319 21.7215H48.2878V36.5474H44.5627V0.500223H52.6319C58.5878 0.500223 61.5622 3.7925 61.555 10.377V11.8446ZM57.8727 11.5447V10.6877C57.8727 8.22384 57.4599 6.47059 56.6345 5.42792C55.8091 4.38524 54.3362 3.85677 52.2157 3.84249H48.2771V18.3685H52.2157C54.3005 18.3685 55.7628 17.8471 56.6025 16.8045C57.4422 15.7618 57.8655 14.0085 57.8727 11.5447ZM75.3773 15.0905H75.1318C74.9351 15.048 74.7352 15.0229 74.5341 15.0155H73.7229C70.7984 15.0155 69.3361 16.5331 69.3361 19.5683V36.5474H65.8458V11.684H69.3254V14.3192C70.2647 12.4981 71.9796 11.5875 74.4701 11.5875H75.3773V15.0905ZM91.7079 28.3524C91.7079 31.2091 91.0782 33.3516 89.8187 34.7798C88.4039 36.131 86.5256 36.8846 84.5726 36.8846C82.6197 36.8846 80.7413 36.131 79.3265 34.7798C78.0671 33.3516 77.4373 31.2091 77.4373 28.3524V19.9432C77.4373 17.0865 78.0671 14.9691 79.3265 13.5908C80.7378 12.241 82.6125 11.488 84.5619 11.488C86.5114 11.488 88.3861 12.241 89.7973 13.5908C91.0781 15.019 91.715 17.1366 91.7079 19.9432V28.3524ZM88.2176 28.106V20.1467C88.3469 18.6596 88.0311 17.1676 87.3104 15.8618C86.9865 15.4401 86.5634 15.1059 86.0791 14.889C85.5947 14.6722 85.0641 14.5794 84.5352 14.6191C84.0127 14.5808 83.4888 14.6745 83.0115 14.8916C82.5342 15.1086 82.1186 15.4422 81.8028 15.8618C81.0821 17.1676 80.7663 18.6596 80.8956 20.1467V28.106C80.774 29.5927 81.0894 31.0825 81.8028 32.391C82.1225 32.8063 82.5388 33.1367 83.0151 33.3533C83.4914 33.5699 84.0133 33.6662 84.5352 33.6336C85.0635 33.6677 85.5921 33.5724 86.0755 33.356C86.5591 33.1395 86.9828 32.8083 87.3104 32.391C88.0273 31.0837 88.343 29.5929 88.2176 28.106ZM103.812 14.4263H100.343V36.5474H96.8632V14.4263H94.483V11.6947H96.8526V5.97425C96.7569 4.5055 97.2269 3.05595 98.1654 1.92497C98.6527 1.43703 99.2378 1.05862 99.8818 0.814836C100.526 0.571054 101.214 0.467464 101.901 0.510936H103.822V3.72465H102.51C102.205 3.69424 101.898 3.7323 101.61 3.83607C101.322 3.93983 101.06 4.1067 100.844 4.32455C100.451 4.94185 100.275 5.67327 100.343 6.40275V11.7589H103.822L103.812 14.4263ZM111.678 2.57843C111.682 2.90187 111.623 3.22291 111.501 3.52273C111.38 3.82255 111.201 4.09515 110.974 4.32455C110.762 4.55728 110.505 4.74324 110.219 4.87052C109.932 4.9978 109.622 5.06359 109.309 5.0637C108.684 5.05366 108.09 4.79556 107.654 4.34597C107.425 4.1353 107.241 3.87875 107.116 3.5928C106.991 3.30685 106.927 2.99781 106.928 2.68555C106.926 2.36365 106.989 2.04467 107.114 1.74813C107.239 1.45159 107.423 1.18371 107.654 0.960856C107.862 0.741477 108.112 0.565967 108.39 0.444576C108.666 0.323184 108.964 0.258342 109.266 0.253838C109.583 0.247874 109.899 0.305427 110.193 0.423138C110.489 0.540849 110.758 0.716361 110.984 0.939431C111.211 1.14911 111.391 1.40446 111.513 1.68876C111.633 1.97305 111.694 2.27988 111.689 2.58914L111.678 2.57843ZM111.08 36.5474H107.505V11.684H111.091L111.08 36.5474ZM124.294 36.5474H122.384C121.696 36.5909 121.008 36.4873 120.364 36.2435C119.721 35.9997 119.136 35.6213 118.648 35.1334C117.71 34.0023 117.239 32.5528 117.335 31.0841V14.4263H114.966V11.6947H117.335V4.00318H120.815V11.6947H124.294V14.4263H120.825V30.677C120.756 31.4065 120.933 32.1382 121.327 32.7552C121.543 32.9736 121.804 33.141 122.091 33.2448C122.379 33.3486 122.688 33.3863 122.992 33.3551H124.305L124.294 36.5474ZM142.269 28.4917C142.31 30.2611 141.983 32.0198 141.308 33.655C140.884 34.6685 140.155 35.5236 139.223 36.1C138.291 36.6764 137.202 36.9452 136.11 36.8688C135.166 36.9451 134.222 36.7524 133.383 36.3127C132.545 35.8728 131.847 35.2041 131.371 34.3835V36.526H127.934V0.500223H131.414V14.1264C131.96 13.2645 132.728 12.5659 133.636 12.1038C134.544 11.6417 135.559 11.4333 136.575 11.5C137.59 11.5669 138.57 11.9066 139.41 12.4835C140.25 13.0606 140.921 13.8536 141.351 14.7798C142.014 16.3475 142.34 18.0371 142.311 19.7397L142.269 28.4917ZM138.778 28.106V20.2003C138.9 18.7136 138.585 17.2236 137.871 15.9153C137.558 15.4934 137.146 15.1567 136.67 14.9358C136.195 14.715 135.672 14.6172 135.149 14.6513C132.623 14.6513 131.36 16.5081 131.36 20.2217V28.106C131.36 31.8197 132.623 33.6765 135.149 33.6765C135.672 33.7105 136.195 33.6127 136.67 33.3918C137.146 33.1711 137.558 32.8344 137.871 32.4124C138.587 31.0971 138.903 29.5997 138.778 28.106ZM159.955 36.5474H156.432V34.1157C156.001 34.9347 155.344 35.6118 154.54 36.0659C153.735 36.52 152.817 36.7317 151.896 36.6759C151.022 36.749 150.143 36.6067 149.336 36.2614C148.528 35.916 147.817 35.378 147.264 34.6941C146.246 33.1533 145.751 31.3232 145.855 29.4772C145.787 28.5056 145.916 27.5301 146.233 26.6096C146.55 25.6892 147.049 24.8426 147.701 24.121C148.361 23.4919 149.141 23.0042 149.994 22.6874C150.848 22.3706 151.756 22.2315 152.665 22.2785H156.454V18.3256C156.553 17.3051 156.284 16.2826 155.696 15.444C155.389 15.1532 155.022 14.9304 154.624 14.7902C154.225 14.65 153.801 14.5954 153.38 14.6299C151.245 14.6299 150.078 15.8296 149.879 18.2292H146.495C146.478 17.2864 146.659 16.3506 147.027 15.483C147.395 14.6153 147.941 13.8354 148.63 13.1944C149.983 12.0516 151.708 11.449 153.476 11.5018C155.203 11.4014 156.902 11.9775 158.215 13.1087C158.82 13.7375 159.288 14.4865 159.588 15.3074C159.887 16.1284 160.012 17.0033 159.955 17.8757V36.5474ZM156.432 27.8918V25.0637H152.996C150.469 25.0637 149.206 26.5134 149.206 29.4129C149.206 32.3125 150.298 33.7657 152.483 33.7729C153.098 33.7885 153.706 33.6485 154.253 33.3658C154.799 33.0831 155.267 32.6668 155.611 32.1553C156.269 30.8294 156.55 29.3464 156.422 27.8704L156.432 27.8918ZM177.214 29.4558C177.214 34.3835 175.044 36.8473 170.703 36.8473C166.597 36.8473 164.409 34.587 164.139 30.0664H167.522C167.521 31.078 167.831 32.0654 168.408 32.8945C168.705 33.1971 169.065 33.4306 169.461 33.5787C169.858 33.7267 170.281 33.7857 170.703 33.7515C171.167 33.802 171.637 33.7355 172.069 33.5578C172.503 33.3801 172.884 33.0968 173.179 32.7338C173.729 31.7575 173.974 30.6379 173.884 29.5201C173.95 28.6355 173.795 27.7484 173.435 26.9384C172.942 26.3007 172.244 25.854 171.461 25.6743L169.241 24.978C167.8 24.6125 166.51 23.7988 165.558 22.6534C164.748 21.2924 164.376 19.714 164.491 18.1328C164.417 17.2086 164.532 16.279 164.827 15.4006C165.122 14.5221 165.593 13.7132 166.209 13.023C166.825 12.4518 167.548 12.0098 168.337 11.7228C169.124 11.4359 169.962 11.3098 170.799 11.3519C174.834 11.3519 176.918 13.4229 177.054 17.565H173.724C173.761 16.6589 173.474 15.7692 172.912 15.0584C172.317 14.5605 171.55 14.3147 170.778 14.3728C170.355 14.3334 169.929 14.3923 169.533 14.5446C169.137 14.6969 168.782 14.9387 168.494 15.2512C167.979 16.0834 167.746 17.0606 167.832 18.0364C167.765 18.9242 167.93 19.8143 168.312 20.6181C168.785 21.2272 169.452 21.6546 170.201 21.8286L172.336 22.5356C173.767 22.905 175.064 23.6782 176.072 24.7638C176.784 25.6779 177.139 27.249 177.139 29.4772L177.214 29.4558ZM195.071 25.1708H184.397V27.7847C184.262 29.3789 184.587 30.9784 185.336 32.391C186 33.1372 186.924 33.5989 187.917 33.6806C188.911 33.7624 189.897 33.4579 190.673 32.8302C191.294 31.9759 191.593 30.9282 191.516 29.8736H194.9C194.916 31.7442 194.261 33.558 193.053 34.9834C192.408 35.6182 191.636 36.1087 190.787 36.4226C189.939 36.7365 189.035 36.8666 188.133 36.8045C187.141 36.8632 186.149 36.7015 185.227 36.3312C184.303 35.9609 183.474 35.391 182.796 34.662C181.515 33.2337 180.878 31.0163 180.886 28.0096V20.2539C180.886 17.283 181.515 15.0798 182.775 13.6443C183.433 12.9222 184.242 12.3555 185.145 11.9851C186.047 11.6146 187.021 11.4496 187.994 11.5018C192.634 11.5018 194.953 14.3585 194.953 20.0717L195.071 25.1708ZM191.634 22.3856V20.0932C191.751 18.6142 191.459 17.1315 190.791 15.8082C190.484 15.3859 190.076 15.0498 189.603 14.8321C189.13 14.6145 188.609 14.5227 188.09 14.5656C187.56 14.5283 187.028 14.6243 186.544 14.845C186.059 15.0657 185.636 15.4041 185.315 15.8296C184.583 17.2167 184.268 18.787 184.408 20.3503V22.4927L191.634 22.3856Z" fill="white"/>
</svg>
