<svg width="202" height="44" viewBox="0 0 202 44" fill="none" xmlns="http://www.w3.org/2000/svg">
<g clip-path="url(#clip0_59_3627)">
<path d="M54.6551 0.457764L43.2241 34.1929H36.4244L27.9005 9.22887L19.2286 34.1929H12.3798L0.948746 0.457764H7.60045L16.1738 26.0963L25.092 0.457764H31.0046L39.7257 26.2409L48.5454 0.457764H54.6551Z" fill="white"/>
<path d="M67.3607 8.16748C71.2366 8.16748 74.193 9.08315 76.2294 10.9145C78.299 12.7137 79.3337 15.4446 79.3337 19.1073V34.1917H73.5196V31.0591C72.7641 32.1836 71.6801 33.051 70.2676 33.6616C68.888 34.2397 67.2127 34.529 65.2419 34.529C63.271 34.529 61.5466 34.2077 60.0683 33.5652C58.5902 32.8904 57.4406 31.9747 56.6193 30.8182C55.8309 29.6293 55.4368 28.2961 55.4368 26.8181C55.4368 24.5049 56.3071 22.6574 58.0482 21.276C59.8219 19.8623 62.5977 19.1554 66.3751 19.1554H73.1746V18.7699C73.1746 16.9707 72.6162 15.5892 71.4993 14.6253C70.4153 13.6615 68.7895 13.1795 66.6215 13.1795C65.1434 13.1795 63.6817 13.4044 62.2363 13.8542C60.8238 14.304 59.6249 14.9305 58.6394 15.7338L56.2252 11.3482C57.6046 10.3201 59.2635 9.53295 61.2015 8.98676C63.1397 8.44057 65.1927 8.16748 67.3607 8.16748ZM66.523 30.1434C68.0667 30.1434 69.43 29.8061 70.6125 29.1314C71.8278 28.4246 72.682 27.4285 73.1746 26.1434V23.1556H66.8187C63.271 23.1556 61.4971 24.2961 61.4971 26.5771C61.4971 27.6696 61.9406 28.537 62.8275 29.1796C63.7144 29.8222 64.9463 30.1434 66.523 30.1434Z" fill="white"/>
<path d="M107.784 29.3715V34.1908H85.0699V30.3834L99.5066 13.275H85.3655V8.45569H107.39V12.2629L92.9041 29.3715H107.784Z" fill="white"/>
<path d="M134.008 29.3715V34.1908H111.293V30.3834L125.73 13.275H111.589V8.45569H133.614V12.2629L119.128 29.3715H134.008Z" fill="white"/>
<path d="M165.159 8.45569V34.1908H159.296V30.9135C158.31 32.0702 157.078 32.9699 155.6 33.6124C154.122 34.2228 152.529 34.5281 150.821 34.5281C147.306 34.5281 144.53 33.5802 142.494 31.6847C140.49 29.757 139.488 26.9136 139.488 23.1546V8.45569H145.647V22.3352C145.647 24.6484 146.173 26.3835 147.224 27.54C148.308 28.6645 149.835 29.2268 151.806 29.2268C154.007 29.2268 155.748 28.5683 157.029 27.2509C158.343 25.9015 159 23.9738 159 21.4677V8.45569H165.159Z" fill="white"/>
<path d="M187.807 8.16748C190.37 8.16748 192.653 8.71367 194.656 9.80604C196.693 10.8984 198.286 12.4406 199.436 14.4326C200.585 16.4245 201.16 18.7217 201.16 21.3241C201.16 23.9266 200.585 26.2398 199.436 28.2639C198.286 30.2559 196.693 31.7981 194.656 32.8904C192.653 33.9829 190.37 34.529 187.807 34.529C184.26 34.529 181.451 33.3723 179.382 31.0591V43.5411H173.223V8.45664H179.086V11.8301C180.105 10.6093 181.353 9.69359 182.831 9.08315C184.342 8.4727 186.001 8.16748 187.807 8.16748ZM187.118 29.3724C189.384 29.3724 191.24 28.6334 192.685 27.1554C194.164 25.6776 194.903 23.7337 194.903 21.3241C194.903 18.9145 194.164 16.9707 192.685 15.4928C191.24 14.0149 189.384 13.2759 187.118 13.2759C185.639 13.2759 184.309 13.6133 183.127 14.288C181.944 14.9305 181.008 15.8623 180.318 17.0832C179.628 18.3041 179.283 19.7177 179.283 21.3241C179.283 22.9305 179.628 24.3443 180.318 25.5652C181.008 26.7859 181.944 27.7338 183.127 28.4086C184.309 29.0511 185.639 29.3724 187.118 29.3724Z" fill="white"/>
</g>
<defs>
<clipPath id="clip0_59_3627">
<rect width="200.212" height="43.0844" fill="white" transform="translate(0.948746 0.457764)"/>
</clipPath>
</defs>
</svg>
