<svg width="200" height="34" viewBox="0 0 200 34" fill="none" xmlns="http://www.w3.org/2000/svg">
<path d="M8.49141 4.66309C8.93076 3.17132 10.2923 2.14807 11.8379 2.14807H18.7548C20.3019 2.14807 21.6646 3.17354 22.1025 4.66753L29.4597 29.769C29.7897 30.8947 28.9517 32.0232 27.7858 32.0232H22.9149C22.169 32.0232 21.5056 31.546 21.2639 30.8357L20.0829 27.365C19.9622 27.0099 19.6304 26.7713 19.2574 26.7713H11.4006C11.0315 26.7713 10.7023 27.0052 10.5785 27.3552L9.3412 30.8554C9.09368 31.5555 8.43527 32.0232 7.69699 32.0232H2.77099C1.60426 32.0232 0.766087 30.893 1.09775 29.7668L8.49141 4.66309ZM17.1959 19.7022C17.7643 19.7022 18.181 19.1639 18.042 18.609L16.3201 11.7338C16.2224 11.3435 15.8737 11.0701 15.474 11.0701H14.8302C14.5904 11.0701 14.3812 11.2341 14.3226 11.4683L12.5341 18.609C12.3951 19.1639 12.8118 19.7022 13.3802 19.7022H17.1959Z" fill="white"/>
<path d="M42.1719 16.8627C42.1719 15.0311 42.5135 13.2277 43.1966 11.4525C43.9081 9.67728 44.9325 8.08521 46.2701 6.67631C47.6078 5.2674 49.23 4.12619 51.1367 3.25266C53.0435 2.37914 55.2207 1.94238 57.6682 1.94238C60.5995 1.94238 63.1323 2.54821 65.2669 3.75988C66.9242 4.66671 68.2556 5.80519 69.2614 7.17527C69.7872 7.89167 69.5445 8.87858 68.8195 9.38924L65.4982 11.7287C64.5974 12.3631 63.3611 11.9326 62.5775 11.1566C62.122 10.6776 61.6098 10.2972 61.0407 10.0154C60.4714 9.73363 59.8738 9.53639 59.2476 9.42366C58.6501 9.31095 58.0666 9.25461 57.4975 9.25461C56.3022 9.25461 55.2634 9.49412 54.381 9.97314C53.5273 10.424 52.8159 11.0298 52.2466 11.7906C51.706 12.5233 51.2932 13.3686 51.0087 14.3267C50.7525 15.2565 50.6244 16.1864 50.6244 17.1163C50.6244 18.1589 50.781 19.1593 51.0941 20.1172C51.4072 21.0753 51.8625 21.9207 52.4601 22.6534C53.0578 23.386 53.7835 23.9778 54.6372 24.4286C55.5195 24.8511 56.5013 25.0625 57.5828 25.0625C58.152 25.0625 58.7354 25.0061 59.3331 24.8935C59.9307 24.7526 60.4998 24.5412 61.0407 24.2594C61.6098 23.9495 62.1079 23.5691 62.5348 23.1182C63.2723 22.3424 64.4404 21.8812 65.3599 22.4253L69.0769 24.6241C69.829 25.069 70.1551 26.0186 69.6719 26.7499C69.293 27.3232 68.835 27.8598 68.2979 28.3594C67.387 29.2328 66.3341 29.9655 65.1388 30.5572C63.972 31.149 62.7054 31.5998 61.3394 31.9097C60.0019 32.2198 58.6926 32.3748 57.412 32.3748C55.1638 32.3748 53.1004 31.938 51.2222 31.0644C49.3722 30.1628 47.7643 28.9793 46.3982 27.514C45.0606 26.0487 44.0219 24.3862 43.2819 22.5265C42.5419 20.6668 42.1719 18.7787 42.1719 16.8627Z" fill="white"/>
<path d="M85.9631 5.66883C85.9631 3.72814 87.5258 2.15491 89.4535 2.15491H108.632C110.559 2.15491 112.122 3.72814 112.122 5.66883V30.2504C112.122 31.2208 111.341 32.0074 110.377 32.0074H105.543C104.579 32.0074 103.798 31.2208 103.798 30.2504V11.0973C103.798 10.1269 103.016 9.34032 102.053 9.34032H96.0327C95.0688 9.34032 94.2875 10.1269 94.2875 11.0973V30.2504C94.2875 31.2208 93.5061 32.0074 92.5422 32.0074H87.7083C86.7444 32.0074 85.9631 31.2208 85.9631 30.2504V5.66883Z" fill="white"/>
<path d="M131.327 32.0285C130.363 32.0285 129.581 31.2409 129.582 30.27L129.605 5.66278C129.607 3.72342 131.169 2.15222 133.096 2.15222H143.84C145.32 2.15222 146.686 2.46218 147.938 3.08211C149.19 3.67385 150.257 4.46283 151.14 5.44907C152.05 6.40712 152.762 7.52015 153.274 8.78817C153.786 10.028 154.042 11.4502 154.042 12.7182C154.042 14.0426 153.801 15.4963 153.317 16.7643C152.833 18.0041 152.15 19.1172 151.268 20.1033C150.414 21.0614 149.361 21.8364 148.109 22.4281C146.885 22.9916 145.533 23.2734 144.053 23.2734H139.673C138.711 23.2734 137.931 24.0565 137.927 25.0246L137.91 30.2774C137.907 31.2454 137.127 32.0285 136.165 32.0285H131.327ZM137.933 14.6088C137.933 15.5791 138.714 16.3657 139.678 16.3657H143.498C144.011 16.3657 144.48 16.1403 144.907 15.6895C145.362 15.2104 145.59 13.9299 145.59 12.7182C145.59 11.4784 145.334 10.4648 144.822 10.0139C144.309 9.56308 143.797 9.33764 143.285 9.33764H139.678C138.714 9.33764 137.933 10.1243 137.933 11.0946V14.6088Z" fill="white"/>
<path d="M181.907 32.3748C179.604 32.3748 177.192 31.938 175.312 31.0644C173.434 30.1909 171.826 29.0497 170.489 27.6408C169.151 26.2038 168.112 24.5693 167.372 22.7379C166.632 20.9062 166.263 19.0184 166.263 17.074C166.263 15.1016 166.647 13.1995 167.415 11.368C168.183 9.53639 169.251 7.93023 170.617 6.54951C172.011 5.1406 173.648 4.02757 175.527 3.21041C177.433 2.36505 179.83 1.94238 182.078 1.94238C184.384 1.94238 186.867 2.37914 188.745 3.25266C190.623 4.12619 192.232 5.28149 193.569 6.71858C194.908 8.15565 195.932 9.78999 196.642 11.6216C197.382 13.4531 197.752 15.327 197.752 17.2431C197.752 19.2155 197.368 21.1176 196.6 22.9492C195.832 24.7526 194.764 26.3588 193.398 27.7677C192.033 29.1483 190.396 30.2613 188.489 31.1068C186.611 31.9521 184.157 32.3748 181.907 32.3748ZM174.715 17.1586C174.715 18.1729 174.857 19.1593 175.141 20.1172C175.427 21.0471 175.853 21.8784 176.422 22.611C176.991 23.3437 177.703 23.9354 178.556 24.3862C179.44 24.8371 180.797 25.0625 181.993 25.0625C183.188 25.0625 184.619 24.8371 185.501 24.3862C186.384 23.9073 187.094 23.3013 187.635 22.5688C188.204 21.8079 188.618 20.9486 188.874 19.9905C189.159 19.0324 189.3 18.0603 189.3 17.074C189.3 16.0596 189.159 15.0875 188.874 14.1576C188.59 13.1995 188.148 12.3683 187.55 11.6638C186.981 10.9312 186.255 10.3536 185.373 9.93088C184.52 9.48003 183.117 9.25461 181.951 9.25461C180.755 9.25461 179.396 9.48003 178.515 9.93088C177.661 10.3817 176.949 10.9876 176.38 11.7484C175.811 12.481 175.384 13.3263 175.099 14.2844C174.843 15.2143 174.715 16.1723 174.715 17.1586Z" fill="white"/>
</svg>
