<svg width="98" height="119" viewBox="0 0 98 119" fill="none" xmlns="http://www.w3.org/2000/svg">
<path opacity="0.1" d="M1.056 25.04L0.389824 23.1542L-1.38779 23.7822L-0.865814 25.5937L1.056 25.04ZM18.72 18.8V16.8H18.3771L18.0538 16.9142L18.72 18.8ZM30.24 18.8H32.24V16.8H30.24V18.8ZM30.24 86V88H32.24V86H30.24ZM16.992 86H14.992V88H16.992V86ZM16.992 32.816H18.992V30.1783L16.4522 30.8902L16.992 32.816ZM4.32 36.368L2.39819 36.9217L2.94793 38.8297L4.8598 38.2938L4.32 36.368ZM1.72218 26.9258L19.3862 20.6858L18.0538 16.9142L0.389824 23.1542L1.72218 26.9258ZM18.72 20.8H30.24V16.8H18.72V20.8ZM28.24 18.8V86H32.24V18.8H28.24ZM30.24 84H16.992V88H30.24V84ZM18.992 86V32.816H14.992V86H18.992ZM16.4522 30.8902L3.7802 34.4422L4.8598 38.2938L17.5318 34.7418L16.4522 30.8902ZM6.24181 35.8143L2.97781 24.4863L-0.865814 25.5937L2.39819 36.9217L6.24181 35.8143ZM47.589 77.84L45.9757 79.022L45.9851 79.035L45.9948 79.0477L47.589 77.84ZM47.589 27.056L45.989 25.856L45.9813 25.8663L47.589 27.056ZM87.141 27.056L85.5256 28.2352L85.5333 28.2457L87.141 27.056ZM87.141 77.84L88.7507 79.027L88.7543 79.022L87.141 77.84ZM77.541 35.984L75.8337 37.0257L75.8401 37.0362L75.8466 37.0466L77.541 35.984ZM57.189 68.816L55.4817 69.8577L55.4857 69.8642L55.4897 69.8707L57.189 68.816ZM77.541 68.72L75.8466 67.6574L75.8401 67.6678L75.8337 67.6783L77.541 68.72ZM67.365 85.344C59.5672 85.344 53.5816 82.4382 49.1832 76.6323L45.9948 79.0477C51.1964 85.9138 58.3948 89.344 67.365 89.344V85.344ZM49.2023 76.658C44.7854 70.6294 42.485 62.6021 42.485 52.4H38.485C38.485 63.1899 40.9206 72.1226 45.9757 79.022L49.2023 76.658ZM42.485 52.4C42.485 42.1966 44.7858 34.2063 49.1967 28.2457L45.9813 25.8663C40.9202 32.7057 38.485 41.6114 38.485 52.4H42.485ZM49.189 28.256C53.5906 22.3872 59.5752 19.456 67.365 19.456V15.456C58.3868 15.456 51.1874 18.9248 45.989 25.856L49.189 28.256ZM67.365 19.456C75.2937 19.456 81.2617 22.3942 85.5256 28.2352L88.7564 25.8768C83.6764 18.9178 76.4603 15.456 67.365 15.456V19.456ZM85.5333 28.2457C89.9442 34.2063 92.245 42.1966 92.245 52.4H96.245C96.245 41.6114 93.8098 32.7057 88.7487 25.8663L85.5333 28.2457ZM92.245 52.4C92.245 62.6021 89.9446 70.6294 85.5277 76.658L88.7543 79.022C93.8094 72.1226 96.245 63.1899 96.245 52.4H92.245ZM85.5313 76.653C81.2706 82.4313 75.3018 85.344 67.365 85.344V89.344C76.4522 89.344 83.6674 85.9207 88.7507 79.027L85.5313 76.653ZM83.093 52.4C83.093 45.0634 81.8903 39.1549 79.2354 34.9214L75.8466 37.0466C77.9278 40.3651 79.093 45.4006 79.093 52.4H83.093ZM79.2483 34.9423C76.5755 30.5618 72.5313 28.32 67.365 28.32V32.32C71.1587 32.32 73.8985 33.8542 75.8337 37.0257L79.2483 34.9423ZM67.365 28.32C62.1987 28.32 58.1545 30.5618 55.4817 34.9423L58.8963 37.0257C60.8315 33.8542 63.5713 32.32 67.365 32.32V28.32ZM55.4817 34.9423C52.9018 39.1704 51.733 45.0701 51.733 52.4H55.733C55.733 45.3939 56.8682 40.3496 58.8963 37.0257L55.4817 34.9423ZM51.733 52.4C51.733 59.7299 52.9018 65.6296 55.4817 69.8577L58.8963 67.7743C56.8682 64.4504 55.733 59.4061 55.733 52.4H51.733ZM55.4897 69.8707C58.1697 74.1885 62.2147 76.384 67.365 76.384V72.384C63.5553 72.384 60.8163 70.8675 58.8883 67.7613L55.4897 69.8707ZM67.365 76.384C72.5313 76.384 76.5755 74.1422 79.2483 69.7617L75.8337 67.6783C73.8985 70.8498 71.1587 72.384 67.365 72.384V76.384ZM79.2354 69.7826C81.8889 65.5513 83.093 59.6767 83.093 52.4H79.093C79.093 59.3313 77.9291 64.3367 75.8466 67.6574L79.2354 69.7826Z" fill="white"/>
<path d="M0.704 45.36L12.48 41.2H20.16V86H11.328V50.544L2.88 52.912L0.704 45.36ZM44.91 86.896C39.3207 86.896 34.926 84.784 31.726 80.56C28.5687 76.2507 26.99 70.5973 26.99 63.6C26.99 56.6027 28.5687 50.9707 31.726 46.704C34.926 42.4373 39.3207 40.304 44.91 40.304C50.5847 40.304 54.9793 42.4373 58.094 46.704C61.2513 50.9707 62.83 56.6027 62.83 63.6C62.83 70.5973 61.2513 76.2507 58.094 80.56C54.9793 84.784 50.5847 86.896 44.91 86.896ZM54.062 63.6C54.062 58.8213 53.2727 55.1733 51.694 52.656C50.158 50.1387 47.8967 48.88 44.91 48.88C41.9233 48.88 39.662 50.1387 38.126 52.656C36.59 55.1733 35.822 58.8213 35.822 63.6C35.822 68.3787 36.59 72.0267 38.126 74.544C39.662 77.0187 41.9233 78.256 44.91 78.256C47.8967 78.256 50.158 76.9973 51.694 74.48C53.2727 71.9627 54.062 68.336 54.062 63.6Z" fill="#0463F1"/>
</svg>
