<svg width="227" height="119" viewBox="0 0 227 119" fill="none" xmlns="http://www.w3.org/2000/svg">
<path opacity="0.1" d="M46.464 29.744L48.0482 30.9648L48.464 30.4252V29.744H46.464ZM33.888 46.064L32.3038 44.8432L30.5085 47.1729L33.3351 47.986L33.888 46.064ZM45.024 53.168L43.4709 54.4281L43.478 54.4368L43.4852 54.4455L45.024 53.168ZM42.24 81.488L40.9576 79.9533L40.9471 79.9621L40.9367 79.971L42.24 81.488ZM11.136 83.696L10.0953 85.4039L10.1051 85.4099L10.1149 85.4157L11.136 83.696ZM2.208 73.136L1.2094 71.4031L-0.303972 72.2753L0.356491 73.8923L2.208 73.136ZM13.536 66.608L15.447 66.0182L14.7082 63.6242L12.5374 64.8751L13.536 66.608ZM33.12 71.984L34.4259 73.4988L34.4299 73.4954L33.12 71.984ZM33.12 58.64L31.7849 60.1291L31.7974 60.1404L31.8101 60.1514L33.12 58.64ZM22.368 56.144L20.7007 57.2486L21.2939 58.144H22.368V56.144ZM17.28 48.464L15.6928 47.2471L14.8248 48.3793L15.6127 49.5686L17.28 48.464ZM30.528 31.184L32.1152 32.4009L34.5815 29.184H30.528V31.184ZM4.224 31.184H2.224V33.184H4.224V31.184ZM4.224 18.8V16.8H2.224V18.8H4.224ZM46.464 18.8H48.464V16.8H46.464V18.8ZM44.8798 28.5232L32.3038 44.8432L35.4722 47.2848L48.0482 30.9648L44.8798 28.5232ZM33.3351 47.986C37.6602 49.2303 41.0055 51.3894 43.4709 54.4281L46.5771 51.9079C43.5385 48.1626 39.4598 45.5857 34.4409 44.1419L33.3351 47.986ZM43.4852 54.4455C45.9845 57.456 47.248 61.0285 47.248 65.264H51.248C51.248 60.1555 49.6955 55.664 46.5628 51.8905L43.4852 54.4455ZM47.248 65.264C47.248 71.6733 45.1101 76.4834 40.9576 79.9533L43.5224 83.0227C48.714 78.6846 51.248 72.6787 51.248 65.264H47.248ZM40.9367 79.971C36.8035 83.522 31.6212 85.344 25.248 85.344V89.344C32.4428 89.344 38.5885 87.262 43.5433 83.005L40.9367 79.971ZM25.248 85.344C20.2529 85.344 15.9095 84.2043 12.1571 81.9763L10.1149 85.4157C14.5545 88.0517 19.6191 89.344 25.248 89.344V85.344ZM12.1767 81.9881C8.45478 79.72 5.75793 76.538 4.05951 72.3798L0.356491 73.8923C2.37007 78.822 5.62522 82.68 10.0953 85.4039L12.1767 81.9881ZM3.2066 74.8689L14.5346 68.3409L12.5374 64.8751L1.2094 71.4031L3.2066 74.8689ZM11.625 67.1978C12.5385 70.1576 14.1621 72.5156 16.5578 74.1062C18.9285 75.6802 21.8759 76.384 25.248 76.384V72.384C22.4121 72.384 20.3035 71.7918 18.7702 70.7738C17.2619 69.7723 16.1335 68.2424 15.447 66.0182L11.625 67.1978ZM25.248 76.384C28.9357 76.384 32.0884 75.5139 34.4259 73.4988L31.8141 70.4692C30.4396 71.6541 28.3443 72.384 25.248 72.384V76.384ZM34.4299 73.4954C36.8388 71.4076 38 68.5895 38 65.264H34C34 67.5705 33.2412 69.2324 31.8101 70.4726L34.4299 73.4954ZM38 65.264C38 61.9865 36.8278 59.2068 34.4299 57.1286L31.8101 60.1514C33.2523 61.4012 34 63.0375 34 65.264H38ZM34.4551 57.1509C32.1176 55.0551 28.9534 54.144 25.248 54.144V58.144C28.3266 58.144 30.4104 58.8968 31.7849 60.1291L34.4551 57.1509ZM25.248 54.144H22.368V58.144H25.248V54.144ZM24.0353 55.0394L18.9473 47.3594L15.6127 49.5686L20.7007 57.2486L24.0353 55.0394ZM18.8672 49.6809L32.1152 32.4009L28.9408 29.9671L15.6928 47.2471L18.8672 49.6809ZM30.528 29.184H4.224V33.184H30.528V29.184ZM6.224 31.184V18.8H2.224V31.184H6.224ZM4.224 20.8H46.464V16.8H4.224V20.8ZM44.464 18.8V29.744H48.464V18.8H44.464ZM62.7765 77.84L61.1632 79.022L61.1726 79.035L61.1823 79.0477L62.7765 77.84ZM62.7765 27.056L61.1765 25.856L61.1688 25.8663L62.7765 27.056ZM102.329 27.056L100.713 28.2352L100.721 28.2457L102.329 27.056ZM102.329 77.84L103.938 79.027L103.942 79.022L102.329 77.84ZM92.7285 35.984L91.0212 37.0257L91.0276 37.0362L91.0341 37.0466L92.7285 35.984ZM72.3765 68.816L70.6692 69.8577L70.6732 69.8642L70.6772 69.8707L72.3765 68.816ZM92.7285 68.72L91.0341 67.6574L91.0276 67.6678L91.0212 67.6783L92.7285 68.72ZM82.5525 85.344C74.7547 85.344 68.7691 82.4382 64.3707 76.6323L61.1823 79.0477C66.3839 85.9138 73.5823 89.344 82.5525 89.344V85.344ZM64.3898 76.658C59.9729 70.6294 57.6725 62.6021 57.6725 52.4H53.6725C53.6725 63.1899 56.1081 72.1226 61.1632 79.022L64.3898 76.658ZM57.6725 52.4C57.6725 42.1966 59.9733 34.2063 64.3842 28.2457L61.1688 25.8663C56.1077 32.7057 53.6725 41.6114 53.6725 52.4H57.6725ZM64.3765 28.256C68.7781 22.3872 74.7627 19.456 82.5525 19.456V15.456C73.5743 15.456 66.3749 18.9248 61.1765 25.856L64.3765 28.256ZM82.5525 19.456C90.4812 19.456 96.4492 22.3942 100.713 28.2352L103.944 25.8768C98.8639 18.9178 91.6478 15.456 82.5525 15.456V19.456ZM100.721 28.2457C105.132 34.2063 107.433 42.1966 107.433 52.4H111.433C111.433 41.6114 108.997 32.7057 103.936 25.8663L100.721 28.2457ZM107.433 52.4C107.433 62.6021 105.132 70.6294 100.715 76.658L103.942 79.022C108.997 72.1226 111.433 63.1899 111.433 52.4H107.433ZM100.719 76.653C96.4581 82.4313 90.4893 85.344 82.5525 85.344V89.344C91.6397 89.344 98.8549 85.9207 103.938 79.027L100.719 76.653ZM98.2805 52.4C98.2805 45.0634 97.0778 39.1549 94.4229 34.9214L91.0341 37.0466C93.1153 40.3651 94.2805 45.4006 94.2805 52.4H98.2805ZM94.4358 34.9423C91.763 30.5618 87.7188 28.32 82.5525 28.32V32.32C86.3462 32.32 89.086 33.8542 91.0212 37.0257L94.4358 34.9423ZM82.5525 28.32C77.3862 28.32 73.342 30.5618 70.6692 34.9423L74.0838 37.0257C76.019 33.8542 78.7588 32.32 82.5525 32.32V28.32ZM70.6692 34.9423C68.0893 39.1704 66.9205 45.0701 66.9205 52.4H70.9205C70.9205 45.3939 72.0557 40.3496 74.0838 37.0257L70.6692 34.9423ZM66.9205 52.4C66.9205 59.7299 68.0893 65.6296 70.6692 69.8577L74.0838 67.7743C72.0557 64.4504 70.9205 59.4061 70.9205 52.4H66.9205ZM70.6772 69.8707C73.3572 74.1885 77.4022 76.384 82.5525 76.384V72.384C78.7428 72.384 76.0038 70.8675 74.0758 67.7613L70.6772 69.8707ZM82.5525 76.384C87.7188 76.384 91.763 74.1422 94.4358 69.7617L91.0212 67.6783C89.086 70.8498 86.3462 72.384 82.5525 72.384V76.384ZM94.4229 69.7826C97.0764 65.5513 98.2805 59.6767 98.2805 52.4H94.2805C94.2805 59.3313 93.1166 64.3367 91.0341 67.6574L94.4229 69.7826ZM123.245 77.84L121.632 79.022L121.641 79.035L121.651 79.0477L123.245 77.84ZM123.245 27.056L121.645 25.856L121.638 25.8663L123.245 27.056ZM162.797 27.056L161.182 28.2352L161.19 28.2457L162.797 27.056ZM162.797 77.84L164.407 79.027L164.411 79.022L162.797 77.84ZM153.197 35.984L151.49 37.0257L151.496 37.0362L151.503 37.0466L153.197 35.984ZM132.845 68.816L131.138 69.8577L131.142 69.8642L131.146 69.8707L132.845 68.816ZM153.197 68.72L151.503 67.6574L151.496 67.6678L151.49 67.6783L153.197 68.72ZM143.021 85.344C135.223 85.344 129.238 82.4382 124.839 76.6323L121.651 79.0477C126.853 85.9138 134.051 89.344 143.021 89.344V85.344ZM124.859 76.658C120.442 70.6294 118.141 62.6021 118.141 52.4H114.141C114.141 63.1899 116.577 72.1226 121.632 79.022L124.859 76.658ZM118.141 52.4C118.141 42.1966 120.442 34.2063 124.853 28.2457L121.638 25.8663C116.576 32.7057 114.141 41.6114 114.141 52.4H118.141ZM124.845 28.256C129.247 22.3872 135.231 19.456 143.021 19.456V15.456C134.043 15.456 126.844 18.9248 121.645 25.856L124.845 28.256ZM143.021 19.456C150.95 19.456 156.918 22.3942 161.182 28.2352L164.413 25.8768C159.333 18.9178 152.117 15.456 143.021 15.456V19.456ZM161.19 28.2457C165.6 34.2063 167.901 42.1966 167.901 52.4H171.901C171.901 41.6114 169.466 32.7057 164.405 25.8663L161.19 28.2457ZM167.901 52.4C167.901 62.6021 165.601 70.6294 161.184 76.658L164.411 79.022C169.466 72.1226 171.901 63.1899 171.901 52.4H167.901ZM161.188 76.653C156.927 82.4313 150.958 85.344 143.021 85.344V89.344C152.108 89.344 159.324 85.9207 164.407 79.027L161.188 76.653ZM158.749 52.4C158.749 45.0634 157.546 39.1549 154.892 34.9214L151.503 37.0466C153.584 40.3651 154.749 45.4006 154.749 52.4H158.749ZM154.905 34.9423C152.232 30.5618 148.188 28.32 143.021 28.32V32.32C146.815 32.32 149.555 33.8542 151.49 37.0257L154.905 34.9423ZM143.021 28.32C137.855 28.32 133.811 30.5618 131.138 34.9423L134.553 37.0257C136.488 33.8542 139.228 32.32 143.021 32.32V28.32ZM131.138 34.9423C128.558 39.1704 127.389 45.0701 127.389 52.4H131.389C131.389 45.3939 132.524 40.3496 134.553 37.0257L131.138 34.9423ZM127.389 52.4C127.389 59.7299 128.558 65.6296 131.138 69.8577L134.553 67.7743C132.524 64.4504 131.389 59.4061 131.389 52.4H127.389ZM131.146 69.8707C133.826 74.1885 137.871 76.384 143.021 76.384V72.384C139.212 72.384 136.473 70.8675 134.545 67.7613L131.146 69.8707ZM143.021 76.384C148.188 76.384 152.232 74.1422 154.905 69.7617L151.49 67.6783C149.555 70.8498 146.815 72.384 143.021 72.384V76.384ZM154.892 69.7826C157.545 65.5513 158.749 59.6767 158.749 52.4H154.749C154.749 59.3313 153.585 64.3367 151.503 67.6574L154.892 69.7826ZM205.698 46.544H203.698V48.544H205.698V46.544ZM221.538 46.544H223.538V44.544H221.538V46.544ZM221.538 58.16V60.16H223.538V58.16H221.538ZM205.698 58.16V56.16H203.698V58.16H205.698ZM205.698 74V76H207.698V74H205.698ZM194.082 74H192.082V76H194.082V74ZM194.082 58.16H196.082V56.16H194.082V58.16ZM178.338 58.16H176.338V60.16H178.338V58.16ZM178.338 46.544V44.544H176.338V46.544H178.338ZM194.082 46.544V48.544H196.082V46.544H194.082ZM194.082 30.8V28.8H192.082V30.8H194.082ZM205.698 30.8H207.698V28.8H205.698V30.8ZM205.698 48.544H221.538V44.544H205.698V48.544ZM219.538 46.544V58.16H223.538V46.544H219.538ZM221.538 56.16H205.698V60.16H221.538V56.16ZM203.698 58.16V74H207.698V58.16H203.698ZM205.698 72H194.082V76H205.698V72ZM196.082 74V58.16H192.082V74H196.082ZM194.082 56.16H178.338V60.16H194.082V56.16ZM180.338 58.16V46.544H176.338V58.16H180.338ZM178.338 48.544H194.082V44.544H178.338V48.544ZM196.082 46.544V30.8H192.082V46.544H196.082ZM194.082 32.8H205.698V28.8H194.082V32.8ZM203.698 30.8V46.544H207.698V30.8H203.698Z" fill="white"/>
<path d="M30.976 48.496L22.592 59.376C25.7067 60.272 28.1813 61.8507 30.016 64.112C31.8933 66.3733 32.832 69.0613 32.832 72.176C32.832 76.784 31.2747 80.3893 28.16 82.992C25.1307 85.5947 21.3547 86.896 16.832 86.896C13.2907 86.896 10.1547 86.0853 7.424 84.464C4.69333 82.8 2.70933 80.4533 1.472 77.424L9.024 73.072C10.0907 76.528 12.6933 78.256 16.832 78.256C19.0933 78.256 20.8427 77.7227 22.08 76.656C23.36 75.5467 24 74.0533 24 72.176C24 70.3413 23.36 68.8693 22.08 67.76C20.8427 66.6507 19.0933 66.096 16.832 66.096H14.912L11.52 60.976L20.352 49.456H2.816V41.2H30.976V48.496ZM55.035 86.896C49.4457 86.896 45.051 84.784 41.851 80.56C38.6937 76.2507 37.115 70.5973 37.115 63.6C37.115 56.6027 38.6937 50.9707 41.851 46.704C45.051 42.4373 49.4457 40.304 55.035 40.304C60.7097 40.304 65.1043 42.4373 68.219 46.704C71.3763 50.9707 72.955 56.6027 72.955 63.6C72.955 70.5973 71.3763 76.2507 68.219 80.56C65.1043 84.784 60.7097 86.896 55.035 86.896ZM64.187 63.6C64.187 58.8213 63.3977 55.1733 61.819 52.656C60.283 50.1387 58.0217 48.88 55.035 48.88C52.0483 48.88 49.787 50.1387 48.251 52.656C46.715 55.1733 45.947 58.8213 45.947 63.6C45.947 68.3787 46.715 72.0267 48.251 74.544C49.787 77.0187 52.0483 78.256 55.035 78.256C58.0217 78.256 60.283 76.9973 61.819 74.48C63.3977 71.9627 64.187 68.336 64.187 63.6ZM95.3475 86.896C89.7582 86.896 85.3635 84.784 82.1635 80.56C79.0062 76.2507 77.4275 70.5973 77.4275 63.6C77.4275 56.6027 79.0062 50.9707 82.1635 46.704C85.3635 42.4373 89.7582 40.304 95.3475 40.304C101.022 40.304 105.417 42.4373 108.532 46.704C111.689 50.9707 113.268 56.6027 113.268 63.6C113.268 70.5973 111.689 76.2507 108.532 80.56C105.417 84.784 101.022 86.896 95.3475 86.896ZM104.5 63.6C104.5 58.8213 103.71 55.1733 102.132 52.656C100.596 50.1387 98.3342 48.88 95.3475 48.88C92.3608 48.88 90.0995 50.1387 88.5635 52.656C87.0275 55.1733 86.2595 58.8213 86.2595 63.6C86.2595 68.3787 87.0275 72.0267 88.5635 74.544C90.0995 77.0187 92.3608 78.256 95.3475 78.256C98.3342 78.256 100.596 76.9973 102.132 74.48C103.71 71.9627 104.5 68.336 104.5 63.6ZM137.132 59.696H147.692V67.44H137.132V78H129.388V67.44H118.892V59.696H129.388V49.2H137.132V59.696Z" fill="#0463F1"/>
</svg>
