<svg width="55" height="119" viewBox="0 0 55 119" fill="none" xmlns="http://www.w3.org/2000/svg">
<path opacity="0.1" d="M42.048 51.056L40.8876 49.427L38.3955 51.2023L41.0216 52.7725L42.048 51.056ZM44.832 81.968L43.5606 80.4241L43.555 80.4288L43.5494 80.4334L44.832 81.968ZM9.6 81.968L8.31738 83.5026L9.6 81.968ZM12.384 51.056L13.4312 52.7599L16.0037 51.1789L13.5444 49.427L12.384 51.056ZM11.616 22.64L10.3495 21.0921L10.3437 21.0968L10.338 21.1016L11.616 22.64ZM42.816 22.64L41.5263 24.1686L41.5321 24.1735L41.538 24.1784L42.816 22.64ZM21.024 43.664L19.7027 45.1654L21.024 43.664ZM33.504 43.664L34.8253 45.1654L33.504 43.664ZM35.232 72.368L33.9468 70.8356L35.232 72.368ZM35.232 58.832L33.9468 60.3644L33.9615 60.3767L33.9765 60.3888L35.232 58.832ZM19.296 58.832L20.5515 60.3888L20.5665 60.3767L20.5812 60.3644L19.296 58.832ZM19.296 72.368L18.0108 73.9004L19.296 72.368ZM41.0216 52.7725C46.6392 56.1315 49.36 60.8952 49.36 67.28H53.36C53.36 59.4568 49.8728 53.4045 43.0744 49.3395L41.0216 52.7725ZM49.36 67.28C49.36 72.9589 47.4008 77.2616 43.5606 80.4241L46.1034 83.5119C50.9672 79.5064 53.36 74.0171 53.36 67.28H49.36ZM43.5494 80.4334C39.7246 83.6303 34.3744 85.344 27.264 85.344V89.344C35.0016 89.344 41.3634 87.4737 46.1146 83.5026L43.5494 80.4334ZM27.264 85.344C20.0847 85.344 14.7046 83.6279 10.8826 80.4334L8.31738 83.5026C13.0714 87.4761 19.4673 89.344 27.264 89.344V85.344ZM10.8826 80.4334C7.10323 77.2745 5.168 72.9696 5.168 67.28H1.168C1.168 74.0064 3.52077 79.4935 8.31738 83.5026L10.8826 80.4334ZM5.168 67.28C5.168 60.9554 7.86163 56.1829 13.4312 52.7599L11.3368 49.3521C4.61837 53.4811 1.168 59.5246 1.168 67.28H5.168ZM13.5444 49.427C9.42224 46.4907 7.376 42.47 7.376 37.136H3.376C3.376 43.706 6.00177 48.9653 11.2236 52.685L13.5444 49.427ZM7.376 37.136C7.376 31.4242 9.26206 27.1957 12.894 24.1784L10.338 21.1016C5.64994 24.9963 3.376 30.4318 3.376 37.136H7.376ZM12.8825 24.1879C16.7005 21.0641 21.4506 19.456 27.264 19.456V15.456C20.6614 15.456 14.9795 17.3039 10.3495 21.0921L12.8825 24.1879ZM27.264 19.456C33.1485 19.456 37.8508 21.0674 41.5263 24.1686L44.1057 21.1114C39.5892 17.3005 33.9235 15.456 27.264 15.456V19.456ZM41.538 24.1784C45.1699 27.1957 47.056 31.4242 47.056 37.136H51.056C51.056 30.4318 48.7821 24.9963 44.094 21.1016L41.538 24.1784ZM47.056 37.136C47.056 42.47 45.0098 46.4907 40.8876 49.427L43.2084 52.685C48.4302 48.9653 51.056 43.706 51.056 37.136H47.056ZM37.904 37.808C37.904 34.8913 36.92 32.3899 34.8253 30.5466L32.1827 33.5494C33.288 34.5221 33.904 35.8607 33.904 37.808H37.904ZM34.8253 30.5466C32.7897 28.7553 30.2077 27.936 27.264 27.936V31.936C29.4403 31.936 31.0183 32.5247 32.1827 33.5494L34.8253 30.5466ZM27.264 27.936C24.3203 27.936 21.7383 28.7553 19.7027 30.5466L22.3453 33.5494C23.5097 32.5247 25.0877 31.936 27.264 31.936V27.936ZM19.7027 30.5466C17.608 32.3899 16.624 34.8913 16.624 37.808H20.624C20.624 35.8607 21.24 34.5221 22.3453 33.5494L19.7027 30.5466ZM16.624 37.808C16.624 40.7704 17.5961 43.3116 19.7027 45.1654L22.3453 42.1626C21.2519 41.2004 20.624 39.8376 20.624 37.808H16.624ZM19.7027 45.1654C21.7383 46.9567 24.3203 47.776 27.264 47.776V43.776C25.0877 43.776 23.5097 43.1873 22.3453 42.1626L19.7027 45.1654ZM27.264 47.776C30.2077 47.776 32.7897 46.9567 34.8253 45.1654L32.1827 42.1626C31.0183 43.1873 29.4403 43.776 27.264 43.776V47.776ZM34.8253 45.1654C36.9319 43.3116 37.904 40.7704 37.904 37.808H33.904C33.904 39.8376 33.2761 41.2004 32.1827 42.1626L34.8253 45.1654ZM36.5172 73.9004C39.0087 71.8108 40.208 68.9485 40.208 65.552H36.208C36.208 67.9155 35.4233 69.5972 33.9468 70.8356L36.5172 73.9004ZM40.208 65.552C40.208 62.156 39.0074 59.3073 36.4875 57.2752L33.9765 60.3888C35.4246 61.5567 36.208 63.188 36.208 65.552H40.208ZM36.5172 57.2996C34.0806 55.256 30.9253 54.336 27.264 54.336V58.336C30.2587 58.336 32.4154 59.08 33.9468 60.3644L36.5172 57.2996ZM27.264 54.336C23.6027 54.336 20.4474 55.256 18.0108 57.2996L20.5812 60.3644C22.1126 59.08 24.2693 58.336 27.264 58.336V54.336ZM18.0405 57.2752C15.5206 59.3073 14.32 62.156 14.32 65.552H18.32C18.32 63.188 19.1034 61.5567 20.5515 60.3888L18.0405 57.2752ZM14.32 65.552C14.32 68.9485 15.5193 71.8108 18.0108 73.9004L20.5812 70.8356C19.1047 69.5972 18.32 67.9155 18.32 65.552H14.32ZM18.0108 73.9004C20.4474 75.944 23.6027 76.864 27.264 76.864V72.864C24.2693 72.864 22.1126 72.12 20.5812 70.8356L18.0108 73.9004ZM27.264 76.864C30.9253 76.864 34.0806 75.944 36.5172 73.9004L33.9468 70.8356C32.4154 72.12 30.2587 72.864 27.264 72.864V76.864Z" fill="white"/>
<path d="M28.032 62.704C32.1707 65.1787 34.24 68.784 34.24 73.52C34.24 77.6587 32.7893 80.9227 29.888 83.312C27.0293 85.7013 23.1253 86.896 18.176 86.896C13.184 86.896 9.25867 85.7013 6.4 83.312C3.54133 80.9227 2.112 77.6587 2.112 73.52C2.112 68.8267 4.16 65.2213 8.256 62.704C5.14133 60.4853 3.584 57.392 3.584 53.424C3.584 49.2853 4.97067 46.064 7.744 43.76C10.56 41.456 14.0373 40.304 18.176 40.304C22.3573 40.304 25.8133 41.456 28.544 43.76C31.3173 46.064 32.704 49.2853 32.704 53.424C32.704 57.392 31.1467 60.4853 28.032 62.704ZM23.936 53.872C23.936 52.2507 23.4027 50.9707 22.336 50.032C21.2693 49.0933 19.8827 48.624 18.176 48.624C16.4693 48.624 15.0827 49.0933 14.016 50.032C12.9493 50.9707 12.416 52.2507 12.416 53.872C12.416 55.536 12.9493 56.8373 14.016 57.776C15.0827 58.7147 16.4693 59.184 18.176 59.184C19.8827 59.184 21.2693 58.7147 22.336 57.776C23.4027 56.8373 23.936 55.536 23.936 53.872ZM23.488 76.912C24.8107 75.8027 25.472 74.288 25.472 72.368C25.472 70.448 24.8107 68.9547 23.488 67.888C22.1653 66.7787 20.3947 66.224 18.176 66.224C15.9573 66.224 14.1867 66.7787 12.864 67.888C11.5413 68.9547 10.88 70.448 10.88 72.368C10.88 74.288 11.5413 75.8027 12.864 76.912C14.1867 78.0213 15.9573 78.576 18.176 78.576C20.3947 78.576 22.1653 78.0213 23.488 76.912Z" fill="#0463F1"/>
</svg>
