<svg width="268" height="150" viewBox="0 0 268 150" fill="none" xmlns="http://www.w3.org/2000/svg">
<path fill-rule="evenodd" clip-rule="evenodd" d="M53.7643 57.9121C45.9907 58.5217 39.3685 62.6444 36.4818 68.6713C34.0437 73.7618 34.7312 79.6458 38.3068 84.2908C41.0075 87.7991 45.2613 90.3965 50.1654 91.5318C53.3602 92.2714 57.1485 92.3148 60.4541 91.6497C67.468 90.2385 73.1569 85.7497 75.2488 79.9759C76.5883 76.2789 76.3711 72.1597 74.6486 68.5939C73.7969 66.8305 72.8073 65.4727 71.2572 63.9404C68.0655 60.785 63.861 58.7891 58.9299 58.0884C57.5855 57.8974 55.0544 57.8109 53.7643 57.9121ZM57.9984 61.4368C60.6655 61.7395 63.662 62.7358 65.789 64.027C67.0967 64.821 69.3169 66.6487 69.1583 66.8008C69.0485 66.9062 67.7984 67.1931 66.8475 67.3309C64.8319 67.6231 62.2882 67.585 58.9299 67.2125C55.7011 66.8543 51.661 66.8354 49.6004 67.1688C47.4777 67.5123 46.0231 68.3624 45.1827 69.7508C44.9201 70.1846 43.8279 73.1618 42.3326 77.5195C41.9915 78.5138 41.5554 79.6443 41.3634 80.0317C40.975 80.8158 40.5847 81.3349 40.4468 81.2506C40.397 81.2201 40.2197 80.9538 40.0528 80.6587C39.3764 79.4625 38.8503 77.9717 38.6561 76.7005C38.5411 75.9468 38.5378 74.0466 38.6505 73.3252C39.5522 67.5497 44.956 62.8161 52.0284 61.606C54.0014 61.2685 56.0135 61.2114 57.9984 61.4368ZM135.82 64.7928C133.002 65.1947 130.798 67.1524 129.993 69.9678C129.814 70.5934 129.811 70.7256 129.785 78.203L129.758 85.8024H132.429H135.1L135.101 79.0823C135.102 73.5251 135.123 72.2844 135.223 71.9126C135.64 70.3619 136.931 69.1294 138.47 68.812C138.717 68.7611 139.603 68.7195 140.439 68.7195H141.959V77.2609V85.8024H144.711H147.463L147.484 77.2819L147.506 68.7613L148.893 68.7383C150.423 68.7129 150.955 68.7984 151.782 69.2032C152.38 69.4962 153.283 70.3895 153.579 70.9804C154.077 71.9771 154.068 71.8353 154.068 79.1208V85.8024H156.865H159.662L159.638 78.0355L159.615 70.2687L159.335 69.4731C158.932 68.326 158.484 67.626 157.59 66.7516C156.777 65.9548 156.228 65.5889 155.272 65.2039C154.028 64.7032 153.936 64.699 144.718 64.7102C140.103 64.7158 136.099 64.753 135.82 64.7928ZM166.986 64.7931C164.47 65.1555 162.505 66.811 161.678 69.2638C161.481 69.8478 161.48 69.8684 161.454 74.8743C161.425 80.3063 161.438 80.5227 161.87 81.6306C162.621 83.5551 164.39 85.0509 166.474 85.5233C167.1 85.6651 167.657 85.6768 173.841 85.6768C180.495 85.6768 180.535 85.6758 181.235 85.49C183.129 84.9873 184.642 83.7452 185.497 81.9922C186.068 80.822 186.075 80.7449 186.076 75.1599C186.078 70.4762 186.068 70.1305 185.912 69.5285C185.407 67.5773 183.995 65.9759 182.095 65.2012C180.913 64.7192 180.567 64.699 173.721 64.7102C170.294 64.7158 167.263 64.7531 166.986 64.7931ZM187.941 66.9191V69.1382H191.159H194.376V77.4703V85.8024H197.34H200.304V77.4703V69.1382H203.522H206.74V66.9191V64.7H197.34H187.941V66.9191ZM214.276 64.7542C212.582 65.0058 211.411 65.5454 210.364 66.5563C209.801 67.0997 209.17 68.0356 208.89 68.7433C208.452 69.8481 208.433 70.1098 208.433 75.2093C208.433 80.6758 208.436 80.704 209.125 82.1178C209.509 82.9051 209.639 83.0807 210.37 83.796C211.284 84.6918 212.06 85.1388 213.302 85.4856L213.98 85.6747L220.754 85.6758C227.49 85.6768 227.533 85.6757 228.23 85.4907C230.855 84.7937 232.712 82.7286 233.065 80.1157C233.209 79.0461 233.192 71.154 233.043 70.1849C232.69 67.8842 231.084 65.9116 228.926 65.1266C227.81 64.7206 227.387 64.6992 220.722 64.7113C217.293 64.7176 214.393 64.7369 214.276 64.7542ZM89.3302 64.9259C88.8716 64.9861 87.9871 65.301 87.3123 65.6444C86.1125 66.2548 84.8849 67.5837 84.3464 68.8554C83.8328 70.068 83.8257 70.1583 83.8289 75.3768C83.8319 80.0416 83.8362 80.1652 84.0193 80.8199C84.6674 83.1353 86.3569 84.8366 88.7374 85.5708C89.3263 85.7525 89.3829 85.7539 97.3537 85.782L105.377 85.8103V83.7966V81.7829L99.0896 81.7815C92.261 81.7799 92.0808 81.7692 91.2412 81.3173C90.3076 80.8148 89.5769 79.8001 89.3796 78.7319C89.3251 78.437 89.2878 77.0564 89.2878 75.3349C89.2878 72.1906 89.3325 71.7303 89.715 70.9335C89.9914 70.3578 90.7365 69.6002 91.3118 69.3099C92.1173 68.9035 92.3677 68.89 99.0896 68.8884L105.377 68.8869V66.8772V64.8674L97.4807 64.88C93.1376 64.8869 89.4699 64.9075 89.3302 64.9259ZM111.844 64.9925C109.401 65.5178 107.44 67.4251 106.763 69.9337C106.614 70.4856 106.605 70.9649 106.605 78.1402V85.7605L109.294 85.7826L111.982 85.8047V82.3702V78.9357H119.9H127.817V76.8841V74.8325H119.892H111.966L112 73.3461C112.03 72.0667 112.061 71.7956 112.22 71.3991C112.589 70.4787 113.41 69.6645 114.353 69.2841L114.819 69.0963L121.318 69.0734L127.817 69.0504V66.9589V64.8674L120.09 64.8741C113.985 64.8793 112.254 64.9042 111.844 64.9925ZM178.313 68.9281C179.322 69.188 180.072 69.7142 180.646 70.5643C181.277 71.4985 181.293 71.6131 181.293 75.2093C181.293 78.3362 181.29 78.4014 181.093 78.9642C180.723 80.0253 179.837 80.9252 178.71 81.3839C178.251 81.5709 178.187 81.5739 174.027 81.5981C169.431 81.6249 169.269 81.612 168.321 81.1417C167.28 80.6242 166.42 79.3877 166.264 78.1821C166.158 77.3635 166.159 73.046 166.265 72.2375C166.474 70.6479 167.613 69.3447 169.15 68.9358C169.834 68.7539 177.612 68.7474 178.313 68.9281ZM225.217 68.8974C226.25 69.1143 227.391 69.9669 227.851 70.8653C228.314 71.7678 228.344 72.0585 228.313 75.4037C228.282 78.8742 228.272 78.9408 227.627 79.8767C227.205 80.489 226.44 81.0956 225.736 81.3767C225.244 81.5727 225.226 81.5736 221.061 81.5981C218.306 81.6144 216.73 81.592 216.44 81.5327C215.249 81.2881 214.181 80.467 213.627 79.3692L213.302 78.7264V75.2093V71.6922L213.614 71.0618C214.137 70.0045 215.069 69.2228 216.148 68.9358C216.737 68.7791 224.498 68.7463 225.217 68.8974ZM72.3836 72.6343C72.6332 73.4785 72.6848 75.7048 72.4814 76.8522C72.0312 79.391 70.8021 81.6496 68.7957 83.6252C64.789 87.5703 58.3982 89.4309 52.2824 88.4328C48.4449 87.8066 45.1461 86.239 42.5182 83.7929C42.1081 83.4111 41.8032 83.0699 41.8407 83.0345C41.8783 82.9993 42.3663 82.8502 42.9252 82.7033C44.4049 82.3145 45.4485 81.9735 46.1778 81.6403C49.2419 80.2406 52.501 80.1671 60.0307 81.3278C62.084 81.6443 62.7415 81.675 63.6029 81.4945C66.1882 80.9527 67.9305 79.792 68.7634 78.0565C69.0192 77.5233 69.3569 76.4473 69.2888 76.3823C69.2735 76.3677 68.9683 76.4062 68.6108 76.468C66.8972 76.7639 65.5119 76.8667 63.2486 76.8657C60.8814 76.8647 59.4235 76.7546 57.2786 76.4153C54.7859 76.0209 52.6725 75.916 50.9028 76.0988C50.4001 76.1507 49.9713 76.1758 49.9499 76.1546C49.9285 76.1334 50.0067 75.6875 50.1239 75.1637C50.365 74.0857 50.509 73.8705 51.1802 73.5849C51.8874 73.2841 52.6776 73.216 54.8228 73.2707C55.9173 73.2986 57.1177 73.3595 57.4903 73.4059C64.0993 74.2294 69.4186 73.9577 71.888 72.6706C72.3034 72.4542 72.3298 72.4523 72.3836 72.6343Z" fill="#DADADA"/>
</svg>
