<svg width="268" height="150" viewBox="0 0 268 150" fill="none" xmlns="http://www.w3.org/2000/svg">
<g clip-path="url(#clip0_1456_1923)">
<path fill-rule="evenodd" clip-rule="evenodd" d="M56.1969 102.898V124.951C56.3179 124.951 56.5599 124.951 56.8019 124.951C57.0439 124.951 57.2859 124.951 57.6489 125.072L59.4639 125.192H60.9159C63.5779 125.192 65.6349 124.831 67.0869 124.108C69.0229 123.144 70.3539 121.818 71.2009 119.89C72.0479 118.082 72.4109 115.913 72.4109 113.503C72.4109 111.454 72.1689 109.767 71.8059 108.441C71.4429 107.116 70.7169 106.031 69.8699 105.188C68.9019 104.344 67.8129 103.742 66.2399 103.38C64.7879 103.019 62.9729 102.778 60.9159 102.778C60.6739 102.778 60.1899 102.778 59.5849 102.778C58.9799 102.778 58.6169 102.778 58.3749 102.778L56.1969 102.898ZM52.9299 126.638V101.452H61.3999H63.9409C65.7559 101.452 67.2079 101.572 68.5389 101.934C69.8699 102.175 71.0799 102.778 72.1689 103.742C73.4999 104.826 74.4679 106.152 75.0729 107.839C75.7989 109.526 76.0409 111.213 76.0409 113.021C76.0409 114.708 75.7989 116.154 75.4359 117.48C75.0729 118.805 74.4679 120.01 73.8629 121.095C73.1369 122.18 72.2899 123.023 71.3219 123.987C70.5959 124.59 69.7489 125.192 68.9019 125.554C68.5389 125.674 68.0549 125.915 67.5709 126.036C67.0869 126.156 66.6029 126.277 66.1189 126.397C65.6349 126.518 65.1509 126.518 64.6669 126.638C64.1829 126.759 63.8199 126.759 63.3359 126.759L60.1899 126.638H52.9299ZM94.5539 122.903V124.831C93.5859 125.554 92.4969 126.036 91.4079 126.397C90.8029 126.638 90.3189 126.759 89.8349 126.879C89.3509 127 88.7459 127 88.1409 127C86.4469 127 84.9949 126.638 83.5429 125.915C82.2119 125.192 81.1229 124.108 80.3969 122.782C79.6709 121.336 79.3079 119.769 79.3079 117.962C79.3079 116.275 79.6709 114.708 80.2759 113.262C80.8809 111.936 81.8489 110.852 83.1799 110.008C84.5109 109.165 85.9629 108.803 87.7779 108.803C88.7459 108.803 89.7139 108.924 90.6819 109.285C91.5289 109.647 92.3759 110.129 93.1019 110.852C93.8279 111.575 94.3119 112.418 94.7959 113.382C95.1589 114.467 95.4009 115.672 95.4009 116.998V117.48V117.841C94.5539 117.841 93.3439 117.841 91.6499 117.841C89.9559 117.841 88.7459 117.841 87.8989 117.841H82.6959V118.564C82.6959 119.528 82.8169 120.372 83.0589 121.216C83.3009 122.059 83.7849 122.782 84.2689 123.385C84.8739 123.987 85.4789 124.469 86.3259 124.831C87.1729 125.192 88.0199 125.433 88.9879 125.433C90.9239 125.554 92.7389 124.59 94.5539 122.903ZM82.5749 116.395H92.4969C92.4969 115.431 92.3759 114.587 92.2549 113.864C92.0129 113.141 91.7709 112.418 91.4079 111.816C90.6819 110.611 89.4719 110.008 87.8989 110.008C86.8099 110.008 85.8419 110.37 85.1159 110.852C84.3899 111.454 83.7849 112.298 83.3009 113.262C83.0589 113.864 82.9379 114.346 82.8169 114.829C82.6959 115.431 82.5749 115.913 82.5749 116.395ZM109.195 117.118L112.22 109.165L112.946 109.285H113.43H113.914L114.64 109.165L111.978 114.829C111.01 116.998 110.042 119.167 109.195 121.336C108.348 123.385 107.622 125.192 107.138 126.759H106.654C106.533 126.759 106.412 126.759 106.291 126.759H105.928H105.565H105.202L104.718 126.879C104.476 126.277 104.113 125.072 103.508 123.626C102.782 121.818 102.419 120.854 102.419 120.733C102.056 120.01 101.814 119.408 101.693 119.046C101.088 117.359 100.241 115.552 99.3939 113.623C98.5469 111.575 97.9419 110.129 97.4579 109.165L98.4259 109.285H99.1519H99.7569L100.725 109.165C101.088 110.37 101.572 111.816 102.056 113.141C102.54 114.587 103.145 116.154 103.871 117.841C104.597 119.528 105.323 121.336 106.17 123.264C106.654 122.662 106.896 122.3 106.896 122.18L109.195 117.118ZM121.9 109.044V126.759H121.295C121.174 126.759 120.932 126.759 120.932 126.759H120.448H119.964H119.601L118.996 126.879V109.044L119.843 109.165H120.448H121.053L121.9 109.044ZM122.263 102.778C122.263 103.26 122.021 103.742 121.658 104.103C121.295 104.465 120.811 104.706 120.327 104.706C119.843 104.706 119.359 104.465 118.996 104.103C118.633 103.742 118.391 103.26 118.391 102.778C118.391 102.295 118.633 101.813 118.996 101.452C119.359 101.09 119.843 100.849 120.327 100.849C120.811 100.849 121.295 101.09 121.658 101.452C122.142 101.813 122.263 102.175 122.263 102.778ZM142.591 110.37L141.744 112.78H141.381C140.897 112.057 140.534 111.695 140.413 111.575C140.05 111.093 139.566 110.852 138.84 110.49C138.114 110.249 137.388 110.129 136.783 110.129C134.847 110.129 133.274 110.852 132.064 112.298C131.459 113.021 131.096 113.864 130.854 114.708C130.612 115.552 130.491 116.516 130.491 117.6C130.491 118.444 130.612 119.167 130.733 119.769C130.854 120.492 131.096 121.095 131.338 121.698C131.943 122.903 132.669 123.867 133.758 124.59C134.726 125.313 135.936 125.674 137.267 125.674C138.235 125.674 139.082 125.433 139.929 125.072C140.655 124.71 141.502 124.108 142.47 123.264L142.712 123.385L142.591 125.072C140.897 126.277 138.961 126.879 136.904 126.879C134.968 126.879 133.153 126.518 131.822 125.674C130.37 124.831 129.281 123.746 128.555 122.421C127.829 120.975 127.466 119.408 127.466 117.721C127.466 115.913 127.829 114.226 128.676 112.9C129.523 111.575 130.612 110.49 132.064 109.767C133.516 109.044 135.21 108.683 137.025 108.683C138.961 108.803 140.897 109.406 142.591 110.37ZM160.62 122.903V124.831C159.652 125.554 158.563 126.036 157.474 126.397C156.869 126.638 156.385 126.759 155.901 126.879C155.417 127 154.812 127 154.207 127C152.513 127 151.061 126.638 149.609 125.915C148.278 125.192 147.189 124.108 146.463 122.782C145.737 121.336 145.374 119.769 145.374 117.962C145.374 116.275 145.737 114.708 146.342 113.262C146.947 111.936 147.915 110.852 149.246 110.008C150.577 109.165 152.029 108.803 153.844 108.803C154.812 108.803 155.78 108.924 156.748 109.285C157.595 109.647 158.442 110.129 159.168 110.852C159.894 111.575 160.378 112.418 160.862 113.382C161.225 114.467 161.467 115.672 161.467 116.998V117.48V117.841C160.62 117.841 159.41 117.841 157.716 117.841C156.022 117.841 154.812 117.841 153.965 117.841H148.762V118.564C148.762 119.528 148.883 120.372 149.125 121.216C149.367 122.059 149.851 122.782 150.335 123.385C150.94 123.987 151.545 124.469 152.392 124.831C153.239 125.192 154.086 125.433 155.054 125.433C156.99 125.554 158.805 124.59 160.62 122.903ZM148.641 116.395H158.563C158.563 115.431 158.442 114.587 158.321 113.864C158.079 113.141 157.837 112.418 157.474 111.816C156.748 110.611 155.538 110.008 153.965 110.008C152.876 110.008 151.908 110.37 151.182 110.852C150.456 111.454 149.851 112.298 149.367 113.262C149.125 113.864 149.004 114.346 148.883 114.829C148.641 115.431 148.641 115.913 148.641 116.395ZM168.848 115.19V126.759H168.122C167.88 126.759 167.759 126.759 167.638 126.759H167.154L166.67 126.638H166.186H165.581V101.331H172.236C174.656 101.331 176.592 101.572 177.923 101.934C179.254 102.295 180.343 102.898 180.948 103.862C181.553 104.706 181.916 105.911 181.916 107.477C181.916 108.562 181.795 109.526 181.432 110.37C181.069 111.213 180.585 111.936 179.98 112.539C179.375 113.141 178.528 113.623 177.56 114.105C176.713 114.467 175.503 114.829 174.051 115.07C173.809 115.07 173.446 115.19 173.083 115.19C172.72 115.19 172.357 115.19 171.873 115.19H171.51C171.268 115.19 171.026 115.19 170.905 115.19H170.542C170.421 115.19 170.421 115.19 170.3 115.19C170.179 115.19 170.058 115.07 170.058 115.07H169.574H168.848V115.19ZM168.848 102.898V113.744L170.542 113.864C170.663 113.864 170.905 113.864 171.389 113.864C171.873 113.864 172.236 113.864 172.478 113.864C174.293 113.744 175.745 113.021 176.834 111.936C177.802 110.852 178.407 109.526 178.407 107.839C178.407 106.995 178.286 106.272 177.923 105.549C177.681 104.826 177.197 104.344 176.592 103.862C175.987 103.38 175.14 103.139 174.172 103.019C174.051 103.019 173.688 103.019 173.083 103.019C172.478 103.019 171.873 103.019 171.268 103.019C170.663 103.019 170.179 103.019 169.816 103.019C169.453 102.898 169.211 102.898 168.848 102.898ZM186.272 126.759V109.044L187.119 109.165H187.724H188.329L189.176 109.044V112.78L189.297 112.298C190.749 110.008 192.322 108.803 194.016 108.803C194.5 108.803 194.863 108.924 195.105 108.924L194.621 112.057C194.5 112.057 194.258 111.936 193.774 111.695C193.411 111.454 193.048 111.454 192.806 111.454C192.322 111.454 191.959 111.575 191.475 111.695C190.991 111.816 190.749 112.057 190.386 112.418C189.781 113.141 189.418 113.744 189.297 114.467C189.176 115.19 189.055 116.034 189.055 117.118V126.638H188.45C188.329 126.638 188.087 126.638 188.087 126.638H187.603H187.119H186.756L186.272 126.759ZM197.041 117.721C197.041 116.395 197.283 115.19 197.767 114.105C198.251 113.021 198.856 112.057 199.824 111.334C200.671 110.49 201.639 109.888 202.849 109.526C203.938 109.044 205.269 108.924 206.6 108.924C208.294 108.924 209.746 109.285 211.077 110.008C212.408 110.731 213.376 111.816 214.102 113.141C214.828 114.467 215.191 116.154 215.191 117.962C215.191 119.167 214.949 120.251 214.586 121.336C214.223 122.421 213.618 123.385 212.771 124.349C211.924 125.192 210.956 125.915 209.746 126.397C208.536 126.879 207.205 127.121 205.753 127.121C204.18 127.121 202.728 126.759 201.397 126.036C200.066 125.313 198.977 124.228 198.251 122.782C197.404 121.336 197.041 119.649 197.041 117.721ZM206.479 110.008C205.027 110.008 203.817 110.37 202.849 111.213C201.881 112.057 201.276 113.021 200.913 114.346C200.55 115.672 200.308 116.998 200.308 118.323C200.308 119.649 200.55 120.975 200.913 122.059C201.276 123.144 201.881 124.108 202.849 124.831C203.696 125.554 204.785 125.915 206.116 125.915C207.447 125.915 208.536 125.433 209.383 124.59C210.23 123.746 210.835 122.662 211.319 121.336C211.682 120.01 211.924 118.805 211.924 117.721C211.924 116.757 211.803 115.913 211.682 114.949C211.561 114.105 211.198 113.262 210.835 112.539C210.472 111.816 209.867 111.213 209.141 110.731C208.294 110.249 207.447 110.008 206.479 110.008Z" fill="#DADADA"/>
<path fill-rule="evenodd" clip-rule="evenodd" d="M132.064 23L138.719 28.3024V74.9397L132.064 69.5168V23Z" fill="#DADADA"/>
<path fill-rule="evenodd" clip-rule="evenodd" d="M143.075 54.5735L149.851 59.9964V83.7369L143.075 78.3139V54.5735Z" fill="#DADADA"/>
<path fill-rule="evenodd" clip-rule="evenodd" d="M126.014 94.2214L132.669 91.2086L116.697 77.2295V54.4531L109.921 59.7556V80.9653L126.014 94.2214Z" fill="#DADADA"/>
<path fill-rule="evenodd" clip-rule="evenodd" d="M120.811 74.6987L137.267 89.1599L143.801 86.1472L127.587 71.686V36.8586L120.811 42.2816V74.6987Z" fill="#DADADA"/>
</g>
<defs>
<clipPath id="clip0_1456_1923">
<rect width="162.14" height="104" fill="white" transform="translate(52.9299 23)"/>
</clipPath>
</defs>
</svg>
