<svg width="268" height="150" viewBox="0 0 268 150" fill="none" xmlns="http://www.w3.org/2000/svg">
<path fill-rule="evenodd" clip-rule="evenodd" d="M105.777 62.4461L105.777 85.7254H107.24H108.703L108.703 62.4461V39.1667H107.24H105.777V62.4461ZM166.253 62.4461V85.7254H167.716H169.179V62.4461V39.1667H167.716H166.253V62.4461Z" fill="#DADADA"/>
<path fill-rule="evenodd" clip-rule="evenodd" d="M70.1324 43.8538C69.7283 44.6121 65.7462 53.6981 56.31 75.3923C54.605 79.3118 53.1599 82.6009 53.0985 82.7011C53.0368 82.8014 55.6494 82.8548 58.9039 82.8199L64.8213 82.7562L66.083 79.6855C66.7767 77.9968 67.4705 76.4185 67.6243 76.1784C67.8877 75.7677 68.3569 75.7456 75.6281 75.8047L83.3519 75.8674L84.8031 79.3712L86.2543 82.875H92.2223C97.7888 82.875 98.1826 82.847 98.0719 82.4593C98.0068 82.2305 96.1398 77.9281 93.9235 72.8981C90.5098 65.1513 85.8607 54.5179 82.0319 45.6993L81.1038 43.5614L75.73 43.4975C70.7983 43.4388 70.3379 43.468 70.1324 43.8538ZM118.373 63.1588V82.875L123.86 82.875H129.347V72.1328C129.347 61.5635 129.354 61.3979 129.811 61.859C130.067 62.1165 133.008 65.748 136.347 69.9288C139.686 74.1096 143.391 78.7329 144.58 80.2026L146.742 82.875H151.7H156.658V63.1588V43.4426H151.052H145.446L145.383 53.8283L145.319 64.214L137.044 53.8283L128.768 43.4426H123.571L118.373 43.4426V63.1588ZM178.784 43.5854C178.685 43.6811 178.605 52.5672 178.605 63.3325V82.9054L191.347 82.8211L204.088 82.7365L206.281 82.0773C208.946 81.2766 210.67 80.3451 212.142 78.9113C214.142 76.9632 215.092 74.2916 214.871 71.2353C214.595 67.4021 212.782 64.8786 209.091 63.1885L207.119 62.2856L208.694 61.2934C211.247 59.6852 212.522 57.8112 212.985 54.9863C213.674 50.7849 211.656 46.9495 207.793 45.119C204.596 43.6037 204.542 43.5985 191.159 43.5006C184.451 43.4517 178.882 43.4899 178.784 43.5854ZM199.443 52.4952C199.973 52.6384 200.769 53.1083 201.211 53.539C201.933 54.2416 202.015 54.4614 202.015 55.6762C202.015 56.891 201.933 57.1107 201.211 57.8133C200.061 58.9334 199.047 59.1177 194.029 59.1191L189.579 59.1206V55.6762V52.2318L194.029 52.2332C196.507 52.2339 198.907 52.3501 199.443 52.4952ZM77.8881 62.01L80.038 67.3158L75.6388 67.3807C73.2193 67.4163 71.1983 67.4051 71.1475 67.356C71.0971 67.3066 71.9245 65.1395 72.9867 62.5402C75.1865 57.1563 75.4942 56.4665 75.6364 56.6047C75.6925 56.6594 76.7057 59.0918 77.8881 62.01ZM201.73 67.5778C203.329 68.3539 203.822 69.1891 203.659 70.8443C203.561 71.8316 203.392 72.1698 202.679 72.8067C202.205 73.2297 201.396 73.6901 200.88 73.8295C200.352 73.9725 197.681 74.0837 194.761 74.0844L189.579 74.0858V70.5227V66.9595H195.018C200.388 66.9595 200.472 66.9674 201.73 67.5778Z" fill="#DADADA"/>
<path fill-rule="evenodd" clip-rule="evenodd" d="M112.504 91.5453C112.504 91.6867 112.273 91.8024 111.992 91.8024C111.71 91.8024 111.48 91.9182 111.48 92.0596C111.48 92.2011 111.275 92.3168 111.024 92.3168C110.774 92.3168 110.403 92.5483 110.2 92.8311C109.997 93.114 109.678 93.3455 109.492 93.3455C109.305 93.3455 108.87 93.6297 108.524 93.9769C108.179 94.3241 107.896 94.7613 107.896 94.9487C107.896 95.136 107.665 95.4562 107.384 95.6601C107.102 95.864 106.872 96.2367 106.872 96.4885C106.872 96.74 106.757 96.946 106.616 96.946C106.475 96.946 106.36 97.4089 106.36 97.9747C106.36 98.5405 106.245 99.0034 106.104 99.0034C105.955 99.0034 105.848 99.8606 105.848 101.061C105.848 102.261 105.955 103.118 106.104 103.118C106.245 103.118 106.36 103.465 106.36 103.89C106.36 104.314 106.475 104.661 106.616 104.661C106.757 104.661 106.872 104.893 106.872 105.176C106.872 105.459 106.987 105.69 107.128 105.69C107.269 105.69 107.384 105.867 107.384 106.082C107.384 106.561 109.542 108.776 110.009 108.776C110.192 108.776 110.509 109.008 110.712 109.29C110.929 109.592 111.375 109.805 111.792 109.805C112.184 109.805 112.504 109.921 112.504 110.062C112.504 110.203 113.08 110.319 113.784 110.319C114.488 110.319 115.064 110.435 115.064 110.576C115.064 110.718 115.525 110.834 116.088 110.834C116.651 110.834 117.112 110.718 117.112 110.576C117.112 110.435 117.688 110.319 118.392 110.319C119.096 110.319 119.672 110.203 119.672 110.062C119.672 109.921 120.017 109.805 120.44 109.805C120.862 109.805 121.208 109.689 121.208 109.548C121.208 109.406 121.438 109.29 121.72 109.29C122.001 109.29 122.232 109.175 122.232 109.033C122.232 108.892 122.41 108.776 122.627 108.776C122.845 108.776 123.306 108.492 123.651 108.145C124.268 107.525 124.28 107.433 124.28 103.258V99.0034H119.928H115.576V101.061V103.118H117.368H119.16V104.404C119.16 105.661 119.143 105.69 118.392 105.69C117.969 105.69 117.624 105.806 117.624 105.947C117.624 106.089 117.048 106.204 116.344 106.204C115.64 106.204 115.064 106.089 115.064 105.947C115.064 105.806 114.772 105.69 114.415 105.69C113.694 105.69 111.992 104.161 111.992 103.512C111.992 103.296 111.877 103.118 111.736 103.118C111.595 103.118 111.48 102.665 111.48 102.111C111.48 101.557 111.336 101.036 111.16 100.954C110.904 100.834 110.904 100.774 111.16 100.654C111.336 100.571 111.48 100.051 111.48 99.4964C111.48 98.9424 111.595 98.489 111.736 98.489C111.877 98.489 111.992 98.3103 111.992 98.0917C111.992 97.8731 112.275 97.4102 112.62 97.063C112.966 96.7158 113.427 96.4316 113.644 96.4316C113.862 96.4316 114.04 96.3159 114.04 96.1745C114.04 96.0245 114.893 95.9173 116.088 95.9173C117.282 95.9173 118.136 96.0245 118.136 96.1745C118.136 96.3159 118.366 96.4316 118.648 96.4316C118.929 96.4316 119.16 96.5474 119.16 96.6888C119.16 96.8303 119.38 96.946 119.65 96.946C119.92 96.946 120.188 97.0864 120.244 97.2577C120.369 97.6337 122.232 95.836 122.232 95.3397C122.232 95.154 122.462 94.8353 122.744 94.6314C123.025 94.4274 123.256 94.1044 123.256 93.9134C123.256 93.4656 122.624 92.8311 122.178 92.8311C121.988 92.8311 121.667 92.5997 121.464 92.3168C121.247 92.0149 120.801 91.8024 120.383 91.8024C119.992 91.8024 119.672 91.6867 119.672 91.5453C119.672 91.3861 118.306 91.2881 116.088 91.2881C113.869 91.2881 112.504 91.3861 112.504 91.5453ZM129.912 100.804V110.319H132.472H135.031V107.49V104.661H136.311C137.368 104.661 137.591 104.741 137.591 105.119C137.591 105.371 137.822 105.743 138.103 105.947C138.385 106.151 138.615 106.498 138.615 106.719C138.615 106.939 138.846 107.286 139.127 107.49C139.409 107.694 139.639 108.041 139.639 108.262C139.639 108.482 139.87 108.829 140.151 109.033C140.433 109.237 140.663 109.61 140.663 109.862C140.663 110.275 140.961 110.319 143.735 110.319C145.613 110.319 146.807 110.219 146.807 110.062C146.807 109.921 146.692 109.805 146.551 109.805C146.411 109.805 146.295 109.62 146.295 109.394C146.295 109.168 145.95 108.658 145.527 108.262C145.105 107.865 144.759 107.381 144.759 107.187C144.759 106.992 144.529 106.665 144.247 106.462C143.966 106.258 143.735 105.91 143.735 105.69C143.735 105.47 143.505 105.122 143.223 104.918C142.942 104.715 142.711 104.393 142.711 104.205C142.711 104.016 143.403 103.18 144.247 102.347C145.331 101.279 145.783 100.639 145.783 100.175C145.783 99.8135 145.899 99.5178 146.039 99.5178C146.185 99.5178 146.295 98.7462 146.295 97.7175C146.295 96.6888 146.185 95.9173 146.039 95.9173C145.899 95.9173 145.783 95.6858 145.783 95.4029C145.783 95.12 145.668 94.8886 145.527 94.8886C145.387 94.8886 145.271 94.7111 145.271 94.4943C145.271 93.8462 143.569 92.3168 142.848 92.3168C142.491 92.3168 142.199 92.2011 142.199 92.0596C142.199 91.9182 141.739 91.8024 141.175 91.8024C140.612 91.8024 140.151 91.6867 140.151 91.5453C140.151 91.3825 138.274 91.2881 135.031 91.2881H129.912V100.804ZM157.559 91.5453C157.559 91.6867 157.329 91.8024 157.047 91.8024C156.766 91.8024 156.535 91.9182 156.535 92.0596C156.535 92.2011 156.305 92.3168 156.023 92.3168C155.742 92.3168 155.511 92.4325 155.511 92.574C155.511 92.7154 155.335 92.8311 155.121 92.8311C154.905 92.8311 154.214 93.3488 153.585 93.9818C152.955 94.6144 152.439 95.3088 152.439 95.5248C152.439 95.7406 152.324 95.9173 152.183 95.9173C152.042 95.9173 151.927 96.1487 151.927 96.4316C151.927 96.7145 151.812 96.946 151.671 96.946C151.53 96.946 151.415 97.2932 151.415 97.7175C151.415 98.1419 151.3 98.489 151.159 98.489C151.007 98.489 150.903 99.4321 150.903 100.804C150.903 102.175 151.007 103.118 151.159 103.118C151.3 103.118 151.415 103.465 151.415 103.89C151.415 104.314 151.53 104.661 151.671 104.661C151.812 104.661 151.927 104.893 151.927 105.176C151.927 105.459 152.042 105.69 152.183 105.69C152.324 105.69 152.439 105.867 152.439 106.082C152.439 106.561 154.598 108.776 155.064 108.776C155.248 108.776 155.564 109.008 155.767 109.29C155.984 109.592 156.43 109.805 156.848 109.805C157.239 109.805 157.559 109.921 157.559 110.062C157.559 110.203 158.02 110.319 158.583 110.319C159.146 110.319 159.607 110.435 159.607 110.576C159.607 110.718 160.183 110.834 160.887 110.834C161.591 110.834 162.167 110.718 162.167 110.576C162.167 110.435 162.628 110.319 163.191 110.319C163.754 110.319 164.215 110.203 164.215 110.062C164.215 109.921 164.535 109.805 164.926 109.805C165.344 109.805 165.79 109.592 166.007 109.29C166.21 109.008 166.526 108.776 166.71 108.776C166.894 108.776 167.56 108.258 168.19 107.626C168.82 106.993 169.335 106.324 169.335 106.139C169.335 105.955 169.565 105.637 169.847 105.433C170.148 105.215 170.359 104.767 170.359 104.347C170.359 103.954 170.474 103.633 170.615 103.633C170.77 103.633 170.871 102.518 170.871 100.804C170.871 99.089 170.77 97.9747 170.615 97.9747C170.474 97.9747 170.359 97.653 170.359 97.26C170.359 96.8403 170.148 96.3923 169.847 96.1745C169.565 95.9705 169.335 95.6526 169.335 95.468C169.335 95.2833 168.82 94.6144 168.19 93.9818C167.56 93.3488 166.894 92.8311 166.71 92.8311C166.526 92.8311 166.21 92.5997 166.007 92.3168C165.79 92.0149 165.344 91.8024 164.926 91.8024C164.535 91.8024 164.215 91.6867 164.215 91.5453C164.215 91.3871 162.935 91.2881 160.887 91.2881C158.839 91.2881 157.559 91.3871 157.559 91.5453ZM175.991 97.7175C175.991 101.832 176.083 104.147 176.247 104.147C176.388 104.147 176.503 104.61 176.503 105.176C176.503 105.741 176.618 106.204 176.759 106.204C176.9 106.204 177.015 106.381 177.015 106.597C177.015 107.107 179.188 109.29 179.696 109.29C179.911 109.29 180.087 109.406 180.087 109.548C180.087 109.689 180.317 109.805 180.599 109.805C180.88 109.805 181.111 109.921 181.111 110.062C181.111 110.203 181.687 110.319 182.391 110.319C183.095 110.319 183.671 110.435 183.671 110.576C183.671 110.718 184.132 110.834 184.695 110.834C185.258 110.834 185.719 110.718 185.719 110.576C185.719 110.435 186.295 110.319 186.999 110.319C187.703 110.319 188.279 110.203 188.279 110.062C188.279 109.921 188.569 109.805 188.924 109.805C189.648 109.805 192.375 107.269 192.375 106.596C192.375 106.381 192.49 106.204 192.631 106.204C192.771 106.204 192.887 105.857 192.887 105.433C192.887 105.008 193.002 104.661 193.143 104.661C193.307 104.661 193.399 102.261 193.399 97.9747V91.2881H190.839H188.279V97.4603C188.279 101.404 188.186 103.633 188.023 103.633C187.882 103.633 187.767 103.811 187.767 104.03C187.767 104.249 187.484 104.711 187.138 105.059C186.599 105.6 186.272 105.69 184.834 105.69C183.888 105.69 183.159 105.578 183.159 105.433C183.159 105.291 182.928 105.176 182.647 105.176C182.306 105.176 182.135 105.004 182.135 104.661C182.135 104.378 182.02 104.147 181.879 104.147C181.738 104.147 181.623 103.8 181.623 103.375C181.623 102.951 181.508 102.604 181.367 102.604C181.204 102.604 181.111 100.546 181.111 96.946V91.2881H178.551H175.991V97.7175ZM199.031 100.804V110.319H201.591H204.15V107.858C204.15 106.067 204.25 105.296 204.516 105.029C204.787 104.757 205.584 104.661 207.588 104.661C209.222 104.661 210.294 104.559 210.294 104.404C210.294 104.263 210.525 104.147 210.806 104.147C211.088 104.147 211.318 104.031 211.318 103.89C211.318 103.748 211.494 103.633 211.709 103.633C212.369 103.633 214.39 101.408 214.39 100.682C214.39 100.325 214.506 100.032 214.646 100.032C214.796 100.032 214.902 99.1749 214.902 97.9747C214.902 96.7744 214.796 95.9173 214.646 95.9173C214.506 95.9173 214.39 95.6858 214.39 95.4029C214.39 95.12 214.275 94.8886 214.134 94.8886C213.994 94.8886 213.878 94.7098 213.878 94.4912C213.878 93.9766 212.738 92.8311 212.226 92.8311C212.008 92.8311 211.83 92.7154 211.83 92.574C211.83 92.4325 211.6 92.3168 211.318 92.3168C211.037 92.3168 210.806 92.2011 210.806 92.0596C210.806 91.9182 210.346 91.8024 209.782 91.8024C209.219 91.8024 208.758 91.6867 208.758 91.5453C208.758 91.3827 206.966 91.2881 203.894 91.2881H199.031V100.804ZM139.639 96.1745C139.639 96.3159 139.87 96.4316 140.151 96.4316C140.493 96.4316 140.663 96.6032 140.663 96.946C140.663 97.2289 140.779 97.4603 140.919 97.4603C141.06 97.4603 141.175 97.7548 141.175 98.1148C141.175 98.8367 140.145 100.032 139.523 100.032C139.305 100.032 139.127 100.148 139.127 100.289C139.127 100.439 138.274 100.546 137.079 100.546H135.031V98.2319V95.9173H137.335C138.701 95.9173 139.639 96.0219 139.639 96.1745ZM162.679 96.1745C162.679 96.3159 162.856 96.4316 163.072 96.4316C163.717 96.4316 165.239 98.1419 165.239 98.8663C165.239 99.2246 165.354 99.5178 165.495 99.5178C165.636 99.5178 165.751 100.096 165.751 100.804C165.751 101.511 165.636 102.09 165.495 102.09C165.354 102.09 165.239 102.382 165.239 102.739C165.239 103.166 164.846 103.784 164.094 104.539L162.949 105.69H161.022C159.908 105.69 159.095 105.581 159.095 105.433C159.095 105.291 158.918 105.176 158.703 105.176C158.058 105.176 156.535 103.465 156.535 102.741C156.535 102.383 156.42 102.09 156.279 102.09C156.138 102.09 156.023 101.511 156.023 100.804C156.023 100.096 156.138 99.5178 156.279 99.5178C156.42 99.5178 156.535 99.2246 156.535 98.8663C156.535 98.1419 158.058 96.4316 158.703 96.4316C158.918 96.4316 159.095 96.3159 159.095 96.1745C159.095 96.0276 159.863 95.9173 160.887 95.9173C161.911 95.9173 162.679 96.0276 162.679 96.1745ZM209.154 96.5486C209.616 97.0131 209.782 97.4578 209.782 98.2319C209.782 99.006 209.616 99.4506 209.154 99.9151C208.585 100.487 208.319 100.546 206.338 100.546H204.15V98.2319V95.9173H206.338C208.319 95.9173 208.585 95.9767 209.154 96.5486Z" fill="#DADADA"/>
</svg>
