<svg width="268" height="150" viewBox="0 0 268 150" fill="none" xmlns="http://www.w3.org/2000/svg">
<path fill-rule="evenodd" clip-rule="evenodd" d="M55.5182 55.3169C55.3894 55.3955 54.9095 55.6695 54.4516 55.9256C52.7341 56.8864 46.8955 60.1606 45.9186 60.7109C45.661 60.856 44.707 61.3916 43.7985 61.9011C42.89 62.4106 42.1475 62.8391 42.1486 62.8533C42.1497 62.8675 43.3495 63.569 44.815 64.4122C46.2805 65.2554 48.7321 66.6684 50.2631 67.5522C51.7941 68.436 53.4916 69.4147 54.0353 69.7272C54.5791 70.0397 55.2171 70.408 55.4532 70.5457L55.8824 70.796V62.9813C55.8824 56.762 55.8692 55.1673 55.8174 55.1702C55.7817 55.1722 55.647 55.2382 55.5182 55.3169ZM55.9345 62.9865V70.8063L56.1036 70.7036C56.2949 70.5874 60.4052 68.1997 65.9359 64.9919C67.9883 63.8015 69.6674 62.8159 69.6672 62.8017C69.6671 62.7875 69.182 62.51 68.5891 62.1849C67.9963 61.8599 67.1133 61.3707 66.6268 61.0978C66.1403 60.8249 64.9345 60.1526 63.9472 59.6038C61.8577 58.4422 58.4275 56.5326 56.9844 55.7274C56.4316 55.419 55.9692 55.1666 55.9568 55.1666C55.9446 55.1666 55.9345 58.6856 55.9345 62.9865ZM232.631 61.3946C228.353 61.5212 224.901 63.6758 222.522 67.7048C221.252 69.8552 220.51 72.8975 220.707 75.1431C220.804 76.2466 220.958 76.8396 221.368 77.6893C222.049 79.1005 223.342 80.1751 224.982 80.6926C226.022 81.0204 226.886 81.1358 228.286 81.1339C230.283 81.1312 231.793 80.8057 233.388 80.0342C234.609 79.443 235.473 78.8127 236.508 77.7557C238.848 75.3662 240.189 72.3966 240.491 68.9374C240.764 65.8018 239.605 63.4295 237.216 62.2311C236.035 61.639 234.407 61.342 232.631 61.3946ZM116.706 61.494C114.07 61.6699 111.938 62.4432 110.346 63.8013C109.304 64.6904 108.411 66.0498 107.893 67.5349L107.709 68.0637H109.819H111.929L111.96 67.9476C112.026 67.6934 112.448 66.9372 112.685 66.6463C113.763 65.3238 116.003 64.7146 117.989 65.2036C118.93 65.4353 119.445 65.9287 119.504 66.6551C119.597 67.8063 118.852 68.8301 117.651 69.1998C117.072 69.3782 116.661 69.4194 115.147 69.4513L113.665 69.4824L113.265 70.7463C113.045 71.4414 112.808 72.1875 112.738 72.4041L112.611 72.7981L114.359 72.8218C115.794 72.8413 116.178 72.862 116.498 72.9373C117.004 73.0563 117.318 73.216 117.554 73.4753C117.845 73.7949 117.916 74.0036 117.914 74.538C117.91 75.9105 117.02 76.9108 115.372 77.3959C114.566 77.6334 113.371 77.7172 112.362 77.6072C110.667 77.4226 109.795 76.8165 109.583 75.6764C109.503 75.2484 109.512 74.7708 109.604 74.5122C109.647 74.3916 109.682 74.2842 109.682 74.2736C109.682 74.263 108.768 74.2543 107.652 74.2543H105.621L105.578 74.3704C105.554 74.4342 105.508 74.6432 105.475 74.8347C105.442 75.0262 105.386 75.3396 105.351 75.5311C105.263 75.9987 105.268 77.184 105.359 77.6333C105.491 78.2903 105.798 78.9279 106.2 79.3792C107.014 80.2954 108.427 80.8672 110.515 81.1254C111.254 81.2167 114.165 81.2163 114.833 81.1248C116.518 80.8941 117.606 80.5928 118.697 80.0549C121.178 78.8319 122.552 76.8201 122.552 74.409C122.552 73.7936 122.536 73.6642 122.413 73.2959C122.24 72.7743 121.966 72.3508 121.562 71.9812C121.199 71.6494 120.572 71.3084 120.087 71.1795C119.902 71.1303 119.732 71.0743 119.709 71.0553C119.686 71.0363 119.827 70.9788 120.021 70.9276C121.709 70.4828 123.088 69.3805 123.759 67.9392C124.223 66.9453 124.378 65.5215 124.124 64.5911C123.71 63.0712 122.257 62.0159 120.062 61.6409C119.169 61.4883 117.734 61.4255 116.706 61.494ZM96.8826 63.4198C96.3246 64.2419 95.1693 65.9423 94.3152 67.1985C93.4612 68.4546 92.2619 70.2195 91.65 71.1203L90.5376 72.7582H96.8605H103.184L103.154 72.4616C103.138 72.2984 103.067 71.3292 102.995 70.3078C102.924 69.2863 102.831 67.9747 102.788 67.393C102.649 65.503 102.398 62.007 102.398 61.9569C102.398 61.9392 101.385 61.9247 100.148 61.9248L97.8972 61.925L96.8826 63.4198ZM174.22 63.5884C173.598 64.5035 172.805 65.67 172.457 66.1807C171.184 68.0503 168.178 72.4785 168.088 72.6164L167.997 72.7582H174.305H180.613L180.576 72.1521C180.556 71.8187 180.509 71.1396 180.471 70.6431C180.432 70.1466 180.276 67.9818 180.123 65.8326L179.846 61.9247H177.598L175.35 61.9247L174.22 63.5884ZM188.829 62.0924C188.803 62.1845 188.698 62.527 188.597 62.8533C188.241 64.0037 186.935 68.2482 186.844 68.5538C186.793 68.724 186.535 69.5598 186.271 70.411C186.007 71.2622 185.75 72.0979 185.699 72.2681C185.601 72.5923 185.497 72.9333 184.423 76.421C184.061 77.5985 183.626 79.0117 183.457 79.5614C183.288 80.1111 183.15 80.5706 183.15 80.5825C183.15 80.5944 185.59 80.5956 188.574 80.5851C193.365 80.5684 194.062 80.5559 194.544 80.4786C196.198 80.2137 197.507 79.7419 198.547 79.0358C199.038 78.7028 199.869 77.8927 200.157 77.4666C200.836 76.4619 201.167 75.379 201.17 74.1511C201.172 73.1397 200.944 72.4871 200.373 71.8691C199.931 71.3908 199.186 70.9508 198.605 70.8242C198.518 70.8052 198.447 70.773 198.447 70.7525C198.447 70.7321 198.673 70.6522 198.95 70.5751C199.529 70.4138 200.311 70.0608 200.701 69.7848C201.588 69.1578 202.382 68.1254 202.735 67.1435C203.015 66.3615 203.106 65.2274 202.949 64.4893C202.713 63.388 201.848 62.5356 200.606 62.1804C199.748 61.9351 199.531 61.9266 194.039 61.9256L188.878 61.9247L188.829 62.0924ZM206.859 61.9634C206.829 62.015 205.828 65.2197 205.796 65.3682L205.771 65.4843H208.587C210.758 65.4843 211.402 65.4986 211.402 65.5469C211.402 65.5966 208.906 73.8105 208.02 76.6789C207.91 77.0336 207.711 77.6836 207.578 78.1234C207.382 78.7668 207.113 79.6441 206.845 80.5094C206.818 80.5943 206.945 80.5996 209.001 80.5996H211.186L211.24 80.432C211.27 80.3397 211.414 79.8697 211.559 79.3873C211.705 78.905 211.903 78.255 211.999 77.9428C212.213 77.2478 212.37 76.7326 213.691 72.3971C214.763 68.882 215.127 67.6913 215.435 66.6966C215.532 66.3845 215.652 65.9841 215.701 65.8067L215.79 65.4843L218.682 65.4836L221.574 65.4829L222.005 64.1036C222.242 63.345 222.492 62.5444 222.561 62.3245L222.685 61.9247H214.783C210.437 61.9247 206.871 61.9421 206.859 61.9634ZM129.957 62.015C129.933 62.0556 129.61 63.0724 129.453 63.6013C129.402 63.7715 129.028 64.9903 128.621 66.3097C128.215 67.6291 127.84 68.8478 127.789 69.0181C127.738 69.1883 127.398 70.291 127.035 71.4685C126.671 72.646 126.296 73.8648 126.201 74.1769C126.107 74.489 125.732 75.7078 125.369 76.8853C125.006 78.0628 124.674 79.1423 124.632 79.2841C124.59 79.426 124.49 79.751 124.409 80.0064C124.329 80.2617 124.247 80.5229 124.227 80.5867L124.192 80.7028H126.479H128.766L131.881 77.2878C133.594 75.4095 136.022 72.7456 137.277 71.368C138.532 69.9904 139.647 68.7735 139.755 68.6638L139.952 68.4643L139.079 71.3464C137.134 77.7716 136.27 80.641 136.27 80.6711C136.27 80.6885 137.248 80.7028 138.444 80.7028H140.619L141.209 78.7812C142.743 73.7851 143.387 71.691 143.997 69.7145C144.36 68.537 144.735 67.3182 144.829 67.0061C144.923 66.694 145.298 65.4753 145.662 64.2977C146.026 63.1202 146.335 62.1162 146.35 62.0666C146.374 61.9815 146.24 61.9763 144.033 61.9763H141.691L140.242 63.5595C139.445 64.4303 138.548 65.4127 138.247 65.7426C137.947 66.0725 137.49 66.573 137.232 66.8548C136.974 67.1367 135.397 68.8603 133.727 70.6851C132.058 72.5099 130.681 73.9924 130.668 73.9794C130.655 73.9664 131.128 72.3805 131.719 70.4552C132.31 68.5298 132.875 66.6876 132.975 66.3613C133.074 66.035 133.234 65.5127 133.329 65.2005C133.424 64.8884 133.68 64.0565 133.897 63.3517C134.115 62.647 134.293 62.0492 134.293 62.0233C134.293 61.9666 129.991 61.9583 129.957 62.015ZM154.902 62.0335C152.992 62.2018 151.27 62.8289 149.859 63.8697C148.472 64.8938 147.618 66.3207 147.319 68.1147C147.196 68.8539 147.208 70.1777 147.344 70.7809C147.701 72.3705 148.637 73.3792 150.071 73.72C150.292 73.7727 150.468 73.8317 150.461 73.8512C150.454 73.8707 150.307 74.0332 150.135 74.2123C149.528 74.8435 146.851 77.6361 146.29 78.2244C145.568 78.9811 144.786 79.7914 144.286 80.303L143.895 80.7028L146.495 80.6996L149.095 80.6964L150.318 79.271C150.991 78.4871 152.238 77.0376 153.091 76.05L154.641 74.2543H155.964C157 74.2543 157.282 74.2683 157.263 74.3188C157.25 74.3543 156.817 75.7645 156.301 77.4528C155.785 79.141 155.35 80.5631 155.334 80.6131C155.307 80.699 155.427 80.7032 157.533 80.6905L159.76 80.677L159.899 80.2127C159.976 79.9574 160.453 78.402 160.959 76.7563C161.466 75.1107 161.922 73.6249 161.973 73.4547C162.025 73.2844 162.184 72.7621 162.328 72.2939C162.472 71.8258 163.003 70.0963 163.508 68.4506C164.014 66.8049 164.506 65.2031 164.602 64.891C165.276 62.7049 165.459 62.0975 165.459 62.0408C165.459 61.9896 164.422 61.9777 160.425 61.9834C157.656 61.9873 155.171 62.0099 154.902 62.0335ZM64.5716 69.8362L55.9605 74.8491L55.934 79.1559L55.9076 83.4628L55.8947 79.1552L55.8818 74.8475L54.5684 74.0924C52.8408 73.0992 51.0142 72.0457 44.2072 68.1164L38.5415 64.8459L38.3798 64.9391C38.2908 64.9904 37.7497 65.2941 37.1774 65.614C36.6051 65.9338 35.809 66.3796 35.4083 66.6047C35.0077 66.8297 34.3053 67.224 33.8474 67.481C33.3896 67.7379 31.8677 68.5919 30.4654 69.3786C29.0632 70.1655 27.8156 70.8674 27.6929 70.9385L27.47 71.0678L27.823 71.2735C28.0172 71.3867 28.7497 71.8099 29.4508 72.2141C30.1519 72.6183 36.3683 76.2075 43.265 80.1902C50.6777 84.4709 55.8576 87.4319 55.9345 87.4327C56.0148 87.4335 59.1529 85.6381 64.1293 82.7443C68.5649 80.165 74.9101 76.4772 78.2296 74.5492C81.5492 72.6213 84.2836 71.0271 84.3061 71.0067C84.3286 70.9863 84.0125 70.783 83.6037 70.555C83.1949 70.327 81.8067 69.5543 80.519 68.838C79.2312 68.1216 77.8966 67.3778 77.5532 67.1851C75.0942 65.805 73.2889 64.8144 73.2401 64.8185C73.2085 64.8211 69.3077 67.0791 64.5716 69.8362ZM233.422 65.1146C234.18 65.3385 234.822 65.8173 235.168 66.4172C235.257 66.5712 235.393 66.906 235.471 67.1612C235.597 67.5749 235.615 67.7287 235.635 68.5796C235.662 69.6579 235.588 70.3498 235.337 71.3911C234.892 73.237 233.973 74.899 232.754 76.0637C232.068 76.7192 231.265 77.1799 230.408 77.4102C229.832 77.5652 228.579 77.6014 228.014 77.4794C227.391 77.3445 226.9 77.0881 226.497 76.6865C226.076 76.2666 225.85 75.8551 225.678 75.196C225.365 73.9953 225.588 71.7141 226.181 70.0498C226.777 68.3767 227.836 66.8532 229.015 65.9746C229.612 65.5291 230.553 65.1378 231.304 65.0223C231.819 64.943 233.017 64.9953 233.422 65.1146ZM197.042 65.6038C197.44 65.7571 197.744 66.0151 197.901 66.3325C198.031 66.5951 198.041 66.6595 198.02 67.0711C197.978 67.8872 197.591 68.433 196.767 68.838C196.09 69.1705 195.852 69.1948 193.251 69.1968C191.247 69.1984 190.999 69.1898 191.026 69.1197C191.042 69.0763 191.21 68.4437 191.399 67.7139C191.748 66.3577 191.931 65.6656 191.971 65.5459C191.989 65.4915 192.455 65.482 194.401 65.4962C196.54 65.5118 196.834 65.5238 197.042 65.6038ZM159.907 65.5746C159.918 65.5958 159.77 66.1356 159.576 66.774C159.383 67.4124 159.04 68.5499 158.814 69.3018L158.403 70.6689L156.194 70.6672C154.29 70.6658 153.938 70.6534 153.635 70.5775C152.929 70.4011 152.451 70.0645 152.209 69.5727C152.083 69.319 152.067 69.2273 152.069 68.7906C152.073 67.9105 152.341 67.2812 152.973 66.6618C153.613 66.0339 154.457 65.6779 155.509 65.5918C156.162 65.5383 159.879 65.5237 159.907 65.5746ZM194.982 72.8331C195.904 73.0081 196.268 73.3271 196.421 74.0942C196.497 74.4806 196.423 75.1122 196.256 75.4878C195.995 76.0782 195.288 76.6611 194.441 76.9852C193.842 77.214 193.397 77.2464 190.858 77.2464H188.549L188.574 77.1303C188.595 77.0287 189.203 75.047 189.736 73.3386L189.917 72.7582H192.252C194.077 72.7582 194.673 72.7746 194.982 72.8331ZM87.4588 77.2564C86.1888 79.1062 85.1419 80.6383 85.1324 80.6612C85.1228 80.6841 86.1647 80.7026 87.4478 80.7023L89.7805 80.7018L89.8845 80.529C89.9417 80.4339 90.4567 79.6332 91.0289 78.7497L92.0693 77.1432H95.5645H99.0597L99.0903 77.4657C99.1071 77.643 99.1382 78.4381 99.1594 79.2326L99.198 80.677L101.48 80.6905L103.761 80.7039L103.729 80.4068C103.712 80.2433 103.651 79.4247 103.594 78.5877C103.468 76.7408 103.398 75.7334 103.332 74.8501C103.305 74.4827 103.282 74.1171 103.282 74.0376V73.8932H96.5252H89.768L87.4588 77.2564ZM166.883 74.3716C166.536 74.8886 163.826 78.8447 163.032 79.994L162.541 80.7038L164.889 80.6904L167.236 80.677L168.369 78.923L169.502 77.169L173.015 77.1558L176.528 77.1425L176.561 78.0844C176.58 78.6024 176.609 79.4035 176.626 79.8645L176.658 80.7028H178.915H181.172V80.5404C181.172 80.4511 181.114 79.5515 181.043 78.5414C180.972 77.5312 180.878 76.1708 180.834 75.5182C180.79 74.8656 180.741 74.233 180.726 74.1124L180.698 73.8932L173.95 73.8944L167.202 73.8956L166.883 74.3716ZM99.3708 87.4865C97.458 87.8057 95.88 89.1785 95.3528 90.9822C94.795 92.8908 95.3617 94.32 96.8826 94.8403C97.5468 95.0676 99.0626 95.0304 99.8288 94.768L100.031 94.699L100.057 94.085C100.071 93.7472 100.079 93.4637 100.075 93.455C100.071 93.4462 99.9306 93.4798 99.7629 93.5297C99.3239 93.6605 98.1444 93.6627 97.8261 93.5334C97.4553 93.3828 97.2598 93.2 97.0781 92.8342C96.9237 92.5232 96.9089 92.4516 96.9116 92.0275C96.9212 90.5051 97.9049 89.1831 99.2761 88.85C99.6502 88.7592 100.526 88.7681 100.889 88.8666C101.046 88.9093 101.207 88.953 101.246 88.9635C101.293 88.9763 101.411 88.7759 101.597 88.3675C101.751 88.0291 101.878 87.7435 101.878 87.7329C101.878 87.6848 101.463 87.5495 101.111 87.4827C100.644 87.3942 99.9146 87.3958 99.3708 87.4865ZM183.28 87.4849C181.281 87.849 179.743 89.6552 179.45 91.9835C179.333 92.9107 179.573 93.7137 180.134 94.2774C180.649 94.7947 181.205 94.9932 182.133 94.992C183.049 94.9908 183.705 94.7951 184.476 94.2935C185.339 93.7325 185.974 92.8903 186.367 91.7857C186.827 90.4894 186.807 89.2518 186.313 88.4789C185.769 87.6286 184.598 87.2449 183.28 87.4849ZM201.912 87.5132C200.496 87.8089 199.299 88.8285 198.651 90.2894C197.788 92.2368 198.094 93.9801 199.425 94.6987C200.15 95.09 201.43 95.1014 202.401 94.7254C203.189 94.4203 203.982 93.7873 204.477 93.0674C205.135 92.1115 205.561 90.5415 205.425 89.5737C205.327 88.8721 205.117 88.4455 204.679 88.0522C204.031 87.472 203.037 87.2783 201.912 87.5132ZM222.411 87.4664C220.574 87.7321 219.001 88.9619 218.374 90.6231C218.085 91.3873 217.977 92.5293 218.136 93.1224C218.319 93.8051 218.771 94.3609 219.381 94.6565C219.942 94.9276 220.272 94.9929 221.078 94.9919C221.777 94.991 222.245 94.9254 222.757 94.7567L223.005 94.6749V94.0601C223.005 93.7218 222.991 93.4451 222.974 93.4451C222.957 93.4451 222.811 93.4851 222.649 93.534C222.434 93.5987 222.165 93.6232 221.652 93.6242C221.021 93.6255 220.922 93.6131 220.675 93.5024C220.105 93.2472 219.808 92.7166 219.82 91.9749C219.843 90.5276 220.769 89.265 222.095 88.874C222.534 88.7443 223.488 88.7552 223.904 88.8948C224.179 88.9871 224.209 88.9885 224.25 88.9119C224.329 88.7641 224.774 87.7708 224.774 87.7417C224.774 87.6857 224.385 87.5545 224.007 87.4827C223.587 87.4029 222.899 87.3959 222.411 87.4664ZM211.61 87.5175C211.281 87.5427 210.897 87.5925 210.756 87.6282L210.5 87.693L210.382 88.0541C210.317 88.2528 210.026 89.1813 209.736 90.1177C209.445 91.054 209.011 92.4469 208.772 93.213C208.533 93.9791 208.322 94.6703 208.303 94.7491L208.268 94.8924L209.039 94.8781L209.809 94.8638L210.028 94.1674C210.148 93.7843 210.331 93.2001 210.434 92.8691L210.622 92.2673L211.207 92.2673C212.486 92.2671 213.379 91.9676 214.078 91.3042C214.644 90.7669 214.93 90.1668 214.978 89.4161C214.999 89.0788 214.985 88.9096 214.918 88.7108C214.815 88.402 214.498 88.0263 214.189 87.847C213.689 87.5566 212.72 87.4327 211.61 87.5175ZM86.8927 87.5599C86.8927 87.5874 86.9854 88.0813 87.0985 88.6574C87.7343 91.8944 87.8293 92.4053 87.8293 92.5878C87.8293 92.8462 87.6744 93.0915 87.3509 93.345C87.0161 93.6074 86.7537 93.677 86.3474 93.611C86.1752 93.5831 86.0319 93.5633 86.029 93.5671C85.9833 93.6281 85.6012 94.811 85.6183 94.8385C85.6683 94.9187 86.124 94.9928 86.5681 94.9928C87.0895 94.9928 87.4422 94.907 87.9073 94.6672C88.3725 94.4274 89.3075 93.4761 89.8693 92.6713C90.4282 91.8705 93.1364 87.6366 93.1364 87.5635C93.1364 87.5282 92.8357 87.5148 92.2475 87.5241L91.3587 87.5383L90.2961 89.4728C89.7117 90.5368 89.2204 91.448 89.2043 91.4977C89.1404 91.6951 89.0906 91.5655 89.0559 91.1108C89.0358 90.8483 88.9324 89.9371 88.8259 89.0859L88.6323 87.5383L87.7625 87.5241C87.2266 87.5154 86.8927 87.5291 86.8927 87.5599ZM105.514 87.6543C105.483 87.7324 105.381 88.04 105.287 88.3379L105.115 88.8796L106.072 88.8936C106.696 88.9028 107.029 88.9265 107.029 88.9617C107.029 89.0076 105.293 94.6385 105.221 94.8251C105.202 94.875 105.378 94.8895 105.995 94.8893L106.794 94.889L107.141 93.7672C107.522 92.5329 108.248 90.1954 108.494 89.4094L108.651 88.9076L109.645 88.8935L110.638 88.8796L110.836 88.2605C110.945 87.92 111.034 87.6124 111.035 87.577C111.035 87.5262 110.454 87.5125 108.302 87.5125H105.569L105.514 87.6543ZM114.921 87.5512C114.894 87.5971 114.667 88.3148 113.922 90.7109C113.618 91.6898 113.204 93.0202 113.002 93.6673C112.801 94.3143 112.646 94.8533 112.658 94.865C112.707 94.9135 114.369 94.9954 114.729 94.967C116.138 94.8561 117.083 94.5264 117.759 93.9096C118.304 93.4121 118.604 92.803 118.667 92.0649C118.742 91.1808 118.33 90.5161 117.501 90.1875C117.236 90.0822 117.112 90.0681 116.443 90.0671L115.686 90.0661L116.019 89.0085C116.203 88.4269 116.383 87.8648 116.419 87.7594C116.455 87.6541 116.472 87.5554 116.457 87.5402C116.413 87.4971 114.946 87.5076 114.921 87.5512ZM129.586 91.1365C128.96 93.1298 128.437 94.7903 128.424 94.8265C128.406 94.8784 128.568 94.8893 129.193 94.8781L129.986 94.8638L130.334 93.7546C130.525 93.1446 130.739 92.4519 130.809 92.2154L130.937 91.7852L131.261 91.8051C131.979 91.8489 132.103 92.119 132.264 93.9868C132.351 94.9983 132.24 94.8896 133.186 94.8896H133.993L133.963 94.7477C133.946 94.6697 133.907 94.3389 133.876 94.0126C133.668 91.8628 133.519 91.3472 132.997 90.9641L132.842 90.8506L133.606 90.1205C134.027 89.7189 134.798 88.9867 135.32 88.4932C135.843 87.9998 136.27 87.5773 136.27 87.5543C136.27 87.5313 135.851 87.5125 135.339 87.5125H134.407L133.734 88.2218C133.363 88.612 132.704 89.3142 132.268 89.7824C131.525 90.5803 131.327 90.7538 131.327 90.6057C131.327 90.5721 131.538 89.8766 131.795 89.0601C132.053 88.2437 132.264 87.5615 132.264 87.5441C132.264 87.5267 131.917 87.5125 131.494 87.5125H130.724L129.586 91.1365ZM141.524 88.2992C139.396 91.766 137.519 94.8442 137.519 94.8673C137.519 94.8795 137.891 94.8896 138.346 94.8896H139.174L139.729 93.9352L140.285 92.9808H141.354H142.423L142.386 93.9352L142.348 94.8896H143.185H144.022V91.201V87.5125H143.015H142.007L141.524 88.2992ZM150.344 87.5759C150.331 87.6119 150.182 88.0129 150.011 88.4669C149.288 90.3966 148.816 91.656 148.263 93.1356C147.939 94.001 147.658 94.7497 147.638 94.7993C147.604 94.8827 147.657 94.8896 148.329 94.8896H149.057L149.114 94.7477C149.145 94.6697 149.371 94.0487 149.617 93.3677C149.863 92.6868 150.116 91.9903 150.181 91.8201C150.245 91.6498 150.483 90.9484 150.709 90.2613C150.935 89.5742 151.126 89.0179 151.133 89.0252C151.14 89.0324 151.113 89.5249 151.072 90.1197C151.013 90.9839 150.893 93.9851 150.891 94.6445L150.891 94.7864L151.502 94.7855L152.113 94.7847L153.219 93.0126C154.22 91.4075 154.934 90.2133 155.419 89.3331C155.516 89.1569 155.603 89.0208 155.613 89.0305C155.623 89.0402 155.534 89.3584 155.417 89.7377C155.234 90.325 154.98 91.2372 154.142 94.3085C154.071 94.5706 154.012 94.8085 154.012 94.8373C154.012 94.8702 154.291 94.8896 154.765 94.8896H155.518L155.595 94.6188C155.637 94.4698 155.874 93.5586 156.12 92.5939C156.367 91.6292 156.754 90.1178 156.981 89.2353C157.208 88.3528 157.394 87.6041 157.394 87.5716C157.394 87.5291 157.098 87.5126 156.341 87.5131L155.287 87.5138L155.179 87.6808C154.687 88.4437 152.953 91.3516 152.635 91.9491L152.235 92.6971L152.266 92.316C152.309 91.794 152.443 88.8606 152.458 88.1315L152.471 87.5383L151.419 87.5243C150.606 87.5135 150.362 87.5252 150.344 87.5759ZM162.106 87.5587C162.091 87.5842 161.901 88.1704 161.684 88.8613C161.468 89.5523 161.2 90.4079 161.088 90.7625C160.977 91.1172 160.684 92.0574 160.438 92.8519C160.191 93.6463 159.946 94.4298 159.892 94.593L159.795 94.8896H162.072H164.349L164.54 94.2779C164.645 93.9415 164.731 93.6397 164.731 93.6073C164.731 93.5644 164.332 93.5483 163.274 93.5483C162.473 93.5483 161.817 93.5328 161.817 93.5139C161.817 93.495 161.924 93.141 162.054 92.7272C162.185 92.3134 162.304 91.9342 162.318 91.8846C162.342 91.8016 162.452 91.7943 163.666 91.7943H164.987L165.172 91.2139C165.274 90.8948 165.37 90.5929 165.386 90.5433C165.412 90.4589 165.328 90.453 164.11 90.453C163.187 90.453 162.806 90.4362 162.806 90.3956C162.806 90.364 162.912 90.0042 163.042 89.596L163.279 88.8538H164.675H166.072L166.278 88.2218C166.391 87.8743 166.474 87.5725 166.462 87.5512C166.432 87.4954 162.141 87.5029 162.106 87.5587ZM170.695 87.7575C170.651 87.8923 170.51 88.3392 170.382 88.7506C170.255 89.162 170.045 89.8352 169.916 90.2466C168.631 94.3549 168.477 94.8512 168.477 94.8731C168.477 94.8837 168.832 94.8859 169.267 94.878L170.057 94.8638L170.536 93.3419L171.015 91.8201L172.347 91.8063C173.108 91.7985 173.68 91.8124 173.68 91.8388C173.68 91.8772 172.844 94.6222 172.77 94.8251C172.752 94.8749 172.928 94.8896 173.542 94.8896H174.338L174.655 93.8707C174.829 93.3104 175.128 92.3527 175.319 91.7427C175.51 91.1327 175.769 90.3027 175.896 89.8984C176.022 89.4941 176.231 88.8274 176.36 88.4168C176.488 88.0062 176.594 87.6342 176.594 87.59C176.594 87.5203 176.492 87.5116 175.826 87.524L175.059 87.5383L174.868 88.1315C174.762 88.4578 174.557 89.1021 174.41 89.5631L174.144 90.4014H172.796H171.449L171.522 90.1822C171.69 89.6771 172.327 87.6001 172.327 87.5581C172.327 87.533 171.978 87.5125 171.551 87.5125H170.775L170.695 87.7575ZM191.816 87.5587C191.8 87.5842 191.61 88.1704 191.394 88.8613C191.177 89.5523 190.909 90.4079 190.798 90.7625C190.687 91.1172 190.393 92.0574 190.145 92.8519C189.898 93.6463 189.654 94.424 189.604 94.5801L189.513 94.8638L190.293 94.8781C190.722 94.8859 191.079 94.8859 191.087 94.8781C191.101 94.864 191.271 94.3289 191.924 92.2328C192.11 91.637 192.369 90.8128 192.499 90.4014C192.628 89.99 192.785 89.4851 192.846 89.2794L192.957 88.9054H194.245C194.953 88.9054 195.533 88.8957 195.533 88.8838C195.533 88.8719 195.616 88.5991 195.717 88.2776C195.818 87.9561 195.913 87.6524 195.928 87.6027C195.955 87.5178 195.834 87.5125 193.9 87.5125C192.744 87.5125 191.832 87.5327 191.816 87.5587ZM228.964 87.8349C228.911 88.0123 228.815 88.3198 228.751 88.5184C228.687 88.7171 228.54 89.1813 228.424 89.5502C227.424 92.7409 226.786 94.7714 226.764 94.8265C226.744 94.8785 226.907 94.8893 227.537 94.8781L228.335 94.8638L228.501 94.3221C228.592 94.0242 228.805 93.3394 228.974 92.8003L229.281 91.8201L229.6 91.8205C229.985 91.8209 230.157 91.9251 230.328 92.2618C230.448 92.4983 230.5 92.8223 230.603 93.961C230.636 94.3157 230.675 94.6697 230.69 94.7477L230.719 94.8896H231.525H232.332L232.299 94.6961C232.281 94.5898 232.243 94.2705 232.214 93.9868C232.186 93.7031 232.137 93.2272 232.107 92.9292C232.004 91.9264 231.789 91.3534 231.389 91.0119L231.188 90.8399L232.898 89.2206C233.838 88.3299 234.608 87.5807 234.608 87.5557C234.608 87.5305 234.184 87.5164 233.66 87.5242L232.712 87.5383L231.266 89.0859C229.932 90.5138 229.665 90.7679 229.665 90.6081C229.665 90.5757 229.876 89.8857 230.133 89.0746C230.391 88.2635 230.602 87.5802 230.602 87.5562C230.602 87.5321 230.255 87.5125 229.831 87.5125H229.06L228.964 87.8349ZM184.387 88.8646C184.985 89.141 185.174 89.9504 184.896 91.0375C184.681 91.8783 184.253 92.618 183.673 93.1501C183.223 93.5632 182.958 93.6773 182.446 93.6773C181.909 93.6773 181.589 93.5305 181.345 93.1718C181.05 92.7376 181.044 91.906 181.33 91.0596C181.918 89.3185 183.27 88.3481 184.387 88.8646ZM203.014 88.8112C203.474 88.9501 203.711 89.3442 203.743 90.0237C203.781 90.8174 203.524 91.6716 203.015 92.4419C202.478 93.2547 201.825 93.7031 201.178 93.7031C200.648 93.7031 200.263 93.4897 200.025 93.065C199.888 92.8183 199.878 92.7616 199.879 92.2328C199.881 91.5846 199.964 91.232 200.27 90.573C200.922 89.1666 201.967 88.4956 203.014 88.8112ZM142.55 90.2853L142.493 91.7943H141.694C141.254 91.7943 140.904 91.7769 140.916 91.7556C140.928 91.7343 141.21 91.2492 141.541 90.6775C141.873 90.1058 142.244 89.4393 142.366 89.1963C142.487 88.9533 142.592 88.7594 142.597 88.7654C142.603 88.7714 142.582 89.4554 142.55 90.2853ZM212.949 88.8519C213.271 88.997 213.392 89.2148 213.364 89.6033C213.324 90.1541 212.999 90.5811 212.417 90.8492C212.144 90.9747 212.041 90.9929 211.602 90.9937C211.325 90.9943 211.084 90.98 211.066 90.9622C211.028 90.9249 211.648 88.9128 211.727 88.8151C211.815 88.7063 212.684 88.7325 212.949 88.8519ZM116.502 91.4387C116.8 91.6021 116.93 91.8314 116.935 92.2001C116.943 92.7859 116.613 93.2507 115.987 93.5383C115.74 93.6516 115.6 93.6773 115.132 93.6942C114.685 93.7104 114.573 93.7004 114.574 93.6443C114.574 93.6057 114.676 93.2491 114.801 92.8519C114.926 92.4546 115.081 91.951 115.145 91.7326C115.256 91.3589 115.273 91.3342 115.425 91.3123C115.801 91.2584 116.275 91.3142 116.502 91.4387ZM122.561 91.5493C122.494 91.7483 122.274 92.5017 122.274 92.5329C122.274 92.5532 122.911 92.5636 123.689 92.556L125.105 92.5423L125.271 92.0135L125.437 91.4848H124.01C122.914 91.4848 122.578 91.4998 122.561 91.5493Z" fill="#DADADA"/>
<path fill-rule="evenodd" clip-rule="evenodd" d="M55.9346 62.9805V70.7944L56.4939 70.4696C56.8016 70.2909 59.5234 68.7094 62.5425 66.9551C65.5616 65.2009 68.4013 63.5511 68.8531 63.289L69.6744 62.8124L69.5035 62.7101C69.2985 62.5875 68.644 62.2214 66.6009 61.0866C65.7567 60.6178 64.4104 59.8687 63.6091 59.4221C60.5606 57.7229 59.6021 57.1896 57.8857 56.2381C56.9127 55.6987 56.0944 55.2369 56.0672 55.212C56.0401 55.1871 55.9991 55.1666 55.9762 55.1666C55.9533 55.1666 55.9346 58.6829 55.9346 62.9805ZM231.408 61.4879C230.45 61.6121 229.303 61.9046 228.552 62.2161C227.64 62.5947 226.601 63.2033 225.841 63.8045C225.293 64.2378 224.347 65.1844 223.852 65.7938C221.985 68.0934 220.946 70.7017 220.714 73.6729C220.439 77.178 221.952 79.6857 224.938 80.674C226.705 81.2591 229.238 81.3015 231.33 80.7811C232.813 80.4123 234.267 79.6868 235.493 78.7051C235.954 78.3352 236.901 77.3787 237.346 76.8337C239.006 74.7979 240.04 72.3818 240.404 69.6887C240.64 67.9357 240.526 66.5443 240.045 65.3037C239.217 63.171 237.326 61.8395 234.626 61.4884C233.879 61.3913 232.156 61.391 231.408 61.4879ZM116.758 61.4923C116.142 61.5283 115.128 61.6693 114.524 61.8029C111.623 62.4439 109.559 63.9946 108.357 66.4371C108.086 66.988 107.757 67.8401 107.757 67.991C107.757 68.0541 108.061 68.0629 109.842 68.0514L111.926 68.0379L112.061 67.704C112.423 66.8118 113.07 66.0883 113.871 65.6821C114.79 65.2153 115.514 65.0476 116.602 65.0494C117.829 65.0514 118.67 65.3069 119.145 65.8216C119.429 66.13 119.517 66.3692 119.515 66.8316C119.511 67.9454 118.799 68.8392 117.617 69.2155C117.116 69.3752 116.668 69.4181 115.174 69.4501L113.667 69.4824L113.605 69.6887C113.57 69.8022 113.341 70.5297 113.095 71.3053C112.849 72.0809 112.648 72.7341 112.648 72.7568C112.648 72.7795 113.45 72.8098 114.43 72.8242C116.34 72.8522 116.601 72.883 117.113 73.1403C117.677 73.4237 117.918 73.8327 117.92 74.5122C117.923 75.2991 117.674 75.8898 117.103 76.4475C116.237 77.293 114.849 77.7042 113.064 77.6434C112.098 77.6104 111.467 77.5053 110.947 77.2904C110.028 76.9114 109.604 76.2982 109.541 75.2603C109.521 74.92 109.535 74.7235 109.595 74.5245L109.677 74.2531L107.641 74.2666L105.605 74.2801L105.563 74.4348C105.478 74.7426 105.308 75.8373 105.279 76.2661C105.194 77.5035 105.544 78.6309 106.266 79.4429C106.861 80.1119 108.107 80.702 109.474 80.9621C110.632 81.1824 112.895 81.2834 114.181 81.1724C117.146 80.9163 119.224 80.1068 120.742 78.6167C121.81 77.5684 122.365 76.4308 122.537 74.9421C122.723 73.3198 122.09 72.086 120.739 71.4412C120.481 71.3183 120.136 71.1876 119.971 71.1508C119.644 71.0776 119.595 71.0227 119.815 70.9755C120.473 70.8346 121.201 70.5311 121.779 70.1575C122.988 69.376 123.839 68.1696 124.129 66.8256C124.258 66.2286 124.259 65.1253 124.131 64.6589C123.668 62.9686 122.19 61.9411 119.717 61.5892C119.181 61.5128 117.403 61.4546 116.758 61.4923ZM188.873 61.9436C188.873 61.9563 188.613 62.8103 188.295 63.8415C187.977 64.8727 187.675 65.8557 187.624 66.026C187.573 66.1962 187.199 67.415 186.792 68.7343C186.385 70.0537 186.01 71.2725 185.959 71.4427C185.908 71.613 185.569 72.7157 185.205 73.8932C184.842 75.0707 184.467 76.2894 184.372 76.6016C184.192 77.1922 183.222 80.3496 183.171 80.5118C183.142 80.6007 183.364 80.6038 188.57 80.5858C194.427 80.5657 194.156 80.5775 195.524 80.284C196.7 80.0317 197.882 79.5168 198.737 78.8838C200.183 77.8147 200.968 76.4347 201.152 74.6431C201.331 72.9003 200.62 71.6394 199.096 70.9952C198.924 70.9226 198.708 70.8465 198.615 70.8263C198.523 70.8062 198.447 70.773 198.447 70.7525C198.447 70.7321 198.671 70.6528 198.946 70.5762C199.913 70.3068 200.674 69.8769 201.378 69.2025C202.08 68.5308 202.595 67.6675 202.859 66.7224C202.982 66.2833 202.996 66.1438 202.995 65.3811C202.994 64.5735 202.986 64.5101 202.847 64.143C202.657 63.6454 202.434 63.3051 202.084 62.9789C201.609 62.5374 201.061 62.2798 200.138 62.065C199.68 61.9582 199.553 61.9554 194.271 61.9383C191.302 61.9286 188.873 61.931 188.873 61.9436ZM206.851 61.9892C206.676 62.5053 205.783 65.3991 205.783 65.4483C205.783 65.4681 207.057 65.4843 208.613 65.4843H211.443L211.29 65.9873C210.976 67.0123 210.624 68.1635 210.388 68.9407C210.254 69.3805 210.03 70.1117 209.891 70.5657C209.752 71.0197 209.015 73.4291 208.254 75.92C207.493 78.4108 206.858 80.4827 206.842 80.5242C206.816 80.5896 207.102 80.5996 209 80.5996C211.038 80.5996 211.189 80.5935 211.214 80.5094C211.244 80.4087 212.679 75.6958 213.048 74.4864C213.178 74.0608 213.384 73.3876 213.506 72.9904C213.629 72.5931 214.194 70.7418 214.764 68.8762L215.799 65.4843L218.687 65.4838L221.574 65.4832L222.126 63.704L222.677 61.9247H214.775C208.499 61.9247 206.868 61.9379 206.851 61.9892ZM129.955 62.0169C129.941 62.0392 129.86 62.2887 129.775 62.5715C129.69 62.8542 129.405 63.7819 129.141 64.6331C128.877 65.4843 128.62 66.32 128.569 66.4903C128.518 66.6605 128.144 67.8793 127.737 69.1986C127.33 70.518 126.956 71.7368 126.904 71.907C126.853 72.0773 126.514 73.18 126.151 74.3575C125.788 75.535 125.413 76.7537 125.319 77.0658C125.04 77.9873 124.247 80.5497 124.216 80.6294C124.192 80.6922 124.518 80.7028 126.475 80.7028H128.762L131.124 78.1123C132.423 76.6876 133.838 75.1363 134.267 74.6652C134.696 74.1941 135.469 73.3467 135.984 72.7822C136.499 72.2177 137.154 71.4997 137.439 71.1866C138.883 69.6036 139.921 68.4764 139.937 68.4764C139.946 68.4764 139.92 68.5866 139.879 68.7214C139.838 68.8562 139.183 71.021 138.424 73.5321C137.665 76.0431 136.87 78.671 136.657 79.3717C136.444 80.0725 136.27 80.6587 136.27 80.6743C136.27 80.727 140.581 80.7054 140.614 80.6526C140.642 80.6064 140.769 80.2038 141.239 78.6651C141.334 78.353 141.709 77.1342 142.072 75.9567C142.436 74.7792 142.775 73.6765 142.825 73.5063C142.877 73.336 143.251 72.1172 143.658 70.7979C144.065 69.4785 144.44 68.2597 144.491 68.0895C144.542 67.9192 144.881 66.8165 145.244 65.639C146.226 62.4555 146.352 62.0327 146.322 62.0032C146.307 61.9884 145.26 61.9763 143.996 61.9763H141.698L136.76 67.3773C134.044 70.3479 131.552 73.0732 131.223 73.4335C130.894 73.7938 130.62 74.0846 130.615 74.0797C130.606 74.072 131.037 72.6501 131.664 70.6173C131.769 70.2768 131.969 69.6268 132.108 69.1728C132.247 68.7189 132.784 66.9662 133.302 65.2779C133.82 63.5897 134.257 62.1562 134.274 62.0924L134.304 61.9763H132.142C130.953 61.9763 129.969 61.9945 129.955 62.0169ZM155.261 62.0104C152.376 62.1625 149.637 63.5145 148.364 65.4148C147.588 66.5738 147.248 67.7886 147.248 69.4083C147.248 70.6978 147.439 71.4914 147.931 72.246C148.436 73.0208 149.342 73.6117 150.256 73.7629C150.379 73.7833 150.473 73.8207 150.464 73.8461C150.455 73.8716 148.997 75.4049 147.222 77.2536C145.448 79.1023 143.989 80.6347 143.979 80.6589C143.97 80.6831 145.113 80.7028 146.519 80.7028H149.076L149.216 80.5378C149.293 80.447 150.544 78.9961 151.996 77.3135L154.636 74.2543H155.962C156.999 74.2543 157.282 74.2683 157.265 74.3188C157.24 74.3948 156.42 77.0717 156.171 77.8913C155.993 78.4785 155.536 79.9667 155.395 80.4191C155.351 80.561 155.314 80.6831 155.314 80.6905C155.313 80.6979 156.312 80.6979 157.533 80.6905L159.752 80.677L160.37 78.6651C161.091 76.3164 161.395 75.3216 161.634 74.538C161.729 74.2259 162.14 72.8911 162.546 71.5717C162.953 70.2523 163.327 69.0336 163.378 68.8633C163.429 68.6931 163.553 68.2868 163.654 67.9605C164.561 65.0234 165.459 62.0746 165.459 62.0304C165.459 61.9929 163.933 61.9792 160.503 61.9858C157.778 61.9911 155.419 62.0021 155.261 62.0104ZM70.3731 66.477C68.7992 67.391 64.9125 69.6494 61.736 71.4955L55.9606 74.8522L55.9474 80.7399C55.9401 83.9782 55.9518 86.8134 55.9734 87.0404L56.0126 87.4531L56.4809 87.1808C57.5615 86.5522 76.8802 75.3266 80.4552 73.2498C83.8052 71.3038 84.3329 70.9813 84.2535 70.9284C84.2028 70.8947 83.6578 70.5876 83.0426 70.246C82.0107 69.673 76.4234 66.5619 74.3014 65.3786C73.8006 65.0993 73.3558 64.8583 73.3128 64.843C73.2676 64.8269 72.031 65.5143 70.3731 66.477ZM233.443 65.112C234.586 65.4731 235.287 66.2494 235.55 67.4446C235.645 67.8787 235.655 68.0585 235.634 69.0181C235.609 70.1699 235.52 70.8018 235.251 71.7523C234.566 74.1749 233.091 76.1978 231.401 77.0341C230.652 77.4043 230.178 77.5148 229.218 77.543C228.239 77.5718 227.844 77.5059 227.22 77.21C226.493 76.8659 225.908 76.1227 225.684 75.2603C225.261 73.6317 225.671 70.9478 226.645 68.9665C227.744 66.7306 229.278 65.4003 231.166 65.0458C231.736 64.9389 233.013 64.976 233.443 65.112ZM197.079 65.6206C197.459 65.7752 197.725 65.9996 197.895 66.3092C198.017 66.5316 198.04 66.6346 198.039 66.949C198.036 67.8001 197.622 68.4284 196.796 68.8344C196.125 69.1647 196.109 69.1663 193.434 69.1862C191.091 69.2036 190.999 69.2006 191.028 69.1097C191.062 69.0022 191.071 68.9676 191.579 67.0061C191.785 66.2117 191.965 65.5432 191.979 65.5206C191.993 65.498 193.085 65.4864 194.406 65.4948C196.723 65.5096 196.817 65.5139 197.079 65.6206ZM159.909 65.5746C159.921 65.5958 159.725 66.2981 159.472 67.1351C159.22 67.9721 158.877 69.1096 158.711 69.6629L158.408 70.6689L156.416 70.6824C154.921 70.6926 154.302 70.678 153.936 70.624C153.051 70.4934 152.45 70.1153 152.176 69.5172C152.086 69.321 152.066 69.1798 152.068 68.7601C152.073 67.8794 152.375 67.1985 153.032 66.5913C153.608 66.0584 154.449 65.6994 155.368 65.5938C155.849 65.5385 159.877 65.5215 159.909 65.5746ZM195.03 72.8323C195.462 72.9143 195.795 73.0606 196.019 73.2669C196.683 73.8786 196.568 75.4167 195.804 76.1514C195.466 76.476 194.722 76.9076 194.207 77.0778L193.79 77.2155L191.175 77.2351C189.16 77.2502 188.561 77.2404 188.561 77.1925C188.561 77.1383 188.787 76.3919 189.662 73.5578C189.776 73.189 189.878 72.8582 189.89 72.8227C189.922 72.7226 194.496 72.7311 195.03 72.8323ZM88.6837 75.4783C88.0851 76.3502 87.3173 77.4703 86.9774 77.9675C86.6377 78.4647 86.0973 79.2545 85.7766 79.7226C85.4559 80.1908 85.1765 80.6029 85.1556 80.6383C85.1255 80.6895 85.598 80.7025 87.4491 80.701L89.7806 80.6992L90.0667 80.2464C90.2241 79.9973 90.7369 79.1972 91.2061 78.4684L92.0594 77.1432H95.5579H99.0564L99.0859 77.3109C99.102 77.4031 99.1293 78.1518 99.1466 78.9746C99.1638 79.7974 99.1887 80.5229 99.202 80.5867L99.2261 80.7028H101.49H103.754L103.726 80.4578C103.711 80.323 103.651 79.5163 103.593 78.6651C103.535 77.8139 103.454 76.6415 103.414 76.0599C103.373 75.4782 103.323 74.7528 103.304 74.4477L103.268 73.8932H96.5202H89.7721L88.6837 75.4783ZM167.145 73.9892C167.119 74.0421 166.086 75.5598 164.848 77.362C163.61 79.1641 162.598 80.6531 162.598 80.6707C162.598 80.6884 163.636 80.7028 164.906 80.7028H167.214L168.039 79.426C168.492 78.7237 169.01 77.9229 169.19 77.6462L169.516 77.1432H173.023H176.53L176.561 77.9042C176.578 78.3227 176.607 79.1235 176.625 79.684L176.657 80.7028H178.915H181.173V80.5582C181.173 80.4787 181.114 79.6023 181.044 78.6108C180.973 77.6192 180.879 76.274 180.835 75.6214C180.791 74.9688 180.742 74.3129 180.726 74.164L180.697 73.8932H173.944C167.41 73.8932 167.191 73.8963 167.145 73.9892ZM99.4281 87.4857C97.7441 87.7671 96.3996 88.7396 95.6471 90.2209C95.4201 90.6678 95.2736 91.1744 95.1888 91.8064C94.9672 93.4573 95.7008 94.5831 97.2152 94.9161C97.7621 95.0363 98.9522 94.9987 99.5532 94.8422C99.7771 94.7839 99.982 94.7229 100.008 94.7067C100.035 94.6904 100.057 94.3974 100.057 94.0556C100.057 93.5364 100.044 93.4388 99.9818 93.4626C99.6614 93.5845 99.3737 93.6215 98.7298 93.6234C98.0335 93.6256 97.9882 93.6192 97.7019 93.4799C97.0665 93.1707 96.785 92.464 96.9332 91.5498C97.0611 90.7606 97.4108 90.0878 97.9649 89.565C98.5704 88.9936 99.1492 88.7768 100.057 88.7816C100.467 88.7838 100.749 88.8128 100.953 88.8742C101.117 88.9234 101.266 88.9634 101.285 88.9632C101.34 88.9624 101.875 87.7473 101.836 87.711C101.769 87.6485 101.313 87.516 100.983 87.4628C100.555 87.394 99.9214 87.4034 99.4281 87.4857ZM183.181 87.5132C181.52 87.8603 180.182 89.1894 179.645 91.026C179.237 92.4208 179.406 93.5479 180.131 94.2736C180.456 94.598 180.926 94.853 181.369 94.9442C181.815 95.0361 182.877 94.9776 183.332 94.836C184.99 94.3202 186.177 92.923 186.585 91.0069C186.988 89.1118 186.286 87.779 184.729 87.4836C184.214 87.3859 183.748 87.3948 183.181 87.5132ZM202.063 87.4846C201.175 87.6454 200.278 88.1218 199.663 88.7599C198.314 90.158 197.775 92.5673 198.526 93.8382C198.84 94.37 199.39 94.7679 200.012 94.9133C200.436 95.0122 201.279 95.0133 201.751 94.9155C203.019 94.6529 204.175 93.7303 204.82 92.4667C205.36 91.408 205.58 90.0356 205.349 89.1676C204.999 87.8555 203.697 87.1886 202.063 87.4846ZM222.352 87.4806C219.871 87.8837 218.066 89.9276 218.063 92.338C218.061 93.7003 218.8 94.6264 220.122 94.9181C220.668 95.0384 221.866 95 222.457 94.8433C222.685 94.7829 222.893 94.7122 222.919 94.6862C222.976 94.6293 223.036 93.4451 222.981 93.4451C222.96 93.4451 222.811 93.4852 222.649 93.5341C222.43 93.6004 222.169 93.623 221.626 93.6227C220.798 93.6222 220.654 93.5809 220.276 93.2354C219.942 92.9301 219.815 92.5963 219.815 92.0264C219.815 90.6226 220.681 89.3521 221.933 88.9162C222.435 88.7414 223.438 88.7279 223.905 88.8896C224.178 88.9842 224.21 88.9862 224.251 88.9109C224.479 88.4856 224.772 87.7478 224.73 87.706C224.702 87.6785 224.519 87.6107 224.324 87.5554C223.862 87.4251 222.915 87.3891 222.352 87.4806ZM211.793 87.5182C211.153 87.553 210.576 87.6376 210.513 87.7061C210.494 87.7273 210.298 88.325 210.078 89.0343C209.116 92.1319 208.577 93.8651 208.434 94.3098C208.35 94.5726 208.281 94.8112 208.281 94.84C208.281 94.8737 208.553 94.8873 209.043 94.8781L209.806 94.8638L209.957 94.3737C210.041 94.1042 210.225 93.518 210.368 93.0711L210.626 92.2586H211.244C212.515 92.2586 213.395 91.9576 214.091 91.2838C214.637 90.7559 214.926 90.1552 214.977 89.4438C215.019 88.8514 214.905 88.504 214.553 88.1553C214 87.6085 213.263 87.4384 211.793 87.5182ZM86.8928 87.5549C86.8928 87.5783 86.9498 87.8859 87.0194 88.2385C87.0891 88.5911 87.207 89.193 87.2815 89.576C87.3559 89.959 87.5116 90.7483 87.6275 91.33C87.8904 92.65 87.8947 92.768 87.6897 93.0206C87.4685 93.293 87.1322 93.536 86.885 93.602C86.7611 93.6351 86.5383 93.6442 86.3473 93.6239L86.0212 93.5893L85.8546 94.0718C85.5764 94.8775 85.5847 94.8178 85.7405 94.8905C85.941 94.984 86.813 95.0165 87.1669 94.9437C87.6756 94.839 88.1501 94.5645 88.6692 94.0747C89.4383 93.349 89.8164 92.8124 92.2868 88.9408C92.7542 88.2084 93.1365 87.5874 93.1365 87.5608C93.1365 87.5326 92.7694 87.5125 92.2577 87.5125H91.3788L90.9478 88.2992C90.7108 88.7319 90.3604 89.3645 90.1693 89.705C89.9782 90.0455 89.6763 90.6084 89.4984 90.956C89.3205 91.3035 89.1565 91.5879 89.134 91.5879C89.1115 91.5879 89.0775 91.3964 89.0585 91.1623C89.0201 90.6909 88.6739 87.812 88.6334 87.6285C88.6082 87.5139 88.5974 87.5125 87.7504 87.5125C87.2787 87.5125 86.8928 87.5316 86.8928 87.5549ZM105.54 87.5857C105.525 87.626 105.421 87.9336 105.311 88.2693L105.11 88.8796L106.089 88.8935L107.067 88.9075L106.792 89.7963C106.641 90.2852 106.409 91.0334 106.276 91.459C106.023 92.2704 105.896 92.6806 105.474 94.0384L105.218 94.8638L105.976 94.8781C106.393 94.886 106.752 94.8744 106.773 94.8523C106.805 94.82 107.357 93.0883 107.741 91.8201C107.846 91.4706 108.263 90.1366 108.297 90.0403C108.311 89.9977 108.396 89.7255 108.485 89.4352L108.645 88.9076L109.642 88.8935L110.638 88.8796L110.809 88.3379C110.903 88.04 110.994 87.7324 111.012 87.6543L111.043 87.5125H108.306C105.989 87.5125 105.564 87.5237 105.54 87.5857ZM114.92 87.5512C114.907 87.5725 114.767 88.0077 114.61 88.5184C114.453 89.0292 114.026 90.3988 113.663 91.5622C112.627 94.879 112.648 94.8071 112.705 94.8637C112.737 94.8957 113.286 94.9147 114.147 94.9135C115.481 94.9118 115.555 94.9064 116.036 94.7764C116.842 94.5584 117.386 94.273 117.82 93.8398C118.96 92.7023 118.955 90.9529 117.811 90.3353C117.392 90.1091 116.923 90.0251 116.255 90.0561C115.824 90.076 115.678 90.0674 115.693 90.023C115.857 89.5455 116.446 87.6372 116.446 87.584C116.446 87.5263 116.301 87.5125 115.695 87.5125C115.282 87.5125 114.933 87.5299 114.92 87.5512ZM130.476 88.2992C130.34 88.7319 130.029 89.7243 129.784 90.5046C129.539 91.2849 129.285 92.0974 129.219 92.3102C128.925 93.2606 128.457 94.7476 128.431 94.8153C128.407 94.878 128.525 94.8896 129.19 94.8896C129.774 94.8896 129.983 94.8729 129.999 94.8251C130.01 94.7897 130.226 94.0934 130.478 93.278L130.937 91.7954L131.228 91.7948C131.446 91.7945 131.564 91.824 131.696 91.9119C132.058 92.1541 132.137 92.4329 132.264 93.9352C132.295 94.3041 132.334 94.6697 132.35 94.7477L132.38 94.8896H133.186H133.993L133.962 94.7477C133.927 94.5826 133.854 93.9355 133.772 93.0582C133.666 91.9361 133.469 91.3741 133.057 91.0255L132.832 90.835L133.133 90.5552C133.299 90.4013 133.938 89.7981 134.553 89.2149C135.168 88.6316 135.806 88.0292 135.971 87.8763C136.135 87.7234 136.27 87.5784 136.27 87.5542C136.27 87.53 135.843 87.5165 135.322 87.5242L134.375 87.5383L132.929 89.0859C132.134 89.9371 131.449 90.641 131.406 90.6502C131.362 90.6594 131.327 90.6353 131.327 90.5966C131.327 90.5579 131.481 90.0397 131.67 89.445C132.04 88.2779 132.264 87.5558 132.264 87.5292C132.264 87.52 131.917 87.5125 131.493 87.5125H130.722L130.476 88.2992ZM139.823 91.085C138.621 93.0498 137.61 94.7097 137.576 94.7735L137.515 94.8896H138.342H139.169L139.626 94.1029C139.878 93.6702 140.129 93.2407 140.184 93.1485L140.285 92.9808H141.355H142.426L142.39 93.9352L142.354 94.8896H143.188H144.023V91.201V87.5125H143.015H142.008L139.823 91.085ZM150.344 87.577C150.321 87.6408 148.647 92.1222 148.201 93.3162C148.073 93.6566 147.889 94.15 147.792 94.4124L147.615 94.8896H148.335H149.056L149.635 93.3033C149.954 92.4307 150.425 91.1017 150.682 90.3498C151.131 89.0382 151.148 88.9974 151.124 89.3439C151.026 90.7317 150.893 93.7822 150.891 94.6978C150.891 94.7816 150.945 94.7884 151.502 94.7752L152.113 94.7606L152.83 93.6257C153.722 92.2136 154.884 90.2952 155.289 89.5656C155.458 89.2619 155.603 89.0208 155.612 89.0298C155.621 89.0388 155.514 89.4265 155.373 89.8914C155.233 90.3563 155.022 91.085 154.906 91.5106C154.348 93.5452 154.012 94.798 154.012 94.8416C154.012 94.869 154.336 94.8896 154.765 94.8896H155.517L155.568 94.6961C155.86 93.5865 155.999 93.0503 156.432 91.3558C156.708 90.2776 157.037 88.997 157.164 88.51C157.291 88.0231 157.394 87.5994 157.394 87.5685C157.394 87.5301 157.071 87.5125 156.362 87.5125C155.443 87.5125 155.321 87.5224 155.252 87.6028C155.175 87.6919 153.559 90.329 153.129 91.0657C153.007 91.275 152.756 91.7276 152.572 92.0716L152.236 92.6971L152.266 92.2844C152.325 91.4672 152.451 88.6098 152.451 88.067L152.452 87.5125H151.409C150.623 87.5125 150.361 87.5283 150.344 87.577ZM162.112 87.5512C162.1 87.5725 161.994 87.8916 161.878 88.2605C161.645 89.0026 161.036 90.9489 160.724 91.9491C160.613 92.3037 160.369 93.0824 160.181 93.6793C159.994 94.2763 159.84 94.7929 159.84 94.8272C159.84 94.875 160.365 94.8896 162.094 94.8896H164.348L164.539 94.2576C164.645 93.9101 164.731 93.6083 164.731 93.587C164.731 93.5657 164.075 93.5483 163.274 93.5483C162.473 93.5483 161.817 93.5314 161.817 93.5108C161.817 93.4666 162.147 92.3976 162.275 92.0264L162.365 91.7685L163.69 91.7427L165.015 91.7169L165.206 91.0979L165.396 90.4788L164.101 90.465C163.116 90.4545 162.806 90.436 162.806 90.3876C162.806 90.3526 162.907 89.9989 163.032 89.6017L163.257 88.8796L164.664 88.8658L166.07 88.8521L166.233 88.342C166.323 88.0615 166.411 87.76 166.429 87.6722L166.461 87.5125H164.298C163.109 87.5125 162.125 87.5299 162.112 87.5512ZM170.619 88.0155C170.532 88.2921 170.294 89.0524 170.09 89.705C169.886 90.3576 169.628 91.1817 169.517 91.5364C169.099 92.8721 168.524 94.7124 168.497 94.8007C168.471 94.8861 168.523 94.8913 169.264 94.878L170.06 94.8638L170.531 93.3419L171.003 91.8201L172.342 91.8063C173.313 91.7963 173.68 91.8086 173.68 91.8511C173.68 91.9022 173.02 94.0711 172.822 94.6703L172.75 94.8896H173.542H174.335L174.426 94.593C174.527 94.2638 175.29 91.8198 175.605 90.8141C175.716 90.4595 175.984 89.6056 176.201 88.9168C176.417 88.2278 176.594 87.6301 176.594 87.5884C176.594 87.5251 176.469 87.5125 175.842 87.5125C175.342 87.5125 175.079 87.5319 175.055 87.5705C175.035 87.6024 174.954 87.8404 174.874 88.0993C174.794 88.3582 174.608 88.9647 174.46 89.447C174.311 89.9294 174.173 90.3418 174.153 90.3636C174.132 90.3854 173.517 90.397 172.785 90.3894L171.455 90.3756L171.891 88.9833C172.131 88.2174 172.327 87.5732 172.327 87.5517C172.327 87.5301 171.978 87.5125 171.552 87.5125H170.777L170.619 88.0155ZM191.784 87.6487C191.755 87.7237 191.641 88.0777 191.53 88.4354C191.418 88.7932 191.222 89.4225 191.093 89.8339C190.964 90.2454 190.706 91.0695 190.52 91.6653C190.334 92.2612 190.031 93.2304 189.847 93.8191L189.512 94.8896H190.3H191.089L191.577 93.329C191.845 92.4707 192.127 91.5712 192.203 91.33C192.279 91.0888 192.48 90.4446 192.649 89.8984L192.956 88.9054H194.234H195.512L195.723 88.2359C195.839 87.8678 195.922 87.5544 195.907 87.5395C195.892 87.5246 194.97 87.5125 193.858 87.5125H191.836L191.784 87.6487ZM229.071 87.5575C229.047 87.596 228.756 88.5156 227.264 93.2646C227.148 93.6334 226.995 94.1209 226.924 94.3479C226.854 94.5749 226.786 94.7902 226.775 94.8265C226.758 94.8782 226.921 94.8892 227.54 94.878L228.325 94.8638L228.465 94.4253C228.542 94.1841 228.755 93.4939 228.94 92.8915L229.275 91.7963L229.551 91.7953C229.879 91.7941 230.08 91.887 230.262 92.1234C230.415 92.3218 230.547 92.8596 230.549 93.2904C230.55 93.4464 230.585 93.8643 230.628 94.2189C230.67 94.5736 230.705 94.8696 230.705 94.8767C230.707 94.9127 232.319 94.8835 232.319 94.8475C232.319 94.8243 232.296 94.6792 232.269 94.5251C232.241 94.3709 232.194 93.926 232.163 93.5364C232.05 92.0728 231.886 91.5079 231.454 91.0894L231.178 90.8227L231.4 90.6249C231.962 90.1248 234.608 87.5925 234.608 87.5548C234.608 87.5315 234.188 87.5125 233.675 87.5125H232.742L231.503 88.8376C230.821 89.5665 230.162 90.2745 230.038 90.4111C229.823 90.6467 229.665 90.7277 229.665 90.6019C229.665 90.5704 229.876 89.8766 230.133 89.0601C230.391 88.2437 230.602 87.5615 230.602 87.5441C230.602 87.4942 229.102 87.5073 229.071 87.5575ZM184.39 88.865C184.857 89.0833 185.051 89.5451 185.011 90.3375C184.962 91.3112 184.518 92.29 183.8 93.0104C183.251 93.5608 183.009 93.6776 182.421 93.6761C181.89 93.6748 181.621 93.5591 181.38 93.2294C181.155 92.9218 181.104 92.676 181.136 92.0522C181.213 90.5302 182.287 88.9829 183.428 88.7512C183.723 88.6913 184.119 88.7381 184.39 88.865ZM203.077 88.8362C203.333 88.941 203.489 89.098 203.63 89.3954C203.925 90.0162 203.704 91.3254 203.15 92.2392C202.423 93.437 201.552 93.9196 200.66 93.6184C200.074 93.4204 199.815 92.9093 199.868 92.054C199.961 90.5478 201.049 88.9753 202.152 88.7523C202.421 88.698 202.829 88.7351 203.077 88.8362ZM142.567 89.9421C142.539 90.5778 142.515 91.2546 142.514 91.4461L142.514 91.7943H141.707C141.264 91.7943 140.901 91.7857 140.901 91.7753C140.901 91.7648 141.152 91.3282 141.46 90.805C141.768 90.2818 142.148 89.6069 142.304 89.3052C142.461 89.0035 142.596 88.7633 142.604 88.7715C142.612 88.7797 142.596 89.3065 142.567 89.9421ZM212.937 88.8476C213.286 89.0064 213.354 89.1203 213.351 89.5429C213.349 89.9964 213.234 90.238 212.864 90.5676C212.51 90.8838 212.027 91.0396 211.486 91.0125C211.272 91.0018 211.083 90.9785 211.065 90.9608C211.023 90.9194 211.669 88.8405 211.74 88.7901C211.769 88.7692 212.003 88.7523 212.261 88.7525C212.604 88.7528 212.785 88.7781 212.937 88.8476ZM116.305 91.3404C116.755 91.4741 117.01 91.9035 116.937 92.4032C116.864 92.8954 116.545 93.2824 116.004 93.5327C115.735 93.6572 115.614 93.6797 115.133 93.6947C114.721 93.7076 114.573 93.6957 114.573 93.6501C114.573 93.6159 114.681 93.2367 114.813 92.8072C114.944 92.3778 115.1 91.871 115.158 91.681C115.25 91.3827 115.283 91.3326 115.4 91.3147C115.694 91.2697 116.106 91.2814 116.305 91.3404ZM122.561 91.5493C122.494 91.7483 122.274 92.5017 122.274 92.5329C122.274 92.5532 122.909 92.5636 123.686 92.5561L125.098 92.5423L125.266 92.0135L125.435 91.4848H124.009C122.914 91.4848 122.578 91.4998 122.561 91.5493Z" fill="#DADADA"/>
</svg>
