<svg width="268" height="150" viewBox="0 0 268 150" fill="none" xmlns="http://www.w3.org/2000/svg">
<path d="M73.8674 37.999H80.8649L81.0304 68.8408H74.0328L73.8674 37.999Z" fill="#DADADA"/>
<path d="M116.126 37.999V68.811H109.655L94.9518 50.1037V71.0119H88.0406V37.999H93.8287L108.567 56.7063V37.999H116.126Z" fill="#DADADA"/>
<path d="M129.603 43.7509V51.8941H144.202V57.6164H129.603V68.8408H122.605V38.0287H145.455V43.7509H129.603Z" fill="#DADADA"/>
<path d="M164.54 69.369C161.401 69.369 158.565 68.6794 156.031 67.3002C153.525 65.921 151.553 64.0282 150.113 61.6219C148.702 59.1863 147.996 56.4572 147.996 53.4347C147.996 50.4122 148.702 47.6978 150.113 45.2915C151.553 42.8559 153.525 40.9485 156.031 39.5693C158.565 38.1901 161.401 37.5005 164.54 37.5005C167.679 37.5005 170.501 38.1901 173.006 39.5693C175.511 40.9485 177.484 42.8559 178.924 45.2915C180.364 47.6978 181.083 50.4122 181.083 53.4347C181.083 56.4572 180.364 59.1863 178.924 61.6219C177.484 64.0282 175.511 65.921 173.006 67.3002C170.501 68.6794 167.679 69.369 164.54 69.369ZM164.54 63.2946C166.325 63.2946 167.938 62.8838 169.378 62.0621C170.818 61.2111 171.941 60.0373 172.747 58.5407C173.582 57.0441 174 55.3421 174 53.4347C174 51.5273 173.582 49.8253 172.747 48.3287C171.941 46.8321 170.818 45.673 169.378 44.8514C167.938 44.0004 166.325 43.5749 164.54 43.5749C162.755 43.5749 161.142 44.0004 159.702 44.8514C158.262 45.673 157.125 46.8321 156.29 48.3287C155.483 49.8253 155.08 51.5273 155.08 53.4347C155.08 55.3421 155.483 57.0441 156.29 58.5407C157.125 60.0373 158.262 61.2111 159.702 62.0621C161.142 62.8838 162.755 63.2946 164.54 63.2946Z" fill="#DADADA"/>
<path d="M87.0989 68.2449C89.777 68.2449 92.0951 68.6998 94.0533 69.6094C96.0402 70.5191 97.5664 71.8103 98.6319 73.483C99.6973 75.1556 100.23 77.1364 100.23 79.4253C100.23 81.6848 99.6973 83.6656 98.6319 85.3676C97.5664 87.0403 96.0402 88.3314 94.0533 89.2411C92.0951 90.1215 89.777 90.5617 87.0989 90.5617H81.0085V99.6287H74.011V68.2449H87.0989ZM86.7102 84.7514C88.8123 84.7514 90.4105 84.2965 91.5048 83.3868C92.599 82.4478 93.1462 81.1273 93.1462 79.4253C93.1462 77.6939 92.599 76.3734 91.5048 75.4637C90.4105 74.5247 88.8123 74.0552 86.7102 74.0552H81.0085V84.7514H86.7102Z" fill="#DADADA"/>
<path d="M109.646 68.8079H116.126V93.7749H135.045V99.5852H109.646V68.8079Z" fill="#DADADA"/>
<path d="M150.929 99.5852C146.609 99.5852 143.24 98.3674 140.821 95.9318C138.431 93.4961 137.236 90.0188 137.236 85.4997V57.6101H144.233V85.2356C144.233 90.7524 146.48 93.5108 150.972 93.5108C153.16 93.5108 154.831 92.8506 155.982 91.53C157.134 90.1802 157.71 88.082 157.71 85.2356V68.0782C160.186 68.9394 161.678 69.2773 164.567 69.3538L164.621 85.4997C164.621 90.0188 163.412 93.4961 160.993 95.9318C158.603 98.3674 155.248 99.5852 150.929 99.5852Z" fill="#DADADA"/>
<path d="M181.471 99.5852C179.081 99.5852 176.763 99.2624 174.517 98.6168C172.299 97.9419 170.514 97.0762 169.16 96.0198L171.536 90.6497C172.832 91.6181 174.373 92.3957 176.158 92.9826C177.943 93.5695 179.729 93.863 181.514 93.863C183.501 93.863 184.97 93.5695 185.92 92.9826C186.87 92.3664 187.345 91.5594 187.345 90.5617C187.345 89.828 187.057 89.2265 186.481 88.757C185.934 88.2581 185.214 87.8619 184.322 87.5685C183.458 87.275 182.277 86.9522 180.78 86.6001C178.476 86.0426 176.59 85.485 175.121 84.9274C173.653 84.3699 172.386 83.4749 171.32 82.2424C170.284 81.0099 169.765 79.3666 169.765 77.3125C169.765 75.5224 170.24 73.9085 171.191 72.4706C172.141 71.0033 173.566 69.8442 175.467 68.9932C177.396 68.1422 179.743 67.7167 182.508 67.7167C184.437 67.7167 186.323 67.9515 188.166 68.421C190.009 68.8905 191.622 69.5654 193.004 70.4458L190.844 75.8599C188.051 74.2459 185.258 73.4389 182.464 73.4389C180.506 73.4389 179.052 73.7617 178.102 74.4073C177.18 75.0529 176.72 75.9039 176.72 76.9603C176.72 78.0167 177.252 78.8091 178.318 79.3373C179.412 79.8361 181.068 80.335 183.285 80.8338C185.589 81.3914 187.475 81.9489 188.944 82.5065C190.412 83.064 191.665 83.9444 192.701 85.1475C193.767 86.3507 194.3 87.9793 194.3 90.0335C194.3 91.7941 193.81 93.4081 192.831 94.8753C191.881 96.3132 190.441 97.4577 188.512 98.3087C186.582 99.1597 184.235 99.5852 181.471 99.5852Z" fill="#DADADA"/>
<path d="M76.7443 105.261C77.7252 105.261 78.4938 105.484 79.0502 105.93C79.6065 106.375 79.8847 106.988 79.8847 107.769C79.8847 108.549 79.6065 109.162 79.0502 109.608C78.4938 110.047 77.7252 110.266 76.7443 110.266H74.68V112.576H73.8674V105.261H76.7443ZM76.7223 109.587C77.4836 109.587 78.0656 109.43 78.4682 109.117C78.8708 108.796 79.0721 108.347 79.0721 107.769C79.0721 107.177 78.8708 106.724 78.4682 106.41C78.0656 106.09 77.4836 105.93 76.7223 105.93H74.68V109.587H76.7223Z" fill="#DADADA"/>
<path d="M86.388 110.057H81.5566C81.6005 110.628 81.8311 111.092 82.2484 111.447C82.6656 111.795 83.1927 111.97 83.8295 111.97C84.1882 111.97 84.5177 111.91 84.8178 111.792C85.1179 111.667 85.3778 111.485 85.5974 111.249L86.0366 111.729C85.7804 112.022 85.4583 112.245 85.0703 112.398C84.6897 112.551 84.2688 112.628 83.8076 112.628C83.2146 112.628 82.6876 112.509 82.2264 112.273C81.7726 112.029 81.4175 111.694 81.1613 111.269C80.9051 110.844 80.777 110.364 80.777 109.827C80.777 109.291 80.8978 108.81 81.1394 108.385C81.3882 107.96 81.725 107.629 82.1496 107.393C82.5814 107.156 83.0646 107.037 83.599 107.037C84.1333 107.037 84.6128 107.156 85.0374 107.393C85.462 107.629 85.795 107.96 86.0366 108.385C86.2782 108.803 86.399 109.284 86.399 109.827L86.388 110.057ZM83.599 107.675C83.0426 107.675 82.5741 107.845 82.1935 108.187C81.8201 108.521 81.6079 108.96 81.5566 109.503H85.6523C85.6011 108.96 85.3851 108.521 85.0044 108.187C84.6311 107.845 84.1626 107.675 83.599 107.675Z" fill="#DADADA"/>
<path d="M90.2219 110.13H88.9043V112.576H88.1247V107.079H88.9043V109.493H90.2329L92.2643 107.079H93.1098L90.8368 109.744L93.2745 112.576H92.3521L90.2219 110.13Z" fill="#DADADA"/>
<path d="M99.2264 107.079V112.576H98.4468V107.737H95.6798L95.6029 109.096C95.5444 110.238 95.4053 111.116 95.1857 111.729C94.9661 112.342 94.5744 112.649 94.0108 112.649C93.857 112.649 93.6704 112.621 93.4508 112.565L93.5057 111.928C93.6374 111.956 93.7289 111.97 93.7802 111.97C94.0803 111.97 94.3072 111.837 94.461 111.572C94.6147 111.308 94.7172 110.98 94.7684 110.59C94.8196 110.2 94.8636 109.685 94.9002 109.044L94.999 107.079H99.2264Z" fill="#DADADA"/>
<path d="M103.43 107.037C104.184 107.037 104.762 107.218 105.165 107.581C105.568 107.936 105.769 108.465 105.769 109.169V112.576H105.022V111.719C104.847 112.004 104.587 112.227 104.243 112.388C103.906 112.548 103.503 112.628 103.035 112.628C102.391 112.628 101.878 112.482 101.498 112.189C101.117 111.896 100.927 111.51 100.927 111.029C100.927 110.562 101.102 110.186 101.454 109.9C101.812 109.615 102.38 109.472 103.156 109.472H104.989V109.138C104.989 108.664 104.85 108.305 104.572 108.061C104.294 107.811 103.888 107.685 103.353 107.685C102.987 107.685 102.636 107.744 102.299 107.863C101.962 107.974 101.673 108.131 101.432 108.333L101.08 107.779C101.373 107.542 101.725 107.361 102.134 107.236C102.544 107.103 102.976 107.037 103.43 107.037ZM103.156 112.043C103.595 112.043 103.972 111.949 104.287 111.761C104.601 111.565 104.836 111.287 104.989 110.925V110.026H103.178C102.189 110.026 101.695 110.353 101.695 111.008C101.695 111.329 101.823 111.583 102.08 111.771C102.336 111.952 102.694 112.043 103.156 112.043Z" fill="#DADADA"/>
<path d="M114.301 107.079V112.576H113.587V108.229L111.248 111.907H110.897L108.558 108.218V112.576H107.844V107.079H108.635L111.084 111.04L113.576 107.079H114.301Z" fill="#DADADA"/>
<path d="M116.519 107.079H117.299V109.514H120.933V107.079H121.713V112.576H120.933V110.151H117.299V112.576H116.519V107.079Z" fill="#DADADA"/>
<path d="M126.312 112.628C125.755 112.628 125.254 112.509 124.807 112.273C124.361 112.029 124.009 111.694 123.753 111.269C123.497 110.844 123.369 110.364 123.369 109.827C123.369 109.291 123.497 108.81 123.753 108.385C124.009 107.96 124.361 107.629 124.807 107.393C125.254 107.156 125.755 107.037 126.312 107.037C126.868 107.037 127.369 107.156 127.816 107.393C128.262 107.629 128.61 107.96 128.859 108.385C129.115 108.81 129.243 109.291 129.243 109.827C129.243 110.364 129.115 110.844 128.859 111.269C128.61 111.694 128.262 112.029 127.816 112.273C127.369 112.509 126.868 112.628 126.312 112.628ZM126.312 111.97C126.722 111.97 127.088 111.882 127.41 111.708C127.739 111.527 127.995 111.273 128.178 110.945C128.361 110.618 128.453 110.245 128.453 109.827C128.453 109.409 128.361 109.037 128.178 108.709C127.995 108.382 127.739 108.131 127.41 107.957C127.088 107.776 126.722 107.685 126.312 107.685C125.902 107.685 125.532 107.776 125.203 107.957C124.88 108.131 124.624 108.382 124.434 108.709C124.251 109.037 124.159 109.409 124.159 109.827C124.159 110.245 124.251 110.618 124.434 110.945C124.624 111.273 124.88 111.527 125.203 111.708C125.532 111.882 125.902 111.97 126.312 111.97Z" fill="#DADADA"/>
<path d="M135.961 110.057H131.129C131.173 110.628 131.404 111.092 131.821 111.447C132.238 111.795 132.765 111.97 133.402 111.97C133.761 111.97 134.09 111.91 134.39 111.792C134.69 111.667 134.95 111.485 135.17 111.249L135.609 111.729C135.353 112.022 135.031 112.245 134.643 112.398C134.262 112.551 133.841 112.628 133.38 112.628C132.787 112.628 132.26 112.509 131.799 112.273C131.345 112.029 130.99 111.694 130.734 111.269C130.478 110.844 130.35 110.364 130.35 109.827C130.35 109.291 130.47 108.81 130.712 108.385C130.961 107.96 131.298 107.629 131.722 107.393C132.154 107.156 132.637 107.037 133.171 107.037C133.706 107.037 134.185 107.156 134.61 107.393C135.035 107.629 135.368 107.96 135.609 108.385C135.851 108.803 135.971 109.284 135.971 109.827L135.961 110.057ZM133.171 107.675C132.615 107.675 132.147 107.845 131.766 108.187C131.393 108.521 131.18 108.96 131.129 109.503H135.225C135.174 108.96 134.958 108.521 134.577 108.187C134.204 107.845 133.735 107.675 133.171 107.675Z" fill="#DADADA"/>
<path d="M142.558 107.037C143.312 107.037 143.891 107.218 144.293 107.581C144.696 107.936 144.897 108.465 144.897 109.169V112.576H144.151V111.719C143.975 112.004 143.715 112.227 143.371 112.388C143.034 112.548 142.632 112.628 142.163 112.628C141.519 112.628 141.007 112.482 140.626 112.189C140.245 111.896 140.055 111.51 140.055 111.029C140.055 110.562 140.231 110.186 140.582 109.9C140.941 109.615 141.508 109.472 142.284 109.472H144.118V109.138C144.118 108.664 143.979 108.305 143.7 108.061C143.422 107.811 143.016 107.685 142.482 107.685C142.116 107.685 141.764 107.744 141.427 107.863C141.091 107.974 140.802 108.131 140.56 108.333L140.209 107.779C140.501 107.542 140.853 107.361 141.263 107.236C141.673 107.103 142.105 107.037 142.558 107.037ZM142.284 112.043C142.723 112.043 143.1 111.949 143.415 111.761C143.73 111.565 143.964 111.287 144.118 110.925V110.026H142.306C141.318 110.026 140.824 110.353 140.824 111.008C140.824 111.329 140.952 111.583 141.208 111.771C141.464 111.952 141.823 112.043 142.284 112.043Z" fill="#DADADA"/>
<path d="M151.057 107.737H147.752V112.576H146.973V107.079H151.057V107.737Z" fill="#DADADA"/>
<path d="M156.967 110.057H152.136C152.179 110.628 152.41 111.092 152.827 111.447C153.245 111.795 153.772 111.97 154.408 111.97C154.767 111.97 155.097 111.91 155.397 111.792C155.697 111.667 155.957 111.485 156.176 111.249L156.616 111.729C156.359 112.022 156.037 112.245 155.649 112.398C155.269 112.551 154.848 112.628 154.387 112.628C153.794 112.628 153.267 112.509 152.805 112.273C152.351 112.029 151.996 111.694 151.74 111.269C151.484 110.844 151.356 110.364 151.356 109.827C151.356 109.291 151.477 108.81 151.718 108.385C151.967 107.96 152.304 107.629 152.728 107.393C153.16 107.156 153.644 107.037 154.178 107.037C154.712 107.037 155.192 107.156 155.616 107.393C156.041 107.629 156.374 107.96 156.616 108.385C156.857 108.803 156.978 109.284 156.978 109.827L156.967 110.057ZM154.178 107.675C153.622 107.675 153.153 107.845 152.772 108.187C152.399 108.521 152.187 108.96 152.136 109.503H156.231C156.18 108.96 155.964 108.521 155.583 108.187C155.21 107.845 154.742 107.675 154.178 107.675Z" fill="#DADADA"/>
<path d="M158.704 107.079H159.483V109.514H163.118V107.079H163.897V112.576H163.118V110.151H159.483V112.576H158.704V107.079Z" fill="#DADADA"/>
<path d="M170.176 107.737H167.991V112.576H167.211V107.737H165.026V107.079H170.176V107.737Z" fill="#DADADA"/>
<path d="M173.451 112.628C172.88 112.628 172.367 112.509 171.914 112.273C171.467 112.036 171.116 111.705 170.859 111.28C170.603 110.848 170.475 110.364 170.475 109.827C170.475 109.291 170.603 108.81 170.859 108.385C171.116 107.96 171.467 107.629 171.914 107.393C172.367 107.156 172.88 107.037 173.451 107.037C173.949 107.037 174.391 107.131 174.779 107.319C175.175 107.5 175.486 107.769 175.713 108.124L175.131 108.5C174.94 108.229 174.699 108.026 174.406 107.894C174.113 107.755 173.795 107.685 173.451 107.685C173.034 107.685 172.657 107.776 172.32 107.957C171.99 108.131 171.731 108.382 171.54 108.709C171.357 109.037 171.266 109.409 171.266 109.827C171.266 110.252 171.357 110.628 171.54 110.956C171.731 111.276 171.99 111.527 172.32 111.708C172.657 111.882 173.034 111.97 173.451 111.97C173.795 111.97 174.113 111.903 174.406 111.771C174.699 111.639 174.94 111.437 175.131 111.165L175.713 111.541C175.486 111.896 175.175 112.168 174.779 112.356C174.384 112.537 173.941 112.628 173.451 112.628Z" fill="#DADADA"/>
<path d="M181.178 107.737H178.993V112.576H178.213V107.737H176.028V107.079H181.178V107.737Z" fill="#DADADA"/>
<path d="M185.983 109.733C186.767 109.907 187.158 110.357 187.158 111.081C187.158 111.562 186.972 111.931 186.598 112.189C186.225 112.447 185.669 112.576 184.929 112.576H182.305V107.079H184.852C185.511 107.079 186.027 107.201 186.401 107.445C186.774 107.689 186.961 108.037 186.961 108.49C186.961 108.789 186.873 109.047 186.697 109.263C186.529 109.472 186.291 109.629 185.983 109.733ZM183.063 109.524H184.798C185.244 109.524 185.584 109.444 185.819 109.284C186.06 109.124 186.181 108.89 186.181 108.584C186.181 108.277 186.06 108.047 185.819 107.894C185.584 107.741 185.244 107.664 184.798 107.664H183.063V109.524ZM184.896 111.99C185.394 111.99 185.767 111.914 186.016 111.761C186.265 111.607 186.39 111.367 186.39 111.04C186.39 110.712 186.276 110.472 186.049 110.318C185.822 110.158 185.464 110.078 184.973 110.078H183.063V111.99H184.896Z" fill="#DADADA"/>
<path d="M191.368 112.628C190.812 112.628 190.31 112.509 189.864 112.273C189.417 112.029 189.066 111.694 188.81 111.269C188.554 110.844 188.425 110.364 188.425 109.827C188.425 109.291 188.554 108.81 188.81 108.385C189.066 107.96 189.417 107.629 189.864 107.393C190.31 107.156 190.812 107.037 191.368 107.037C191.925 107.037 192.426 107.156 192.872 107.393C193.319 107.629 193.667 107.96 193.916 108.385C194.172 108.81 194.3 109.291 194.3 109.827C194.3 110.364 194.172 110.844 193.916 111.269C193.667 111.694 193.319 112.029 192.872 112.273C192.426 112.509 191.925 112.628 191.368 112.628ZM191.368 111.97C191.778 111.97 192.144 111.882 192.466 111.708C192.796 111.527 193.052 111.273 193.235 110.945C193.418 110.618 193.509 110.245 193.509 109.827C193.509 109.409 193.418 109.037 193.235 108.709C193.052 108.382 192.796 108.131 192.466 107.957C192.144 107.776 191.778 107.685 191.368 107.685C190.958 107.685 190.589 107.776 190.259 107.957C189.937 108.131 189.681 108.382 189.491 108.709C189.308 109.037 189.216 109.409 189.216 109.827C189.216 110.245 189.308 110.618 189.491 110.945C189.681 111.273 189.937 111.527 190.259 111.708C190.589 111.882 190.958 111.97 191.368 111.97Z" fill="#DADADA"/>
</svg>
