<svg width="268" height="150" viewBox="0 0 268 150" fill="none" xmlns="http://www.w3.org/2000/svg">
<g clip-path="url(#clip0_1456_1901)">
<path d="M133.601 111.356C131.98 111.727 116.163 112.92 107.859 113.299C98.2753 113.736 69.6344 113.444 64.5211 112.858C54.1659 111.671 51.1228 111.171 43.8296 109.462C36.6543 107.781 28.4305 104.328 24.8514 101.493C21.1305 98.5465 19.2204 95.3064 19.4501 92.3305L19.5537 90.9873L21.02 92.7009C21.8265 93.6437 22.9396 94.7294 23.4932 95.1141C24.0472 95.4987 25.0736 96.3224 25.7742 96.9444C28.5987 99.4516 38.8766 103.584 47.4139 105.645C53.5784 107.133 54.9991 107.416 61.2626 108.405C71.9583 110.092 78.8947 110.786 90.7521 111.352C106.145 112.087 109.13 112.077 130.832 111.219C133.711 111.106 134.523 111.145 133.601 111.356Z" fill="#DADADA"/>
<path d="M133.835 111.631C132.173 111.953 116.039 112.636 107.577 112.742C97.8108 112.864 68.6792 111.605 63.4965 110.837C53.0007 109.281 49.9213 108.67 42.5587 106.686C35.3151 104.734 27.0648 100.944 23.5193 97.9398C19.8333 94.8166 17.9998 91.4557 18.3345 88.4356L18.4855 87.0723L19.9193 88.8652C20.7079 89.8515 21.8036 90.9936 22.3539 91.4036C22.9044 91.8136 23.9209 92.6862 24.6126 93.3426C27.4013 95.9886 37.7187 100.539 46.3352 102.923C52.5569 104.644 53.9928 104.979 60.3322 106.196C71.1576 108.273 78.1916 109.211 90.237 110.186C105.874 111.451 108.912 111.541 131.021 111.398C133.955 111.379 134.78 111.447 133.835 111.631Z" fill="#DADADA"/>
<path d="M134.231 38.477C135.852 38.1066 151.669 36.9129 159.973 36.5344C169.557 36.0976 198.198 36.3888 203.311 36.9751C213.666 38.1624 216.709 38.6618 224.003 40.3709C231.178 42.0525 239.402 45.5057 242.981 48.3401C246.702 51.2867 248.612 54.5269 248.382 57.5027L248.279 58.846L246.812 57.1323C246.006 56.1896 244.893 55.1038 244.339 54.7192C243.785 54.3346 242.759 53.5108 242.058 52.8888C239.234 50.3816 228.956 46.249 220.418 44.1883C214.254 42.7001 212.833 42.4173 206.57 41.4285C195.874 39.7408 188.938 39.0474 177.08 38.4812C161.687 37.7463 158.702 37.7564 137.001 38.6139C134.121 38.7277 133.309 38.6878 134.231 38.477Z" fill="#DADADA"/>
<path d="M133.997 38.2025C135.659 37.8802 151.794 37.1973 160.255 37.0913C170.021 36.969 199.153 38.228 204.336 38.9964C214.832 40.5525 217.911 41.163 225.274 43.1471C232.517 45.0992 240.767 48.8892 244.313 51.8934C247.999 55.0166 249.832 58.3776 249.498 61.3977L249.347 62.761L247.913 60.9681C247.124 59.9818 246.029 58.8396 245.478 58.4296C244.928 58.0197 243.911 57.147 243.22 56.4906C240.431 53.8447 230.114 49.2943 221.497 46.9107C215.275 45.1893 213.839 44.8538 207.5 43.6372C196.675 41.5605 189.641 40.6218 177.595 39.6471C161.958 38.382 158.921 38.2919 136.811 38.4349C133.877 38.4539 133.053 38.386 133.997 38.2025Z" fill="#DADADA"/>
<path d="M44.6331 88.1793V61.9783H50.1729V74.0169H50.5462L62.4771 61.9783H69.2414L57.4151 73.7355L69.3459 88.1793H62.6862L53.5625 76.9466L50.1729 80.3753V88.1793H44.6331Z" fill="#DADADA"/>
<path d="M73.0902 88.1793V61.9783H92.98V65.9571H78.6301V73.0702H91.9496V77.049H78.6301V84.2005H93.0994V88.1793H73.0902Z" fill="#DADADA"/>
<path d="M98.6318 61.9783H105.411L114.49 80.9638H114.848L123.927 61.9783H130.706V88.1793H125.39V70.1789H125.107L116.655 88.1025H112.683L104.231 70.1405H103.948V88.1793H98.6318V61.9783Z" fill="#DADADA"/>
<path d="M164.065 75.0788C164.065 77.9019 163.448 80.3198 162.213 82.3327C160.989 84.337 159.316 85.8722 157.196 86.9383C155.086 88.0044 152.692 88.5375 150.014 88.5375C147.336 88.5375 144.937 88.0044 142.816 86.9383C140.706 85.8637 139.034 84.3242 137.799 82.3199C136.575 80.307 135.962 77.8934 135.962 75.0788C135.962 72.2557 136.575 69.842 137.799 67.8377C139.034 65.8249 140.706 64.2854 142.816 63.2193C144.937 62.1532 147.336 61.6201 150.014 61.6201C152.692 61.6201 155.086 62.1532 157.196 63.2193C159.316 64.2854 160.989 65.8249 162.213 67.8377C163.448 69.842 164.065 72.2557 164.065 75.0788ZM158.495 75.0788C158.495 73.0916 158.132 71.4156 157.405 70.051C156.688 68.6778 155.693 67.6416 154.419 66.9422C153.144 66.2343 151.676 65.8803 150.014 65.8803C148.351 65.8803 146.883 66.2343 145.609 66.9422C144.334 67.6416 143.334 68.6778 142.607 70.051C141.891 71.4156 141.532 73.0916 141.532 75.0788C141.532 77.066 141.891 78.7462 142.607 80.1194C143.334 81.484 144.334 82.5203 145.609 83.2282C146.883 83.9276 148.351 84.2773 150.014 84.2773C151.676 84.2773 153.144 83.9276 154.419 83.2282C155.693 82.5203 156.688 81.484 157.405 80.1194C158.132 78.7462 158.495 77.066 158.495 75.0788Z" fill="#DADADA"/>
<path d="M194.433 61.9783V88.1793H189.506L175.096 70.3324H174.842V88.1793H169.302V61.9783H174.26L188.655 79.838H188.923V61.9783H194.433Z" fill="#DADADA"/>
<path d="M199.126 65.9571V61.9783H223.525V65.9571H214.073V88.1793H208.578V65.9571H199.126Z" fill="#DADADA"/>
</g>
<defs>
<clipPath id="clip0_1456_1901">
<rect width="232.658" height="77.8333" fill="white" transform="translate(17.5874 36)"/>
</clipPath>
</defs>
</svg>
