<svg width="268" height="150" viewBox="0 0 268 150" fill="none" xmlns="http://www.w3.org/2000/svg">
<path fill-rule="evenodd" clip-rule="evenodd" d="M187.875 42.4793C187.294 42.6469 186.444 43.4541 186.171 44.0983C186.022 44.4493 185.964 45.3761 185.964 47.3838V50.1803L173.662 47.1339L161.36 44.0874L152.341 46.3452L143.323 48.603L142.855 49.5248C142.597 50.0318 142.185 50.7371 141.94 51.0923C141.694 51.4474 141.536 51.7381 141.589 51.7381C141.642 51.7381 146.12 50.635 151.541 49.2867L161.396 46.8353L174.638 50.1152C181.921 51.919 188.103 53.4376 188.376 53.4898L188.872 53.5844L188.912 49.4326L188.953 45.2807L194.127 45.2407L199.301 45.2006V50.6757V56.1508L199.646 56.2973C199.835 56.378 204.82 57.6489 210.722 59.1216C220.554 61.5754 221.484 61.7818 221.836 61.5873C222.325 61.3165 222.601 60.7419 222.496 60.2123C222.36 59.5217 221.801 59.118 220.582 58.8296C219.965 58.6836 215.614 57.5989 210.913 56.4194L202.367 54.275L202.366 49.626C202.365 46.8967 202.3 44.7435 202.207 44.4118C201.995 43.656 201.366 42.9439 200.61 42.6036C200.042 42.348 199.503 42.3255 194.165 42.3349C190.961 42.3407 188.131 42.4056 187.875 42.4793ZM140.128 43.8475C138.425 44.1726 134.369 46.603 133.579 47.7722C133.11 48.4653 133.138 48.8745 133.728 49.9438L134.226 50.8471L133.725 51.2926C133.45 51.5377 133.128 51.7381 133.01 51.7381C132.891 51.7381 132.308 50.8175 131.695 49.6638C130.817 48.0097 130.612 47.5001 130.683 47.1479C130.801 46.5638 130.182 45.8945 129.663 46.0442C128.798 46.2932 128.478 47.5455 129.199 47.8591C129.459 47.9721 129.743 48.5568 130.417 50.3644C131.387 52.9657 131.696 53.4094 132.539 53.4094C133.899 53.4094 135.836 51.7841 135.835 50.6441C135.835 50.4519 135.618 49.8878 135.354 49.3903L134.873 48.486L135.393 48.0518C136.728 46.9353 139.814 45.3567 140.661 45.3567C141.158 45.3567 141.148 45.5259 140.577 46.7241C139.222 49.567 136.141 53.0871 133.229 55.1169C130.159 57.2577 126.024 59.0274 126.024 58.2011C126.024 57.3596 127.603 54.5456 128.926 53.0289C129.785 52.0454 129.828 51.9588 129.597 51.7054C129.461 51.5562 129.269 51.4342 129.17 51.4342C128.832 51.4342 126.68 53.7885 125.837 55.0807C124.406 57.2765 124.05 58.7739 124.779 59.5427C124.979 59.754 125.345 59.9708 125.591 60.0245C126.856 60.2998 130.412 58.8295 133.689 56.677C137.427 54.2216 141.929 48.7833 142.566 45.9546C142.93 44.3378 141.958 43.4979 140.128 43.8475ZM73.8264 47.3554C73.1965 47.6968 72.9616 48.3748 73.2317 49.0723C73.3824 49.4616 74.1721 49.7952 74.6805 49.6845C75.7601 49.4494 75.9523 47.9082 74.9651 47.4022C74.4535 47.14 74.2398 47.1312 73.8264 47.3554ZM70.4484 50.8158C70.0146 50.9946 69.7819 51.307 69.6703 51.8604C69.5911 52.2534 69.6539 52.4119 70.0408 52.7956C70.6408 53.3901 71.1811 53.3957 71.7686 52.8133C72.3084 52.2784 72.3431 51.7432 71.8718 51.2204C71.4818 50.788 70.9103 50.6254 70.4484 50.8158ZM73.8264 50.858C73.2044 51.2116 72.969 51.8882 73.2317 52.5669C73.3824 52.9562 74.1721 53.2898 74.6805 53.1791C75.7601 52.944 75.9523 51.4027 74.9651 50.8968C74.4495 50.6326 74.2358 50.6253 73.8264 50.858ZM158.83 51.7209C157.612 51.9815 156.676 52.7893 156.384 53.8319C156.297 54.1426 156.225 55.3712 156.225 56.5621L156.224 58.7272H161.446H166.669L166.62 56.1706C166.573 53.689 166.56 53.5957 166.16 52.9982C165.901 52.611 165.475 52.2495 165.01 52.0237C164.338 51.6967 164.053 51.6621 161.819 51.6354C160.47 51.6193 159.125 51.6577 158.83 51.7209ZM164.276 53.439C164.916 53.7275 165.115 54.2978 165.115 55.8328V57.2078H161.513H157.91V55.6768C157.91 54.1872 157.922 54.1337 158.358 53.7016L158.807 53.2575H161.341C162.979 53.2575 164.017 53.3216 164.276 53.439ZM112.414 56.2853C100.616 59.2421 100.436 59.2985 100.225 60.0974C100.14 60.4216 100.749 61.3801 101.189 61.6136C101.607 61.835 122.949 56.51 123.074 56.1532C123.14 55.9619 124.071 53.9738 124.304 53.5233C124.337 53.4607 124.237 53.4144 124.083 53.4205C123.928 53.4264 118.677 54.7156 112.414 56.2853ZM66.928 54.3526C66.1418 54.7993 65.9928 55.7631 66.6145 56.379C67.3895 57.1474 68.6966 56.5961 68.686 55.5054C68.6806 54.9478 68.4727 54.6097 67.9728 54.3458C67.5586 54.1271 67.3218 54.1287 66.928 54.3526ZM70.4484 54.3104C70.0146 54.4892 69.7819 54.8016 69.6703 55.355C69.5911 55.748 69.6539 55.9065 70.0408 56.2901C70.6408 56.8847 71.1811 56.8903 71.7686 56.3079C72.3084 55.7729 72.3431 55.2378 71.8718 54.715C71.4818 54.2826 70.9103 54.12 70.4484 54.3104ZM74.0563 54.2763C73.5422 54.4626 73.1365 54.9891 73.1365 55.4703C73.1365 56.1259 73.5523 56.5902 74.2367 56.6987C74.7063 56.7733 74.866 56.7229 75.1949 56.3971C75.8332 55.7644 75.7204 54.7785 74.9651 54.3914C74.5049 54.1554 74.4198 54.1446 74.0563 54.2763ZM67.1579 57.7711C66.2248 58.109 65.941 59.2063 66.6145 59.8736C67.3923 60.6447 68.6909 60.0924 68.6909 58.9907C68.6909 58.5075 68.2434 57.8156 67.931 57.8156C67.8568 57.8156 67.7043 57.7869 67.592 57.7516C67.4797 57.7165 67.2844 57.7252 67.1579 57.7711ZM70.4484 57.805C70.0146 57.9838 69.7819 58.2962 69.6703 58.8495C69.5911 59.2426 69.6539 59.4011 70.0408 59.7847C70.6408 60.3792 71.1811 60.3849 71.7686 59.8025C72.3084 59.2675 72.3431 58.7324 71.8718 58.2096C71.4818 57.7771 70.9103 57.6146 70.4484 57.805ZM117.853 60.1914C117.794 60.2496 117.746 67.0438 117.746 75.2897C117.746 91.3325 117.734 91.0702 118.504 92.142C118.689 92.3983 119.163 92.7966 119.557 93.0266C120.262 93.4368 120.332 93.4459 123.15 93.4949L126.024 93.5447V91.8615V90.1784L124.146 90.1761C123.114 90.1747 122.165 90.1089 122.039 90.0296C121.838 89.9038 121.799 88.0137 121.732 75.0282L121.655 60.1706L119.807 60.1282C118.791 60.1048 117.912 60.1334 117.853 60.1914ZM193.966 60.627C193.098 60.9052 192.286 61.2166 192.162 61.3191C191.964 61.4815 191.94 63.33 191.977 75.728L192.019 89.9505L192.445 90.8106C192.913 91.755 193.718 92.5595 194.733 93.0966C195.358 93.4271 195.579 93.4475 199.033 93.4929L202.673 93.5409V91.8717V90.2025L199.841 90.1524L197.008 90.1024L196.583 89.6812L196.158 89.2601L196.116 80.6061L196.074 71.9522L199.105 71.911L202.137 71.8698L202.181 70.287C202.213 69.1228 202.173 68.6713 202.028 68.5799C201.919 68.5117 200.538 68.4549 198.958 68.4535L196.086 68.4512L196.046 64.3129C196.011 60.7677 195.972 60.1708 195.775 60.148C195.648 60.1334 194.835 60.349 193.966 60.627ZM67.1579 61.267C66.2263 61.5984 65.9412 62.701 66.6145 63.3682C67.3932 64.1402 68.6909 63.587 68.6909 62.4831C68.6909 61.7297 67.8136 61.0338 67.1579 61.267ZM49.2332 65.2051C48.3056 66.3738 49.7704 67.8517 50.9471 66.9343C51.4547 66.5385 51.5865 65.9777 51.3004 65.4297C51.0408 64.9316 50.7895 64.8047 50.0638 64.8047C49.6924 64.8047 49.4633 64.915 49.2332 65.2051ZM52.7746 65.1563C52.0544 65.9163 52.6211 67.2357 53.6677 67.2357C54.7313 67.2357 55.3064 65.8495 54.5393 65.135C54.0531 64.6824 53.2144 64.6925 52.7746 65.1563ZM56.1902 65.1777C55.7789 65.5852 55.7164 66.0107 55.9921 66.5241C56.4453 67.3672 57.2851 67.4723 57.9898 66.7739C58.3798 66.3873 58.4403 66.2323 58.3607 65.8242C58.1641 64.8152 56.9274 64.4469 56.1902 65.1777ZM59.673 65.1563C58.9528 65.9163 59.5195 67.2357 60.5661 67.2357C61.6297 67.2357 62.2048 65.8495 61.4377 65.135C60.9515 64.6824 60.1128 64.6925 59.673 65.1563ZM66.5714 65.1563C65.8512 65.9163 66.4179 67.2357 67.4645 67.2357C68.5281 67.2357 69.1033 65.8495 68.3362 65.135C67.8499 64.6824 67.0112 64.6925 66.5714 65.1563ZM70.088 65.0706C69.9104 65.2169 69.7221 65.5559 69.6698 65.8242C69.4876 66.7596 70.8597 67.6171 71.6169 67.041C72.2945 66.5254 72.3437 65.4722 71.7105 65.0328C71.2689 64.7262 70.4843 64.7444 70.088 65.0706ZM73.4698 65.1563C72.7496 65.9163 73.3163 67.2357 74.3629 67.2357C75.4265 67.2357 76.0017 65.8495 75.2346 65.135C74.7483 64.6824 73.9096 64.6925 73.4698 65.1563ZM77.1574 64.9064C76.9208 65.0007 76.5091 65.7591 76.5091 66.1003C76.5091 66.5149 77.3573 67.2363 77.8386 67.2309C78.9318 67.2187 79.4972 65.9292 78.7388 65.1777C78.3779 64.8199 77.676 64.6996 77.1574 64.9064ZM45.8762 68.6509C45.39 69.1638 45.4238 70.0077 45.9468 70.4153C46.4935 70.8417 47.1539 70.8187 47.6193 70.3573C48.0849 69.896 48.108 69.2415 47.6779 68.6997C47.2535 68.1648 46.3598 68.1407 45.8762 68.6509ZM49.2918 68.6723C48.8612 69.099 48.8192 69.4973 49.1397 70.1116C49.6645 71.1176 51.0809 70.8712 51.4352 69.7123C51.5546 69.3214 51.1895 68.5324 50.8248 68.3937C50.2914 68.1908 49.662 68.3052 49.2918 68.6723ZM52.7746 68.6509C52.2885 69.1638 52.3222 70.0077 52.8452 70.4153C53.3919 70.8417 54.0523 70.8187 54.5177 70.3573C54.9833 69.896 55.0064 69.2415 54.5763 68.6997C54.1519 68.1648 53.2582 68.1407 52.7746 68.6509ZM56.32 68.5274C55.9018 68.8177 55.7357 69.5416 55.982 69.9996C56.4525 70.875 57.3997 70.9971 58.023 70.2628C58.4796 69.7251 58.5067 69.5141 58.1956 68.918C57.8527 68.2607 56.9691 68.0767 56.32 68.5274ZM59.673 68.6509C58.9528 69.4109 59.5195 70.7303 60.5661 70.7303C61.6297 70.7303 62.2048 69.344 61.4377 68.6296C60.9515 68.177 60.1128 68.187 59.673 68.6509ZM63.2185 68.5274C62.5853 68.9668 62.6345 70.02 63.3121 70.5355C63.6252 70.7738 64.4054 70.7738 64.7185 70.5355C65.7284 69.767 65.2668 68.2993 64.0153 68.2993C63.7578 68.2993 63.3992 68.402 63.2185 68.5274ZM66.5714 68.6509C65.8512 69.4109 66.4179 70.7303 67.4645 70.7303C68.5281 70.7303 69.1033 69.344 68.3362 68.6296C67.8499 68.177 67.0112 68.187 66.5714 68.6509ZM70.088 68.5652C69.5526 69.0058 69.5147 69.6824 69.9939 70.2468C70.857 71.2635 72.4255 70.4992 72.1381 69.2023C71.952 68.3619 70.7782 67.9973 70.088 68.5652ZM73.4698 68.6509C72.7496 69.4109 73.3163 70.7303 74.3629 70.7303C75.4265 70.7303 76.0017 69.344 75.2346 68.6296C74.7483 68.177 73.9096 68.187 73.4698 68.6509ZM77.1574 68.401C76.9284 68.4923 76.5091 69.2495 76.5091 69.5716C76.5091 69.6947 76.6877 70.0057 76.906 70.2628C77.523 70.9897 78.4767 70.875 78.9369 70.0186C79.2126 69.5052 79.1501 69.0798 78.7388 68.6723C78.3779 68.3145 77.676 68.1942 77.1574 68.401ZM80.3527 68.6997C79.9226 69.2415 79.9457 69.896 80.4113 70.3573C81.1862 71.1255 82.4877 70.6071 82.4877 69.5303C82.4877 68.3824 81.0487 67.8225 80.3527 68.6997ZM98.0398 68.9481C97.9953 69.0628 97.9789 69.8354 98.0033 70.6651L98.0475 72.1737L103.413 72.2497C109 72.3289 109.272 72.3618 109.618 73.0029C109.704 73.1625 109.775 74.1486 109.775 75.1939C109.775 76.9494 109.748 77.1243 109.43 77.4812C109.136 77.8099 108.306 78.0732 103.873 79.244C98.1541 80.7543 97.7294 80.934 97.051 82.1323C96.6737 82.7987 96.667 82.8714 96.6199 86.739L96.572 90.6684L96.9664 91.4674C97.3863 92.3178 98.1267 92.9395 99.1509 93.3016C99.8904 93.5631 110.435 93.6119 111.357 93.3581C112.128 93.1459 113.117 92.2461 113.517 91.3939C113.829 90.7278 113.838 90.4745 113.881 81.5383C113.93 71.4026 113.919 71.2657 112.979 70.2054C112.723 69.9158 112.121 69.4882 111.642 69.255L110.771 68.8311L104.446 68.7854C99.1946 68.7474 98.1068 68.7749 98.0398 68.9481ZM131.962 68.9204C130.515 69.2585 129.318 70.2411 128.647 71.6419L128.247 72.4776V82.9613V93.445H130.24H132.233L132.31 83.2313L132.386 73.0177L132.735 72.6716C133.075 72.3348 133.176 72.3244 136.595 72.2798L140.105 72.234L140.615 72.6851L141.124 73.1363L141.166 83.3287L141.207 93.521H143.194H145.18L145.222 83.3287L145.263 73.1363L145.764 72.693L146.265 72.2497H149.691C152.91 72.2497 153.141 72.2684 153.515 72.5604C153.735 72.7315 153.985 73.1246 154.072 73.434C154.172 73.7929 154.23 77.537 154.23 83.759L154.231 93.521H156.228H158.225L158.183 82.9233L158.14 72.3257L157.763 71.566C157.232 70.4978 156.104 69.4518 155.116 69.1104C154.406 68.865 153.787 68.8311 150.015 68.8311C145.797 68.8311 145.71 68.8373 144.978 69.1948C144.471 69.4422 144.095 69.7733 143.803 70.2295C143.441 70.7953 143.359 70.8549 143.28 70.6095C143.229 70.4495 142.935 70.0685 142.626 69.7625C141.704 68.8484 141.117 68.7528 136.536 68.7703C134.338 68.7788 132.28 68.8463 131.962 68.9204ZM162.969 70.4947V72.2497H168.189C173.741 72.2497 174.078 72.29 174.462 73.001C174.549 73.1618 174.62 74.1747 174.62 75.252C174.62 77.1067 174.601 77.2284 174.263 77.5432C174 77.7874 172.563 78.2327 168.853 79.2189C166.073 79.9575 163.543 80.6827 163.229 80.8302C162.464 81.1902 161.952 81.8262 161.67 82.7682C161.39 83.7035 161.335 90.038 161.599 90.9801C161.803 91.709 162.506 92.5055 163.412 93.033L164.119 93.445L169.638 93.4924C172.673 93.5184 175.443 93.4982 175.792 93.4475C176.737 93.3101 177.712 92.5981 178.235 91.6623L178.682 90.8621V81.214V71.566L178.344 70.9394C177.941 70.1917 177.247 69.5824 176.306 69.1489C175.647 68.8452 175.334 68.8291 169.293 68.7854L162.969 68.7395V70.4947ZM204.551 68.8557C204.446 68.8979 204.36 69.0282 204.36 69.1451C204.36 69.2623 206.091 74.5725 208.207 80.9457C210.731 88.5449 212.169 92.658 212.385 92.8953C212.974 93.5423 213.82 93.8179 215.226 93.8215C215.933 93.8234 216.774 93.7469 217.095 93.6517C218.363 93.2752 218.252 93.5371 222.434 80.9661C224.55 74.6041 226.281 69.2954 226.281 69.1692C226.281 68.8271 225.945 68.7551 224.345 68.7551C222.815 68.7551 222.122 68.9596 221.918 69.4712C221.566 70.3567 215.847 89.0913 215.694 89.8611C215.592 90.375 215.481 90.7679 215.447 90.7345C215.413 90.7009 215.221 90.0664 215.019 89.3243C214.617 87.8438 209.265 70.897 208.87 69.8535C208.521 68.9332 208.084 68.7524 206.245 68.7671C205.419 68.7737 204.657 68.8136 204.551 68.8557ZM42.3934 72.1669C41.6145 72.9387 42.1726 74.2249 43.2863 74.2249C44.1476 74.2249 44.7365 73.3774 44.4473 72.5546C44.1514 71.7137 43.0587 71.5073 42.3934 72.1669ZM45.8762 72.1455C45.39 72.6584 45.4238 73.5023 45.9468 73.9099C46.4935 74.3363 47.1539 74.3133 47.6193 73.8519C48.0849 73.3906 48.108 72.736 47.6779 72.1942C47.2535 71.6594 46.3598 71.6353 45.8762 72.1455ZM49.2918 72.1669C48.8612 72.5935 48.8192 72.9919 49.1397 73.6062C49.6645 74.6122 51.0809 74.3657 51.4352 73.2069C51.5546 72.816 51.1895 72.027 50.8248 71.8882C50.2914 71.6854 49.662 71.7998 49.2918 72.1669ZM52.7746 72.1455C52.2885 72.6584 52.3222 73.5023 52.8452 73.9099C53.3919 74.3363 54.0523 74.3133 54.5177 73.8519C54.9833 73.3906 55.0064 72.736 54.5763 72.1942C54.1519 71.6594 53.2582 71.6353 52.7746 72.1455ZM56.32 72.0219C55.6688 72.4741 55.7939 73.858 56.5106 74.1305C57.678 74.5745 58.7601 73.4945 58.2081 72.4364C57.853 71.7557 56.9797 71.564 56.32 72.0219ZM59.673 72.1455C58.9528 72.9055 59.5195 74.2249 60.5661 74.2249C61.6297 74.2249 62.2048 72.8386 61.4377 72.1242C60.9515 71.6716 60.1128 71.6816 59.673 72.1455ZM63.2185 72.0219C62.2878 72.6681 62.8525 74.208 64.0246 74.22C64.9452 74.2296 65.5348 73.2573 65.1065 72.4364C64.7514 71.7557 63.8781 71.564 63.2185 72.0219ZM66.5714 72.1455C65.8512 72.9055 66.4179 74.2249 67.4645 74.2249C68.5281 74.2249 69.1033 72.8386 68.3362 72.1242C67.8499 71.6716 67.0112 71.6816 66.5714 72.1455ZM70.259 71.8955C69.939 72.0232 69.5785 72.8615 69.6767 73.2494C69.8687 74.0076 70.7435 74.4257 71.52 74.1305C72.2367 73.858 72.3618 72.4741 71.7105 72.0219C71.3921 71.8009 70.6568 71.7369 70.259 71.8955ZM73.4543 72.1942C73.0242 72.736 73.0473 73.3906 73.5129 73.8519C74.2878 74.6201 75.5893 74.1017 75.5893 73.0249C75.5893 71.877 74.1503 71.3171 73.4543 72.1942ZM77.1574 71.8955C76.9284 71.9868 76.5091 72.7441 76.5091 73.0662C76.5091 73.1893 76.6877 73.5003 76.906 73.7574C77.5112 74.4703 78.4785 74.3966 78.8909 73.6062C79.2114 72.9919 79.1694 72.5935 78.7388 72.1669C78.3779 71.8091 77.676 71.6887 77.1574 71.8955ZM80.3527 72.1942C79.9226 72.736 79.9457 73.3906 80.4113 73.8519C81.1862 74.6201 82.4877 74.1017 82.4877 73.0249C82.4877 71.877 81.0487 71.3171 80.3527 72.1942ZM84.0558 71.8955C83.734 72.0239 83.3828 72.8435 83.4938 73.2069C83.6736 73.7951 84.1915 74.2249 84.7203 74.2249C85.3818 74.2249 85.8503 73.8128 85.9597 73.1344C86.035 72.669 85.9841 72.5107 85.6555 72.1848C85.2765 71.8092 84.5856 71.6843 84.0558 71.8955ZM42.3934 75.6615C41.6145 76.4333 42.1726 77.7195 43.2863 77.7195C44.1244 77.7195 44.7499 76.8543 44.4595 76.0972C44.1247 75.2245 43.0607 74.9999 42.3934 75.6615ZM45.8762 75.64C45.4195 76.122 45.4296 76.9532 45.8976 77.3891C46.6644 78.103 47.9957 77.5412 47.9957 76.504C47.9957 75.4498 46.597 74.8797 45.8762 75.64ZM49.2735 75.6794C48.519 76.4272 49.1101 77.7195 50.2065 77.7195C51.1505 77.7195 51.7423 76.76 51.3096 75.931C50.9069 75.159 49.9214 75.0373 49.2735 75.6794ZM52.7746 75.64C52.2885 76.153 52.3222 76.9968 52.8452 77.4045C54.0822 78.369 55.6261 76.7598 54.5177 75.6615C54.02 75.168 53.2312 75.1582 52.7746 75.64ZM56.32 75.5165C55.6688 75.9687 55.7939 77.3525 56.5106 77.6251C57.678 78.0691 58.7601 76.9891 58.2081 75.931C57.853 75.2503 56.9797 75.0586 56.32 75.5165ZM59.673 75.64C59.1869 76.153 59.2206 76.9968 59.7436 77.4045C60.2903 77.8308 60.9507 77.8079 61.4161 77.3465C61.8817 76.8852 61.9048 76.2306 61.4747 75.6888C61.0504 75.154 60.1566 75.1298 59.673 75.64ZM63.3072 75.4415C62.8617 75.6994 62.6483 76.44 62.868 76.9655C63.088 77.4922 63.434 77.7195 64.0153 77.7195C64.5966 77.7195 64.9426 77.4922 65.1626 76.9655C65.3884 76.4253 65.161 75.6823 64.6943 75.4346C64.3463 75.25 63.6316 75.2537 63.3072 75.4415ZM66.5714 75.64C65.8512 76.4 66.4179 77.7195 67.4645 77.7195C68.5281 77.7195 69.1033 76.3332 68.3362 75.6188C67.8499 75.1661 67.0112 75.1762 66.5714 75.64ZM70.2056 75.4415C69.7601 75.6994 69.5467 76.44 69.7664 76.9655C70.048 77.6394 70.7693 77.9106 71.52 77.6251C72.2367 77.3525 72.3618 75.9687 71.7105 75.5165C71.3426 75.2611 70.5826 75.2231 70.2056 75.4415ZM73.4543 75.6888C73.0242 76.2306 73.0473 76.8852 73.5129 77.3465C74.2878 78.1147 75.5893 77.5962 75.5893 76.5195C75.5893 75.3716 74.1503 74.8117 73.4543 75.6888ZM77.1574 75.3901C76.8374 75.5177 76.4769 76.3561 76.5752 76.744C76.8013 77.6373 77.9486 78.0133 78.673 77.4318C79.1798 77.0251 79.1798 75.9828 78.673 75.5761C78.3367 75.3061 77.5961 75.2152 77.1574 75.3901ZM80.4113 75.6615C79.6324 76.4333 80.1905 77.7195 81.3042 77.7195C81.9893 77.7195 82.4877 77.1986 82.4877 76.4827C82.4877 75.3942 81.1962 74.8834 80.4113 75.6615ZM84.0558 75.3901C83.9486 75.4329 83.7541 75.6726 83.6236 75.9226C83.3523 76.4427 83.5131 77.155 83.9817 77.5075C84.426 77.8418 85.215 77.765 85.6372 77.3465C86.6428 76.3499 85.4255 74.8439 84.0558 75.3901ZM42.3934 79.156C41.6181 79.9242 42.1743 81.2197 43.2748 81.2092C43.8794 81.2034 44.2497 80.9521 44.4595 80.4053C44.9194 79.2063 43.3188 78.2386 42.3934 79.156ZM45.8762 79.1346C45.4195 79.6166 45.4296 80.4478 45.8976 80.8837C46.6644 81.5975 47.9957 81.0358 47.9957 79.9985C47.9957 78.9444 46.597 78.3743 45.8762 79.1346ZM49.3876 79.0489C49.2072 79.1952 49.0188 79.5661 48.9692 79.8735C48.7539 81.2063 50.679 81.7805 51.3096 80.5715C51.9235 79.3952 50.4253 78.2084 49.3876 79.0489ZM52.7746 79.1346C52.3179 79.6166 52.328 80.4478 52.796 80.8837C53.5628 81.5975 54.8941 81.0358 54.8941 79.9985C54.8941 78.9444 53.4954 78.3743 52.7746 79.1346ZM56.4621 78.8847C56.355 78.9275 56.1609 79.1664 56.0309 79.4155C55.5756 80.2881 56.118 81.214 57.0844 81.214C57.6977 81.214 58.0407 80.9949 58.2642 80.4601C58.49 79.9198 58.2626 79.1768 57.7958 78.9292C57.507 78.776 56.7943 78.7522 56.4621 78.8847ZM59.673 79.1346C59.2163 79.6166 59.2264 80.4478 59.6944 80.8837C60.4612 81.5975 61.7925 81.0358 61.7925 79.9985C61.7925 78.9444 60.3938 78.3743 59.673 79.1346ZM63.3072 78.936C62.8617 79.194 62.6483 79.9346 62.868 80.4601C63.088 80.9867 63.434 81.214 64.0153 81.214C64.5966 81.214 64.9426 80.9867 65.1626 80.4601C65.3884 79.9198 65.161 79.1768 64.6943 78.9292C64.3463 78.7446 63.6316 78.7482 63.3072 78.936ZM66.6145 79.156C65.8394 79.9241 66.3624 81.214 67.4489 81.214C68.1755 81.214 68.6909 80.7184 68.6909 80.0198C68.6909 79.3733 68.1056 78.783 67.4645 78.783C67.1659 78.783 66.8516 78.9208 66.6145 79.156ZM70.2056 78.936C69.7601 79.194 69.5467 79.9346 69.7664 80.4601C69.9899 80.9949 70.3329 81.214 70.9462 81.214C71.91 81.214 72.455 80.2881 72.0021 79.4203C71.8735 79.1737 71.6566 78.9293 71.52 78.8774C71.1594 78.7403 70.4923 78.77 70.2056 78.936ZM73.5129 79.156C72.734 79.9279 73.2921 81.214 74.4058 81.214C75.0909 81.214 75.5893 80.6932 75.5893 79.9773C75.5893 78.8888 74.2978 78.378 73.5129 79.156ZM77.104 78.936C76.9676 79.015 76.7695 79.2864 76.6639 79.5391C76.439 80.0771 76.6674 80.8208 77.1332 81.0679C77.5753 81.3025 78.286 81.2371 78.673 80.9264C79.1798 80.5197 79.1798 79.4774 78.673 79.0706C78.2919 78.7648 77.5149 78.6981 77.104 78.936ZM80.4113 79.156C79.6324 79.9279 80.1905 81.214 81.3042 81.214C81.9893 81.214 82.4877 80.6932 82.4877 79.9773C82.4877 78.8888 81.1962 78.378 80.4113 79.156ZM83.8982 79.0912C83.436 79.5178 83.3388 80.0339 83.6193 80.5715C84.0165 81.3328 85.0075 81.4652 85.6372 80.841C86.7482 79.7401 85.0479 78.0294 83.8982 79.0912ZM109.775 85.1744C109.775 87.5663 109.712 89.403 109.625 89.5647C109.347 90.0796 108.614 90.1784 105.071 90.1784C101.426 90.1784 100.778 90.0755 100.436 89.4415C100.34 89.2634 100.27 88.2366 100.27 86.9928C100.27 84.6661 100.428 83.9913 101.062 83.5999C101.259 83.4787 103.007 82.9896 104.946 82.5133C106.885 82.0369 108.713 81.5184 109.008 81.361C109.303 81.2036 109.596 81.072 109.66 81.0685C109.723 81.065 109.775 82.9127 109.775 85.1744ZM174.542 89.3907C174.376 90.0652 173.716 90.1784 169.944 90.1784C166.136 90.1784 165.549 90.0731 165.268 89.3401C165.078 88.8462 165.074 85.4499 165.261 84.6477C165.338 84.3218 165.533 83.9229 165.696 83.7616C165.899 83.5604 167.193 83.1696 169.808 82.5192C171.906 81.9973 173.83 81.4621 174.083 81.33L174.543 81.0896L174.586 85.0643C174.61 87.2502 174.59 89.1972 174.542 89.3907ZM42.3934 82.6506C41.366 83.6687 42.7007 85.2512 44.0039 84.5599C44.3415 84.3809 44.6464 83.5865 44.5172 83.223C44.177 82.2664 43.0794 81.9705 42.3934 82.6506ZM45.9468 82.5926C45.6387 82.8328 45.5429 83.0426 45.5429 83.4776C45.5429 84.2242 46.04 84.7086 46.8064 84.7086C47.8719 84.7086 48.385 83.4094 47.6193 82.6506C47.1539 82.1892 46.4935 82.1662 45.9468 82.5926ZM49.3876 82.5435C49.2072 82.6897 49.0188 83.0607 48.9692 83.3681C48.894 83.8334 48.9449 83.9918 49.2735 84.3177C49.9119 84.9503 50.9066 84.8385 51.2972 84.0899C51.6083 83.4939 51.5811 83.2828 51.1246 82.7451C50.6614 82.1993 49.9188 82.1132 49.3876 82.5435ZM52.8452 82.5926C52.5371 82.8328 52.4413 83.0426 52.4413 83.4776C52.4413 84.2242 52.9384 84.7086 53.7048 84.7086C54.7704 84.7086 55.2834 83.4094 54.5177 82.6506C54.0523 82.1892 53.3919 82.1662 52.8452 82.5926ZM56.4621 82.3792C56.1135 82.5183 55.7881 83.3351 55.893 83.8079C56.0544 84.5362 56.9225 84.9187 57.7232 84.6143C58.0862 84.4761 58.4596 83.6703 58.3538 83.253C58.1627 82.4979 57.2369 82.0704 56.4621 82.3792ZM59.7436 82.5926C59.4355 82.8328 59.3397 83.0426 59.3397 83.4776C59.3397 84.2242 59.8369 84.7086 60.6032 84.7086C61.6688 84.7086 62.1819 83.4094 61.4161 82.6506C60.9507 82.1892 60.2903 82.1662 59.7436 82.5926ZM63.3606 82.3792C63.2534 82.4221 63.0593 82.6609 62.9293 82.9101C62.474 83.7827 63.0164 84.7086 63.9828 84.7086C64.5961 84.7086 64.9391 84.4895 65.1626 83.9547C65.3884 83.4144 65.161 82.6714 64.6943 82.4238C64.4054 82.2706 63.6928 82.2468 63.3606 82.3792ZM66.6145 82.6506C65.8112 83.4466 66.3456 84.7086 67.486 84.7086C68.174 84.7086 68.6909 84.1963 68.6909 83.5144C68.6909 82.8679 68.1056 82.2776 67.4645 82.2776C67.1659 82.2776 66.8516 82.4154 66.6145 82.6506ZM70.1014 82.5857C69.6392 83.0124 69.542 83.5285 69.8225 84.0661C70.0819 84.5634 70.341 84.7086 70.9687 84.7086C71.9108 84.7086 72.4499 83.773 72.0021 82.9148C71.6287 82.199 70.6951 82.0374 70.1014 82.5857ZM73.5129 82.6506C72.7378 83.4187 73.2609 84.7086 74.3473 84.7086C75.1006 84.7086 75.5893 84.2159 75.5893 83.4563C75.5893 82.4002 74.2784 81.8917 73.5129 82.6506ZM76.9998 82.5857C76.5376 83.0124 76.4404 83.5285 76.7209 84.0661C76.9803 84.5634 77.2394 84.7086 77.8672 84.7086C78.8092 84.7086 79.3483 83.773 78.9005 82.9148C78.5271 82.199 77.5935 82.0374 76.9998 82.5857ZM80.4113 82.6506C79.6362 83.4187 80.1593 84.7086 81.2457 84.7086C81.999 84.7086 82.4877 84.2159 82.4877 83.4563C82.4877 82.4002 81.1769 81.8917 80.4113 82.6506ZM83.9117 82.6195C83.4472 83.1225 83.3592 83.5676 83.6238 84.0749C83.883 84.5716 84.1389 84.7086 84.8066 84.7086C85.4168 84.7086 86.0136 84.1075 86.0136 83.4931C86.0136 82.4488 84.6086 81.8648 83.9117 82.6195ZM42.3934 86.1452C41.366 87.1633 42.7007 88.7457 44.0039 88.0544C44.3415 87.8754 44.6464 87.0811 44.5172 86.7175C44.177 85.7609 43.0794 85.4651 42.3934 86.1452ZM45.9468 86.0871C45.6387 86.3274 45.5429 86.5372 45.5429 86.9722C45.5429 87.7188 46.04 88.2032 46.8064 88.2032C47.8719 88.2032 48.385 86.904 47.6193 86.1452C47.1539 85.6837 46.4935 85.6608 45.9468 86.0871ZM49.5637 85.8738C49.3059 85.9767 48.9154 86.7386 48.9154 87.139C48.9154 87.6106 49.5875 88.2032 50.1224 88.2032C50.7901 88.2032 51.046 88.0661 51.3052 87.5694C51.8468 86.5313 50.7044 85.4189 49.5637 85.8738ZM52.8452 86.0871C52.5371 86.3274 52.4413 86.5372 52.4413 86.9722C52.4413 87.7188 52.9384 88.2032 53.7048 88.2032C54.7704 88.2032 55.2834 86.904 54.5177 86.1452C54.0523 85.6837 53.3919 85.6608 52.8452 86.0871ZM56.4621 85.8738C56.1135 86.0128 55.7881 86.8297 55.893 87.3025C56.0544 88.0307 56.9225 88.4133 57.7232 88.1088C58.0862 87.9707 58.4596 87.1648 58.3538 86.7476C58.1627 85.9925 57.2369 85.5649 56.4621 85.8738ZM59.7161 86.1452C58.9128 86.9412 59.4472 88.2032 60.5876 88.2032C61.2756 88.2032 61.7925 87.6908 61.7925 87.0089C61.7925 86.3625 61.2072 85.7722 60.5661 85.7722C60.2675 85.7722 59.9532 85.91 59.7161 86.1452ZM63.3121 85.967C62.3022 86.7355 62.7638 88.2032 64.0153 88.2032C64.6374 88.2032 65.1183 87.8487 65.2397 87.3002C65.4143 86.5123 64.8253 85.7819 64.0153 85.7819C63.7624 85.7819 63.4459 85.8652 63.3121 85.967ZM66.6145 86.1452C65.8112 86.9412 66.3456 88.2032 67.486 88.2032C68.174 88.2032 68.6909 87.6908 68.6909 87.0089C68.6909 86.3625 68.1056 85.7722 67.4645 85.7722C67.1659 85.7722 66.8516 85.91 66.6145 86.1452ZM70.1014 86.0803C69.6392 86.5069 69.542 87.0231 69.8225 87.5606C70.3451 88.5625 71.8971 88.3879 72.1381 87.3002C72.3956 86.1383 70.9658 85.2819 70.1014 86.0803ZM73.5129 86.1452C72.7378 86.9132 73.2609 88.2032 74.3473 88.2032C75.0739 88.2032 75.5893 87.7076 75.5893 87.0089C75.5893 86.3625 75.004 85.7722 74.3629 85.7722C74.0643 85.7722 73.75 85.91 73.5129 86.1452ZM76.906 86.2397C76.4495 86.7774 76.4223 86.9884 76.7334 87.5845C77.1184 88.3225 78.1186 88.4451 78.7388 87.8302C79.1694 87.4035 79.2114 87.0051 78.8909 86.3909C78.4785 85.6005 77.5112 85.5268 76.906 86.2397ZM80.4113 86.1452C79.6362 86.9132 80.1593 88.2032 81.2457 88.2032C81.999 88.2032 82.4877 87.7104 82.4877 86.9509C82.4877 85.8948 81.1769 85.3862 80.4113 86.1452ZM83.9117 86.114C83.4472 86.6171 83.3592 87.0621 83.6238 87.5694C84.0222 88.3328 85.011 88.451 85.6555 87.8122C86.4108 87.0636 85.8187 85.7722 84.7203 85.7722C84.4048 85.7722 84.1137 85.8952 83.9117 86.114ZM42.4892 89.5326C41.6332 90.2261 42.1081 91.6978 43.1879 91.6978C43.91 91.6978 44.2526 91.4905 44.4477 90.9356C44.8576 89.77 43.4453 88.7582 42.4892 89.5326ZM45.9468 89.5817C45.6387 89.8219 45.5429 90.0318 45.5429 90.4668C45.5429 91.2134 46.04 91.6978 46.8064 91.6978C47.8719 91.6978 48.385 90.3985 47.6193 89.6397C47.1539 89.1783 46.4935 89.1554 45.9468 89.5817ZM49.5637 89.3684C49.3059 89.4713 48.9154 90.2332 48.9154 90.6336C48.9154 91.3639 50.0025 91.9161 50.8248 91.6034C51.1985 91.4612 51.5427 90.6947 51.4309 90.2533C51.248 89.5314 50.2916 89.0782 49.5637 89.3684ZM52.8452 89.5817C52.5371 89.8219 52.4413 90.0318 52.4413 90.4668C52.4413 91.2134 52.9384 91.6978 53.7048 91.6978C54.7704 91.6978 55.2834 90.3985 54.5177 89.6397C54.0523 89.1783 53.3919 89.1554 52.8452 89.5817ZM56.4137 89.4615C55.43 90.2101 55.8612 91.6978 57.0619 91.6978C57.6833 91.6978 57.9482 91.5533 58.1956 91.0791C58.5067 90.483 58.4796 90.272 58.023 89.7343C57.5943 89.2292 56.8785 89.1078 56.4137 89.4615ZM59.7161 89.6397C58.9128 90.4358 59.4472 91.6978 60.5876 91.6978C61.2756 91.6978 61.7925 91.1854 61.7925 90.5035C61.7925 89.857 61.2072 89.2667 60.5661 89.2667C60.2675 89.2667 59.9532 89.4045 59.7161 89.6397ZM63.3121 89.4615C62.3022 90.23 62.7638 91.6978 64.0153 91.6978C64.6374 91.6978 65.1183 91.3433 65.2397 90.7948C65.4143 90.0068 64.8253 89.2765 64.0153 89.2765C63.7624 89.2765 63.4459 89.3597 63.3121 89.4615ZM66.6145 89.6397C65.8112 90.4358 66.3456 91.6978 67.486 91.6978C68.174 91.6978 68.6909 91.1854 68.6909 90.5035C68.6909 89.857 68.1056 89.2667 67.4645 89.2667C67.1659 89.2667 66.8516 89.4045 66.6145 89.6397ZM69.9939 89.7502C69.6726 90.1287 69.6032 90.3349 69.6741 90.6998C69.9232 91.9801 71.8589 92.0547 72.1381 90.7948C72.4255 89.4978 70.857 88.7336 69.9939 89.7502ZM73.5129 89.6397C72.7096 90.4358 73.244 91.6978 74.3844 91.6978C75.0724 91.6978 75.5893 91.1854 75.5893 90.5035C75.5893 89.857 75.004 89.2667 74.3629 89.2667C74.0643 89.2667 73.75 89.4045 73.5129 89.6397ZM76.906 89.7343C76.4495 90.272 76.4223 90.483 76.7334 91.0791C76.9848 91.561 77.2446 91.6978 77.9082 91.6978C78.4443 91.6978 79.1152 91.1049 79.1152 90.6311C79.1152 89.3859 77.6922 88.8082 76.906 89.7343ZM80.4113 89.6397C79.6362 90.4078 80.1593 91.6978 81.2457 91.6978C81.999 91.6978 82.4877 91.205 82.4877 90.4455C82.4877 89.3894 81.1769 88.8808 80.4113 89.6397ZM83.9819 89.5682C83.4743 89.964 83.3425 90.5248 83.6285 91.0728C84.0167 91.817 85.0145 91.9421 85.6372 91.3247C86.0678 90.8981 86.1098 90.4997 85.7893 89.8854C85.4267 89.1906 84.6428 89.053 83.9819 89.5682ZM45.9468 93.0763C45.2061 93.6538 45.5414 95.1522 46.4243 95.2098C47.0428 95.2502 47.3245 95.1549 47.6507 94.7956C48.6827 93.6587 47.1646 92.1268 45.9468 93.0763ZM49.5153 92.9561C48.8629 93.4526 48.754 94.2379 49.2604 94.7956C50.1099 95.7316 51.7346 94.9472 51.4309 93.7479C51.2319 92.9619 50.1145 92.5001 49.5153 92.9561ZM52.8176 93.1343C52.0144 93.9303 52.5488 95.1923 53.6891 95.1923C54.3771 95.1923 54.8941 94.68 54.8941 93.9981C54.8941 93.3516 54.3088 92.7613 53.6677 92.7613C53.3691 92.7613 53.0548 92.8991 52.8176 93.1343ZM56.4137 92.9561C55.7824 93.4365 55.6584 94.1959 56.1169 94.7736C56.8638 95.7145 58.4199 95.1101 58.4199 93.8793C58.4199 93.7529 58.2183 93.4497 57.9718 93.2054C57.4925 92.7303 56.8463 92.627 56.4137 92.9561ZM59.7161 93.1343C58.9128 93.9303 59.4472 95.1923 60.5876 95.1923C61.2756 95.1923 61.7925 94.68 61.7925 93.9981C61.7925 93.3516 61.2072 92.7613 60.5661 92.7613C60.2675 92.7613 59.9532 92.8991 59.7161 93.1343ZM63.1604 93.2054C62.9138 93.4497 62.7123 93.7529 62.7123 93.8793C62.7123 94.7712 63.6054 95.4436 64.4172 95.1632C64.9506 94.9789 65.1384 94.7546 65.2587 94.1584C65.3379 93.7653 65.2751 93.6069 64.8882 93.2232C64.2882 92.6287 63.7479 92.6231 63.1604 93.2054ZM66.6145 93.1343C65.8112 93.9303 66.3456 95.1923 67.486 95.1923C68.174 95.1923 68.6909 94.68 68.6909 93.9981C68.6909 93.3516 68.1056 92.7613 67.4645 92.7613C67.1659 92.7613 66.8516 92.8991 66.6145 93.1343ZM70.0408 93.2232C69.6539 93.6069 69.5911 93.7653 69.6703 94.1584C69.8592 95.094 70.6333 95.4853 71.4659 95.0658C72.6797 94.4542 72.2037 92.7613 70.818 92.7613C70.647 92.7613 70.2971 92.9692 70.0408 93.2232ZM73.5129 93.1343C72.7096 93.9303 73.244 95.1923 74.3844 95.1923C75.0724 95.1923 75.5893 94.68 75.5893 93.9981C75.5893 93.3516 75.004 92.7613 74.3629 92.7613C74.0643 92.7613 73.75 92.8991 73.5129 93.1343ZM76.9572 93.2054C76.449 93.7091 76.4107 93.9554 76.7418 94.5899C77.1342 95.342 78.1782 95.4479 78.7702 94.7956C79.1536 94.3732 79.2044 93.9709 78.9369 93.473C78.4888 92.6393 77.6436 92.5251 76.9572 93.2054ZM80.4113 93.1343C79.6273 93.9112 80.1597 95.1923 81.2665 95.1923C82.0168 95.1923 82.4877 94.7392 82.4877 94.0172C82.4877 93.351 81.9119 92.7613 81.2613 92.7613C80.9627 92.7613 80.6484 92.8991 80.4113 93.1343ZM45.9468 96.5709C45.6482 96.8036 45.5429 97.0241 45.5429 97.4164C45.5429 98.132 45.752 98.4716 46.3118 98.665C47.5686 99.0993 48.5576 97.5588 47.6193 96.6289C47.1539 96.1675 46.4935 96.1445 45.9468 96.5709ZM49.5844 96.4337C49.2295 96.604 48.9154 97.1619 48.9154 97.622C48.9154 97.9985 49.5211 98.6594 49.9119 98.7094C50.503 98.7849 51.055 98.5325 51.292 98.0782C51.8597 96.9904 50.7172 95.89 49.5844 96.4337ZM52.8176 96.6289C52.1522 97.2883 52.3604 98.3713 53.2089 98.6646C53.7431 98.8492 54.0589 98.7712 54.5491 98.3339C55.3127 97.6527 54.7202 96.2559 53.6677 96.2559C53.3691 96.2559 53.0548 96.3937 52.8176 96.6289ZM56.2619 96.7C55.7383 97.219 55.6909 97.7312 56.1169 98.2682C56.8638 99.2091 58.4199 98.6047 58.4199 97.3738C58.4199 96.9916 57.5625 96.2559 57.1169 96.2559C56.8716 96.2559 56.5321 96.4323 56.2619 96.7ZM59.7161 96.6289C59.2056 97.1347 59.2082 97.9037 59.7217 98.3818C60.9003 99.4793 62.5599 97.7624 61.4161 96.6289C61.179 96.3937 60.8647 96.2559 60.5661 96.2559C60.2675 96.2559 59.9532 96.3937 59.7161 96.6289ZM63.1424 96.7178C62.7507 97.1061 62.692 97.2573 62.7747 97.6669C62.9151 98.3624 63.3342 98.7173 64.0153 98.7173C64.6964 98.7173 65.1155 98.3624 65.2559 97.6669C65.3386 97.2573 65.2799 97.1061 64.8882 96.7178C64.6032 96.4353 64.2641 96.2559 64.0153 96.2559C63.7665 96.2559 63.4274 96.4353 63.1424 96.7178ZM66.6145 96.6289C66.104 97.1347 66.1066 97.9037 66.6201 98.3818C67.7987 99.4793 69.4583 97.7624 68.3145 96.6289C68.0774 96.3937 67.7631 96.2559 67.4645 96.2559C67.1659 96.2559 66.8516 96.3937 66.6145 96.6289ZM70.0588 96.7C69.8123 96.9443 69.6107 97.2474 69.6107 97.3738C69.6107 97.8883 69.9421 98.4081 70.389 98.5942C71.266 98.9598 71.9685 98.5874 72.1562 97.6574C72.2365 97.2591 72.1752 97.1029 71.7866 96.7178C71.1866 96.1232 70.6464 96.1176 70.0588 96.7ZM73.5129 96.6289C72.8247 97.3108 73.125 98.3962 74.096 98.736C74.4362 98.8551 75.1193 98.6035 75.3803 98.2631C75.9545 97.5141 75.3167 96.2559 74.3629 96.2559C74.0643 96.2559 73.75 96.3937 73.5129 96.6289ZM76.9572 96.7C76.4735 97.1794 76.4262 97.3874 76.6612 98.0001C76.8362 98.4564 77.5889 98.8244 78.1351 98.7209C78.565 98.6395 79.1152 98.0159 79.1152 97.61C79.1152 96.8718 78.479 96.2559 77.7165 96.2559C77.5454 96.2559 77.2037 96.4557 76.9572 96.7ZM80.4113 96.6289C79.4608 97.5708 80.447 99.1044 81.7201 98.6646C82.9772 98.2302 82.6011 96.2559 81.2613 96.2559C80.9627 96.2559 80.6484 96.3937 80.4113 96.6289ZM139.208 102.409V106.74H139.591H139.974V102.409V98.0791H139.591H139.208V102.409ZM107.475 99.0567C107.475 99.5599 107.509 99.5985 107.945 99.5985C108.382 99.5985 108.411 99.5648 108.366 99.1047C108.326 98.6933 108.248 98.6029 107.897 98.5629C107.507 98.5184 107.475 98.5552 107.475 99.0567ZM113.25 98.6363C113.193 98.6919 113.146 99.3244 113.145 100.042C113.144 100.759 113.092 101.273 113.03 101.185C112.763 100.804 112.115 100.51 111.542 100.511C110.2 100.512 109.413 101.521 109.408 103.245C109.403 105.083 110.367 106.225 111.811 106.091C112.298 106.046 112.671 105.906 112.922 105.671L113.301 105.319V105.65C113.301 105.901 113.393 105.98 113.684 105.98H114.067V102.257V98.535H113.709C113.513 98.535 113.306 98.5805 113.25 98.6363ZM121.119 102.247V105.98H121.579C121.904 105.98 122.039 105.907 122.039 105.728C122.039 105.502 122.069 105.504 122.344 105.751C122.512 105.902 122.974 106.054 123.378 106.092C124.289 106.176 125.036 105.731 125.487 104.838C125.89 104.039 125.905 102.324 125.515 101.605C124.957 100.577 123.55 100.2 122.543 100.809L122.051 101.106L122.006 99.8585C121.962 98.6229 121.958 98.6105 121.54 98.5629L121.119 98.5148V102.247ZM132.718 98.6363C132.662 98.6919 132.616 100.367 132.616 102.359V105.98H133.076H133.536V102.257V98.535H133.178C132.981 98.535 132.775 98.5805 132.718 98.6363ZM184.664 98.6825C184.613 98.7635 184.677 99.0313 184.805 99.2775C185.076 99.796 185.918 100.136 186.547 99.9816C187.117 99.8415 187.65 99.3127 187.65 98.8884C187.65 98.4178 187.493 98.4429 187.008 98.9908C186.748 99.2851 186.459 99.4466 186.192 99.4466C185.932 99.4466 185.622 99.2787 185.351 98.9908C184.884 98.4958 184.803 98.4593 184.664 98.6825ZM97.2872 99.1807C97.2538 99.2852 97.1821 99.7637 97.1278 100.244C97.0296 101.113 97.026 101.118 96.5198 101.118C96.197 101.118 95.9767 101.206 95.9177 101.358C95.7776 101.72 95.7843 101.726 96.3612 101.726C96.9368 101.726 96.9521 101.759 96.7993 102.675C96.7122 103.198 96.6627 103.245 96.2057 103.245C95.836 103.245 95.6864 103.324 95.6269 103.549C95.5584 103.809 95.6223 103.853 96.069 103.853C96.6532 103.853 96.6739 103.928 96.453 105.258C96.3394 105.942 96.3514 105.98 96.6811 105.98C96.9909 105.98 97.0398 105.885 97.1278 105.106C97.2685 103.861 97.2739 103.853 97.9803 103.853H98.6128L98.5107 104.65C98.4545 105.089 98.3744 105.568 98.3326 105.714C98.2751 105.915 98.3479 105.98 98.6324 105.98C98.9809 105.98 99.0177 105.906 99.1409 104.954L99.2738 103.929L99.8487 103.882C100.299 103.845 100.424 103.771 100.424 103.54C100.424 103.305 100.316 103.245 99.8967 103.245C99.3758 103.245 99.3707 103.239 99.4498 102.675C99.5763 101.776 99.6154 101.726 100.189 101.726C100.628 101.726 100.73 101.668 100.73 101.422C100.73 101.174 100.628 101.118 100.182 101.118C99.6655 101.118 99.6375 101.093 99.7133 100.7C99.7576 100.47 99.8392 99.986 99.8944 99.6239C99.9902 98.9968 99.9778 98.968 99.6344 99.0161C99.3125 99.0613 99.2596 99.1767 99.1409 100.092L99.008 101.118H98.3258C97.7493 101.118 97.6553 101.077 97.7194 100.852C97.7612 100.706 97.8413 100.227 97.8975 99.7884C97.9927 99.0447 97.9776 98.9908 97.6737 98.9908C97.4947 98.9908 97.3207 99.0763 97.2872 99.1807ZM146.337 99.7125C146.155 101.108 146.149 101.118 145.567 101.118C145.136 101.118 145.033 101.176 145.033 101.422C145.033 101.665 145.136 101.726 145.549 101.726C146.024 101.726 146.059 101.758 145.999 102.143C145.831 103.228 145.82 103.245 145.26 103.245C144.829 103.245 144.727 103.303 144.727 103.549C144.727 103.796 144.829 103.853 145.274 103.853C145.721 103.853 145.807 103.901 145.745 104.119C145.703 104.265 145.623 104.744 145.566 105.182C145.472 105.921 145.488 105.98 145.782 105.98C146.119 105.98 146.17 105.851 146.337 104.574L146.432 103.853H147.088H147.744L147.624 104.574C147.428 105.757 147.452 105.98 147.781 105.98C148.082 105.98 148.127 105.861 148.334 104.499C148.428 103.884 148.458 103.853 148.956 103.853C149.377 103.853 149.479 103.793 149.479 103.549C149.479 103.312 149.377 103.245 149.019 103.245C148.522 103.245 148.473 103.104 148.655 102.2C148.739 101.785 148.813 101.726 149.25 101.726C149.621 101.726 149.771 101.647 149.83 101.422C149.899 101.161 149.835 101.118 149.372 101.118H148.835L148.942 100.054C149.044 99.0543 149.032 98.9908 148.741 98.9908C148.496 98.9908 148.413 99.1228 148.334 99.6365C148.102 101.166 148.13 101.118 147.474 101.118C146.8 101.118 146.785 101.072 147.011 99.7125C147.125 99.0278 147.113 98.9908 146.781 98.9908C146.48 98.9908 146.419 99.0898 146.337 99.7125ZM49.3635 100.195C48.8394 100.714 48.7925 101.226 49.2196 101.764C49.6257 102.276 50.1846 102.398 50.763 102.101C51.6089 101.668 51.7012 100.64 50.9471 100.052C50.4041 99.6286 49.8877 99.6751 49.3635 100.195ZM52.8176 100.123C52.1522 100.783 52.3604 101.866 53.2089 102.159C53.7431 102.344 54.0589 102.266 54.5491 101.829C55.3127 101.147 54.7202 99.7505 53.6677 99.7505C53.3691 99.7505 53.0548 99.8883 52.8176 100.123ZM56.2619 100.195C55.716 100.736 55.6886 101.261 56.1772 101.824C56.8899 102.645 58.1345 102.267 58.3575 101.162C58.4402 100.752 58.3814 100.601 57.9898 100.212C57.3898 99.6178 56.8495 99.6122 56.2619 100.195ZM59.7161 100.123C59.0486 100.785 59.2752 101.839 60.1557 102.171C60.6277 102.349 60.9641 102.26 61.4476 101.829C62.2111 101.147 61.6186 99.7505 60.5661 99.7505C60.2675 99.7505 59.9532 99.8883 59.7161 100.123ZM63.1424 100.212C62.7507 100.601 62.692 100.752 62.7747 101.162C62.9135 101.85 63.3642 102.242 64.0153 102.242C64.6664 102.242 65.117 101.85 65.2559 101.162C65.3386 100.752 65.2799 100.601 64.8882 100.212C64.6032 99.9299 64.2641 99.7505 64.0153 99.7505C63.7665 99.7505 63.4274 99.9299 63.1424 100.212ZM66.6145 100.123C65.9263 100.805 66.2266 101.891 67.1976 102.231C67.5378 102.35 68.2209 102.098 68.4819 101.758C69.056 101.009 68.4183 99.7505 67.4645 99.7505C67.1659 99.7505 66.8516 99.8883 66.6145 100.123ZM70.0408 100.212C69.6492 100.601 69.5904 100.752 69.6731 101.162C69.8961 102.267 71.1407 102.645 71.8534 101.824C72.342 101.261 72.3145 100.736 71.7686 100.195C71.1811 99.6122 70.6408 99.6178 70.0408 100.212ZM73.5129 100.123C72.5624 101.065 73.5486 102.599 74.8217 102.159C76.0788 101.725 75.7027 99.7505 74.3629 99.7505C74.0643 99.7505 73.75 99.8883 73.5129 100.123ZM77.0236 100.111C76.1358 100.868 76.655 102.242 77.8285 102.242C78.2495 102.242 78.4785 102.138 78.7518 101.824C79.2404 101.261 79.213 100.736 78.6671 100.195C78.121 99.6535 77.5915 99.6263 77.0236 100.111ZM116.597 100.723C115.716 101.109 115.16 102.11 115.147 103.336C115.129 104.993 116.138 106.132 117.624 106.132C118.559 106.131 119.288 105.72 119.712 104.954L120.069 104.309H119.664C119.399 104.309 119.083 104.493 118.753 104.84C118.131 105.493 117.373 105.565 116.756 105.03C116.37 104.696 116.001 103.81 116.176 103.636C116.225 103.588 117.124 103.549 118.175 103.549H120.086L120.012 102.897C119.907 101.979 119.461 101.131 118.908 100.797C118.355 100.463 117.271 100.428 116.597 100.723ZM127.848 100.853C126.329 101.854 126.257 104.659 127.724 105.716C128.171 106.038 129.186 106.217 129.759 106.075C130.32 105.935 131.093 105.233 131.346 104.633C131.705 103.782 131.626 102.425 131.173 101.658C130.501 100.522 128.929 100.141 127.848 100.853ZM151.763 100.853C151.476 101.042 151.082 101.504 150.886 101.879C150.592 102.441 150.542 102.727 150.599 103.504C150.719 105.123 151.477 105.982 152.884 106.094C153.55 106.147 153.788 106.096 154.217 105.804C155.593 104.868 155.957 103.15 155.099 101.652C154.462 100.539 152.832 100.149 151.763 100.853ZM157.834 100.648C157.397 100.839 156.732 101.575 156.54 102.077C156.451 102.313 156.377 102.929 156.377 103.447C156.377 105.049 157.106 105.962 158.487 106.094C159.631 106.203 160.439 105.697 160.793 104.65C160.955 104.174 160.946 104.157 160.547 104.163C160.252 104.167 160.045 104.307 159.826 104.653C159.452 105.242 158.842 105.488 158.255 105.286C157.044 104.87 156.969 101.978 158.155 101.443C158.952 101.083 159.597 101.297 159.901 102.024C160.037 102.35 160.198 102.485 160.449 102.485C160.901 102.485 160.962 102.368 160.804 101.793C160.587 101.003 160.021 100.612 159.02 100.559C158.536 100.534 158.002 100.574 157.834 100.648ZM167.449 100.806C167.004 101.083 166.648 101.631 166.648 102.039C166.648 102.118 166.855 102.181 167.108 102.181C167.391 102.181 167.568 102.103 167.568 101.977C167.568 101.579 168.115 101.27 168.821 101.27C169.584 101.27 170.021 101.59 170.021 102.15C170.021 102.573 169.692 102.731 168.546 102.86C168.03 102.919 167.39 103.098 167.124 103.258C166.188 103.822 166.124 105.036 166.991 105.759C167.412 106.11 167.583 106.156 168.265 106.1C168.746 106.06 169.238 105.904 169.529 105.699C169.998 105.368 170.007 105.367 170.166 105.661C170.359 106.018 170.826 106.189 171.247 106.056C171.648 105.93 171.658 105.372 171.259 105.372C170.987 105.372 170.961 105.226 170.914 103.4C170.865 101.483 170.852 101.416 170.444 101.012C170.084 100.656 169.875 100.589 168.988 100.545C168.148 100.504 167.856 100.553 167.449 100.806ZM178.876 100.74C178.481 100.96 177.992 101.669 177.992 102.022C177.992 102.11 178.199 102.181 178.452 102.181C178.735 102.181 178.912 102.103 178.912 101.977C178.912 101.579 179.459 101.27 180.165 101.27C180.928 101.27 181.365 101.59 181.365 102.15C181.365 102.568 181.043 102.725 179.909 102.862C178.718 103.005 178.173 103.296 177.906 103.929C177.614 104.622 177.775 105.292 178.35 105.771C178.755 106.109 178.932 106.155 179.609 106.1C180.09 106.06 180.582 105.904 180.873 105.699C181.342 105.368 181.351 105.367 181.51 105.661C181.825 106.243 182.898 106.247 182.898 105.666C182.898 105.474 182.792 105.372 182.591 105.372C182.301 105.372 182.285 105.271 182.285 103.475C182.285 101.6 182.28 101.573 181.843 101.088C181.437 100.639 181.314 100.594 180.348 100.552C179.611 100.519 179.17 100.576 178.876 100.74ZM190.714 100.791C189.896 101.222 189.445 102.149 189.445 103.403C189.445 105.046 190.175 105.958 191.599 106.094C192.518 106.182 193.207 105.87 193.635 105.175C194.048 104.503 194.025 104.157 193.567 104.157C193.31 104.157 193.105 104.315 192.886 104.684C192.549 105.248 192.033 105.466 191.401 105.309C190.052 104.973 190.079 101.747 191.434 101.368C192.177 101.161 192.681 101.354 192.972 101.958C193.154 102.336 193.326 102.485 193.58 102.485C194.006 102.485 194.052 102.086 193.703 101.417C193.243 100.535 191.782 100.229 190.714 100.791ZM207.333 100.727C205.785 101.395 205.442 104.156 206.746 105.448C207.312 106.009 208.032 106.222 208.892 106.084C210.151 105.881 210.875 104.844 210.874 103.245C210.873 102.106 210.466 101.283 209.665 100.799C209.105 100.461 208.027 100.428 207.333 100.727ZM220.209 100.659C219.789 100.827 219.23 101.535 219.23 101.898C219.23 102.339 219.967 102.278 220.141 101.822C220.302 101.402 220.586 101.27 221.322 101.27C222.139 101.27 222.449 101.5 222.449 102.108C222.449 102.687 222.518 102.654 220.763 102.929C219.957 103.056 219.685 103.174 219.345 103.548C218.885 104.051 218.804 104.644 219.106 105.3C219.5 106.158 220.865 106.39 221.891 105.775L222.483 105.42L222.852 105.786C223.301 106.23 223.884 106.202 223.951 105.734C223.983 105.514 223.898 105.386 223.683 105.33C223.388 105.254 223.369 105.137 223.369 103.401C223.369 102.385 223.298 101.422 223.211 101.261C223.124 101.101 222.851 100.866 222.605 100.74C222.125 100.493 220.739 100.447 220.209 100.659ZM101.651 102.523C101.652 105.502 101.941 106.056 103.493 106.056C104.226 106.056 104.455 105.99 104.78 105.688C105.175 105.32 105.176 105.32 105.176 105.65C105.176 105.915 105.266 105.98 105.636 105.98H106.096V103.321V100.662H105.636H105.176V102.348C105.176 103.556 105.108 104.176 104.939 104.53C104.54 105.363 103.476 105.641 102.938 105.053C102.688 104.779 102.639 104.443 102.596 102.698L102.546 100.662H102.098H101.65L101.651 102.523ZM107.475 103.321V105.98H107.935H108.395V103.321V100.662H107.935H107.475V103.321ZM161.436 101.042C161.436 101.401 161.482 101.422 162.279 101.422H163.122V103.701V105.98H163.582H164.042V103.701V101.422H164.962C165.841 101.422 165.882 101.405 165.882 101.042V100.662H163.659H161.436V101.042ZM172.474 103.334V106.005L174.301 105.955C175.988 105.908 176.159 105.876 176.524 105.536C177.059 105.037 177.079 104.055 176.565 103.575C176.369 103.394 176.118 103.245 176.006 103.245C175.89 103.245 175.978 103.083 176.207 102.872C176.47 102.631 176.613 102.341 176.613 102.049C176.613 100.927 176.116 100.662 174.014 100.662H172.474V103.334ZM183.818 103.321V105.98L184.316 105.97C184.784 105.962 184.894 105.839 186.117 103.964L187.42 101.968L187.463 103.974L187.506 105.98H187.961H188.417V103.321V100.662H187.902C187.412 100.662 187.323 100.757 186.1 102.587L184.814 104.512L184.771 102.587L184.728 100.662H184.273H183.818V103.321ZM195.362 100.959C194.473 101.496 194.534 102.95 195.468 103.497L195.888 103.743L195.295 104.763C194.969 105.324 194.702 105.827 194.702 105.881C194.702 105.936 194.904 105.98 195.151 105.98C195.55 105.98 195.674 105.852 196.255 104.84C196.889 103.736 196.927 103.701 197.492 103.701H198.074V104.84V105.98H198.534H198.994V103.321V100.662L197.423 100.663C196.136 100.663 195.763 100.717 195.362 100.959ZM200.945 102.295C200.846 104.206 200.576 105.122 200.091 105.193C199.785 105.238 199.761 105.329 199.761 106.446C199.761 107.63 199.767 107.651 200.144 107.651C200.506 107.651 200.527 107.606 200.527 106.816V105.98H202.512H204.497L204.543 106.778C204.584 107.473 204.634 107.581 204.935 107.624C205.268 107.671 205.279 107.631 205.279 106.446C205.279 105.458 205.235 105.22 205.049 105.22C204.855 105.22 204.82 104.866 204.82 102.941V100.662H202.925H201.03L200.945 102.295ZM212.025 103.312V105.98H212.507H212.99L212.908 103.815C212.858 102.486 212.879 101.767 212.963 101.954C213.039 102.121 213.432 103.078 213.837 104.081C214.477 105.664 214.62 105.904 214.924 105.904C215.229 105.904 215.377 105.647 216.097 103.87C216.55 102.752 216.94 101.817 216.963 101.794C216.987 101.77 216.983 102.702 216.954 103.865L216.901 105.98H217.375H217.85V103.312V100.645L217.202 100.691L216.555 100.738L215.8 102.675C215.385 103.741 214.997 104.612 214.937 104.612C214.878 104.612 214.489 103.741 214.074 102.675L213.32 100.738L212.672 100.691L212.025 100.645V103.312ZM112.641 101.636C113.05 101.986 113.071 102.066 113.071 103.321C113.071 104.576 113.05 104.656 112.641 105.006C111.729 105.782 110.669 105.289 110.401 103.964C109.996 101.968 111.363 100.548 112.641 101.636ZM118.685 101.677C118.839 101.83 119.01 102.177 119.065 102.448L119.164 102.941H117.714C116.917 102.941 116.224 102.901 116.175 102.852C116.005 102.684 116.398 101.875 116.803 101.558C117.291 101.178 118.242 101.237 118.685 101.677ZM124.413 101.662C124.816 102.093 125.055 103.343 124.883 104.12C124.577 105.499 122.871 105.773 122.279 104.538C121.8 103.536 122.067 101.838 122.767 101.434C123.275 101.141 124.022 101.244 124.413 101.662ZM129.865 101.426C130.334 101.675 130.623 102.401 130.623 103.328C130.623 104.292 130.316 104.95 129.748 105.207C128.469 105.785 127.425 104.663 127.596 102.895C127.657 102.272 127.764 102.041 128.153 101.697C128.661 101.247 129.329 101.142 129.865 101.426ZM153.998 101.632C154.916 102.542 154.773 104.631 153.757 105.151C152.884 105.599 152.075 105.294 151.686 104.37C151.263 103.368 151.533 102.02 152.256 101.518C152.785 101.151 153.563 101.202 153.998 101.632ZM209.317 101.582C210.169 102.245 210.225 104.141 209.417 104.941C208.922 105.432 208.164 105.518 207.626 105.145C207.11 104.786 206.756 103.691 206.884 102.847C207.091 101.478 208.347 100.825 209.317 101.582ZM175.666 102.014C175.73 102.674 175.542 102.784 174.352 102.787L173.393 102.789V102.099V101.408L174.505 101.453L175.616 101.498L175.666 102.014ZM198.044 102.219L197.998 103.017L197.046 103.003C195.963 102.986 195.622 102.787 195.622 102.17C195.622 101.598 195.957 101.432 197.124 101.426L198.091 101.422L198.044 102.219ZM203.9 103.321V105.22H202.612H201.324L201.539 104.512C201.657 104.123 201.754 103.268 201.754 102.613V101.422H202.827H203.9V103.321ZM98.8889 101.916C98.888 102.02 98.8438 102.365 98.7909 102.683C98.6961 103.252 98.6858 103.26 98.0645 103.215L97.4343 103.169L97.4875 102.561C97.5167 102.227 97.5725 101.902 97.6115 101.84C97.7353 101.64 98.8907 101.709 98.8889 101.916ZM147.946 102.245C147.946 103.089 147.824 103.245 147.163 103.245C146.515 103.245 146.47 103.152 146.662 102.2C146.75 101.767 146.809 101.726 147.352 101.726C147.926 101.726 147.946 101.743 147.946 102.245ZM52.8357 103.6C52.1913 104.239 52.3105 105.219 53.0807 105.614C54.2441 106.21 55.4556 104.719 54.6258 103.713C54.4782 103.534 54.104 103.347 53.7938 103.298C53.3243 103.224 53.1646 103.274 52.8357 103.6ZM56.2619 103.689C55.716 104.23 55.6886 104.755 56.1772 105.318C56.9409 106.198 58.3279 105.683 58.3279 104.52C58.3279 104.103 58.2231 103.876 57.9054 103.605C57.3375 103.121 56.808 103.148 56.2619 103.689ZM59.7341 103.6C59.0863 104.242 59.2091 105.219 59.988 105.618C60.8244 106.047 61.7925 105.46 61.7925 104.525C61.7925 103.871 61.376 103.407 60.6923 103.298C60.2227 103.224 60.063 103.274 59.7341 103.6ZM66.8996 103.398C66.2843 103.644 66.0178 104.695 66.4346 105.233C67.1978 106.218 68.6909 105.734 68.6909 104.501C68.6909 103.567 67.8198 103.03 66.8996 103.398ZM70.0408 103.707C69.6492 104.095 69.5904 104.246 69.6731 104.656C69.8961 105.761 71.1407 106.139 71.8534 105.318C72.342 104.755 72.3145 104.23 71.7686 103.689C71.1811 103.107 70.6408 103.112 70.0408 103.707ZM73.798 103.398C73.0855 103.683 72.9018 104.802 73.4814 105.328C73.6712 105.5 73.9781 105.687 74.1636 105.742C74.5581 105.861 75.3541 105.499 75.4941 105.137C75.9518 103.955 74.9572 102.935 73.798 103.398ZM169.952 104.408C169.766 105.142 168.287 105.648 167.69 105.182C167.294 104.874 167.225 104.386 167.526 104.022C167.718 103.789 168.089 103.647 168.791 103.536C169.337 103.45 169.819 103.343 169.864 103.298C169.989 103.17 170.055 104 169.952 104.408ZM181.296 104.408C181.114 105.127 179.789 105.604 179.055 105.215C178.713 105.033 178.638 104.101 178.949 103.9C179.053 103.832 179.622 103.674 180.213 103.548L181.288 103.32L181.339 103.681C181.366 103.879 181.347 104.206 181.296 104.408ZM222.447 103.967C222.444 104.615 222.37 104.756 221.84 105.115C221.045 105.654 219.843 105.298 219.843 104.524C219.843 104.047 220.208 103.73 220.882 103.621C221.196 103.57 221.556 103.507 221.682 103.48C222.369 103.336 222.449 103.387 222.447 103.967ZM175.86 103.806C176.131 104.075 176.072 104.792 175.759 105.018C175.592 105.139 175.063 105.22 174.437 105.22H173.393V104.368V103.516L174.538 103.573C175.168 103.605 175.763 103.709 175.86 103.806Z" fill="#DADADA"/>
</svg>
