<svg width="268" height="150" viewBox="0 0 268 150" fill="none" xmlns="http://www.w3.org/2000/svg">
<path fill-rule="evenodd" clip-rule="evenodd" d="M128.453 33.2157C121.62 33.5805 116.669 34.2739 110.997 35.6604C102.677 37.6943 95.4353 40.9221 90.064 44.991C84.6198 49.1152 81.4769 53.8014 80.6729 58.9932C80.4717 60.2921 80.5367 63.0184 80.7972 64.2139C81.3166 66.5972 82.138 68.5296 83.5291 70.6407C89.868 80.2607 105.813 87.3742 124.511 88.9236C127.677 89.1859 129.92 89.2526 133.954 89.2045C137.962 89.1567 139.719 89.0602 142.963 88.7098C158.159 87.0685 171.248 81.8401 178.62 74.4667C181.738 71.3488 183.681 67.9766 184.469 64.3177C184.766 62.9398 184.845 60.5644 184.641 59.1243C183.81 53.2533 179.794 47.8432 172.968 43.3965C163.969 37.5348 151.555 33.99 137.419 33.2459C135.963 33.1692 129.717 33.1482 128.453 33.2157ZM139.606 36.8157C146.77 37.4027 152.953 38.5893 158.6 40.4609C171.161 44.6239 179.226 51.469 180.531 59.0734C180.684 59.9621 180.703 60.3459 180.663 61.6691C180.595 63.8988 180.267 65.208 179.26 67.2763C175.471 75.0549 164.419 81.4568 149.85 84.3126C139.804 86.2818 128.584 86.4511 118.339 84.788C107.459 83.0216 98.2721 79.361 92.0688 74.3199C90.9767 73.4323 89.2899 71.7637 88.5242 70.8132C86.698 68.5467 85.4514 65.9853 84.9973 63.5669C84.7569 62.2867 84.7785 59.9238 85.0418 58.6929C86.1687 53.4249 90.2995 48.6577 97.1366 44.7348C104.979 40.2356 115.712 37.4111 127.673 36.6991C129.696 36.5787 137.664 36.6566 139.606 36.8157ZM117.897 39.289C117.806 39.3872 117.665 39.7074 117.585 40.0007C117.312 41.0033 116.223 44.3278 115.659 45.8825C114.862 48.077 114.216 49.3093 113.525 49.9519C112.209 51.1769 110.385 51.7191 105.453 52.3509C104.119 52.5218 101.273 52.9104 99.1291 53.2145C96.985 53.5185 94.0613 53.9246 92.6319 54.1169C89.3192 54.5625 89.5097 54.5265 89.2407 54.7569C89.0633 54.9087 89.0231 55.0034 89.065 55.1696C89.1359 55.4509 89.4416 55.5817 90.2445 55.674C91.8046 55.8534 105.769 57.755 108.009 58.0931C111.082 58.557 112.489 59.0277 113.342 59.8773C113.884 60.4168 114.466 61.3955 114.932 62.5536C115.452 63.8435 115.7 64.6928 116.196 66.8881C116.811 69.6107 117.715 73.201 117.851 73.4642C117.919 73.5942 118.074 73.7257 118.197 73.7563C118.616 73.8612 118.731 73.6172 119.283 71.448C120.968 64.8209 121.622 62.6042 122.243 61.4103C122.92 60.1078 124.19 59.1057 125.778 58.6214C126.728 58.3318 130.125 57.855 137.202 57.0178C148.279 55.7075 150.042 55.6505 155.984 56.4102C157.918 56.6573 158.32 56.7375 158.767 56.9646C159.116 57.1417 159.56 57.598 159.758 57.9824C159.946 58.3486 160.38 59.7534 160.723 61.1096C161.085 62.5431 161.205 62.8102 161.518 62.8886C161.909 62.9862 162.068 62.6768 162.706 60.585C163.03 59.5206 163.411 58.4058 163.553 58.1076C164.008 57.1454 164.805 56.7928 167.306 56.4465C168.021 56.3475 169.327 56.1367 170.208 55.978C171.09 55.8193 171.987 55.6654 172.203 55.6359C173.002 55.5272 173.396 55.0564 172.993 54.6931C172.798 54.5172 172.718 54.502 168.614 53.8528C165.287 53.3268 164.74 53.1951 164.128 52.7724C163.672 52.4578 163.488 52.1116 162.806 50.282C162.053 48.2631 162.021 48.1936 161.806 48.1257C161.424 48.0048 161.242 48.2632 160.854 49.479C159.86 52.6002 159.206 53.2056 156.453 53.5563C150.89 54.2647 151.29 54.232 148.767 54.1837C146.473 54.1398 146.298 54.123 139.628 53.3099C128.065 51.9004 127.577 51.8309 125.897 51.3558C124.095 50.8459 123.238 50.2917 122.416 49.1028C121.492 47.7673 121.133 46.823 119.309 40.933C119.053 40.1087 118.778 39.3614 118.697 39.2724C118.503 39.0584 118.105 39.0667 117.897 39.289ZM146.439 58.0194C146.238 58.1313 145.959 58.7584 145.611 59.8818C145.25 61.0466 144.909 61.8699 144.567 62.4004C144.022 63.2466 142.768 63.6075 139.022 63.997C135.53 64.36 134.334 64.6242 134.274 65.0466C134.202 65.5453 135.209 65.8057 139.065 66.2858C142.553 66.7202 143.283 66.8679 144.022 67.2883C144.237 67.4108 144.476 67.6467 144.601 67.861C144.718 68.0613 145.094 69.1763 145.436 70.3388C146.078 72.5143 146.28 73.0408 146.511 73.129C146.891 73.2743 147.099 72.8688 147.585 71.0289C148.392 67.9755 148.711 67.4327 149.919 67.0599C150.424 66.904 153.253 66.412 155.698 66.0552C157.355 65.8132 159.693 65.8483 161.847 66.1474C164.612 66.5314 165.269 66.7573 165.757 67.492C165.883 67.681 166.187 68.4861 166.434 69.2812C166.68 70.0764 166.986 70.9528 167.114 71.2289C167.323 71.6826 167.368 71.7282 167.585 71.7034C167.896 71.6679 168.057 71.3432 168.349 70.1683C168.918 67.88 169.424 67.069 170.586 66.5857C171.028 66.4017 172.486 66.1258 174.496 65.8457C176.835 65.5198 177.138 65.4268 177.138 65.0363C177.138 64.7332 176.864 64.5617 176.175 64.4338C175.823 64.3686 175.068 64.2299 174.496 64.1256C172.862 63.8275 170.114 63.1923 169.959 63.0767C169.269 62.5615 169.011 62.1701 168.616 61.0394C168.069 59.4759 167.741 59.0018 167.35 59.2103C167.131 59.3271 166.932 59.7172 166.35 61.1709C165.797 62.5519 165.73 62.6625 165.25 62.9864C164.673 63.3751 164.27 63.4978 162.523 63.8166C159.529 64.3631 157.499 64.4247 154.875 64.0485C154.232 63.9564 153.179 63.8175 152.536 63.7401C150.304 63.471 149.539 63.2143 148.902 62.5201C148.365 61.9356 147.98 61.1537 147.506 59.685C147.306 59.0682 147.089 58.4579 147.023 58.3289C146.867 58.0231 146.644 57.9051 146.439 58.0194ZM131.073 68.29C130.869 68.5432 130.595 69.1969 130.259 70.2282C129.816 71.5922 129.647 71.9937 129.294 72.5237C128.704 73.4091 127.482 73.7553 123.602 74.1368C120.167 74.4745 118.924 74.7626 118.924 75.2212C118.924 75.494 119.617 75.7611 120.92 75.9904C121.323 76.0614 122.764 76.2572 124.122 76.4254C127.731 76.8726 128.584 77.09 129.122 77.7004C129.407 78.0236 129.676 78.7605 130.363 81.1067C130.758 82.453 131.026 83.0501 131.253 83.0921C131.635 83.1625 131.814 82.7601 132.488 80.3046C133.106 78.0566 133.475 77.4938 134.55 77.163C135.478 76.8777 139.778 76.202 141.794 76.0247C143.804 75.8479 146.585 76.0538 149.576 76.6009C151.627 76.9762 151.816 77.178 152.749 79.9824C153.066 80.9367 153.207 81.2465 153.372 81.3543C153.571 81.4841 153.6 81.482 153.814 81.3232C153.989 81.1935 154.137 80.8781 154.44 79.9945C155.385 77.2379 155.744 76.8687 157.82 76.5186C158.842 76.3465 161.404 75.9816 162.845 75.8034C164.558 75.5914 164.824 75.5283 164.976 75.2983C165.075 75.1473 165.086 75.052 165.02 74.9284C164.847 74.6065 164.514 74.5357 161.285 74.1329C156.783 73.5712 156.045 73.3958 155.426 72.7402C155.063 72.3556 154.963 72.1364 154.53 70.7701C154.086 69.3687 153.907 68.9978 153.644 68.9276C153.231 68.8173 153.043 69.0958 152.572 70.5191C152.08 72.0051 151.883 72.4316 151.474 72.8956C151.07 73.3543 150.681 73.4915 148.845 73.8235C146.133 74.314 145.742 74.3505 143.267 74.3445C141.17 74.3393 140.749 74.3115 138.415 74.0243C134.991 73.6028 134.297 73.4129 133.612 72.7112C133.109 72.1957 132.614 71.2018 132.181 69.8358C131.99 69.2347 131.756 68.6167 131.661 68.4625C131.482 68.1737 131.227 68.0987 131.073 68.29ZM64.6508 98.3428C62.7456 98.7515 61.3586 100.094 60.8315 102.041C60.6137 102.846 60.5676 104.763 60.7468 105.565C61.146 107.352 62.3033 108.52 64.1368 108.987C64.69 109.128 65.5881 109.174 70.9497 109.333C76.0368 109.484 77.1747 109.54 77.4055 109.648C77.8117 109.84 78.0476 110.276 78.1005 110.932C78.1562 111.623 77.9744 112.147 77.5498 112.519L77.2492 112.781H72.024H66.7989L66.5058 112.585C66.149 112.345 65.8447 111.829 65.7697 111.336L65.714 110.97H63.1682H60.6226V111.987C60.6226 112.61 60.6726 113.195 60.7518 113.498C61.1676 115.088 62.3372 116.117 64.2177 116.548C64.8593 116.695 65.4178 116.706 71.7544 116.706C78.0013 116.706 78.6551 116.693 79.2515 116.554C81.133 116.113 82.2278 115.026 82.6837 113.146C82.8821 112.328 82.8825 110.351 82.6843 109.555C82.2473 107.8 81.1314 106.592 79.4202 106.022C79.0633 105.903 78.5374 105.782 78.2515 105.752C77.9657 105.723 75.1589 105.587 72.0143 105.451C68.8696 105.315 66.1958 105.166 66.0725 105.118C65.7579 104.998 65.4046 104.551 65.3361 104.188C65.2519 103.74 65.3542 103.064 65.5549 102.74C65.9287 102.138 65.7084 102.159 71.5098 102.188C76.619 102.213 76.7277 102.217 76.9622 102.392C77.3306 102.666 77.5232 102.971 77.5763 103.364L77.6246 103.723H80.2121H82.7996L82.7978 102.839C82.7943 101.015 82.5324 100.186 81.7163 99.4175C81.2133 98.9437 80.6094 98.6329 79.7358 98.3981C79.2653 98.2715 78.4062 98.2527 72.2308 98.2339C66.2848 98.2159 65.1679 98.2319 64.6508 98.3428ZM85.1385 105.603C85.1385 111.974 85.157 113.075 85.2713 113.512C85.6415 114.927 86.6066 115.853 88.3005 116.417L88.9069 116.619L95.7073 116.645C101.666 116.667 102.592 116.653 103.193 116.532C104.984 116.171 106.24 115.178 106.732 113.736C106.924 113.17 106.925 113.163 106.95 105.686L106.975 98.2025H104.55H102.124L102.099 104.608L102.074 111.013L101.858 111.444C101.707 111.745 101.537 111.934 101.295 112.068L100.948 112.261L96.1404 112.26C91.6302 112.26 91.3104 112.25 90.9759 112.099C90.557 111.909 90.2178 111.496 90.0854 111.013C90.021 110.778 89.9905 108.673 89.9903 104.435L89.9898 98.2025H87.5641H85.1385V105.603ZM109.655 107.432V116.667L118.816 116.644L127.977 116.62L128.496 116.413C128.886 116.257 129.169 116.052 129.624 115.593C130.329 114.883 130.603 114.412 130.933 113.34C131.149 112.641 131.172 112.444 131.167 111.315C131.161 109.954 130.999 109.112 130.577 108.25C130.355 107.795 129.663 107.04 129.391 106.954C129.164 106.882 129.193 106.814 129.552 106.57C130.022 106.252 130.59 105.432 130.797 104.772C131.028 104.036 131.115 102.514 130.972 101.696C130.762 100.499 130.03 99.3352 129.17 98.8334C128.963 98.7126 128.551 98.531 128.255 98.4297C127.721 98.247 127.648 98.2455 118.686 98.2214L109.655 98.1971V107.432ZM140.684 98.6542C140.542 98.9039 138.371 102.893 135.86 107.519C133.349 112.145 131.199 116.095 131.083 116.297L130.871 116.663L133.669 116.663L136.466 116.663L137.362 115.067L138.259 113.471H143.615H148.971L149.86 115.067L150.749 116.663H153.639H156.53L156.053 115.779C155.79 115.293 153.534 111.149 151.04 106.57L146.504 98.2456L143.723 98.2229L140.942 98.2002L140.684 98.6542ZM157.734 107.433V116.663H160.202H162.671V113.385V110.107L167.804 110.108C171.155 110.108 173.052 110.14 173.268 110.2C173.45 110.25 173.752 110.429 173.939 110.597C174.497 111.099 174.554 111.411 174.604 114.226L174.647 116.663H177.019H179.391L179.39 114.528C179.39 113.035 179.351 112.151 179.259 111.588C179.017 110.103 178.535 109.002 177.822 108.303C177.576 108.062 177.413 107.864 177.459 107.864C177.668 107.864 178.4 107.001 178.669 106.438C179.115 105.505 179.243 104.754 179.19 103.378C179.08 100.525 177.992 98.802 176.005 98.3354C175.528 98.2236 174.19 98.2048 166.591 98.2038L157.734 98.2025V107.433ZM181.49 105.686C181.515 112.684 181.527 113.2 181.676 113.644C181.934 114.411 182.158 114.779 182.677 115.283C183.258 115.848 184.056 116.256 185.045 116.492C185.722 116.654 186.088 116.662 192.358 116.663C199.611 116.663 199.562 116.666 200.848 116.133C201.617 115.814 202.445 115.098 202.805 114.439C203.289 113.553 203.286 113.616 203.316 105.621L203.344 98.2456L200.896 98.2227L198.449 98.1998L198.447 104.606C198.445 110.635 198.436 111.033 198.286 111.362C198.114 111.739 197.683 112.15 197.381 112.224C197.278 112.249 195.007 112.259 192.335 112.245L187.478 112.221L187.158 112.005C186.972 111.88 186.748 111.61 186.623 111.363L186.408 110.936V104.569V98.2025H183.936H181.464L181.49 105.686ZM125.325 102.338C125.73 102.544 125.914 102.812 126.034 103.374C126.177 104.038 126.008 104.712 125.594 105.124L125.268 105.449H119.757H114.246V103.81V102.171H119.62C124.771 102.171 125.008 102.178 125.325 102.338ZM173.543 102.472C174.112 102.71 174.453 103.315 174.453 104.084C174.453 104.854 174.04 105.426 173.346 105.618C173.141 105.674 171.141 105.707 167.847 105.707L162.671 105.708V104.026V102.345L167.631 102.32C172.884 102.294 173.135 102.3 173.543 102.472ZM145.282 106.313C146.174 108.022 146.905 109.459 146.905 109.505C146.905 109.559 145.686 109.59 143.57 109.59C141.735 109.59 140.235 109.564 140.235 109.532C140.235 109.501 140.512 108.947 140.851 108.303C142.989 104.24 143.547 103.206 143.6 103.206C143.632 103.206 144.389 104.604 145.282 106.313ZM125.59 109.156C125.775 109.25 126.003 109.435 126.098 109.567C126.698 110.407 126.479 112.038 125.695 112.569L125.381 112.781H119.813H114.246V110.884V108.986H119.75C125.063 108.986 125.266 108.992 125.59 109.156ZM205.336 114.072C204.529 114.409 204.285 115.524 204.874 116.191C205.741 117.175 207.351 116.415 207.174 115.104C207.116 114.676 206.815 114.26 206.452 114.109C206.136 113.977 205.606 113.96 205.336 114.072ZM206.34 114.295C207.071 114.672 207.142 115.824 206.461 116.268C206.337 116.349 206.082 116.418 205.894 116.42C204.795 116.435 204.384 114.938 205.323 114.339C205.651 114.129 205.99 114.115 206.34 114.295ZM205.379 115.326C205.379 115.92 205.404 116.059 205.509 116.059C205.601 116.059 205.639 115.968 205.639 115.751C205.639 115.482 205.663 115.447 205.834 115.471C205.968 115.49 206.055 115.586 206.112 115.779C206.158 115.933 206.248 116.059 206.314 116.059C206.403 116.059 206.418 115.988 206.373 115.779C206.339 115.625 206.273 115.45 206.225 115.391C206.166 115.317 206.168 115.283 206.234 115.283C206.381 115.283 206.453 114.867 206.331 114.721C206.264 114.64 206.07 114.593 205.802 114.593H205.379V115.326ZM206.128 114.896C206.193 115.065 206.01 115.283 205.802 115.283C205.679 115.283 205.639 115.22 205.639 115.024C205.639 114.805 205.673 114.765 205.859 114.765C205.979 114.765 206.101 114.824 206.128 114.896Z" fill="#DADADA"/>
</svg>
