<svg width="268" height="150" viewBox="0 0 268 150" fill="none" xmlns="http://www.w3.org/2000/svg">
<path fill-rule="evenodd" clip-rule="evenodd" d="M129.077 50.0836C122.225 50.3255 116.995 51.5513 111.725 54.1505C99.9391 59.9638 93.5962 71.399 95.929 82.6288C96.8223 86.9293 99.1716 90.7811 102.587 93.5436C107.449 97.4765 114.132 99.5338 123.848 100.089C128.627 100.361 134.176 99.8916 138.876 98.8163C141.913 98.1213 141.524 98.4365 142.49 95.8916C143.234 93.9328 146.81 84.5555 147.552 82.6168C147.7 82.2305 147.775 81.8686 147.719 81.8128C147.663 81.7568 146.8 81.9323 145.801 82.2028C139.999 83.7738 135.513 84.4661 131.171 84.4601C123.784 84.4501 118.517 82.3831 116.743 78.799C115.376 76.0358 116.183 72.0925 118.652 69.466C120.821 67.1586 123.712 65.7378 128.328 64.7098C129.877 64.3648 130.503 64.3198 133.683 64.3248C136.397 64.329 137.697 64.4041 138.96 64.6301C140.975 64.9906 144.116 65.7615 145.478 66.2295C146.023 66.4168 146.486 66.5511 146.507 66.528C146.528 66.5048 147.235 64.6108 148.079 62.3191C148.924 60.0275 150.036 57.0075 150.551 55.608C151.067 54.2086 151.455 53.03 151.414 52.9888C151.243 52.8195 147.041 51.6955 145.165 51.3176C142.337 50.7481 138.384 50.2693 135.526 50.1501C134.19 50.0945 132.946 50.0301 132.762 50.0071C132.578 49.9841 130.92 50.0186 129.077 50.0836ZM46.5442 52.9441C42.8062 59.5151 40.1463 64.2083 39.6483 65.1108L39.0276 66.2358H48.7712H58.5149L58.4387 66.6108C58.3968 66.8171 56.3483 72.4983 53.8863 79.2358C51.4244 85.9733 49.2329 91.9733 49.0159 92.5691C48.799 93.165 48.2382 94.685 47.7699 95.947C47.3016 97.209 46.9183 98.2783 46.9183 98.3233C46.9183 98.3685 51.109 98.386 56.2308 98.3621L65.5433 98.3191L67.5213 92.9025C69.7811 86.7146 71.0442 83.2641 72.8294 78.4025C73.5194 76.5233 74.4455 73.9733 74.8872 72.7358C75.329 71.4983 76.0458 69.5295 76.4801 68.3608L77.2695 66.2358L82.5709 66.233C88.4677 66.2296 89.3694 66.1243 91.1489 65.2305C92.3313 64.6366 93.752 63.2968 94.6783 61.9021C97.8298 57.157 100.686 52.6413 100.686 52.4038C100.686 52.2916 91.7519 52.2358 73.8163 52.2358H46.947L46.5442 52.9441ZM170.952 52.3523C168.643 52.6576 165.343 54.58 163.648 56.6065C162.464 58.0221 162.52 57.899 160.305 63.9025C159.95 64.865 158.684 68.2775 157.491 71.4858C150.862 89.3128 147.699 97.8513 147.627 98.1108C147.551 98.386 148.058 98.4025 156.576 98.4025H165.605L168.43 90.5275C169.983 86.1961 172.079 80.365 173.087 77.5691C174.094 74.7733 174.976 72.2983 175.045 72.0691L175.171 71.6525L175.279 72.1525C175.339 72.4275 175.957 76.0275 176.653 80.1525C179.021 94.1915 179.581 97.4855 179.677 97.9441L179.772 98.4025L186.836 98.4005L193.9 98.3983L194.262 97.8588C194.461 97.562 196.722 94.2261 199.287 90.446C201.851 86.6656 205.752 80.9095 207.956 77.6545C210.159 74.3993 211.98 71.7548 212.001 71.7776C212.053 71.833 211.633 85.049 211.409 90.4025C211.311 92.74 211.232 95.4963 211.233 96.5275L211.236 98.4025H219.664H228.092L228.301 88.6941C228.416 83.3545 228.543 78.0483 228.583 76.9025C228.668 74.446 229.156 54.1791 229.158 53.0275L229.158 52.2358L223.003 52.2425L216.847 52.2491L206.759 67.2841C188.337 94.738 186.382 97.628 186.333 97.473C186.307 97.3883 184.624 87.3441 182.593 75.1525C180.562 62.9608 178.863 52.8171 178.818 52.6108L178.734 52.2358L175.095 52.2608C173.093 52.2745 171.228 52.3156 170.952 52.3523ZM180.751 52.4185C180.751 52.519 182.032 60.3001 183.598 69.7101C185.164 79.1201 186.648 88.0566 186.895 89.5691C187.143 91.0816 187.388 92.3693 187.44 92.4308C187.541 92.5495 188.291 91.4398 204.155 67.6978C209.773 59.2893 214.33 52.3706 214.282 52.3228C214.234 52.275 212.26 52.2358 209.895 52.2358H205.595L198.831 62.334C195.111 67.888 192.049 72.3691 192.026 72.2923C192.004 72.2155 191.265 67.8775 190.385 62.6525C189.506 57.4275 188.743 52.9461 188.691 52.6941L188.597 52.2358H184.674C181.941 52.2358 180.751 52.2913 180.751 52.4185Z" fill="#DADADA"/>
</svg>
