<svg width="268" height="150" viewBox="0 0 268 150" fill="none" xmlns="http://www.w3.org/2000/svg">
<path fill-rule="evenodd" clip-rule="evenodd" d="M116.294 66.1478C113.362 67.143 111.169 69.1402 109.763 72.0953C109.111 73.4666 109.074 73.6875 109.089 76.1486C109.104 78.5102 109.162 78.8663 109.715 79.9917C110.491 81.5721 112.426 83.3172 114.095 83.9417C115.703 84.5433 118.179 84.7274 119.974 84.3789C123.121 83.7679 126.124 81.3691 127.687 78.219C128.54 76.5 128.555 76.4239 128.547 74.003C128.54 71.9786 128.453 71.3509 128.063 70.4941C127.471 69.1966 125.974 67.5566 124.707 66.8167C122.491 65.5237 118.96 65.2428 116.294 66.1478ZM192.461 67.0191C189.947 70.559 180.643 84.11 180.643 84.2311C180.643 84.3061 181.993 84.3672 183.644 84.3672H186.645L187.364 83.2516L188.082 82.136H191.489C195.289 82.136 195.587 82.231 195.696 83.4747L195.765 84.2557L198.435 84.3188C199.903 84.3536 201.197 84.29 201.31 84.1774C201.577 83.9114 198.824 66.0173 198.482 65.7953C198.343 65.7051 197.154 65.6299 195.841 65.6279L193.452 65.6246L192.461 67.0191ZM91.2539 66.4057C91.2539 66.7128 91.758 70.7991 92.3741 75.4866C92.9902 80.1738 93.4942 84.0897 93.4942 84.1881C93.4942 84.2867 94.6529 84.3672 96.0692 84.3672H98.6443L104.652 75.3864C107.957 70.447 110.736 66.2801 110.828 66.1266C110.958 65.9088 110.308 65.8477 107.86 65.8477H104.725L101.408 71.1351L98.0911 76.4224L97.6005 71.3025C97.3305 68.4864 97.1029 66.1072 97.0942 66.015C97.0857 65.9229 95.7681 65.8477 94.1663 65.8477H91.2539V66.4057ZM133.483 66.1266C133.318 66.5936 131.453 73.4688 130.022 78.8881C128.99 82.7933 128.736 84.0495 128.948 84.1841C129.102 84.2811 132.261 84.3619 135.969 84.3639L142.711 84.3672L143.175 82.638C143.431 81.687 143.703 80.5977 143.781 80.2178L143.922 79.5267L141.861 79.381C140.728 79.3009 138.908 79.2353 137.818 79.2353C136.079 79.2353 135.836 79.1874 135.838 78.8449C135.839 78.6302 136.507 75.894 137.323 72.7646C138.139 69.6353 138.855 66.7987 138.915 66.4613L139.024 65.8477H136.303C134.328 65.8477 133.555 65.9242 133.483 66.1266ZM145.539 68.3021L144.863 70.7565H147.518C148.979 70.7565 150.17 70.8317 150.164 70.9238C150.159 71.016 149.367 74.003 148.404 77.5619C147.441 81.1207 146.695 84.1078 146.747 84.1999C146.798 84.2921 148.037 84.3672 149.5 84.3672C151.84 84.3672 152.174 84.3202 152.276 83.9768C152.581 82.9444 155.775 71.0033 155.775 70.8946C155.775 70.8263 157.003 70.742 158.504 70.7076L161.233 70.6449L161.718 68.8599C161.984 67.8782 162.27 66.7987 162.353 66.4613L162.505 65.8477H154.359H146.215L145.539 68.3021ZM164.604 66.0146C164.408 66.1494 159.584 83.6434 159.584 84.2198C159.584 84.3083 160.813 84.3527 162.316 84.3184L165.049 84.2557L166.327 79.57C167.522 75.1885 167.622 74.9279 167.866 75.5537C169.535 79.8242 169.95 80.8084 170.126 80.9166C170.317 81.034 173.944 77.4454 175.039 76.0558C175.305 75.7184 175.604 75.4422 175.704 75.4422C175.804 75.4422 175.401 77.37 174.807 79.7262C174.213 82.0827 173.777 84.0908 173.837 84.1887C173.898 84.2869 175.136 84.3672 176.587 84.3672H179.225L181.689 75.1633L184.153 65.9593L181.11 65.8946L178.066 65.8301L177.311 66.6755C174.89 69.3858 172.287 72.1035 172.198 72.0143C172.14 71.9576 171.622 70.572 171.046 68.9351L169.998 65.9593L167.423 65.903C166.007 65.8722 164.739 65.9224 164.604 66.0146ZM207.845 66.0184C207.587 66.1938 207.082 67.9569 204.479 77.7759C203.57 81.2069 202.909 84.097 203.011 84.1983C203.112 84.2996 204.344 84.3541 205.748 84.3191L208.3 84.2557L209.538 79.7519C210.218 77.2747 210.837 75.188 210.913 75.1148C210.988 75.0417 212.043 77.0935 213.257 79.6744L215.464 84.3672H217.872H220.279L220.494 83.5305C220.613 83.0704 221.712 78.9787 222.937 74.4381C224.161 69.8975 225.121 66.1072 225.069 66.015C224.9 65.7152 219.926 65.8182 219.683 66.1266C219.562 66.2801 218.973 68.239 218.374 70.4798C217.768 72.7477 217.183 74.5213 217.055 74.4798C216.928 74.439 215.921 72.4799 214.816 70.1266L212.809 65.8477L210.448 65.8511C209.149 65.8531 207.978 65.9283 207.845 66.0184ZM229.127 66.0525C228.173 66.4606 227.465 67.5939 227.465 68.7158C227.465 70.4136 228.543 71.4259 230.351 71.4259C231.489 71.4259 232.731 70.3475 232.953 69.1665C233.141 68.1725 232.643 66.9127 231.861 66.4028C231.177 65.9564 229.773 65.7765 229.127 66.0525ZM231.281 66.6324C231.993 66.999 232.618 67.9933 232.618 68.7586C232.618 69.4414 231.963 70.4539 231.338 70.7375C229.98 71.3538 228.481 70.7817 227.92 69.4334C227.679 68.8532 227.705 68.6339 228.118 67.7844C228.812 66.3553 229.944 65.9434 231.281 66.6324ZM229.125 67.4937C228.93 68.0009 229.128 69.9791 229.37 69.9287C229.493 69.9028 229.626 69.6741 229.666 69.4204C229.737 68.9713 229.756 68.9739 230.411 69.5233C231.09 70.0922 231.498 70.2368 231.498 69.9086C231.498 69.8104 231.38 69.6123 231.235 69.4684C231.036 69.2705 231.035 69.0701 231.229 68.6455C231.37 68.3369 231.431 67.9424 231.364 67.7688C231.139 67.1845 229.33 66.9622 229.125 67.4937ZM230.704 68.0629C230.775 68.1767 230.622 68.3365 230.364 68.4179C229.832 68.5861 229.59 68.4451 229.808 68.0939C229.99 67.801 230.53 67.7822 230.704 68.0629ZM121.55 71.124C122.548 71.6283 122.898 72.5792 122.809 74.5421C122.719 76.4938 122.159 77.5951 120.684 78.7152C119.936 79.2833 119.678 79.3469 118.114 79.3469C116.498 79.3469 116.327 79.3007 115.693 78.6965C113.967 77.0491 114.296 73.9332 116.41 71.9112C117.803 70.5782 119.851 70.2647 121.55 71.124ZM194.658 75.5395C194.835 77.0018 194.83 77.5219 194.637 77.5956C194.495 77.65 193.647 77.6645 192.754 77.6281L191.129 77.5619L192.501 75.4817C193.257 74.3355 193.997 73.4418 194.147 73.4916C194.309 73.5449 194.518 74.3845 194.658 75.5395Z" fill="#DADADA"/>
<path fill-rule="evenodd" clip-rule="evenodd" d="M35.0753 50.1911C34.8058 50.3615 35.2572 52.0899 37.9559 61.2178L38.4013 62.7239H43.7453H49.0896L50.4175 61.2178C53.3095 57.9378 59.4413 50.4876 59.4413 50.2538C59.4413 49.9599 35.5382 49.8983 35.0753 50.1911ZM67.0496 54.3738C65.0212 56.7762 63.3618 58.8598 63.3618 59.0037C63.3618 59.1958 64.9536 59.2813 69.3547 59.3248C73.9292 59.3703 75.3462 59.4495 75.3415 59.6595C75.3381 59.811 73.4721 62.1438 71.1951 64.8436C68.9178 67.5434 64.5602 72.7372 61.5118 76.3851L55.9688 83.0177L50.704 83.0265C47.8084 83.0314 45.3095 83.1173 45.1509 83.2174C44.9262 83.3596 45.1144 84.232 46.0054 87.1746C49.1882 97.6888 50.0265 100.25 50.2573 100.165C50.357 100.128 59.9274 88.9101 71.5249 75.2362C86.4786 57.6056 92.5279 50.3223 92.3247 50.1938C92.1669 50.094 87.2452 50.011 81.3876 50.009L70.7374 50.0057L67.0496 54.3738ZM39.8367 66.52C39.6691 66.7899 39.9319 67.7385 42.014 74.3823L43.6051 79.4584H45.877H48.1491L51.6109 75.3029C59.0142 66.4155 58.8404 66.6458 58.2702 66.4836C57.3958 66.2344 39.9926 66.2687 39.8367 66.52Z" fill="#DADADA"/>
</svg>
