<svg width="268" height="150" viewBox="0 0 268 150" fill="none" xmlns="http://www.w3.org/2000/svg">
<path d="M61.1947 89.642H49.4126V60.4809H61.1947C65.8836 60.4809 69.6915 61.8217 72.6184 64.5031C75.5751 67.1846 77.0535 70.7114 77.0535 75.0833C77.0535 79.4553 75.59 82.982 72.6632 85.6635C69.7363 88.3159 65.9135 89.642 61.1947 89.642ZM61.1947 84.1771C64.0618 84.1771 66.3316 83.3027 68.0041 81.5539C69.7065 79.8051 70.5576 77.6482 70.5576 75.0833C70.5576 72.4019 69.7363 70.2159 68.0937 68.5254C66.4511 66.8057 64.1514 65.9459 61.1947 65.9459H55.774V84.1771H61.1947Z" fill="#DADADA"/>
<path d="M105.759 89.642H98.4572L92.5885 79.2804H87.9294V89.642H81.568V60.4809H95.5452C98.6214 60.4809 101.055 61.3553 102.847 63.1041C104.669 64.8529 105.58 67.1118 105.58 69.8807C105.58 72.2707 104.938 74.2089 103.654 75.6954C102.399 77.1819 100.861 78.1291 99.0395 78.5372L105.759 89.642ZM94.6045 73.8155C95.9186 73.8155 96.9937 73.4657 97.83 72.7662C98.6662 72.0375 99.0843 71.0757 99.0843 69.8807C99.0843 68.6857 98.6662 67.7384 97.83 67.0389C96.9937 66.3102 95.9186 65.9459 94.6045 65.9459H87.9294V73.8155H94.6045Z" fill="#DADADA"/>
<path d="M115.686 89.0737C114.969 89.7732 114.118 90.1229 113.132 90.1229C112.147 90.1229 111.296 89.7732 110.579 89.0737C109.862 88.3742 109.504 87.5435 109.504 86.5816C109.504 85.6198 109.862 84.7891 110.579 84.0896C111.296 83.3901 112.147 83.0403 113.132 83.0403C114.118 83.0403 114.969 83.3901 115.686 84.0896C116.403 84.7891 116.761 85.6198 116.761 86.5816C116.761 87.5435 116.403 88.3742 115.686 89.0737Z" fill="#DADADA"/>
<path d="M143.896 90.1667C138.58 90.1667 134.369 88.6219 131.263 85.5324L134.713 80.8106C137.281 83.4338 140.447 84.7454 144.21 84.7454C145.853 84.7454 147.122 84.4394 148.018 83.8273C148.944 83.1861 149.407 82.4137 149.407 81.5101C149.407 80.7232 148.974 80.0674 148.108 79.5428C147.271 79.0181 146.211 78.6392 144.927 78.406C143.672 78.1729 142.299 77.8377 140.805 77.4005C139.312 76.9633 137.923 76.4678 136.639 75.914C135.385 75.3602 134.324 74.4858 133.458 73.2908C132.622 72.0958 132.204 70.6385 132.204 68.9188C132.204 66.4122 133.234 64.3137 135.295 62.6232C137.356 60.9035 140.103 60.0437 143.538 60.0437C148.287 60.0437 152.169 61.399 155.186 64.1097L151.647 68.6565C149.287 66.5288 146.39 65.465 142.956 65.465C141.612 65.465 140.566 65.7273 139.82 66.2519C139.073 66.7766 138.7 67.4907 138.7 68.3942C138.7 69.0937 139.118 69.6912 139.954 70.1867C140.82 70.6531 141.88 71.0028 143.135 71.236C144.419 71.4692 145.793 71.8189 147.256 72.2853C148.75 72.7225 150.123 73.2325 151.378 73.8155C152.662 74.3692 153.722 75.2582 154.559 76.4824C155.425 77.6774 155.858 79.1201 155.858 80.8106C155.858 83.6087 154.827 85.8676 152.767 87.5872C150.736 89.3068 147.779 90.1667 143.896 90.1667Z" fill="#DADADA"/>
<path d="M187.568 89.642H180.311L178.474 84.7017H165.662L163.78 89.642H156.523L168.081 60.4809H176.055L187.568 89.642ZM176.727 79.2367L172.068 66.6891L167.409 79.2367H176.727Z" fill="#DADADA"/>
<path d="M202.953 90.1667C198.443 90.1667 194.71 88.7531 191.753 85.9258C188.826 83.0695 187.363 79.4553 187.363 75.0833C187.363 70.7114 188.826 67.1118 191.753 64.2845C194.71 61.4282 198.443 60 202.953 60C207.492 60 211.226 61.4136 214.153 64.2408C217.109 67.068 218.588 70.6822 218.588 75.0833C218.588 79.4845 217.109 83.0986 214.153 85.9258C211.226 88.7531 207.492 90.1667 202.953 90.1667ZM196.367 81.9473C198.04 83.7544 200.235 84.658 202.953 84.658C205.671 84.658 207.866 83.7544 209.538 81.9473C211.211 80.1403 212.047 77.8523 212.047 75.0833C212.047 72.3144 211.211 70.0264 209.538 68.2193C207.866 66.4122 205.671 65.5087 202.953 65.5087C200.235 65.5087 198.04 66.4122 196.367 68.2193C194.725 70.0264 193.903 72.3144 193.903 75.0833C193.903 77.8523 194.725 80.1403 196.367 81.9473Z" fill="#DADADA"/>
</svg>
