<svg width="268" height="150" viewBox="0 0 268 150" fill="none" xmlns="http://www.w3.org/2000/svg">
<g clip-path="url(#clip0_1456_1895)">
<path d="M43.0256 75.1289C43.0103 73.9457 43.2353 72.7717 43.6869 71.6771C44.1385 70.5826 44.8076 69.5899 45.654 68.7588C46.5003 67.9276 47.5067 67.2749 48.6126 66.8399C49.7185 66.4049 50.9014 66.1964 52.0902 66.2271C53.504 66.1689 54.9094 66.4706 56.1733 67.1038C57.4371 67.7369 58.5177 68.6805 59.3126 69.8452L55.8174 72.5579C54.8415 71.3135 53.6864 70.5338 52.0444 70.5338C49.6386 70.5338 47.9398 72.5579 47.9398 75.0882C47.9398 77.6186 49.6336 79.6427 52.0444 79.6427C53.8398 79.6427 54.8973 78.8134 55.925 77.5631L59.5098 80.0935C57.8886 82.3147 55.7009 83.9544 51.8821 83.9544C50.7137 83.9696 49.5541 83.7516 48.4719 83.3133C47.3897 82.8749 46.4067 82.2252 45.5813 81.4024C44.7558 80.5796 44.1045 79.6005 43.6658 78.5229C43.2272 77.4454 43.0102 76.2913 43.0276 75.1289H43.0256ZM66.4981 70.725H61.3261V66.5708H76.4101V70.724H71.253V83.6899H66.4981V70.724V70.725ZM118.265 66.5708H123.031V73.514L128.95 66.5708H134.601L128.091 73.9281L134.82 83.6908H129.093L124.77 77.3343L123.026 79.2672V83.6908H118.26V66.5708H118.265V66.5708ZM37.2272 66.3985L34.3285 72.6025L31.139 66.3985H25.48L25.9321 67.2436L31.7036 77.7137L29.0449 83.1489L28.7143 83.8781H34.0696L42.2738 67.3248L42.7617 66.3985H37.2282H37.2272ZM92.954 66.3123L84.5168 74.5205V66.3846H79.6544V83.889H81.4797L89.897 75.7055V83.8632H94.8102V66.3123H92.954ZM108.669 66.3846V72.5995H103.725V66.3846H98.869V83.8642H103.725V76.9974H108.669V83.8632H113.532V66.3846H108.669ZM147.363 66.2726L147.313 66.1666H145.187L137.401 82.9676L136.892 83.8632H141.977L142.995 81.7133H149.54L150.558 83.8632H155.547L155.16 83.0439L147.363 66.2726ZM147.969 77.6186H144.597L146.265 73.7577L147.969 77.6186Z" fill="#DADADA"/>
<path d="M162.774 66.5708H164.712V81.8986H174.376V83.6908H162.774V66.5708ZM178.151 66.5708H180.094V83.6908H178.151V66.5708ZM183.655 66.5708H185.816L191.919 81.312L198.063 66.5698H200.154L192.774 83.8018H191.05L183.655 66.5708V66.5708ZM203.562 66.5708H215.996V68.3314H205.5V74.1718H214.883V75.9323H205.5V81.9243H216.114V83.6908H203.562V66.5708Z" fill="#DADADA"/>
<path d="M223.651 66.6818V71.9703L230.563 75.2398L223.651 78.5142V83.8018L241.731 75.2398L223.651 66.6818Z" fill="#DADADA"/>
</g>
<defs>
<clipPath id="clip0_1456_1895">
<rect width="217.08" height="17.8333" fill="white" transform="translate(25.46 66.1666)"/>
</clipPath>
</defs>
</svg>
