<svg width="268" height="150" viewBox="0 0 268 150" fill="none" xmlns="http://www.w3.org/2000/svg">
<g clip-path="url(#clip0_1456_1937)">
<path fill-rule="evenodd" clip-rule="evenodd" d="M60.635 62.7738V92.1799L69.8371 94.6667L69.9002 84.16L109.104 74.0886V79.746L73.1776 89.3823L89.6911 93.5476L109.041 88.7606L109.104 94.4801L117.928 92.1799L117.991 62.9603L69.9002 75.332V69.0529L106.646 59.9762L89.6911 55.5L60.635 62.7738Z" fill="#DADADA"/>
<path d="M127.193 88.2706H144.462C146.29 88.2706 148.055 87.3381 148.055 83.1105C148.055 81.1211 147.614 79.3182 144.21 78.137L131.983 73.9717C130.47 73.4743 129.021 72.6661 128.201 71.7336C126.941 70.3037 126.688 68.5008 126.688 66.8222C126.688 65.268 126.878 63.1542 128.768 61.6C129.651 60.8539 131.227 60.1079 133.622 60.1079H149.19V62.1595H133.369C132.298 62.1595 130.911 62.5325 130.155 63.3407C129.21 64.3354 129.21 65.8897 129.21 66.9465C129.21 68.8738 129.399 70.6767 132.298 71.7336L144.21 75.8989C146.038 76.5206 147.614 77.1423 148.685 78.137C150.198 79.5669 150.576 81.4941 150.576 83.0484C150.576 83.2971 150.639 86.4677 149.064 88.3949C147.677 90.1978 145.723 90.3844 144.147 90.3844H127.13V88.2706H127.193ZM155.871 60.1079H158.266V90.3222H155.871V60.1079ZM177.994 90.3222L162.615 78.6344C161.039 77.4531 159.967 76.0232 159.967 74.7799C159.967 73.5986 161.165 72.2931 162.173 71.4849L176.544 60.1079H179.947L164.253 72.6661C163.686 73.1013 162.299 73.9717 162.299 74.842C162.299 75.7746 163.623 76.7693 164.569 77.4531L181.523 90.3222H177.994Z" fill="#DADADA"/>
<path d="M192.176 90.3222V62.1595H179.318V60.1079H207.365V62.1595H194.508V90.3222H192.176V90.3222Z" fill="#DADADA"/>
</g>
<defs>
<clipPath id="clip0_1456_1937">
<rect width="146.73" height="39.1667" fill="white" transform="translate(60.635 55.5)"/>
</clipPath>
</defs>
</svg>
