<svg width="268" height="150" viewBox="0 0 268 150" fill="none" xmlns="http://www.w3.org/2000/svg">
<path fill-rule="evenodd" clip-rule="evenodd" d="M68.2431 40.4074C67.7639 40.4636 66.2517 40.6297 64.8826 40.7763C52.3852 42.1155 43.2755 47.0792 40.6085 54.0034C39.8278 56.0304 39.7362 60.2325 40.4556 61.0244C41.2126 61.8579 42.4647 62.1265 44.9445 61.9876C47.9446 61.8197 51.265 60.7448 54.044 59.0424C55.9648 57.8658 56.0962 57.7367 55.5376 57.5748C55.2011 57.4772 54.1008 57.1449 53.0929 56.8367L51.2603 56.2758L51.8483 55.8115C52.8895 54.9892 58.3634 52.4285 59.904 52.0435C63.9807 51.024 73.3192 50.8921 78.941 51.7746C87.0306 53.0446 91.8426 56.3612 92.3238 60.9986L92.4644 62.3543L91.7423 62.2038C87.97 61.4161 78.1255 61.0605 73.3277 61.5384C63.7509 62.4923 55.4119 65.3907 53.9051 68.289C53.1912 69.6623 54.1369 71.4823 56.076 72.4664C58.1098 73.4984 67.3962 75.395 69.0449 75.1147C69.5589 75.0275 69.4656 74.8757 68.0487 73.4965L66.4852 71.9746L67.7997 71.2216C70.7692 69.5209 75.6275 68.0392 80.0392 67.4885C82.6915 67.1574 90.5775 67.2817 91.5917 67.6705L92.1637 67.8896L91.162 69.8609C86.6709 78.7002 75.968 85.2616 62.0199 87.7264C58.9419 88.2704 57.6226 88.3685 53.0585 88.3935C49.718 88.4115 46.9113 88.2999 45.5907 88.0961C44.427 87.9166 43.3629 87.7544 43.2259 87.7355C42.9198 87.6932 42.3816 90.4532 42.3676 92.1367C42.3286 96.8824 45.1546 98.6843 52.6533 98.6944C57.948 98.7014 64.838 97.3741 69.9856 95.355C82.8379 90.3143 91.625 81.7211 95.8754 70.0367C96.2135 69.1077 96.5826 68.4891 96.7992 68.4891C98.2462 68.4891 102.986 70.1462 106.258 71.7963C106.973 72.1563 107.619 72.451 107.694 72.451C107.952 72.451 107.512 71.0931 106.864 69.8832C105.722 67.7529 102.076 65.1039 98.6719 63.9312L97.7409 63.6105L97.7222 60.0451C97.6951 54.928 96.7711 51.7847 94.283 48.3463C91.2086 44.0974 87.3746 41.9582 80.8766 40.8662C78.6753 40.4963 70.1309 40.186 68.2431 40.4074ZM188.724 70.94C183.724 72.6994 183.29 80.6269 188.05 83.2507C189.201 83.8853 189.582 83.9641 191.462 83.9534C193.239 83.9435 193.777 83.8388 194.822 83.2992C195.507 82.9459 196.264 82.4402 196.505 82.175C196.923 81.7147 196.921 81.6743 196.467 81.2655C196.126 80.9582 195.941 80.9188 195.813 81.1259C195.715 81.2841 195.122 81.7372 194.495 82.1324C193.019 83.0637 190.921 83.1373 189.441 82.3097C188.369 81.7102 187.23 79.7959 187.23 78.593V77.8986H192.084H196.938V76.7512C196.938 72.3532 192.875 69.4791 188.724 70.94ZM112.076 71.2592C110.062 76.3572 107.731 81.7986 107.409 82.152C106.941 82.666 106.072 82.7438 105.636 82.3105C105.253 81.9299 105.074 82.1287 105.011 83.0026C104.966 83.6271 105.068 83.7367 105.888 83.9418C107.069 84.2369 107.903 83.8799 108.569 82.7941C108.843 82.3488 109.815 80.118 110.73 77.8367C111.645 75.5554 112.468 73.6891 112.559 73.6891C112.65 73.6891 113.614 75.9457 114.7 78.7034L116.675 83.7177L117.85 83.7932C118.496 83.8346 119.024 83.7788 119.024 83.6694C119.023 83.5597 117.866 80.6286 116.451 77.1558C113.892 70.8707 113.876 70.8412 113.091 70.764C112.459 70.7016 112.258 70.8001 112.076 71.2592ZM121.631 71.0173C121.561 71.1978 121.535 74.1294 121.571 77.5317L121.638 83.7177H122.97H124.303L127.451 78.3483L130.599 72.9789L130.724 78.3483L130.848 83.7177H131.968H133.088V77.2796V70.8415H131.762H130.435L127.281 76.2693L124.127 81.6971L124.003 76.2693L123.878 70.8415L122.818 70.7652C122.109 70.7142 121.716 70.7977 121.631 71.0173ZM135.702 71.3367C135.702 71.9558 135.702 71.9558 138.187 71.9558H140.672L140.738 77.8367L140.805 83.7177H141.925H143.046L143.112 77.8367L143.179 71.9558H145.664C148.148 71.9558 148.149 71.9558 148.149 71.3367V70.7177H141.925H135.702V71.3367ZM150.756 71.0173C150.686 71.1978 150.659 74.1294 150.696 77.5317L150.762 83.7177H151.882H153.003L153.073 80.6843L153.143 77.651H156.371H159.599V80.7463V83.8415H160.724H161.848L161.782 77.3415L161.715 70.8415L160.657 70.7655L159.599 70.6892V73.675V76.6605H156.371H153.143L153.073 73.751L153.003 70.8415L151.942 70.7652C151.233 70.7142 150.84 70.7977 150.756 71.0173ZM165.822 77.3009V83.8841L169.867 83.8009C173.364 83.7291 174.023 83.6513 174.727 83.2279C175.782 82.5932 176.633 80.88 176.451 79.7597C176.092 77.5616 174.775 76.8418 170.863 76.7051L168.063 76.6071V73.6624V70.7177H166.943H165.822V77.3009ZM179.133 71.0173C179.064 71.1978 179.037 74.1294 179.073 77.5317L179.14 83.7177H180.26H181.38V77.2796V70.8415L180.32 70.7652C179.611 70.7142 179.218 70.7977 179.133 71.0173ZM192.837 72.061C193.625 72.5746 194.355 74.0123 194.578 75.49L194.754 76.6605H190.964H187.174L187.347 75.4843C187.831 72.1992 190.498 70.5362 192.837 72.061ZM172.756 78.0039C174.29 78.7928 174.464 81.2162 173.063 82.2859C172.82 82.4714 171.781 82.5908 170.365 82.5955L168.063 82.6034V80.1272V77.651H170.067C171.314 77.651 172.329 77.7842 172.756 78.0039ZM90.1852 86.8164C88.7056 87.1264 87.1326 88.0882 86.053 89.3426C83.6056 92.187 83.9347 97.7515 86.7037 100.343C88.3272 101.863 89.5139 102.288 92.14 102.288C94.1837 102.289 94.6908 102.2 95.8739 101.636C96.6269 101.277 97.4477 100.827 97.6981 100.635C98.1372 100.299 98.1357 100.266 97.6595 99.6804C97.1915 99.1057 97.142 99.0961 96.6976 99.4962C95.8677 100.243 94.4354 100.68 92.8326 100.674C89.1873 100.662 87.3485 98.5528 87.3719 94.4121C87.3826 92.4958 87.8115 90.9722 88.6628 89.8269C90.4653 87.4015 94.754 87.3909 96.0109 89.8084C96.3282 90.4187 96.5338 90.5272 97.374 90.5272C98.5357 90.5272 98.6174 90.2395 97.8031 89.0162C96.6347 87.2611 93.031 86.2204 90.1852 86.8164ZM121.045 86.836C119.853 87.198 119.026 87.788 118.492 88.6594L118.03 89.4129L118.029 88.2367L118.028 87.0605H116.659H115.29V98.3272V109.594H116.659H118.028V104.709V99.8238L118.777 100.727C119.806 101.97 121.33 102.515 123.326 102.356C127.162 102.05 129.456 99.3865 129.675 94.9844C129.85 91.4709 128.584 88.858 126.039 87.4803C124.637 86.7213 122.382 86.4304 121.045 86.836ZM137.627 86.8347C136.223 87.1638 134.938 87.8985 133.912 88.9585C130.973 91.9956 130.949 97.0928 133.858 100.071C135.247 101.493 136.837 102.206 138.953 102.356C141.361 102.528 143.054 101.965 144.737 100.435C147.019 98.3604 147.868 95.4281 147.051 92.4393C145.895 88.2137 141.895 85.8346 137.627 86.8347ZM186.271 86.9546C184.149 87.5224 182.671 88.8011 181.712 90.8986C180.864 92.7545 180.896 96.0764 181.78 97.9558C182.646 99.7968 183.456 100.692 185.022 101.54C187.602 102.937 191.657 102.625 193.997 100.851C195.144 99.9806 195.318 99.5267 194.664 99.1159C194.346 98.9168 194.026 99.0418 193.214 99.6817C190.752 101.621 187.826 101.661 185.738 99.7852C184.749 98.8965 183.994 97.227 183.994 95.9308V95.232H189.719H195.445V94.1628C195.445 93.5744 195.267 92.4997 195.051 91.7742C194.251 89.096 192.62 87.5142 190.033 86.9087C188.283 86.4989 187.958 86.5029 186.271 86.9546ZM98.8611 87.6796V88.2986H101.848H104.835V95.2448V102.191L106.142 102.116L107.449 102.041L107.515 95.1701L107.581 88.2986H110.565H113.548V87.6796V87.0605H106.204H98.8611V87.6796ZM150.14 94.6248V102.189L151.686 102.115L153.231 102.041L156.975 95.6311L160.719 89.2205L160.786 95.7057L160.852 102.191L162.155 102.116L163.458 102.041L163.524 94.5396L163.589 87.0378L161.935 87.1111L160.28 87.1843L156.641 93.4496L153.003 99.7146L152.936 93.3877L152.87 87.0605H151.505H150.14V94.6248ZM165.324 87.6796V88.2986H168.308H171.291L171.357 95.1701L171.423 102.041L172.73 102.116L174.037 102.191V95.2448V88.2986H177.024H180.011V87.6796V87.0605H172.668H165.324V87.6796ZM202.585 93.0653C199.634 100.413 199.434 100.77 198.358 100.619C197.919 100.558 197.38 100.429 197.159 100.332C196.849 100.197 196.72 100.341 196.595 100.96C196.393 101.967 196.622 102.195 197.974 102.327C200.154 102.541 200.507 102.062 203.328 95.0463C204.382 92.4245 205.315 90.2796 205.401 90.2796C205.487 90.2796 206.619 92.9261 207.917 96.1605L210.277 102.041L211.573 102.116C212.51 102.171 212.87 102.102 212.872 101.869C212.873 101.691 211.557 98.2891 209.947 94.3084L207.02 87.0704L206.009 87.0655L204.997 87.0605L202.585 93.0653ZM214.919 94.551L214.985 102.041L216.481 102.114L217.976 102.186L221.708 95.7809L225.44 89.376L225.565 95.7086L225.689 102.041L226.996 102.116L228.303 102.191V94.6258V87.0605H226.738H225.173L221.448 93.4736L217.724 99.8867L217.657 93.4736L217.591 87.0605H216.222H214.854L214.919 94.551ZM141.925 88.5339C142.551 88.8417 143.007 89.3706 143.543 90.4084C144.241 91.7589 144.29 92.0352 144.29 94.602C144.29 97.0643 144.224 97.4779 143.653 98.5815C141.702 102.353 136.408 101.935 135.062 97.904C134.431 96.0135 134.501 92.4571 135.2 90.8397C135.896 89.2299 136.642 88.5477 138.122 88.1684C139.502 87.8145 140.697 87.9294 141.925 88.5339ZM190.202 88.256C191.334 88.8597 192.393 90.7612 192.607 92.5738L192.775 93.9939H188.35H183.925L184.078 92.6939C184.293 90.8734 185.396 88.8375 186.479 88.2632C187.582 87.6786 189.114 87.6756 190.202 88.256ZM124.682 88.9937C125.106 89.2943 125.715 90.0686 126.035 90.7147C126.537 91.7296 126.616 92.2588 126.616 94.6129C126.616 97.0587 126.553 97.4494 125.994 98.4414C125.11 100.01 124.01 100.68 122.315 100.68C120.612 100.68 119.597 100.098 118.773 98.6489C118.265 97.7572 118.151 97.1671 118.068 95.0133C117.93 91.4181 118.474 89.9389 120.371 88.7523C121.411 88.1018 123.596 88.2244 124.682 88.9937Z" fill="#DADADA"/>
<path fill-rule="evenodd" clip-rule="evenodd" d="M68.2431 40.4074C67.7639 40.4636 66.2517 40.6297 64.8826 40.7763C52.3852 42.1155 43.2755 47.0792 40.6085 54.0034C39.8278 56.0304 39.7362 60.2325 40.4556 61.0244C41.2126 61.8579 42.4647 62.1265 44.9445 61.9876C47.9446 61.8197 51.265 60.7448 54.044 59.0424C55.9648 57.8658 56.0962 57.7367 55.5376 57.5748C55.2011 57.4772 54.1008 57.1449 53.0929 56.8367L51.2603 56.2758L51.8483 55.8115C52.8895 54.9892 58.3634 52.4285 59.904 52.0435C63.9807 51.024 73.3192 50.8921 78.941 51.7746C87.0306 53.0446 91.8426 56.3612 92.3238 60.9986L92.4644 62.3543L91.7423 62.2038C87.97 61.4161 78.1255 61.0605 73.3277 61.5384C63.7509 62.4923 55.4119 65.3907 53.9051 68.289C53.1912 69.6623 54.1369 71.4823 56.076 72.4664C58.1098 73.4984 67.3962 75.395 69.0449 75.1147C69.5589 75.0275 69.4656 74.8757 68.0487 73.4965L66.4852 71.9746L67.7997 71.2216C70.7692 69.5209 75.6275 68.0392 80.0392 67.4885C82.6915 67.1574 90.5775 67.2817 91.5917 67.6705L92.1637 67.8896L91.162 69.8609C86.6709 78.7002 75.968 85.2616 62.0199 87.7264C58.9419 88.2704 57.6226 88.3685 53.0585 88.3935C49.718 88.4115 46.9113 88.2999 45.5907 88.0961C44.427 87.9166 43.3629 87.7544 43.2259 87.7355C42.9198 87.6932 42.3816 90.4532 42.3676 92.1367C42.3286 96.8823 45.1546 98.6843 52.6533 98.6944C57.948 98.7014 64.838 97.3741 69.9856 95.355C82.8379 90.3143 91.625 81.7211 95.8754 70.0367C96.2135 69.1077 96.5826 68.4891 96.7992 68.4891C98.2462 68.4891 102.986 70.1462 106.258 71.7963C106.973 72.1563 107.619 72.451 107.694 72.451C107.952 72.451 107.512 71.0931 106.864 69.8832C105.722 67.7529 102.076 65.1039 98.6719 63.9312L97.7409 63.6105L97.7222 60.0451C97.6951 54.928 96.7711 51.7847 94.2831 48.3463C91.2086 44.0974 87.3746 41.9582 80.8766 40.8662C78.6753 40.4963 70.1309 40.186 68.2431 40.4074Z" fill="#DADADA"/>
</svg>
