<svg width="170" height="54" viewBox="0 0 170 54" fill="none" xmlns="http://www.w3.org/2000/svg">
<path d="M127.035 52.1191C127.596 52.1191 128.042 51.8423 128.292 51.3935H128.303V52.0518H128.924V46.6547H128.273V48.7941H128.258C128.027 48.3677 127.578 48.0946 127.02 48.0946C126.041 48.0946 125.371 48.8876 125.371 50.1069C125.371 51.3262 126.044 52.1191 127.035 52.1191ZM127.159 48.6669C127.828 48.6669 128.277 49.2391 128.277 50.1069C128.277 50.9783 127.828 51.5468 127.159 51.5468C126.471 51.5468 126.037 50.9895 126.037 50.1069C126.037 49.2279 126.471 48.6669 127.159 48.6669ZM129.837 52.0518H130.488V48.162H129.837V52.0518ZM130.162 47.5074C130.387 47.5074 130.57 47.3242 130.57 47.1035C130.57 46.8791 130.387 46.6996 130.162 46.6996C129.942 46.6996 129.758 46.8791 129.758 47.1035C129.758 47.3242 129.942 47.5074 130.162 47.5074ZM132.949 51.5094C132.279 51.5094 131.842 50.9634 131.842 50.0919C131.842 49.2204 132.279 48.6669 132.949 48.6669C133.626 48.6669 134.078 49.2354 134.078 50.0919C134.078 50.9484 133.626 51.5094 132.949 51.5094ZM132.971 53.5179C134.045 53.5179 134.729 52.9008 134.729 51.9732V48.162H134.108V48.8165H134.097C133.839 48.3639 133.383 48.0946 132.833 48.0946C131.827 48.0946 131.176 48.8726 131.176 50.0919C131.176 51.3 131.827 52.0817 132.818 52.0817C133.364 52.0817 133.824 51.8049 134.063 51.3823H134.078V51.9957C134.078 52.5754 133.671 52.9644 132.997 52.9644C132.511 52.9644 132.126 52.7287 131.999 52.3734H131.329C131.438 53.0354 132.115 53.5179 132.971 53.5179ZM135.612 52.0518H136.262V48.162H135.612V52.0518ZM135.937 47.5074C136.161 47.5074 136.345 47.3242 136.345 47.1035C136.345 46.8791 136.161 46.6996 135.937 46.6996C135.716 46.6996 135.533 46.8791 135.533 47.1035C135.533 47.3242 135.716 47.5074 135.937 47.5074ZM137.351 47.2232V48.162H136.771V48.6968H137.351V51.0419C137.351 51.7899 137.628 52.0817 138.342 52.0817C138.495 52.0817 138.675 52.0705 138.753 52.0518V51.5057C138.709 51.5132 138.559 51.5244 138.484 51.5244C138.151 51.5244 138.002 51.3636 138.002 51.0082V48.6968H138.757V48.162H138.002V47.2232H137.351ZM140.661 51.5655C140.193 51.5655 139.883 51.3224 139.883 50.9521C139.883 50.5856 140.182 50.3537 140.706 50.3201L141.746 50.2565V50.5744C141.746 51.1354 141.274 51.5655 140.661 51.5655ZM140.515 52.1191C141.039 52.1191 141.532 51.8273 141.764 51.3823H141.779V52.0518H142.396V49.3626C142.396 48.5883 141.82 48.0946 140.908 48.0946C139.988 48.0946 139.412 48.6108 139.367 49.284H139.995C140.077 48.9025 140.392 48.6669 140.893 48.6669C141.431 48.6669 141.746 48.9511 141.746 49.4261V49.7515L140.631 49.8151C139.733 49.8675 139.221 50.2864 139.221 50.9521C139.221 51.6516 139.741 52.1191 140.515 52.1191ZM143.257 52.0518H143.907V46.6547H143.257V52.0518ZM147.64 51.5655C147.173 51.5655 146.862 51.3224 146.862 50.9521C146.862 50.5856 147.161 50.3537 147.685 50.3201L148.725 50.2565V50.5744C148.725 51.1354 148.253 51.5655 147.64 51.5655ZM147.494 52.1191C148.018 52.1191 148.512 51.8273 148.743 51.3823H148.758V52.0518H149.376V49.3626C149.376 48.5883 148.8 48.0946 147.887 48.0946C146.967 48.0946 146.391 48.6108 146.346 49.284H146.974C147.057 48.9025 147.371 48.6669 147.872 48.6669C148.411 48.6669 148.725 48.9511 148.725 49.4261V49.7515L147.61 49.8151C146.713 49.8675 146.2 50.2864 146.2 50.9521C146.2 51.6516 146.72 52.1191 147.494 52.1191ZM151.784 51.5094C151.115 51.5094 150.677 50.9634 150.677 50.0919C150.677 49.2204 151.115 48.6669 151.784 48.6669C152.461 48.6669 152.914 49.2354 152.914 50.0919C152.914 50.9484 152.461 51.5094 151.784 51.5094ZM151.807 53.5179C152.88 53.5179 153.565 52.9008 153.565 51.9732V48.162H152.944V48.8165H152.932C152.674 48.3639 152.218 48.0946 151.668 48.0946C150.662 48.0946 150.011 48.8726 150.011 50.0919C150.011 51.3 150.662 52.0817 151.653 52.0817C152.199 52.0817 152.659 51.8049 152.899 51.3823H152.914V51.9957C152.914 52.5754 152.506 52.9644 151.833 52.9644C151.347 52.9644 150.961 52.7287 150.834 52.3734H150.165C150.273 53.0354 150.95 53.5179 151.807 53.5179ZM155.973 48.6594C156.587 48.6594 156.994 49.1232 157.009 49.774H154.896C154.937 49.1269 155.364 48.6594 155.973 48.6594ZM156.994 50.9372C156.886 51.3037 156.523 51.5543 156.029 51.5543C155.33 51.5543 154.892 51.0643 154.892 50.3201V50.2827H157.682V50.0358C157.682 48.8576 157.035 48.0946 155.984 48.0946C154.911 48.0946 154.223 48.9137 154.223 50.1218C154.223 51.3449 154.9 52.1191 156.014 52.1191C156.863 52.1191 157.522 51.6179 157.634 50.9372H156.994ZM158.341 52.0518H158.992V49.7628C158.992 49.1045 159.392 48.6706 160.005 48.6706C160.604 48.6706 160.899 49.0147 160.899 49.6431V52.0518H161.55V49.5271C161.55 48.6445 161.056 48.0946 160.203 48.0946C159.601 48.0946 159.186 48.3639 158.969 48.7828H158.954V48.162H158.341V52.0518ZM165.612 49.4374C165.529 48.738 164.95 48.0946 163.977 48.0946C162.904 48.0946 162.189 48.8801 162.189 50.1069C162.189 51.3598 162.908 52.1191 163.985 52.1191C164.867 52.1191 165.518 51.573 165.619 50.7988H164.98C164.867 51.2663 164.52 51.5468 163.988 51.5468C163.315 51.5468 162.851 51.012 162.851 50.1069C162.851 49.2242 163.308 48.6669 163.981 48.6669C164.553 48.6669 164.882 49.0147 164.976 49.4374H165.612ZM166.539 53.5067C167.242 53.5067 167.564 53.2337 167.897 52.3248L169.427 48.162H168.742L167.665 51.401H167.654L166.577 48.162H165.881L167.317 52.0555L167.227 52.3285C167.078 52.7811 166.876 52.9569 166.513 52.9569C166.431 52.9569 166.33 52.9531 166.259 52.9382V53.4842C166.33 53.4992 166.461 53.5067 166.539 53.5067Z" fill="white"/>
<path d="M62.2349 43.2967H68.5856V29.2308C68.5856 26.6219 70.2168 24.7958 72.631 24.7958C74.9799 24.7958 76.3936 26.2741 76.3936 28.7742V43.2967H82.5052V29.1439C82.5052 26.5567 84.0929 24.7958 86.507 24.7958C88.9647 24.7958 90.3131 26.2741 90.3131 28.9699V43.2967H96.6639V27.3828C96.6639 22.687 93.5972 19.5564 89.03 19.5564C85.6153 19.5564 82.8314 21.4043 81.7875 24.3393H81.657C80.874 21.2956 78.5251 19.5564 75.1539 19.5564C71.9786 19.5564 69.4774 21.4043 68.4986 24.2088H68.3681V19.9912H62.2349V43.2967ZM109.692 39.0791C107.539 39.0791 106.103 37.9921 106.103 36.2529C106.103 34.6006 107.451 33.5354 109.822 33.3614L114.738 33.0571V34.7528C114.738 37.2746 112.454 39.0791 109.692 39.0791ZM107.604 43.6663C110.518 43.6663 113.411 42.2097 114.716 39.7314H114.846V43.2967H120.98V27.2742C120.98 22.5782 117.086 19.4912 111.105 19.4912C104.929 19.4912 101.079 22.5999 100.84 27.122H106.647C106.951 25.4045 108.452 24.2305 110.823 24.2305C113.215 24.2305 114.738 25.4915 114.738 27.6655V29.2091L108.865 29.5568C103.058 29.9048 99.7957 32.3614 99.7957 36.6008C99.7957 40.7966 103.167 43.6663 107.604 43.6663ZM131.68 29.3394H131.593V11.9255H125.242V43.2967H131.593V35.6006L133.246 33.818L139.923 43.2967H147.231L137.9 29.9917L146.796 19.9912H139.597L131.68 29.3394ZM158.432 24.187C161.259 24.187 163.195 26.2307 163.325 29.2091H153.429C153.647 26.2959 155.648 24.187 158.432 24.187ZM163.412 36.166C162.825 37.9486 161.042 39.1009 158.714 39.1009C155.474 39.1009 153.364 36.8181 153.364 33.4919V33.1005H169.437V31.1657C169.437 24.0784 165.152 19.4912 158.366 19.4912C151.472 19.4912 147.122 24.3175 147.122 31.7526C147.122 39.2095 151.428 43.7967 158.606 43.7967C164.369 43.7967 168.545 40.7314 169.241 36.166H163.412Z" fill="white"/>
<path d="M34.3075 19.6914H28.054L24.5147 37.0842H24.3844L20.2371 19.6914H14.1573L10.0317 37.0842H9.9014L6.3838 19.6914H0L6.18838 43.1444H12.8545L17.0452 26.561H17.1755L21.3879 43.1444H28.1409L34.3075 19.6914ZM46.8797 23.9138C49.7024 23.9138 51.635 25.9703 51.7653 28.9676H41.8856C42.1027 26.036 44.1004 23.9138 46.8797 23.9138ZM51.8521 35.9685C51.2659 37.7624 49.4853 38.922 47.162 38.922C43.9266 38.922 41.8204 36.6248 41.8204 33.2775V32.8836H57.8668V30.9366C57.8668 23.8044 53.5892 19.1882 46.8146 19.1882C39.9314 19.1882 35.5886 24.0451 35.5886 31.5273C35.5886 39.0313 39.8879 43.6475 47.0534 43.6475C52.8075 43.6475 56.9765 40.5628 57.6714 35.9685H51.8521Z" fill="white"/>
<path fill-rule="evenodd" clip-rule="evenodd" d="M153.086 0C151.603 0 150.401 1.20216 150.401 2.68509V11.9983C150.401 13.4813 151.603 14.6834 153.086 14.6834H165.282C166.765 14.6834 167.967 13.4813 167.967 11.9983V2.68509C167.967 1.20216 166.765 0 165.282 0H153.086ZM156.587 9.2794C156.587 9.61228 156.318 9.88157 155.985 9.88157C155.648 9.88157 155.383 9.61228 155.383 9.2794C155.383 8.94278 155.648 8.67723 155.985 8.67723C156.318 8.67723 156.587 8.94278 156.587 9.2794ZM158.524 7.43549H158.539L159.901 5.82721H161.139L159.609 7.54769L161.214 9.83669H159.957L158.809 8.20597L158.524 8.51266V9.83669H157.432V4.4396H158.524V7.43549ZM164.763 9.83669H161.453V9.21582L163.45 6.68371V6.66127H161.483V5.82721H164.718V6.51914L162.841 8.98019V8.99889H164.763V9.83669Z" fill="white"/>
</svg>
