<svg width="200" height="64" viewBox="0 0 200 64" fill="none" xmlns="http://www.w3.org/2000/svg">
<path d="M40.4873 23.3116H33.1074L28.9305 43.9016H28.7767L23.8823 23.3116H16.7074L11.8387 43.9016H11.6849L7.5337 23.3116H0L7.30308 51.0759H15.1699L20.1155 31.4439H20.2693L25.2405 51.0759H33.2099L40.4873 23.3116ZM55.324 28.3101C58.6553 28.3101 60.9358 30.7447 61.0896 34.2929H49.4304C49.6865 30.8223 52.044 28.3101 55.324 28.3101ZM61.1921 42.5809C60.5003 44.7046 58.399 46.0772 55.6573 46.0772C51.8391 46.0772 49.3534 43.3578 49.3534 39.3951V38.929H68.2902V36.624C68.2902 28.1807 63.2421 22.7158 55.2472 22.7158C47.1242 22.7158 41.999 28.4655 41.999 37.3232C41.999 46.2068 47.0729 51.6715 55.5289 51.6715C62.3196 51.6715 67.2395 48.0197 68.0596 42.5809H61.1921Z" fill="white"/>
<path d="M73.4452 51.2563H80.94V34.6046C80.94 31.5162 82.8649 29.3543 85.7139 29.3543C88.4861 29.3543 90.1544 31.1044 90.1544 34.0642V51.2563H97.3666V34.5017C97.3666 31.439 99.2405 29.3543 102.089 29.3543C104.99 29.3543 106.581 31.1044 106.581 34.2959V51.2563H114.076V32.417C114.076 26.8579 110.457 23.1518 105.067 23.1518C101.037 23.1518 97.7518 25.3394 96.5198 28.814H96.3656C95.4418 25.2108 92.6697 23.1518 88.6912 23.1518C84.9439 23.1518 81.9923 25.3394 80.8373 28.6595H80.6833V23.6665H73.4452V51.2563ZM129.45 46.2633C126.909 46.2633 125.215 44.9766 125.215 42.9177C125.215 40.9616 126.806 39.7005 129.604 39.4947L135.405 39.1344V41.1417C135.405 44.1272 132.71 46.2633 129.45 46.2633ZM126.986 51.6938C130.426 51.6938 133.839 49.9696 135.379 47.0356H135.533V51.2563H142.771V32.2884C142.771 26.7293 138.177 23.0746 131.119 23.0746C123.829 23.0746 119.286 26.7549 119.004 32.1082H125.857C126.216 30.075 127.987 28.6852 130.785 28.6852C133.608 28.6852 135.405 30.178 135.405 32.7516V34.5789L128.475 34.9906C121.622 35.4027 117.772 38.3107 117.772 43.3296C117.772 48.2967 121.75 51.6938 126.986 51.6938ZM155.4 34.7332H155.297V14.1182H147.802V51.2563H155.297V42.1456L157.248 40.0351L165.127 51.2563H173.751L162.74 35.5056L173.238 23.6665H164.742L155.4 34.7332ZM186.97 28.6337C190.306 28.6337 192.591 31.053 192.745 34.5789H181.066C181.323 31.1303 183.684 28.6337 186.97 28.6337ZM192.847 42.8148C192.154 44.925 190.05 46.2892 187.303 46.2892C183.479 46.2892 180.989 43.5867 180.989 39.649V39.1858H199.957V36.8952C199.957 28.5051 194.901 23.0746 186.893 23.0746C178.756 23.0746 173.623 28.7881 173.623 37.5901C173.623 46.4178 178.705 51.8483 187.175 51.8483C193.977 51.8483 198.904 48.2194 199.726 42.8148H192.847Z" fill="#0463F1"/>
<path d="M149.911 61.9064C150.571 61.9064 151.095 61.5807 151.39 61.0523H151.403V61.8272H152.133V55.4746H151.368V57.9927H151.35C151.077 57.4908 150.549 57.1694 149.893 57.1694C148.741 57.1694 147.953 58.1028 147.953 59.538C147.953 60.9731 148.745 61.9064 149.911 61.9064ZM150.056 57.843C150.844 57.843 151.372 58.5166 151.372 59.538C151.372 60.5638 150.844 61.2328 150.056 61.2328C149.247 61.2328 148.736 60.5768 148.736 59.538C148.736 58.5034 149.247 57.843 150.056 57.843ZM153.207 61.8272H153.973V57.2486H153.207V61.8272ZM153.59 56.4783C153.854 56.4783 154.069 56.2626 154.069 56.0028C154.069 55.7387 153.854 55.5273 153.59 55.5273C153.33 55.5273 153.115 55.7387 153.115 56.0028C153.115 56.2626 153.33 56.4783 153.59 56.4783ZM156.868 61.1888C156.08 61.1888 155.565 60.546 155.565 59.5204C155.565 58.4947 156.08 57.843 156.868 57.843C157.664 57.843 158.197 58.5122 158.197 59.5204C158.197 60.5284 157.664 61.1888 156.868 61.1888ZM156.894 63.553C158.157 63.553 158.962 62.8265 158.962 61.7348V57.2486H158.232V58.0192H158.219C157.915 57.4865 157.378 57.1694 156.731 57.1694C155.548 57.1694 154.782 58.0852 154.782 59.5204C154.782 60.9423 155.548 61.8624 156.714 61.8624C157.356 61.8624 157.898 61.5366 158.179 61.0392H158.197V61.7612C158.197 62.4435 157.717 62.9014 156.925 62.9014C156.353 62.9014 155.9 62.624 155.75 62.2059H154.962C155.09 62.9851 155.886 63.553 156.894 63.553ZM160.001 61.8272H160.766V57.2486H160.001V61.8272ZM160.384 56.4783C160.648 56.4783 160.863 56.2626 160.863 56.0028C160.863 55.7387 160.648 55.5273 160.384 55.5273C160.124 55.5273 159.908 55.7387 159.908 56.0028C159.908 56.2626 160.124 56.4783 160.384 56.4783ZM162.047 56.1436V57.2486H161.365V57.8782H162.047V60.6385C162.047 61.5191 162.373 61.8624 163.213 61.8624C163.393 61.8624 163.605 61.8491 163.697 61.8272V61.1844C163.644 61.1933 163.468 61.2066 163.38 61.2066C162.989 61.2066 162.812 61.0171 162.812 60.599V57.8782H163.701V57.2486H162.812V56.1436H162.047ZM165.941 61.255C165.391 61.255 165.026 60.9687 165.026 60.533C165.026 60.1014 165.378 59.8286 165.994 59.7889L167.217 59.714V60.0883C167.217 60.7487 166.663 61.255 165.941 61.255ZM165.769 61.9064C166.385 61.9064 166.966 61.5631 167.239 61.0392H167.257V61.8272H167.983V58.662C167.983 57.7506 167.305 57.1694 166.231 57.1694C165.149 57.1694 164.471 57.777 164.419 58.5695H165.158C165.255 58.1203 165.624 57.843 166.214 57.843C166.848 57.843 167.217 58.1776 167.217 58.7366V59.1196L165.906 59.1945C164.85 59.2561 164.247 59.7492 164.247 60.533C164.247 61.3561 164.859 61.9064 165.769 61.9064ZM168.995 61.8272H169.76V55.4746H168.995V61.8272ZM174.152 61.255C173.602 61.255 173.237 60.9687 173.237 60.533C173.237 60.1014 173.589 59.8286 174.205 59.7889L175.428 59.714V60.0883C175.428 60.7487 174.873 61.255 174.152 61.255ZM173.98 61.9064C174.596 61.9064 175.177 61.5631 175.45 61.0392H175.468V61.8272H176.193V58.662C176.193 57.7506 175.516 57.1694 174.442 57.1694C173.36 57.1694 172.682 57.777 172.629 58.5695H173.369C173.465 58.1203 173.835 57.843 174.425 57.843C175.058 57.843 175.428 58.1776 175.428 58.7366V59.1196L174.117 59.1945C173.061 59.2561 172.458 59.7492 172.458 60.533C172.458 61.3561 173.069 61.9064 173.98 61.9064ZM179.027 61.1888C178.24 61.1888 177.725 60.546 177.725 59.5204C177.725 58.4947 178.24 57.843 179.027 57.843C179.824 57.843 180.356 58.5122 180.356 59.5204C180.356 60.5284 179.824 61.1888 179.027 61.1888ZM179.054 63.553C180.316 63.553 181.122 62.8265 181.122 61.7348V57.2486H180.391V58.0192H180.378C180.075 57.4865 179.538 57.1694 178.891 57.1694C177.707 57.1694 176.942 58.0852 176.942 59.5204C176.942 60.9423 177.707 61.8624 178.873 61.8624C179.516 61.8624 180.057 61.5366 180.339 61.0392H180.356V61.7612C180.356 62.4435 179.877 62.9014 179.084 62.9014C178.513 62.9014 178.059 62.624 177.91 62.2059H177.122C177.25 62.9851 178.046 63.553 179.054 63.553ZM183.956 57.8343C184.677 57.8343 185.157 58.3801 185.174 59.1461H182.688C182.737 58.3844 183.238 57.8343 183.956 57.8343ZM185.157 60.5152C185.029 60.9468 184.602 61.2417 184.022 61.2417C183.199 61.2417 182.684 60.6649 182.684 59.7889V59.7448H185.966V59.4543C185.966 58.0676 185.205 57.1694 183.969 57.1694C182.706 57.1694 181.896 58.1336 181.896 59.5556C181.896 60.9952 182.693 61.9064 184.004 61.9064C185.003 61.9064 185.777 61.3166 185.909 60.5152H185.157ZM186.741 61.8272H187.506V59.1329C187.506 58.3582 187.977 57.8473 188.699 57.8473C189.403 57.8473 189.751 58.2525 189.751 58.992V61.8272H190.516V58.8555C190.516 57.8165 189.935 57.1694 188.932 57.1694C188.224 57.1694 187.735 57.4865 187.48 57.9795H187.463V57.2486H186.741V61.8272ZM195.295 58.7499C195.198 57.9268 194.516 57.1694 193.372 57.1694C192.109 57.1694 191.269 58.0941 191.269 59.538C191.269 61.0128 192.114 61.9064 193.381 61.9064C194.419 61.9064 195.185 61.2636 195.304 60.3524H194.551C194.419 60.9028 194.01 61.2328 193.385 61.2328C192.593 61.2328 192.048 60.6033 192.048 59.538C192.048 58.499 192.584 57.843 193.376 57.843C194.05 57.843 194.437 58.2525 194.547 58.7499H195.295ZM196.386 63.5398C197.213 63.5398 197.591 63.2184 197.984 62.1486L199.783 57.2486H198.977L197.71 61.0612H197.698L196.43 57.2486H195.612L197.301 61.8315L197.196 62.1529C197.02 62.6857 196.782 62.8925 196.355 62.8925C196.259 62.8925 196.14 62.8881 196.056 62.8706V63.5133C196.14 63.5309 196.294 63.5398 196.386 63.5398Z" fill="white"/>
<path fill-rule="evenodd" clip-rule="evenodd" d="M180.652 0H195.064C196.809 0 198.223 1.415 198.223 3.16049V14.2222C198.223 15.9677 196.809 17.3827 195.064 17.3827H180.652C178.907 17.3827 177.493 15.9677 177.493 14.2222V3.16049C177.493 1.415 178.907 0 180.652 0ZM183.926 11.1959C183.926 11.5877 183.609 11.9047 183.218 11.9047C182.822 11.9047 182.509 11.5877 182.509 11.1959C182.509 10.7997 182.822 10.4871 183.218 10.4871C183.609 10.4871 183.926 10.7997 183.926 11.1959ZM186.205 9.02552H186.223L187.825 7.13248H189.281L187.482 9.15759L189.369 11.8519H187.891L186.54 9.9324L186.205 10.2934V11.8519H184.921V5.4992H186.205V9.02552ZM193.545 11.8519H189.651V11.121L192 8.14064V8.11423H189.686V7.13248H193.492V7.94692L191.283 10.8437V10.8657H193.545V11.8519Z" fill="white"/>
</svg>
