<svg width="216" height="39" viewBox="0 0 216 39" fill="none" xmlns="http://www.w3.org/2000/svg">
<path d="M146.423 28.8048H165.773V24.4987H153.02C154.779 17.4323 165.554 15.8866 165.554 8.04725C165.554 3.85157 162.695 0.76001 156.648 0.76001C152.91 0.76001 149.611 1.86414 147.412 2.96826L148.732 6.94312C150.711 5.94941 153.02 5.06611 155.878 5.06611C158.077 5.06611 160.166 6.05982 160.166 8.59931C160.166 14.3408 147.522 14.7824 146.423 28.8048ZM166.323 21.9592H178.747V28.8048H183.695V21.9592H187.873V17.7636H183.695V0.76001H180.066L166.323 18.6469V21.9592ZM171.93 17.9844L178.967 8.4889C178.967 9.26179 178.747 11.6909 178.747 13.8991V17.874H175.449C174.459 17.874 172.59 17.9844 171.93 17.9844Z" fill="white"/>
<path d="M5.91136 24.611V15.8884H8.00035C9.86944 15.8884 11.4087 16.1093 12.5082 16.7717C13.6076 17.4342 14.2673 18.5383 14.2673 20.305C14.2673 23.2861 12.5082 24.611 8.33019 24.611H5.91136ZM0.853828 28.8067H8.22024C16.4662 28.8067 19.4348 25.1631 19.4348 20.0841C19.4348 16.6613 18.0055 14.3427 15.4767 13.0177C13.4977 11.9136 10.9689 11.5823 7.8904 11.5823H5.91136V4.95758H17.016L18.3353 0.872314H0.743881V28.8067H0.853828ZM22.8431 28.8067H27.6808L33.9477 19.7529C35.1571 18.0967 36.0367 16.4405 36.5864 15.5572H36.6964C36.5864 16.7717 36.4765 18.3175 36.4765 19.8633V28.6963H41.4241V8.82203H36.5864L30.3195 17.8759C29.22 19.5321 28.2305 21.1883 27.6808 22.0716H27.5708C27.6808 20.857 27.7907 19.3112 27.7907 17.7655V8.93244H22.8431V28.8067ZM49.8899 28.8067H54.9475V13.0177H60.8846L62.2039 8.82203H43.8429V13.0177H49.8899V28.8067ZM63.9631 38.8543H68.9107V28.8067C69.9002 29.138 70.8897 29.2484 71.9892 29.2484C78.2561 29.2484 82.3241 24.9423 82.3241 18.7592C82.3241 12.3552 78.586 8.26997 71.4394 8.26997C68.6908 8.26997 66.0521 8.82203 63.8531 9.48451V38.8543H63.9631ZM68.9107 24.5006V12.7969C69.6803 12.5761 70.34 12.4656 71.2195 12.4656C74.8478 12.4656 77.1567 14.4531 77.1567 18.7592C77.1567 22.6236 75.2876 25.0527 71.5494 25.0527C70.5599 25.0527 69.7902 24.8319 68.9107 24.5006ZM85.2927 28.8067H90.1303L96.3973 19.7529C97.6067 18.0967 98.4863 16.4405 99.036 15.5572H99.1459C99.036 16.7717 98.9261 18.3175 98.9261 19.8633V28.6963H103.874V8.82203H99.036L92.769 17.8759C91.6696 19.5321 90.6801 21.1883 90.1303 22.0716H90.0204C90.1303 20.857 90.2403 19.3112 90.2403 17.7655V8.93244H85.2927V28.8067ZM107.832 28.8067H112.889V20.5258H115.858C116.408 20.5258 116.957 21.0778 117.617 22.4028L120.146 28.8067H125.533L121.905 21.1883C121.245 19.8633 120.586 19.0904 119.596 18.7592V18.6488C121.245 17.655 121.465 14.7843 122.455 13.349C122.784 12.9073 123.224 12.6865 123.884 12.6865C124.214 12.6865 124.654 12.6865 124.983 12.9073V8.6012C124.434 8.38038 123.444 8.26997 122.894 8.26997C121.135 8.26997 120.036 8.93244 119.266 10.0366C117.617 12.4656 117.617 16.6613 115.198 16.6613H112.889V8.82203H107.832V28.8067ZM136.748 29.2484C139.496 29.2484 142.025 28.3651 143.564 27.261L142.135 23.8382C140.706 24.611 139.386 25.1631 137.517 25.1631C134.109 25.1631 131.91 22.9549 131.91 18.8696C131.91 15.226 134.109 12.3552 137.847 12.3552C139.826 12.3552 141.255 12.9073 142.685 13.901V9.59492C141.585 8.93244 139.826 8.26997 137.297 8.26997C131.36 8.26997 126.743 12.6865 126.743 18.98C126.743 24.7215 130.261 29.2484 136.748 29.2484Z" fill="white"/>
<path fill-rule="evenodd" clip-rule="evenodd" d="M193.497 12.1311C193.497 6.18158 198.331 1.32788 204.255 1.32788C210.179 1.32788 215.013 6.18158 215.013 12.1311C215.013 18.0806 210.179 22.9343 204.255 22.9343C198.313 22.9343 193.618 18.0668 193.498 12.151L193.497 12.1411V12.1311ZM195.442 12.1211C195.547 17.0212 199.426 20.9813 204.255 20.9813C209.105 20.9813 213.068 17.002 213.068 12.1311C213.068 7.26018 209.105 3.28086 204.255 3.28086C199.408 3.28086 195.447 7.25476 195.442 12.1211Z" fill="white"/>
<path d="M210.412 12.1309H205.024V6.7207H203.595V13.5663H210.412V12.1309Z" fill="white"/>
</svg>
