<svg width="199" height="48" viewBox="0 0 199 48" fill="none" xmlns="http://www.w3.org/2000/svg">
<g clip-path="url(#clip0_59_3643)">
<path d="M26.8271 5.25143e-05H50.8003C52.5126 0.0397407 53.2604 0.714439 53.4316 2.38701C53.4653 2.74888 53.4805 3.11221 53.4773 3.4756C53.4773 17.2153 53.4773 30.9549 53.4773 44.6946C53.4773 45.0575 53.4773 45.4203 53.4316 45.7832C53.2775 47.314 52.6667 47.898 51.1199 47.9944C50.8916 47.9944 50.6633 47.9944 50.435 47.9944H3.19642C2.76283 47.997 2.32967 47.9667 1.90073 47.9037C1.36664 47.8701 0.867457 47.6285 0.511582 47.2315C0.155707 46.8345 -0.0281256 46.314 3.96153e-06 45.7832C3.96153e-06 45.4657 3.96153e-06 45.1482 3.96153e-06 44.8307C3.96153e-06 30.9776 3.96153e-06 17.1264 3.96153e-06 3.27716C3.96153e-06 2.95966 3.96153e-06 2.63648 3.96153e-06 2.32464C-0.000528289 1.73949 0.226653 1.17679 0.634061 0.754139C1.04147 0.331491 1.59757 0.0816185 2.18613 0.0567499C2.59775 0.0167583 3.01116 -0.00216587 3.42474 5.25143e-05H26.8271ZM38.9849 19.5663C40.0352 19.6344 41.0283 19.7081 42.0272 19.7534C42.1856 19.7873 42.3498 19.7835 42.5064 19.7424C42.663 19.7012 42.8076 19.6238 42.9284 19.5166C43.0491 19.4093 43.1427 19.2752 43.2013 19.1252C43.26 18.9752 43.2821 18.8136 43.2658 18.6535C43.3058 17.4742 43.3058 16.2949 43.2658 15.1156C43.2849 14.9545 43.2655 14.7913 43.2092 14.6391C43.1528 14.4869 43.0612 14.35 42.9417 14.2395C42.8221 14.1291 42.6781 14.0482 42.5212 14.0034C42.3643 13.9586 42.199 13.9511 42.0386 13.9816C40.7372 14.0156 39.4358 14.112 38.1401 14.1064C34.8296 14.1064 31.5247 14.027 28.2141 13.9816C27.2552 13.9816 26.8899 14.2991 26.8671 15.263C26.8442 16.2268 26.8671 17.168 26.8671 18.0979C26.8671 19.521 27.2038 19.7988 28.6251 19.7024C29.4584 19.6344 30.2918 19.589 31.1879 19.5323C31.3078 22.4579 31.656 25.2757 31.2621 28.1616C30.8264 27.9064 30.4398 27.5762 30.1206 27.1864C26.8252 23.0475 23.5317 18.8859 20.2402 14.7017C20.1262 14.5253 19.9629 14.3857 19.7703 14.3001C19.5777 14.2145 19.3641 14.1866 19.1557 14.2198C17.3406 14.3728 15.5198 14.4522 13.6989 14.5089C12.877 14.5089 12.7457 14.5883 12.7457 15.4274C12.7457 23.3159 12.7457 31.2063 12.7457 39.0986C12.7457 39.9944 12.8485 40.0964 13.7903 40.1021C15.6853 40.1021 17.5803 40.1021 19.4982 40.1021C20.6911 40.1021 20.7596 40.0454 20.7368 38.8831C20.6569 34.9823 20.5655 31.0872 20.4799 27.1864C20.4799 26.9313 20.4799 26.6705 20.4799 26.4154L20.6683 26.353C20.8281 26.5231 20.9993 26.6818 21.1477 26.8633C24.4298 30.9738 27.7575 35.0957 31.108 39.1949C31.3896 39.594 31.8074 39.8781 32.2838 39.9944C34.1047 40.1021 35.9312 40.0738 37.752 40.1078C38.4313 40.1078 38.6482 39.8243 38.6539 39.1609C38.7338 32.8845 38.8422 26.6025 38.9393 20.3261C38.945 20.1049 38.9678 19.8838 38.9849 19.5663ZM16.0677 6.11203L16.0221 6.19708C15.6168 6.25944 15.2058 6.29346 14.812 6.39552C14.0381 6.56761 13.3397 6.98037 12.8182 7.57381C12.2968 8.16725 11.9794 8.91042 11.9124 9.6953C11.8496 11.1751 12.9798 12.5812 14.6522 13.0971C15.2263 13.2913 15.8348 13.3649 16.4391 13.3132C17.0434 13.2614 17.6303 13.0855 18.1625 12.7966C18.7637 12.5354 19.2733 12.1029 19.6268 11.5539C19.9804 11.0048 20.1621 10.3639 20.1489 9.71231C20.1476 9.07155 19.9549 8.44559 19.5952 7.91369C19.2355 7.38179 18.725 6.96787 18.1283 6.72436C17.4589 6.4663 16.7698 6.26154 16.0677 6.11203V6.11203Z" fill="white"/>
<path d="M98.5183 21.7152V20.8647C98.5183 14.628 98.5183 8.39131 98.5183 2.15459C98.482 1.88606 98.4955 1.61318 98.5582 1.34949C98.6496 1.13404 98.9121 0.844885 99.129 0.839216C100.841 0.805197 102.508 0.805197 104.198 0.839216C104.397 0.839216 104.631 1.18507 104.768 1.40619C104.848 1.53659 104.768 1.75771 104.768 1.93914C104.768 11.7327 104.768 21.5281 104.768 31.3254C104.768 32.499 104.768 32.5104 103.587 32.516C102.126 32.516 100.664 32.4764 99.2032 32.516C98.8305 32.5482 98.4565 32.4701 98.1285 32.2915C97.8004 32.1129 97.5328 31.8419 97.3596 31.5125C94.6597 27.3112 91.9314 23.127 89.2087 18.937L85.0476 12.5756C84.9251 12.3711 84.7387 12.2118 84.5168 12.122C84.5168 12.3752 84.5168 12.6266 84.5168 12.8761C84.5168 18.886 84.5168 24.894 84.5168 30.9002C84.5168 31.195 84.5168 31.4671 84.5168 31.7846C84.5168 32.3516 84.2657 32.5444 83.7234 32.5387C82.1709 32.5387 80.6183 32.5387 79.0658 32.5387C78.4493 32.5387 78.2895 32.2666 78.3009 31.7053C78.3009 29.891 78.3009 28.0766 78.3009 26.2623C78.3009 18.0979 78.3009 9.93537 78.3009 1.77472C78.3009 0.810867 78.3009 0.816537 79.277 0.816537C80.8067 0.816537 82.3364 0.816537 83.8433 0.816537C84.1365 0.790721 84.431 0.850462 84.6905 0.988436C84.9501 1.12641 85.1635 1.33662 85.3045 1.59329C89.4903 8.11349 93.6761 14.6261 97.8619 21.1312L98.2728 21.7492L98.5183 21.7152Z" fill="white"/>
<path d="M140.243 16.7257C140.243 12.0312 140.243 7.33855 140.243 2.64779C140.243 2.30761 140.243 1.96742 140.243 1.62724C140.243 1.13397 140.494 0.93553 140.968 0.946869C141.442 0.958209 141.972 0.946869 142.475 0.946869H163.976C164.855 0.946869 164.89 0.975218 164.895 1.87671C164.895 3.01065 164.895 4.1446 164.895 5.27855C164.895 6.25941 164.895 6.27642 163.908 6.27642H148.245C146.933 6.27642 146.933 6.27642 146.938 7.57479C146.938 9.23036 146.938 10.8859 146.938 12.5415C146.938 13.1538 147.15 13.3749 147.783 13.3749C152.692 13.3749 157.601 13.3749 162.504 13.3749C163.537 13.3749 163.645 13.4657 163.645 14.4749C163.645 15.6088 163.645 16.6974 163.68 17.8087C163.68 18.421 163.446 18.6875 162.841 18.6818C161.516 18.6818 160.192 18.6818 158.845 18.6818C155.146 18.6818 151.425 18.6818 147.749 18.6818C147.132 18.6818 146.887 18.8802 146.887 19.4982C146.887 21.8569 146.887 24.2155 146.887 26.5741C146.887 27.2374 147.155 27.4189 147.789 27.4132C153.314 27.4132 158.839 27.4132 164.342 27.4132C165.381 27.4132 165.483 27.5039 165.483 28.5471C165.483 29.6811 165.483 30.815 165.483 31.949C165.483 32.516 165.278 32.7541 164.678 32.7541C156.847 32.7541 149.018 32.7541 141.19 32.7541C140.289 32.7541 140.157 32.6124 140.157 31.6201C140.157 26.6761 140.157 21.734 140.157 16.7938L140.243 16.7257Z" fill="white"/>
<path d="M177.002 16.5103C177.065 18.8349 177.196 20.9157 177.944 22.9001C179.77 27.725 185.997 29.4089 189.879 26.1261C191.066 25.0446 191.924 23.6538 192.356 22.112C192.716 21.0404 192.716 21.0461 193.772 21.3749C195.273 21.8398 196.78 22.2821 198.281 22.7413C199.074 22.9851 199.137 23.0985 198.892 23.8753C196.968 29.7548 192.504 33.0546 186.277 33.236C183.81 33.3979 181.337 33.0105 179.04 32.102C177.128 31.3306 175.416 30.14 174.032 28.6192C172.648 27.0985 171.628 25.2868 171.048 23.3196C169.619 18.8739 169.743 14.0787 171.402 9.71225C173.469 4.29198 177.601 1.34939 183.338 0.640674C186.564 0.146502 189.865 0.620314 192.818 2.00141C194.248 2.6976 195.519 3.67617 196.554 4.87722C197.59 6.07828 198.368 7.47657 198.84 8.98653C199.011 9.47979 198.886 9.77462 198.366 9.89368C196.614 10.2962 194.856 10.6931 193.104 11.107C192.567 11.2317 192.379 10.9369 192.219 10.5117C191.805 9.24833 191.016 8.13896 189.956 7.3294C188.895 6.51984 187.613 6.048 186.277 5.9759C183.286 5.69241 180.718 6.58823 178.891 9.07157C177.75 10.6591 177.35 12.5301 177.179 14.4408C177.042 15.1609 177.036 15.9546 177.002 16.5103Z" fill="white"/>
<path d="M126.007 19.4643C126.007 23.5238 126.007 27.5834 126.007 31.6429C126.007 32.5047 125.882 32.6578 125.043 32.6635C123.399 32.6635 121.755 32.6635 120.111 32.6635C119.5 32.6635 119.198 32.431 119.209 31.7676C119.255 29.4544 119.282 27.143 119.289 24.8335C119.289 18.9824 119.289 13.1236 119.289 7.25736C119.289 6.41257 119.164 6.26515 118.228 6.25949C115.67 6.25949 113.091 6.25949 110.556 6.25949C109.415 6.25949 109.38 6.25949 109.369 5.08018C109.369 4.01427 109.369 2.94836 109.369 1.88245C109.369 0.95828 109.409 0.929932 110.334 0.929932H133.342C133.913 0.929932 134.529 0.929932 135.123 0.929932C135.545 0.929932 135.791 1.1227 135.791 1.49691C135.791 2.88032 135.791 4.26185 135.791 5.64148C135.791 6.24815 135.34 6.27082 134.872 6.26516C132.383 6.26516 129.895 6.26516 127.406 6.26516C125.95 6.26516 125.962 6.26516 125.962 7.68259C125.962 11.606 125.962 15.5295 125.962 19.453L126.007 19.4643Z" fill="white"/>
<path d="M65.6408 16.6067C65.6408 11.6929 65.6408 6.79616 65.6408 1.9164C65.6408 0.822144 65.6408 0.822144 66.7367 0.822144C68.2893 0.822144 69.8418 0.822144 71.3944 0.822144C72.3305 0.822144 72.3476 0.822144 72.3476 1.786C72.3476 11.1486 72.3476 20.5113 72.3476 29.8739C72.3476 30.5089 72.3476 31.1439 72.3476 31.7789C72.3654 31.8806 72.3584 31.9851 72.3273 32.0836C72.2961 32.1821 72.2416 32.2717 72.1684 32.345C72.0952 32.4183 72.0053 32.4731 71.9064 32.5048C71.8075 32.5365 71.7024 32.5442 71.5999 32.5273H66.3943C65.7835 32.5273 65.578 32.2382 65.5837 31.6372C65.5837 26.6251 65.5837 21.6187 65.5837 16.6067H65.6408Z" fill="white"/>
<path d="M136.419 45.7832L137.84 43.4303C138.217 42.8066 138.628 42.2056 138.982 41.5593C139.023 41.4406 139.09 41.3321 139.177 41.2414C139.265 41.1506 139.371 41.0796 139.488 41.0333C139.606 40.9871 139.732 40.9665 139.858 40.9731C139.985 40.9798 140.108 41.0134 140.22 41.0717V47.3084H139.387V42.6025L139.25 42.5458C139.141 42.6876 139.027 42.8293 138.93 42.9824C138.165 44.2467 137.389 45.4998 136.647 46.7811C136.367 47.2687 136.076 47.4955 135.465 47.2687V41.032H136.259V45.7322L136.419 45.7832Z" fill="white"/>
<path d="M144.57 41.0206H145.369V45.7209L145.551 45.7662L146.801 43.7194C147.235 43.005 147.692 42.2963 148.091 41.5593C148.132 41.4439 148.197 41.3384 148.281 41.25C148.366 41.1615 148.469 41.0922 148.583 41.0465C148.697 41.0009 148.82 40.98 148.943 40.9853C149.066 40.9906 149.186 41.022 149.296 41.0773V47.314H148.508V42.387C148.297 42.6535 148.183 42.7726 148.103 42.9087C147.326 44.19 146.527 45.4544 145.82 46.7584C145.779 46.8769 145.714 46.9856 145.629 47.0776C145.543 47.1696 145.439 47.2427 145.324 47.2924C145.208 47.3421 145.083 47.3672 144.957 47.366C144.831 47.3648 144.707 47.3375 144.592 47.2857L144.57 41.0206Z" fill="white"/>
<path d="M172.481 44.1673C172.481 46.6336 170.769 48.0227 168.52 47.348L168.389 47.3083C166.768 46.7414 166.031 44.3204 166.904 42.455C167.091 42.098 167.349 41.7824 167.662 41.5273C167.976 41.2722 168.338 41.083 168.727 40.9711C169.116 40.8593 169.524 40.8271 169.926 40.8765C170.328 40.9259 170.716 41.056 171.066 41.2587C171.996 41.7747 172.475 42.7669 172.481 44.1673ZM167.43 44.1673C167.477 44.5678 167.548 44.9654 167.641 45.3579C167.756 45.7689 168.003 46.1312 168.344 46.3894C168.686 46.6476 169.104 46.7873 169.533 46.7873C169.962 46.7873 170.38 46.6476 170.722 46.3894C171.063 46.1312 171.31 45.7689 171.425 45.3579C171.705 44.5101 171.679 43.5919 171.351 42.7612C171.219 42.3825 170.962 42.0588 170.623 41.8419C170.283 41.625 169.881 41.5275 169.479 41.5649C169.087 41.5482 168.701 41.6602 168.38 41.8837C168.059 42.1071 167.821 42.4295 167.704 42.8009C167.58 43.2513 167.489 43.7098 167.43 44.173V44.1673Z" fill="white"/>
<path d="M105.214 43.6571C105.214 46.611 103.501 48.0058 101.264 47.3367L101.132 47.297C99.5114 46.7301 98.7637 44.3148 99.637 42.4494C99.8214 42.0909 100.078 41.7737 100.39 41.5171C100.702 41.2606 101.064 41.0702 101.454 40.9577C101.843 40.8451 102.251 40.8127 102.653 40.8626C103.055 40.9124 103.443 41.0434 103.792 41.2474C104.222 41.4891 104.58 41.8393 104.829 42.2624C105.079 42.6855 105.211 43.1667 105.214 43.6571V43.6571ZM100.162 44.1787C100.21 44.5717 100.28 44.9617 100.373 45.3467C100.477 45.769 100.723 46.1432 101.071 46.4065C101.419 46.6697 101.848 46.806 102.285 46.7924C102.716 46.8188 103.142 46.6874 103.482 46.423C103.821 46.1587 104.052 45.7797 104.129 45.358C104.27 44.5214 104.255 43.666 104.083 42.835C103.895 41.9505 103.153 41.5536 102.217 41.5706C101.814 41.5545 101.417 41.6739 101.091 41.9095C100.765 42.1451 100.528 42.4831 100.419 42.869C100.306 43.3032 100.222 43.7446 100.168 44.19L100.162 44.1787Z" fill="white"/>
<path d="M123.861 44.088C123.924 46.5657 122.149 48.0228 119.9 47.3481C119.791 47.3152 119.684 47.2755 119.58 47.229C118.091 46.5657 117.457 44.3204 118.245 42.5288C118.409 42.1788 118.642 41.8648 118.93 41.605C119.218 41.3452 119.555 41.1449 119.921 41.0156C120.288 40.8864 120.676 40.8308 121.065 40.8521C121.453 40.8734 121.833 40.9712 122.183 41.1397C123.49 41.701 123.861 42.818 123.861 44.088ZM118.798 44.19C118.846 44.583 118.917 44.973 119.01 45.358C119.116 45.7802 119.365 46.1534 119.715 46.4154C120.065 46.6775 120.495 46.8125 120.933 46.7981C121.367 46.8248 121.795 46.6932 122.138 46.428C122.481 46.1627 122.714 45.7822 122.794 45.358C122.928 44.5202 122.906 43.6652 122.731 42.835C122.537 41.9392 121.806 41.5536 120.865 41.5706C120.462 41.5565 120.066 41.6767 119.74 41.912C119.415 42.1473 119.177 42.4842 119.067 42.869C118.955 43.3034 118.873 43.7448 118.821 44.19H118.798Z" fill="white"/>
<path d="M113.205 41.7747H110.921C110.893 42.1092 110.87 42.4381 110.836 42.7669C110.739 43.8045 110.71 44.8534 110.511 45.8683C110.492 46.0947 110.425 46.3145 110.314 46.5134C110.204 46.7123 110.052 46.8857 109.869 47.0222C109.687 47.1588 109.477 47.2554 109.254 47.3057C109.031 47.356 108.8 47.3588 108.576 47.3141L108.536 46.628C109.403 46.628 109.677 46.0611 109.763 45.341C109.877 44.0993 109.968 42.8577 110.025 41.616C110.025 41.1511 110.174 40.981 110.659 40.998C111.749 41.032 112.845 40.998 114.004 40.998V47.3197L113.216 47.3594L113.205 41.7747Z" fill="white"/>
<path d="M90.5728 41.0205H91.3263V43.4812H94.4599V41.0432L95.2876 41.0035V47.3026H94.517V44.2863H91.3605V47.3083H90.5443L90.5728 41.0205Z" fill="white"/>
<path d="M74.1456 47.3197V41.083H78.2667L78.3123 41.7464H74.9732C74.9732 42.2226 74.9732 42.6252 74.9732 43.0221C74.9732 43.4189 75.1216 43.589 75.544 43.589C76.3602 43.589 77.1765 43.589 78.0384 43.589V44.224H75.0474V46.6394H78.2838V47.3254L74.1456 47.3197Z" fill="white"/>
<path d="M198.064 47.2857C197.453 47.4671 197.128 47.3481 196.922 46.7187C196.597 45.5848 196.551 45.5848 195.364 45.5848H195.21C193.994 45.5848 193.96 45.5848 193.612 46.7471C193.446 47.3141 193.167 47.4728 192.567 47.3141C192.653 47.0476 192.738 46.7471 192.83 46.509C193.401 44.8704 194.006 43.2318 194.576 41.5876C194.708 41.2021 194.879 41.0206 195.341 41.0206C195.511 41.0046 195.68 41.0548 195.814 41.1606C195.947 41.2664 196.033 41.4196 196.055 41.5876C196.694 43.4473 197.385 45.358 198.064 47.2857ZM196.352 44.8591L195.296 41.8144L194.257 44.8591H196.352Z" fill="white"/>
<path d="M159.821 45.0404V47.3083L158.993 47.3537V40.9355C159.976 40.9708 160.956 41.0654 161.927 41.219C162.335 41.3141 162.691 41.5614 162.92 41.9097C163.15 42.258 163.236 42.6806 163.16 43.09C163.126 43.5349 162.941 43.955 162.635 44.2816C162.329 44.6082 161.921 44.8218 161.476 44.8874C160.963 44.9781 160.392 44.9837 159.821 45.0404ZM159.884 41.7236V44.2807C160.723 44.2353 161.636 44.4905 162.07 43.606C162.163 43.3865 162.207 43.1495 162.198 42.9115C162.189 42.6735 162.128 42.4403 162.019 42.2283C161.493 41.4855 160.632 41.735 159.867 41.7236H159.884Z" fill="white"/>
<path d="M84.2599 43.5153L85.5442 41.5706C85.938 40.9696 85.938 40.9696 86.8113 41.0489C86.1892 41.9561 85.6184 42.8236 85.0476 43.657C84.9269 43.7878 84.8599 43.9587 84.8599 44.1361C84.8599 44.3135 84.9269 44.4845 85.0476 44.6152C85.6184 45.4657 86.1892 46.3501 86.76 47.263C86.6439 47.324 86.5162 47.3601 86.3852 47.3689C86.2542 47.3777 86.1228 47.3591 85.9996 47.3142C85.8763 47.2693 85.7639 47.1991 85.6697 47.1082C85.5755 47.0173 85.5016 46.9078 85.4529 46.7867C85.099 46.1347 84.6538 45.528 84.1857 44.8023C83.7177 45.511 83.261 46.1177 82.89 46.7754C82.8421 46.8927 82.7709 46.9992 82.6806 47.0886C82.5903 47.1779 82.4828 47.2483 82.3645 47.2954C82.2462 47.3425 82.1195 47.3654 81.9921 47.3628C81.8647 47.3601 81.7391 47.332 81.6229 47.28C82.1537 46.4862 82.6332 45.6811 83.204 44.9497C83.3065 44.8499 83.3879 44.7309 83.4435 44.5994C83.4991 44.468 83.5277 44.3269 83.5277 44.1843C83.5277 44.0417 83.4991 43.9006 83.4435 43.7692C83.3879 43.6378 83.3065 43.5187 83.204 43.4189C82.6332 42.6932 82.1822 41.8824 81.6571 41.083C81.7725 41.0246 81.8987 40.9904 82.0279 40.9827C82.1571 40.9749 82.2866 40.9937 82.4082 41.0378C82.5298 41.082 82.6409 41.1506 82.7346 41.2393C82.8283 41.3281 82.9026 41.435 82.9528 41.5535C83.3352 42.2056 83.8033 42.8066 84.2599 43.5153Z" fill="white"/>
<path d="M181.18 42.2452C180.545 42.0053 179.897 41.799 179.239 41.6272C178.9 41.5807 178.553 41.6298 178.24 41.769C177.036 42.2509 176.528 44.1446 177.202 45.5734C177.772 46.7527 179.062 47.1269 180.341 46.4578C180.558 46.3444 180.769 46.2084 180.986 46.078C181.203 46.8887 181.169 46.9568 180.449 47.2119C178.937 47.7789 177.43 47.4274 176.654 46.3728C176.231 45.7102 176.012 44.9401 176.022 44.156C176.032 43.3719 176.272 42.6077 176.711 41.9561C177.595 40.8221 179.793 40.4933 180.883 41.3437C181.089 41.5082 181.083 41.9277 181.18 42.2452Z" fill="white"/>
<path d="M184.262 41.7747V41.0376H189.559V41.735H187.367V47.3083H186.5V41.7747H184.262Z" fill="white"/>
<path d="M67.4045 41.735H65.1213L65.0871 41.049H70.4639V41.7463H68.1808V47.3254H67.3645L67.4045 41.735Z" fill="white"/>
<path d="M131.732 41.0546V41.7406H128.667V47.3196L127.868 47.3536V41.0546H131.732Z" fill="white"/>
</g>
<defs>
<clipPath id="clip0_59_3643">
<rect width="199" height="48" fill="white"/>
</clipPath>
</defs>
</svg>
