<svg width="361" height="165" viewBox="0 0 361 165" fill="none" xmlns="http://www.w3.org/2000/svg">
<path d="M228.618 129.4H233.478C235.194 129.4 236.61 130.012 237.726 131.236C238.854 132.436 239.418 133.924 239.418 135.7C239.418 137.476 238.854 138.97 237.726 140.182C236.61 141.394 235.194 142 233.478 142H228.618V129.4ZM229.878 140.812H233.478C234.858 140.812 235.986 140.32 236.862 139.336C237.75 138.34 238.194 137.128 238.194 135.7C238.194 134.272 237.75 133.06 236.862 132.064C235.986 131.08 234.858 130.588 233.478 130.588H229.878V140.812ZM245.551 132.784C246.895 132.784 247.969 133.258 248.773 134.206C249.601 135.142 250.015 136.252 250.015 137.536C250.015 137.596 250.003 137.782 249.979 138.094H242.077C242.197 138.994 242.581 139.714 243.229 140.254C243.877 140.794 244.687 141.064 245.659 141.064C247.027 141.064 247.993 140.554 248.557 139.534L249.601 140.146C249.205 140.794 248.659 141.304 247.963 141.676C247.279 142.036 246.505 142.216 245.641 142.216C244.225 142.216 243.073 141.772 242.185 140.884C241.297 139.996 240.853 138.868 240.853 137.5C240.853 136.144 241.291 135.022 242.167 134.134C243.043 133.234 244.171 132.784 245.551 132.784ZM245.551 133.936C244.615 133.936 243.829 134.212 243.193 134.764C242.569 135.316 242.197 136.042 242.077 136.942H248.791C248.659 135.982 248.293 135.244 247.693 134.728C247.069 134.2 246.355 133.936 245.551 133.936ZM256.117 132.784C257.197 132.784 258.055 133.12 258.691 133.792C259.327 134.452 259.645 135.346 259.645 136.474V142H258.457V136.474C258.457 135.67 258.241 135.046 257.809 134.602C257.389 134.158 256.789 133.936 256.009 133.936C255.109 133.936 254.395 134.218 253.867 134.782C253.351 135.346 253.093 136.18 253.093 137.284V142H251.905V133H253.093V134.404C253.765 133.324 254.773 132.784 256.117 132.784ZM263.4 130.228C263.4 130.468 263.316 130.672 263.148 130.84C262.98 131.008 262.776 131.092 262.536 131.092C262.296 131.092 262.092 131.008 261.924 130.84C261.756 130.672 261.672 130.468 261.672 130.228C261.672 129.988 261.756 129.784 261.924 129.616C262.092 129.448 262.296 129.364 262.536 129.364C262.776 129.364 262.98 129.448 263.148 129.616C263.316 129.784 263.4 129.988 263.4 130.228ZM263.13 142H261.942V133H263.13V142ZM266.587 135.358C266.587 136.054 267.205 136.564 268.441 136.888C268.789 136.972 269.017 137.032 269.125 137.068C269.233 137.092 269.443 137.158 269.755 137.266C270.079 137.362 270.301 137.446 270.421 137.518C270.553 137.59 270.733 137.704 270.961 137.86C271.189 138.004 271.351 138.154 271.447 138.31C271.543 138.454 271.633 138.646 271.717 138.886C271.801 139.114 271.843 139.36 271.843 139.624C271.843 140.392 271.537 141.016 270.925 141.496C270.337 141.976 269.557 142.216 268.585 142.216C267.745 142.216 267.019 142.03 266.407 141.658C265.795 141.274 265.363 140.77 265.111 140.146L266.119 139.552C266.287 140.02 266.587 140.392 267.019 140.668C267.463 140.932 267.985 141.064 268.585 141.064C269.197 141.064 269.695 140.944 270.079 140.704C270.463 140.464 270.655 140.104 270.655 139.624C270.655 138.928 270.037 138.418 268.801 138.094C268.453 138.01 268.225 137.956 268.117 137.932C268.009 137.896 267.793 137.83 267.469 137.734C267.157 137.626 266.935 137.536 266.803 137.464C266.683 137.392 266.509 137.284 266.281 137.14C266.053 136.984 265.891 136.834 265.795 136.69C265.699 136.534 265.609 136.342 265.525 136.114C265.441 135.874 265.399 135.622 265.399 135.358C265.399 134.626 265.687 134.014 266.263 133.522C266.863 133.03 267.601 132.784 268.477 132.784C269.197 132.784 269.833 132.946 270.385 133.27C270.949 133.594 271.363 134.044 271.627 134.62L270.637 135.196C270.301 134.356 269.581 133.936 268.477 133.936C267.937 133.936 267.487 134.062 267.127 134.314C266.767 134.566 266.587 134.914 266.587 135.358ZM286.604 139.66V129.4H287.864V142H286.784L279.764 131.74V142H278.504V129.4H279.584L286.604 139.66ZM298.299 134.764V133H299.487V142H298.299V140.236C297.471 141.556 296.259 142.216 294.663 142.216C293.379 142.216 292.281 141.76 291.369 140.848C290.469 139.936 290.019 138.82 290.019 137.5C290.019 136.18 290.469 135.064 291.369 134.152C292.281 133.24 293.379 132.784 294.663 132.784C296.259 132.784 297.471 133.444 298.299 134.764ZM292.233 140.038C292.917 140.722 293.757 141.064 294.753 141.064C295.749 141.064 296.589 140.722 297.273 140.038C297.957 139.33 298.299 138.484 298.299 137.5C298.299 136.504 297.957 135.664 297.273 134.98C296.589 134.284 295.749 133.936 294.753 133.936C293.757 133.936 292.917 134.284 292.233 134.98C291.549 135.664 291.207 136.504 291.207 137.5C291.207 138.484 291.549 139.33 292.233 140.038ZM306.772 133V134.152H304.18V139.606C304.18 140.098 304.276 140.452 304.468 140.668C304.66 140.872 304.948 140.98 305.332 140.992C305.716 140.992 306.196 140.98 306.772 140.956V142C305.488 142.192 304.534 142.102 303.91 141.73C303.298 141.346 302.992 140.638 302.992 139.606V134.152H301.102V133H302.992V130.84L304.18 130.48V133H306.772ZM315.947 134.764V133H317.135V142H315.947V140.236C315.119 141.556 313.907 142.216 312.311 142.216C311.027 142.216 309.929 141.76 309.017 140.848C308.117 139.936 307.667 138.82 307.667 137.5C307.667 136.18 308.117 135.064 309.017 134.152C309.929 133.24 311.027 132.784 312.311 132.784C313.907 132.784 315.119 133.444 315.947 134.764ZM309.881 140.038C310.565 140.722 311.405 141.064 312.401 141.064C313.397 141.064 314.237 140.722 314.921 140.038C315.605 139.33 315.947 138.484 315.947 137.5C315.947 136.504 315.605 135.664 314.921 134.98C314.237 134.284 313.397 133.936 312.401 133.936C311.405 133.936 310.565 134.284 309.881 134.98C309.197 135.664 308.855 136.504 308.855 137.5C308.855 138.484 309.197 139.33 309.881 140.038ZM320.839 142H319.651V128.86H320.839V142ZM327.554 142.216C326.198 142.216 325.07 141.766 324.17 140.866C323.27 139.942 322.82 138.82 322.82 137.5C322.82 136.168 323.27 135.052 324.17 134.152C325.07 133.24 326.198 132.784 327.554 132.784C328.442 132.784 329.24 133 329.948 133.432C330.656 133.852 331.172 134.422 331.496 135.142L330.524 135.7C330.284 135.16 329.894 134.734 329.354 134.422C328.826 134.098 328.226 133.936 327.554 133.936C326.558 133.936 325.718 134.284 325.034 134.98C324.35 135.664 324.008 136.504 324.008 137.5C324.008 138.484 324.35 139.33 325.034 140.038C325.718 140.722 326.558 141.064 327.554 141.064C328.214 141.064 328.808 140.908 329.336 140.596C329.876 140.284 330.296 139.852 330.596 139.3L331.586 139.876C331.214 140.596 330.668 141.166 329.948 141.586C329.228 142.006 328.43 142.216 327.554 142.216ZM337.503 132.784C338.583 132.784 339.441 133.12 340.077 133.792C340.713 134.452 341.031 135.346 341.031 136.474V142H339.843V136.474C339.843 135.67 339.627 135.046 339.195 134.602C338.775 134.158 338.175 133.936 337.395 133.936C336.495 133.936 335.781 134.218 335.253 134.782C334.737 135.346 334.479 136.18 334.479 137.284V142H333.291V129.4H334.479V134.404C335.151 133.324 336.159 132.784 337.503 132.784ZM349.664 137.716V133H350.852V142H349.664V140.596C348.992 141.676 347.984 142.216 346.64 142.216C345.56 142.216 344.702 141.886 344.066 141.226C343.43 140.554 343.112 139.654 343.112 138.526V133H344.3V138.526C344.3 139.33 344.51 139.954 344.93 140.398C345.362 140.842 345.968 141.064 346.748 141.064C347.648 141.064 348.356 140.782 348.872 140.218C349.4 139.654 349.664 138.82 349.664 137.716ZM355.813 137.32L360.637 142H359.053L354.553 137.662V142H353.365V129.4H354.553V136.978L358.837 133H360.457L355.813 137.32Z" fill="white"/>
<path d="M285.014 160.168C284.118 160.168 283.348 159.958 282.704 159.538C282.07 159.109 281.626 158.521 281.374 157.774L282.214 157.284C282.392 157.9 282.718 158.376 283.194 158.712C283.68 159.048 284.291 159.216 285.028 159.216C285.747 159.216 286.312 159.057 286.722 158.74C287.133 158.423 287.338 157.993 287.338 157.452C287.338 156.939 287.152 156.551 286.778 156.29C286.414 156.029 285.798 155.758 284.93 155.478C283.894 155.133 283.222 154.862 282.914 154.666C282.168 154.218 281.794 153.569 281.794 152.72C281.794 151.889 282.084 151.236 282.662 150.76C283.232 150.275 283.946 150.032 284.804 150.032C285.542 150.032 286.195 150.228 286.764 150.62C287.334 151.003 287.758 151.511 288.038 152.146L287.212 152.608C286.764 151.525 285.962 150.984 284.804 150.984C284.188 150.984 283.694 151.138 283.32 151.446C282.956 151.745 282.774 152.155 282.774 152.678C282.774 153.173 282.942 153.537 283.278 153.77C283.624 154.013 284.179 154.26 284.944 154.512L285.7 154.778C285.859 154.825 286.083 154.909 286.372 155.03C286.69 155.151 286.909 155.254 287.03 155.338C287.525 155.637 287.838 155.912 287.968 156.164C288.202 156.537 288.318 156.957 288.318 157.424C288.318 158.255 288.015 158.922 287.408 159.426C286.802 159.921 286.004 160.168 285.014 160.168ZM293.366 153V153.896H291.35V158.138C291.35 158.521 291.424 158.796 291.574 158.964C291.723 159.123 291.947 159.207 292.246 159.216C292.544 159.216 292.918 159.207 293.366 159.188V160C292.367 160.149 291.625 160.079 291.14 159.79C290.664 159.491 290.426 158.941 290.426 158.138V153.896H288.956V153H290.426V151.32L291.35 151.04V153H293.366ZM299.834 156.668V153H300.758V160H299.834V158.908C299.311 159.748 298.527 160.168 297.482 160.168C296.642 160.168 295.974 159.911 295.48 159.398C294.985 158.875 294.738 158.175 294.738 157.298V153H295.662V157.298C295.662 157.923 295.825 158.409 296.152 158.754C296.488 159.099 296.959 159.272 297.566 159.272C298.266 159.272 298.816 159.053 299.218 158.614C299.628 158.175 299.834 157.527 299.834 156.668ZM308.732 154.372V150.2H309.656V160H308.732V158.628C308.088 159.655 307.146 160.168 305.904 160.168C304.906 160.168 304.052 159.813 303.342 159.104C302.642 158.395 302.292 157.527 302.292 156.5C302.292 155.473 302.642 154.605 303.342 153.896C304.052 153.187 304.906 152.832 305.904 152.832C307.146 152.832 308.088 153.345 308.732 154.372ZM304.014 158.474C304.546 159.006 305.2 159.272 305.974 159.272C306.749 159.272 307.402 159.006 307.934 158.474C308.466 157.923 308.732 157.265 308.732 156.5C308.732 155.725 308.466 155.072 307.934 154.54C307.402 153.999 306.749 153.728 305.974 153.728C305.2 153.728 304.546 153.999 304.014 154.54C303.482 155.072 303.216 155.725 303.216 156.5C303.216 157.265 303.482 157.923 304.014 158.474ZM312.747 150.844C312.747 151.031 312.681 151.189 312.551 151.32C312.42 151.451 312.261 151.516 312.075 151.516C311.888 151.516 311.729 151.451 311.599 151.32C311.468 151.189 311.403 151.031 311.403 150.844C311.403 150.657 311.468 150.499 311.599 150.368C311.729 150.237 311.888 150.172 312.075 150.172C312.261 150.172 312.42 150.237 312.551 150.368C312.681 150.499 312.747 150.657 312.747 150.844ZM312.537 160H311.613V153H312.537V160ZM320.364 159.118C319.645 159.818 318.777 160.168 317.76 160.168C316.724 160.168 315.851 159.818 315.142 159.118C314.432 158.409 314.078 157.536 314.078 156.5C314.078 155.464 314.432 154.596 315.142 153.896C315.851 153.187 316.724 152.832 317.76 152.832C318.786 152.832 319.654 153.187 320.364 153.896C321.082 154.596 321.442 155.464 321.442 156.5C321.442 157.527 321.082 158.399 320.364 159.118ZM315.8 158.474C316.332 159.006 316.985 159.272 317.76 159.272C318.534 159.272 319.188 159.006 319.72 158.474C320.252 157.923 320.518 157.265 320.518 156.5C320.518 155.725 320.252 155.072 319.72 154.54C319.188 153.999 318.534 153.728 317.76 153.728C316.985 153.728 316.332 153.999 315.8 154.54C315.268 155.072 315.002 155.725 315.002 156.5C315.002 157.265 315.268 157.923 315.8 158.474ZM332.928 154.498V150.2H333.908V160H332.928V155.422H327.608V160H326.628V150.2H327.608V154.498H332.928ZM339.237 152.832C340.283 152.832 341.118 153.201 341.743 153.938C342.387 154.666 342.709 155.529 342.709 156.528C342.709 156.575 342.7 156.719 342.681 156.962H336.535C336.629 157.662 336.927 158.222 337.431 158.642C337.935 159.062 338.565 159.272 339.321 159.272C340.385 159.272 341.137 158.875 341.575 158.082L342.387 158.558C342.079 159.062 341.655 159.459 341.113 159.748C340.581 160.028 339.979 160.168 339.307 160.168C338.206 160.168 337.31 159.823 336.619 159.132C335.929 158.441 335.583 157.564 335.583 156.5C335.583 155.445 335.924 154.573 336.605 153.882C337.287 153.182 338.164 152.832 339.237 152.832ZM339.237 153.728C338.509 153.728 337.898 153.943 337.403 154.372C336.918 154.801 336.629 155.366 336.535 156.066H341.757C341.655 155.319 341.37 154.745 340.903 154.344C340.418 153.933 339.863 153.728 339.237 153.728ZM350.199 154.372V153H351.123V160H350.199V158.628C349.555 159.655 348.613 160.168 347.371 160.168C346.373 160.168 345.519 159.813 344.809 159.104C344.109 158.395 343.759 157.527 343.759 156.5C343.759 155.473 344.109 154.605 344.809 153.896C345.519 153.187 346.373 152.832 347.371 152.832C348.613 152.832 349.555 153.345 350.199 154.372ZM345.481 158.474C346.013 159.006 346.667 159.272 347.441 159.272C348.216 159.272 348.869 159.006 349.401 158.474C349.933 157.923 350.199 157.265 350.199 156.5C350.199 155.725 349.933 155.072 349.401 154.54C348.869 153.999 348.216 153.728 347.441 153.728C346.667 153.728 346.013 153.999 345.481 154.54C344.949 155.072 344.683 155.725 344.683 156.5C344.683 157.265 344.949 157.923 345.481 158.474ZM359.1 154.372V150.2H360.024V160H359.1V158.628C358.456 159.655 357.513 160.168 356.272 160.168C355.273 160.168 354.419 159.813 353.71 159.104C353.01 158.395 352.66 157.527 352.66 156.5C352.66 155.473 353.01 154.605 353.71 153.896C354.419 153.187 355.273 152.832 356.272 152.832C357.513 152.832 358.456 153.345 359.1 154.372ZM354.382 158.474C354.914 159.006 355.567 159.272 356.342 159.272C357.116 159.272 357.77 159.006 358.302 158.474C358.834 157.923 359.1 157.265 359.1 156.5C359.1 155.725 358.834 155.072 358.302 154.54C357.77 153.999 357.116 153.728 356.342 153.728C355.567 153.728 354.914 153.999 354.382 154.54C353.85 155.072 353.584 155.725 353.584 156.5C353.584 157.265 353.85 157.923 354.382 158.474Z" fill="#AFAFAF"/>
<path d="M293.455 34.6494L294.455 34.6497V35.6494V36.6651C294.455 38.6413 294.113 41.1008 293.581 43.4459C293.05 45.7876 292.312 48.0916 291.484 49.7429C289.058 54.5814 285.094 58.2612 279.385 61.0887C278.842 61.3579 278.288 61.6609 277.838 61.9296C277.613 62.0641 277.42 62.186 277.271 62.2875C277.197 62.3383 277.138 62.3809 277.094 62.4149C277.053 62.4462 277.035 62.4626 277.032 62.4653C277.031 62.4657 277.031 62.4658 277.031 62.4655L276.336 61.7543L277.032 62.4654C276.163 63.3151 275.82 64.5252 276.09 65.5987L275.121 65.8427L276.09 65.5986C276.09 65.5972 276.093 65.6078 276.101 65.6339C276.109 65.6587 276.12 65.6913 276.135 65.7325C276.165 65.8151 276.206 65.9207 276.257 66.0487C276.36 66.3044 276.498 66.631 276.663 67.0082C276.991 67.7616 277.417 68.6974 277.854 69.6331C278.292 70.5687 278.738 71.4983 279.108 72.2393C279.497 73.0201 279.757 73.4996 279.839 73.6143L279.839 73.6145C280.236 74.1723 281.053 74.711 281.838 74.8868L281.838 74.8869C282.349 75.0012 282.754 75.0103 283.417 74.8143C284.146 74.5988 285.148 74.1461 286.83 73.2966C291.753 70.811 295.62 68.0381 299.08 64.5261C304.195 59.3347 307.136 54.2181 308.798 47.6627L309.638 47.8757L308.798 47.6627C310.544 40.7727 310.988 34.255 310.909 15.5558L310.857 3.51658L310.547 2.90817L310.547 2.90807C310.372 2.56464 309.969 2.05067 309.717 1.83464C309.66 1.7861 309.611 1.74317 309.567 1.70502C309.309 1.48306 309.239 1.42235 309.079 1.35598C308.871 1.26935 308.479 1.17579 307.515 1.1124C305.729 0.994972 302.397 0.99713 295.613 1.00153C295.113 1.00185 294.594 1.00219 294.056 1.00249C287.287 1.00627 283.76 1.01175 281.825 1.05457C279.891 1.09733 279.679 1.18056 279.474 1.26074C279.471 1.26206 279.467 1.26337 279.464 1.26469L293.455 34.6494ZM293.455 34.6494L286.607 34.6477C283.172 34.6469 281.496 34.6459 280.566 34.598C280.105 34.5742 279.885 34.541 279.751 34.508C279.631 34.4788 279.554 34.4452 279.343 34.3463C278.49 33.9456 278.017 33.472 277.616 32.618L277.317 31.9789V17.822V3.66692L277.619 3.02917C277.619 3.02912 277.619 3.02907 277.619 3.02902M293.455 34.6494L277.619 3.02902M277.619 3.02902C278.022 2.17729 278.663 1.57768 279.464 1.26476L277.619 3.02902ZM343.526 34.6497L342.526 34.6494L335.678 34.6477C332.25 34.647 330.573 34.6458 329.641 34.598C329.179 34.5744 328.957 34.5413 328.82 34.5082C328.7 34.4789 328.621 34.445 328.412 34.3476C327.628 33.9813 326.877 33.175 326.59 32.4195L325.655 32.7742L326.59 32.4195C326.538 32.2817 326.459 31.9772 326.426 29.8464C326.394 27.789 326.4 24.1682 326.421 17.573L326.468 3.35796L326.723 2.88055C326.882 2.58187 327.182 2.21853 327.564 1.88687C327.945 1.55533 328.337 1.31722 328.637 1.20999C328.639 1.20969 328.674 1.19936 328.767 1.18571C328.873 1.17002 329.03 1.15358 329.258 1.13797C329.716 1.1067 330.411 1.0822 331.478 1.06357C333.609 1.02639 337.159 1.0135 343.127 1.00787C343.906 1.00713 344.645 1.00627 345.346 1.00546C351.889 0.99783 355.09 0.994099 356.809 1.13315C357.761 1.21012 358.111 1.32358 358.289 1.41745C358.433 1.4938 358.502 1.56409 358.715 1.7822C358.786 1.85468 358.872 1.94347 358.983 2.05423C359.05 2.1214 359.109 2.17974 359.161 2.23118C359.426 2.49456 359.509 2.577 359.591 2.73653C359.687 2.9225 359.797 3.2758 359.873 4.1868C360.013 5.88039 360.007 9.02534 359.994 15.4689C359.993 15.9779 359.992 16.5074 359.991 17.0584C359.965 30.5345 359.877 33.7718 359.428 38.2403C358.934 43.1491 357.987 47.8627 356.874 51.0443C355.711 54.3671 353.453 58.3929 350.985 61.5186C349.6 63.2733 346.302 66.5265 344.424 67.9882C342.003 69.8712 339.228 71.6284 336.349 73.0983C334.294 74.1475 333.15 74.6712 332.332 74.8863C331.619 75.0735 331.181 75.0222 330.49 74.7866C329.931 74.5956 329.566 74.3688 329.109 73.7583C328.597 73.0748 328.007 71.9559 327.066 69.9539C326.07 67.8345 325.553 66.6964 325.292 65.9477C325.057 65.2741 325.053 64.993 325.093 64.5669C325.168 63.7771 325.37 63.2824 325.79 62.8234C326.256 62.3134 327.046 61.7869 328.456 61.0887C331.658 59.5029 334.04 57.8545 336.191 55.7095C338.877 53.0316 340.363 50.6686 341.673 47.0019C342.724 44.0594 343.526 39.6666 343.526 36.791V35.6494V34.6497Z" stroke="#0463F1" stroke-width="2"/>
<path fill-rule="evenodd" clip-rule="evenodd" d="M178.092 19.191C173.48 25.0047 167.185 41.1014 160.754 63.5189L158.293 72.0965L153.476 80.1047C150.826 84.5096 148.27 88.5896 147.796 89.172L146.933 90.2305L147.212 88.8866C147.365 88.1475 148.798 84.8213 150.396 81.4952C153.364 75.3142 153.868 73.2979 152.566 72.8002C151.54 72.4078 150.746 73.1805 148.337 76.9148L146.235 80.1737L146.453 77.9227C146.646 75.9145 146.575 75.6717 145.792 75.6717C144.682 75.6717 143.334 77.0993 141.058 80.6848C140.071 82.2393 139.402 83.1079 139.57 82.6151C140.408 80.1598 140.366 79.3423 139.375 78.8137C138.504 78.3492 138.204 78.4867 136.742 80.0223C135.835 80.9756 132.802 85.4176 130.001 89.8936C127.201 94.3697 124.103 98.8973 123.116 99.9549L121.323 101.878L121.567 99.7659C121.803 97.7223 125.737 90.1176 129.093 85.2187C129.992 83.9053 130.22 83.2459 129.853 83.0196C129.343 82.7056 128.75 83.2557 127.125 85.5511C126.411 86.5599 126.311 86.5845 125.867 85.8629C124.655 83.8954 122.328 85.5493 116.908 92.228C115 94.5789 112.56 97.9131 111.484 99.6378C107.757 105.615 104.636 109.269 103.258 109.269C102.497 109.269 102.425 109.048 102.677 107.477C103.196 104.244 104.291 101.542 108.598 92.8637L112.85 84.2977L116.33 81.4643C129.524 70.723 138.098 59.0983 134.932 56.2426C134.338 55.7073 133.708 55.5357 133.073 55.7364C130.232 56.635 120.704 68.8532 114.035 80.1513C112.633 82.5264 111.274 83.9079 106.656 87.6493C103.543 90.1718 100.922 92.1626 100.832 92.073C100.742 91.9834 101.412 90.6252 102.322 89.0546C112.293 71.8281 113.37 70.2343 118.856 64.5895C120.71 62.6821 121.426 61.6486 121.112 61.3355C120.642 60.8669 118.534 62.9356 109.959 72.2842C105.805 76.8131 102.918 79.1152 102.058 78.5852C101.723 78.3787 101.657 77.2884 101.857 75.2649C102.101 72.7931 102.022 72.1193 101.415 71.5146C100.827 70.9286 100.426 70.8722 99.4558 71.24C97.7814 71.8747 96.9836 72.6502 93.7468 76.7916C88.7367 83.2015 83.4776 91.3822 84.0196 91.9225C84.2893 92.1913 84.5824 92.3234 84.671 92.2163C84.76 92.1097 86.5116 89.5026 88.5631 86.4228C93.6488 78.7895 97.7891 73.5685 99.4252 72.7254L100.789 72.0221L100.48 75.307C100.202 78.2717 100.261 78.6726 101.095 79.4247C102.311 80.5209 103.594 80.1697 106.059 78.0665C107.683 76.6818 107.911 76.5855 107.396 77.5025C97.7949 94.5919 97.6938 94.7411 92.312 99.7592C88.9834 102.863 87.3666 104.665 87.6543 104.952C87.9415 105.238 89.2235 104.392 91.3469 102.514C93.1359 100.932 94.4174 99.9401 94.1949 100.31C86.4914 113.104 77.7096 122.003 69.923 124.907C64.6459 126.874 61.1506 125.528 61.1506 121.529C61.1506 120.869 62.4442 118.463 64.2364 115.793C65.9337 113.263 68.0072 109.524 68.8437 107.484C70.0169 104.624 70.8422 103.348 72.4487 101.908C76.6461 98.1474 82.3426 96.0747 83.985 97.7115C84.2817 98.0072 84.5244 99.2727 84.5244 100.524C84.5244 107.414 75.9184 116.77 68.4549 117.994C66.5989 118.298 66.0757 118.783 66.9936 119.348C67.7847 119.835 72.9616 118.242 75.1632 116.834C79.8537 113.835 84.7582 107.272 85.8163 102.58C86.3148 100.368 85.7978 97.7962 84.6188 96.6212C82.7089 94.7173 77.6228 96.0182 73.1045 99.5652L71.3483 100.944L71.6522 99.6189C71.8194 98.8901 72.0815 96.6333 72.2352 94.6031C72.4572 91.6627 72.3529 90.4926 71.7214 88.8441L70.9285 86.7754L74.9011 82.7979C77.9231 79.7723 78.7488 78.6959 78.3506 78.299C77.9523 77.9021 76.8807 78.7443 73.8713 81.8173L69.9158 85.857L68.3425 85.1945C65.9593 84.1902 62.322 84.6982 57.9259 86.6477C54.0535 88.3656 53.7092 88.4404 51.5354 88.0418C50.796 87.906 49.1576 88.1811 47.7322 88.6801C39.3787 91.6062 29.3473 103.359 24.5328 115.859C22.8242 120.296 22.6242 121.366 23.5052 121.361C23.8145 121.359 24.4438 120.2 24.9045 118.785C29.4377 104.855 42.812 89.5586 50.458 89.5586H52.2074L49.5994 91.7334C48.1651 92.9299 45.2703 95.7015 43.1662 97.8929C31.6559 109.883 26.5173 123.542 32.9195 125.13C38.6542 126.551 50.4611 113.495 54.5924 101.163C55.989 96.9943 56.3239 93.4827 55.5409 91.2232L54.9529 89.5281L56.7941 88.5923C61.5457 86.1764 66.3652 85.3146 68.0913 86.572C68.8559 87.1293 68.6716 87.5244 65.3174 92.5138C63.3414 95.4533 58.9328 102.492 55.5206 108.155C45.6209 124.585 41.0599 130.929 35.4456 136.07C33.7475 137.626 32.2021 138.414 27.4662 140.136C21.2348 142.401 20.9062 142.567 21.3175 143.23C21.4654 143.468 23.9826 142.784 27.0935 141.661C30.1263 140.566 33.9888 139.275 35.6771 138.793C42.216 136.925 48.6343 132.912 55.1512 126.616L59.7144 122.206L60.2543 123.835C61.418 127.35 65.7624 128.165 71.1433 125.877C79.0824 122.501 87.2407 114.188 95.0382 101.527C98.2593 96.2964 98.6436 95.8646 103.715 91.7711C106.634 89.4152 109.235 87.3618 109.494 87.2081C109.754 87.0545 108.817 89.1832 107.412 91.939C102.659 101.267 100.537 107.728 101.587 109.683C102.822 111.982 106.147 109.868 110.105 104.268L112.278 101.195L112.23 103.033C112.183 104.821 113.092 106.133 114.377 106.133C114.633 106.133 116.01 104.909 117.438 103.414C119.511 101.243 120.035 100.884 120.035 101.636C120.035 102.833 121.158 103.274 122.425 102.576C123.864 101.782 126.086 98.7427 131.282 90.4545C136.296 82.4597 137.912 80.1513 138.497 80.1513C139.544 80.1513 134.737 89.9823 131.055 95.3709C129.682 97.3805 128.683 99.2261 128.836 99.4725C129.25 100.14 130.528 98.8099 132.71 95.4408C133.768 93.8071 135.451 91.4593 136.449 90.2238C137.447 88.9879 139.652 85.7065 141.349 82.9314C145.671 75.8647 146.354 75.647 143.63 82.2052C142.098 85.8942 138.986 91.4472 136.827 94.3469C136.117 95.3001 135.928 95.8767 136.26 96.0809C136.974 96.5204 138.08 95.2302 140.699 90.9034C141.967 88.81 143.477 86.5926 144.056 85.9757C144.634 85.3594 146.458 82.6375 148.11 79.9273C149.761 77.2172 151.301 74.808 151.53 74.5742C152.527 73.5604 151.771 75.5234 149 81.1445C145.823 87.588 145.228 90.1593 146.702 91.0682C147.797 91.7437 148.931 90.3757 153.29 83.1218C155.14 80.0425 156.71 77.5791 156.778 77.6472C156.847 77.7157 156.207 80.6754 155.356 84.2251C154.505 87.7743 153.261 93.4487 152.591 96.834L151.373 102.99L144.581 106.743C133.746 112.732 124.263 117.695 111.613 123.997L99.8208 129.872L90.9819 130.778C52.8506 134.684 19.9681 142.744 7.36603 151.273C1.69113 155.113 -1.17306 159.968 0.451417 162.993C1.7154 165.347 8.33964 165.664 16.6212 163.766C33.6193 159.871 64.9686 147.854 93.3867 134.338L99.7763 131.299L109.066 130.747C118.905 130.163 140.09 130.424 144.932 131.189C146.869 131.495 147.722 131.463 148.115 131.072C148.41 130.779 148.89 128.424 149.182 125.839C149.475 123.254 150.344 117.271 151.115 112.541L152.515 103.942L159.087 100.035C170.5 93.2476 176.645 89.1164 176.374 88.4122C176.095 87.6879 176.206 87.6368 171.952 90.4648C166.427 94.1372 153.655 101.712 153.406 101.463C153.066 101.124 155.246 90.3542 157.624 80.632C159.266 73.9188 159.983 71.7981 161.463 69.273C170.696 53.5181 182.529 24.3363 181.982 18.6727C181.749 16.2689 180.251 16.4683 178.092 19.191ZM179.628 24.188C178.178 29.7961 174.435 39.5564 169.932 49.4702C166.631 56.7362 161.06 67.4851 161.575 65.5925C167.166 45.0699 174.547 25.9463 179.247 19.8038C180.972 17.5501 181.066 18.627 179.628 24.188ZM134.418 57.6411C134.418 59.1463 131.84 63.8266 129.176 67.1604C125.452 71.8205 114.625 81.889 116.243 79.1882C120.511 72.0606 127.953 62.0047 131.196 58.985C133.636 56.7129 134.419 56.3864 134.418 57.6411ZM124.766 88.1027C124.113 91.5959 117.285 102.604 114.753 104.244C113.765 104.884 113.742 104.859 113.742 103.152C113.742 99.8712 118.744 91.1197 122.494 87.8379C124.649 85.9529 125.156 86.012 124.766 88.1027ZM71.0161 93.1423C71.0445 97.2479 69.4627 102.869 67.7456 104.763C64.3784 108.477 60.9497 114.617 60.4116 117.896C60.1967 119.206 59.3027 120.461 56.3823 123.553C50.8688 129.39 44.6028 133.875 38.451 136.389L36.653 137.124L38.5036 135.179C43.2682 130.173 47.9089 123.504 55.7571 110.389C58.5583 105.708 62.8825 98.771 65.366 94.974L69.8821 88.0709L70.4403 89.3745C70.7478 90.0916 71.0067 91.7872 71.0161 93.1423ZM54.1353 91.1632C54.707 92.6482 54.3708 97.2022 53.4714 100.151C52.3872 103.704 49.3023 109.656 46.5392 113.525C40.7484 121.632 32.6732 126.473 31.6586 122.445C30.1277 116.366 39.7842 101.34 51.0369 92.2934C53.5833 90.2462 53.7577 90.1826 54.1353 91.1632ZM149.718 112.413C149.017 116.474 148.193 122.078 147.887 124.867L147.33 129.939L142.785 129.571C140.285 129.369 130.616 129.212 121.3 129.223L104.36 129.243L119.052 121.777C127.133 117.67 137.588 112.19 142.285 109.599C146.982 107.007 150.863 104.919 150.908 104.959C150.954 104.998 150.418 108.352 149.718 112.413ZM65.6757 110.918C64.903 112.351 63.8611 114.029 63.3594 114.645C62.4946 115.708 62.4977 115.662 63.4219 113.749C64.6585 111.188 66.6911 107.922 66.9118 108.142C67.0044 108.234 66.4483 109.483 65.6757 110.918ZM91.9411 133.484C75.0243 141.672 48.2837 152.591 32.158 157.896C7.92565 165.868 -2.77058 165.678 2.82835 157.376C7.99622 149.713 26.7254 142.635 56.5325 137.081C66.696 135.188 90.9581 131.815 94.8629 131.754C95.2337 131.748 93.9189 132.527 91.9411 133.484Z" fill="#DADADA"/>
</svg>
