<svg width="173" height="95" viewBox="0 0 173 95" fill="none" xmlns="http://www.w3.org/2000/svg">
<path opacity="0.1" d="M128.186 33.5964L127.899 33.5034L127.336 33.4837L126.992 33.5417L126.831 33.5745L126.59 33.7659L126.419 33.9563L126.344 34.2801L126.435 34.6455L126.311 35.4047L126.143 35.6902L125.79 36.1857L125.584 36.2929L125.24 36.3816L124.908 36.5281L124.259 36.6703L123.558 36.7426L123.308 36.8486L123.13 37.1867L123.004 37.4678L122.927 37.6823L122.728 38.3802L122.616 39.0026L122.726 39.7739L122.809 40.6282L122.803 40.9225L122.975 41.3579L123.061 41.6248L123.02 42.0033L122.774 42.3009L122.626 42.6947L122.486 42.8621L122.086 42.9375L121.708 42.9835L121.327 43.3215L121.022 43.5545L120.545 43.851L120.321 43.9068L120.197 43.7558L120.115 43.42L119.952 43.2712L119.721 43.2592L119.536 43.2559L118.936 43.1651L118.552 43.1717L118.263 43.2438L117.934 43.28L117.365 43.1574L116.998 43.0535L116.75 42.954L116.159 42.6597L115.383 42.3096L115.065 42.2068L114.876 42.3118L114.847 42.512L114.798 42.9966L114.707 43.2996L114.166 44.8268L113.831 45.8835L113.406 46.8932L113.271 47.5682L113.017 48.4204L112.765 49.0363L112.662 49.371L112.653 49.5078L112.697 49.6992L113.085 49.9082L113.491 50.0362L113.581 50.116L113.625 50.3326L113.609 50.6871L113.535 51.0218L113.418 51.2843L113.302 51.4145L113.17 51.4222L112.916 51.2537L112.689 51.0655L112.514 51.0086L112.068 51.1137L111.655 51.257L111.517 51.2614L111.277 51.1695L111.035 50.9791L110.939 50.6105L110.731 50.4431L110.453 50.6105L109.625 50.8916L108.713 51.2263L108.133 51.3992L107.906 51.3729L107.457 51.4123L107.067 51.5053L106.774 51.6344L106.197 51.8127L105.672 51.932L105.334 52.2021L105.091 52.4625L105.101 52.561L105.278 52.7152L105.48 52.8355L105.884 52.8071L106.278 52.7885L106.606 52.9515L106.9 53.0565L106.981 53.1922L106.9 53.3245L106.73 53.3552L106.671 53.4471L106.7 53.5707L106.588 53.8923L106.529 54.3791L106.588 54.8582L106.62 55.2991L106.599 55.5212L106.588 55.8373L106.712 56.0506L106.824 56.4565L107.024 56.7103L107.325 57.5876L107.503 58.0985L107.667 58.6761L107.549 58.9879L107.556 59.1684L107.748 59.3194L107.832 59.6136L107.922 59.793L107.897 59.9714L107.816 60.0403L107.399 59.932L107.058 60.1103L106.696 60.2897L106.647 60.3849L106.637 60.4888L106.674 60.5796L106.883 60.7393L107.171 60.8388L107.156 60.9986L106.8 61.0718L106.262 61.3158L106.113 61.5772L105.998 61.865L105.988 62.0312L106.042 62.4765L106.124 62.9687L106.277 63.4873L106.289 63.647L106.21 63.7608L106.136 63.834L105.709 63.367L105.243 62.9108L104.878 62.8058L104.243 62.7303L103.906 62.727L103.715 62.6187L103.527 62.3539L103.303 62.1144L103.016 61.8606L102.899 61.4733L102.781 61.4044L102.573 61.4536L102.227 61.4416L102.032 61.4077L101.742 61.341L101.279 61.1823L100.913 61.0325L100.453 61.004L100.188 61.0335L99.3606 61.062L98.6736 60.9045L98.1182 60.876L97.7758 60.8848L97.6123 60.8651L97.3319 60.8662L96.9188 60.8323L96.3666 60.5894L96.1524 60.5774L96.0165 60.5861L95.0932 60.7644L94.668 60.806L93.7658 60.7852L92.8801 60.7655L92.5951 60.7283L92.4372 60.7469L92.1025 61.1747L91.959 61.2414L91.1241 61.1484L90.1368 60.8673L89.4233 60.5588L88.8181 60.2317L88.0164 59.7154L87.537 59.4605L87.4675 59.6071L87.3405 59.6541L87.156 59.6771L86.7308 59.6508L86.5342 59.9123L86.0152 60.0993L85.685 60.2667L85.5127 60.456L85.1836 61.7063L85.0952 62.1625L85.3161 62.9283L85.0632 62.8834L84.7661 62.6876L84.6634 62.5333L84.3773 62.4393L83.3371 62.2971L83.1427 62.1209L83.0212 61.9776L82.7517 61.8836L82.3707 61.8113L81.5424 61.4788L81.189 61.4668L80.12 61.2108L79.9454 61.213L79.866 61.2239L79.4507 61.3913L79.1823 61.4394L78.8963 61.3716L78.3838 61.5783L78.1067 61.854L77.878 62.191L77.6594 62.4032L77.5942 62.7204L77.4396 62.8845L77.2552 63.2127V63.4041L77.4219 63.5901L77.1547 63.7619L76.8576 63.8154L76.7041 63.9205L76.5406 64.1732L76.3882 64.3898L76.2988 64.4663L76.1618 64.4521L76.0028 64.2837L75.7764 64.2913L75.5069 64.4992L75.1867 64.8372L74.7836 65.3524L74.3628 65.6259L73.8305 65.8578L73.445 65.9607L73.1402 66.1368L72.6311 66.4934L72.5295 66.7035L72.1607 66.8271L71.8635 66.9693L71.5886 67.2067L71.5212 67.6257L71.3467 67.8663L70.9259 68.1956L70.5725 68.5282L70.3417 68.8542L70.0976 69.1988L70.0215 69.388L70.0126 69.6473L70.1275 69.865L70.1495 70.0717L70.0623 70.2216L69.8238 70.2785L69.5742 70.2347L69.1909 70.087L68.7834 69.8223L68.6343 69.6921L68.4344 69.4689L68.4632 69.2622L68.5659 68.8585L68.6354 68.5818L68.4698 68.4494L68.3472 68.3072L68.2599 68.1705L68.0876 67.9002L67.8712 67.967L67.6835 68.0337L67.4659 67.9385L66.8242 67.9801L66.3405 68.0107L65.8855 68.0392L65.309 68.0764L64.6132 68.1212L64.4134 68.0622L64.2885 67.9724L64.1627 67.5994L64.0898 67.2822L63.955 66.6881L63.8645 66.2276L63.7574 65.6784L63.6867 65.0702L63.6358 64.637L63.1091 64.6228L62.6883 64.6119L62.1195 64.5965L62.124 64.2508L62.1306 63.8144L62.1383 63.3166L62.2444 62.6624L62.2841 62.1133L62.3338 61.4405L62.3647 60.9953L62.4001 60.5041L62.1063 60.6561L61.7827 60.8235L61.479 60.98L61.2703 60.5829L61.0671 60.1956L60.7589 59.606L60.5281 59.164L60.1272 58.9048L59.8279 58.7133L59.5198 58.3906L59.2537 58.0547L59.0008 57.7353L58.6982 57.4586L58.4077 57.5461L58.0797 57.72L57.7639 57.8863L57.4292 58.0635L57.2658 58.1499L56.877 58.1171L56.5379 58.0887L55.9317 58.0373L55.4203 57.9935L54.8979 57.9487L54.1702 57.8863L53.4325 57.8239L52.9399 57.9071L52.3148 58.011L51.6588 58.1204L51.1165 58.2112L50.4296 58.325L49.9161 58.4103L49.6632 58.3982L49.3451 58.0394L48.8349 57.4629L48.5268 57.1129L48.2242 56.7694L47.7868 56.2738L47.4357 55.8975L47.0921 55.5299L46.8944 55.1897L46.7962 54.7609L46.6173 54.5662L46.2197 54.3036L45.7912 54.0214L45.3627 53.7391L44.9342 53.4569L44.5057 53.1736L44.0772 52.8902L43.6487 52.6069L43.2202 52.3225L42.7917 52.0381L42.3632 51.7536L41.9347 51.4681L41.5161 51.1859L41.0876 50.9003L40.6591 50.6137L40.2306 50.3271L39.8021 50.0405L39.3736 49.7539L39.0213 49.545L38.6933 49.5997L38.2029 49.7462L37.6883 49.8994L37.1792 50.0514L36.2669 50.3228L35.6805 50.4978L35.2222 50.6444L34.7341 50.8008L34.0935 51.0054L33.5568 51.1771L32.9284 51.3784L32.3706 51.5567L31.9024 51.7055L31.4143 51.8619L31.0277 51.9845V52.9756V53.9623L31.0289 54.9458V55.926V56.9017L31.0299 57.8732V58.8413V59.8051V60.7655L31.0311 61.7227V62.6767V63.6273L31.0322 64.5736V65.5166V66.4562L31.0332 67.3927L30.9007 67.385L30.6037 67.4397L30.1067 67.5699L29.6937 67.6355L29.5125 67.595L29.3502 67.4977L29.2077 67.292L28.9957 67.0415L28.7781 66.838L28.5075 66.4212L28.3198 66.1007L27.857 65.3984L27.7919 65.1763L27.7057 64.9499L27.5512 64.7606L27.0056 64.2957L26.3705 63.8756L25.7477 63.4632L25.572 63.3626L25.2805 63.2346L24.9216 63.2324L24.6764 63.2576L23.9298 63.3943L23.3567 63.554L22.5803 63.7706L21.9784 64.0102L21.8436 64.0802L21.4041 64.369L20.8663 64.8481L20.2379 65.522L20.1561 65.0888L20.1286 64.4204L20.1396 64.2049L20.3108 63.6415L20.4841 63.2543L20.6233 62.8506L20.6863 62.3222L20.5571 61.4712L20.4123 61.2819L20.239 61.2206L20.0535 61.2031L19.7122 61.2381L19.5532 61.307L19.2759 61.0193L18.9413 60.9734L18.7647 61.0532L18.5857 61.0948L18.3914 61.015L18.2235 60.8443L18.1208 60.6605L18.0413 60.4527L17.7784 60.0348L17.5178 59.8072L17.2019 59.7569L16.6862 59.77L16.5238 59.7416L16.515 59.5042L16.5801 58.9791L16.5812 58.7045L16.5448 58.4453L16.4587 58.232L16.3493 58.0471L16.0423 57.743L15.8104 57.3141L15.4228 56.4292L15.0837 55.4315L14.9346 55.2805L14.632 55.1219L13.9705 54.995L13.5343 54.8637L13.363 54.7368L13.2913 54.5169L13.2935 54.2807L13.3288 54.0017L13.4304 53.7654L13.7772 53.5827L14.5315 53.5422L15.1754 53.5619L15.7596 53.9842L15.9506 54.0805L16.1583 54.1078L16.5713 53.9744L16.7767 53.9361L17.2936 53.9798L17.1389 53.7796L16.9446 53.6746L16.7436 53.6833L16.5702 53.6013L16.2842 53.2141L15.7883 52.7721L15.6735 52.5894L15.6381 52.2962L15.7342 52.0435L16.0854 51.7843L16.3847 51.4309L16.5205 50.9616L16.6431 50.745L16.8971 50.4048L17.2814 50.4705L17.88 50.2243L18.8596 50.2725L20.0324 50.2024L20.3549 50.2276L21.1026 50.4683L21.5322 50.5722L22.0546 50.6247L22.4312 50.5186L22.0767 50.1904L21.3069 49.801L21.1093 49.4684L21.4615 48.5626L21.9386 47.7345L22.2302 46.7478L22.1485 45.7632L22.0093 45.4908L22.0546 45.1703L22.2202 44.899L22.3373 44.6288L22.2357 44.3028L22.0258 43.793L21.9177 43.6278L21.5499 43.3521L20.811 43.3401L20.208 43.1892L20.0126 43.3106L19.9021 43.4966L19.7641 43.6191L19.2947 43.8663L19.1379 43.9155L18.9744 43.8663L18.7436 43.5884L18.5382 43.6191L17.9165 43.4452L17.6238 43.0666L17.5145 43.0141L16.5094 42.7111L16.1605 42.6531L15.3598 42.9649L14.78 43.3642L14.6165 43.4222L14.3172 43.6749L14.1483 43.7153L13.9749 43.6716L13.8104 43.6869L13.4602 44.0654L12.8264 44.5052L12.5116 44.7819L12.1604 44.9537L11.7694 45.062L11.3708 45.0795L11.2239 45.179L10.7678 45.214L10.4894 45.295L10.4795 45.4449L10.5347 45.7796L10.2984 45.6615L10.0499 45.889L10.1316 46.1034L9.98254 46.052L9.28455 45.6385L8.71139 45.3453L8.20227 45.085L8.12826 45.0379L7.98913 44.911L7.88971 44.713L7.86874 44.4964L7.91842 44.3367L8.04211 44.235L8.18791 44.1956L8.31713 44.2284L8.46071 44.3258L8.71692 44.4439L9.0493 44.4658L9.25698 44.375L9.28455 44.1573L8.88921 43.35L8.52474 42.6969L8.17248 41.9683L8.02337 41.7036L7.59157 41.091L7.16522 40.486L6.82839 39.9456L6.65172 39.7793L6.10836 39.7104L5.07245 39.577L4.70576 39.5135L4.412 39.6743L4.11717 39.8001L3.8377 39.566L3.61688 39.181L3.50087 38.8572L3.55722 38.5257L3.58041 38.0356L3.41142 37.5521L3.22478 37.3125L2.7565 37.132L2.16016 36.724L2 35.9768L2.28938 34.9025L2.75542 34.139L3.09448 33.8184L3.25571 33.5384L3.3087 33.2955L3.26785 33.0636L3.06684 32.8164L2.75542 32.5757L2.59749 32.2793L2.66267 31.6426L2.86921 30.7226L3.18723 29.9842L3.61351 29.5739L3.98128 29.2797L4.126 29.0051L4.13368 28.6146L4.12485 28.2459L4.22313 27.9779L4.37776 27.7646L4.54122 27.5731L4.77094 27.3587L5.06915 27.3062L5.39715 27.4768L5.84331 27.9352L6.49709 28.8377L6.87039 29.4273L7.00513 29.6089L7.34634 29.959L7.65446 30.1001L8.16803 29.8813L8.66057 29.6264L8.81964 29.4645L8.92123 29.2228L8.84283 28.8093L8.74011 28.5391L8.63077 28.1945L8.47944 27.5939L8.37234 26.6487L8.24534 26.3479L8.33809 26.3129L8.58547 26.3753L8.81412 26.4026L9.14097 26.1936L9.58936 25.7998L10.41 25.1905L10.5833 24.7879L10.7236 24.3394L10.9511 24.0638L11.4734 23.9729L11.9572 23.8286L12.2984 23.5091L12.833 23.228L13.2725 23.0573L13.4658 22.8998L13.6038 22.6635L14.1074 21.9962L14.5028 21.5849L14.8507 21.1604L14.9666 20.8935L15.2417 20.9427L15.6613 21.1276L16.1119 21.2961L16.4421 21.5575L16.5073 21.8245L16.5393 22.0345L16.6729 22.1428L16.8331 22.1636L17.0738 22.1111L17.4946 22.1012L18.0103 21.7555L18.7282 21.1714L19.3853 20.9898L19.731 21.1287L20.017 21.5586L20.2434 21.9623L20.4764 22.1122L20.6211 22.1165L20.6741 22.1231L20.9635 22.0312L20.9856 22.0323L21.2495 22.0487L21.5035 22.1854L21.9243 22.2008L22.5107 22.0968L22.5726 22.0542L22.8541 22.11L23.1966 22.2959L23.4627 22.5169L23.9398 23.2411L24.2137 23.4271L24.7725 23.6841L25.0342 23.9084L25.339 24.2716L25.4981 24.4915L25.8294 24.8886L26.2126 25.5373L26.2811 26.0525L26.3683 26.4868L26.5108 26.6925L26.6279 26.7177L26.7537 26.6465L26.8774 26.4485L26.9205 26.1182L26.883 25.5329L26.7847 25.0538L26.6588 24.9017L26.598 24.7332L26.6809 24.5188L26.894 24.4149L27.1591 24.4805L27.5953 24.7562L28.0503 25.103L28.6102 25.709L29.1237 26.093L29.6859 26.3993L30.1321 26.4901L30.4777 26.3982L30.8853 26.1488L31.2586 25.86L31.4286 25.557L31.5501 25.2255L32.1134 24.7825L32.628 24.3766L32.8621 24.4499L33.0266 24.5648L33.5546 24.3175L33.7379 24.2497L34.2404 24.1535L34.7595 24.2957L35.1736 24.731L35.5745 25.0111L35.9334 24.9783L36.2305 24.835L36.4271 24.5637L36.5762 24.2432L36.775 24.0375L36.8048 24.0244L37.4442 24.136L37.8451 24.1195L37.8882 24.0736L38.4172 24.1611L39.0014 24.6129L39.3637 25.1128L39.8275 25.7484L40.0428 25.9552L40.3565 26.0438L40.6028 26.0821L40.933 26.1805L41.8055 26.3129L41.938 26.3906L42.0274 26.4945L41.9468 26.8402L42.0241 26.9277L42.732 26.6816L42.922 26.4978L43.155 25.9749L43.3638 25.4476L43.5195 25.2518L43.684 25.2004L43.8497 25.2791L44.0816 25.5909L44.3952 25.9081L44.8193 26.0285L45.0778 26.0766L45.4786 26.1028L46.4218 25.9486L47.3042 25.5647L47.8078 25.1467L48.0419 24.5188L48.1888 23.8034L48.4141 23.3505L48.3202 22.8866L47.8763 22.4447L47.7261 22.3113L46.646 22.0629L46.5797 21.8835L46.5178 21.8419L45.4532 21.4481L44.9408 21.2796L44.7961 21.0193L44.7012 20.678L44.3687 20.3728L43.7083 20.0949L43.5935 19.8827L43.7028 19.6683L44.2241 19.4298L44.8193 18.9266L45.0479 18.8227L45.5769 18.7997L46.0673 18.3873L46.4052 18.151L46.5819 17.8698L46.5356 17.5788L46.0452 16.6982L45.8994 16.1633L45.9867 15.8143L46.2683 15.4369L46.4284 15.2301L46.6206 14.8582L46.7465 14.6591L47.2412 14.5749L47.8409 14.5399L48.2529 14.6285L48.8283 14.6744L49.3528 14.7433L49.6179 14.8046L49.8133 14.6909L49.9547 14.4906L49.9503 14.2259L49.7438 13.9688L48.974 13.6308L48.6438 13.3519L48.3854 13.3825L47.9525 13.295L47.5615 13.1123L47.2158 13.051L47.1032 12.7972L47.1739 12.4406L47.3075 12.236L47.5626 12.1343L47.8398 12.1857L48.1413 12.0369L48.2286 11.9494L48.254 11.8367L48.2054 11.6759L48.0651 11.5436L47.8663 11.5086L47.6377 11.6212L47.3639 11.6945L46.9011 11.5293L46.5322 11.3302L46.551 11.1465L46.8238 10.8719L46.9463 10.6487V10.3402V9.97923L47.0413 9.55588L47.312 9.26597L47.63 9.11063L48.4494 9.39397L49.4743 9.64665L49.6499 9.60509L49.7019 9.47162L49.8189 9.3535L51.2414 9.29879L51.5174 9.1358L51.6555 9.0056L53.0227 8.81855L53.1851 8.64024L53.3861 8.47396L53.7008 8.47723L54.0752 8.41053L54.5976 8.20705L54.9675 8.09544L55.0294 8.0867L55.4203 8.13156L55.9051 7.97075L56.0101 7.90402L56.0885 7.7826L56.5115 7.54847L57.3232 7.35594L57.5209 7.47082L57.9085 7.52333L58.4022 7.4369L58.7666 7.28921L58.9787 7.4358L59.2669 7.58676L59.4823 7.45877L59.5894 7.05511L59.7286 6.66021L59.9726 6.47312L60.1659 6.40422L60.3404 6.25215L60.4718 6.09354L61.1864 6.11761L61.8258 5.72271L61.9517 5.90211L62.7822 5.86052L63.8137 5.60563L64.431 5.48641L65.4967 5.21947L65.9893 5.00287L66.695 4.86613L67.3422 4.77095L67.7652 4.39137L68.1064 4.33775L68.5217 4.30603L68.7757 4.21523L68.9413 4.07521L69.0484 3.81158L68.9899 3.47463L68.9303 3.22958L69.2274 3.09284L69.6515 3.05018L69.9187 2.99439L70.5019 2.43647L70.9039 2.16846L71.3202 2L72.1562 2.09191L72.9193 2.17614L73.6847 2.44305L74.0867 2.77562L74.4323 3.02611L74.7593 3.14536L75.0552 3.22194L75.3987 3.10817L75.6417 2.95503L75.783 2.73513L75.9973 2.57762L76.7781 2.4551L76.9393 2.69246L77.3104 3.40682L77.5633 4.35528L77.9797 5.60783L78.163 6.22154L78.0824 6.54206L78.0835 6.98073L78.0603 7.46207L77.7532 8.00574L77.878 8.25846L78.6324 8.53959L79.6882 8.43677L80.3397 8.20922L80.7031 8.29238L80.893 8.15563L81.0156 7.75305L81.2663 7.66225L81.5236 7.94341L81.7103 8.41817L81.8892 8.72337L81.876 9.08656L81.9422 9.55151L82.0736 9.66855L82.332 9.49242L82.5043 9.38739L82.5452 9.24627L82.4723 9.07234L82.4381 8.89513L82.4955 8.73212L82.6181 8.66538L82.9858 8.71683L83.5215 8.80653L84.1576 9.46725L84.501 9.58649L84.6458 9.59855L84.9682 9.56025L85.3559 9.371L85.6165 9.1325L85.7038 9.01545L85.854 9.03625L85.9964 9.14672L86.0064 9.38739L85.8926 9.73529L85.5061 10.0536L85.0257 10.349L84.7341 10.8894L84.6722 11.4517L84.7992 11.7372L84.9086 11.9275L84.9395 12.1945L85.0477 12.2295L85.2443 12.1201L85.7799 11.5665L86.0527 11.4298L86.4481 11.3423L87.0986 11.386L87.5359 11.5665L87.7446 11.817L87.9744 12.0238L88.1334 11.9374L88.2151 11.6989L88.2195 11.4254L88.2869 11.2001L88.9981 10.6455L89.4719 10.2757L89.6342 10.2319L89.9512 10.3085L90.1478 10.2691L90.668 9.92124L91.1539 9.52413L91.2014 9.25502L91.2202 9.01108L91.3405 8.90061L92.0208 8.81528L92.1335 8.76931L92.7144 8.49145L93.5195 8.01669L93.9104 7.73663L94.6228 7.61193L94.7553 7.53098L94.9916 7.34172L95.4378 7.07918L95.6797 7.05074L95.5295 7.68521L95.2633 8.41597L95.1131 8.6107L94.3908 8.57788L94.3919 8.77699L94.5057 9.08109L94.5874 9.25175L94.6747 9.40492L94.869 9.66966L95.6289 10.2921L96.5952 11.0819L97.6388 11.9658L98.3678 12.5806L98.6626 12.8979L98.8504 13.1451L99.3871 14.0356L99.8973 14.8768L100.758 16.3514L101.519 17.767L102.358 19.3149L102.843 20.2054L103.834 22.0574L104.1 22.623L104.602 23.6907L105.045 24.6873L105.437 25.5647L105.684 25.6434L105.704 25.406L105.748 25.2474L105.874 25.1577L106.164 24.8984L106.319 24.8361L106.551 24.8623L106.794 24.73L106.884 24.4805L106.825 24.0178L106.788 23.8045L106.87 23.5748L107.003 23.4851L107.187 23.4129L107.357 23.3757L107.497 23.1164L107.759 23.0376L108.001 23.0858L108.2 23.0956L108.376 23.2849L108.474 23.5441L108.664 23.5649L108.974 23.5386L109.017 23.7552L108.929 24.1173L108.82 24.3974L108.801 24.6217L108.965 24.731L109.568 24.6337L109.782 24.6818L109.85 24.9094L109.936 25.0975L109.978 25.3273L109.915 25.581L110.023 25.7331L110.544 25.7364L110.91 25.6139L111.474 25.604L111.983 25.8731L112.335 25.8316L112.689 25.7222L113.21 25.7911L113.575 25.5789L113.827 25.313L113.905 25.1041L114.037 24.9881L114.527 24.9892L114.836 24.9684L115.065 24.661L115.274 24.5221L115.625 24.4958H115.883L116.578 24.7814L117.001 25.0177L117.441 25.3535L117.704 25.5635L117.882 26.0372L118.182 26.3851L118.42 26.7909L118.478 27.1902L118.674 27.9068L118.877 28.142H119.118L119.422 28.2393L119.758 28.317L120.475 28.8475L120.739 28.8629L120.943 28.9898L120.973 29.2337L120.898 29.516L120.977 29.7862L121.212 30.1307L121.398 30.4666L121.626 30.8736L121.696 31.1054L121.879 31.182L122.126 31.0672L122.52 31.1547L123.702 31.3855L123.867 31.4139L123.993 31.6546L124.164 31.6349L124.361 31.6251L124.633 31.6535L124.823 31.4314L124.979 31.2367L125.369 30.9961L125.693 30.669L125.964 30.378L126.167 30.3397L126.332 30.4753L126.339 30.727L126.135 30.9107L125.976 31.1328L126.014 31.3549L126.287 31.3746L126.589 31.7082L127.027 32.4882L127.175 32.6512L127.391 32.8043L127.631 32.8733L127.896 32.9849L128.092 33.3054L128.186 33.5964V33.5964ZM13.4713 52.0807L13.3642 52.1398L13.299 51.8641L13.4183 51.6322L13.5884 51.6016L13.5298 51.9681L13.4713 52.0807V52.0807ZM13.0781 52.5883L12.9666 52.7098L12.8009 52.6912L12.4906 52.2328L12.5778 51.7668L12.6905 51.6716L12.8473 51.606L12.8683 51.7088L12.6485 51.9177L12.6276 52.1814L12.812 52.4735L13.0781 52.5883V52.5883Z" stroke="white" stroke-width="2"/>
<path d="M109 42.8399L108.757 42.7609L108.279 42.7442L107.988 42.7935L107.851 42.8213L107.647 42.984L107.502 43.1457L107.438 43.4207L107.515 43.7311L107.41 44.376L107.267 44.6185L106.968 45.0395L106.794 45.1305L106.501 45.2058L106.221 45.3303L105.67 45.4511L105.075 45.5125L104.864 45.6026L104.713 45.8898L104.606 46.1286L104.541 46.3107L104.372 46.9036L104.276 47.4324L104.37 48.0875L104.44 48.8132L104.436 49.0632L104.581 49.433L104.654 49.6598L104.619 49.9813L104.41 50.2341L104.285 50.5686L104.167 50.7108L103.827 50.7749L103.507 50.8139L103.184 51.1011L102.925 51.299L102.521 51.5508L102.33 51.5982L102.226 51.47L102.156 51.1847L102.018 51.0583L101.822 51.0481L101.665 51.0453L101.156 50.9682L100.83 50.9738L100.586 51.0351L100.307 51.0658L99.8244 50.9617L99.5127 50.8734L99.3029 50.7889L98.8018 50.5389L98.1435 50.2415L97.8738 50.1542L97.7137 50.2434L97.6893 50.4134L97.6472 50.8251L97.5704 51.0825L97.1115 52.3797L96.8278 53.2774L96.4672 54.1351L96.353 54.7085L96.1376 55.4324L95.9232 55.9556L95.8361 56.2399L95.8286 56.3561L95.866 56.5187L96.1947 56.6962L96.5393 56.8049L96.6152 56.8727L96.6527 57.0567L96.6395 57.3578L96.5768 57.6422L96.4775 57.8652L96.3792 57.9758L96.2668 57.9823L96.0514 57.8392L95.8595 57.6793L95.7106 57.631L95.3322 57.7202L94.982 57.842L94.8649 57.8457L94.6617 57.7676L94.4566 57.6059L94.3752 57.2928L94.1991 57.1506L93.9631 57.2928L93.2608 57.5316L92.4873 57.8159L91.9956 57.9628L91.8036 57.9405L91.4225 57.9739L91.0919 58.0529L90.8437 58.1626L90.354 58.314L89.9092 58.4153L89.6226 58.6448L89.4166 58.866L89.425 58.9496L89.5748 59.0807L89.7462 59.1829L90.0889 59.1587L90.4232 59.1429L90.7014 59.2814L90.9505 59.3706L91.0189 59.4858L90.9505 59.5983L90.8062 59.6243L90.7557 59.7023L90.781 59.8073L90.6855 60.0806L90.6359 60.4941L90.6855 60.9011L90.7126 61.2756L90.6948 61.4642L90.6855 61.7328L90.7913 61.914L90.8859 62.2587L91.0554 62.4743L91.311 63.2196L91.4618 63.6536L91.6004 64.1442L91.5002 64.4091L91.5068 64.5624L91.6697 64.6906L91.7409 64.9406L91.8167 65.093L91.7961 65.2445L91.7268 65.303L91.3738 65.211L91.0844 65.3625L90.7773 65.5149L90.7361 65.5957L90.7276 65.684L90.7585 65.7611L90.9355 65.8968L91.1799 65.9814L91.1678 66.1171L90.8653 66.1793L90.4092 66.3865L90.2828 66.6086L90.1854 66.853L90.1769 66.9943L90.2228 67.3725L90.2922 67.7907L90.4223 68.2311L90.4326 68.3668L90.3652 68.4634L90.3025 68.5257L89.94 68.1289L89.5448 67.7414L89.2358 67.6522L88.6974 67.5881L88.4117 67.5853L88.2497 67.4933L88.0905 67.2684L87.9004 67.0649L87.6569 66.8493L87.5576 66.5203L87.4574 66.4618L87.2814 66.5036L86.9874 66.4934L86.8225 66.4646L86.5762 66.4079L86.1839 66.2732L85.8739 66.1459L85.4834 66.1217L85.2587 66.1468L84.5572 66.1709L83.9747 66.0371L83.5037 66.013L83.2134 66.0204L83.0748 66.0037L82.8369 66.0046L82.4867 65.9758L82.0185 65.7695L81.8368 65.7593L81.7216 65.7667L80.9387 65.9182L80.5781 65.9535L79.8131 65.9358L79.062 65.9191L78.8204 65.8875L78.6865 65.9033L78.4027 66.2666L78.281 66.3233L77.573 66.2444L76.7358 66.0055L76.1309 65.7435L75.6177 65.4656L74.9378 65.027L74.5314 64.8105L74.4724 64.935L74.3647 64.975L74.2083 64.9945L73.8478 64.9722L73.6811 65.1943L73.2409 65.3532L72.9609 65.4954L72.8148 65.6561L72.5358 66.7183L72.4609 67.1058L72.6482 67.7563L72.4337 67.7182L72.1818 67.5518L72.0947 67.4208L71.8521 67.3409L70.97 67.2201L70.8052 67.0705L70.7022 66.9487L70.4737 66.8688L70.1506 66.8075L69.4483 66.525L69.1486 66.5148L68.2421 66.2973L68.0941 66.2992L68.0267 66.3085L67.6745 66.4507L67.447 66.4915L67.2045 66.4339L66.7699 66.6096L66.5349 66.8437L66.341 67.1299L66.1556 67.3102L66.1004 67.5797L65.9693 67.7191L65.8129 67.9979V68.1605L65.9543 68.3185L65.7276 68.4644L65.4758 68.5099L65.3456 68.5991L65.2069 68.8138L65.0777 68.9978L65.0019 69.0628L64.8858 69.0507L64.7509 68.9076L64.5589 68.9141L64.3304 69.0907L64.0589 69.3778L63.7171 69.8155L63.3602 70.0478L62.9089 70.2448L62.582 70.3322L62.3236 70.4818L61.8919 70.7847L61.8057 70.9632L61.493 71.0682L61.241 71.189L61.0079 71.3906L60.9507 71.7465L60.8028 71.951L60.446 72.2307L60.1463 72.5132L59.9506 72.7901L59.7436 73.0828L59.679 73.2436L59.6715 73.4638L59.7689 73.6487L59.7876 73.8244L59.7136 73.9517L59.5114 74L59.2997 73.9628L58.9748 73.8374L58.6292 73.6125L58.5028 73.5019L58.3333 73.3123L58.3576 73.1367L58.4448 72.7938L58.5037 72.5587L58.3632 72.4463L58.2593 72.3255L58.1853 72.2093L58.0392 71.9798L57.8557 72.0365L57.6965 72.0931L57.512 72.0123L56.9679 72.0476L56.5578 72.0736L56.1719 72.0978L55.6831 72.1294L55.0931 72.1675L54.9236 72.1173L54.8178 72.0411L54.7111 71.7242L54.6492 71.4547L54.535 70.9501L54.4582 70.5589L54.3674 70.0924L54.3074 69.5758L54.2643 69.2078L53.8176 69.1957L53.4608 69.1864L52.9786 69.1734L52.9823 68.8797L52.9879 68.509L52.9945 68.0862L53.0844 67.5305L53.1181 67.064L53.1603 66.4925L53.1864 66.1143L53.2164 65.697L52.9673 65.8262L52.6929 65.9684L52.4354 66.1013L52.2584 65.7639L52.0861 65.435L51.8248 64.9341L51.6291 64.5587L51.2891 64.3384L51.0354 64.1758L50.7741 63.9017L50.5484 63.6164L50.334 63.3451L50.0774 63.11L49.8311 63.1843L49.553 63.332L49.2851 63.4733L49.0014 63.6238L48.8628 63.6972L48.5331 63.6694L48.2456 63.6452L47.7316 63.6015L47.298 63.5644L46.855 63.5263L46.2379 63.4733L45.6123 63.4203L45.1946 63.4909L44.6646 63.5792L44.1083 63.6721L43.6485 63.7493L43.0661 63.8459L42.6306 63.9184L42.4161 63.9082L42.1464 63.6034L41.7138 63.1137L41.4525 62.8163L41.1959 62.5245L40.8251 62.1036L40.5273 61.7839L40.236 61.4717L40.0684 61.1827L39.9851 60.8184L39.8334 60.653L39.4962 60.43L39.1329 60.1902L38.7695 59.9504L38.4062 59.7107L38.0428 59.47L37.6795 59.2293L37.3161 58.9887L36.9528 58.7471L36.5894 58.5054L36.2261 58.2638L35.8627 58.0213L35.5078 57.7816L35.1444 57.539L34.7811 57.2955L34.4177 57.0521L34.0544 56.8086L33.691 56.5652L33.3923 56.3877L33.1142 56.4341L32.6984 56.5586L32.262 56.6887L31.8303 56.8179L31.0568 57.0484L30.5595 57.1971L30.1709 57.3216L29.7569 57.4545L29.2138 57.6282L28.7587 57.7741L28.2258 57.9451L27.7529 58.0966L27.3559 58.223L26.9419 58.3558L26.6141 58.4599V59.3018V60.14L26.6151 60.9754V61.8081V62.637L26.616 63.4622V64.2845V65.1032V65.9191L26.617 66.7322V67.5425V68.3501L26.6179 69.1539V69.9549V70.7531L26.6188 71.5486L26.5065 71.5421L26.2546 71.5886L25.8331 71.6991L25.4829 71.7549L25.3294 71.7205L25.1917 71.6378L25.0709 71.4631L24.8911 71.2503L24.7066 71.0774L24.4771 70.7234L24.3179 70.4511L23.9256 69.8546L23.8703 69.6659L23.7972 69.4736L23.6662 69.3128L23.2035 68.9179L22.6651 68.561L22.1369 68.2107L21.988 68.1252L21.7408 68.0165L21.4364 68.0146L21.2285 68.036L20.5955 68.1521L20.1094 68.2878L19.4511 68.4718L18.9407 68.6753L18.8265 68.7348L18.4538 68.9801L17.9977 69.3871L17.4649 69.9596L17.3955 69.5916L17.3722 69.0238L17.3815 68.8407L17.5267 68.3621L17.6737 68.0332L17.7917 67.6903L17.8451 67.2415L17.7355 66.5185L17.6128 66.3577L17.4658 66.3057L17.3085 66.2908L17.0191 66.3206L16.8843 66.3791L16.6492 66.1347L16.3655 66.0957L16.2156 66.1635L16.0639 66.1988L15.8991 66.131L15.7567 65.986L15.6697 65.8299L15.6022 65.6534L15.3794 65.2984L15.1583 65.1051L14.8905 65.0623L14.4532 65.0735L14.3155 65.0493L14.308 64.8477L14.3633 64.4016L14.3642 64.1684L14.3333 63.9481L14.2603 63.767L14.1676 63.6099L13.9072 63.3516L13.7105 62.9873L13.3819 62.2355L13.0944 61.388L12.968 61.2598L12.7114 61.125L12.1504 61.0172L11.7805 60.9057L11.6353 60.7979L11.5745 60.6111L11.5763 60.4105L11.6063 60.1735L11.6925 59.9728L11.9865 59.8176L12.6262 59.7832L13.1721 59.7999L13.6675 60.1586L13.8295 60.2404L14.0055 60.2636L14.3558 60.1503L14.53 60.1177L14.9682 60.1549L14.8371 59.9848L14.6723 59.8956L14.5019 59.9031L14.3549 59.8334L14.1123 59.5044L13.6919 59.129L13.5945 58.9738L13.5644 58.7247L13.646 58.5101L13.9437 58.2899L14.1975 57.9897L14.3127 57.591L14.4167 57.4071L14.632 57.1181L14.9579 57.1738L15.4655 56.9647L16.2962 57.0056L17.2907 56.9461L17.5641 56.9675L18.1981 57.172L18.5624 57.2602L19.0053 57.3048L19.3247 57.2147L19.0241 56.9359L18.3713 56.6051L18.2038 56.3226L18.5025 55.5532L18.907 54.8497L19.1543 54.0115L19.085 53.1752L18.967 52.9438L19.0053 52.6715L19.1458 52.4411L19.2451 52.2115L19.1589 51.9346L18.981 51.5016L18.8892 51.3613L18.5774 51.1271L17.9509 51.1169L17.4396 50.9886L17.2738 51.0918L17.1802 51.2498L17.0631 51.3538L16.6651 51.5638L16.5321 51.6057L16.3935 51.5638L16.1978 51.3278L16.0237 51.3538L15.4964 51.2061L15.2483 50.8846L15.1555 50.84L14.3033 50.5825L14.0074 50.5333L13.3285 50.7981L12.8368 51.1373L12.6982 51.1866L12.4444 51.4012L12.3012 51.4356L12.1541 51.3984L12.0146 51.4114L11.7177 51.733L11.1802 52.1065L10.9133 52.3416L10.6155 52.4876L10.284 52.5795L9.94598 52.5944L9.82143 52.679L9.43465 52.7087L9.19865 52.7775L9.19024 52.9048L9.23705 53.1891L9.03666 53.0888L8.82592 53.2821L8.89525 53.4642L8.76882 53.4205L8.17695 53.0692L7.69094 52.8202L7.25923 52.5991L7.19647 52.5591L7.0785 52.4513L6.99419 52.2831L6.97642 52.0991L7.01854 51.9634L7.12343 51.877L7.24706 51.8435L7.35663 51.8714L7.47838 51.9541L7.69563 52.0545L7.97747 52.0731L8.15358 51.9959L8.17695 51.811L7.84173 51.1252L7.53268 50.5705L7.23397 49.9516L7.10754 49.7267L6.74139 49.2063L6.37987 48.6924L6.09425 48.2334L5.94444 48.0921L5.48369 48.0336L4.6053 47.9202L4.29436 47.8663L4.04527 48.0029L3.79526 48.1098L3.55829 47.9109L3.37104 47.5838L3.27267 47.3088L3.32045 47.0272L3.34011 46.6109L3.19682 46.2001L3.03855 45.9966L2.64148 45.8433L2.13581 45.4967L2 44.862L2.24538 43.9495L2.64056 43.3008L2.92807 43.0286L3.06479 42.7907L3.10971 42.5844L3.07508 42.3874L2.90463 42.1774L2.64056 41.9729L2.50664 41.7211L2.56192 41.1803L2.73705 40.3988L3.00672 39.7715L3.36818 39.423L3.68003 39.1731L3.80275 38.9398L3.80926 38.6081L3.80178 38.2949L3.88511 38.0672L4.01623 37.886L4.15484 37.7234L4.34963 37.5413L4.6025 37.4967L4.88062 37.6416L5.25895 38.031L5.81332 38.7976L6.12986 39.2985L6.24412 39.4528L6.53345 39.7501L6.79471 39.87L7.2302 39.6841L7.64785 39.4676L7.78274 39.3301L7.86888 39.1247L7.8024 38.7735L7.71529 38.5439L7.62258 38.2512L7.49427 37.741L7.40344 36.9382L7.29576 36.6826L7.37441 36.6529L7.58417 36.7059L7.77805 36.7291L8.05521 36.5516L8.43542 36.2171L9.13126 35.6995L9.27827 35.3575L9.39721 34.9765L9.59012 34.7423L10.033 34.6652L10.4432 34.5425L10.7326 34.2712L11.1858 34.0324L11.5586 33.8874L11.7224 33.7536L11.8395 33.5529L12.2665 32.986L12.6018 32.6366L12.8968 32.2761L12.9951 32.0493L13.2283 32.0911L13.5841 32.2482L13.9662 32.3913L14.2462 32.6134L14.3015 32.8401L14.3286 33.0185L14.4419 33.1105L14.5777 33.1282L14.7819 33.0836L15.1387 33.0752L15.576 32.7816L16.1847 32.2853L16.7419 32.1311L17.0351 32.2491L17.2776 32.6143L17.4696 32.9572L17.6672 33.0845L17.7898 33.0882L17.8347 33.0938L18.0801 33.0158L18.0989 33.0167L18.3227 33.0306L18.5381 33.1468L18.8948 33.1598L19.3921 33.0715L19.4446 33.0353L19.6833 33.0826L19.9737 33.2406L20.1994 33.4283L20.6039 34.0435L20.8361 34.2015L21.31 34.4199L21.5319 34.6104L21.7904 34.9189L21.9253 35.1057L22.2062 35.443L22.5311 35.994L22.5892 36.4317L22.6632 36.8006L22.784 36.9753L22.8833 36.9967L22.99 36.9363L23.0949 36.7681L23.1314 36.4875L23.0996 35.9903L23.0162 35.5833L22.9095 35.4541L22.858 35.311L22.9282 35.1289L23.109 35.0406L23.3337 35.0964L23.7036 35.3305L24.0894 35.6251L24.5642 36.1399L24.9997 36.4661L25.4764 36.7263L25.8547 36.8034L26.1478 36.7254L26.4934 36.5135L26.8099 36.2682L26.9541 36.0108L27.0571 35.7292L27.5347 35.3528L27.9711 35.0081L28.1696 35.0704L28.3091 35.1679L28.7568 34.9579L28.9123 34.9003L29.3384 34.8185L29.7785 34.9393L30.1297 35.3092L30.4696 35.5471L30.7739 35.5192L31.0258 35.3974L31.1926 35.167L31.319 34.8947L31.4876 34.72L31.5128 34.7089L32.055 34.8037L32.395 34.7897L32.4315 34.7507L32.8801 34.825L33.3755 35.2088L33.6826 35.6335L34.0759 36.1734L34.2586 36.349L34.5245 36.4243L34.7334 36.4568L35.0134 36.5404L35.7532 36.6529L35.8655 36.7189L35.9414 36.8071L35.873 37.1008L35.9386 37.1751L36.5389 36.9661L36.6999 36.8099L36.8975 36.3658L37.0745 35.9178L37.2066 35.7515L37.3461 35.7078L37.4866 35.7747L37.6832 36.0396L37.9492 36.3091L38.3088 36.4113L38.5279 36.4522L38.8678 36.4745L39.6676 36.3434L40.4158 36.0173L40.8429 35.6623L41.0414 35.1289L41.1659 34.5212L41.357 34.1364L41.2774 33.7424L40.9009 33.367L40.7736 33.2537L39.8577 33.0427L39.8015 32.8903L39.749 32.855L38.8463 32.5205L38.4118 32.3773L38.2891 32.1562L38.2086 31.8663L37.9267 31.607L37.3667 31.371L37.2693 31.1907L37.362 31.0085L37.804 30.806L38.3088 30.3785L38.5026 30.2902L38.9512 30.2707L39.367 29.9204L39.6535 29.7197L39.8034 29.4808L39.7641 29.2336L39.3483 28.4856L39.2246 28.0312L39.2986 27.7347L39.5374 27.4141L39.6732 27.2385L39.8362 26.9226L39.9429 26.7534L40.3625 26.6819L40.8709 26.6522L41.2203 26.7274L41.7082 26.7664L42.153 26.825L42.3777 26.877L42.5435 26.7804L42.6633 26.6103L42.6596 26.3854L42.4845 26.1671L41.8318 25.8799L41.5518 25.643L41.3327 25.669L40.9655 25.5947L40.634 25.4395L40.3409 25.3874L40.2454 25.1718L40.3054 24.8689L40.4186 24.6951L40.635 24.6087L40.87 24.6524L41.1257 24.526L41.1996 24.4517L41.2212 24.3559L41.18 24.2193L41.061 24.1069L40.8925 24.0772L40.6987 24.1729L40.4664 24.2351L40.074 24.0948L39.7612 23.9257L39.7772 23.7696L40.0085 23.5363L40.1124 23.3468V23.0847V22.7781L40.1929 22.4184L40.4224 22.1722L40.6921 22.0402L41.387 22.2809L42.256 22.4955L42.4049 22.4602L42.4489 22.3469L42.5482 22.2465L43.7544 22.2L43.9885 22.0616L44.1055 21.951L45.2649 21.7921L45.4026 21.6406L45.573 21.4994L45.8399 21.5022L46.1573 21.4455L46.6003 21.2727L46.914 21.1778L46.9664 21.1704L47.298 21.2085L47.709 21.0719L47.798 21.0152L47.8645 20.9121L48.2232 20.7132L48.9115 20.5497L49.0791 20.6473L49.4078 20.6919L49.8264 20.6184L50.1354 20.493L50.3152 20.6175L50.5596 20.7457L50.7423 20.637L50.8331 20.2941L50.9511 19.9587L51.1581 19.7997L51.322 19.7412L51.4699 19.612L51.5813 19.4773L52.1873 19.4978L52.7295 19.1623L52.8362 19.3147L53.5405 19.2794L54.4151 19.0628L54.9386 18.9616L55.8423 18.7348L56.26 18.5508L56.8583 18.4347L57.4071 18.3538L57.7658 18.0314L58.0552 17.9858L58.4073 17.9589L58.6227 17.8818L58.7631 17.7628L58.8539 17.5389L58.8043 17.2526L58.7537 17.0445L59.0057 16.9283L59.3653 16.8921L59.5919 16.8447L60.0864 16.3708L60.4273 16.1431L60.7803 16L61.4892 16.0781L62.1363 16.1496L62.7852 16.3764L63.1261 16.6589L63.4192 16.8716L63.6964 16.9729L63.9474 17.038L64.2386 16.9413L64.4447 16.8113L64.5646 16.6245L64.7463 16.4907L65.4083 16.3866L65.545 16.5882L65.8597 17.195L66.0741 18.0007L66.4272 19.0647L66.5827 19.586L66.5143 19.8583L66.5152 20.2309L66.4956 20.6398L66.2352 21.1016L66.341 21.3163L66.9807 21.5551L67.8759 21.4678L68.4284 21.2745L68.7365 21.3451L68.8976 21.229L69.0015 20.887L69.2141 20.8099L69.4323 21.0487L69.5906 21.452L69.7423 21.7113L69.7311 22.0198L69.7873 22.4147L69.8987 22.5141L70.1178 22.3645L70.2639 22.2753L70.2985 22.1554L70.2367 22.0077L70.2077 21.8572L70.2564 21.7187L70.3604 21.662L70.6722 21.7057L71.1264 21.7819L71.6658 22.3431L71.957 22.4444L72.0797 22.4547L72.3532 22.4222L72.6819 22.2614L72.9029 22.0588L72.9769 21.9594L73.1042 21.977L73.225 22.0709L73.2335 22.2753L73.137 22.5708L72.8092 22.8412L72.4019 23.0921L72.1546 23.5512L72.1022 24.0289L72.2099 24.2714L72.3026 24.4331L72.3288 24.6598L72.4206 24.6896L72.5873 24.5966L73.0415 24.1264L73.2728 24.0102L73.608 23.9359L74.1596 23.9731L74.5305 24.1264L74.7074 24.3392L74.9022 24.5148L75.0371 24.4414L75.1064 24.2388L75.1101 24.0065L75.1673 23.8151L75.7703 23.344L76.1721 23.0299L76.3097 22.9927L76.5785 23.0578L76.7452 23.0243L77.1863 22.7288L77.5983 22.3915L77.6386 22.1629L77.6545 21.9556L77.7566 21.8618L78.3335 21.7893L78.429 21.7503L78.9215 21.5142L79.6042 21.111L79.9357 20.873L80.5398 20.7671L80.6522 20.6984L80.8526 20.5376L81.2309 20.3146L81.436 20.2904L81.3086 20.8294L81.0829 21.4501L80.9556 21.6155L80.3431 21.5877L80.344 21.7568L80.4405 22.0151L80.5098 22.1601L80.5838 22.2902L80.7486 22.5151L81.3929 23.0438L82.2123 23.7147L83.0972 24.4656L83.7153 24.9878L83.9654 25.2573L84.1246 25.4673L84.5797 26.2238L85.0124 26.9384L85.7419 28.191L86.3871 29.3935L87.0988 30.7084L87.5099 31.4648L88.3509 33.038L88.5756 33.5185L89.0017 34.4254L89.3773 35.272L89.7097 36.0173L89.9194 36.0842L89.9363 35.8825L89.9737 35.7478L90.0805 35.6716L90.3259 35.4514L90.4579 35.3984L90.6546 35.4207L90.8606 35.3083L90.9365 35.0964L90.8868 34.7033L90.8549 34.5221L90.9252 34.327L91.0376 34.2508L91.1939 34.1894L91.3382 34.1578L91.4562 33.9376L91.679 33.8707L91.8841 33.9116L92.0527 33.9199L92.2016 34.0807L92.285 34.3009L92.446 34.3186L92.7092 34.2963L92.7457 34.4803L92.6708 34.7878L92.5781 35.0257L92.5621 35.2163L92.7017 35.3092L93.213 35.2265L93.3937 35.2674L93.4518 35.4607L93.5248 35.6205L93.5604 35.8156L93.5071 36.0312L93.5988 36.1604L94.0399 36.1632L94.3508 36.0591L94.8284 36.0507L95.2601 36.2793L95.5588 36.244L95.8595 36.1511L96.3005 36.2096L96.6105 36.0294L96.824 35.8035L96.8905 35.626L97.002 35.5276L97.4178 35.5285L97.68 35.5108L97.8738 35.2497L98.0508 35.1317L98.3486 35.1094H98.5677L99.1568 35.3519L99.5155 35.5527L99.8882 35.8379L100.112 36.0163L100.263 36.4187L100.517 36.7142L100.719 37.059L100.767 37.3982L100.934 38.0068L101.106 38.2066H101.311L101.568 38.2893L101.853 38.3553L102.462 38.806L102.685 38.819L102.858 38.9268L102.884 39.134L102.82 39.3738L102.887 39.6033L103.086 39.896L103.243 40.1813L103.437 40.527L103.496 40.724L103.652 40.789L103.862 40.6915L104.195 40.7658L105.198 40.9619L105.337 40.986L105.444 41.1905L105.589 41.1737L105.756 41.1654L105.987 41.1895L106.148 41.0009L106.28 40.8355L106.611 40.6311L106.885 40.3532L107.116 40.106L107.288 40.0735L107.428 40.1887L107.433 40.4025L107.261 40.5586L107.126 40.7472L107.158 40.9359L107.389 40.9526L107.646 41.236L108.017 41.8986L108.142 42.037L108.326 42.1671L108.529 42.2257L108.754 42.3205L108.92 42.5927L109 42.8399V42.8399ZM11.7271 58.5417L11.6363 58.5919L11.581 58.3577L11.6822 58.1607L11.8264 58.1347L11.7767 58.446L11.7271 58.5417V58.5417ZM11.3937 58.9729L11.2992 59.076L11.1587 59.0602L10.8955 58.6709L10.9695 58.275L11.0651 58.1942L11.198 58.1384L11.2158 58.2257L11.0295 58.4032L11.0117 58.6272L11.1681 58.8753L11.3937 58.9729V58.9729Z" fill="#0463F1"/>
</svg>
